%FSTAX23Y23*%
%MOIN*%
%SFA1B1*%

%IPPOS*%
%ADD14C,0.003940*%
%ADD15C,0.005000*%
%LNcontrolboardv1-1*%
%LPD*%
G54D14*
X05196Y03909D02*
Y03948D01*
G54D15*
X0Y0D02*
X12286D01*
Y16786*
X0*
Y0*
G54D14*
X05177Y03928D02*
X05216D01*
X0365Y03178D02*
X03663D01*
X03656Y03172D02*
Y03185D01*
X04037Y04316D02*
X04076D01*
X04056Y04296D02*
Y04336D01*
X09434Y03909D02*
Y03948D01*
X09414Y03928D02*
X09453D01*
X07887Y03178D02*
X079D01*
X07894Y03172D02*
Y03185D01*
X08274Y04316D02*
X08313D01*
X08294Y04296D02*
Y04336D01*
X05196Y06171D02*
Y0621D01*
X05177Y0619D02*
X05216D01*
X0365Y0544D02*
X03663D01*
X03656Y05434D02*
Y05447D01*
X04037Y06578D02*
X04076D01*
X04056Y06558D02*
Y06598D01*
X09434Y06171D02*
Y0621D01*
X09414Y0619D02*
X09453D01*
X07887Y0544D02*
X079D01*
X07894Y05434D02*
Y05447D01*
X08274Y06578D02*
X08313D01*
X08294Y06558D02*
Y06598D01*
X05196Y08432D02*
Y08471D01*
X05177Y08452D02*
X05216D01*
X0365Y07702D02*
X03663D01*
X03656Y07696D02*
Y07709D01*
X04037Y08839D02*
X04076D01*
X04056Y08819D02*
Y08859D01*
X09434Y08432D02*
Y08471D01*
X09414Y08452D02*
X09453D01*
X07887Y07702D02*
X079D01*
X07894Y07696D02*
Y07709D01*
X08274Y08839D02*
X08313D01*
X08294Y08819D02*
Y08859D01*
X05196Y10694D02*
Y10733D01*
X05177Y10714D02*
X05216D01*
X0365Y09964D02*
X03663D01*
X03656Y09957D02*
Y0997D01*
X04037Y11101D02*
X04076D01*
X04056Y11081D02*
Y11121D01*
X09434Y10694D02*
Y10733D01*
X09414Y10714D02*
X09453D01*
X07887Y09964D02*
X079D01*
X07894Y09957D02*
Y0997D01*
X08274Y11101D02*
X08313D01*
X08294Y11081D02*
Y11121D01*
X05196Y12956D02*
Y12995D01*
X05177Y12976D02*
X05216D01*
X0365Y12226D02*
X03663D01*
X03656Y12219D02*
Y12232D01*
X04037Y13363D02*
X04076D01*
X04056Y13343D02*
Y13383D01*
X09434Y12956D02*
Y12995D01*
X09414Y12976D02*
X09453D01*
X07887Y12226D02*
X079D01*
X07894Y12219D02*
Y12232D01*
X08274Y13363D02*
X08313D01*
X08294Y13343D02*
Y13383D01*
M02*