%FSTAX23Y23*%
%MOIN*%
%SFA1B1*%

%IPPOS*%
%ADD14C,0.003940*%
%ADD15C,0.005000*%
%ADD98C,0.001970*%
%LNcontrolboardv1-1*%
%LPD*%
G54D14*
X03327Y04378D02*
X03366D01*
G54D15*
X0Y0D02*
X12286D01*
Y16786*
X0*
Y0*
G54D14*
X03346Y04359D02*
Y04398D01*
X05098Y03612D02*
X05135D01*
X05116Y03593D02*
Y03631D01*
X05736Y04199D02*
Y04238D01*
X05717Y04218D02*
X05756D01*
X02316Y04199D02*
Y04238D01*
X02297Y04218D02*
X02336D01*
X03656Y0309D02*
Y03127D01*
X03638Y03108D02*
X03675D01*
X05377Y04438D02*
X05416D01*
X05396Y04419D02*
Y04458D01*
X04516Y0361D02*
Y03647D01*
X04498Y03628D02*
X04535D01*
X04986Y0379D02*
Y03827D01*
X04968Y03808D02*
X05005D01*
X04986Y0371D02*
Y03747D01*
X04968Y03728D02*
X05005D01*
X03408Y03638D02*
X03445D01*
X03426Y0362D02*
Y03657D01*
X04716Y0459D02*
Y04627D01*
X04698Y04608D02*
X04735D01*
X03396Y046D02*
Y04637D01*
X03378Y04618D02*
X03415D01*
X04386Y0361D02*
Y03647D01*
X04368Y03628D02*
X04405D01*
X04596Y0459D02*
Y04627D01*
X04578Y04608D02*
X04615D01*
X03516Y046D02*
Y04637D01*
X03498Y04618D02*
X03535D01*
X02867Y04538D02*
X02906D01*
X02886Y04519D02*
Y04558D01*
X03858Y03748D02*
X03896D01*
X03877Y0373D02*
Y03767D01*
X04128Y03748D02*
X04165D01*
X04146Y0373D02*
Y03767D01*
G54D98*
X03232Y04229D02*
Y04528D01*
X03461Y04229D02*
Y04528D01*
X03232Y04229D02*
X03461D01*
X03232Y04528D02*
X03461D01*
X05087Y03559D02*
Y03665D01*
X05146Y03559D02*
Y03665D01*
X05087Y03559D02*
X05146D01*
X05087Y03665D02*
X05146D01*
X05587Y04104D02*
X05886D01*
X05587Y04333D02*
X05886D01*
Y04104D02*
Y04333D01*
X05587Y04104D02*
Y04333D01*
X02167D02*
X02466D01*
X02167Y04104D02*
X02466D01*
X02167D02*
Y04333D01*
X02466Y04104D02*
Y04333D01*
X03603Y03138D02*
X0371D01*
X03603Y03079D02*
X0371D01*
X03603D02*
Y03138D01*
X0371Y03079D02*
Y03138D01*
X05461Y04366D02*
Y04511D01*
X05332Y04366D02*
Y04511D01*
X05461*
X05332Y04366D02*
X05461D01*
X04461Y03599D02*
X04571D01*
X04461Y03658D02*
X04571D01*
Y03599D02*
Y03658D01*
X04461Y03599D02*
Y03658D01*
X05233Y04571D02*
X0556D01*
X05233D02*
Y04815D01*
X0556Y04571D02*
Y04815D01*
X05218Y04849D02*
X05575D01*
X0556Y04815D02*
X05575Y04849D01*
X05218D02*
X05233Y04815D01*
X02279Y03123D02*
X02634D01*
Y03233*
X02279D02*
X02634D01*
X02279Y03123D02*
Y03233D01*
X05428Y03123D02*
X05783D01*
Y03233*
X05428D02*
X05783D01*
X05428Y03123D02*
Y03233D01*
X05092Y037D02*
Y03837D01*
Y037D02*
X05241D01*
Y03837*
X05092D02*
X05241D01*
X04881Y037D02*
Y03837D01*
X04732D02*
X04881D01*
X04732Y037D02*
Y03837D01*
Y037D02*
X04881D01*
X04933Y03779D02*
X0504D01*
X04933Y03838D02*
X0504D01*
Y03779D02*
Y03838D01*
X04933Y03779D02*
Y03838D01*
Y03699D02*
X0504D01*
X04933Y03758D02*
X0504D01*
Y03699D02*
Y03758D01*
X04933Y03699D02*
Y03758D01*
X03397Y03585D02*
Y03692D01*
X03456Y03585D02*
Y03692D01*
X03397D02*
X03456D01*
X03397Y03585D02*
X03456D01*
X04663Y04638D02*
X0477D01*
X04663Y04579D02*
X0477D01*
X04663D02*
Y04638D01*
X0477Y04579D02*
Y04638D01*
X03343Y04589D02*
X0345D01*
X03343Y04648D02*
X0345D01*
Y04589D02*
Y04648D01*
X03343Y04589D02*
Y04648D01*
X04333Y03599D02*
X0444D01*
X04333Y03658D02*
X0444D01*
Y03599D02*
Y03658D01*
X04333Y03599D02*
Y03658D01*
X04543Y04638D02*
X0465D01*
X04543Y04579D02*
X0465D01*
X04543D02*
Y04638D01*
X0465Y04579D02*
Y04638D01*
X03463Y04589D02*
X0357D01*
X03463Y04648D02*
X0357D01*
Y04589D02*
Y04648D01*
X03463Y04589D02*
Y04648D01*
X04499Y0465D02*
Y04807D01*
Y0465D02*
X0481D01*
Y04807*
X04499D02*
X0481D01*
X03612Y0465D02*
Y04807D01*
X03301D02*
X03612D01*
X03301Y0465D02*
Y04807D01*
Y0465D02*
X03612D01*
X05233Y04025D02*
Y04312D01*
X0482Y04025D02*
X05233D01*
X0482D02*
Y04312D01*
X05233*
X02167Y04098D02*
X02786D01*
Y03279D02*
Y04098D01*
X02167Y03279D02*
X02786D01*
X02167D02*
Y04098D01*
X05267D02*
X05886D01*
Y03279D02*
Y04098D01*
X05267Y03279D02*
X05886D01*
X05267D02*
Y04098D01*
X02719Y04397D02*
Y0468D01*
X03054Y04397D02*
Y0468D01*
X02719Y04397D02*
X03054D01*
X02719Y0468D02*
X03054D01*
X02406Y04468D02*
Y04688D01*
X02626*
X02406Y04468D02*
X02626D01*
Y04688*
X03818Y03719D02*
Y03778D01*
X03936Y03719D02*
Y03778D01*
X03818D02*
X03936D01*
X03818Y03719D02*
X03936D01*
X04206D02*
Y03778D01*
X04087Y03719D02*
Y03778D01*
Y03719D02*
X04206D01*
X04087Y03778D02*
X04206D01*
G54D14*
X07564Y04378D02*
X07603D01*
X07584Y04359D02*
Y04398D01*
X09335Y03612D02*
X09372D01*
X09354Y03593D02*
Y03631D01*
X09974Y04199D02*
Y04238D01*
X09954Y04218D02*
X09993D01*
X06554Y04199D02*
Y04238D01*
X06534Y04218D02*
X06573D01*
X07894Y0309D02*
Y03127D01*
X07875Y03108D02*
X07912D01*
X09614Y04438D02*
X09653D01*
X09634Y04419D02*
Y04458D01*
X08754Y0361D02*
Y03647D01*
X08735Y03628D02*
X08772D01*
X09224Y0379D02*
Y03827D01*
X09205Y03808D02*
X09242D01*
X09224Y0371D02*
Y03747D01*
X09205Y03728D02*
X09242D01*
X07645Y03638D02*
X07682D01*
X07664Y0362D02*
Y03657D01*
X08954Y0459D02*
Y04627D01*
X08935Y04608D02*
X08972D01*
X07634Y046D02*
Y04637D01*
X07615Y04618D02*
X07652D01*
X08624Y0361D02*
Y03647D01*
X08605Y03628D02*
X08642D01*
X08834Y0459D02*
Y04627D01*
X08815Y04608D02*
X08852D01*
X07754Y046D02*
Y04637D01*
X07735Y04618D02*
X07772D01*
X07104Y04538D02*
X07143D01*
X07124Y04519D02*
Y04558D01*
X08095Y03748D02*
X08133D01*
X08114Y0373D02*
Y03767D01*
X08365Y03748D02*
X08402D01*
X08384Y0373D02*
Y03767D01*
G54D98*
X07469Y04229D02*
Y04528D01*
X07698Y04229D02*
Y04528D01*
X07469Y04229D02*
X07698D01*
X07469Y04528D02*
X07698D01*
X09324Y03559D02*
Y03665D01*
X09383Y03559D02*
Y03665D01*
X09324Y03559D02*
X09383D01*
X09324Y03665D02*
X09383D01*
X09824Y04104D02*
X10123D01*
X09824Y04333D02*
X10123D01*
Y04104D02*
Y04333D01*
X09824Y04104D02*
Y04333D01*
X06404D02*
X06703D01*
X06404Y04104D02*
X06703D01*
X06404D02*
Y04333D01*
X06703Y04104D02*
Y04333D01*
X0784Y03138D02*
X07947D01*
X0784Y03079D02*
X07947D01*
X0784D02*
Y03138D01*
X07947Y03079D02*
Y03138D01*
X09698Y04366D02*
Y04511D01*
X09569Y04366D02*
Y04511D01*
X09698*
X09569Y04366D02*
X09698D01*
X08699Y03599D02*
X08809D01*
X08699Y03658D02*
X08809D01*
Y03599D02*
Y03658D01*
X08699Y03599D02*
Y03658D01*
X0947Y04571D02*
X09797D01*
X0947D02*
Y04815D01*
X09797Y04571D02*
Y04815D01*
X09455Y04849D02*
X09812D01*
X09797Y04815D02*
X09812Y04849D01*
X09455D02*
X0947Y04815D01*
X06516Y03123D02*
X06871D01*
Y03233*
X06516D02*
X06871D01*
X06516Y03123D02*
Y03233D01*
X09665Y03123D02*
X1002D01*
Y03233*
X09665D02*
X1002D01*
X09665Y03123D02*
Y03233D01*
X09329Y037D02*
Y03837D01*
Y037D02*
X09478D01*
Y03837*
X09329D02*
X09478D01*
X09118Y037D02*
Y03837D01*
X08969D02*
X09118D01*
X08969Y037D02*
Y03837D01*
Y037D02*
X09118D01*
X0917Y03779D02*
X09277D01*
X0917Y03838D02*
X09277D01*
Y03779D02*
Y03838D01*
X0917Y03779D02*
Y03838D01*
Y03699D02*
X09277D01*
X0917Y03758D02*
X09277D01*
Y03699D02*
Y03758D01*
X0917Y03699D02*
Y03758D01*
X07634Y03585D02*
Y03692D01*
X07693Y03585D02*
Y03692D01*
X07634D02*
X07693D01*
X07634Y03585D02*
X07693D01*
X089Y04638D02*
X09007D01*
X089Y04579D02*
X09007D01*
X089D02*
Y04638D01*
X09007Y04579D02*
Y04638D01*
X0758Y04589D02*
X07687D01*
X0758Y04648D02*
X07687D01*
Y04589D02*
Y04648D01*
X0758Y04589D02*
Y04648D01*
X0857Y03599D02*
X08677D01*
X0857Y03658D02*
X08677D01*
Y03599D02*
Y03658D01*
X0857Y03599D02*
Y03658D01*
X0878Y04638D02*
X08887D01*
X0878Y04579D02*
X08887D01*
X0878D02*
Y04638D01*
X08887Y04579D02*
Y04638D01*
X077Y04589D02*
X07807D01*
X077Y04648D02*
X07807D01*
Y04589D02*
Y04648D01*
X077Y04589D02*
Y04648D01*
X08736Y0465D02*
Y04807D01*
Y0465D02*
X09047D01*
Y04807*
X08736D02*
X09047D01*
X07849Y0465D02*
Y04807D01*
X07538D02*
X07849D01*
X07538Y0465D02*
Y04807D01*
Y0465D02*
X07849D01*
X0947Y04025D02*
Y04312D01*
X09057Y04025D02*
X0947D01*
X09057D02*
Y04312D01*
X0947*
X06404Y04098D02*
X07023D01*
Y03279D02*
Y04098D01*
X06404Y03279D02*
X07023D01*
X06404D02*
Y04098D01*
X09504D02*
X10123D01*
Y03279D02*
Y04098D01*
X09504Y03279D02*
X10123D01*
X09504D02*
Y04098D01*
X06956Y04397D02*
Y0468D01*
X07291Y04397D02*
Y0468D01*
X06956Y04397D02*
X07291D01*
X06956Y0468D02*
X07291D01*
X06644Y04468D02*
Y04688D01*
X06864*
X06644Y04468D02*
X06864D01*
Y04688*
X08055Y03719D02*
Y03778D01*
X08173Y03719D02*
Y03778D01*
X08055D02*
X08173D01*
X08055Y03719D02*
X08173D01*
X08443D02*
Y03778D01*
X08324Y03719D02*
Y03778D01*
Y03719D02*
X08443D01*
X08324Y03778D02*
X08443D01*
G54D14*
X03327Y0664D02*
X03366D01*
X03346Y06621D02*
Y0666D01*
X05098Y05874D02*
X05135D01*
X05116Y05855D02*
Y05893D01*
X05736Y06461D02*
Y065D01*
X05717Y0648D02*
X05756D01*
X02316Y06461D02*
Y065D01*
X02297Y0648D02*
X02336D01*
X03656Y05352D02*
Y05389D01*
X03638Y0537D02*
X03675D01*
X05377Y067D02*
X05416D01*
X05396Y06681D02*
Y0672D01*
X04516Y05872D02*
Y05909D01*
X04498Y0589D02*
X04535D01*
X04986Y06052D02*
Y06089D01*
X04968Y0607D02*
X05005D01*
X04986Y05972D02*
Y06009D01*
X04968Y0599D02*
X05005D01*
X03408Y059D02*
X03445D01*
X03426Y05882D02*
Y05919D01*
X04716Y06852D02*
Y06889D01*
X04698Y0687D02*
X04735D01*
X03396Y06862D02*
Y06899D01*
X03378Y0688D02*
X03415D01*
X04386Y05872D02*
Y05909D01*
X04368Y0589D02*
X04405D01*
X04596Y06852D02*
Y06889D01*
X04578Y0687D02*
X04615D01*
X03516Y06862D02*
Y06899D01*
X03498Y0688D02*
X03535D01*
X02867Y068D02*
X02906D01*
X02886Y06781D02*
Y0682D01*
X03858Y0601D02*
X03896D01*
X03877Y05992D02*
Y06029D01*
X04128Y0601D02*
X04165D01*
X04146Y05992D02*
Y06029D01*
G54D98*
X03232Y06491D02*
Y0679D01*
X03461Y06491D02*
Y0679D01*
X03232Y06491D02*
X03461D01*
X03232Y0679D02*
X03461D01*
X05087Y05821D02*
Y05927D01*
X05146Y05821D02*
Y05927D01*
X05087Y05821D02*
X05146D01*
X05087Y05927D02*
X05146D01*
X05587Y06366D02*
X05886D01*
X05587Y06595D02*
X05886D01*
Y06366D02*
Y06595D01*
X05587Y06366D02*
Y06595D01*
X02167D02*
X02466D01*
X02167Y06366D02*
X02466D01*
X02167D02*
Y06595D01*
X02466Y06366D02*
Y06595D01*
X03603Y054D02*
X0371D01*
X03603Y05341D02*
X0371D01*
X03603D02*
Y054D01*
X0371Y05341D02*
Y054D01*
X05461Y06628D02*
Y06773D01*
X05332Y06628D02*
Y06773D01*
X05461*
X05332Y06628D02*
X05461D01*
X04461Y05861D02*
X04571D01*
X04461Y0592D02*
X04571D01*
Y05861D02*
Y0592D01*
X04461Y05861D02*
Y0592D01*
X05233Y06833D02*
X0556D01*
X05233D02*
Y07077D01*
X0556Y06833D02*
Y07077D01*
X05218Y07111D02*
X05575D01*
X0556Y07077D02*
X05575Y07111D01*
X05218D02*
X05233Y07077D01*
X02279Y05385D02*
X02634D01*
Y05495*
X02279D02*
X02634D01*
X02279Y05385D02*
Y05495D01*
X05428Y05385D02*
X05783D01*
Y05495*
X05428D02*
X05783D01*
X05428Y05385D02*
Y05495D01*
X05092Y05962D02*
Y06099D01*
Y05962D02*
X05241D01*
Y06099*
X05092D02*
X05241D01*
X04881Y05962D02*
Y06099D01*
X04732D02*
X04881D01*
X04732Y05962D02*
Y06099D01*
Y05962D02*
X04881D01*
X04933Y06041D02*
X0504D01*
X04933Y061D02*
X0504D01*
Y06041D02*
Y061D01*
X04933Y06041D02*
Y061D01*
Y05961D02*
X0504D01*
X04933Y0602D02*
X0504D01*
Y05961D02*
Y0602D01*
X04933Y05961D02*
Y0602D01*
X03397Y05847D02*
Y05954D01*
X03456Y05847D02*
Y05954D01*
X03397D02*
X03456D01*
X03397Y05847D02*
X03456D01*
X04663Y069D02*
X0477D01*
X04663Y06841D02*
X0477D01*
X04663D02*
Y069D01*
X0477Y06841D02*
Y069D01*
X03343Y06851D02*
X0345D01*
X03343Y0691D02*
X0345D01*
Y06851D02*
Y0691D01*
X03343Y06851D02*
Y0691D01*
X04333Y05861D02*
X0444D01*
X04333Y0592D02*
X0444D01*
Y05861D02*
Y0592D01*
X04333Y05861D02*
Y0592D01*
X04543Y069D02*
X0465D01*
X04543Y06841D02*
X0465D01*
X04543D02*
Y069D01*
X0465Y06841D02*
Y069D01*
X03463Y06851D02*
X0357D01*
X03463Y0691D02*
X0357D01*
Y06851D02*
Y0691D01*
X03463Y06851D02*
Y0691D01*
X04499Y06912D02*
Y07069D01*
Y06912D02*
X0481D01*
Y07069*
X04499D02*
X0481D01*
X03612Y06912D02*
Y07069D01*
X03301D02*
X03612D01*
X03301Y06912D02*
Y07069D01*
Y06912D02*
X03612D01*
X05233Y06287D02*
Y06574D01*
X0482Y06287D02*
X05233D01*
X0482D02*
Y06574D01*
X05233*
X02167Y0636D02*
X02786D01*
Y05541D02*
Y0636D01*
X02167Y05541D02*
X02786D01*
X02167D02*
Y0636D01*
X05267D02*
X05886D01*
Y05541D02*
Y0636D01*
X05267Y05541D02*
X05886D01*
X05267D02*
Y0636D01*
X02719Y06659D02*
Y06942D01*
X03054Y06659D02*
Y06942D01*
X02719Y06659D02*
X03054D01*
X02719Y06942D02*
X03054D01*
X02406Y0673D02*
Y0695D01*
X02626*
X02406Y0673D02*
X02626D01*
Y0695*
X03818Y05981D02*
Y0604D01*
X03936Y05981D02*
Y0604D01*
X03818D02*
X03936D01*
X03818Y05981D02*
X03936D01*
X04206D02*
Y0604D01*
X04087Y05981D02*
Y0604D01*
Y05981D02*
X04206D01*
X04087Y0604D02*
X04206D01*
G54D14*
X07564Y0664D02*
X07603D01*
X07584Y06621D02*
Y0666D01*
X09335Y05874D02*
X09372D01*
X09354Y05855D02*
Y05893D01*
X09974Y06461D02*
Y065D01*
X09954Y0648D02*
X09993D01*
X06554Y06461D02*
Y065D01*
X06534Y0648D02*
X06573D01*
X07894Y05352D02*
Y05389D01*
X07875Y0537D02*
X07912D01*
X09614Y067D02*
X09653D01*
X09634Y06681D02*
Y0672D01*
X08754Y05872D02*
Y05909D01*
X08735Y0589D02*
X08772D01*
X09224Y06052D02*
Y06089D01*
X09205Y0607D02*
X09242D01*
X09224Y05972D02*
Y06009D01*
X09205Y0599D02*
X09242D01*
X07645Y059D02*
X07682D01*
X07664Y05882D02*
Y05919D01*
X08954Y06852D02*
Y06889D01*
X08935Y0687D02*
X08972D01*
X07634Y06862D02*
Y06899D01*
X07615Y0688D02*
X07652D01*
X08624Y05872D02*
Y05909D01*
X08605Y0589D02*
X08642D01*
X08834Y06852D02*
Y06889D01*
X08815Y0687D02*
X08852D01*
X07754Y06862D02*
Y06899D01*
X07735Y0688D02*
X07772D01*
X07104Y068D02*
X07143D01*
X07124Y06781D02*
Y0682D01*
X08095Y0601D02*
X08133D01*
X08114Y05992D02*
Y06029D01*
X08365Y0601D02*
X08402D01*
X08384Y05992D02*
Y06029D01*
G54D98*
X07469Y06491D02*
Y0679D01*
X07698Y06491D02*
Y0679D01*
X07469Y06491D02*
X07698D01*
X07469Y0679D02*
X07698D01*
X09324Y05821D02*
Y05927D01*
X09383Y05821D02*
Y05927D01*
X09324Y05821D02*
X09383D01*
X09324Y05927D02*
X09383D01*
X09824Y06366D02*
X10123D01*
X09824Y06595D02*
X10123D01*
Y06366D02*
Y06595D01*
X09824Y06366D02*
Y06595D01*
X06404D02*
X06703D01*
X06404Y06366D02*
X06703D01*
X06404D02*
Y06595D01*
X06703Y06366D02*
Y06595D01*
X0784Y054D02*
X07947D01*
X0784Y05341D02*
X07947D01*
X0784D02*
Y054D01*
X07947Y05341D02*
Y054D01*
X09698Y06628D02*
Y06773D01*
X09569Y06628D02*
Y06773D01*
X09698*
X09569Y06628D02*
X09698D01*
X08699Y05861D02*
X08809D01*
X08699Y0592D02*
X08809D01*
Y05861D02*
Y0592D01*
X08699Y05861D02*
Y0592D01*
X0947Y06833D02*
X09797D01*
X0947D02*
Y07077D01*
X09797Y06833D02*
Y07077D01*
X09455Y07111D02*
X09812D01*
X09797Y07077D02*
X09812Y07111D01*
X09455D02*
X0947Y07077D01*
X06516Y05385D02*
X06871D01*
Y05495*
X06516D02*
X06871D01*
X06516Y05385D02*
Y05495D01*
X09665Y05385D02*
X1002D01*
Y05495*
X09665D02*
X1002D01*
X09665Y05385D02*
Y05495D01*
X09329Y05962D02*
Y06099D01*
Y05962D02*
X09478D01*
Y06099*
X09329D02*
X09478D01*
X09118Y05962D02*
Y06099D01*
X08969D02*
X09118D01*
X08969Y05962D02*
Y06099D01*
Y05962D02*
X09118D01*
X0917Y06041D02*
X09277D01*
X0917Y061D02*
X09277D01*
Y06041D02*
Y061D01*
X0917Y06041D02*
Y061D01*
Y05961D02*
X09277D01*
X0917Y0602D02*
X09277D01*
Y05961D02*
Y0602D01*
X0917Y05961D02*
Y0602D01*
X07634Y05847D02*
Y05954D01*
X07693Y05847D02*
Y05954D01*
X07634D02*
X07693D01*
X07634Y05847D02*
X07693D01*
X089Y069D02*
X09007D01*
X089Y06841D02*
X09007D01*
X089D02*
Y069D01*
X09007Y06841D02*
Y069D01*
X0758Y06851D02*
X07687D01*
X0758Y0691D02*
X07687D01*
Y06851D02*
Y0691D01*
X0758Y06851D02*
Y0691D01*
X0857Y05861D02*
X08677D01*
X0857Y0592D02*
X08677D01*
Y05861D02*
Y0592D01*
X0857Y05861D02*
Y0592D01*
X0878Y069D02*
X08887D01*
X0878Y06841D02*
X08887D01*
X0878D02*
Y069D01*
X08887Y06841D02*
Y069D01*
X077Y06851D02*
X07807D01*
X077Y0691D02*
X07807D01*
Y06851D02*
Y0691D01*
X077Y06851D02*
Y0691D01*
X08736Y06912D02*
Y07069D01*
Y06912D02*
X09047D01*
Y07069*
X08736D02*
X09047D01*
X07849Y06912D02*
Y07069D01*
X07538D02*
X07849D01*
X07538Y06912D02*
Y07069D01*
Y06912D02*
X07849D01*
X0947Y06287D02*
Y06574D01*
X09057Y06287D02*
X0947D01*
X09057D02*
Y06574D01*
X0947*
X06404Y0636D02*
X07023D01*
Y05541D02*
Y0636D01*
X06404Y05541D02*
X07023D01*
X06404D02*
Y0636D01*
X09504D02*
X10123D01*
Y05541D02*
Y0636D01*
X09504Y05541D02*
X10123D01*
X09504D02*
Y0636D01*
X06956Y06659D02*
Y06942D01*
X07291Y06659D02*
Y06942D01*
X06956Y06659D02*
X07291D01*
X06956Y06942D02*
X07291D01*
X06644Y0673D02*
Y0695D01*
X06864*
X06644Y0673D02*
X06864D01*
Y0695*
X08055Y05981D02*
Y0604D01*
X08173Y05981D02*
Y0604D01*
X08055D02*
X08173D01*
X08055Y05981D02*
X08173D01*
X08443D02*
Y0604D01*
X08324Y05981D02*
Y0604D01*
Y05981D02*
X08443D01*
X08324Y0604D02*
X08443D01*
G54D14*
X03327Y08902D02*
X03366D01*
X03346Y08882D02*
Y08921D01*
X05098Y08136D02*
X05135D01*
X05116Y08117D02*
Y08155D01*
X05736Y08722D02*
Y08761D01*
X05717Y08742D02*
X05756D01*
X02316Y08722D02*
Y08761D01*
X02297Y08742D02*
X02336D01*
X03656Y07614D02*
Y07651D01*
X03638Y07632D02*
X03675D01*
X05377Y08962D02*
X05416D01*
X05396Y08942D02*
Y08981D01*
X04516Y08134D02*
Y08171D01*
X04498Y08152D02*
X04535D01*
X04986Y08314D02*
Y08351D01*
X04968Y08332D02*
X05005D01*
X04986Y08234D02*
Y08271D01*
X04968Y08252D02*
X05005D01*
X03408Y08162D02*
X03445D01*
X03426Y08144D02*
Y08181D01*
X04716Y09113D02*
Y0915D01*
X04698Y09132D02*
X04735D01*
X03396Y09123D02*
Y0916D01*
X03378Y09142D02*
X03415D01*
X04386Y08134D02*
Y08171D01*
X04368Y08152D02*
X04405D01*
X04596Y09113D02*
Y0915D01*
X04578Y09132D02*
X04615D01*
X03516Y09123D02*
Y0916D01*
X03498Y09142D02*
X03535D01*
X02867Y09062D02*
X02906D01*
X02886Y09042D02*
Y09081D01*
X03858Y08272D02*
X03896D01*
X03877Y08254D02*
Y08291D01*
X04128Y08272D02*
X04165D01*
X04146Y08254D02*
Y08291D01*
G54D98*
X03232Y08752D02*
Y09051D01*
X03461Y08752D02*
Y09051D01*
X03232Y08752D02*
X03461D01*
X03232Y09051D02*
X03461D01*
X05087Y08083D02*
Y08189D01*
X05146Y08083D02*
Y08189D01*
X05087Y08083D02*
X05146D01*
X05087Y08189D02*
X05146D01*
X05587Y08627D02*
X05886D01*
X05587Y08856D02*
X05886D01*
Y08627D02*
Y08856D01*
X05587Y08627D02*
Y08856D01*
X02167D02*
X02466D01*
X02167Y08627D02*
X02466D01*
X02167D02*
Y08856D01*
X02466Y08627D02*
Y08856D01*
X03603Y07662D02*
X0371D01*
X03603Y07603D02*
X0371D01*
X03603D02*
Y07662D01*
X0371Y07603D02*
Y07662D01*
X05461Y08889D02*
Y09034D01*
X05332Y08889D02*
Y09034D01*
X05461*
X05332Y08889D02*
X05461D01*
X04461Y08123D02*
X04571D01*
X04461Y08182D02*
X04571D01*
Y08123D02*
Y08182D01*
X04461Y08123D02*
Y08182D01*
X05233Y09094D02*
X0556D01*
X05233D02*
Y09338D01*
X0556Y09094D02*
Y09338D01*
X05218Y09372D02*
X05575D01*
X0556Y09338D02*
X05575Y09372D01*
X05218D02*
X05233Y09338D01*
X02279Y07647D02*
X02634D01*
Y07757*
X02279D02*
X02634D01*
X02279Y07647D02*
Y07757D01*
X05428Y07647D02*
X05783D01*
Y07757*
X05428D02*
X05783D01*
X05428Y07647D02*
Y07757D01*
X05092Y08224D02*
Y08361D01*
Y08224D02*
X05241D01*
Y08361*
X05092D02*
X05241D01*
X04881Y08224D02*
Y08361D01*
X04732D02*
X04881D01*
X04732Y08224D02*
Y08361D01*
Y08224D02*
X04881D01*
X04933Y08303D02*
X0504D01*
X04933Y08362D02*
X0504D01*
Y08303D02*
Y08362D01*
X04933Y08303D02*
Y08362D01*
Y08223D02*
X0504D01*
X04933Y08282D02*
X0504D01*
Y08223D02*
Y08282D01*
X04933Y08223D02*
Y08282D01*
X03397Y08109D02*
Y08216D01*
X03456Y08109D02*
Y08216D01*
X03397D02*
X03456D01*
X03397Y08109D02*
X03456D01*
X04663Y09161D02*
X0477D01*
X04663Y09102D02*
X0477D01*
X04663D02*
Y09161D01*
X0477Y09102D02*
Y09161D01*
X03343Y09112D02*
X0345D01*
X03343Y09171D02*
X0345D01*
Y09112D02*
Y09171D01*
X03343Y09112D02*
Y09171D01*
X04333Y08123D02*
X0444D01*
X04333Y08182D02*
X0444D01*
Y08123D02*
Y08182D01*
X04333Y08123D02*
Y08182D01*
X04543Y09161D02*
X0465D01*
X04543Y09102D02*
X0465D01*
X04543D02*
Y09161D01*
X0465Y09102D02*
Y09161D01*
X03463Y09112D02*
X0357D01*
X03463Y09171D02*
X0357D01*
Y09112D02*
Y09171D01*
X03463Y09112D02*
Y09171D01*
X04499Y09173D02*
Y0933D01*
Y09173D02*
X0481D01*
Y0933*
X04499D02*
X0481D01*
X03612Y09173D02*
Y0933D01*
X03301D02*
X03612D01*
X03301Y09173D02*
Y0933D01*
Y09173D02*
X03612D01*
X05233Y08548D02*
Y08835D01*
X0482Y08548D02*
X05233D01*
X0482D02*
Y08835D01*
X05233*
X02167Y08621D02*
X02786D01*
Y07803D02*
Y08621D01*
X02167Y07803D02*
X02786D01*
X02167D02*
Y08621D01*
X05267D02*
X05886D01*
Y07803D02*
Y08621D01*
X05267Y07803D02*
X05886D01*
X05267D02*
Y08621D01*
X02719Y0892D02*
Y09203D01*
X03054Y0892D02*
Y09203D01*
X02719Y0892D02*
X03054D01*
X02719Y09203D02*
X03054D01*
X02406Y08992D02*
Y09212D01*
X02626*
X02406Y08992D02*
X02626D01*
Y09212*
X03818Y08243D02*
Y08302D01*
X03936Y08243D02*
Y08302D01*
X03818D02*
X03936D01*
X03818Y08243D02*
X03936D01*
X04206D02*
Y08302D01*
X04087Y08243D02*
Y08302D01*
Y08243D02*
X04206D01*
X04087Y08302D02*
X04206D01*
G54D14*
X07564Y08902D02*
X07603D01*
X07584Y08882D02*
Y08921D01*
X09335Y08136D02*
X09372D01*
X09354Y08117D02*
Y08155D01*
X09974Y08722D02*
Y08761D01*
X09954Y08742D02*
X09993D01*
X06554Y08722D02*
Y08761D01*
X06534Y08742D02*
X06573D01*
X07894Y07614D02*
Y07651D01*
X07875Y07632D02*
X07912D01*
X09614Y08962D02*
X09653D01*
X09634Y08942D02*
Y08981D01*
X08754Y08134D02*
Y08171D01*
X08735Y08152D02*
X08772D01*
X09224Y08314D02*
Y08351D01*
X09205Y08332D02*
X09242D01*
X09224Y08234D02*
Y08271D01*
X09205Y08252D02*
X09242D01*
X07645Y08162D02*
X07682D01*
X07664Y08144D02*
Y08181D01*
X08954Y09113D02*
Y0915D01*
X08935Y09132D02*
X08972D01*
X07634Y09123D02*
Y0916D01*
X07615Y09142D02*
X07652D01*
X08624Y08134D02*
Y08171D01*
X08605Y08152D02*
X08642D01*
X08834Y09113D02*
Y0915D01*
X08815Y09132D02*
X08852D01*
X07754Y09123D02*
Y0916D01*
X07735Y09142D02*
X07772D01*
X07104Y09062D02*
X07143D01*
X07124Y09042D02*
Y09081D01*
X08095Y08272D02*
X08133D01*
X08114Y08254D02*
Y08291D01*
X08365Y08272D02*
X08402D01*
X08384Y08254D02*
Y08291D01*
G54D98*
X07469Y08752D02*
Y09051D01*
X07698Y08752D02*
Y09051D01*
X07469Y08752D02*
X07698D01*
X07469Y09051D02*
X07698D01*
X09324Y08083D02*
Y08189D01*
X09383Y08083D02*
Y08189D01*
X09324Y08083D02*
X09383D01*
X09324Y08189D02*
X09383D01*
X09824Y08627D02*
X10123D01*
X09824Y08856D02*
X10123D01*
Y08627D02*
Y08856D01*
X09824Y08627D02*
Y08856D01*
X06404D02*
X06703D01*
X06404Y08627D02*
X06703D01*
X06404D02*
Y08856D01*
X06703Y08627D02*
Y08856D01*
X0784Y07662D02*
X07947D01*
X0784Y07603D02*
X07947D01*
X0784D02*
Y07662D01*
X07947Y07603D02*
Y07662D01*
X09698Y08889D02*
Y09034D01*
X09569Y08889D02*
Y09034D01*
X09698*
X09569Y08889D02*
X09698D01*
X08699Y08123D02*
X08809D01*
X08699Y08182D02*
X08809D01*
Y08123D02*
Y08182D01*
X08699Y08123D02*
Y08182D01*
X0947Y09094D02*
X09797D01*
X0947D02*
Y09338D01*
X09797Y09094D02*
Y09338D01*
X09455Y09372D02*
X09812D01*
X09797Y09338D02*
X09812Y09372D01*
X09455D02*
X0947Y09338D01*
X06516Y07647D02*
X06871D01*
Y07757*
X06516D02*
X06871D01*
X06516Y07647D02*
Y07757D01*
X09665Y07647D02*
X1002D01*
Y07757*
X09665D02*
X1002D01*
X09665Y07647D02*
Y07757D01*
X09329Y08224D02*
Y08361D01*
Y08224D02*
X09478D01*
Y08361*
X09329D02*
X09478D01*
X09118Y08224D02*
Y08361D01*
X08969D02*
X09118D01*
X08969Y08224D02*
Y08361D01*
Y08224D02*
X09118D01*
X0917Y08303D02*
X09277D01*
X0917Y08362D02*
X09277D01*
Y08303D02*
Y08362D01*
X0917Y08303D02*
Y08362D01*
Y08223D02*
X09277D01*
X0917Y08282D02*
X09277D01*
Y08223D02*
Y08282D01*
X0917Y08223D02*
Y08282D01*
X07634Y08109D02*
Y08216D01*
X07693Y08109D02*
Y08216D01*
X07634D02*
X07693D01*
X07634Y08109D02*
X07693D01*
X089Y09161D02*
X09007D01*
X089Y09102D02*
X09007D01*
X089D02*
Y09161D01*
X09007Y09102D02*
Y09161D01*
X0758Y09112D02*
X07687D01*
X0758Y09171D02*
X07687D01*
Y09112D02*
Y09171D01*
X0758Y09112D02*
Y09171D01*
X0857Y08123D02*
X08677D01*
X0857Y08182D02*
X08677D01*
Y08123D02*
Y08182D01*
X0857Y08123D02*
Y08182D01*
X0878Y09161D02*
X08887D01*
X0878Y09102D02*
X08887D01*
X0878D02*
Y09161D01*
X08887Y09102D02*
Y09161D01*
X077Y09112D02*
X07807D01*
X077Y09171D02*
X07807D01*
Y09112D02*
Y09171D01*
X077Y09112D02*
Y09171D01*
X08736Y09173D02*
Y0933D01*
Y09173D02*
X09047D01*
Y0933*
X08736D02*
X09047D01*
X07849Y09173D02*
Y0933D01*
X07538D02*
X07849D01*
X07538Y09173D02*
Y0933D01*
Y09173D02*
X07849D01*
X0947Y08548D02*
Y08835D01*
X09057Y08548D02*
X0947D01*
X09057D02*
Y08835D01*
X0947*
X06404Y08621D02*
X07023D01*
Y07803D02*
Y08621D01*
X06404Y07803D02*
X07023D01*
X06404D02*
Y08621D01*
X09504D02*
X10123D01*
Y07803D02*
Y08621D01*
X09504Y07803D02*
X10123D01*
X09504D02*
Y08621D01*
X06956Y0892D02*
Y09203D01*
X07291Y0892D02*
Y09203D01*
X06956Y0892D02*
X07291D01*
X06956Y09203D02*
X07291D01*
X06644Y08992D02*
Y09212D01*
X06864*
X06644Y08992D02*
X06864D01*
Y09212*
X08055Y08243D02*
Y08302D01*
X08173Y08243D02*
Y08302D01*
X08055D02*
X08173D01*
X08055Y08243D02*
X08173D01*
X08443D02*
Y08302D01*
X08324Y08243D02*
Y08302D01*
Y08243D02*
X08443D01*
X08324Y08302D02*
X08443D01*
G54D14*
X03327Y11164D02*
X03366D01*
X03346Y11144D02*
Y11183D01*
X05098Y10397D02*
X05135D01*
X05116Y10378D02*
Y10416D01*
X05736Y10984D02*
Y11023D01*
X05717Y11004D02*
X05756D01*
X02316Y10984D02*
Y11023D01*
X02297Y11004D02*
X02336D01*
X03656Y09875D02*
Y09912D01*
X03638Y09894D02*
X03675D01*
X05377Y11224D02*
X05416D01*
X05396Y11204D02*
Y11243D01*
X04516Y10395D02*
Y10432D01*
X04498Y10414D02*
X04535D01*
X04986Y10575D02*
Y10612D01*
X04968Y10594D02*
X05005D01*
X04986Y10495D02*
Y10532D01*
X04968Y10514D02*
X05005D01*
X03408Y10424D02*
X03445D01*
X03426Y10405D02*
Y10442D01*
X04716Y11375D02*
Y11412D01*
X04698Y11394D02*
X04735D01*
X03396Y11385D02*
Y11422D01*
X03378Y11404D02*
X03415D01*
X04386Y10395D02*
Y10432D01*
X04368Y10414D02*
X04405D01*
X04596Y11375D02*
Y11412D01*
X04578Y11394D02*
X04615D01*
X03516Y11385D02*
Y11422D01*
X03498Y11404D02*
X03535D01*
X02867Y11324D02*
X02906D01*
X02886Y11304D02*
Y11343D01*
X03858Y10534D02*
X03896D01*
X03877Y10515D02*
Y10552D01*
X04128Y10534D02*
X04165D01*
X04146Y10515D02*
Y10552D01*
G54D98*
X03232Y11014D02*
Y11313D01*
X03461Y11014D02*
Y11313D01*
X03232Y11014D02*
X03461D01*
X03232Y11313D02*
X03461D01*
X05087Y10344D02*
Y1045D01*
X05146Y10344D02*
Y1045D01*
X05087Y10344D02*
X05146D01*
X05087Y1045D02*
X05146D01*
X05587Y10889D02*
X05886D01*
X05587Y11118D02*
X05886D01*
Y10889D02*
Y11118D01*
X05587Y10889D02*
Y11118D01*
X02167D02*
X02466D01*
X02167Y10889D02*
X02466D01*
X02167D02*
Y11118D01*
X02466Y10889D02*
Y11118D01*
X03603Y09923D02*
X0371D01*
X03603Y09864D02*
X0371D01*
X03603D02*
Y09923D01*
X0371Y09864D02*
Y09923D01*
X05461Y11151D02*
Y11296D01*
X05332Y11151D02*
Y11296D01*
X05461*
X05332Y11151D02*
X05461D01*
X04461Y10384D02*
X04571D01*
X04461Y10443D02*
X04571D01*
Y10384D02*
Y10443D01*
X04461Y10384D02*
Y10443D01*
X05233Y11356D02*
X0556D01*
X05233D02*
Y116D01*
X0556Y11356D02*
Y116D01*
X05218Y11634D02*
X05575D01*
X0556Y116D02*
X05575Y11634D01*
X05218D02*
X05233Y116D01*
X02279Y09909D02*
X02634D01*
Y10019*
X02279D02*
X02634D01*
X02279Y09909D02*
Y10019D01*
X05428Y09909D02*
X05783D01*
Y10019*
X05428D02*
X05783D01*
X05428Y09909D02*
Y10019D01*
X05092Y10485D02*
Y10622D01*
Y10485D02*
X05241D01*
Y10622*
X05092D02*
X05241D01*
X04881Y10485D02*
Y10622D01*
X04732D02*
X04881D01*
X04732Y10485D02*
Y10622D01*
Y10485D02*
X04881D01*
X04933Y10564D02*
X0504D01*
X04933Y10623D02*
X0504D01*
Y10564D02*
Y10623D01*
X04933Y10564D02*
Y10623D01*
Y10484D02*
X0504D01*
X04933Y10543D02*
X0504D01*
Y10484D02*
Y10543D01*
X04933Y10484D02*
Y10543D01*
X03397Y1037D02*
Y10477D01*
X03456Y1037D02*
Y10477D01*
X03397D02*
X03456D01*
X03397Y1037D02*
X03456D01*
X04663Y11423D02*
X0477D01*
X04663Y11364D02*
X0477D01*
X04663D02*
Y11423D01*
X0477Y11364D02*
Y11423D01*
X03343Y11374D02*
X0345D01*
X03343Y11433D02*
X0345D01*
Y11374D02*
Y11433D01*
X03343Y11374D02*
Y11433D01*
X04333Y10384D02*
X0444D01*
X04333Y10443D02*
X0444D01*
Y10384D02*
Y10443D01*
X04333Y10384D02*
Y10443D01*
X04543Y11423D02*
X0465D01*
X04543Y11364D02*
X0465D01*
X04543D02*
Y11423D01*
X0465Y11364D02*
Y11423D01*
X03463Y11374D02*
X0357D01*
X03463Y11433D02*
X0357D01*
Y11374D02*
Y11433D01*
X03463Y11374D02*
Y11433D01*
X04499Y11435D02*
Y11592D01*
Y11435D02*
X0481D01*
Y11592*
X04499D02*
X0481D01*
X03612Y11435D02*
Y11592D01*
X03301D02*
X03612D01*
X03301Y11435D02*
Y11592D01*
Y11435D02*
X03612D01*
X05233Y1081D02*
Y11097D01*
X0482Y1081D02*
X05233D01*
X0482D02*
Y11097D01*
X05233*
X02167Y10883D02*
X02786D01*
Y10064D02*
Y10883D01*
X02167Y10064D02*
X02786D01*
X02167D02*
Y10883D01*
X05267D02*
X05886D01*
Y10064D02*
Y10883D01*
X05267Y10064D02*
X05886D01*
X05267D02*
Y10883D01*
X02719Y11182D02*
Y11465D01*
X03054Y11182D02*
Y11465D01*
X02719Y11182D02*
X03054D01*
X02719Y11465D02*
X03054D01*
X02406Y11254D02*
Y11474D01*
X02626*
X02406Y11254D02*
X02626D01*
Y11474*
X03818Y10504D02*
Y10563D01*
X03936Y10504D02*
Y10563D01*
X03818D02*
X03936D01*
X03818Y10504D02*
X03936D01*
X04206D02*
Y10563D01*
X04087Y10504D02*
Y10563D01*
Y10504D02*
X04206D01*
X04087Y10563D02*
X04206D01*
G54D14*
X07564Y11164D02*
X07603D01*
X07584Y11144D02*
Y11183D01*
X09335Y10397D02*
X09372D01*
X09354Y10378D02*
Y10416D01*
X09974Y10984D02*
Y11023D01*
X09954Y11004D02*
X09993D01*
X06554Y10984D02*
Y11023D01*
X06534Y11004D02*
X06573D01*
X07894Y09875D02*
Y09912D01*
X07875Y09894D02*
X07912D01*
X09614Y11224D02*
X09653D01*
X09634Y11204D02*
Y11243D01*
X08754Y10395D02*
Y10432D01*
X08735Y10414D02*
X08772D01*
X09224Y10575D02*
Y10612D01*
X09205Y10594D02*
X09242D01*
X09224Y10495D02*
Y10532D01*
X09205Y10514D02*
X09242D01*
X07645Y10424D02*
X07682D01*
X07664Y10405D02*
Y10442D01*
X08954Y11375D02*
Y11412D01*
X08935Y11394D02*
X08972D01*
X07634Y11385D02*
Y11422D01*
X07615Y11404D02*
X07652D01*
X08624Y10395D02*
Y10432D01*
X08605Y10414D02*
X08642D01*
X08834Y11375D02*
Y11412D01*
X08815Y11394D02*
X08852D01*
X07754Y11385D02*
Y11422D01*
X07735Y11404D02*
X07772D01*
X07104Y11324D02*
X07143D01*
X07124Y11304D02*
Y11343D01*
X08095Y10534D02*
X08133D01*
X08114Y10515D02*
Y10552D01*
X08365Y10534D02*
X08402D01*
X08384Y10515D02*
Y10552D01*
G54D98*
X07469Y11014D02*
Y11313D01*
X07698Y11014D02*
Y11313D01*
X07469Y11014D02*
X07698D01*
X07469Y11313D02*
X07698D01*
X09324Y10344D02*
Y1045D01*
X09383Y10344D02*
Y1045D01*
X09324Y10344D02*
X09383D01*
X09324Y1045D02*
X09383D01*
X09824Y10889D02*
X10123D01*
X09824Y11118D02*
X10123D01*
Y10889D02*
Y11118D01*
X09824Y10889D02*
Y11118D01*
X06404D02*
X06703D01*
X06404Y10889D02*
X06703D01*
X06404D02*
Y11118D01*
X06703Y10889D02*
Y11118D01*
X0784Y09923D02*
X07947D01*
X0784Y09864D02*
X07947D01*
X0784D02*
Y09923D01*
X07947Y09864D02*
Y09923D01*
X09698Y11151D02*
Y11296D01*
X09569Y11151D02*
Y11296D01*
X09698*
X09569Y11151D02*
X09698D01*
X08699Y10384D02*
X08809D01*
X08699Y10443D02*
X08809D01*
Y10384D02*
Y10443D01*
X08699Y10384D02*
Y10443D01*
X0947Y11356D02*
X09797D01*
X0947D02*
Y116D01*
X09797Y11356D02*
Y116D01*
X09455Y11634D02*
X09812D01*
X09797Y116D02*
X09812Y11634D01*
X09455D02*
X0947Y116D01*
X06516Y09909D02*
X06871D01*
Y10019*
X06516D02*
X06871D01*
X06516Y09909D02*
Y10019D01*
X09665Y09909D02*
X1002D01*
Y10019*
X09665D02*
X1002D01*
X09665Y09909D02*
Y10019D01*
X09329Y10485D02*
Y10622D01*
Y10485D02*
X09478D01*
Y10622*
X09329D02*
X09478D01*
X09118Y10485D02*
Y10622D01*
X08969D02*
X09118D01*
X08969Y10485D02*
Y10622D01*
Y10485D02*
X09118D01*
X0917Y10564D02*
X09277D01*
X0917Y10623D02*
X09277D01*
Y10564D02*
Y10623D01*
X0917Y10564D02*
Y10623D01*
Y10484D02*
X09277D01*
X0917Y10543D02*
X09277D01*
Y10484D02*
Y10543D01*
X0917Y10484D02*
Y10543D01*
X07634Y1037D02*
Y10477D01*
X07693Y1037D02*
Y10477D01*
X07634D02*
X07693D01*
X07634Y1037D02*
X07693D01*
X089Y11423D02*
X09007D01*
X089Y11364D02*
X09007D01*
X089D02*
Y11423D01*
X09007Y11364D02*
Y11423D01*
X0758Y11374D02*
X07687D01*
X0758Y11433D02*
X07687D01*
Y11374D02*
Y11433D01*
X0758Y11374D02*
Y11433D01*
X0857Y10384D02*
X08677D01*
X0857Y10443D02*
X08677D01*
Y10384D02*
Y10443D01*
X0857Y10384D02*
Y10443D01*
X0878Y11423D02*
X08887D01*
X0878Y11364D02*
X08887D01*
X0878D02*
Y11423D01*
X08887Y11364D02*
Y11423D01*
X077Y11374D02*
X07807D01*
X077Y11433D02*
X07807D01*
Y11374D02*
Y11433D01*
X077Y11374D02*
Y11433D01*
X08736Y11435D02*
Y11592D01*
Y11435D02*
X09047D01*
Y11592*
X08736D02*
X09047D01*
X07849Y11435D02*
Y11592D01*
X07538D02*
X07849D01*
X07538Y11435D02*
Y11592D01*
Y11435D02*
X07849D01*
X0947Y1081D02*
Y11097D01*
X09057Y1081D02*
X0947D01*
X09057D02*
Y11097D01*
X0947*
X06404Y10883D02*
X07023D01*
Y10064D02*
Y10883D01*
X06404Y10064D02*
X07023D01*
X06404D02*
Y10883D01*
X09504D02*
X10123D01*
Y10064D02*
Y10883D01*
X09504Y10064D02*
X10123D01*
X09504D02*
Y10883D01*
X06956Y11182D02*
Y11465D01*
X07291Y11182D02*
Y11465D01*
X06956Y11182D02*
X07291D01*
X06956Y11465D02*
X07291D01*
X06644Y11254D02*
Y11474D01*
X06864*
X06644Y11254D02*
X06864D01*
Y11474*
X08055Y10504D02*
Y10563D01*
X08173Y10504D02*
Y10563D01*
X08055D02*
X08173D01*
X08055Y10504D02*
X08173D01*
X08443D02*
Y10563D01*
X08324Y10504D02*
Y10563D01*
Y10504D02*
X08443D01*
X08324Y10563D02*
X08443D01*
G54D14*
X03327Y13426D02*
X03366D01*
X03346Y13406D02*
Y13445D01*
X05098Y12659D02*
X05135D01*
X05116Y1264D02*
Y12678D01*
X05736Y13246D02*
Y13285D01*
X05717Y13266D02*
X05756D01*
X02316Y13246D02*
Y13285D01*
X02297Y13266D02*
X02336D01*
X03656Y12137D02*
Y12174D01*
X03638Y12156D02*
X03675D01*
X05377Y13486D02*
X05416D01*
X05396Y13466D02*
Y13505D01*
X04516Y12657D02*
Y12694D01*
X04498Y12676D02*
X04535D01*
X04986Y12837D02*
Y12874D01*
X04968Y12856D02*
X05005D01*
X04986Y12757D02*
Y12794D01*
X04968Y12776D02*
X05005D01*
X03408Y12686D02*
X03445D01*
X03426Y12667D02*
Y12704D01*
X04716Y13637D02*
Y13674D01*
X04698Y13656D02*
X04735D01*
X03396Y13647D02*
Y13684D01*
X03378Y13666D02*
X03415D01*
X04386Y12657D02*
Y12694D01*
X04368Y12676D02*
X04405D01*
X04596Y13637D02*
Y13674D01*
X04578Y13656D02*
X04615D01*
X03516Y13647D02*
Y13684D01*
X03498Y13666D02*
X03535D01*
X02867Y13586D02*
X02906D01*
X02886Y13566D02*
Y13605D01*
X03858Y12796D02*
X03896D01*
X03877Y12777D02*
Y12814D01*
X04128Y12796D02*
X04165D01*
X04146Y12777D02*
Y12814D01*
G54D98*
X03232Y13276D02*
Y13575D01*
X03461Y13276D02*
Y13575D01*
X03232Y13276D02*
X03461D01*
X03232Y13575D02*
X03461D01*
X05087Y12606D02*
Y12712D01*
X05146Y12606D02*
Y12712D01*
X05087Y12606D02*
X05146D01*
X05087Y12712D02*
X05146D01*
X05587Y13151D02*
X05886D01*
X05587Y1338D02*
X05886D01*
Y13151D02*
Y1338D01*
X05587Y13151D02*
Y1338D01*
X02167D02*
X02466D01*
X02167Y13151D02*
X02466D01*
X02167D02*
Y1338D01*
X02466Y13151D02*
Y1338D01*
X03603Y12185D02*
X0371D01*
X03603Y12126D02*
X0371D01*
X03603D02*
Y12185D01*
X0371Y12126D02*
Y12185D01*
X05461Y13413D02*
Y13558D01*
X05332Y13413D02*
Y13558D01*
X05461*
X05332Y13413D02*
X05461D01*
X04461Y12646D02*
X04571D01*
X04461Y12705D02*
X04571D01*
Y12646D02*
Y12705D01*
X04461Y12646D02*
Y12705D01*
X05233Y13618D02*
X0556D01*
X05233D02*
Y13862D01*
X0556Y13618D02*
Y13862D01*
X05218Y13896D02*
X05575D01*
X0556Y13862D02*
X05575Y13896D01*
X05218D02*
X05233Y13862D01*
X02279Y12171D02*
X02634D01*
Y12281*
X02279D02*
X02634D01*
X02279Y12171D02*
Y12281D01*
X05428Y12171D02*
X05783D01*
Y12281*
X05428D02*
X05783D01*
X05428Y12171D02*
Y12281D01*
X05092Y12747D02*
Y12884D01*
Y12747D02*
X05241D01*
Y12884*
X05092D02*
X05241D01*
X04881Y12747D02*
Y12884D01*
X04732D02*
X04881D01*
X04732Y12747D02*
Y12884D01*
Y12747D02*
X04881D01*
X04933Y12826D02*
X0504D01*
X04933Y12885D02*
X0504D01*
Y12826D02*
Y12885D01*
X04933Y12826D02*
Y12885D01*
Y12746D02*
X0504D01*
X04933Y12805D02*
X0504D01*
Y12746D02*
Y12805D01*
X04933Y12746D02*
Y12805D01*
X03397Y12632D02*
Y12739D01*
X03456Y12632D02*
Y12739D01*
X03397D02*
X03456D01*
X03397Y12632D02*
X03456D01*
X04663Y13685D02*
X0477D01*
X04663Y13626D02*
X0477D01*
X04663D02*
Y13685D01*
X0477Y13626D02*
Y13685D01*
X03343Y13636D02*
X0345D01*
X03343Y13695D02*
X0345D01*
Y13636D02*
Y13695D01*
X03343Y13636D02*
Y13695D01*
X04333Y12646D02*
X0444D01*
X04333Y12705D02*
X0444D01*
Y12646D02*
Y12705D01*
X04333Y12646D02*
Y12705D01*
X04543Y13685D02*
X0465D01*
X04543Y13626D02*
X0465D01*
X04543D02*
Y13685D01*
X0465Y13626D02*
Y13685D01*
X03463Y13636D02*
X0357D01*
X03463Y13695D02*
X0357D01*
Y13636D02*
Y13695D01*
X03463Y13636D02*
Y13695D01*
X04499Y13697D02*
Y13854D01*
Y13697D02*
X0481D01*
Y13854*
X04499D02*
X0481D01*
X03612Y13697D02*
Y13854D01*
X03301D02*
X03612D01*
X03301Y13697D02*
Y13854D01*
Y13697D02*
X03612D01*
X05233Y13072D02*
Y13359D01*
X0482Y13072D02*
X05233D01*
X0482D02*
Y13359D01*
X05233*
X02167Y13145D02*
X02786D01*
Y12326D02*
Y13145D01*
X02167Y12326D02*
X02786D01*
X02167D02*
Y13145D01*
X05267D02*
X05886D01*
Y12326D02*
Y13145D01*
X05267Y12326D02*
X05886D01*
X05267D02*
Y13145D01*
X02719Y13444D02*
Y13727D01*
X03054Y13444D02*
Y13727D01*
X02719Y13444D02*
X03054D01*
X02719Y13727D02*
X03054D01*
X02406Y13516D02*
Y13736D01*
X02626*
X02406Y13516D02*
X02626D01*
Y13736*
X03818Y12766D02*
Y12825D01*
X03936Y12766D02*
Y12825D01*
X03818D02*
X03936D01*
X03818Y12766D02*
X03936D01*
X04206D02*
Y12825D01*
X04087Y12766D02*
Y12825D01*
Y12766D02*
X04206D01*
X04087Y12825D02*
X04206D01*
G54D14*
X07564Y13426D02*
X07603D01*
X07584Y13406D02*
Y13445D01*
X09335Y12659D02*
X09372D01*
X09354Y1264D02*
Y12678D01*
X09974Y13246D02*
Y13285D01*
X09954Y13266D02*
X09993D01*
X06554Y13246D02*
Y13285D01*
X06534Y13266D02*
X06573D01*
X07894Y12137D02*
Y12174D01*
X07875Y12156D02*
X07912D01*
X09614Y13486D02*
X09653D01*
X09634Y13466D02*
Y13505D01*
X08754Y12657D02*
Y12694D01*
X08735Y12676D02*
X08772D01*
X09224Y12837D02*
Y12874D01*
X09205Y12856D02*
X09242D01*
X09224Y12757D02*
Y12794D01*
X09205Y12776D02*
X09242D01*
X07645Y12686D02*
X07682D01*
X07664Y12667D02*
Y12704D01*
X08954Y13637D02*
Y13674D01*
X08935Y13656D02*
X08972D01*
X07634Y13647D02*
Y13684D01*
X07615Y13666D02*
X07652D01*
X08624Y12657D02*
Y12694D01*
X08605Y12676D02*
X08642D01*
X08834Y13637D02*
Y13674D01*
X08815Y13656D02*
X08852D01*
X07754Y13647D02*
Y13684D01*
X07735Y13666D02*
X07772D01*
X07104Y13586D02*
X07143D01*
X07124Y13566D02*
Y13605D01*
X08095Y12796D02*
X08133D01*
X08114Y12777D02*
Y12814D01*
X08365Y12796D02*
X08402D01*
X08384Y12777D02*
Y12814D01*
G54D98*
X07469Y13276D02*
Y13575D01*
X07698Y13276D02*
Y13575D01*
X07469Y13276D02*
X07698D01*
X07469Y13575D02*
X07698D01*
X09324Y12606D02*
Y12712D01*
X09383Y12606D02*
Y12712D01*
X09324Y12606D02*
X09383D01*
X09324Y12712D02*
X09383D01*
X09824Y13151D02*
X10123D01*
X09824Y1338D02*
X10123D01*
Y13151D02*
Y1338D01*
X09824Y13151D02*
Y1338D01*
X06404D02*
X06703D01*
X06404Y13151D02*
X06703D01*
X06404D02*
Y1338D01*
X06703Y13151D02*
Y1338D01*
X0784Y12185D02*
X07947D01*
X0784Y12126D02*
X07947D01*
X0784D02*
Y12185D01*
X07947Y12126D02*
Y12185D01*
X09698Y13413D02*
Y13558D01*
X09569Y13413D02*
Y13558D01*
X09698*
X09569Y13413D02*
X09698D01*
X08699Y12646D02*
X08809D01*
X08699Y12705D02*
X08809D01*
Y12646D02*
Y12705D01*
X08699Y12646D02*
Y12705D01*
X0947Y13618D02*
X09797D01*
X0947D02*
Y13862D01*
X09797Y13618D02*
Y13862D01*
X09455Y13896D02*
X09812D01*
X09797Y13862D02*
X09812Y13896D01*
X09455D02*
X0947Y13862D01*
X06516Y12171D02*
X06871D01*
Y12281*
X06516D02*
X06871D01*
X06516Y12171D02*
Y12281D01*
X09665Y12171D02*
X1002D01*
Y12281*
X09665D02*
X1002D01*
X09665Y12171D02*
Y12281D01*
X09329Y12747D02*
Y12884D01*
Y12747D02*
X09478D01*
Y12884*
X09329D02*
X09478D01*
X09118Y12747D02*
Y12884D01*
X08969D02*
X09118D01*
X08969Y12747D02*
Y12884D01*
Y12747D02*
X09118D01*
X0917Y12826D02*
X09277D01*
X0917Y12885D02*
X09277D01*
Y12826D02*
Y12885D01*
X0917Y12826D02*
Y12885D01*
Y12746D02*
X09277D01*
X0917Y12805D02*
X09277D01*
Y12746D02*
Y12805D01*
X0917Y12746D02*
Y12805D01*
X07634Y12632D02*
Y12739D01*
X07693Y12632D02*
Y12739D01*
X07634D02*
X07693D01*
X07634Y12632D02*
X07693D01*
X089Y13685D02*
X09007D01*
X089Y13626D02*
X09007D01*
X089D02*
Y13685D01*
X09007Y13626D02*
Y13685D01*
X0758Y13636D02*
X07687D01*
X0758Y13695D02*
X07687D01*
Y13636D02*
Y13695D01*
X0758Y13636D02*
Y13695D01*
X0857Y12646D02*
X08677D01*
X0857Y12705D02*
X08677D01*
Y12646D02*
Y12705D01*
X0857Y12646D02*
Y12705D01*
X0878Y13685D02*
X08887D01*
X0878Y13626D02*
X08887D01*
X0878D02*
Y13685D01*
X08887Y13626D02*
Y13685D01*
X077Y13636D02*
X07807D01*
X077Y13695D02*
X07807D01*
Y13636D02*
Y13695D01*
X077Y13636D02*
Y13695D01*
X08736Y13697D02*
Y13854D01*
Y13697D02*
X09047D01*
Y13854*
X08736D02*
X09047D01*
X07849Y13697D02*
Y13854D01*
X07538D02*
X07849D01*
X07538Y13697D02*
Y13854D01*
Y13697D02*
X07849D01*
X0947Y13072D02*
Y13359D01*
X09057Y13072D02*
X0947D01*
X09057D02*
Y13359D01*
X0947*
X06404Y13145D02*
X07023D01*
Y12326D02*
Y13145D01*
X06404Y12326D02*
X07023D01*
X06404D02*
Y13145D01*
X09504D02*
X10123D01*
Y12326D02*
Y13145D01*
X09504Y12326D02*
X10123D01*
X09504D02*
Y13145D01*
X06956Y13444D02*
Y13727D01*
X07291Y13444D02*
Y13727D01*
X06956Y13444D02*
X07291D01*
X06956Y13727D02*
X07291D01*
X06644Y13516D02*
Y13736D01*
X06864*
X06644Y13516D02*
X06864D01*
Y13736*
X08055Y12766D02*
Y12825D01*
X08173Y12766D02*
Y12825D01*
X08055D02*
X08173D01*
X08055Y12766D02*
X08173D01*
X08443D02*
Y12825D01*
X08324Y12766D02*
Y12825D01*
Y12766D02*
X08443D01*
X08324Y12825D02*
X08443D01*
M02*