G04*
G04 #@! TF.GenerationSoftware,Altium Limited,Altium Designer,22.0.2 (36)*
G04*
G04 Layer_Color=12632256*
%FSLAX25Y25*%
%MOIN*%
G70*
G04*
G04 #@! TF.SameCoordinates,A5FD766F-ED0D-4258-BB47-254A20FAC7F6*
G04*
G04*
G04 #@! TF.FilePolarity,Positive*
G04*
G01*
G75*
%ADD66O,0.04000X0.05748*%
%ADD74R,0.07000X0.07000*%
%ADD75C,0.07000*%
%ADD76C,0.08000*%
%ADD77R,0.08000X0.08000*%
%ADD78C,0.06000*%
%ADD79R,0.06000X0.06000*%
%ADD80C,0.06500*%
%ADD81R,0.06500X0.06500*%
%ADD82O,0.04724X0.09449*%
%ADD83C,0.13543*%
D66*
X324453Y172071D02*
D03*
X343547D02*
D03*
D74*
X327000Y115000D02*
D03*
X17000D02*
D03*
X41000Y174000D02*
D03*
D75*
X327000Y105000D02*
D03*
Y95000D02*
D03*
Y85000D02*
D03*
Y75000D02*
D03*
Y65000D02*
D03*
Y55000D02*
D03*
Y45000D02*
D03*
X377000D02*
D03*
Y55000D02*
D03*
Y65000D02*
D03*
Y75000D02*
D03*
Y85000D02*
D03*
Y105000D02*
D03*
Y95000D02*
D03*
Y115000D02*
D03*
X17000Y105000D02*
D03*
Y95000D02*
D03*
Y85000D02*
D03*
Y75000D02*
D03*
Y65000D02*
D03*
Y55000D02*
D03*
Y45000D02*
D03*
X67000D02*
D03*
Y55000D02*
D03*
Y65000D02*
D03*
Y75000D02*
D03*
Y85000D02*
D03*
Y105000D02*
D03*
Y95000D02*
D03*
Y115000D02*
D03*
X51000Y164000D02*
D03*
Y174000D02*
D03*
X41000Y164000D02*
D03*
D76*
X92000Y66000D02*
D03*
X117591D02*
D03*
X282000Y9000D02*
D03*
X272000D02*
D03*
X190000Y30000D02*
D03*
X200000D02*
D03*
X180000D02*
D03*
D77*
X292000Y9000D02*
D03*
X210000Y30000D02*
D03*
D78*
X240000Y10000D02*
D03*
X230000D02*
D03*
X220000D02*
D03*
X210000D02*
D03*
X200000D02*
D03*
X190000D02*
D03*
X180000D02*
D03*
X170000D02*
D03*
X160000D02*
D03*
D79*
X150000D02*
D03*
D80*
X366748Y29000D02*
D03*
X358874D02*
D03*
X351000D02*
D03*
X51874D02*
D03*
X44000D02*
D03*
X36126D02*
D03*
D81*
X343126D02*
D03*
X28252D02*
D03*
D82*
X323272Y184000D02*
D03*
X344728D02*
D03*
D83*
X286432Y27605D02*
D03*
X107298D02*
D03*
M02*
