M48
;Layer_Color=9474304
;FILE_FORMAT=2:4
INCH,TZ
;TYPE=PLATED
T3F00S00C0.0280
T4F00S00C0.0300
T5F00S00C0.0354
T6F00S00C0.0400
T7F00S00C0.0402
T8F00S00C0.0433
T9F00S00C0.1354
%
T03
X7100Y2200
X8900Y1300
X12600Y1600
X14300Y4400
X19500Y5500
X20300Y4900
X21200
X22700Y5500
X26000Y3100
X27800Y4300
X30900Y4400
X31800Y2000
X30600Y900
X37700Y3300
X37800Y15300
X35600Y16600
X34800Y12400
X31500Y9600
X30500Y10600
X27800Y10700
X26000Y12100
X24200Y11700
Y11000
Y10300
X26000Y14400
X27600Y15600
X28500Y17600
X30600
X30000Y14600
X31400Y6300
X15700Y7300
X13700Y8400
X14200Y12200
X11100
Y14200
X11280Y15020
X12400Y16800
X10800Y18600
X7100
Y14300
X8400Y13300
X4900Y14900
X1100Y15100
X3300Y11500
X4400Y9100
X5100
T04
X15000Y1000
X16000
X17000
X18000
X19000
X20000
X21000
X22000
X23000
X24000
T05
X2825Y2900
X3613
X4400
X5187
X34313
X35100
X35887
X36675
T06
X4100Y16400
X5100
Y17400
X4100
T07
X1700Y4500
Y5500
X6700
Y4500
X32700
Y5500
X37700
Y4500
Y6500
Y7500
Y8500
Y9500
Y10500
Y11500
X32700
Y10500
Y9500
Y8500
Y7500
Y6500
X6700
Y7500
Y8500
Y9500
Y10500
Y11500
X1700
Y10500
Y9500
Y8500
Y7500
Y6500
T08
X18000Y3000
X19000
X20000
X21000
X27200Y900
X28200
X29200
X11759Y6600
X9200
T09
X10730Y2760
X28643
M30
