G04*
G04 #@! TF.GenerationSoftware,Altium Limited,Altium Designer,22.0.2 (36)*
G04*
G04 Layer_Color=32896*
%FSLAX25Y25*%
%MOIN*%
G70*
G04*
G04 #@! TF.SameCoordinates,A5FD766F-ED0D-4258-BB47-254A20FAC7F6*
G04*
G04*
G04 #@! TF.FilePolarity,Positive*
G04*
G01*
G75*
%ADD10C,0.00787*%
G36*
X269535Y19215D02*
X269579Y19209D01*
X269623Y19201D01*
X269662Y19190D01*
X269737Y19159D01*
X269770Y19145D01*
X269798Y19129D01*
X269826Y19109D01*
X269848Y19095D01*
X269870Y19079D01*
X269886Y19065D01*
X269900Y19054D01*
X269909Y19046D01*
X269914Y19040D01*
X269917Y19037D01*
X269947Y19004D01*
X269972Y18965D01*
X269997Y18929D01*
X270017Y18890D01*
X270033Y18849D01*
X270047Y18810D01*
X270066Y18738D01*
X270075Y18702D01*
X270080Y18672D01*
X270083Y18641D01*
X270086Y18616D01*
X270089Y18597D01*
Y18583D01*
Y18572D01*
Y18569D01*
X270086Y18517D01*
X270080Y18469D01*
X270075Y18422D01*
X270064Y18378D01*
X270050Y18339D01*
X270036Y18300D01*
X270022Y18267D01*
X270006Y18237D01*
X269992Y18209D01*
X269978Y18184D01*
X269964Y18165D01*
X269950Y18145D01*
X269939Y18131D01*
X269934Y18123D01*
X269928Y18118D01*
X269925Y18115D01*
X269895Y18084D01*
X269862Y18059D01*
X269828Y18034D01*
X269792Y18015D01*
X269759Y17999D01*
X269726Y17985D01*
X269662Y17965D01*
X269634Y17957D01*
X269607Y17951D01*
X269585Y17949D01*
X269562Y17946D01*
X269546Y17943D01*
X269524D01*
X269471Y17946D01*
X269421Y17954D01*
X269377Y17965D01*
X269335Y17979D01*
X269305Y17990D01*
X269280Y18001D01*
X269263Y18010D01*
X269258Y18012D01*
X269213Y18040D01*
X269175Y18070D01*
X269141Y18101D01*
X269114Y18129D01*
X269094Y18156D01*
X269078Y18176D01*
X269067Y18190D01*
X269064Y18195D01*
Y18173D01*
Y18159D01*
Y18151D01*
Y18148D01*
X269067Y18093D01*
X269069Y18040D01*
X269075Y17993D01*
X269080Y17949D01*
X269089Y17913D01*
X269094Y17885D01*
X269097Y17874D01*
Y17865D01*
X269100Y17863D01*
Y17860D01*
X269114Y17810D01*
X269127Y17766D01*
X269141Y17727D01*
X269155Y17694D01*
X269166Y17669D01*
X269177Y17649D01*
X269183Y17636D01*
X269186Y17633D01*
X269208Y17602D01*
X269230Y17577D01*
X269252Y17555D01*
X269274Y17536D01*
X269291Y17519D01*
X269308Y17508D01*
X269319Y17503D01*
X269321Y17500D01*
X269352Y17483D01*
X269385Y17472D01*
X269416Y17464D01*
X269446Y17458D01*
X269471Y17456D01*
X269490Y17453D01*
X269510D01*
X269554Y17456D01*
X269596Y17464D01*
X269632Y17475D01*
X269662Y17489D01*
X269684Y17500D01*
X269704Y17511D01*
X269715Y17519D01*
X269718Y17522D01*
X269745Y17552D01*
X269767Y17589D01*
X269787Y17627D01*
X269801Y17666D01*
X269812Y17699D01*
X269820Y17730D01*
X269823Y17741D01*
Y17746D01*
X269826Y17752D01*
Y17755D01*
X270053Y17735D01*
X270036Y17655D01*
X270014Y17586D01*
X269986Y17525D01*
X269958Y17475D01*
X269931Y17436D01*
X269917Y17420D01*
X269906Y17406D01*
X269898Y17397D01*
X269889Y17389D01*
X269886Y17386D01*
X269884Y17383D01*
X269856Y17361D01*
X269826Y17342D01*
X269765Y17312D01*
X269704Y17289D01*
X269646Y17276D01*
X269593Y17264D01*
X269571Y17262D01*
X269551D01*
X269537Y17259D01*
X269515D01*
X269438Y17264D01*
X269369Y17276D01*
X269305Y17295D01*
X269252Y17317D01*
X269230Y17325D01*
X269208Y17336D01*
X269191Y17347D01*
X269175Y17356D01*
X269163Y17361D01*
X269155Y17367D01*
X269150Y17372D01*
X269147D01*
X269092Y17420D01*
X269042Y17472D01*
X269003Y17528D01*
X268970Y17580D01*
X268942Y17627D01*
X268931Y17649D01*
X268922Y17666D01*
X268917Y17683D01*
X268912Y17694D01*
X268909Y17699D01*
Y17702D01*
X268895Y17744D01*
X268881Y17791D01*
X268862Y17885D01*
X268848Y17985D01*
X268839Y18079D01*
X268834Y18120D01*
X268831Y18162D01*
Y18198D01*
X268828Y18228D01*
Y18253D01*
Y18273D01*
Y18286D01*
Y18289D01*
Y18353D01*
X268831Y18414D01*
X268837Y18469D01*
X268842Y18522D01*
X268848Y18569D01*
X268853Y18613D01*
X268862Y18655D01*
X268870Y18691D01*
X268878Y18721D01*
X268884Y18749D01*
X268892Y18774D01*
X268898Y18793D01*
X268903Y18807D01*
X268909Y18818D01*
X268912Y18824D01*
Y18827D01*
X268945Y18893D01*
X268981Y18951D01*
X269022Y19001D01*
X269058Y19043D01*
X269094Y19073D01*
X269122Y19095D01*
X269133Y19104D01*
X269141Y19109D01*
X269144Y19115D01*
X269147D01*
X269205Y19148D01*
X269263Y19173D01*
X269321Y19192D01*
X269374Y19203D01*
X269421Y19212D01*
X269441Y19215D01*
X269454D01*
X269468Y19217D01*
X269488D01*
X269535Y19215D01*
D02*
G37*
G36*
X271188Y19237D02*
X271277Y19223D01*
X271355Y19206D01*
X271391Y19195D01*
X271424Y19184D01*
X271454Y19173D01*
X271482Y19162D01*
X271504Y19154D01*
X271526Y19145D01*
X271540Y19137D01*
X271551Y19131D01*
X271560Y19129D01*
X271562Y19126D01*
X271637Y19079D01*
X271701Y19023D01*
X271756Y18968D01*
X271803Y18913D01*
X271839Y18863D01*
X271853Y18841D01*
X271864Y18821D01*
X271875Y18807D01*
X271881Y18796D01*
X271884Y18788D01*
X271886Y18785D01*
X271925Y18699D01*
X271953Y18611D01*
X271972Y18522D01*
X271986Y18442D01*
X271992Y18406D01*
X271994Y18370D01*
X271997Y18342D01*
Y18314D01*
X272000Y18295D01*
Y18278D01*
Y18267D01*
Y18264D01*
X271994Y18165D01*
X271983Y18068D01*
X271970Y17982D01*
X271958Y17940D01*
X271950Y17904D01*
X271942Y17871D01*
X271931Y17841D01*
X271922Y17813D01*
X271917Y17791D01*
X271909Y17774D01*
X271906Y17760D01*
X271900Y17752D01*
Y17749D01*
X271859Y17666D01*
X271812Y17591D01*
X271762Y17528D01*
X271737Y17503D01*
X271715Y17478D01*
X271692Y17456D01*
X271670Y17436D01*
X271651Y17420D01*
X271634Y17409D01*
X271623Y17397D01*
X271612Y17389D01*
X271607Y17386D01*
X271604Y17383D01*
X271565Y17361D01*
X271526Y17342D01*
X271443Y17312D01*
X271360Y17289D01*
X271280Y17276D01*
X271241Y17270D01*
X271208Y17264D01*
X271177Y17262D01*
X271152D01*
X271130Y17259D01*
X271100D01*
X271044Y17262D01*
X270992Y17267D01*
X270942Y17273D01*
X270895Y17284D01*
X270850Y17298D01*
X270809Y17312D01*
X270770Y17325D01*
X270734Y17342D01*
X270704Y17356D01*
X270673Y17370D01*
X270651Y17383D01*
X270629Y17397D01*
X270615Y17409D01*
X270601Y17414D01*
X270596Y17420D01*
X270593Y17422D01*
X270554Y17456D01*
X270521Y17489D01*
X270490Y17528D01*
X270460Y17566D01*
X270410Y17644D01*
X270371Y17721D01*
X270355Y17758D01*
X270341Y17791D01*
X270330Y17821D01*
X270321Y17846D01*
X270313Y17868D01*
X270307Y17885D01*
X270305Y17896D01*
Y17899D01*
X270560Y17963D01*
X270571Y17918D01*
X270585Y17877D01*
X270598Y17838D01*
X270612Y17802D01*
X270629Y17769D01*
X270645Y17741D01*
X270665Y17713D01*
X270682Y17688D01*
X270695Y17666D01*
X270712Y17649D01*
X270726Y17633D01*
X270737Y17619D01*
X270748Y17611D01*
X270756Y17602D01*
X270759Y17600D01*
X270762Y17597D01*
X270790Y17575D01*
X270820Y17558D01*
X270881Y17528D01*
X270939Y17505D01*
X270997Y17492D01*
X271047Y17481D01*
X271066Y17478D01*
X271086D01*
X271102Y17475D01*
X271122D01*
X271186Y17478D01*
X271247Y17489D01*
X271302Y17503D01*
X271352Y17519D01*
X271391Y17536D01*
X271407Y17544D01*
X271421Y17550D01*
X271432Y17555D01*
X271441Y17561D01*
X271446Y17564D01*
X271449D01*
X271501Y17602D01*
X271546Y17644D01*
X271585Y17691D01*
X271615Y17735D01*
X271640Y17774D01*
X271656Y17807D01*
X271662Y17821D01*
X271668Y17830D01*
X271670Y17835D01*
Y17838D01*
X271692Y17910D01*
X271709Y17982D01*
X271723Y18054D01*
X271731Y18120D01*
X271734Y18151D01*
X271737Y18179D01*
Y18203D01*
X271740Y18223D01*
Y18239D01*
Y18253D01*
Y18262D01*
Y18264D01*
X271737Y18336D01*
X271731Y18403D01*
X271720Y18464D01*
X271709Y18519D01*
X271701Y18566D01*
X271695Y18586D01*
X271690Y18602D01*
X271687Y18616D01*
X271684Y18624D01*
X271681Y18630D01*
Y18633D01*
X271654Y18697D01*
X271623Y18755D01*
X271590Y18802D01*
X271554Y18843D01*
X271524Y18877D01*
X271499Y18899D01*
X271479Y18913D01*
X271477Y18918D01*
X271474D01*
X271415Y18954D01*
X271352Y18982D01*
X271291Y19001D01*
X271233Y19012D01*
X271180Y19021D01*
X271158Y19023D01*
X271139D01*
X271125Y19026D01*
X271102D01*
X271033Y19023D01*
X270970Y19012D01*
X270917Y18996D01*
X270870Y18979D01*
X270834Y18960D01*
X270806Y18946D01*
X270790Y18935D01*
X270784Y18929D01*
X270740Y18888D01*
X270698Y18841D01*
X270665Y18791D01*
X270637Y18741D01*
X270615Y18697D01*
X270607Y18674D01*
X270601Y18658D01*
X270596Y18644D01*
X270590Y18633D01*
X270587Y18627D01*
Y18624D01*
X270338Y18683D01*
X270355Y18733D01*
X270371Y18777D01*
X270393Y18818D01*
X270413Y18860D01*
X270435Y18896D01*
X270460Y18929D01*
X270482Y18962D01*
X270504Y18990D01*
X270526Y19012D01*
X270546Y19035D01*
X270565Y19054D01*
X270579Y19068D01*
X270593Y19082D01*
X270604Y19090D01*
X270609Y19093D01*
X270612Y19095D01*
X270651Y19120D01*
X270690Y19145D01*
X270729Y19165D01*
X270770Y19181D01*
X270853Y19206D01*
X270928Y19223D01*
X270964Y19231D01*
X270994Y19234D01*
X271025Y19237D01*
X271050Y19239D01*
X271069Y19242D01*
X271097D01*
X271188Y19237D01*
D02*
G37*
G36*
X183466Y22215D02*
X183518Y22209D01*
X183568Y22198D01*
X183615Y22184D01*
X183657Y22165D01*
X183698Y22148D01*
X183734Y22126D01*
X183767Y22106D01*
X183795Y22087D01*
X183823Y22065D01*
X183845Y22048D01*
X183862Y22032D01*
X183875Y22015D01*
X183887Y22004D01*
X183892Y21998D01*
X183895Y21996D01*
X183931Y21946D01*
X183961Y21888D01*
X183989Y21827D01*
X184014Y21763D01*
X184033Y21697D01*
X184050Y21630D01*
X184064Y21561D01*
X184075Y21497D01*
X184083Y21433D01*
X184089Y21375D01*
X184094Y21323D01*
X184097Y21278D01*
Y21239D01*
X184100Y21212D01*
Y21201D01*
Y21192D01*
Y21190D01*
Y21187D01*
X184097Y21098D01*
X184091Y21015D01*
X184083Y20937D01*
X184069Y20865D01*
X184055Y20802D01*
X184042Y20744D01*
X184025Y20691D01*
X184006Y20644D01*
X183989Y20605D01*
X183972Y20569D01*
X183958Y20541D01*
X183942Y20516D01*
X183931Y20497D01*
X183923Y20486D01*
X183917Y20478D01*
X183914Y20475D01*
X183878Y20436D01*
X183839Y20403D01*
X183801Y20375D01*
X183762Y20350D01*
X183720Y20328D01*
X183681Y20312D01*
X183643Y20298D01*
X183604Y20287D01*
X183571Y20278D01*
X183537Y20270D01*
X183510Y20264D01*
X183485Y20262D01*
X183463D01*
X183449Y20259D01*
X183435D01*
X183371Y20262D01*
X183313Y20273D01*
X183261Y20284D01*
X183213Y20300D01*
X183177Y20314D01*
X183150Y20328D01*
X183139Y20331D01*
X183130Y20336D01*
X183127Y20339D01*
X183125D01*
X183078Y20372D01*
X183033Y20411D01*
X182997Y20450D01*
X182967Y20489D01*
X182942Y20525D01*
X182925Y20552D01*
X182920Y20564D01*
X182914Y20572D01*
X182911Y20575D01*
Y20577D01*
X182884Y20636D01*
X182864Y20696D01*
X182851Y20752D01*
X182842Y20805D01*
X182834Y20849D01*
Y20865D01*
X182831Y20882D01*
Y20896D01*
Y20904D01*
Y20910D01*
Y20913D01*
X182834Y20963D01*
X182839Y21010D01*
X182848Y21057D01*
X182856Y21098D01*
X182870Y21137D01*
X182884Y21176D01*
X182898Y21209D01*
X182914Y21239D01*
X182931Y21267D01*
X182945Y21292D01*
X182958Y21312D01*
X182972Y21331D01*
X182981Y21345D01*
X182989Y21353D01*
X182995Y21359D01*
X182997Y21361D01*
X183028Y21392D01*
X183061Y21419D01*
X183097Y21442D01*
X183130Y21461D01*
X183163Y21480D01*
X183197Y21494D01*
X183261Y21514D01*
X183288Y21522D01*
X183316Y21528D01*
X183338Y21530D01*
X183360Y21533D01*
X183377Y21536D01*
X183399D01*
X183449Y21533D01*
X183496Y21525D01*
X183540Y21517D01*
X183579Y21505D01*
X183612Y21492D01*
X183637Y21483D01*
X183654Y21475D01*
X183657Y21472D01*
X183659D01*
X183704Y21444D01*
X183742Y21414D01*
X183779Y21384D01*
X183806Y21350D01*
X183831Y21323D01*
X183851Y21300D01*
X183862Y21284D01*
X183864Y21281D01*
Y21331D01*
X183862Y21381D01*
X183859Y21425D01*
X183853Y21469D01*
X183851Y21508D01*
X183845Y21544D01*
X183839Y21577D01*
X183831Y21608D01*
X183826Y21636D01*
X183820Y21658D01*
X183815Y21677D01*
X183812Y21694D01*
X183806Y21705D01*
X183803Y21713D01*
X183801Y21719D01*
Y21721D01*
X183773Y21777D01*
X183745Y21827D01*
X183715Y21866D01*
X183687Y21899D01*
X183662Y21926D01*
X183643Y21946D01*
X183629Y21957D01*
X183623Y21960D01*
X183590Y21982D01*
X183557Y21996D01*
X183524Y22007D01*
X183490Y22015D01*
X183466Y22021D01*
X183443Y22023D01*
X183424D01*
X183374Y22018D01*
X183327Y22007D01*
X183288Y21990D01*
X183252Y21973D01*
X183224Y21954D01*
X183205Y21937D01*
X183194Y21926D01*
X183188Y21921D01*
X183169Y21896D01*
X183150Y21866D01*
X183133Y21832D01*
X183122Y21799D01*
X183111Y21768D01*
X183103Y21744D01*
X183100Y21727D01*
X183097Y21724D01*
Y21721D01*
X182862Y21741D01*
X182878Y21818D01*
X182903Y21888D01*
X182931Y21949D01*
X182961Y21998D01*
X182992Y22037D01*
X183003Y22054D01*
X183017Y22068D01*
X183025Y22076D01*
X183033Y22084D01*
X183036Y22087D01*
X183039Y22090D01*
X183067Y22112D01*
X183097Y22131D01*
X183158Y22165D01*
X183219Y22187D01*
X183277Y22201D01*
X183330Y22212D01*
X183352Y22215D01*
X183371D01*
X183388Y22217D01*
X183410D01*
X183466Y22215D01*
D02*
G37*
G36*
X185188Y22237D02*
X185277Y22223D01*
X185355Y22206D01*
X185391Y22195D01*
X185424Y22184D01*
X185454Y22173D01*
X185482Y22162D01*
X185504Y22154D01*
X185526Y22145D01*
X185540Y22137D01*
X185551Y22131D01*
X185560Y22129D01*
X185562Y22126D01*
X185637Y22079D01*
X185701Y22023D01*
X185756Y21968D01*
X185803Y21913D01*
X185839Y21863D01*
X185853Y21840D01*
X185864Y21821D01*
X185875Y21807D01*
X185881Y21796D01*
X185884Y21788D01*
X185886Y21785D01*
X185925Y21699D01*
X185953Y21611D01*
X185972Y21522D01*
X185986Y21442D01*
X185992Y21406D01*
X185995Y21370D01*
X185997Y21342D01*
Y21314D01*
X186000Y21295D01*
Y21278D01*
Y21267D01*
Y21264D01*
X185995Y21165D01*
X185983Y21068D01*
X185969Y20982D01*
X185958Y20940D01*
X185950Y20904D01*
X185942Y20871D01*
X185931Y20841D01*
X185922Y20813D01*
X185917Y20791D01*
X185909Y20774D01*
X185906Y20760D01*
X185900Y20752D01*
Y20749D01*
X185859Y20666D01*
X185812Y20591D01*
X185762Y20528D01*
X185737Y20503D01*
X185715Y20478D01*
X185693Y20456D01*
X185670Y20436D01*
X185651Y20419D01*
X185634Y20409D01*
X185623Y20397D01*
X185612Y20389D01*
X185607Y20386D01*
X185604Y20383D01*
X185565Y20361D01*
X185526Y20342D01*
X185443Y20312D01*
X185360Y20289D01*
X185280Y20276D01*
X185241Y20270D01*
X185208Y20264D01*
X185177Y20262D01*
X185152D01*
X185130Y20259D01*
X185100D01*
X185044Y20262D01*
X184992Y20267D01*
X184942Y20273D01*
X184895Y20284D01*
X184851Y20298D01*
X184809Y20312D01*
X184770Y20325D01*
X184734Y20342D01*
X184704Y20356D01*
X184673Y20370D01*
X184651Y20383D01*
X184629Y20397D01*
X184615Y20409D01*
X184601Y20414D01*
X184596Y20419D01*
X184593Y20422D01*
X184554Y20456D01*
X184521Y20489D01*
X184490Y20528D01*
X184460Y20566D01*
X184410Y20644D01*
X184371Y20721D01*
X184355Y20757D01*
X184341Y20791D01*
X184330Y20821D01*
X184321Y20846D01*
X184313Y20868D01*
X184308Y20885D01*
X184305Y20896D01*
Y20899D01*
X184560Y20963D01*
X184571Y20918D01*
X184584Y20877D01*
X184598Y20838D01*
X184612Y20802D01*
X184629Y20769D01*
X184645Y20741D01*
X184665Y20713D01*
X184681Y20688D01*
X184695Y20666D01*
X184712Y20649D01*
X184726Y20633D01*
X184737Y20619D01*
X184748Y20611D01*
X184756Y20602D01*
X184759Y20600D01*
X184762Y20597D01*
X184790Y20575D01*
X184820Y20558D01*
X184881Y20528D01*
X184939Y20505D01*
X184997Y20492D01*
X185047Y20481D01*
X185066Y20478D01*
X185086D01*
X185102Y20475D01*
X185122D01*
X185186Y20478D01*
X185247Y20489D01*
X185302Y20503D01*
X185352Y20519D01*
X185391Y20536D01*
X185407Y20544D01*
X185421Y20550D01*
X185432Y20555D01*
X185441Y20561D01*
X185446Y20564D01*
X185449D01*
X185501Y20602D01*
X185546Y20644D01*
X185584Y20691D01*
X185615Y20735D01*
X185640Y20774D01*
X185656Y20807D01*
X185662Y20821D01*
X185668Y20830D01*
X185670Y20835D01*
Y20838D01*
X185693Y20910D01*
X185709Y20982D01*
X185723Y21054D01*
X185731Y21120D01*
X185734Y21151D01*
X185737Y21179D01*
Y21204D01*
X185740Y21223D01*
Y21239D01*
Y21253D01*
Y21262D01*
Y21264D01*
X185737Y21336D01*
X185731Y21403D01*
X185720Y21464D01*
X185709Y21519D01*
X185701Y21566D01*
X185695Y21586D01*
X185690Y21602D01*
X185687Y21616D01*
X185684Y21624D01*
X185681Y21630D01*
Y21633D01*
X185654Y21697D01*
X185623Y21755D01*
X185590Y21802D01*
X185554Y21843D01*
X185524Y21877D01*
X185499Y21899D01*
X185479Y21913D01*
X185477Y21918D01*
X185474D01*
X185415Y21954D01*
X185352Y21982D01*
X185291Y22001D01*
X185233Y22012D01*
X185180Y22021D01*
X185158Y22023D01*
X185138D01*
X185125Y22026D01*
X185102D01*
X185033Y22023D01*
X184970Y22012D01*
X184917Y21996D01*
X184870Y21979D01*
X184834Y21960D01*
X184806Y21946D01*
X184790Y21935D01*
X184784Y21929D01*
X184740Y21888D01*
X184698Y21840D01*
X184665Y21791D01*
X184637Y21741D01*
X184615Y21697D01*
X184607Y21674D01*
X184601Y21658D01*
X184596Y21644D01*
X184590Y21633D01*
X184587Y21627D01*
Y21624D01*
X184338Y21683D01*
X184355Y21733D01*
X184371Y21777D01*
X184393Y21818D01*
X184413Y21860D01*
X184435Y21896D01*
X184460Y21929D01*
X184482Y21962D01*
X184504Y21990D01*
X184526Y22012D01*
X184546Y22035D01*
X184565Y22054D01*
X184579Y22068D01*
X184593Y22082D01*
X184604Y22090D01*
X184609Y22093D01*
X184612Y22095D01*
X184651Y22120D01*
X184690Y22145D01*
X184729Y22165D01*
X184770Y22181D01*
X184853Y22206D01*
X184928Y22223D01*
X184964Y22231D01*
X184994Y22234D01*
X185025Y22237D01*
X185050Y22239D01*
X185069Y22242D01*
X185097D01*
X185188Y22237D01*
D02*
G37*
%LPC*%
G36*
X269474Y19023D02*
X269429D01*
X269402Y19018D01*
X269352Y19004D01*
X269308Y18985D01*
X269269Y18965D01*
X269238Y18943D01*
X269216Y18924D01*
X269202Y18910D01*
X269197Y18907D01*
Y18904D01*
X269161Y18857D01*
X269133Y18804D01*
X269114Y18749D01*
X269103Y18697D01*
X269094Y18652D01*
X269092Y18633D01*
Y18613D01*
X269089Y18600D01*
Y18588D01*
Y18583D01*
Y18580D01*
X269094Y18508D01*
X269105Y18444D01*
X269122Y18392D01*
X269141Y18348D01*
X269163Y18312D01*
X269180Y18286D01*
X269191Y18270D01*
X269197Y18264D01*
X269238Y18226D01*
X269283Y18198D01*
X269327Y18179D01*
X269371Y18165D01*
X269407Y18156D01*
X269438Y18154D01*
X269449Y18151D01*
X269465D01*
X269524Y18156D01*
X269576Y18167D01*
X269623Y18187D01*
X269665Y18209D01*
X269695Y18228D01*
X269720Y18248D01*
X269734Y18259D01*
X269740Y18264D01*
X269776Y18309D01*
X269803Y18359D01*
X269820Y18408D01*
X269834Y18455D01*
X269842Y18497D01*
X269845Y18514D01*
Y18530D01*
X269848Y18544D01*
Y18553D01*
Y18558D01*
Y18561D01*
X269842Y18633D01*
X269831Y18699D01*
X269812Y18757D01*
X269790Y18804D01*
X269770Y18843D01*
X269751Y18871D01*
X269745Y18879D01*
X269740Y18888D01*
X269734Y18890D01*
Y18893D01*
X269712Y18915D01*
X269690Y18937D01*
X269643Y18968D01*
X269596Y18993D01*
X269551Y19007D01*
X269515Y19018D01*
X269485Y19021D01*
X269474Y19023D01*
D02*
G37*
G36*
X183463Y21328D02*
X183446D01*
X183388Y21323D01*
X183335Y21309D01*
X183291Y21292D01*
X183252Y21270D01*
X183222Y21248D01*
X183200Y21231D01*
X183186Y21217D01*
X183180Y21212D01*
X183144Y21165D01*
X183116Y21115D01*
X183097Y21062D01*
X183086Y21012D01*
X183078Y20968D01*
X183075Y20949D01*
Y20932D01*
X183072Y20918D01*
Y20907D01*
Y20901D01*
Y20899D01*
X183078Y20824D01*
X183089Y20760D01*
X183105Y20705D01*
X183125Y20658D01*
X183147Y20622D01*
X183163Y20594D01*
X183175Y20577D01*
X183180Y20575D01*
Y20572D01*
X183200Y20550D01*
X183222Y20533D01*
X183266Y20503D01*
X183310Y20483D01*
X183349Y20467D01*
X183385Y20458D01*
X183413Y20456D01*
X183424Y20453D01*
X183438D01*
X183476Y20456D01*
X183512Y20461D01*
X183546Y20472D01*
X183573Y20483D01*
X183598Y20492D01*
X183618Y20503D01*
X183629Y20508D01*
X183634Y20511D01*
X183668Y20536D01*
X183695Y20561D01*
X183720Y20591D01*
X183740Y20616D01*
X183756Y20641D01*
X183767Y20661D01*
X183776Y20674D01*
X183779Y20680D01*
X183795Y20721D01*
X183806Y20763D01*
X183817Y20802D01*
X183823Y20838D01*
X183826Y20868D01*
X183828Y20893D01*
Y20907D01*
Y20913D01*
X183823Y20979D01*
X183812Y21037D01*
X183792Y21090D01*
X183773Y21131D01*
X183754Y21167D01*
X183734Y21192D01*
X183723Y21206D01*
X183718Y21212D01*
X183673Y21250D01*
X183629Y21278D01*
X183582Y21300D01*
X183540Y21314D01*
X183502Y21323D01*
X183474Y21325D01*
X183463Y21328D01*
D02*
G37*
%LPD*%
D10*
X144000Y4000D02*
X246000D01*
Y16000D01*
X144000Y4000D02*
Y16000D01*
X246000D01*
X276331Y15835D02*
Y20165D01*
X267669Y15835D02*
X276331D01*
X267669D02*
Y20165D01*
X276331D01*
X190331Y18835D02*
Y23165D01*
X181669Y18835D02*
X190331D01*
X181669D02*
Y23165D01*
X190331D01*
M02*
