%FSTAX23Y23*%
%MOIN*%
%SFA1B1*%

%IPPOS*%
%AMD36*
4,1,8,0.012200,-0.022700,0.012200,0.022700,0.009200,0.025800,-0.009200,0.025800,-0.012200,0.022700,-0.012200,-0.022700,-0.009200,-0.025800,0.009200,-0.025800,0.012200,-0.022700,0.0*
1,1,0.006100,0.009200,-0.022700*
1,1,0.006100,0.009200,0.022700*
1,1,0.006100,-0.009200,0.022700*
1,1,0.006100,-0.009200,-0.022700*
%
%ADD15C,0.005000*%
%ADD17R,0.062990X0.110240*%
%ADD18R,0.035430X0.029530*%
%ADD19R,0.039370X0.035430*%
%ADD20R,0.110240X0.062990*%
%ADD21R,0.025590X0.027560*%
%ADD22R,0.035430X0.039370*%
%ADD23R,0.023620X0.047240*%
%ADD24R,0.031500X0.031500*%
%ADD25R,0.015750X0.068900*%
%ADD26R,0.056100X0.098430*%
%ADD27R,0.059060X0.035430*%
%ADD28R,0.078740X0.035430*%
%ADD29R,0.035430X0.078740*%
%ADD30R,0.052360X0.052360*%
%ADD31R,0.043310X0.023620*%
%ADD32R,0.033470X0.037400*%
%ADD33R,0.055120X0.055000*%
%ADD34R,0.055120X0.047240*%
%ADD35R,0.035430X0.055120*%
G04~CAMADD=36~8~0.0~0.0~515.8~244.1~30.5~0.0~15~0.0~0.0~0.0~0.0~0~0.0~0.0~0.0~0.0~0~0.0~0.0~0.0~270.0~244.0~516.0*
%ADD36D36*%
%ADD37C,0.059060*%
%ADD38R,0.037400X0.037400*%
%LNcontrolboardv1-1*%
%LPD*%
G54D17*
X03346Y04294D03*
G54D15*
X0Y0D02*
X12286D01*
Y16786*
X0*
Y0*
G54D17*
X03346Y04463D03*
G54D18*
X05196Y03905D03*
Y03952D03*
G54D19*
X05116Y03585D03*
Y03638D03*
G54D20*
X05821Y04218D03*
X05652D03*
X02232D03*
X02401D03*
G54D21*
X0363Y03178D03*
X03683D03*
G54D22*
X0363Y03108D03*
X03683D03*
G54D23*
X05359Y04484D03*
X05396D03*
X05434D03*
Y04393D03*
X05396D03*
X05359D03*
G54D24*
X04546Y03628D03*
X04487D03*
G54D25*
X05448Y04617D03*
X05422D03*
X05396D03*
X05371D03*
X05345D03*
G54D26*
X05434Y04738D03*
X05359D03*
G54D27*
X02349Y04652D03*
Y04782D03*
X02156Y04652D03*
Y04782D03*
Y03053D03*
Y02924D03*
X02349Y03053D03*
Y02924D03*
X0569Y03053D03*
Y02924D03*
X05883Y03053D03*
Y02924D03*
X0569Y04782D03*
Y04652D03*
X05883Y04782D03*
Y04652D03*
G54D28*
X03722Y04523D03*
Y04473D03*
Y04423D03*
Y04373D03*
Y04323D03*
Y04273D03*
Y04223D03*
Y04173D03*
Y04123D03*
Y04073D03*
Y04023D03*
Y03973D03*
Y03923D03*
Y03873D03*
X04391D03*
Y03923D03*
Y03973D03*
Y04023D03*
Y04073D03*
Y04123D03*
Y04173D03*
Y04223D03*
Y04273D03*
Y04323D03*
Y04373D03*
Y04423D03*
Y04473D03*
Y04523D03*
G54D29*
X03831Y03834D03*
X03881D03*
X03931D03*
X03981D03*
X04031D03*
X04081D03*
X04131D03*
X04181D03*
X04231D03*
X04281D03*
G54D30*
X03945Y043D03*
X04017D03*
X04089D03*
X03945Y04228D03*
X04017D03*
X04089D03*
X03945Y04156D03*
X04017D03*
X04089D03*
G54D31*
X0521Y03768D03*
X05123Y03731D03*
Y03806D03*
X04763Y03768D03*
X0485Y03806D03*
Y03731D03*
G54D32*
X05012Y03808D03*
X04961D03*
X05012Y03728D03*
X04961D03*
X04691Y04608D03*
X04742D03*
X03422Y04618D03*
X03371D03*
X04412Y03628D03*
X04361D03*
X04571Y04608D03*
X04622D03*
X03542Y04618D03*
X03491D03*
G54D33*
X02256Y04455D03*
G54D34*
X02256Y04525D03*
G54D35*
X04782Y04728D03*
X04526D03*
X03329D03*
X03584D03*
G54D36*
X05201Y0406D03*
X05151D03*
X05101D03*
X05051D03*
X05001D03*
X04951D03*
X04901D03*
X04851D03*
Y04277D03*
X04901D03*
X04951D03*
X05001D03*
X05051D03*
X05101D03*
X05151D03*
X05201D03*
G54D37*
X03586Y04388D03*
X04776Y04368D03*
X05276Y04208D03*
X03586Y04473D03*
X04486Y04388D03*
Y04308D03*
X04056Y03748D03*
X03976D03*
X04506Y03758D03*
G54D38*
X03847Y03748D03*
X03906D03*
X04176D03*
X04117D03*
G54D17*
X07584Y04294D03*
Y04463D03*
G54D18*
X09434Y03905D03*
Y03952D03*
G54D19*
X09354Y03585D03*
Y03638D03*
G54D20*
X10058Y04218D03*
X09889D03*
X06469D03*
X06638D03*
G54D21*
X07867Y03178D03*
X0792D03*
G54D22*
X07867Y03108D03*
X0792D03*
G54D23*
X09596Y04484D03*
X09634D03*
X09671D03*
Y04393D03*
X09634D03*
X09596D03*
G54D24*
X08783Y03628D03*
X08724D03*
G54D25*
X09685Y04617D03*
X09659D03*
X09634D03*
X09608D03*
X09582D03*
G54D26*
X09671Y04738D03*
X09596D03*
G54D27*
X06586Y04652D03*
Y04782D03*
X06393Y04652D03*
Y04782D03*
Y03053D03*
Y02924D03*
X06586Y03053D03*
Y02924D03*
X09927Y03053D03*
Y02924D03*
X1012Y03053D03*
Y02924D03*
X09927Y04782D03*
Y04652D03*
X1012Y04782D03*
Y04652D03*
G54D28*
X07959Y04523D03*
Y04473D03*
Y04423D03*
Y04373D03*
Y04323D03*
Y04273D03*
Y04223D03*
Y04173D03*
Y04123D03*
Y04073D03*
Y04023D03*
Y03973D03*
Y03923D03*
Y03873D03*
X08628D03*
Y03923D03*
Y03973D03*
Y04023D03*
Y04073D03*
Y04123D03*
Y04173D03*
Y04223D03*
Y04273D03*
Y04323D03*
Y04373D03*
Y04423D03*
Y04473D03*
Y04523D03*
G54D29*
X08069Y03834D03*
X08119D03*
X08169D03*
X08219D03*
X08269D03*
X08319D03*
X08369D03*
X08419D03*
X08469D03*
X08519D03*
G54D30*
X08182Y043D03*
X08254D03*
X08326D03*
X08182Y04228D03*
X08254D03*
X08326D03*
X08182Y04156D03*
X08254D03*
X08326D03*
G54D31*
X09447Y03768D03*
X0936Y03731D03*
Y03806D03*
X09Y03768D03*
X09087Y03806D03*
Y03731D03*
G54D32*
X09249Y03808D03*
X09198D03*
X09249Y03728D03*
X09198D03*
X08928Y04608D03*
X08979D03*
X07659Y04618D03*
X07608D03*
X08649Y03628D03*
X08598D03*
X08808Y04608D03*
X08859D03*
X07779Y04618D03*
X07728D03*
G54D33*
X06494Y04455D03*
G54D34*
X06494Y04525D03*
G54D35*
X09019Y04728D03*
X08764D03*
X07566D03*
X07821D03*
G54D36*
X09439Y0406D03*
X09389D03*
X09339D03*
X09289D03*
X09239D03*
X09189D03*
X09139D03*
X09089D03*
Y04277D03*
X09139D03*
X09189D03*
X09239D03*
X09289D03*
X09339D03*
X09389D03*
X09439D03*
G54D37*
X07824Y04388D03*
X09014Y04368D03*
X09514Y04208D03*
X07824Y04473D03*
X08724Y04388D03*
Y04308D03*
X08294Y03748D03*
X08214D03*
X08744Y03758D03*
G54D38*
X08084Y03748D03*
X08144D03*
X08413D03*
X08354D03*
G54D17*
X03346Y06556D03*
Y06725D03*
G54D18*
X05196Y06167D03*
Y06214D03*
G54D19*
X05116Y05847D03*
Y059D03*
G54D20*
X05821Y0648D03*
X05652D03*
X02232D03*
X02401D03*
G54D21*
X0363Y0544D03*
X03683D03*
G54D22*
X0363Y0537D03*
X03683D03*
G54D23*
X05359Y06746D03*
X05396D03*
X05434D03*
Y06655D03*
X05396D03*
X05359D03*
G54D24*
X04546Y0589D03*
X04487D03*
G54D25*
X05448Y06879D03*
X05422D03*
X05396D03*
X05371D03*
X05345D03*
G54D26*
X05434Y07D03*
X05359D03*
G54D27*
X02349Y06914D03*
Y07044D03*
X02156Y06914D03*
Y07044D03*
Y05315D03*
Y05186D03*
X02349Y05315D03*
Y05186D03*
X0569Y05315D03*
Y05186D03*
X05883Y05315D03*
Y05186D03*
X0569Y07044D03*
Y06914D03*
X05883Y07044D03*
Y06914D03*
G54D28*
X03722Y06785D03*
Y06735D03*
Y06685D03*
Y06635D03*
Y06585D03*
Y06535D03*
Y06485D03*
Y06435D03*
Y06385D03*
Y06335D03*
Y06285D03*
Y06235D03*
Y06185D03*
Y06135D03*
X04391D03*
Y06185D03*
Y06235D03*
Y06285D03*
Y06335D03*
Y06385D03*
Y06435D03*
Y06485D03*
Y06535D03*
Y06585D03*
Y06635D03*
Y06685D03*
Y06735D03*
Y06785D03*
G54D29*
X03831Y06096D03*
X03881D03*
X03931D03*
X03981D03*
X04031D03*
X04081D03*
X04131D03*
X04181D03*
X04231D03*
X04281D03*
G54D30*
X03945Y06562D03*
X04017D03*
X04089D03*
X03945Y0649D03*
X04017D03*
X04089D03*
X03945Y06418D03*
X04017D03*
X04089D03*
G54D31*
X0521Y0603D03*
X05123Y05993D03*
Y06068D03*
X04763Y0603D03*
X0485Y06068D03*
Y05993D03*
G54D32*
X05012Y0607D03*
X04961D03*
X05012Y0599D03*
X04961D03*
X04691Y0687D03*
X04742D03*
X03422Y0688D03*
X03371D03*
X04412Y0589D03*
X04361D03*
X04571Y0687D03*
X04622D03*
X03542Y0688D03*
X03491D03*
G54D33*
X02256Y06717D03*
G54D34*
X02256Y06787D03*
G54D35*
X04782Y0699D03*
X04526D03*
X03329D03*
X03584D03*
G54D36*
X05201Y06322D03*
X05151D03*
X05101D03*
X05051D03*
X05001D03*
X04951D03*
X04901D03*
X04851D03*
Y06539D03*
X04901D03*
X04951D03*
X05001D03*
X05051D03*
X05101D03*
X05151D03*
X05201D03*
G54D37*
X03586Y0665D03*
X04776Y0663D03*
X05276Y0647D03*
X03586Y06735D03*
X04486Y0665D03*
Y0657D03*
X04056Y0601D03*
X03976D03*
X04506Y0602D03*
G54D38*
X03847Y0601D03*
X03906D03*
X04176D03*
X04117D03*
G54D17*
X07584Y06556D03*
Y06725D03*
G54D18*
X09434Y06167D03*
Y06214D03*
G54D19*
X09354Y05847D03*
Y059D03*
G54D20*
X10058Y0648D03*
X09889D03*
X06469D03*
X06638D03*
G54D21*
X07867Y0544D03*
X0792D03*
G54D22*
X07867Y0537D03*
X0792D03*
G54D23*
X09596Y06746D03*
X09634D03*
X09671D03*
Y06655D03*
X09634D03*
X09596D03*
G54D24*
X08783Y0589D03*
X08724D03*
G54D25*
X09685Y06879D03*
X09659D03*
X09634D03*
X09608D03*
X09582D03*
G54D26*
X09671Y07D03*
X09596D03*
G54D27*
X06586Y06914D03*
Y07044D03*
X06393Y06914D03*
Y07044D03*
Y05315D03*
Y05186D03*
X06586Y05315D03*
Y05186D03*
X09927Y05315D03*
Y05186D03*
X1012Y05315D03*
Y05186D03*
X09927Y07044D03*
Y06914D03*
X1012Y07044D03*
Y06914D03*
G54D28*
X07959Y06785D03*
Y06735D03*
Y06685D03*
Y06635D03*
Y06585D03*
Y06535D03*
Y06485D03*
Y06435D03*
Y06385D03*
Y06335D03*
Y06285D03*
Y06235D03*
Y06185D03*
Y06135D03*
X08628D03*
Y06185D03*
Y06235D03*
Y06285D03*
Y06335D03*
Y06385D03*
Y06435D03*
Y06485D03*
Y06535D03*
Y06585D03*
Y06635D03*
Y06685D03*
Y06735D03*
Y06785D03*
G54D29*
X08069Y06096D03*
X08119D03*
X08169D03*
X08219D03*
X08269D03*
X08319D03*
X08369D03*
X08419D03*
X08469D03*
X08519D03*
G54D30*
X08182Y06562D03*
X08254D03*
X08326D03*
X08182Y0649D03*
X08254D03*
X08326D03*
X08182Y06418D03*
X08254D03*
X08326D03*
G54D31*
X09447Y0603D03*
X0936Y05993D03*
Y06068D03*
X09Y0603D03*
X09087Y06068D03*
Y05993D03*
G54D32*
X09249Y0607D03*
X09198D03*
X09249Y0599D03*
X09198D03*
X08928Y0687D03*
X08979D03*
X07659Y0688D03*
X07608D03*
X08649Y0589D03*
X08598D03*
X08808Y0687D03*
X08859D03*
X07779Y0688D03*
X07728D03*
G54D33*
X06494Y06717D03*
G54D34*
X06494Y06787D03*
G54D35*
X09019Y0699D03*
X08764D03*
X07566D03*
X07821D03*
G54D36*
X09439Y06322D03*
X09389D03*
X09339D03*
X09289D03*
X09239D03*
X09189D03*
X09139D03*
X09089D03*
Y06539D03*
X09139D03*
X09189D03*
X09239D03*
X09289D03*
X09339D03*
X09389D03*
X09439D03*
G54D37*
X07824Y0665D03*
X09014Y0663D03*
X09514Y0647D03*
X07824Y06735D03*
X08724Y0665D03*
Y0657D03*
X08294Y0601D03*
X08214D03*
X08744Y0602D03*
G54D38*
X08084Y0601D03*
X08144D03*
X08413D03*
X08354D03*
G54D17*
X03346Y08817D03*
Y08986D03*
G54D18*
X05196Y08428D03*
Y08475D03*
G54D19*
X05116Y08109D03*
Y08162D03*
G54D20*
X05821Y08742D03*
X05652D03*
X02232D03*
X02401D03*
G54D21*
X0363Y07702D03*
X03683D03*
G54D22*
X0363Y07632D03*
X03683D03*
G54D23*
X05359Y09007D03*
X05396D03*
X05434D03*
Y08916D03*
X05396D03*
X05359D03*
G54D24*
X04546Y08152D03*
X04487D03*
G54D25*
X05448Y0914D03*
X05422D03*
X05396D03*
X05371D03*
X05345D03*
G54D26*
X05434Y09261D03*
X05359D03*
G54D27*
X02349Y09175D03*
Y09305D03*
X02156Y09175D03*
Y09305D03*
Y07577D03*
Y07448D03*
X02349Y07577D03*
Y07448D03*
X0569Y07577D03*
Y07448D03*
X05883Y07577D03*
Y07448D03*
X0569Y09305D03*
Y09175D03*
X05883Y09305D03*
Y09175D03*
G54D28*
X03722Y09046D03*
Y08996D03*
Y08946D03*
Y08896D03*
Y08846D03*
Y08796D03*
Y08746D03*
Y08696D03*
Y08646D03*
Y08596D03*
Y08546D03*
Y08496D03*
Y08446D03*
Y08396D03*
X04391D03*
Y08446D03*
Y08496D03*
Y08546D03*
Y08596D03*
Y08646D03*
Y08696D03*
Y08746D03*
Y08796D03*
Y08846D03*
Y08896D03*
Y08946D03*
Y08996D03*
Y09046D03*
G54D29*
X03831Y08358D03*
X03881D03*
X03931D03*
X03981D03*
X04031D03*
X04081D03*
X04131D03*
X04181D03*
X04231D03*
X04281D03*
G54D30*
X03945Y08823D03*
X04017D03*
X04089D03*
X03945Y08751D03*
X04017D03*
X04089D03*
X03945Y08679D03*
X04017D03*
X04089D03*
G54D31*
X0521Y08292D03*
X05123Y08255D03*
Y0833D03*
X04763Y08292D03*
X0485Y0833D03*
Y08255D03*
G54D32*
X05012Y08332D03*
X04961D03*
X05012Y08252D03*
X04961D03*
X04691Y09132D03*
X04742D03*
X03422Y09142D03*
X03371D03*
X04412Y08152D03*
X04361D03*
X04571Y09132D03*
X04622D03*
X03542Y09142D03*
X03491D03*
G54D33*
X02256Y08979D03*
G54D34*
X02256Y09049D03*
G54D35*
X04782Y09252D03*
X04526D03*
X03329D03*
X03584D03*
G54D36*
X05201Y08583D03*
X05151D03*
X05101D03*
X05051D03*
X05001D03*
X04951D03*
X04901D03*
X04851D03*
Y088D03*
X04901D03*
X04951D03*
X05001D03*
X05051D03*
X05101D03*
X05151D03*
X05201D03*
G54D37*
X03586Y08912D03*
X04776Y08892D03*
X05276Y08732D03*
X03586Y08996D03*
X04486Y08912D03*
Y08832D03*
X04056Y08272D03*
X03976D03*
X04506Y08282D03*
G54D38*
X03847Y08272D03*
X03906D03*
X04176D03*
X04117D03*
G54D17*
X07584Y08817D03*
Y08986D03*
G54D18*
X09434Y08428D03*
Y08475D03*
G54D19*
X09354Y08109D03*
Y08162D03*
G54D20*
X10058Y08742D03*
X09889D03*
X06469D03*
X06638D03*
G54D21*
X07867Y07702D03*
X0792D03*
G54D22*
X07867Y07632D03*
X0792D03*
G54D23*
X09596Y09007D03*
X09634D03*
X09671D03*
Y08916D03*
X09634D03*
X09596D03*
G54D24*
X08783Y08152D03*
X08724D03*
G54D25*
X09685Y0914D03*
X09659D03*
X09634D03*
X09608D03*
X09582D03*
G54D26*
X09671Y09261D03*
X09596D03*
G54D27*
X06586Y09175D03*
Y09305D03*
X06393Y09175D03*
Y09305D03*
Y07577D03*
Y07448D03*
X06586Y07577D03*
Y07448D03*
X09927Y07577D03*
Y07448D03*
X1012Y07577D03*
Y07448D03*
X09927Y09305D03*
Y09175D03*
X1012Y09305D03*
Y09175D03*
G54D28*
X07959Y09046D03*
Y08996D03*
Y08946D03*
Y08896D03*
Y08846D03*
Y08796D03*
Y08746D03*
Y08696D03*
Y08646D03*
Y08596D03*
Y08546D03*
Y08496D03*
Y08446D03*
Y08396D03*
X08628D03*
Y08446D03*
Y08496D03*
Y08546D03*
Y08596D03*
Y08646D03*
Y08696D03*
Y08746D03*
Y08796D03*
Y08846D03*
Y08896D03*
Y08946D03*
Y08996D03*
Y09046D03*
G54D29*
X08069Y08358D03*
X08119D03*
X08169D03*
X08219D03*
X08269D03*
X08319D03*
X08369D03*
X08419D03*
X08469D03*
X08519D03*
G54D30*
X08182Y08823D03*
X08254D03*
X08326D03*
X08182Y08751D03*
X08254D03*
X08326D03*
X08182Y08679D03*
X08254D03*
X08326D03*
G54D31*
X09447Y08292D03*
X0936Y08255D03*
Y0833D03*
X09Y08292D03*
X09087Y0833D03*
Y08255D03*
G54D32*
X09249Y08332D03*
X09198D03*
X09249Y08252D03*
X09198D03*
X08928Y09132D03*
X08979D03*
X07659Y09142D03*
X07608D03*
X08649Y08152D03*
X08598D03*
X08808Y09132D03*
X08859D03*
X07779Y09142D03*
X07728D03*
G54D33*
X06494Y08979D03*
G54D34*
X06494Y09049D03*
G54D35*
X09019Y09252D03*
X08764D03*
X07566D03*
X07821D03*
G54D36*
X09439Y08583D03*
X09389D03*
X09339D03*
X09289D03*
X09239D03*
X09189D03*
X09139D03*
X09089D03*
Y088D03*
X09139D03*
X09189D03*
X09239D03*
X09289D03*
X09339D03*
X09389D03*
X09439D03*
G54D37*
X07824Y08912D03*
X09014Y08892D03*
X09514Y08732D03*
X07824Y08996D03*
X08724Y08912D03*
Y08832D03*
X08294Y08272D03*
X08214D03*
X08744Y08282D03*
G54D38*
X08084Y08272D03*
X08144D03*
X08413D03*
X08354D03*
G54D17*
X03346Y11079D03*
Y11248D03*
G54D18*
X05196Y1069D03*
Y10737D03*
G54D19*
X05116Y1037D03*
Y10424D03*
G54D20*
X05821Y11004D03*
X05652D03*
X02232D03*
X02401D03*
G54D21*
X0363Y09964D03*
X03683D03*
G54D22*
X0363Y09894D03*
X03683D03*
G54D23*
X05359Y11269D03*
X05396D03*
X05434D03*
Y11178D03*
X05396D03*
X05359D03*
G54D24*
X04546Y10414D03*
X04487D03*
G54D25*
X05448Y11402D03*
X05422D03*
X05396D03*
X05371D03*
X05345D03*
G54D26*
X05434Y11523D03*
X05359D03*
G54D27*
X02349Y11437D03*
Y11567D03*
X02156Y11437D03*
Y11567D03*
Y09838D03*
Y09709D03*
X02349Y09838D03*
Y09709D03*
X0569Y09838D03*
Y09709D03*
X05883Y09838D03*
Y09709D03*
X0569Y11567D03*
Y11437D03*
X05883Y11567D03*
Y11437D03*
G54D28*
X03722Y11308D03*
Y11258D03*
Y11208D03*
Y11158D03*
Y11108D03*
Y11058D03*
Y11008D03*
Y10958D03*
Y10908D03*
Y10858D03*
Y10808D03*
Y10758D03*
Y10708D03*
Y10658D03*
X04391D03*
Y10708D03*
Y10758D03*
Y10808D03*
Y10858D03*
Y10908D03*
Y10958D03*
Y11008D03*
Y11058D03*
Y11108D03*
Y11158D03*
Y11208D03*
Y11258D03*
Y11308D03*
G54D29*
X03831Y10619D03*
X03881D03*
X03931D03*
X03981D03*
X04031D03*
X04081D03*
X04131D03*
X04181D03*
X04231D03*
X04281D03*
G54D30*
X03945Y11085D03*
X04017D03*
X04089D03*
X03945Y11013D03*
X04017D03*
X04089D03*
X03945Y10941D03*
X04017D03*
X04089D03*
G54D31*
X0521Y10554D03*
X05123Y10516D03*
Y10591D03*
X04763Y10554D03*
X0485Y10591D03*
Y10516D03*
G54D32*
X05012Y10594D03*
X04961D03*
X05012Y10514D03*
X04961D03*
X04691Y11394D03*
X04742D03*
X03422Y11404D03*
X03371D03*
X04412Y10414D03*
X04361D03*
X04571Y11394D03*
X04622D03*
X03542Y11404D03*
X03491D03*
G54D33*
X02256Y11241D03*
G54D34*
X02256Y11311D03*
G54D35*
X04782Y11514D03*
X04526D03*
X03329D03*
X03584D03*
G54D36*
X05201Y10845D03*
X05151D03*
X05101D03*
X05051D03*
X05001D03*
X04951D03*
X04901D03*
X04851D03*
Y11062D03*
X04901D03*
X04951D03*
X05001D03*
X05051D03*
X05101D03*
X05151D03*
X05201D03*
G54D37*
X03586Y11174D03*
X04776Y11154D03*
X05276Y10994D03*
X03586Y11258D03*
X04486Y11174D03*
Y11094D03*
X04056Y10534D03*
X03976D03*
X04506Y10544D03*
G54D38*
X03847Y10534D03*
X03906D03*
X04176D03*
X04117D03*
G54D17*
X07584Y11079D03*
Y11248D03*
G54D18*
X09434Y1069D03*
Y10737D03*
G54D19*
X09354Y1037D03*
Y10424D03*
G54D20*
X10058Y11004D03*
X09889D03*
X06469D03*
X06638D03*
G54D21*
X07867Y09964D03*
X0792D03*
G54D22*
X07867Y09894D03*
X0792D03*
G54D23*
X09596Y11269D03*
X09634D03*
X09671D03*
Y11178D03*
X09634D03*
X09596D03*
G54D24*
X08783Y10414D03*
X08724D03*
G54D25*
X09685Y11402D03*
X09659D03*
X09634D03*
X09608D03*
X09582D03*
G54D26*
X09671Y11523D03*
X09596D03*
G54D27*
X06586Y11437D03*
Y11567D03*
X06393Y11437D03*
Y11567D03*
Y09838D03*
Y09709D03*
X06586Y09838D03*
Y09709D03*
X09927Y09838D03*
Y09709D03*
X1012Y09838D03*
Y09709D03*
X09927Y11567D03*
Y11437D03*
X1012Y11567D03*
Y11437D03*
G54D28*
X07959Y11308D03*
Y11258D03*
Y11208D03*
Y11158D03*
Y11108D03*
Y11058D03*
Y11008D03*
Y10958D03*
Y10908D03*
Y10858D03*
Y10808D03*
Y10758D03*
Y10708D03*
Y10658D03*
X08628D03*
Y10708D03*
Y10758D03*
Y10808D03*
Y10858D03*
Y10908D03*
Y10958D03*
Y11008D03*
Y11058D03*
Y11108D03*
Y11158D03*
Y11208D03*
Y11258D03*
Y11308D03*
G54D29*
X08069Y10619D03*
X08119D03*
X08169D03*
X08219D03*
X08269D03*
X08319D03*
X08369D03*
X08419D03*
X08469D03*
X08519D03*
G54D30*
X08182Y11085D03*
X08254D03*
X08326D03*
X08182Y11013D03*
X08254D03*
X08326D03*
X08182Y10941D03*
X08254D03*
X08326D03*
G54D31*
X09447Y10554D03*
X0936Y10516D03*
Y10591D03*
X09Y10554D03*
X09087Y10591D03*
Y10516D03*
G54D32*
X09249Y10594D03*
X09198D03*
X09249Y10514D03*
X09198D03*
X08928Y11394D03*
X08979D03*
X07659Y11404D03*
X07608D03*
X08649Y10414D03*
X08598D03*
X08808Y11394D03*
X08859D03*
X07779Y11404D03*
X07728D03*
G54D33*
X06494Y11241D03*
G54D34*
X06494Y11311D03*
G54D35*
X09019Y11514D03*
X08764D03*
X07566D03*
X07821D03*
G54D36*
X09439Y10845D03*
X09389D03*
X09339D03*
X09289D03*
X09239D03*
X09189D03*
X09139D03*
X09089D03*
Y11062D03*
X09139D03*
X09189D03*
X09239D03*
X09289D03*
X09339D03*
X09389D03*
X09439D03*
G54D37*
X07824Y11174D03*
X09014Y11154D03*
X09514Y10994D03*
X07824Y11258D03*
X08724Y11174D03*
Y11094D03*
X08294Y10534D03*
X08214D03*
X08744Y10544D03*
G54D38*
X08084Y10534D03*
X08144D03*
X08413D03*
X08354D03*
G54D17*
X03346Y13341D03*
Y1351D03*
G54D18*
X05196Y12952D03*
Y12999D03*
G54D19*
X05116Y12632D03*
Y12686D03*
G54D20*
X05821Y13266D03*
X05652D03*
X02232D03*
X02401D03*
G54D21*
X0363Y12226D03*
X03683D03*
G54D22*
X0363Y12156D03*
X03683D03*
G54D23*
X05359Y13531D03*
X05396D03*
X05434D03*
Y1344D03*
X05396D03*
X05359D03*
G54D24*
X04546Y12676D03*
X04487D03*
G54D25*
X05448Y13664D03*
X05422D03*
X05396D03*
X05371D03*
X05345D03*
G54D26*
X05434Y13785D03*
X05359D03*
G54D27*
X02349Y13699D03*
Y13829D03*
X02156Y13699D03*
Y13829D03*
Y121D03*
Y11971D03*
X02349Y121D03*
Y11971D03*
X0569Y121D03*
Y11971D03*
X05883Y121D03*
Y11971D03*
X0569Y13829D03*
Y13699D03*
X05883Y13829D03*
Y13699D03*
G54D28*
X03722Y1357D03*
Y1352D03*
Y1347D03*
Y1342D03*
Y1337D03*
Y1332D03*
Y1327D03*
Y1322D03*
Y1317D03*
Y1312D03*
Y1307D03*
Y1302D03*
Y1297D03*
Y1292D03*
X04391D03*
Y1297D03*
Y1302D03*
Y1307D03*
Y1312D03*
Y1317D03*
Y1322D03*
Y1327D03*
Y1332D03*
Y1337D03*
Y1342D03*
Y1347D03*
Y1352D03*
Y1357D03*
G54D29*
X03831Y12881D03*
X03881D03*
X03931D03*
X03981D03*
X04031D03*
X04081D03*
X04131D03*
X04181D03*
X04231D03*
X04281D03*
G54D30*
X03945Y13347D03*
X04017D03*
X04089D03*
X03945Y13275D03*
X04017D03*
X04089D03*
X03945Y13203D03*
X04017D03*
X04089D03*
G54D31*
X0521Y12816D03*
X05123Y12778D03*
Y12853D03*
X04763Y12816D03*
X0485Y12853D03*
Y12778D03*
G54D32*
X05012Y12856D03*
X04961D03*
X05012Y12776D03*
X04961D03*
X04691Y13656D03*
X04742D03*
X03422Y13666D03*
X03371D03*
X04412Y12676D03*
X04361D03*
X04571Y13656D03*
X04622D03*
X03542Y13666D03*
X03491D03*
G54D33*
X02256Y13503D03*
G54D34*
X02256Y13573D03*
G54D35*
X04782Y13776D03*
X04526D03*
X03329D03*
X03584D03*
G54D36*
X05201Y13107D03*
X05151D03*
X05101D03*
X05051D03*
X05001D03*
X04951D03*
X04901D03*
X04851D03*
Y13324D03*
X04901D03*
X04951D03*
X05001D03*
X05051D03*
X05101D03*
X05151D03*
X05201D03*
G54D37*
X03586Y13436D03*
X04776Y13416D03*
X05276Y13256D03*
X03586Y1352D03*
X04486Y13436D03*
Y13356D03*
X04056Y12796D03*
X03976D03*
X04506Y12806D03*
G54D38*
X03847Y12796D03*
X03906D03*
X04176D03*
X04117D03*
G54D17*
X07584Y13341D03*
Y1351D03*
G54D18*
X09434Y12952D03*
Y12999D03*
G54D19*
X09354Y12632D03*
Y12686D03*
G54D20*
X10058Y13266D03*
X09889D03*
X06469D03*
X06638D03*
G54D21*
X07867Y12226D03*
X0792D03*
G54D22*
X07867Y12156D03*
X0792D03*
G54D23*
X09596Y13531D03*
X09634D03*
X09671D03*
Y1344D03*
X09634D03*
X09596D03*
G54D24*
X08783Y12676D03*
X08724D03*
G54D25*
X09685Y13664D03*
X09659D03*
X09634D03*
X09608D03*
X09582D03*
G54D26*
X09671Y13785D03*
X09596D03*
G54D27*
X06586Y13699D03*
Y13829D03*
X06393Y13699D03*
Y13829D03*
Y121D03*
Y11971D03*
X06586Y121D03*
Y11971D03*
X09927Y121D03*
Y11971D03*
X1012Y121D03*
Y11971D03*
X09927Y13829D03*
Y13699D03*
X1012Y13829D03*
Y13699D03*
G54D28*
X07959Y1357D03*
Y1352D03*
Y1347D03*
Y1342D03*
Y1337D03*
Y1332D03*
Y1327D03*
Y1322D03*
Y1317D03*
Y1312D03*
Y1307D03*
Y1302D03*
Y1297D03*
Y1292D03*
X08628D03*
Y1297D03*
Y1302D03*
Y1307D03*
Y1312D03*
Y1317D03*
Y1322D03*
Y1327D03*
Y1332D03*
Y1337D03*
Y1342D03*
Y1347D03*
Y1352D03*
Y1357D03*
G54D29*
X08069Y12881D03*
X08119D03*
X08169D03*
X08219D03*
X08269D03*
X08319D03*
X08369D03*
X08419D03*
X08469D03*
X08519D03*
G54D30*
X08182Y13347D03*
X08254D03*
X08326D03*
X08182Y13275D03*
X08254D03*
X08326D03*
X08182Y13203D03*
X08254D03*
X08326D03*
G54D31*
X09447Y12816D03*
X0936Y12778D03*
Y12853D03*
X09Y12816D03*
X09087Y12853D03*
Y12778D03*
G54D32*
X09249Y12856D03*
X09198D03*
X09249Y12776D03*
X09198D03*
X08928Y13656D03*
X08979D03*
X07659Y13666D03*
X07608D03*
X08649Y12676D03*
X08598D03*
X08808Y13656D03*
X08859D03*
X07779Y13666D03*
X07728D03*
G54D33*
X06494Y13503D03*
G54D34*
X06494Y13573D03*
G54D35*
X09019Y13776D03*
X08764D03*
X07566D03*
X07821D03*
G54D36*
X09439Y13107D03*
X09389D03*
X09339D03*
X09289D03*
X09239D03*
X09189D03*
X09139D03*
X09089D03*
Y13324D03*
X09139D03*
X09189D03*
X09239D03*
X09289D03*
X09339D03*
X09389D03*
X09439D03*
G54D37*
X07824Y13436D03*
X09014Y13416D03*
X09514Y13256D03*
X07824Y1352D03*
X08724Y13436D03*
Y13356D03*
X08294Y12796D03*
X08214D03*
X08744Y12806D03*
G54D38*
X08084Y12796D03*
X08144D03*
X08413D03*
X08354D03*
M02*