%FSTAX23Y23*%
%MOIN*%
%SFA1B1*%

%IPPOS*%
%ADD11C,0.007870*%
%ADD15C,0.005000*%
%LNcontrolboardv1-1*%
%LPD*%
G54D11*
X03873Y0312D02*
X0396D01*
G54D15*
X0Y0D02*
X12286D01*
Y16786*
X0*
Y0*
G54D11*
X03873Y03077D02*
Y0312D01*
Y03077D02*
X0396D01*
Y0312*
X04733Y0309D02*
X0482D01*
X04733Y03047D02*
Y0309D01*
Y03047D02*
X0482D01*
Y0309*
X0811Y0312D02*
X08197D01*
X0811Y03077D02*
Y0312D01*
Y03077D02*
X08197D01*
Y0312*
X0897Y0309D02*
X09057D01*
X0897Y03047D02*
Y0309D01*
Y03047D02*
X09057D01*
Y0309*
X03873Y05382D02*
X0396D01*
X03873Y05339D02*
Y05382D01*
Y05339D02*
X0396D01*
Y05382*
X04733Y05352D02*
X0482D01*
X04733Y05309D02*
Y05352D01*
Y05309D02*
X0482D01*
Y05352*
X0811Y05382D02*
X08197D01*
X0811Y05339D02*
Y05382D01*
Y05339D02*
X08197D01*
Y05382*
X0897Y05352D02*
X09057D01*
X0897Y05309D02*
Y05352D01*
Y05309D02*
X09057D01*
Y05352*
X03873Y07644D02*
X0396D01*
X03873Y07601D02*
Y07644D01*
Y07601D02*
X0396D01*
Y07644*
X04733Y07614D02*
X0482D01*
X04733Y07571D02*
Y07614D01*
Y07571D02*
X0482D01*
Y07614*
X0811Y07644D02*
X08197D01*
X0811Y07601D02*
Y07644D01*
Y07601D02*
X08197D01*
Y07644*
X0897Y07614D02*
X09057D01*
X0897Y07571D02*
Y07614D01*
Y07571D02*
X09057D01*
Y07614*
X03873Y09905D02*
X0396D01*
X03873Y09862D02*
Y09905D01*
Y09862D02*
X0396D01*
Y09905*
X04733Y09875D02*
X0482D01*
X04733Y09832D02*
Y09875D01*
Y09832D02*
X0482D01*
Y09875*
X0811Y09905D02*
X08197D01*
X0811Y09862D02*
Y09905D01*
Y09862D02*
X08197D01*
Y09905*
X0897Y09875D02*
X09057D01*
X0897Y09832D02*
Y09875D01*
Y09832D02*
X09057D01*
Y09875*
X03873Y12167D02*
X0396D01*
X03873Y12124D02*
Y12167D01*
Y12124D02*
X0396D01*
Y12167*
X04733Y12137D02*
X0482D01*
X04733Y12094D02*
Y12137D01*
Y12094D02*
X0482D01*
Y12137*
X0811Y12167D02*
X08197D01*
X0811Y12124D02*
Y12167D01*
Y12124D02*
X08197D01*
Y12167*
X0897Y12137D02*
X09057D01*
X0897Y12094D02*
Y12137D01*
Y12094D02*
X09057D01*
Y12137*
M02*