G04*
G04 #@! TF.GenerationSoftware,Altium Limited,Altium Designer,22.0.2 (36)*
G04*
G04 Layer_Color=32896*
%FSLAX25Y25*%
%MOIN*%
G70*
G04*
G04 #@! TF.SameCoordinates,A5FD766F-ED0D-4258-BB47-254A20FAC7F6*
G04*
G04*
G04 #@! TF.FilePolarity,Positive*
G04*
G01*
G75*
%ADD10C,0.00787*%
%ADD11C,0.00984*%
%ADD12C,0.01000*%
%ADD14C,0.00591*%
%ADD93C,0.00700*%
%ADD94R,0.70400X0.27000*%
G36*
X143607Y160329D02*
X144063D01*
Y160284D01*
X144474D01*
Y160238D01*
X145066D01*
Y160193D01*
X145294D01*
Y160147D01*
X145659D01*
Y160101D01*
X145887D01*
Y160056D01*
X146206D01*
Y160010D01*
X146433D01*
Y159965D01*
X146661D01*
Y159919D01*
X146981D01*
Y159873D01*
X147208D01*
Y159828D01*
X147482D01*
Y159782D01*
X147619D01*
Y159737D01*
X147755D01*
Y159691D01*
X148029D01*
Y159646D01*
X148166D01*
Y159600D01*
X148348D01*
Y159554D01*
X148530D01*
Y159509D01*
X148667D01*
Y159463D01*
X148849D01*
Y159418D01*
X148941D01*
Y159372D01*
X149123D01*
Y159327D01*
X149259D01*
Y159281D01*
X149442D01*
Y159235D01*
X149579D01*
Y159190D01*
X149715D01*
Y159144D01*
X149852D01*
Y159099D01*
X149989D01*
Y159053D01*
X150126D01*
Y159007D01*
X150217D01*
Y158962D01*
X150354D01*
Y158916D01*
X150490D01*
Y158871D01*
X150581D01*
Y158825D01*
X150764D01*
Y158780D01*
X150855D01*
Y158734D01*
X150946D01*
Y158688D01*
X151083D01*
Y158643D01*
X151174D01*
Y158597D01*
X151311D01*
Y158552D01*
X151402D01*
Y158506D01*
X151539D01*
Y158460D01*
X151630D01*
Y158415D01*
X151721D01*
Y158369D01*
X151858D01*
Y158324D01*
X151949D01*
Y158278D01*
X152086D01*
Y158232D01*
X152177D01*
Y158187D01*
X152268D01*
Y158141D01*
X152359D01*
Y158096D01*
X152450D01*
Y158050D01*
X152541D01*
Y158005D01*
X152633D01*
Y157959D01*
X152724D01*
Y157913D01*
X152815D01*
Y157868D01*
X152906D01*
Y157822D01*
X153043D01*
Y157777D01*
X153088D01*
Y157731D01*
X153225D01*
Y157686D01*
X153271D01*
Y157640D01*
X153362D01*
Y157594D01*
X153453D01*
Y157549D01*
X153544D01*
Y157503D01*
X153635D01*
Y157458D01*
X153726D01*
Y157412D01*
X153772D01*
Y157367D01*
X153863D01*
Y157321D01*
X153954D01*
Y157275D01*
X154046D01*
Y157230D01*
X154091D01*
Y157184D01*
X154228D01*
Y157139D01*
X154273D01*
Y157093D01*
X154365D01*
Y157047D01*
X154456D01*
Y157002D01*
X154501D01*
Y156956D01*
X154593D01*
Y156911D01*
X154684D01*
Y156865D01*
X154775D01*
Y156819D01*
X154821D01*
Y156774D01*
X154866D01*
Y156728D01*
X155003D01*
Y156683D01*
X155048D01*
Y156637D01*
X155140D01*
Y156592D01*
X155231D01*
Y156546D01*
X155276D01*
Y156500D01*
X155367D01*
Y156455D01*
X155413D01*
Y156409D01*
X155504D01*
Y156364D01*
X155550D01*
Y156318D01*
X155641D01*
Y156273D01*
X155686D01*
Y156227D01*
X155732D01*
Y156181D01*
X155869D01*
Y156136D01*
X155914D01*
Y156090D01*
X156006D01*
Y156045D01*
X156051D01*
Y155999D01*
X156097D01*
Y155954D01*
X156188D01*
Y155908D01*
X156279D01*
Y155862D01*
X156325D01*
Y155817D01*
X156370D01*
Y155771D01*
X156416D01*
Y155726D01*
X156507D01*
Y155680D01*
X156553D01*
Y155634D01*
X156644D01*
Y155589D01*
X156689D01*
Y155543D01*
X156735D01*
Y155498D01*
X156781D01*
Y155452D01*
X156872D01*
Y155406D01*
X156917D01*
Y155361D01*
X157008D01*
Y155315D01*
X157054D01*
Y155270D01*
X157099D01*
Y155224D01*
X157191D01*
Y155179D01*
X157236D01*
Y155133D01*
X157282D01*
Y155087D01*
X157327D01*
Y155042D01*
X157419D01*
Y154996D01*
X157464D01*
Y154951D01*
X157555D01*
Y154905D01*
X157601D01*
Y154859D01*
X157647D01*
Y154814D01*
X157692D01*
Y154768D01*
X157783D01*
Y154723D01*
X157829D01*
Y154677D01*
X157920D01*
Y154632D01*
X157966D01*
Y154586D01*
X158011D01*
Y154541D01*
X158057D01*
Y154495D01*
X158148D01*
Y154449D01*
X158194D01*
Y154404D01*
X158239D01*
Y154358D01*
X158285D01*
Y154313D01*
X158376D01*
Y154267D01*
X158421D01*
Y154221D01*
X158467D01*
Y154176D01*
X158513D01*
Y154130D01*
X158604D01*
Y154085D01*
X158649D01*
Y154039D01*
X158695D01*
Y153993D01*
X158740D01*
Y153948D01*
X158786D01*
Y153902D01*
X158832D01*
Y153857D01*
X158923D01*
Y153811D01*
X158968D01*
Y153766D01*
X159014D01*
Y153720D01*
X159105D01*
Y153674D01*
X159151D01*
Y153629D01*
X159196D01*
Y153583D01*
X159242D01*
Y153538D01*
X159287D01*
Y153492D01*
X159333D01*
Y153446D01*
X159379D01*
Y153401D01*
X159424D01*
Y153355D01*
X159470D01*
Y153310D01*
X159515D01*
Y153264D01*
X159561D01*
Y153219D01*
X159607D01*
Y153173D01*
X159652D01*
Y153127D01*
X159743D01*
Y153082D01*
X159789D01*
Y153036D01*
X159834D01*
Y152991D01*
X159880D01*
Y152945D01*
X159926D01*
Y152900D01*
X159971D01*
Y152854D01*
X160017D01*
Y152808D01*
X160062D01*
Y152763D01*
X160108D01*
Y152717D01*
X160199D01*
Y152672D01*
X160245D01*
Y152626D01*
X160290D01*
Y152580D01*
X160336D01*
Y152535D01*
X160381D01*
Y152489D01*
X160427D01*
Y152444D01*
X160473D01*
Y152398D01*
X160518D01*
Y152352D01*
X160564D01*
Y152307D01*
X160609D01*
Y152261D01*
X160655D01*
Y152216D01*
X160701D01*
Y152170D01*
X160746D01*
Y152125D01*
X160792D01*
Y152079D01*
X160837D01*
Y152033D01*
X160883D01*
Y151988D01*
X160928D01*
Y151942D01*
X160974D01*
Y151897D01*
X161020D01*
Y151806D01*
X161065D01*
Y151532D01*
X161020D01*
Y151441D01*
X160974D01*
Y151395D01*
X160928D01*
Y151304D01*
X160837D01*
Y151213D01*
X160746D01*
Y151122D01*
X160701D01*
Y151076D01*
X160609D01*
Y150985D01*
X160518D01*
Y150894D01*
X160473D01*
Y150848D01*
X160381D01*
Y150757D01*
X160290D01*
Y150666D01*
X160199D01*
Y150575D01*
X160153D01*
Y150529D01*
X160062D01*
Y150438D01*
X159971D01*
Y150347D01*
X159880D01*
Y150301D01*
X159834D01*
Y150210D01*
X159743D01*
Y150119D01*
X159652D01*
Y150028D01*
X159561D01*
Y149982D01*
X159515D01*
Y149891D01*
X159424D01*
Y149800D01*
X159333D01*
Y149754D01*
X159287D01*
Y149663D01*
X159196D01*
Y149572D01*
X159105D01*
Y149527D01*
X159060D01*
Y149481D01*
X159014D01*
Y149435D01*
X158968D01*
Y149344D01*
X158877D01*
Y149299D01*
X158832D01*
Y149253D01*
X158786D01*
Y149207D01*
X158740D01*
Y149162D01*
X158695D01*
Y149116D01*
X158649D01*
Y149025D01*
X158558D01*
Y148979D01*
X158513D01*
Y148934D01*
X158467D01*
Y148888D01*
X158421D01*
Y148843D01*
X158376D01*
Y148797D01*
X158330D01*
Y148752D01*
X158285D01*
Y148706D01*
X158239D01*
Y148661D01*
X158194D01*
Y148615D01*
X158148D01*
Y148569D01*
X158102D01*
Y148524D01*
X158057D01*
Y148478D01*
X158011D01*
Y148433D01*
X157966D01*
Y148387D01*
X157920D01*
Y148341D01*
X157874D01*
Y148296D01*
X157829D01*
Y148250D01*
X157783D01*
Y148205D01*
X157738D01*
Y148159D01*
X157692D01*
Y148114D01*
X157647D01*
Y148068D01*
X157601D01*
Y148022D01*
X157555D01*
Y147977D01*
X157510D01*
Y147931D01*
X157464D01*
Y147886D01*
X157419D01*
Y147840D01*
X157373D01*
Y147794D01*
X157327D01*
Y147749D01*
X157282D01*
Y147703D01*
X157236D01*
Y147658D01*
X157191D01*
Y147612D01*
X157145D01*
Y147566D01*
X157099D01*
Y147521D01*
X157054D01*
Y147475D01*
X157008D01*
Y147430D01*
X156963D01*
Y147384D01*
X156917D01*
Y147339D01*
X156872D01*
Y147293D01*
X156826D01*
Y147247D01*
X156781D01*
Y147202D01*
X156735D01*
Y147156D01*
X156689D01*
Y147111D01*
X156644D01*
Y147065D01*
X156598D01*
Y147020D01*
X156553D01*
Y146974D01*
X156507D01*
Y146928D01*
X156461D01*
Y146883D01*
X156416D01*
Y146837D01*
X156370D01*
Y146792D01*
X156325D01*
Y146746D01*
X156279D01*
Y146701D01*
X156234D01*
Y146655D01*
X156188D01*
Y146609D01*
X156142D01*
Y146564D01*
X156097D01*
Y146518D01*
X156051D01*
Y146473D01*
X156006D01*
Y146427D01*
X155960D01*
Y146381D01*
X155914D01*
Y146336D01*
X155869D01*
Y146290D01*
X155823D01*
Y146245D01*
X155778D01*
Y146199D01*
X155732D01*
Y146153D01*
X155686D01*
Y146108D01*
X155641D01*
Y146062D01*
X155595D01*
Y146017D01*
X155550D01*
Y145971D01*
X155504D01*
Y145926D01*
X155459D01*
Y145880D01*
X155413D01*
Y145834D01*
X155367D01*
Y145789D01*
X155322D01*
Y145743D01*
X155276D01*
Y145698D01*
X155231D01*
Y145652D01*
X155185D01*
Y145607D01*
X155140D01*
Y145561D01*
X155094D01*
Y145515D01*
X155048D01*
Y145470D01*
X155003D01*
Y145424D01*
X154957D01*
Y145379D01*
X154912D01*
Y145333D01*
X154866D01*
Y145287D01*
X154821D01*
Y145242D01*
X154775D01*
Y145196D01*
X154729D01*
Y145151D01*
X154684D01*
Y145105D01*
X154638D01*
Y145060D01*
X154593D01*
Y145014D01*
X154547D01*
Y144968D01*
X154501D01*
Y144923D01*
X154456D01*
Y144877D01*
X154410D01*
Y144832D01*
X154365D01*
Y144786D01*
X154319D01*
Y144740D01*
X154273D01*
Y144695D01*
X154228D01*
Y144649D01*
X154182D01*
Y144604D01*
X154137D01*
Y144558D01*
X154091D01*
Y144513D01*
X154046D01*
Y144467D01*
X154000D01*
Y144421D01*
X153954D01*
Y144376D01*
X153909D01*
Y144330D01*
X153863D01*
Y144285D01*
X153818D01*
Y144239D01*
X153772D01*
Y144193D01*
X153726D01*
Y144148D01*
X153681D01*
Y144102D01*
X153635D01*
Y144057D01*
X153590D01*
Y144011D01*
X153544D01*
Y143966D01*
X153499D01*
Y143920D01*
X153453D01*
Y143874D01*
X153407D01*
Y143829D01*
X153362D01*
Y143783D01*
X153316D01*
Y143738D01*
X153225D01*
Y143692D01*
X153134D01*
Y143647D01*
X152952D01*
Y143692D01*
X152860D01*
Y143738D01*
X152815D01*
Y143783D01*
X152724D01*
Y143829D01*
X152678D01*
Y143874D01*
X152633D01*
Y143920D01*
X152587D01*
Y143966D01*
X152541D01*
Y144011D01*
X152496D01*
Y144057D01*
X152450D01*
Y144102D01*
X152405D01*
Y144148D01*
X152359D01*
Y144193D01*
X152313D01*
Y144239D01*
X152268D01*
Y144285D01*
X152222D01*
Y144330D01*
X152177D01*
Y144376D01*
X152131D01*
Y144421D01*
X152086D01*
Y144467D01*
X152040D01*
Y144513D01*
X151994D01*
Y144558D01*
X151949D01*
Y144604D01*
X151903D01*
Y144649D01*
X151812D01*
Y144695D01*
X151767D01*
Y144740D01*
X151721D01*
Y144786D01*
X151675D01*
Y144832D01*
X151630D01*
Y144877D01*
X151584D01*
Y144923D01*
X151539D01*
Y144968D01*
X151493D01*
Y145014D01*
X151447D01*
Y145060D01*
X151356D01*
Y145105D01*
X151311D01*
Y145151D01*
X151265D01*
Y145196D01*
X151219D01*
Y145242D01*
X151174D01*
Y145287D01*
X151083D01*
Y145333D01*
X151037D01*
Y145379D01*
X150992D01*
Y145424D01*
X150946D01*
Y145470D01*
X150900D01*
Y145515D01*
X150809D01*
Y145561D01*
X150764D01*
Y145607D01*
X150673D01*
Y145652D01*
X150627D01*
Y145698D01*
X150581D01*
Y145743D01*
X150536D01*
Y145789D01*
X150490D01*
Y145834D01*
X150399D01*
Y145880D01*
X150354D01*
Y145926D01*
X150308D01*
Y145971D01*
X150217D01*
Y146017D01*
X150171D01*
Y146062D01*
X150126D01*
Y146108D01*
X150080D01*
Y146153D01*
X149989D01*
Y146199D01*
X149943D01*
Y146245D01*
X149898D01*
Y146290D01*
X149806D01*
Y146336D01*
X149715D01*
Y146381D01*
X149670D01*
Y146427D01*
X149579D01*
Y146473D01*
X149533D01*
Y146518D01*
X149442D01*
Y146564D01*
X149396D01*
Y146609D01*
X149305D01*
Y146655D01*
X149259D01*
Y146701D01*
X149168D01*
Y146746D01*
X149123D01*
Y146792D01*
X149032D01*
Y146837D01*
X148941D01*
Y146883D01*
X148895D01*
Y146928D01*
X148804D01*
Y146974D01*
X148713D01*
Y147020D01*
X148667D01*
Y147065D01*
X148576D01*
Y147111D01*
X148485D01*
Y147156D01*
X148393D01*
Y147202D01*
X148348D01*
Y147247D01*
X148257D01*
Y147293D01*
X148166D01*
Y147339D01*
X148074D01*
Y147384D01*
X147983D01*
Y147430D01*
X147892D01*
Y147475D01*
X147755D01*
Y147521D01*
X147664D01*
Y147566D01*
X147619D01*
Y147612D01*
X147482D01*
Y147658D01*
X147391D01*
Y147703D01*
X147254D01*
Y147749D01*
X147208D01*
Y147794D01*
X147072D01*
Y147840D01*
X146981D01*
Y147886D01*
X146889D01*
Y147931D01*
X146707D01*
Y147977D01*
X146616D01*
Y148022D01*
X146479D01*
Y148068D01*
X146342D01*
Y148114D01*
X146251D01*
Y148159D01*
X146069D01*
Y148205D01*
X145978D01*
Y148250D01*
X145841D01*
Y148296D01*
X145659D01*
Y148341D01*
X145476D01*
Y148387D01*
X145294D01*
Y148433D01*
X145157D01*
Y148478D01*
X144884D01*
Y148524D01*
X144793D01*
Y148569D01*
X144519D01*
Y148615D01*
X144246D01*
Y148661D01*
X144063D01*
Y148706D01*
X143607D01*
Y148752D01*
X143379D01*
Y148797D01*
X142559D01*
Y148843D01*
X141283D01*
Y148797D01*
X140462D01*
Y148752D01*
X140189D01*
Y148706D01*
X139870D01*
Y148661D01*
X139642D01*
Y148615D01*
X139505D01*
Y148569D01*
X139186D01*
Y148524D01*
X139004D01*
Y148478D01*
X138730D01*
Y148433D01*
X138639D01*
Y148387D01*
X138457D01*
Y148341D01*
X138274D01*
Y148296D01*
X138183D01*
Y148250D01*
X137955D01*
Y148205D01*
X137864D01*
Y148159D01*
X137682D01*
Y148114D01*
X137545D01*
Y148068D01*
X137408D01*
Y148022D01*
X137272D01*
Y147977D01*
X137180D01*
Y147931D01*
X137044D01*
Y147886D01*
X136953D01*
Y147840D01*
X136816D01*
Y147794D01*
X136725D01*
Y147749D01*
X136634D01*
Y147703D01*
X136497D01*
Y147658D01*
X136406D01*
Y147612D01*
X136269D01*
Y147566D01*
X136178D01*
Y147521D01*
X136041D01*
Y147475D01*
X135995D01*
Y147430D01*
X135904D01*
Y147384D01*
X135813D01*
Y147339D01*
X135722D01*
Y147293D01*
X135631D01*
Y147247D01*
X135539D01*
Y147202D01*
X135494D01*
Y147156D01*
X135357D01*
Y147111D01*
X135312D01*
Y147065D01*
X135221D01*
Y147020D01*
X135129D01*
Y146974D01*
X135084D01*
Y146928D01*
X134993D01*
Y146883D01*
X134901D01*
Y146837D01*
X134810D01*
Y146792D01*
X134765D01*
Y146746D01*
X134674D01*
Y146701D01*
X134582D01*
Y146655D01*
X134537D01*
Y146609D01*
X134491D01*
Y146564D01*
X134400D01*
Y146518D01*
X134309D01*
Y146473D01*
X134263D01*
Y146427D01*
X134218D01*
Y146381D01*
X134126D01*
Y146336D01*
X134081D01*
Y146290D01*
X133944D01*
Y146245D01*
X133899D01*
Y146199D01*
X133853D01*
Y146153D01*
X133762D01*
Y146108D01*
X133716D01*
Y146062D01*
X133671D01*
Y145971D01*
X133716D01*
Y145926D01*
X133762D01*
Y145880D01*
X133807D01*
Y145834D01*
X133853D01*
Y145789D01*
X133899D01*
Y145743D01*
X133944D01*
Y145698D01*
X133990D01*
Y145652D01*
X134035D01*
Y145607D01*
X134081D01*
Y145561D01*
X134126D01*
Y145515D01*
X134172D01*
Y145470D01*
X134218D01*
Y145424D01*
X134263D01*
Y145379D01*
X134309D01*
Y145333D01*
X134354D01*
Y145287D01*
X134400D01*
Y145242D01*
X134446D01*
Y145196D01*
X134491D01*
Y145151D01*
X134537D01*
Y145105D01*
X134582D01*
Y145060D01*
X134628D01*
Y145014D01*
X134674D01*
Y144968D01*
X134719D01*
Y144923D01*
X134765D01*
Y144877D01*
X134810D01*
Y144832D01*
X134856D01*
Y144786D01*
X134901D01*
Y144740D01*
X134947D01*
Y144695D01*
X134993D01*
Y144649D01*
X135038D01*
Y144604D01*
X135084D01*
Y144558D01*
X135129D01*
Y144513D01*
X135175D01*
Y144467D01*
X135221D01*
Y144421D01*
X135266D01*
Y144376D01*
X135312D01*
Y144330D01*
X135357D01*
Y144285D01*
X135403D01*
Y144239D01*
X135448D01*
Y144193D01*
X135494D01*
Y144148D01*
X135539D01*
Y144102D01*
X135585D01*
Y144057D01*
X135631D01*
Y144011D01*
X135676D01*
Y143966D01*
X135722D01*
Y143920D01*
X135767D01*
Y143874D01*
X135813D01*
Y143829D01*
X135859D01*
Y143783D01*
X135904D01*
Y143738D01*
X135950D01*
Y143692D01*
X135995D01*
Y143647D01*
X136041D01*
Y143601D01*
X136086D01*
Y143555D01*
X136132D01*
Y143510D01*
X136178D01*
Y143464D01*
X136223D01*
Y143419D01*
X136269D01*
Y143373D01*
X136314D01*
Y143327D01*
X136360D01*
Y143282D01*
X136406D01*
Y143236D01*
X136451D01*
Y143191D01*
X136497D01*
Y143145D01*
X136725D01*
Y143191D01*
X136816D01*
Y143236D01*
X136861D01*
Y143282D01*
X136953D01*
Y143327D01*
X136998D01*
Y143373D01*
X137089D01*
Y143419D01*
X137180D01*
Y143464D01*
X137226D01*
Y143510D01*
X137317D01*
Y143555D01*
X137408D01*
Y143601D01*
X137545D01*
Y143647D01*
X137636D01*
Y143692D01*
X137727D01*
Y143738D01*
X137819D01*
Y143783D01*
X137910D01*
Y143829D01*
X138001D01*
Y143874D01*
X138092D01*
Y143920D01*
X138229D01*
Y143966D01*
X138366D01*
Y144011D01*
X138457D01*
Y144057D01*
X138593D01*
Y144102D01*
X138730D01*
Y144148D01*
X138821D01*
Y144193D01*
X139004D01*
Y144239D01*
X139140D01*
Y144285D01*
X139323D01*
Y144330D01*
X139460D01*
Y144376D01*
X139687D01*
Y144421D01*
X139870D01*
Y144467D01*
X140052D01*
Y144513D01*
X140326D01*
Y144558D01*
X140508D01*
Y144604D01*
X140964D01*
Y144649D01*
X141237D01*
Y144695D01*
X142286D01*
Y144649D01*
X143015D01*
Y144604D01*
X143471D01*
Y144558D01*
X143744D01*
Y144513D01*
X143972D01*
Y144467D01*
X144154D01*
Y144421D01*
X144291D01*
Y144376D01*
X144519D01*
Y144330D01*
X144656D01*
Y144285D01*
X144793D01*
Y144239D01*
X144929D01*
Y144193D01*
X145066D01*
Y144148D01*
X145248D01*
Y144102D01*
X145340D01*
Y144057D01*
X145476D01*
Y144011D01*
X145613D01*
Y143966D01*
X145704D01*
Y143920D01*
X145795D01*
Y143874D01*
X145887D01*
Y143829D01*
X146023D01*
Y143783D01*
X146114D01*
Y143738D01*
X146251D01*
Y143692D01*
X146297D01*
Y143647D01*
X146388D01*
Y143601D01*
X146479D01*
Y143555D01*
X146570D01*
Y143510D01*
X146661D01*
Y143464D01*
X146753D01*
Y143419D01*
X146844D01*
Y143373D01*
X146935D01*
Y143327D01*
X146981D01*
Y143282D01*
X147072D01*
Y143236D01*
X147163D01*
Y143191D01*
X147208D01*
Y143145D01*
X147254D01*
Y143099D01*
X147345D01*
Y143054D01*
X147436D01*
Y143008D01*
X147527D01*
Y142963D01*
X147573D01*
Y142917D01*
X147619D01*
Y142872D01*
X147664D01*
Y142826D01*
X147755D01*
Y142780D01*
X147801D01*
Y142735D01*
X147892D01*
Y142689D01*
X147938D01*
Y142644D01*
X147983D01*
Y142598D01*
X148029D01*
Y142552D01*
X148120D01*
Y142507D01*
X148166D01*
Y142461D01*
X148211D01*
Y142416D01*
X148257D01*
Y142370D01*
X148348D01*
Y142325D01*
X148393D01*
Y142279D01*
X148439D01*
Y142234D01*
X148485D01*
Y142188D01*
X148530D01*
Y142142D01*
X148576D01*
Y142097D01*
X148621D01*
Y142051D01*
X148667D01*
Y142006D01*
X148713D01*
Y141960D01*
X148758D01*
Y141914D01*
X148804D01*
Y141869D01*
X148895D01*
Y141778D01*
X148941D01*
Y141732D01*
X148986D01*
Y141686D01*
X149032D01*
Y141595D01*
X149077D01*
Y141504D01*
X149123D01*
Y141459D01*
X149168D01*
Y141322D01*
X149214D01*
Y141231D01*
X149259D01*
Y141094D01*
X149305D01*
Y140912D01*
X149351D01*
Y140593D01*
X149396D01*
Y140501D01*
X149351D01*
Y140091D01*
X149305D01*
Y139954D01*
X149259D01*
Y139818D01*
X149214D01*
Y139726D01*
X149168D01*
Y139635D01*
X149214D01*
Y139590D01*
X149259D01*
Y139544D01*
X149305D01*
Y139499D01*
X149351D01*
Y139453D01*
X149442D01*
Y139407D01*
X149487D01*
Y139362D01*
X149533D01*
Y139316D01*
X149579D01*
Y139271D01*
X149624D01*
Y139225D01*
X149715D01*
Y139180D01*
X149761D01*
Y139134D01*
X149806D01*
Y139088D01*
X149852D01*
Y139043D01*
X149943D01*
Y138997D01*
X149989D01*
Y138952D01*
X150034D01*
Y138906D01*
X150080D01*
Y138860D01*
X150217D01*
Y138815D01*
X150490D01*
Y138769D01*
X150718D01*
Y138724D01*
X150946D01*
Y138678D01*
X151219D01*
Y138633D01*
X151402D01*
Y138587D01*
X151447D01*
Y138541D01*
X151493D01*
Y138496D01*
X151539D01*
Y138359D01*
X151493D01*
Y138313D01*
X151447D01*
Y138222D01*
X151402D01*
Y138177D01*
X151083D01*
Y138222D01*
X150855D01*
Y138268D01*
X150627D01*
Y138313D01*
X150490D01*
Y138268D01*
X150445D01*
Y138086D01*
X150490D01*
Y137994D01*
X150536D01*
Y137858D01*
X150581D01*
Y137721D01*
X150627D01*
Y137630D01*
X150673D01*
Y137447D01*
X150718D01*
Y137356D01*
X150673D01*
Y137265D01*
X150627D01*
Y137220D01*
X150354D01*
Y137265D01*
X150308D01*
Y137311D01*
X150262D01*
Y137402D01*
X150217D01*
Y137493D01*
X150171D01*
Y137630D01*
X150126D01*
Y137767D01*
X150080D01*
Y137858D01*
X150034D01*
Y137994D01*
X149989D01*
Y138131D01*
X149943D01*
Y138268D01*
X149898D01*
Y138359D01*
X149852D01*
Y138496D01*
X149806D01*
Y138541D01*
X149761D01*
Y138587D01*
X149715D01*
Y138633D01*
X149624D01*
Y138678D01*
X149579D01*
Y138724D01*
X149533D01*
Y138769D01*
X149442D01*
Y138815D01*
X149396D01*
Y138860D01*
X149351D01*
Y138906D01*
X149305D01*
Y138952D01*
X149214D01*
Y138997D01*
X149168D01*
Y139043D01*
X149123D01*
Y139088D01*
X149077D01*
Y139134D01*
X149032D01*
Y139180D01*
X148941D01*
Y139225D01*
X148895D01*
Y139271D01*
X148758D01*
Y139225D01*
X148713D01*
Y139180D01*
X148667D01*
Y139134D01*
X148621D01*
Y139088D01*
X148576D01*
Y139043D01*
X148485D01*
Y138997D01*
X148439D01*
Y138952D01*
X148302D01*
Y138906D01*
X148257D01*
Y138860D01*
X148074D01*
Y138815D01*
X147938D01*
Y138769D01*
X147801D01*
Y138724D01*
X147117D01*
Y138769D01*
X146981D01*
Y138815D01*
X146844D01*
Y138860D01*
X146707D01*
Y138906D01*
X146661D01*
Y138952D01*
X146525D01*
Y138997D01*
X146479D01*
Y139043D01*
X146433D01*
Y139088D01*
X146388D01*
Y139134D01*
X146342D01*
Y139180D01*
X146297D01*
Y139225D01*
X146251D01*
Y139271D01*
X146160D01*
Y139316D01*
X146114D01*
Y139362D01*
X146069D01*
Y139407D01*
X145978D01*
Y139453D01*
X145932D01*
Y139499D01*
X145887D01*
Y139544D01*
X145841D01*
Y139590D01*
X145750D01*
Y139635D01*
X145704D01*
Y139681D01*
X145659D01*
Y139726D01*
X145613D01*
Y139772D01*
X145567D01*
Y139818D01*
X145476D01*
Y139863D01*
X145385D01*
Y139909D01*
X145340D01*
Y139954D01*
X145248D01*
Y140000D01*
X145203D01*
Y140046D01*
X145112D01*
Y140091D01*
X145066D01*
Y140137D01*
X144975D01*
Y140182D01*
X144929D01*
Y140228D01*
X144838D01*
Y140273D01*
X144747D01*
Y140319D01*
X144656D01*
Y140365D01*
X144519D01*
Y140410D01*
X144428D01*
Y140456D01*
X144337D01*
Y140501D01*
X144246D01*
Y140547D01*
X144154D01*
Y140593D01*
X144018D01*
Y140638D01*
X143881D01*
Y140684D01*
X143699D01*
Y140729D01*
X143516D01*
Y140775D01*
X143425D01*
Y140821D01*
X143152D01*
Y140866D01*
X142969D01*
Y140912D01*
X142605D01*
Y140957D01*
X141921D01*
Y141003D01*
X141602D01*
Y140957D01*
X141283D01*
Y140912D01*
X140781D01*
Y140866D01*
X140645D01*
Y140821D01*
X140417D01*
Y140775D01*
X140280D01*
Y140729D01*
X140098D01*
Y140684D01*
X139961D01*
Y140638D01*
X139870D01*
Y140593D01*
X139733D01*
Y140547D01*
X139642D01*
Y140501D01*
X139505D01*
Y140456D01*
X139414D01*
Y140410D01*
X139323D01*
Y140365D01*
X139186D01*
Y140319D01*
X139140D01*
Y140273D01*
X139004D01*
Y140228D01*
X138958D01*
Y140182D01*
X138867D01*
Y140137D01*
X138821D01*
Y140091D01*
X138776D01*
Y140046D01*
X138685D01*
Y140000D01*
X138639D01*
Y139954D01*
X138548D01*
Y139909D01*
X138502D01*
Y139863D01*
X138457D01*
Y139818D01*
X138366D01*
Y139772D01*
X138320D01*
Y139726D01*
X138229D01*
Y139681D01*
X138183D01*
Y139635D01*
X138138D01*
Y139590D01*
X138092D01*
Y139544D01*
X138047D01*
Y139499D01*
X138001D01*
Y139453D01*
X137955D01*
Y139407D01*
X137910D01*
Y139362D01*
X137864D01*
Y139316D01*
X137819D01*
Y139271D01*
X137773D01*
Y139225D01*
X137727D01*
Y139180D01*
X137682D01*
Y139134D01*
X137636D01*
Y139088D01*
X137591D01*
Y139043D01*
X137499D01*
Y138997D01*
X137454D01*
Y138952D01*
X137408D01*
Y138906D01*
X137363D01*
Y138860D01*
X137317D01*
Y138815D01*
X137272D01*
Y138769D01*
X137226D01*
Y138724D01*
X137180D01*
Y138678D01*
X137135D01*
Y138633D01*
X137089D01*
Y138587D01*
X137044D01*
Y138541D01*
X136998D01*
Y138496D01*
X136953D01*
Y138450D01*
X136907D01*
Y138405D01*
X136861D01*
Y138359D01*
X136816D01*
Y138313D01*
X136770D01*
Y138268D01*
X136725D01*
Y138222D01*
X136679D01*
Y138177D01*
X136588D01*
Y138131D01*
X136451D01*
Y138086D01*
X136406D01*
Y138131D01*
X136269D01*
Y138177D01*
X136178D01*
Y138222D01*
X136132D01*
Y138268D01*
X136086D01*
Y138313D01*
X136041D01*
Y138359D01*
X135995D01*
Y138405D01*
X135950D01*
Y138450D01*
X135904D01*
Y138496D01*
X135859D01*
Y138541D01*
X135813D01*
Y138587D01*
X135767D01*
Y138633D01*
X135722D01*
Y138678D01*
X135676D01*
Y138724D01*
X135631D01*
Y138769D01*
X135585D01*
Y138815D01*
X135539D01*
Y138860D01*
X135494D01*
Y138906D01*
X135448D01*
Y138952D01*
X135403D01*
Y138997D01*
X135357D01*
Y139043D01*
X135312D01*
Y139088D01*
X135266D01*
Y139134D01*
X135221D01*
Y139180D01*
X135175D01*
Y139225D01*
X135129D01*
Y139271D01*
X135084D01*
Y139316D01*
X135038D01*
Y139362D01*
X134993D01*
Y139407D01*
X134947D01*
Y139453D01*
X134901D01*
Y139499D01*
X134856D01*
Y139544D01*
X134810D01*
Y139590D01*
X134765D01*
Y139635D01*
X134719D01*
Y139681D01*
X134674D01*
Y139726D01*
X134628D01*
Y139772D01*
X134582D01*
Y139818D01*
X134537D01*
Y139863D01*
X134491D01*
Y139909D01*
X134446D01*
Y139954D01*
X134400D01*
Y140000D01*
X134354D01*
Y140046D01*
X134309D01*
Y140091D01*
X134263D01*
Y140137D01*
X134218D01*
Y140182D01*
X134172D01*
Y140228D01*
X134126D01*
Y140273D01*
X134081D01*
Y140319D01*
X134035D01*
Y140365D01*
X133990D01*
Y140410D01*
X133944D01*
Y140456D01*
X133899D01*
Y140501D01*
X133853D01*
Y140547D01*
X133807D01*
Y140593D01*
X133762D01*
Y140638D01*
X133716D01*
Y140684D01*
X133671D01*
Y140729D01*
X133625D01*
Y140775D01*
X133580D01*
Y140821D01*
X133534D01*
Y140866D01*
X133488D01*
Y140912D01*
X133443D01*
Y140957D01*
X133397D01*
Y141003D01*
X133352D01*
Y141048D01*
X133306D01*
Y141094D01*
X133261D01*
Y141139D01*
X133215D01*
Y141185D01*
X133169D01*
Y141231D01*
X133124D01*
Y141276D01*
X133078D01*
Y141322D01*
X133033D01*
Y141367D01*
X132987D01*
Y141413D01*
X132941D01*
Y141459D01*
X132896D01*
Y141504D01*
X132850D01*
Y141550D01*
X132805D01*
Y141595D01*
X132759D01*
Y141641D01*
X132713D01*
Y141686D01*
X132668D01*
Y141732D01*
X132622D01*
Y141778D01*
X132577D01*
Y141823D01*
X132531D01*
Y141869D01*
X132486D01*
Y141914D01*
X132440D01*
Y141960D01*
X132394D01*
Y142006D01*
X132349D01*
Y142051D01*
X132303D01*
Y142097D01*
X132258D01*
Y142142D01*
X132212D01*
Y142188D01*
X132167D01*
Y142234D01*
X132121D01*
Y142279D01*
X132075D01*
Y142325D01*
X132030D01*
Y142370D01*
X131984D01*
Y142416D01*
X131939D01*
Y142461D01*
X131893D01*
Y142507D01*
X131847D01*
Y142552D01*
X131802D01*
Y142598D01*
X131756D01*
Y142644D01*
X131711D01*
Y142689D01*
X131665D01*
Y142735D01*
X131620D01*
Y142780D01*
X131574D01*
Y142826D01*
X131528D01*
Y142872D01*
X131483D01*
Y142917D01*
X131437D01*
Y142963D01*
X131392D01*
Y143008D01*
X131346D01*
Y143054D01*
X131300D01*
Y143099D01*
X131255D01*
Y143145D01*
X131209D01*
Y143191D01*
X131164D01*
Y143236D01*
X131118D01*
Y143282D01*
X131073D01*
Y143327D01*
X131027D01*
Y143373D01*
X130981D01*
Y143419D01*
X130936D01*
Y143464D01*
X130890D01*
Y143510D01*
X130845D01*
Y143555D01*
X130799D01*
Y143601D01*
X130754D01*
Y143647D01*
X130708D01*
Y143692D01*
X130662D01*
Y143738D01*
X130617D01*
Y143783D01*
X130571D01*
Y143829D01*
X130526D01*
Y143874D01*
X130480D01*
Y143920D01*
X130434D01*
Y143966D01*
X130389D01*
Y144011D01*
X130343D01*
Y144057D01*
X130298D01*
Y144102D01*
X130252D01*
Y144148D01*
X130207D01*
Y144193D01*
X130161D01*
Y144239D01*
X130115D01*
Y144285D01*
X130070D01*
Y144330D01*
X130024D01*
Y144376D01*
X129979D01*
Y144421D01*
X129933D01*
Y144467D01*
X129887D01*
Y144513D01*
X129842D01*
Y144558D01*
X129796D01*
Y144604D01*
X129751D01*
Y144649D01*
X129705D01*
Y144695D01*
X129659D01*
Y144740D01*
X129614D01*
Y144786D01*
X129568D01*
Y144832D01*
X129523D01*
Y144877D01*
X129477D01*
Y144968D01*
X129386D01*
Y145014D01*
X129341D01*
Y145060D01*
X129295D01*
Y145105D01*
X129249D01*
Y145151D01*
X129204D01*
Y145196D01*
X129158D01*
Y145287D01*
X129067D01*
Y145333D01*
X129021D01*
Y145379D01*
X128976D01*
Y145424D01*
X128930D01*
Y145515D01*
X128839D01*
Y145561D01*
X128794D01*
Y145607D01*
X128748D01*
Y145652D01*
X128702D01*
Y145743D01*
X128611D01*
Y145834D01*
X128566D01*
Y145880D01*
X128520D01*
Y145926D01*
X128474D01*
Y146062D01*
X128429D01*
Y146199D01*
X128474D01*
Y146336D01*
X128520D01*
Y146381D01*
X128566D01*
Y146473D01*
X128611D01*
Y146518D01*
X128657D01*
Y146564D01*
X128702D01*
Y146609D01*
X128794D01*
Y146655D01*
X128839D01*
Y146701D01*
X128885D01*
Y146746D01*
X128930D01*
Y146792D01*
X128976D01*
Y146837D01*
X129021D01*
Y146883D01*
X129067D01*
Y146928D01*
X129113D01*
Y146974D01*
X129158D01*
Y147020D01*
X129204D01*
Y147065D01*
X129249D01*
Y147111D01*
X129295D01*
Y147156D01*
X129341D01*
Y147202D01*
X129386D01*
Y147247D01*
X129477D01*
Y147339D01*
X129568D01*
Y147430D01*
X129659D01*
Y147475D01*
X129705D01*
Y147521D01*
X129751D01*
Y147566D01*
X129796D01*
Y147612D01*
X129842D01*
Y147658D01*
X129887D01*
Y147703D01*
X129933D01*
Y147749D01*
X129979D01*
Y147794D01*
X130070D01*
Y147840D01*
X130115D01*
Y147886D01*
X130161D01*
Y147931D01*
X130207D01*
Y147977D01*
X130298D01*
Y148022D01*
X130343D01*
Y148068D01*
X130389D01*
Y148114D01*
X130434D01*
Y148159D01*
X130480D01*
Y148205D01*
X130526D01*
Y148250D01*
X130571D01*
Y148296D01*
X130662D01*
Y148341D01*
X130708D01*
Y148387D01*
X130754D01*
Y148433D01*
X130799D01*
Y148478D01*
X130845D01*
Y148524D01*
X130936D01*
Y148569D01*
X130981D01*
Y148615D01*
X131027D01*
Y148661D01*
X131118D01*
Y148706D01*
X131164D01*
Y148752D01*
X131209D01*
Y148797D01*
X131300D01*
Y148843D01*
X131346D01*
Y148888D01*
X131437D01*
Y148934D01*
X131483D01*
Y148979D01*
X131528D01*
Y149025D01*
X131574D01*
Y149071D01*
X131665D01*
Y149116D01*
X131711D01*
Y149162D01*
X131802D01*
Y149207D01*
X131847D01*
Y149253D01*
X131893D01*
Y149299D01*
X131984D01*
Y149344D01*
X132030D01*
Y149390D01*
X132075D01*
Y149435D01*
X132121D01*
Y149481D01*
X132212D01*
Y149527D01*
X132303D01*
Y149572D01*
X132349D01*
Y149618D01*
X132394D01*
Y149663D01*
X132486D01*
Y149709D01*
X132577D01*
Y149754D01*
X132668D01*
Y149800D01*
X132713D01*
Y149846D01*
X132805D01*
Y149891D01*
X132896D01*
Y149937D01*
X132941D01*
Y149982D01*
X133033D01*
Y150028D01*
X133078D01*
Y150074D01*
X133169D01*
Y150119D01*
X133261D01*
Y150165D01*
X133306D01*
Y150210D01*
X133397D01*
Y150256D01*
X133488D01*
Y150301D01*
X133534D01*
Y150347D01*
X133625D01*
Y150393D01*
X133716D01*
Y150438D01*
X133807D01*
Y150484D01*
X133899D01*
Y150529D01*
X133990D01*
Y150575D01*
X134035D01*
Y150620D01*
X134172D01*
Y150666D01*
X134218D01*
Y150712D01*
X134354D01*
Y150757D01*
X134400D01*
Y150803D01*
X134491D01*
Y150848D01*
X134582D01*
Y150894D01*
X134674D01*
Y150940D01*
X134765D01*
Y150985D01*
X134856D01*
Y151031D01*
X134901D01*
Y151076D01*
X135038D01*
Y151122D01*
X135129D01*
Y151167D01*
X135266D01*
Y151213D01*
X135357D01*
Y151259D01*
X135494D01*
Y151304D01*
X135631D01*
Y151350D01*
X135722D01*
Y151395D01*
X135859D01*
Y151441D01*
X135950D01*
Y151487D01*
X136086D01*
Y151532D01*
X136178D01*
Y151578D01*
X136314D01*
Y151623D01*
X136406D01*
Y151669D01*
X136588D01*
Y151714D01*
X136770D01*
Y151760D01*
X136861D01*
Y151806D01*
X137044D01*
Y151851D01*
X137180D01*
Y151897D01*
X137317D01*
Y151942D01*
X137545D01*
Y151988D01*
X137636D01*
Y152033D01*
X137819D01*
Y152079D01*
X137955D01*
Y152125D01*
X138138D01*
Y152170D01*
X138502D01*
Y152216D01*
X138685D01*
Y152261D01*
X139049D01*
Y152307D01*
X139277D01*
Y152352D01*
X139505D01*
Y152398D01*
X140098D01*
Y152444D01*
X140553D01*
Y152489D01*
X141283D01*
Y152535D01*
X142012D01*
Y152489D01*
X143516D01*
Y152444D01*
X143790D01*
Y152398D01*
X144200D01*
Y152352D01*
X144565D01*
Y152307D01*
X144884D01*
Y152261D01*
X145203D01*
Y152216D01*
X145340D01*
Y152170D01*
X145567D01*
Y152125D01*
X145795D01*
Y152079D01*
X145932D01*
Y152033D01*
X146206D01*
Y151988D01*
X146388D01*
Y151942D01*
X146570D01*
Y151897D01*
X146753D01*
Y151851D01*
X146889D01*
Y151806D01*
X147026D01*
Y151760D01*
X147163D01*
Y151714D01*
X147300D01*
Y151669D01*
X147391D01*
Y151623D01*
X147527D01*
Y151578D01*
X147664D01*
Y151532D01*
X147801D01*
Y151487D01*
X147983D01*
Y151441D01*
X148074D01*
Y151395D01*
X148211D01*
Y151350D01*
X148348D01*
Y151304D01*
X148439D01*
Y151259D01*
X148576D01*
Y151213D01*
X148667D01*
Y151167D01*
X148758D01*
Y151122D01*
X148895D01*
Y151076D01*
X148986D01*
Y151031D01*
X149077D01*
Y150985D01*
X149168D01*
Y150940D01*
X149305D01*
Y150894D01*
X149351D01*
Y150848D01*
X149487D01*
Y150803D01*
X149579D01*
Y150757D01*
X149715D01*
Y150712D01*
X149806D01*
Y150666D01*
X149898D01*
Y150620D01*
X149989D01*
Y150575D01*
X150080D01*
Y150529D01*
X150171D01*
Y150484D01*
X150217D01*
Y150438D01*
X150308D01*
Y150393D01*
X150399D01*
Y150347D01*
X150445D01*
Y150301D01*
X150536D01*
Y150256D01*
X150627D01*
Y150210D01*
X150718D01*
Y150165D01*
X150764D01*
Y150119D01*
X150855D01*
Y150074D01*
X150946D01*
Y150028D01*
X150992D01*
Y149982D01*
X151083D01*
Y149937D01*
X151174D01*
Y149891D01*
X151219D01*
Y149846D01*
X151311D01*
Y149800D01*
X151402D01*
Y149754D01*
X151493D01*
Y149709D01*
X151539D01*
Y149663D01*
X151584D01*
Y149618D01*
X151675D01*
Y149572D01*
X151767D01*
Y149527D01*
X151812D01*
Y149481D01*
X151858D01*
Y149435D01*
X151949D01*
Y149390D01*
X151994D01*
Y149344D01*
X152086D01*
Y149299D01*
X152131D01*
Y149253D01*
X152177D01*
Y149207D01*
X152268D01*
Y149162D01*
X152313D01*
Y149116D01*
X152359D01*
Y149071D01*
X152450D01*
Y149025D01*
X152541D01*
Y148979D01*
X152587D01*
Y148934D01*
X152633D01*
Y148888D01*
X152678D01*
Y148843D01*
X152769D01*
Y148797D01*
X152860D01*
Y148752D01*
X152906D01*
Y148706D01*
X153043D01*
Y148752D01*
X153088D01*
Y148797D01*
X153134D01*
Y148843D01*
X153180D01*
Y148888D01*
X153225D01*
Y148934D01*
X153271D01*
Y148979D01*
X153316D01*
Y149025D01*
X153362D01*
Y149071D01*
X153407D01*
Y149116D01*
X153453D01*
Y149162D01*
X153499D01*
Y149207D01*
X153544D01*
Y149253D01*
X153590D01*
Y149299D01*
X153635D01*
Y149344D01*
X153681D01*
Y149390D01*
X153726D01*
Y149435D01*
X153772D01*
Y149481D01*
X153818D01*
Y149527D01*
X153863D01*
Y149572D01*
X153909D01*
Y149618D01*
X153954D01*
Y149663D01*
X154000D01*
Y149709D01*
X154046D01*
Y149754D01*
X154091D01*
Y149800D01*
X154137D01*
Y149846D01*
X154182D01*
Y149891D01*
X154228D01*
Y149937D01*
X154273D01*
Y149982D01*
X154319D01*
Y150028D01*
X154365D01*
Y150074D01*
X154410D01*
Y150119D01*
X154456D01*
Y150165D01*
X154501D01*
Y150210D01*
X154547D01*
Y150256D01*
X154593D01*
Y150301D01*
X154638D01*
Y150347D01*
X154684D01*
Y150393D01*
X154729D01*
Y150438D01*
X154775D01*
Y150484D01*
X154821D01*
Y150529D01*
X154866D01*
Y150575D01*
X154912D01*
Y150620D01*
X154957D01*
Y150666D01*
X155003D01*
Y150712D01*
X155048D01*
Y150757D01*
X155094D01*
Y150803D01*
X155140D01*
Y150848D01*
X155185D01*
Y150894D01*
X155231D01*
Y150940D01*
X155276D01*
Y150985D01*
X155322D01*
Y151031D01*
X155367D01*
Y151076D01*
X155413D01*
Y151122D01*
X155459D01*
Y151167D01*
X155504D01*
Y151213D01*
X155550D01*
Y151259D01*
X155595D01*
Y151304D01*
X155641D01*
Y151350D01*
X155686D01*
Y151395D01*
X155732D01*
Y151441D01*
X155778D01*
Y151487D01*
X155823D01*
Y151532D01*
X155869D01*
Y151623D01*
X155823D01*
Y151669D01*
X155778D01*
Y151714D01*
X155732D01*
Y151760D01*
X155641D01*
Y151806D01*
X155595D01*
Y151851D01*
X155550D01*
Y151897D01*
X155504D01*
Y151942D01*
X155413D01*
Y151988D01*
X155367D01*
Y152033D01*
X155322D01*
Y152079D01*
X155276D01*
Y152125D01*
X155185D01*
Y152170D01*
X155140D01*
Y152216D01*
X155094D01*
Y152261D01*
X155048D01*
Y152307D01*
X154957D01*
Y152352D01*
X154912D01*
Y152398D01*
X154821D01*
Y152444D01*
X154775D01*
Y152489D01*
X154729D01*
Y152535D01*
X154638D01*
Y152580D01*
X154593D01*
Y152626D01*
X154501D01*
Y152672D01*
X154456D01*
Y152717D01*
X154410D01*
Y152763D01*
X154365D01*
Y152808D01*
X154273D01*
Y152854D01*
X154182D01*
Y152900D01*
X154137D01*
Y152945D01*
X154046D01*
Y152991D01*
X154000D01*
Y153036D01*
X153909D01*
Y153082D01*
X153818D01*
Y153127D01*
X153772D01*
Y153173D01*
X153681D01*
Y153219D01*
X153635D01*
Y153264D01*
X153544D01*
Y153310D01*
X153499D01*
Y153355D01*
X153407D01*
Y153401D01*
X153316D01*
Y153446D01*
X153271D01*
Y153492D01*
X153180D01*
Y153538D01*
X153134D01*
Y153583D01*
X153043D01*
Y153629D01*
X152952D01*
Y153674D01*
X152906D01*
Y153720D01*
X152769D01*
Y153766D01*
X152724D01*
Y153811D01*
X152633D01*
Y153857D01*
X152587D01*
Y153902D01*
X152496D01*
Y153948D01*
X152405D01*
Y153993D01*
X152359D01*
Y154039D01*
X152222D01*
Y154085D01*
X152131D01*
Y154130D01*
X152086D01*
Y154176D01*
X151949D01*
Y154221D01*
X151903D01*
Y154267D01*
X151767D01*
Y154313D01*
X151721D01*
Y154358D01*
X151630D01*
Y154404D01*
X151539D01*
Y154449D01*
X151447D01*
Y154495D01*
X151311D01*
Y154541D01*
X151265D01*
Y154586D01*
X151128D01*
Y154632D01*
X151083D01*
Y154677D01*
X150992D01*
Y154723D01*
X150855D01*
Y154768D01*
X150809D01*
Y154814D01*
X150673D01*
Y154859D01*
X150627D01*
Y154905D01*
X150490D01*
Y154951D01*
X150354D01*
Y154996D01*
X150262D01*
Y155042D01*
X150126D01*
Y155087D01*
X150080D01*
Y155133D01*
X149943D01*
Y155179D01*
X149852D01*
Y155224D01*
X149761D01*
Y155270D01*
X149624D01*
Y155315D01*
X149487D01*
Y155361D01*
X149351D01*
Y155406D01*
X149259D01*
Y155452D01*
X149123D01*
Y155498D01*
X148986D01*
Y155543D01*
X148941D01*
Y155589D01*
X148758D01*
Y155634D01*
X148621D01*
Y155680D01*
X148485D01*
Y155726D01*
X148348D01*
Y155771D01*
X148257D01*
Y155817D01*
X148074D01*
Y155862D01*
X147983D01*
Y155908D01*
X147801D01*
Y155954D01*
X147664D01*
Y155999D01*
X147482D01*
Y156045D01*
X147300D01*
Y156090D01*
X147208D01*
Y156136D01*
X146935D01*
Y156181D01*
X146844D01*
Y156227D01*
X146570D01*
Y156273D01*
X146433D01*
Y156318D01*
X146297D01*
Y156364D01*
X145978D01*
Y156409D01*
X145841D01*
Y156455D01*
X145522D01*
Y156500D01*
X145340D01*
Y156546D01*
X145066D01*
Y156592D01*
X144838D01*
Y156637D01*
X144656D01*
Y156683D01*
X144246D01*
Y156728D01*
X144063D01*
Y156774D01*
X143607D01*
Y156819D01*
X143288D01*
Y156865D01*
X143015D01*
Y156911D01*
X142058D01*
Y156956D01*
X141055D01*
Y157002D01*
X140371D01*
Y156956D01*
X139368D01*
Y156911D01*
X138457D01*
Y156865D01*
X138138D01*
Y156819D01*
X137819D01*
Y156774D01*
X137363D01*
Y156728D01*
X137089D01*
Y156683D01*
X136679D01*
Y156637D01*
X136497D01*
Y156592D01*
X136314D01*
Y156546D01*
X136086D01*
Y156500D01*
X135904D01*
Y156455D01*
X135631D01*
Y156409D01*
X135494D01*
Y156364D01*
X135175D01*
Y156318D01*
X135038D01*
Y156273D01*
X134901D01*
Y156227D01*
X134674D01*
Y156181D01*
X134537D01*
Y156136D01*
X134354D01*
Y156090D01*
X134218D01*
Y156045D01*
X134081D01*
Y155999D01*
X133899D01*
Y155954D01*
X133807D01*
Y155908D01*
X133625D01*
Y155862D01*
X133534D01*
Y155817D01*
X133352D01*
Y155771D01*
X133215D01*
Y155726D01*
X133124D01*
Y155680D01*
X132941D01*
Y155634D01*
X132850D01*
Y155589D01*
X132713D01*
Y155543D01*
X132622D01*
Y155498D01*
X132486D01*
Y155452D01*
X132349D01*
Y155406D01*
X132258D01*
Y155361D01*
X132075D01*
Y155315D01*
X132030D01*
Y155270D01*
X131893D01*
Y155224D01*
X131802D01*
Y155179D01*
X131665D01*
Y155133D01*
X131574D01*
Y155087D01*
X131483D01*
Y155042D01*
X131392D01*
Y154996D01*
X131300D01*
Y154951D01*
X131209D01*
Y154905D01*
X131118D01*
Y154859D01*
X131027D01*
Y154814D01*
X130936D01*
Y154768D01*
X130845D01*
Y154723D01*
X130754D01*
Y154677D01*
X130662D01*
Y154632D01*
X130571D01*
Y154586D01*
X130434D01*
Y154541D01*
X130389D01*
Y154495D01*
X130252D01*
Y154449D01*
X130161D01*
Y154404D01*
X130070D01*
Y154358D01*
X129979D01*
Y154313D01*
X129933D01*
Y154267D01*
X129842D01*
Y154221D01*
X129796D01*
Y154176D01*
X129705D01*
Y154130D01*
X129614D01*
Y154085D01*
X129523D01*
Y154039D01*
X129432D01*
Y153993D01*
X129386D01*
Y153948D01*
X129295D01*
Y153902D01*
X129249D01*
Y153857D01*
X129158D01*
Y153811D01*
X129067D01*
Y153766D01*
X129021D01*
Y153720D01*
X128930D01*
Y153674D01*
X128885D01*
Y153629D01*
X128794D01*
Y153583D01*
X128748D01*
Y153538D01*
X128657D01*
Y153492D01*
X128566D01*
Y153446D01*
X128520D01*
Y153401D01*
X128474D01*
Y153355D01*
X128383D01*
Y153310D01*
X128292D01*
Y153264D01*
X128246D01*
Y153219D01*
X128201D01*
Y153173D01*
X128110D01*
Y153127D01*
X128064D01*
Y153082D01*
X128019D01*
Y153036D01*
X127927D01*
Y152991D01*
X127882D01*
Y152945D01*
X127791D01*
Y152900D01*
X127745D01*
Y152854D01*
X127699D01*
Y152808D01*
X127654D01*
Y152763D01*
X127563D01*
Y152717D01*
X127472D01*
Y152672D01*
X127426D01*
Y152626D01*
X127381D01*
Y152580D01*
X127335D01*
Y152535D01*
X127289D01*
Y152489D01*
X127244D01*
Y152444D01*
X127153D01*
Y152398D01*
X127107D01*
Y152352D01*
X127061D01*
Y152307D01*
X127016D01*
Y152261D01*
X126970D01*
Y152216D01*
X126879D01*
Y152170D01*
X126833D01*
Y152125D01*
X126788D01*
Y152079D01*
X126742D01*
Y152033D01*
X126697D01*
Y151988D01*
X126606D01*
Y151942D01*
X126560D01*
Y151897D01*
X126514D01*
Y151851D01*
X126469D01*
Y151806D01*
X126423D01*
Y151760D01*
X126378D01*
Y151714D01*
X126332D01*
Y151669D01*
X126286D01*
Y151623D01*
X126241D01*
Y151578D01*
X126195D01*
Y151532D01*
X126104D01*
Y151487D01*
X126059D01*
Y151441D01*
X126013D01*
Y151395D01*
X125967D01*
Y151350D01*
X125922D01*
Y151304D01*
X125876D01*
Y151259D01*
X125831D01*
Y151213D01*
X125740D01*
Y151167D01*
X125694D01*
Y151122D01*
X125648D01*
Y151076D01*
X125557D01*
Y151031D01*
X125466D01*
Y150985D01*
X125375D01*
Y150940D01*
X125238D01*
Y150894D01*
X124828D01*
Y150940D01*
X124691D01*
Y150985D01*
X124646D01*
Y151031D01*
X124600D01*
Y151076D01*
X124554D01*
Y151122D01*
X124509D01*
Y151167D01*
X124463D01*
Y151259D01*
X124418D01*
Y151350D01*
X124372D01*
Y151760D01*
X124418D01*
Y151851D01*
X124463D01*
Y151942D01*
X124509D01*
Y152033D01*
X124554D01*
Y152079D01*
X124600D01*
Y152125D01*
X124646D01*
Y152216D01*
X124691D01*
Y152261D01*
X124737D01*
Y152352D01*
X124782D01*
Y152398D01*
X124828D01*
Y152444D01*
X124873D01*
Y152489D01*
X124919D01*
Y152535D01*
X124965D01*
Y152580D01*
X125010D01*
Y152626D01*
X125056D01*
Y152672D01*
X125101D01*
Y152717D01*
X125193D01*
Y152808D01*
X125284D01*
Y152854D01*
X125329D01*
Y152945D01*
X125420D01*
Y153036D01*
X125512D01*
Y153082D01*
X125557D01*
Y153127D01*
X125603D01*
Y153173D01*
X125648D01*
Y153219D01*
X125694D01*
Y153264D01*
X125740D01*
Y153310D01*
X125785D01*
Y153355D01*
X125831D01*
Y153401D01*
X125876D01*
Y153446D01*
X125922D01*
Y153492D01*
X125967D01*
Y153538D01*
X126013D01*
Y153583D01*
X126104D01*
Y153629D01*
X126150D01*
Y153674D01*
X126195D01*
Y153720D01*
X126241D01*
Y153766D01*
X126286D01*
Y153811D01*
X126378D01*
Y153857D01*
X126423D01*
Y153902D01*
X126469D01*
Y153948D01*
X126514D01*
Y153993D01*
X126560D01*
Y154039D01*
X126651D01*
Y154085D01*
X126697D01*
Y154130D01*
X126742D01*
Y154176D01*
X126788D01*
Y154221D01*
X126833D01*
Y154267D01*
X126879D01*
Y154313D01*
X126970D01*
Y154358D01*
X127016D01*
Y154404D01*
X127061D01*
Y154449D01*
X127153D01*
Y154495D01*
X127198D01*
Y154541D01*
X127244D01*
Y154586D01*
X127289D01*
Y154632D01*
X127381D01*
Y154677D01*
X127426D01*
Y154723D01*
X127472D01*
Y154768D01*
X127563D01*
Y154814D01*
X127608D01*
Y154859D01*
X127654D01*
Y154905D01*
X127745D01*
Y154951D01*
X127791D01*
Y154996D01*
X127836D01*
Y155042D01*
X127882D01*
Y155087D01*
X127927D01*
Y155133D01*
X128019D01*
Y155179D01*
X128064D01*
Y155224D01*
X128155D01*
Y155270D01*
X128201D01*
Y155315D01*
X128246D01*
Y155361D01*
X128338D01*
Y155406D01*
X128383D01*
Y155452D01*
X128474D01*
Y155498D01*
X128520D01*
Y155543D01*
X128611D01*
Y155589D01*
X128657D01*
Y155634D01*
X128702D01*
Y155680D01*
X128748D01*
Y155726D01*
X128839D01*
Y155771D01*
X128930D01*
Y155817D01*
X128976D01*
Y155862D01*
X129021D01*
Y155908D01*
X129067D01*
Y155954D01*
X129158D01*
Y155999D01*
X129249D01*
Y156045D01*
X129295D01*
Y156090D01*
X129341D01*
Y156136D01*
X129432D01*
Y156181D01*
X129477D01*
Y156227D01*
X129568D01*
Y156273D01*
X129614D01*
Y156318D01*
X129705D01*
Y156364D01*
X129751D01*
Y156409D01*
X129842D01*
Y156455D01*
X129887D01*
Y156500D01*
X129979D01*
Y156546D01*
X130024D01*
Y156592D01*
X130115D01*
Y156637D01*
X130207D01*
Y156683D01*
X130252D01*
Y156728D01*
X130343D01*
Y156774D01*
X130389D01*
Y156819D01*
X130480D01*
Y156865D01*
X130571D01*
Y156911D01*
X130617D01*
Y156956D01*
X130754D01*
Y157002D01*
X130799D01*
Y157047D01*
X130845D01*
Y157093D01*
X130936D01*
Y157139D01*
X131027D01*
Y157184D01*
X131118D01*
Y157230D01*
X131164D01*
Y157275D01*
X131300D01*
Y157321D01*
X131346D01*
Y157367D01*
X131437D01*
Y157412D01*
X131528D01*
Y157458D01*
X131620D01*
Y157503D01*
X131711D01*
Y157549D01*
X131802D01*
Y157594D01*
X131847D01*
Y157640D01*
X131939D01*
Y157686D01*
X132030D01*
Y157731D01*
X132121D01*
Y157777D01*
X132212D01*
Y157822D01*
X132303D01*
Y157868D01*
X132394D01*
Y157913D01*
X132486D01*
Y157959D01*
X132577D01*
Y158005D01*
X132668D01*
Y158050D01*
X132759D01*
Y158096D01*
X132850D01*
Y158141D01*
X132941D01*
Y158187D01*
X133033D01*
Y158232D01*
X133124D01*
Y158278D01*
X133215D01*
Y158324D01*
X133306D01*
Y158369D01*
X133397D01*
Y158415D01*
X133488D01*
Y158460D01*
X133580D01*
Y158506D01*
X133762D01*
Y158552D01*
X133807D01*
Y158597D01*
X133944D01*
Y158643D01*
X134081D01*
Y158688D01*
X134172D01*
Y158734D01*
X134309D01*
Y158780D01*
X134400D01*
Y158825D01*
X134537D01*
Y158871D01*
X134628D01*
Y158916D01*
X134765D01*
Y158962D01*
X134901D01*
Y159007D01*
X134993D01*
Y159053D01*
X135175D01*
Y159099D01*
X135266D01*
Y159144D01*
X135357D01*
Y159190D01*
X135494D01*
Y159235D01*
X135631D01*
Y159281D01*
X135767D01*
Y159327D01*
X135904D01*
Y159372D01*
X136041D01*
Y159418D01*
X136223D01*
Y159463D01*
X136360D01*
Y159509D01*
X136542D01*
Y159554D01*
X136679D01*
Y159600D01*
X136861D01*
Y159646D01*
X136998D01*
Y159691D01*
X137180D01*
Y159737D01*
X137363D01*
Y159782D01*
X137545D01*
Y159828D01*
X137819D01*
Y159873D01*
X137955D01*
Y159919D01*
X138229D01*
Y159965D01*
X138411D01*
Y160010D01*
X138685D01*
Y160056D01*
X139004D01*
Y160101D01*
X139232D01*
Y160147D01*
X139642D01*
Y160193D01*
X139961D01*
Y160238D01*
X140508D01*
Y160284D01*
X140873D01*
Y160329D01*
X141693D01*
Y160375D01*
X143607D01*
Y160329D01*
D02*
G37*
G36*
X147345Y130747D02*
X147391D01*
Y130701D01*
X147345D01*
Y130656D01*
X147300D01*
Y130610D01*
X146433D01*
Y130656D01*
X146342D01*
Y132844D01*
X146206D01*
Y132798D01*
X146160D01*
Y132661D01*
X146114D01*
Y132616D01*
X146069D01*
Y132525D01*
X146023D01*
Y132433D01*
X145978D01*
Y132342D01*
X145932D01*
Y132297D01*
X145887D01*
Y132251D01*
X145841D01*
Y132114D01*
X145795D01*
Y132069D01*
X145750D01*
Y131978D01*
X145704D01*
Y131886D01*
X145659D01*
Y131795D01*
X145613D01*
Y131750D01*
X145567D01*
Y131704D01*
X145522D01*
Y131567D01*
X145476D01*
Y131522D01*
X145431D01*
Y131431D01*
X145385D01*
Y131385D01*
X145340D01*
Y131340D01*
X145248D01*
Y131294D01*
X145157D01*
Y131340D01*
X145066D01*
Y131385D01*
X145020D01*
Y131476D01*
X144975D01*
Y131567D01*
X144929D01*
Y131659D01*
X144884D01*
Y131750D01*
X144838D01*
Y131795D01*
X144793D01*
Y131886D01*
X144747D01*
Y131932D01*
X144701D01*
Y132023D01*
X144656D01*
Y132114D01*
X144610D01*
Y132160D01*
X144565D01*
Y132297D01*
X144519D01*
Y132342D01*
X144474D01*
Y132388D01*
X144428D01*
Y132479D01*
X144382D01*
Y132570D01*
X144337D01*
Y132616D01*
X144291D01*
Y132707D01*
X144246D01*
Y132844D01*
X144109D01*
Y132753D01*
X144063D01*
Y132707D01*
X144109D01*
Y130656D01*
X144018D01*
Y130610D01*
X143152D01*
Y130656D01*
X143106D01*
Y130701D01*
X143061D01*
Y130793D01*
X143106D01*
Y134621D01*
X143061D01*
Y134713D01*
X143106D01*
Y134849D01*
X144109D01*
Y134758D01*
X144154D01*
Y134713D01*
X144200D01*
Y134621D01*
X144246D01*
Y134530D01*
X144291D01*
Y134485D01*
X144337D01*
Y134394D01*
X144382D01*
Y134348D01*
X144428D01*
Y134211D01*
X144474D01*
Y134166D01*
X144519D01*
Y134074D01*
X144565D01*
Y133983D01*
X144610D01*
Y133938D01*
X144656D01*
Y133846D01*
X144701D01*
Y133801D01*
X144747D01*
Y133710D01*
X144793D01*
Y133619D01*
X144838D01*
Y133573D01*
X144884D01*
Y133482D01*
X144929D01*
Y133436D01*
X144975D01*
Y133345D01*
X145020D01*
Y133254D01*
X145066D01*
Y133163D01*
X145112D01*
Y133117D01*
X145157D01*
Y133072D01*
X145203D01*
Y133026D01*
X145248D01*
Y133072D01*
X145294D01*
Y133117D01*
X145340D01*
Y133208D01*
X145385D01*
Y133254D01*
X145431D01*
Y133391D01*
X145476D01*
Y133436D01*
X145522D01*
Y133482D01*
X145567D01*
Y133619D01*
X145613D01*
Y133664D01*
X145659D01*
Y133755D01*
X145704D01*
Y133801D01*
X145750D01*
Y133892D01*
X145795D01*
Y133983D01*
X145841D01*
Y134029D01*
X145887D01*
Y134120D01*
X145932D01*
Y134211D01*
X145978D01*
Y134257D01*
X146023D01*
Y134348D01*
X146069D01*
Y134439D01*
X146114D01*
Y134530D01*
X146160D01*
Y134576D01*
X146206D01*
Y134667D01*
X146251D01*
Y134713D01*
X146297D01*
Y134804D01*
X146342D01*
Y134849D01*
X147345D01*
Y130747D01*
D02*
G37*
G36*
X137727Y134804D02*
X137773D01*
Y130656D01*
X137727D01*
Y130610D01*
X136816D01*
Y130656D01*
X136770D01*
Y130701D01*
X136725D01*
Y130747D01*
X136770D01*
Y132935D01*
X136679D01*
Y132889D01*
X136588D01*
Y132798D01*
X136542D01*
Y132753D01*
X136497D01*
Y132661D01*
X136451D01*
Y132570D01*
X136406D01*
Y132525D01*
X136360D01*
Y132479D01*
X136314D01*
Y132388D01*
X136269D01*
Y132297D01*
X136223D01*
Y132206D01*
X136178D01*
Y132160D01*
X136132D01*
Y132114D01*
X136086D01*
Y132023D01*
X136041D01*
Y131932D01*
X135995D01*
Y131886D01*
X135950D01*
Y131841D01*
X135904D01*
Y131750D01*
X135859D01*
Y131659D01*
X135813D01*
Y131613D01*
X135767D01*
Y131522D01*
X135722D01*
Y131476D01*
X135676D01*
Y131385D01*
X135631D01*
Y131294D01*
X135585D01*
Y131248D01*
X135539D01*
Y131157D01*
X135494D01*
Y131066D01*
X135448D01*
Y131020D01*
X135403D01*
Y130975D01*
X135357D01*
Y130884D01*
X135312D01*
Y130793D01*
X135266D01*
Y130747D01*
X135221D01*
Y130656D01*
X135129D01*
Y130610D01*
X134400D01*
Y130656D01*
X134309D01*
Y131431D01*
Y131476D01*
Y134758D01*
X134354D01*
Y134849D01*
X135312D01*
Y134804D01*
X135357D01*
Y132798D01*
X135403D01*
Y132753D01*
X135448D01*
Y132798D01*
X135494D01*
Y132935D01*
X135539D01*
Y132981D01*
X135585D01*
Y133072D01*
X135631D01*
Y133117D01*
X135676D01*
Y133163D01*
X135722D01*
Y133300D01*
X135767D01*
Y133345D01*
X135813D01*
Y133436D01*
X135859D01*
Y133482D01*
X135904D01*
Y133573D01*
X135950D01*
Y133619D01*
X135995D01*
Y133710D01*
X136041D01*
Y133801D01*
X136086D01*
Y133846D01*
X136132D01*
Y133938D01*
X136178D01*
Y133983D01*
X136223D01*
Y134029D01*
X136269D01*
Y134166D01*
X136314D01*
Y134211D01*
X136360D01*
Y134302D01*
X136406D01*
Y134348D01*
X136451D01*
Y134394D01*
X136497D01*
Y134485D01*
X136542D01*
Y134576D01*
X136588D01*
Y134667D01*
X136634D01*
Y134713D01*
X136679D01*
Y134804D01*
X136725D01*
Y134849D01*
X137727D01*
Y134804D01*
D02*
G37*
G36*
X157419D02*
X157464D01*
Y130656D01*
X157419D01*
Y130610D01*
X155459D01*
Y130656D01*
X155094D01*
Y130701D01*
X155003D01*
Y130747D01*
X154866D01*
Y130793D01*
X154821D01*
Y130838D01*
X154729D01*
Y130884D01*
X154684D01*
Y130929D01*
X154638D01*
Y130975D01*
X154547D01*
Y131066D01*
X154501D01*
Y131112D01*
X154456D01*
Y131157D01*
X154410D01*
Y131248D01*
X154365D01*
Y131294D01*
X154319D01*
Y131385D01*
X154273D01*
Y131522D01*
X154228D01*
Y131659D01*
X154182D01*
Y132206D01*
X154228D01*
Y132342D01*
X154273D01*
Y132433D01*
X154319D01*
Y132570D01*
X154410D01*
Y132661D01*
X154456D01*
Y132753D01*
X154501D01*
Y132844D01*
X154547D01*
Y132981D01*
X154501D01*
Y133072D01*
X154456D01*
Y133117D01*
X154410D01*
Y133345D01*
X154365D01*
Y133846D01*
X154410D01*
Y134029D01*
X154456D01*
Y134120D01*
X154501D01*
Y134211D01*
X154547D01*
Y134302D01*
X154593D01*
Y134348D01*
X154638D01*
Y134439D01*
X154729D01*
Y134485D01*
X154775D01*
Y134530D01*
X154821D01*
Y134576D01*
X154866D01*
Y134621D01*
X154912D01*
Y134667D01*
X155003D01*
Y134713D01*
X155048D01*
Y134758D01*
X155231D01*
Y134804D01*
X155367D01*
Y134849D01*
X157419D01*
Y134804D01*
D02*
G37*
G36*
X153726Y130656D02*
X153681D01*
Y130610D01*
X151128D01*
Y130656D01*
X151083D01*
Y131476D01*
X151128D01*
Y131567D01*
X152724D01*
Y131613D01*
X152769D01*
Y132206D01*
X152724D01*
Y132251D01*
X152587D01*
Y132297D01*
X152496D01*
Y132251D01*
X151356D01*
Y132297D01*
X151265D01*
Y133163D01*
X151311D01*
Y133208D01*
X152724D01*
Y133254D01*
X152769D01*
Y133846D01*
X152724D01*
Y133892D01*
X151174D01*
Y133938D01*
X151128D01*
Y134804D01*
X151174D01*
Y134849D01*
X153726D01*
Y130656D01*
D02*
G37*
G36*
X150445D02*
X150399D01*
Y130610D01*
X147892D01*
Y130656D01*
X147846D01*
Y130701D01*
X147801D01*
Y130793D01*
X147846D01*
Y131385D01*
X147801D01*
Y131431D01*
X147846D01*
Y131522D01*
X147892D01*
Y131567D01*
X149442D01*
Y131613D01*
X149487D01*
Y133482D01*
Y133527D01*
Y134849D01*
X150445D01*
Y130656D01*
D02*
G37*
G36*
X133899Y134029D02*
X133944D01*
Y133983D01*
X133899D01*
Y133938D01*
X133853D01*
Y133892D01*
X132850D01*
Y130701D01*
Y130656D01*
X132805D01*
Y130610D01*
X131893D01*
Y130656D01*
X131847D01*
Y133846D01*
X131802D01*
Y133892D01*
X130799D01*
Y134849D01*
X133899D01*
Y134029D01*
D02*
G37*
G36*
X130389Y134804D02*
X130434D01*
Y130656D01*
X130389D01*
Y130610D01*
X127836D01*
Y130656D01*
X127791D01*
Y131522D01*
X127836D01*
Y131567D01*
X129432D01*
Y131613D01*
X129477D01*
Y132160D01*
X129432D01*
Y132251D01*
X129295D01*
Y132297D01*
X129204D01*
Y132251D01*
X128064D01*
Y132297D01*
X127973D01*
Y133208D01*
X129432D01*
Y133254D01*
X129477D01*
Y133345D01*
Y133391D01*
Y133801D01*
X129432D01*
Y133892D01*
X127836D01*
Y134849D01*
X130389D01*
Y134804D01*
D02*
G37*
G36*
X140599D02*
X140873D01*
Y134758D01*
X141055D01*
Y134713D01*
X141192D01*
Y134667D01*
X141283D01*
Y134621D01*
X141419D01*
Y134576D01*
X141465D01*
Y134530D01*
X141556D01*
Y134485D01*
X141647D01*
Y134439D01*
X141693D01*
Y134394D01*
X141739D01*
Y134348D01*
X141830D01*
Y134302D01*
X141875D01*
Y134257D01*
X141921D01*
Y134211D01*
X141966D01*
Y134166D01*
X142012D01*
Y134120D01*
X142058D01*
Y134074D01*
X142103D01*
Y133983D01*
X142149D01*
Y133938D01*
X142194D01*
Y133892D01*
X142240D01*
Y133801D01*
X142286D01*
Y133710D01*
X142331D01*
Y133619D01*
X142377D01*
Y133527D01*
X142422D01*
Y133482D01*
X142468D01*
Y133254D01*
X142514D01*
Y133163D01*
X142559D01*
Y132206D01*
X142514D01*
Y132114D01*
X142468D01*
Y131886D01*
X142422D01*
Y131795D01*
X142377D01*
Y131704D01*
X142331D01*
Y131659D01*
X142286D01*
Y131567D01*
X142240D01*
Y131476D01*
X142194D01*
Y131431D01*
X142149D01*
Y131340D01*
X142103D01*
Y131294D01*
X142058D01*
Y131248D01*
X142012D01*
Y131203D01*
X141966D01*
Y131157D01*
X141921D01*
Y131112D01*
X141875D01*
Y131066D01*
X141830D01*
Y131020D01*
X141784D01*
Y130975D01*
X141693D01*
Y130929D01*
X141647D01*
Y130884D01*
X141602D01*
Y130838D01*
X141511D01*
Y130793D01*
X141419D01*
Y130747D01*
X141328D01*
Y130701D01*
X141237D01*
Y130656D01*
X141101D01*
Y130610D01*
X140964D01*
Y130565D01*
X140645D01*
Y130519D01*
X140143D01*
Y130565D01*
X139870D01*
Y130610D01*
X139733D01*
Y130656D01*
X139596D01*
Y130701D01*
X139505D01*
Y130747D01*
X139414D01*
Y130793D01*
X139323D01*
Y130838D01*
X139232D01*
Y130884D01*
X139186D01*
Y130929D01*
X139095D01*
Y130975D01*
X139049D01*
Y131020D01*
X139004D01*
Y131066D01*
X138958D01*
Y131112D01*
X138913D01*
Y131157D01*
X138867D01*
Y131203D01*
X138821D01*
Y131248D01*
X138776D01*
Y131294D01*
X138730D01*
Y131340D01*
X138685D01*
Y131385D01*
X138639D01*
Y131476D01*
X138593D01*
Y131522D01*
X138548D01*
Y131613D01*
X138502D01*
Y131704D01*
X138457D01*
Y131795D01*
X138411D01*
Y131886D01*
X138366D01*
Y132023D01*
X138320D01*
Y132251D01*
X138274D01*
Y132479D01*
X138229D01*
Y132844D01*
X138274D01*
Y133117D01*
X138320D01*
Y133345D01*
X138366D01*
Y133436D01*
X138411D01*
Y133573D01*
X138457D01*
Y133664D01*
X138502D01*
Y133710D01*
X138548D01*
Y133846D01*
X138593D01*
Y133892D01*
X138639D01*
Y133938D01*
X138685D01*
Y134029D01*
X138730D01*
Y134074D01*
X138776D01*
Y134120D01*
X138821D01*
Y134166D01*
X138867D01*
Y134211D01*
X138913D01*
Y134257D01*
X138958D01*
Y134302D01*
X139004D01*
Y134348D01*
X139049D01*
Y134394D01*
X139140D01*
Y134439D01*
X139186D01*
Y134485D01*
X139232D01*
Y134530D01*
X139323D01*
Y134576D01*
X139414D01*
Y134621D01*
X139505D01*
Y134667D01*
X139596D01*
Y134713D01*
X139733D01*
Y134758D01*
X139961D01*
Y134804D01*
X140189D01*
Y134849D01*
X140599D01*
Y134804D01*
D02*
G37*
G36*
X138457Y129152D02*
X138502D01*
Y126417D01*
X138457D01*
Y126371D01*
X137819D01*
Y127830D01*
X137773D01*
Y127875D01*
X137727D01*
Y127830D01*
X137682D01*
Y127784D01*
X137636D01*
Y127693D01*
X137591D01*
Y127647D01*
X137545D01*
Y127556D01*
X137499D01*
Y127511D01*
X137454D01*
Y127419D01*
X137408D01*
Y127328D01*
X137363D01*
Y127283D01*
X137317D01*
Y127192D01*
X137272D01*
Y127146D01*
X137226D01*
Y127055D01*
X137180D01*
Y127009D01*
X137135D01*
Y126918D01*
X137089D01*
Y126827D01*
X137044D01*
Y126781D01*
X136998D01*
Y126690D01*
X136953D01*
Y126645D01*
X136907D01*
Y126553D01*
X136861D01*
Y126508D01*
X136816D01*
Y126462D01*
X136770D01*
Y126371D01*
X136223D01*
Y129197D01*
X136861D01*
Y129152D01*
X136907D01*
Y129060D01*
X136861D01*
Y127875D01*
X136907D01*
Y127830D01*
X136953D01*
Y127875D01*
X136998D01*
Y127921D01*
X137044D01*
Y128012D01*
X137089D01*
Y128103D01*
X137135D01*
Y128194D01*
X137226D01*
Y128331D01*
X137272D01*
Y128377D01*
X137317D01*
Y128468D01*
X137363D01*
Y128514D01*
X137408D01*
Y128559D01*
X137454D01*
Y128696D01*
X137499D01*
Y128741D01*
X137545D01*
Y128832D01*
X137591D01*
Y128878D01*
X137636D01*
Y128969D01*
X137682D01*
Y129060D01*
X137727D01*
Y129106D01*
X137773D01*
Y129152D01*
X137819D01*
Y129197D01*
X138457D01*
Y129152D01*
D02*
G37*
G36*
X148211D02*
X148348D01*
Y129106D01*
X148485D01*
Y129060D01*
X148576D01*
Y129015D01*
X148621D01*
Y128969D01*
X148758D01*
Y128924D01*
X148804D01*
Y128878D01*
X148849D01*
Y128832D01*
X148895D01*
Y128787D01*
X148941D01*
Y128741D01*
X149032D01*
Y128650D01*
X149077D01*
Y128605D01*
X149123D01*
Y128514D01*
X149168D01*
Y128468D01*
X149214D01*
Y128377D01*
X149259D01*
Y128240D01*
X149305D01*
Y128149D01*
X149351D01*
Y127328D01*
X149305D01*
Y127192D01*
X149259D01*
Y127055D01*
X149214D01*
Y127009D01*
X149168D01*
Y126918D01*
X149123D01*
Y126873D01*
X149077D01*
Y126827D01*
X149032D01*
Y126736D01*
X148986D01*
Y126690D01*
X148941D01*
Y126645D01*
X148895D01*
Y126599D01*
X148804D01*
Y126553D01*
X148758D01*
Y126508D01*
X148667D01*
Y126462D01*
X148576D01*
Y126417D01*
X148530D01*
Y126371D01*
X148348D01*
Y126326D01*
X148257D01*
Y126280D01*
X147573D01*
Y126326D01*
X147527D01*
Y126371D01*
X147345D01*
Y126417D01*
X147300D01*
Y126462D01*
X147163D01*
Y126508D01*
X147117D01*
Y126553D01*
X147072D01*
Y126599D01*
X146981D01*
Y126690D01*
X146889D01*
Y126736D01*
X146844D01*
Y126827D01*
X146798D01*
Y126873D01*
X146753D01*
Y126918D01*
X146707D01*
Y127055D01*
X146753D01*
Y127101D01*
X146844D01*
Y127146D01*
X146935D01*
Y127192D01*
X146981D01*
Y127237D01*
X147117D01*
Y127328D01*
X147254D01*
Y127283D01*
X147300D01*
Y127237D01*
X147345D01*
Y127192D01*
X147391D01*
Y127146D01*
X147436D01*
Y127101D01*
X147527D01*
Y127055D01*
X147573D01*
Y127009D01*
X147710D01*
Y126964D01*
X147801D01*
Y126918D01*
X148074D01*
Y126964D01*
X148166D01*
Y127009D01*
X148302D01*
Y127055D01*
X148348D01*
Y127101D01*
X148439D01*
Y127146D01*
X148485D01*
Y127192D01*
X148530D01*
Y127283D01*
X148576D01*
Y127328D01*
X148621D01*
Y127419D01*
X148667D01*
Y127511D01*
X148713D01*
Y127966D01*
X148667D01*
Y128058D01*
X148621D01*
Y128149D01*
X148576D01*
Y128194D01*
X148530D01*
Y128286D01*
X148485D01*
Y128331D01*
X148393D01*
Y128377D01*
X148348D01*
Y128422D01*
X148257D01*
Y128468D01*
X148120D01*
Y128514D01*
X147755D01*
Y128468D01*
X147573D01*
Y128422D01*
X147527D01*
Y128377D01*
X147482D01*
Y128331D01*
X147391D01*
Y128286D01*
X147345D01*
Y128240D01*
X147300D01*
Y128194D01*
X147254D01*
Y128149D01*
X147163D01*
Y128194D01*
X147117D01*
Y128240D01*
X146981D01*
Y128286D01*
X146935D01*
Y128331D01*
X146798D01*
Y128377D01*
X146753D01*
Y128468D01*
X146707D01*
Y128559D01*
X146753D01*
Y128605D01*
X146798D01*
Y128650D01*
X146844D01*
Y128696D01*
X146889D01*
Y128741D01*
X146935D01*
Y128787D01*
X146981D01*
Y128832D01*
X147026D01*
Y128878D01*
X147072D01*
Y128924D01*
X147117D01*
Y128969D01*
X147208D01*
Y129015D01*
X147300D01*
Y129060D01*
X147436D01*
Y129106D01*
X147527D01*
Y129152D01*
X147710D01*
Y129197D01*
X148211D01*
Y129152D01*
D02*
G37*
G36*
X133488D02*
X133625D01*
Y129106D01*
X133762D01*
Y129060D01*
X133853D01*
Y129015D01*
X133944D01*
Y128969D01*
X134035D01*
Y128924D01*
X134081D01*
Y128878D01*
X134126D01*
Y128832D01*
X134218D01*
Y128787D01*
X134263D01*
Y128696D01*
X134309D01*
Y128650D01*
X134354D01*
Y128605D01*
X134400D01*
Y128559D01*
X134446D01*
Y128514D01*
X134491D01*
Y128377D01*
X134537D01*
Y128331D01*
X134582D01*
Y128103D01*
X134628D01*
Y128012D01*
X134674D01*
Y127465D01*
X134628D01*
Y127328D01*
X134582D01*
Y127146D01*
X134537D01*
Y127101D01*
X134491D01*
Y126964D01*
X134446D01*
Y126918D01*
X134400D01*
Y126873D01*
X134354D01*
Y126781D01*
X134309D01*
Y126736D01*
X134263D01*
Y126690D01*
X134218D01*
Y126645D01*
X134172D01*
Y126599D01*
X134081D01*
Y126553D01*
X134035D01*
Y126508D01*
X133990D01*
Y126462D01*
X133899D01*
Y126417D01*
X133853D01*
Y126371D01*
X133671D01*
Y126326D01*
X133534D01*
Y126280D01*
X132896D01*
Y126326D01*
X132759D01*
Y126371D01*
X132622D01*
Y126417D01*
X132577D01*
Y126462D01*
X132486D01*
Y126508D01*
X132394D01*
Y126553D01*
X132349D01*
Y126599D01*
X132303D01*
Y126645D01*
X132258D01*
Y126690D01*
X132167D01*
Y126736D01*
X132121D01*
Y126827D01*
X132075D01*
Y126918D01*
X131984D01*
Y127055D01*
X132030D01*
Y127101D01*
X132167D01*
Y127146D01*
X132212D01*
Y127192D01*
X132258D01*
Y127237D01*
X132394D01*
Y127283D01*
X132440D01*
Y127328D01*
X132577D01*
Y127283D01*
X132622D01*
Y127192D01*
X132668D01*
Y127146D01*
X132713D01*
Y127101D01*
X132805D01*
Y127055D01*
X132850D01*
Y127009D01*
X132987D01*
Y126964D01*
X133124D01*
Y126918D01*
X133352D01*
Y126964D01*
X133488D01*
Y127009D01*
X133625D01*
Y127101D01*
X133716D01*
Y127146D01*
X133762D01*
Y127192D01*
X133807D01*
Y127237D01*
X133853D01*
Y127328D01*
X133899D01*
Y127374D01*
X133944D01*
Y127511D01*
X133990D01*
Y127921D01*
X133944D01*
Y128103D01*
X133899D01*
Y128149D01*
X133853D01*
Y128194D01*
X133807D01*
Y128286D01*
X133716D01*
Y128331D01*
X133671D01*
Y128377D01*
X133625D01*
Y128422D01*
X133580D01*
Y128468D01*
X133443D01*
Y128514D01*
X133033D01*
Y128468D01*
X132896D01*
Y128422D01*
X132805D01*
Y128377D01*
X132759D01*
Y128331D01*
X132668D01*
Y128286D01*
X132622D01*
Y128194D01*
X132577D01*
Y128149D01*
X132440D01*
Y128194D01*
X132394D01*
Y128240D01*
X132258D01*
Y128286D01*
X132212D01*
Y128331D01*
X132121D01*
Y128377D01*
X132030D01*
Y128422D01*
X131984D01*
Y128514D01*
X132030D01*
Y128559D01*
X132075D01*
Y128650D01*
X132121D01*
Y128696D01*
X132167D01*
Y128741D01*
X132212D01*
Y128787D01*
X132258D01*
Y128832D01*
X132303D01*
Y128878D01*
X132394D01*
Y128924D01*
X132440D01*
Y128969D01*
X132531D01*
Y129015D01*
X132577D01*
Y129060D01*
X132713D01*
Y129106D01*
X132805D01*
Y129152D01*
X132987D01*
Y129197D01*
X133488D01*
Y129152D01*
D02*
G37*
G36*
X155595Y126371D02*
X153863D01*
Y126417D01*
X153818D01*
Y126553D01*
X153863D01*
Y126599D01*
X153818D01*
Y126964D01*
X153863D01*
Y127009D01*
X154912D01*
Y127055D01*
X154957D01*
Y127419D01*
X154912D01*
Y127465D01*
X154000D01*
Y127511D01*
X153954D01*
Y128058D01*
X154000D01*
Y128103D01*
X154912D01*
Y128149D01*
X154957D01*
Y128514D01*
X154912D01*
Y128559D01*
X153863D01*
Y129197D01*
X155595D01*
Y126371D01*
D02*
G37*
G36*
X153407Y128787D02*
Y128741D01*
Y126371D01*
X151675D01*
Y127009D01*
X152724D01*
Y127055D01*
X152769D01*
Y129197D01*
X153407D01*
Y128787D01*
D02*
G37*
G36*
X151356Y126964D02*
Y126918D01*
Y126371D01*
X149624D01*
Y126417D01*
X149579D01*
Y126964D01*
X149624D01*
Y127009D01*
X150673D01*
Y127101D01*
X150718D01*
Y127146D01*
X150673D01*
Y127328D01*
X150718D01*
Y127374D01*
X150673D01*
Y127465D01*
X149715D01*
Y128103D01*
X150673D01*
Y128194D01*
X150718D01*
Y128240D01*
X150673D01*
Y128422D01*
X150718D01*
Y128468D01*
X150673D01*
Y128559D01*
X149624D01*
Y129060D01*
X149579D01*
Y129152D01*
X149624D01*
Y129197D01*
X151356D01*
Y126964D01*
D02*
G37*
G36*
X146479Y129152D02*
X146525D01*
Y129060D01*
X146479D01*
Y128696D01*
X146525D01*
Y128605D01*
X146479D01*
Y128559D01*
X145795D01*
Y128514D01*
X145750D01*
Y128240D01*
Y128194D01*
Y126371D01*
X145112D01*
Y128514D01*
X145066D01*
Y128559D01*
X144428D01*
Y128605D01*
X144382D01*
Y129152D01*
X144428D01*
Y129197D01*
X146479D01*
Y129152D01*
D02*
G37*
G36*
X144063Y126371D02*
X143425D01*
Y126417D01*
X143379D01*
Y127237D01*
X143015D01*
Y127146D01*
X142969D01*
Y127101D01*
X142924D01*
Y126964D01*
X142878D01*
Y126918D01*
X142833D01*
Y126873D01*
X142787D01*
Y126736D01*
X142741D01*
Y126690D01*
X142696D01*
Y126599D01*
X142650D01*
Y126508D01*
X142605D01*
Y126462D01*
X142559D01*
Y126371D01*
X141830D01*
Y126417D01*
X141784D01*
Y126462D01*
X141830D01*
Y126508D01*
X141875D01*
Y126553D01*
X141921D01*
Y126645D01*
X141966D01*
Y126736D01*
X142012D01*
Y126827D01*
X142058D01*
Y126918D01*
X142103D01*
Y126964D01*
X142149D01*
Y127101D01*
X142194D01*
Y127146D01*
X142240D01*
Y127237D01*
X142286D01*
Y127328D01*
X142331D01*
Y127465D01*
X142240D01*
Y127511D01*
X142194D01*
Y127556D01*
X142149D01*
Y127647D01*
X142103D01*
Y127693D01*
X142058D01*
Y127784D01*
X142012D01*
Y127875D01*
X141966D01*
Y128012D01*
X141921D01*
Y128422D01*
X141966D01*
Y128559D01*
X142012D01*
Y128650D01*
X142058D01*
Y128741D01*
X142103D01*
Y128787D01*
X142149D01*
Y128878D01*
X142194D01*
Y128924D01*
X142240D01*
Y128969D01*
X142286D01*
Y129015D01*
X142377D01*
Y129060D01*
X142422D01*
Y129106D01*
X142559D01*
Y129152D01*
X142650D01*
Y129197D01*
X144063D01*
Y126371D01*
D02*
G37*
G36*
X135676D02*
X135038D01*
Y126417D01*
X134993D01*
Y129152D01*
X135038D01*
Y129197D01*
X135676D01*
Y126371D01*
D02*
G37*
G36*
X140553Y129152D02*
X140690D01*
Y129106D01*
X140827D01*
Y129060D01*
X140918D01*
Y129015D01*
X140964D01*
Y128969D01*
X141101D01*
Y128924D01*
X141146D01*
Y128878D01*
X141192D01*
Y128832D01*
X141237D01*
Y128787D01*
X141283D01*
Y128741D01*
X141374D01*
Y128650D01*
X141419D01*
Y128605D01*
X141465D01*
Y128514D01*
X141511D01*
Y128468D01*
X141556D01*
Y128377D01*
X141602D01*
Y128240D01*
X141647D01*
Y128149D01*
X141693D01*
Y127328D01*
X141647D01*
Y127192D01*
X141602D01*
Y127055D01*
X141556D01*
Y127009D01*
X141511D01*
Y126918D01*
X141465D01*
Y126873D01*
X141419D01*
Y126827D01*
X141374D01*
Y126736D01*
X141328D01*
Y126690D01*
X141283D01*
Y126645D01*
X141237D01*
Y126599D01*
X141146D01*
Y126553D01*
X141101D01*
Y126508D01*
X141009D01*
Y126462D01*
X140918D01*
Y126417D01*
X140873D01*
Y126371D01*
X140690D01*
Y126326D01*
X140599D01*
Y126280D01*
X139915D01*
Y126326D01*
X139870D01*
Y126371D01*
X139642D01*
Y126417D01*
X139596D01*
Y126462D01*
X139505D01*
Y126508D01*
X139460D01*
Y126553D01*
X139414D01*
Y126599D01*
X139323D01*
Y126645D01*
X139277D01*
Y126690D01*
X139232D01*
Y126736D01*
X139186D01*
Y126827D01*
X139095D01*
Y126918D01*
X139049D01*
Y127009D01*
X139004D01*
Y127101D01*
X138958D01*
Y127192D01*
X138913D01*
Y127328D01*
X138867D01*
Y127647D01*
X138821D01*
Y127830D01*
X138867D01*
Y128149D01*
X138913D01*
Y128194D01*
Y128286D01*
X138958D01*
Y128377D01*
X139004D01*
Y128468D01*
X139049D01*
Y128514D01*
X139095D01*
Y128605D01*
X139140D01*
Y128650D01*
X139186D01*
Y128696D01*
X139232D01*
Y128741D01*
X139277D01*
Y128787D01*
X139323D01*
Y128832D01*
X139368D01*
Y128878D01*
X139414D01*
Y128924D01*
X139460D01*
Y128969D01*
X139551D01*
Y129015D01*
X139642D01*
Y129060D01*
X139733D01*
Y129106D01*
X139870D01*
Y129152D01*
X140006D01*
Y129197D01*
X140553D01*
Y129152D01*
D02*
G37*
G36*
X130981D02*
X131073D01*
Y129106D01*
X131209D01*
Y129060D01*
X131300D01*
Y129015D01*
X131346D01*
Y128969D01*
X131392D01*
Y128924D01*
X131437D01*
Y128878D01*
X131483D01*
Y128832D01*
X131528D01*
Y128787D01*
X131574D01*
Y128696D01*
X131620D01*
Y128559D01*
X131665D01*
Y128194D01*
X131620D01*
Y128012D01*
X131574D01*
Y127921D01*
X131528D01*
Y127875D01*
X131483D01*
Y127830D01*
X131437D01*
Y127784D01*
X131392D01*
Y127739D01*
X131346D01*
Y127693D01*
X131255D01*
Y127647D01*
X131209D01*
Y127602D01*
X131118D01*
Y127556D01*
X130981D01*
Y127511D01*
X130890D01*
Y127465D01*
X130662D01*
Y127419D01*
X130617D01*
Y127374D01*
X130480D01*
Y127328D01*
X130434D01*
Y127283D01*
X130343D01*
Y127055D01*
X130389D01*
Y127009D01*
X130480D01*
Y126964D01*
X130526D01*
Y126918D01*
X130845D01*
Y126964D01*
X130936D01*
Y127009D01*
X131073D01*
Y127101D01*
X131118D01*
Y127146D01*
X131164D01*
Y127192D01*
X131209D01*
Y127237D01*
X131346D01*
Y127192D01*
X131392D01*
Y127146D01*
X131483D01*
Y127101D01*
X131574D01*
Y127055D01*
X131620D01*
Y127009D01*
X131711D01*
Y126964D01*
X131756D01*
Y126827D01*
X131711D01*
Y126781D01*
X131665D01*
Y126690D01*
X131620D01*
Y126645D01*
X131574D01*
Y126599D01*
X131528D01*
Y126553D01*
X131483D01*
Y126508D01*
X131437D01*
Y126462D01*
X131346D01*
Y126417D01*
X131300D01*
Y126371D01*
X131118D01*
Y126326D01*
X131027D01*
Y126280D01*
X130389D01*
Y126326D01*
X130252D01*
Y126371D01*
X130115D01*
Y126417D01*
X130070D01*
Y126462D01*
X129979D01*
Y126508D01*
X129933D01*
Y126553D01*
X129887D01*
Y126599D01*
X129842D01*
Y126645D01*
X129796D01*
Y126690D01*
X129751D01*
Y126781D01*
X129705D01*
Y127009D01*
X129659D01*
Y127192D01*
X129705D01*
Y127465D01*
X129751D01*
Y127511D01*
X129796D01*
Y127602D01*
X129842D01*
Y127647D01*
X129887D01*
Y127693D01*
X129933D01*
Y127739D01*
X129979D01*
Y127784D01*
X130070D01*
Y127830D01*
X130115D01*
Y127875D01*
X130207D01*
Y127921D01*
X130298D01*
Y127966D01*
X130434D01*
Y128012D01*
X130571D01*
Y128058D01*
X130617D01*
Y128103D01*
X130799D01*
Y128149D01*
X130845D01*
Y128194D01*
X130936D01*
Y128240D01*
X130981D01*
Y128331D01*
Y128377D01*
Y128468D01*
X130890D01*
Y128514D01*
X130571D01*
Y128468D01*
X130480D01*
Y128422D01*
X130434D01*
Y128377D01*
X130389D01*
Y128331D01*
X130343D01*
Y128286D01*
X130298D01*
Y128240D01*
X130252D01*
Y128286D01*
X130207D01*
Y128331D01*
X130115D01*
Y128377D01*
X130070D01*
Y128422D01*
X129979D01*
Y128468D01*
X129887D01*
Y128514D01*
X129842D01*
Y128559D01*
X129796D01*
Y128696D01*
X129842D01*
Y128741D01*
X129887D01*
Y128832D01*
X129933D01*
Y128878D01*
X130024D01*
Y128969D01*
X130115D01*
Y129015D01*
X130161D01*
Y129060D01*
X130252D01*
Y129106D01*
X130389D01*
Y129152D01*
X130526D01*
Y129197D01*
X130981D01*
Y129152D01*
D02*
G37*
%LPC*%
G36*
X147938Y142006D02*
X147573D01*
Y141960D01*
X147527D01*
Y141914D01*
X147436D01*
Y141869D01*
X147391D01*
Y141823D01*
X147345D01*
Y141778D01*
X147300D01*
Y141732D01*
X147254D01*
Y141641D01*
X147208D01*
Y141231D01*
X147254D01*
Y141139D01*
X147300D01*
Y141094D01*
X147345D01*
Y141048D01*
X147391D01*
Y141003D01*
X147482D01*
Y140912D01*
X147710D01*
Y140866D01*
X147846D01*
Y140912D01*
X148029D01*
Y140957D01*
X148074D01*
Y141003D01*
X148166D01*
Y141094D01*
X148211D01*
Y141139D01*
X148257D01*
Y141231D01*
X148302D01*
Y141367D01*
X148348D01*
Y141504D01*
X148302D01*
Y141686D01*
X148257D01*
Y141732D01*
X148211D01*
Y141823D01*
X148166D01*
Y141914D01*
X148029D01*
Y141960D01*
X147938D01*
Y142006D01*
D02*
G37*
G36*
X156416Y133892D02*
X155413D01*
Y133846D01*
X155367D01*
Y133755D01*
X155322D01*
Y133710D01*
X155276D01*
Y133391D01*
X155322D01*
Y133345D01*
X155367D01*
Y133254D01*
X155459D01*
Y133208D01*
X156370D01*
Y133254D01*
X156416D01*
Y133300D01*
X156461D01*
Y133801D01*
X156416D01*
Y133892D01*
D02*
G37*
G36*
X156325Y132342D02*
X155459D01*
Y132297D01*
X155322D01*
Y132251D01*
X155231D01*
Y132206D01*
X155185D01*
Y132114D01*
X155140D01*
Y131750D01*
X155185D01*
Y131704D01*
X155231D01*
Y131659D01*
X155276D01*
Y131613D01*
X155322D01*
Y131567D01*
X156370D01*
Y131613D01*
X156416D01*
Y131659D01*
X156461D01*
Y132160D01*
X156416D01*
Y132297D01*
X156325D01*
Y132342D01*
D02*
G37*
G36*
X140690Y133846D02*
X140143D01*
Y133801D01*
X140006D01*
Y133755D01*
X139915D01*
Y133710D01*
X139824D01*
Y133664D01*
X139733D01*
Y133619D01*
X139687D01*
Y133573D01*
X139642D01*
Y133527D01*
X139596D01*
Y133482D01*
X139551D01*
Y133436D01*
X139505D01*
Y133391D01*
X139460D01*
Y133300D01*
X139414D01*
Y133208D01*
X139368D01*
Y133117D01*
X139323D01*
Y133026D01*
X139277D01*
Y132707D01*
X139232D01*
Y132661D01*
X139277D01*
Y132297D01*
X139323D01*
Y132206D01*
X139368D01*
Y132114D01*
X139414D01*
Y132023D01*
X139460D01*
Y131978D01*
X139505D01*
Y131932D01*
X139551D01*
Y131886D01*
X139596D01*
Y131841D01*
X139642D01*
Y131795D01*
X139687D01*
Y131750D01*
X139733D01*
Y131704D01*
X139824D01*
Y131659D01*
X139870D01*
Y131613D01*
X139961D01*
Y131567D01*
X140143D01*
Y131522D01*
X140690D01*
Y131567D01*
X140873D01*
Y131613D01*
X140918D01*
Y131659D01*
X141009D01*
Y131704D01*
X141101D01*
Y131750D01*
X141146D01*
Y131795D01*
X141192D01*
Y131841D01*
X141237D01*
Y131886D01*
X141283D01*
Y131932D01*
X141328D01*
Y131978D01*
X141374D01*
Y132069D01*
X141419D01*
Y132114D01*
X141465D01*
Y132160D01*
X141511D01*
Y132388D01*
X141556D01*
Y132479D01*
X141602D01*
Y132844D01*
X141556D01*
Y132981D01*
X141511D01*
Y133163D01*
X141465D01*
Y133208D01*
X141419D01*
Y133300D01*
X141374D01*
Y133391D01*
X141328D01*
Y133436D01*
X141283D01*
Y133482D01*
X141237D01*
Y133527D01*
X141192D01*
Y133573D01*
X141146D01*
Y133619D01*
X141055D01*
Y133664D01*
X141009D01*
Y133710D01*
X140918D01*
Y133755D01*
X140827D01*
Y133801D01*
X140690D01*
Y133846D01*
D02*
G37*
G36*
X143334Y128559D02*
X142741D01*
Y128514D01*
X142696D01*
Y128468D01*
X142650D01*
Y128422D01*
X142605D01*
Y128331D01*
X142559D01*
Y128103D01*
X142605D01*
Y128012D01*
X142650D01*
Y127966D01*
X142696D01*
Y127921D01*
X142787D01*
Y127875D01*
X143334D01*
Y127921D01*
X143379D01*
Y128514D01*
X143334D01*
Y128559D01*
D02*
G37*
G36*
X140462Y128514D02*
X140052D01*
Y128468D01*
X139961D01*
Y128422D01*
X139870D01*
Y128377D01*
X139824D01*
Y128331D01*
X139733D01*
Y128240D01*
X139642D01*
Y128149D01*
X139596D01*
Y128058D01*
X139551D01*
Y128012D01*
X139505D01*
Y127511D01*
Y127465D01*
X139551D01*
Y127419D01*
X139596D01*
Y127328D01*
X139642D01*
Y127237D01*
X139687D01*
Y127192D01*
X139733D01*
Y127146D01*
X139779D01*
Y127101D01*
X139870D01*
Y127055D01*
X139915D01*
Y127009D01*
X140052D01*
Y126964D01*
X140143D01*
Y126918D01*
X140417D01*
Y126964D01*
X140508D01*
Y127009D01*
X140645D01*
Y127055D01*
X140690D01*
Y127101D01*
X140781D01*
Y127146D01*
X140827D01*
Y127192D01*
X140873D01*
Y127283D01*
X140918D01*
Y127328D01*
X140964D01*
Y127419D01*
X141009D01*
Y127511D01*
X141055D01*
Y127966D01*
X141009D01*
Y128058D01*
X140964D01*
Y128149D01*
X140918D01*
Y128194D01*
X140873D01*
Y128286D01*
X140827D01*
Y128331D01*
X140736D01*
Y128377D01*
X140690D01*
Y128422D01*
X140599D01*
Y128468D01*
X140462D01*
Y128514D01*
D02*
G37*
%LPD*%
D10*
X145394Y18000D02*
X144606D01*
X145394D01*
X75323Y178189D02*
X90677D01*
X75323Y151811D02*
X90677D01*
Y178189D01*
X75323Y151811D02*
Y178189D01*
X144000Y16000D02*
X246000D01*
Y4000D02*
Y16000D01*
X144000Y4000D02*
X246000D01*
X144000D02*
Y16000D01*
X270032Y15146D02*
X273969D01*
X270032Y20854D02*
X273969D01*
X184032Y18146D02*
X187969D01*
X184032Y23854D02*
X187969D01*
D11*
X71189Y152008D02*
X70451Y152434D01*
Y151582D01*
X71189Y152008D01*
D12*
X58000Y174000D02*
X60000D01*
X59000Y175000D02*
Y173000D01*
X58000Y164000D02*
X60000D01*
X219000Y178000D02*
Y181999D01*
X217001Y183998D01*
X215001Y181999D01*
Y178000D01*
Y180999D01*
X219000D01*
X213002Y178000D02*
Y181999D01*
X210003D01*
X209003Y180999D01*
Y178000D01*
X206004Y182998D02*
Y181999D01*
X207004D01*
X205005D01*
X206004D01*
Y179000D01*
X205005Y178000D01*
X199006D02*
X201006D01*
X202006Y179000D01*
Y180999D01*
X201006Y181999D01*
X199006D01*
X198007Y180999D01*
Y179999D01*
X202006D01*
X196007Y178000D02*
Y181999D01*
X193008D01*
X192009Y180999D01*
Y178000D01*
X190009D02*
Y181999D01*
X187010D01*
X186011Y180999D01*
Y178000D01*
X183012Y181999D02*
X181012D01*
X180013Y180999D01*
Y178000D01*
X183012D01*
X184011Y179000D01*
X183012Y179999D01*
X180013D01*
X86400Y149399D02*
X84401D01*
X85400D01*
Y146400D01*
X83401D02*
Y149399D01*
X81901D01*
X81402Y148899D01*
Y147899D01*
X81901Y147400D01*
X83401D01*
X80402Y146400D02*
X79402D01*
X79902D01*
Y149399D01*
X80402Y148899D01*
X77903D02*
X77403Y149399D01*
X76403D01*
X75903Y148899D01*
Y146900D01*
X76403Y146400D01*
X77403D01*
X77903Y146900D01*
Y148899D01*
X104400Y145399D02*
X102401D01*
X103400D01*
Y142400D01*
X101401D02*
Y145399D01*
X99901D01*
X99402Y144899D01*
Y143900D01*
X99901Y143400D01*
X101401D01*
X98402Y142400D02*
X97402D01*
X97902D01*
Y145399D01*
X98402Y144899D01*
X95903Y142400D02*
X94903D01*
X95403D01*
Y145399D01*
X95903Y144899D01*
X64248Y144500D02*
X62249D01*
X63249D01*
Y141500D01*
X61249D02*
Y144500D01*
X59750D01*
X59250Y144000D01*
Y143000D01*
X59750Y142500D01*
X61249D01*
X58250Y141500D02*
X57251D01*
X57750D01*
Y144500D01*
X58250Y144000D01*
X53752Y141500D02*
X55751D01*
X53752Y143500D01*
Y144000D01*
X54251Y144500D01*
X55251D01*
X55751Y144000D01*
X98800Y185299D02*
Y182800D01*
X98300Y182300D01*
X97300D01*
X96801Y182800D01*
Y185299D01*
X94301Y182300D02*
Y185299D01*
X95801Y183800D01*
X93802D01*
X139499Y65500D02*
Y68499D01*
X138000D01*
X137500Y68000D01*
Y67000D01*
X138000Y66500D01*
X139499D01*
X138499D02*
X137500Y65500D01*
X134501Y68499D02*
X136500D01*
Y67000D01*
X135501Y67500D01*
X135001D01*
X134501Y67000D01*
Y66000D01*
X135001Y65500D01*
X136000D01*
X136500Y66000D01*
X266901Y95899D02*
X267900D01*
X267401D01*
Y93400D01*
X267900Y92900D01*
X268400D01*
X268900Y93400D01*
X263902Y95899D02*
X264901Y95399D01*
X265901Y94399D01*
Y93400D01*
X265401Y92900D01*
X264401D01*
X263902Y93400D01*
Y93900D01*
X264401Y94399D01*
X265901D01*
X273701Y26699D02*
X274201Y27199D01*
X275200D01*
X275700Y26699D01*
Y24700D01*
X275200Y24200D01*
X274201D01*
X273701Y24700D01*
X272701D02*
X272201Y24200D01*
X271201D01*
X270702Y24700D01*
Y26699D01*
X271201Y27199D01*
X272201D01*
X272701Y26699D01*
Y26199D01*
X272201Y25699D01*
X270702D01*
X195500Y22000D02*
X196000Y22500D01*
X196999D01*
X197499Y22000D01*
Y20000D01*
X196999Y19500D01*
X196000D01*
X195500Y20000D01*
X192501Y22500D02*
X193500Y22000D01*
X194500Y21000D01*
Y20000D01*
X194000Y19500D01*
X193001D01*
X192501Y20000D01*
Y20500D01*
X193001Y21000D01*
X194500D01*
D14*
X134244Y75000D02*
X139756D01*
X139000Y70000D02*
X139756D01*
Y80000D01*
X139000D02*
X139756D01*
X134244D02*
X135000D01*
X134244Y70000D02*
Y80000D01*
Y70000D02*
X135000D01*
D93*
X233034Y154783D02*
X233450Y155199D01*
X234283D01*
X234700Y154783D01*
Y153117D01*
X234283Y152700D01*
X233450D01*
X233034Y153117D01*
X231784Y152700D02*
X230951D01*
X230535Y153117D01*
Y153950D01*
X230951Y154366D01*
X231784D01*
X232201Y153950D01*
Y153117D01*
X231784Y152700D01*
X229702D02*
Y154366D01*
X228452D01*
X228035Y153950D01*
Y152700D01*
X226786Y154783D02*
Y154366D01*
X227202D01*
X226369D01*
X226786D01*
Y153117D01*
X226369Y152700D01*
X225120Y154366D02*
Y152700D01*
Y153533D01*
X224703Y153950D01*
X224287Y154366D01*
X223870D01*
X222204Y152700D02*
X221371D01*
X220954Y153117D01*
Y153950D01*
X221371Y154366D01*
X222204D01*
X222621Y153950D01*
Y153117D01*
X222204Y152700D01*
X220121D02*
X219288D01*
X219705D01*
Y155199D01*
X220121D01*
X215540D02*
Y152700D01*
X214290D01*
X213873Y153117D01*
Y153533D01*
X214290Y153950D01*
X215540D01*
X214290D01*
X213873Y154366D01*
Y154783D01*
X214290Y155199D01*
X215540D01*
X212624Y152700D02*
X211791D01*
X211374Y153117D01*
Y153950D01*
X211791Y154366D01*
X212624D01*
X213040Y153950D01*
Y153117D01*
X212624Y152700D01*
X210125Y154366D02*
X209292D01*
X208875Y153950D01*
Y152700D01*
X210125D01*
X210541Y153117D01*
X210125Y153533D01*
X208875D01*
X208042Y154366D02*
Y152700D01*
Y153533D01*
X207625Y153950D01*
X207209Y154366D01*
X206792D01*
X203877Y155199D02*
Y152700D01*
X205126D01*
X205543Y153117D01*
Y153950D01*
X205126Y154366D01*
X203877D01*
X200544Y155199D02*
Y153533D01*
X199711Y152700D01*
X198878Y153533D01*
Y155199D01*
X195546Y152700D02*
X194713D01*
X195130D01*
Y155199D01*
X195546Y154783D01*
X234900Y159299D02*
Y156800D01*
X233650D01*
X233234Y157217D01*
Y158883D01*
X233650Y159299D01*
X234900D01*
X231984Y158466D02*
X231151D01*
X230735Y158050D01*
Y156800D01*
X231984D01*
X232401Y157217D01*
X231984Y157633D01*
X230735D01*
X229485Y158883D02*
Y158466D01*
X229902D01*
X229069D01*
X229485D01*
Y157217D01*
X229069Y156800D01*
X226569D02*
X227402D01*
X227819Y157217D01*
Y158050D01*
X227402Y158466D01*
X226569D01*
X226153Y158050D01*
Y157633D01*
X227819D01*
X225320Y158466D02*
X224903D01*
Y158050D01*
X225320D01*
Y158466D01*
Y157217D02*
X224903D01*
Y156800D01*
X225320D01*
Y157217D01*
X219072Y156800D02*
X220738D01*
X219072Y158466D01*
Y158883D01*
X219488Y159299D01*
X220321D01*
X220738Y158883D01*
X218239Y157217D02*
X217822Y156800D01*
X216989D01*
X216573Y157217D01*
Y158883D01*
X216989Y159299D01*
X217822D01*
X218239Y158883D01*
Y158466D01*
X217822Y158050D01*
X216573D01*
X215739Y156800D02*
X214073Y158466D01*
X213240Y156800D02*
X212407D01*
X212824D01*
Y159299D01*
X213240Y158883D01*
X209492Y156800D02*
X211158D01*
X209492Y158466D01*
Y158883D01*
X209908Y159299D01*
X210741D01*
X211158Y158883D01*
X208659Y156800D02*
X206992Y158466D01*
X204493Y156800D02*
X206159D01*
X204493Y158466D01*
Y158883D01*
X204910Y159299D01*
X205743D01*
X206159Y158883D01*
X203660D02*
X203244Y159299D01*
X202411D01*
X201994Y158883D01*
Y157217D01*
X202411Y156800D01*
X203244D01*
X203660Y157217D01*
Y158883D01*
X199495Y156800D02*
X201161D01*
X199495Y158466D01*
Y158883D01*
X199911Y159299D01*
X200744D01*
X201161Y158883D01*
X198662Y156800D02*
X197829D01*
X198245D01*
Y159299D01*
X198662Y158883D01*
X234900Y160800D02*
Y163299D01*
X233650D01*
X233234Y162883D01*
Y162050D01*
X233650Y161633D01*
X234900D01*
X231151Y160800D02*
X231984D01*
X232401Y161216D01*
Y162050D01*
X231984Y162466D01*
X231151D01*
X230735Y162050D01*
Y161633D01*
X232401D01*
X228236Y163299D02*
Y160800D01*
X229485D01*
X229902Y161216D01*
Y162050D01*
X229485Y162466D01*
X228236D01*
X227402D02*
Y160800D01*
Y161633D01*
X226986Y162050D01*
X226569Y162466D01*
X226153D01*
X224487Y160800D02*
X223654D01*
X223237Y161216D01*
Y162050D01*
X223654Y162466D01*
X224487D01*
X224903Y162050D01*
Y161216D01*
X224487Y160800D01*
X218239Y163299D02*
X219072D01*
X218655D01*
Y161216D01*
X219072Y160800D01*
X219488D01*
X219905Y161216D01*
X217406Y160800D02*
Y161216D01*
X216989D01*
Y160800D01*
X217406D01*
X212824Y163299D02*
Y160800D01*
X211574D01*
X211158Y161216D01*
Y161633D01*
X211574Y162050D01*
X212824D01*
X211574D01*
X211158Y162466D01*
Y162883D01*
X211574Y163299D01*
X212824D01*
X209075Y160800D02*
X209908D01*
X210325Y161216D01*
Y162050D01*
X209908Y162466D01*
X209075D01*
X208659Y162050D01*
Y161633D01*
X210325D01*
X207825Y160800D02*
X206992D01*
X207409D01*
Y163299D01*
X207825D01*
X205743Y160800D02*
Y162466D01*
X205326D01*
X204910Y162050D01*
Y160800D01*
Y162050D01*
X204493Y162466D01*
X204077Y162050D01*
Y160800D01*
X202827D02*
X201994D01*
X201577Y161216D01*
Y162050D01*
X201994Y162466D01*
X202827D01*
X203244Y162050D01*
Y161216D01*
X202827Y160800D01*
X200744D02*
Y162466D01*
X199495D01*
X199078Y162050D01*
Y160800D01*
X197829Y162883D02*
Y162466D01*
X198245D01*
X197412D01*
X197829D01*
Y161216D01*
X197412Y160800D01*
X194913D02*
X195746D01*
X196163Y161216D01*
Y162050D01*
X195746Y162466D01*
X194913D01*
X194496Y162050D01*
Y161633D01*
X196163D01*
D94*
X200200Y138500D02*
D03*
M02*
