%FSTAX23Y23*%
%MOIN*%
%SFA1B1*%

%IPPOS*%
%AMD87*
4,1,8,0.034400,-0.015800,0.034400,0.015800,0.032500,0.017700,-0.032500,0.017700,-0.034400,0.015800,-0.034400,-0.015800,-0.032500,-0.017700,0.032500,-0.017700,0.034400,-0.015800,0.0*
1,1,0.003900,0.032500,-0.015800*
1,1,0.003900,0.032500,0.015800*
1,1,0.003900,-0.032500,0.015800*
1,1,0.003900,-0.032500,-0.015800*
%
%AMD88*
4,1,8,0.034400,-0.060900,0.034400,0.060900,0.032400,0.063000,-0.032400,0.063000,-0.034400,0.060900,-0.034400,-0.060900,-0.032400,-0.063000,0.032400,-0.063000,0.034400,-0.060900,0.0*
1,1,0.004140,0.032400,-0.060900*
1,1,0.004140,0.032400,0.060900*
1,1,0.004140,-0.032400,0.060900*
1,1,0.004140,-0.032400,-0.060900*
%
%ADD15C,0.005000*%
%ADD21R,0.025590X0.027560*%
%ADD37C,0.059060*%
%ADD56O,0.040000X0.057480*%
%ADD69C,0.025000*%
%ADD70C,0.050000*%
%ADD71C,0.020000*%
%ADD72C,0.030000*%
%ADD74O,0.047240X0.094490*%
%ADD75C,0.065000*%
%ADD76R,0.065000X0.065000*%
%ADD77C,0.080000*%
%ADD78R,0.080000X0.080000*%
%ADD79R,0.060000X0.060000*%
%ADD80C,0.060000*%
%ADD81C,0.070000*%
%ADD82R,0.070000X0.070000*%
%ADD83C,0.135430*%
%ADD84C,0.050000*%
%ADD85O,0.041340X0.082680*%
%ADD86R,0.037400X0.033470*%
G04~CAMADD=87~8~0.0~0.0~354.3~689.0~19.5~0.0~15~0.0~0.0~0.0~0.0~0~0.0~0.0~0.0~0.0~0~0.0~0.0~0.0~270.0~689.0~354.0*
%ADD87D87*%
G04~CAMADD=88~8~0.0~0.0~1259.8~689.0~20.7~0.0~15~0.0~0.0~0.0~0.0~0~0.0~0.0~0.0~0.0~0~0.0~0.0~0.0~270.0~690.0~1260.0*
%ADD88D88*%
%LNcontrolboardv1-1*%
%LPD*%
G54D21*
X03943Y03098D03*
G54D15*
X0Y0D02*
X12286D01*
Y16786*
X0*
Y0*
G54D21*
X0389Y03098D03*
X04803Y03068D03*
X0475D03*
G54D37*
X02666Y04388D03*
X03076Y04248D03*
X02896Y04288D03*
G54D56*
X05492Y04609D03*
X05301D03*
G54D69*
X02226Y03738D02*
Y03838D01*
Y03938*
Y03538D02*
Y03638D01*
X02366Y03838D02*
X02486Y03958D01*
X02226Y03838D02*
X02366D01*
X02486Y03958D02*
Y04318D01*
X03425Y03613D02*
X03426D01*
X0336Y03548D02*
X03425Y03613D01*
X03232Y03548D02*
X0336D01*
X03426Y03664D02*
Y03728D01*
X02486Y04318D02*
X02546Y04378D01*
X03956Y03199D02*
X04006Y03249D01*
X04086Y0323D02*
Y03378D01*
X04056Y03188D02*
Y032D01*
X04086Y0323*
X02996Y03438D02*
X03076Y03518D01*
X02726Y03438D02*
X02996D01*
X04006Y03249D02*
Y03438D01*
X04876Y02978D02*
Y02987D01*
X04866Y02989D02*
X04876Y02978D01*
X04866Y02989D02*
Y03005D01*
X04803Y03068D02*
X04866Y03005D01*
X04803Y03068D02*
Y03068D01*
X04776Y02978D02*
Y02996D01*
X0475Y03023D02*
Y03068D01*
Y03023D02*
X04776Y02996D01*
X05206Y03058D02*
X05236Y03088D01*
X04948Y03058D02*
X05206D01*
X04876Y02987D02*
X04948Y03058D01*
X04976Y02978D02*
X05116D01*
X04156Y03188D02*
Y03352D01*
X04176Y03372D02*
Y03378D01*
X04156Y03352D02*
X04176Y03372D01*
X05326Y03738D02*
Y03838D01*
Y03938*
Y03538D02*
Y03638D01*
X05826Y03438D02*
X05916Y03348D01*
Y03208D02*
Y03348D01*
X05086Y03378D02*
X05286D01*
X05326Y03338*
X02726Y03438D02*
X02735Y03447D01*
X04546Y03918D02*
X05086Y03378D01*
X04476Y03918D02*
X04546D01*
X05156Y03868D02*
X05326Y04038D01*
X04766Y03868D02*
X05156D01*
X04816Y04238D02*
X05106Y03948D01*
X02766Y03108D02*
X03076Y03418D01*
Y03518*
X03856Y03182D02*
X0389Y03148D01*
Y03098D02*
Y03148D01*
X03856Y03182D02*
Y03188D01*
X03943Y0316D02*
X03956Y03174D01*
Y03188*
X03943Y03098D02*
Y0316D01*
X05802Y03094D02*
X05916Y03208D01*
X05406Y03088D02*
X05432D01*
X05438Y03094D02*
X05802D01*
X05432Y03088D02*
X05438Y03094D01*
X05326Y03838D02*
X05406Y03758D01*
Y03088D02*
Y03758D01*
X05236Y03088D02*
X05406D01*
X04816Y04238D02*
Y04448D01*
X04576Y04058D02*
X04766Y03868D01*
X04476Y04058D02*
X04576D01*
X04476Y03988D02*
X04479Y03986D01*
X05106Y03438D02*
X05326D01*
X04479Y03986D02*
X04559D01*
X05106Y03438*
G54D70*
X02763Y04629D02*
X02763Y04629D01*
X02566Y04628D02*
X02567Y04629D01*
X02763*
X05488Y03178D02*
Y035D01*
X05826Y03838*
X05566Y03478D02*
X05826Y03738D01*
X05566Y03178D02*
Y03478D01*
X05645Y03457D02*
X05826Y03638D01*
X05645Y03178D02*
Y03457D01*
X05724Y03436D02*
X05826Y03538D01*
X05724Y03178D02*
Y03436D01*
X02418Y0343D02*
X02726Y03738D01*
X02418Y03178D02*
Y0343D01*
X02496Y03408D02*
X02726Y03638D01*
X02496Y03178D02*
Y03408D01*
X02575Y03178D02*
Y03383D01*
X02726Y03535*
Y03538*
Y03838D02*
Y03838D01*
X02339Y03178D02*
Y0345D01*
X02726Y03838*
X02706Y04538D02*
X02763D01*
X02546Y04378D02*
X02706Y04538D01*
X02736Y04054D02*
Y04058D01*
X02726Y04044D02*
X02736Y04054D01*
X02726Y04038D02*
Y04044D01*
X02736Y04058D02*
X02896Y04218D01*
Y04288*
X02766Y04629D02*
X02795Y04658D01*
X02763Y04629D02*
X02786D01*
X02896Y04518*
Y04288D02*
Y04518D01*
X05536Y04128D02*
X05626Y04038D01*
X05826*
X03076Y03518D02*
X03081D01*
X0301Y0451D02*
X03019Y04501D01*
X0301Y0451D02*
Y04538D01*
X03047Y04501D02*
X03076Y04471D01*
X03019Y04501D02*
X03047D01*
X03076Y03518D02*
Y04248D01*
Y04471*
X03161Y03438D02*
X04006D01*
X03081Y03518D02*
X03161Y03438D01*
X04886D02*
X05236Y03088D01*
X04006Y03438D02*
X04326D01*
X04886*
X05156Y04508D02*
X05536Y04128D01*
X0301Y04538D02*
X03096D01*
X02763Y04629D02*
X02766D01*
X03216Y04508D02*
X05156D01*
X03066Y04658D02*
X03216Y04508D01*
X02795Y04658D02*
X03066D01*
X03096Y04538D02*
X03184Y0445D01*
X04814*
X04816Y04448*
X03184Y0439D02*
Y0445D01*
G54D71*
X02566Y03748D02*
Y03798D01*
X02242Y03468D02*
Y03474D01*
X02226Y03438D02*
Y03452D01*
X02242Y03468*
X02496Y03728D02*
Y03798D01*
X02242Y03474D02*
X02496Y03728D01*
X02226Y04038D02*
X02386D01*
X03956Y03188D02*
Y03199D01*
X02286Y03468D02*
X02566Y03748D01*
X02286Y03398D02*
Y03468D01*
X02226Y03338D02*
X02286Y03398D01*
X04656Y04098D02*
Y04328D01*
G54D72*
X04956Y04448D02*
X05056Y04348D01*
X04816Y04448D02*
X04956D01*
G54D74*
X05504Y04728D03*
X05289D03*
G54D75*
X02418Y03178D03*
X02496D03*
X02575D03*
X05566D03*
X05645D03*
X05724D03*
G54D76*
X02339Y03178D03*
X05488D03*
G54D77*
X03856Y03188D03*
X04056D03*
X03956D03*
X04776Y02978D03*
X04876D03*
X03232Y03548D03*
X02976D03*
G54D78*
X04156Y03188D03*
X04976Y02978D03*
G54D79*
X03556Y02988D03*
G54D80*
X03656Y02988D03*
X03756D03*
X03856D03*
X03956D03*
X04056D03*
X04156D03*
X04256D03*
X04356D03*
X04456D03*
G54D81*
X02726Y04038D03*
Y03838D03*
Y03938D03*
Y03738D03*
Y03638D03*
Y03538D03*
Y03438D03*
Y03338D03*
X02226D03*
Y03438D03*
Y03538D03*
Y03638D03*
Y03738D03*
Y03838D03*
Y03938D03*
X05826Y04038D03*
Y03838D03*
Y03938D03*
Y03738D03*
Y03638D03*
Y03538D03*
Y03438D03*
Y03338D03*
X05326D03*
Y03438D03*
Y03538D03*
Y03638D03*
Y03738D03*
Y03838D03*
Y03938D03*
X02466Y04528D03*
X02566Y04628D03*
Y04528D03*
G54D82*
X02226Y04038D03*
X05326D03*
X02466Y04628D03*
G54D83*
X03129Y03165D03*
X04921D03*
G54D84*
X05536Y04128D03*
X02566Y03798D03*
X02496D03*
X02386Y04038D03*
X03426Y03728D03*
X02546Y04378D03*
X02896Y04218D03*
X04086Y03378D03*
X04006Y03438D03*
X05236Y03088D03*
X05116Y02978D03*
X04326Y03438D03*
X04176Y03378D03*
X04476Y03918D03*
X05056Y04348D03*
X04656Y04098D03*
X05106Y03948D03*
X02766Y03108D03*
X03626Y03618D03*
X03486Y03328D03*
X03316Y03048D03*
X03476Y04108D03*
X03166D03*
X02766Y04318D03*
X04656Y03198D03*
X04836Y03318D03*
X05196Y03518D03*
X05146Y03328D03*
X05826Y03218D03*
X03166Y04308D03*
X02166Y04398D03*
X02766Y04748D03*
X03136D03*
X04836Y03958D03*
X04906Y04648D03*
X05116D03*
X05616Y04548D03*
X05836Y04418D03*
X02946Y03018D03*
X05206Y03848D03*
X04816Y04448D03*
X04656Y04328D03*
X03184Y0439D03*
X03296Y04568D03*
X04476Y04058D03*
Y03988D03*
G54D85*
X05492Y04609D03*
X05301D03*
G54D86*
X03426Y03664D03*
Y03613D03*
G54D87*
X02763Y04448D03*
Y04538D03*
Y04629D03*
G54D88*
X0301Y04538D03*
G54D21*
X0818Y03098D03*
X08127D03*
X0904Y03068D03*
X08987D03*
G54D37*
X06904Y04388D03*
X07314Y04248D03*
X07134Y04288D03*
G54D56*
X09729Y04609D03*
X09538D03*
G54D69*
X06464Y03738D02*
Y03838D01*
Y03938*
Y03538D02*
Y03638D01*
X06604Y03838D02*
X06724Y03958D01*
X06464Y03838D02*
X06604D01*
X06724Y03958D02*
Y04318D01*
X07662Y03613D02*
X07664D01*
X07597Y03548D02*
X07662Y03613D01*
X07469Y03548D02*
X07597D01*
X07664Y03664D02*
Y03728D01*
X06724Y04318D02*
X06784Y04378D01*
X08194Y03199D02*
X08244Y03249D01*
X08324Y0323D02*
Y03378D01*
X08294Y03188D02*
Y032D01*
X08324Y0323*
X07234Y03438D02*
X07314Y03518D01*
X06964Y03438D02*
X07234D01*
X08244Y03249D02*
Y03438D01*
X09114Y02978D02*
Y02987D01*
X09103Y02989D02*
X09114Y02978D01*
X09103Y02989D02*
Y03005D01*
X0904Y03068D02*
X09103Y03005D01*
X0904Y03068D02*
Y03068D01*
X09014Y02978D02*
Y02996D01*
X08987Y03023D02*
Y03068D01*
Y03023D02*
X09014Y02996D01*
X09444Y03058D02*
X09474Y03088D01*
X09185Y03058D02*
X09444D01*
X09114Y02987D02*
X09185Y03058D01*
X09214Y02978D02*
X09354D01*
X08394Y03188D02*
Y03352D01*
X08414Y03372D02*
Y03378D01*
X08394Y03352D02*
X08414Y03372D01*
X09564Y03738D02*
Y03838D01*
Y03938*
Y03538D02*
Y03638D01*
X10064Y03438D02*
X10154Y03348D01*
Y03208D02*
Y03348D01*
X09324Y03378D02*
X09524D01*
X09564Y03338*
X06964Y03438D02*
X06972Y03447D01*
X08784Y03918D02*
X09324Y03378D01*
X08714Y03918D02*
X08784D01*
X09394Y03868D02*
X09564Y04038D01*
X09004Y03868D02*
X09394D01*
X09054Y04238D02*
X09344Y03948D01*
X07004Y03108D02*
X07314Y03418D01*
Y03518*
X08094Y03182D02*
X08127Y03148D01*
Y03098D02*
Y03148D01*
X08094Y03182D02*
Y03188D01*
X0818Y0316D02*
X08194Y03174D01*
Y03188*
X0818Y03098D02*
Y0316D01*
X10039Y03094D02*
X10154Y03208D01*
X09644Y03088D02*
X09669D01*
X09675Y03094D02*
X10039D01*
X09669Y03088D02*
X09675Y03094D01*
X09564Y03838D02*
X09644Y03758D01*
Y03088D02*
Y03758D01*
X09474Y03088D02*
X09644D01*
X09054Y04238D02*
Y04448D01*
X08814Y04058D02*
X09004Y03868D01*
X08714Y04058D02*
X08814D01*
X08714Y03988D02*
X08716Y03986D01*
X09344Y03438D02*
X09564D01*
X08716Y03986D02*
X08796D01*
X09344Y03438*
G54D70*
X07Y04629D02*
X07Y04629D01*
X06804Y04628D02*
X06804Y04629D01*
X07*
X09725Y03178D02*
Y035D01*
X10064Y03838*
X09804Y03478D02*
X10064Y03738D01*
X09804Y03178D02*
Y03478D01*
X09882Y03457D02*
X10064Y03638D01*
X09882Y03178D02*
Y03457D01*
X09961Y03436D02*
X10064Y03538D01*
X09961Y03178D02*
Y03436D01*
X06655Y0343D02*
X06964Y03738D01*
X06655Y03178D02*
Y0343D01*
X06734Y03408D02*
X06964Y03638D01*
X06734Y03178D02*
Y03408D01*
X06812Y03178D02*
Y03383D01*
X06964Y03535*
Y03538*
Y03838D02*
Y03838D01*
X06576Y03178D02*
Y0345D01*
X06964Y03838*
X06944Y04538D02*
X07D01*
X06784Y04378D02*
X06944Y04538D01*
X06974Y04054D02*
Y04058D01*
X06964Y04044D02*
X06974Y04054D01*
X06964Y04038D02*
Y04044D01*
X06974Y04058D02*
X07134Y04218D01*
Y04288*
X07003Y04629D02*
X07032Y04658D01*
X07Y04629D02*
X07023D01*
X07134Y04518*
Y04288D02*
Y04518D01*
X09774Y04128D02*
X09864Y04038D01*
X10064*
X07314Y03518D02*
X07318D01*
X07247Y0451D02*
X07256Y04501D01*
X07247Y0451D02*
Y04538D01*
X07284Y04501D02*
X07314Y04471D01*
X07256Y04501D02*
X07284D01*
X07314Y03518D02*
Y04248D01*
Y04471*
X07398Y03438D02*
X08244D01*
X07318Y03518D02*
X07398Y03438D01*
X09124D02*
X09474Y03088D01*
X08244Y03438D02*
X08564D01*
X09124*
X09394Y04508D02*
X09774Y04128D01*
X07247Y04538D02*
X07334D01*
X07Y04629D02*
X07003D01*
X07454Y04508D02*
X09394D01*
X07304Y04658D02*
X07454Y04508D01*
X07032Y04658D02*
X07304D01*
X07334Y04538D02*
X07422Y0445D01*
X09052*
X09054Y04448*
X07422Y0439D02*
Y0445D01*
G54D71*
X06804Y03748D02*
Y03798D01*
X06479Y03468D02*
Y03474D01*
X06464Y03438D02*
Y03452D01*
X06479Y03468*
X06734Y03728D02*
Y03798D01*
X06479Y03474D02*
X06734Y03728D01*
X06464Y04038D02*
X06624D01*
X08194Y03188D02*
Y03199D01*
X06524Y03468D02*
X06804Y03748D01*
X06524Y03398D02*
Y03468D01*
X06464Y03338D02*
X06524Y03398D01*
X08894Y04098D02*
Y04328D01*
G54D72*
X09194Y04448D02*
X09294Y04348D01*
X09054Y04448D02*
X09194D01*
G54D74*
X09741Y04728D03*
X09526D03*
G54D75*
X06655Y03178D03*
X06734D03*
X06812D03*
X09804D03*
X09882D03*
X09961D03*
G54D76*
X06576Y03178D03*
X09725D03*
G54D77*
X08094Y03188D03*
X08294D03*
X08194D03*
X09014Y02978D03*
X09114D03*
X07469Y03548D03*
X07214D03*
G54D78*
X08394Y03188D03*
X09214Y02978D03*
G54D79*
X07794Y02988D03*
G54D80*
X07894Y02988D03*
X07994D03*
X08094D03*
X08194D03*
X08294D03*
X08394D03*
X08494D03*
X08594D03*
X08694D03*
G54D81*
X06964Y04038D03*
Y03838D03*
Y03938D03*
Y03738D03*
Y03638D03*
Y03538D03*
Y03438D03*
Y03338D03*
X06464D03*
Y03438D03*
Y03538D03*
Y03638D03*
Y03738D03*
Y03838D03*
Y03938D03*
X10064Y04038D03*
Y03838D03*
Y03938D03*
Y03738D03*
Y03638D03*
Y03538D03*
Y03438D03*
Y03338D03*
X09564D03*
Y03438D03*
Y03538D03*
Y03638D03*
Y03738D03*
Y03838D03*
Y03938D03*
X06704Y04528D03*
X06804Y04628D03*
Y04528D03*
G54D82*
X06464Y04038D03*
X09564D03*
X06704Y04628D03*
G54D83*
X07366Y03165D03*
X09158D03*
G54D84*
X09774Y04128D03*
X06804Y03798D03*
X06734D03*
X06624Y04038D03*
X07664Y03728D03*
X06784Y04378D03*
X07134Y04218D03*
X08324Y03378D03*
X08244Y03438D03*
X09474Y03088D03*
X09354Y02978D03*
X08564Y03438D03*
X08414Y03378D03*
X08714Y03918D03*
X09294Y04348D03*
X08894Y04098D03*
X09344Y03948D03*
X07004Y03108D03*
X07864Y03618D03*
X07724Y03328D03*
X07554Y03048D03*
X07714Y04108D03*
X07404D03*
X07004Y04318D03*
X08894Y03198D03*
X09074Y03318D03*
X09434Y03518D03*
X09384Y03328D03*
X10064Y03218D03*
X07404Y04308D03*
X06404Y04398D03*
X07004Y04748D03*
X07374D03*
X09074Y03958D03*
X09144Y04648D03*
X09354D03*
X09854Y04548D03*
X10074Y04418D03*
X07184Y03018D03*
X09444Y03848D03*
X09054Y04448D03*
X08894Y04328D03*
X07422Y0439D03*
X07534Y04568D03*
X08714Y04058D03*
Y03988D03*
G54D85*
X09729Y04609D03*
X09538D03*
G54D86*
X07664Y03664D03*
Y03613D03*
G54D87*
X07Y04448D03*
Y04538D03*
Y04629D03*
G54D88*
X07247Y04538D03*
G54D21*
X03943Y0536D03*
X0389D03*
X04803Y0533D03*
X0475D03*
G54D37*
X02666Y0665D03*
X03076Y0651D03*
X02896Y0655D03*
G54D56*
X05492Y06871D03*
X05301D03*
G54D69*
X02226Y06D02*
Y061D01*
Y062*
Y058D02*
Y059D01*
X02366Y061D02*
X02486Y0622D01*
X02226Y061D02*
X02366D01*
X02486Y0622D02*
Y0658D01*
X03425Y05875D02*
X03426D01*
X0336Y0581D02*
X03425Y05875D01*
X03232Y0581D02*
X0336D01*
X03426Y05926D02*
Y0599D01*
X02486Y0658D02*
X02546Y0664D01*
X03956Y05461D02*
X04006Y05511D01*
X04086Y05492D02*
Y0564D01*
X04056Y0545D02*
Y05462D01*
X04086Y05492*
X02996Y057D02*
X03076Y0578D01*
X02726Y057D02*
X02996D01*
X04006Y05511D02*
Y057D01*
X04876Y0524D02*
Y05249D01*
X04866Y05251D02*
X04876Y0524D01*
X04866Y05251D02*
Y05267D01*
X04803Y0533D02*
X04866Y05267D01*
X04803Y0533D02*
Y0533D01*
X04776Y0524D02*
Y05258D01*
X0475Y05285D02*
Y0533D01*
Y05285D02*
X04776Y05258D01*
X05206Y0532D02*
X05236Y0535D01*
X04948Y0532D02*
X05206D01*
X04876Y05249D02*
X04948Y0532D01*
X04976Y0524D02*
X05116D01*
X04156Y0545D02*
Y05614D01*
X04176Y05634D02*
Y0564D01*
X04156Y05614D02*
X04176Y05634D01*
X05326Y06D02*
Y061D01*
Y062*
Y058D02*
Y059D01*
X05826Y057D02*
X05916Y0561D01*
Y0547D02*
Y0561D01*
X05086Y0564D02*
X05286D01*
X05326Y056*
X02726Y057D02*
X02735Y05709D01*
X04546Y0618D02*
X05086Y0564D01*
X04476Y0618D02*
X04546D01*
X05156Y0613D02*
X05326Y063D01*
X04766Y0613D02*
X05156D01*
X04816Y065D02*
X05106Y0621D01*
X02766Y0537D02*
X03076Y0568D01*
Y0578*
X03856Y05444D02*
X0389Y0541D01*
Y0536D02*
Y0541D01*
X03856Y05444D02*
Y0545D01*
X03943Y05422D02*
X03956Y05436D01*
Y0545*
X03943Y0536D02*
Y05422D01*
X05802Y05356D02*
X05916Y0547D01*
X05406Y0535D02*
X05432D01*
X05438Y05356D02*
X05802D01*
X05432Y0535D02*
X05438Y05356D01*
X05326Y061D02*
X05406Y0602D01*
Y0535D02*
Y0602D01*
X05236Y0535D02*
X05406D01*
X04816Y065D02*
Y0671D01*
X04576Y0632D02*
X04766Y0613D01*
X04476Y0632D02*
X04576D01*
X04476Y0625D02*
X04479Y06248D01*
X05106Y057D02*
X05326D01*
X04479Y06248D02*
X04559D01*
X05106Y057*
G54D70*
X02763Y06891D02*
X02763Y06891D01*
X02566Y0689D02*
X02567Y06891D01*
X02763*
X05488Y0544D02*
Y05762D01*
X05826Y061*
X05566Y0574D02*
X05826Y06D01*
X05566Y0544D02*
Y0574D01*
X05645Y05719D02*
X05826Y059D01*
X05645Y0544D02*
Y05719D01*
X05724Y05698D02*
X05826Y058D01*
X05724Y0544D02*
Y05698D01*
X02418Y05692D02*
X02726Y06D01*
X02418Y0544D02*
Y05692D01*
X02496Y0567D02*
X02726Y059D01*
X02496Y0544D02*
Y0567D01*
X02575Y0544D02*
Y05645D01*
X02726Y05797*
Y058*
Y061D02*
Y061D01*
X02339Y0544D02*
Y05712D01*
X02726Y061*
X02706Y068D02*
X02763D01*
X02546Y0664D02*
X02706Y068D01*
X02736Y06316D02*
Y0632D01*
X02726Y06306D02*
X02736Y06316D01*
X02726Y063D02*
Y06306D01*
X02736Y0632D02*
X02896Y0648D01*
Y0655*
X02766Y06891D02*
X02795Y0692D01*
X02763Y06891D02*
X02786D01*
X02896Y0678*
Y0655D02*
Y0678D01*
X05536Y0639D02*
X05626Y063D01*
X05826*
X03076Y0578D02*
X03081D01*
X0301Y06772D02*
X03019Y06763D01*
X0301Y06772D02*
Y068D01*
X03047Y06763D02*
X03076Y06733D01*
X03019Y06763D02*
X03047D01*
X03076Y0578D02*
Y0651D01*
Y06733*
X03161Y057D02*
X04006D01*
X03081Y0578D02*
X03161Y057D01*
X04886D02*
X05236Y0535D01*
X04006Y057D02*
X04326D01*
X04886*
X05156Y0677D02*
X05536Y0639D01*
X0301Y068D02*
X03096D01*
X02763Y06891D02*
X02766D01*
X03216Y0677D02*
X05156D01*
X03066Y0692D02*
X03216Y0677D01*
X02795Y0692D02*
X03066D01*
X03096Y068D02*
X03184Y06712D01*
X04814*
X04816Y0671*
X03184Y06652D02*
Y06712D01*
G54D71*
X02566Y0601D02*
Y0606D01*
X02242Y0573D02*
Y05736D01*
X02226Y057D02*
Y05714D01*
X02242Y0573*
X02496Y0599D02*
Y0606D01*
X02242Y05736D02*
X02496Y0599D01*
X02226Y063D02*
X02386D01*
X03956Y0545D02*
Y05461D01*
X02286Y0573D02*
X02566Y0601D01*
X02286Y0566D02*
Y0573D01*
X02226Y056D02*
X02286Y0566D01*
X04656Y0636D02*
Y0659D01*
G54D72*
X04956Y0671D02*
X05056Y0661D01*
X04816Y0671D02*
X04956D01*
G54D74*
X05504Y0699D03*
X05289D03*
G54D75*
X02418Y0544D03*
X02496D03*
X02575D03*
X05566D03*
X05645D03*
X05724D03*
G54D76*
X02339Y0544D03*
X05488D03*
G54D77*
X03856Y0545D03*
X04056D03*
X03956D03*
X04776Y0524D03*
X04876D03*
X03232Y0581D03*
X02976D03*
G54D78*
X04156Y0545D03*
X04976Y0524D03*
G54D79*
X03556Y0525D03*
G54D80*
X03656Y0525D03*
X03756D03*
X03856D03*
X03956D03*
X04056D03*
X04156D03*
X04256D03*
X04356D03*
X04456D03*
G54D81*
X02726Y063D03*
Y061D03*
Y062D03*
Y06D03*
Y059D03*
Y058D03*
Y057D03*
Y056D03*
X02226D03*
Y057D03*
Y058D03*
Y059D03*
Y06D03*
Y061D03*
Y062D03*
X05826Y063D03*
Y061D03*
Y062D03*
Y06D03*
Y059D03*
Y058D03*
Y057D03*
Y056D03*
X05326D03*
Y057D03*
Y058D03*
Y059D03*
Y06D03*
Y061D03*
Y062D03*
X02466Y0679D03*
X02566Y0689D03*
Y0679D03*
G54D82*
X02226Y063D03*
X05326D03*
X02466Y0689D03*
G54D83*
X03129Y05427D03*
X04921D03*
G54D84*
X05536Y0639D03*
X02566Y0606D03*
X02496D03*
X02386Y063D03*
X03426Y0599D03*
X02546Y0664D03*
X02896Y0648D03*
X04086Y0564D03*
X04006Y057D03*
X05236Y0535D03*
X05116Y0524D03*
X04326Y057D03*
X04176Y0564D03*
X04476Y0618D03*
X05056Y0661D03*
X04656Y0636D03*
X05106Y0621D03*
X02766Y0537D03*
X03626Y0588D03*
X03486Y0559D03*
X03316Y0531D03*
X03476Y0637D03*
X03166D03*
X02766Y0658D03*
X04656Y0546D03*
X04836Y0558D03*
X05196Y0578D03*
X05146Y0559D03*
X05826Y0548D03*
X03166Y0657D03*
X02166Y0666D03*
X02766Y0701D03*
X03136D03*
X04836Y0622D03*
X04906Y0691D03*
X05116D03*
X05616Y0681D03*
X05836Y0668D03*
X02946Y0528D03*
X05206Y0611D03*
X04816Y0671D03*
X04656Y0659D03*
X03184Y06652D03*
X03296Y0683D03*
X04476Y0632D03*
Y0625D03*
G54D85*
X05492Y06871D03*
X05301D03*
G54D86*
X03426Y05926D03*
Y05875D03*
G54D87*
X02763Y0671D03*
Y068D03*
Y06891D03*
G54D88*
X0301Y068D03*
G54D21*
X0818Y0536D03*
X08127D03*
X0904Y0533D03*
X08987D03*
G54D37*
X06904Y0665D03*
X07314Y0651D03*
X07134Y0655D03*
G54D56*
X09729Y06871D03*
X09538D03*
G54D69*
X06464Y06D02*
Y061D01*
Y062*
Y058D02*
Y059D01*
X06604Y061D02*
X06724Y0622D01*
X06464Y061D02*
X06604D01*
X06724Y0622D02*
Y0658D01*
X07662Y05875D02*
X07664D01*
X07597Y0581D02*
X07662Y05875D01*
X07469Y0581D02*
X07597D01*
X07664Y05926D02*
Y0599D01*
X06724Y0658D02*
X06784Y0664D01*
X08194Y05461D02*
X08244Y05511D01*
X08324Y05492D02*
Y0564D01*
X08294Y0545D02*
Y05462D01*
X08324Y05492*
X07234Y057D02*
X07314Y0578D01*
X06964Y057D02*
X07234D01*
X08244Y05511D02*
Y057D01*
X09114Y0524D02*
Y05249D01*
X09103Y05251D02*
X09114Y0524D01*
X09103Y05251D02*
Y05267D01*
X0904Y0533D02*
X09103Y05267D01*
X0904Y0533D02*
Y0533D01*
X09014Y0524D02*
Y05258D01*
X08987Y05285D02*
Y0533D01*
Y05285D02*
X09014Y05258D01*
X09444Y0532D02*
X09474Y0535D01*
X09185Y0532D02*
X09444D01*
X09114Y05249D02*
X09185Y0532D01*
X09214Y0524D02*
X09354D01*
X08394Y0545D02*
Y05614D01*
X08414Y05634D02*
Y0564D01*
X08394Y05614D02*
X08414Y05634D01*
X09564Y06D02*
Y061D01*
Y062*
Y058D02*
Y059D01*
X10064Y057D02*
X10154Y0561D01*
Y0547D02*
Y0561D01*
X09324Y0564D02*
X09524D01*
X09564Y056*
X06964Y057D02*
X06972Y05709D01*
X08784Y0618D02*
X09324Y0564D01*
X08714Y0618D02*
X08784D01*
X09394Y0613D02*
X09564Y063D01*
X09004Y0613D02*
X09394D01*
X09054Y065D02*
X09344Y0621D01*
X07004Y0537D02*
X07314Y0568D01*
Y0578*
X08094Y05444D02*
X08127Y0541D01*
Y0536D02*
Y0541D01*
X08094Y05444D02*
Y0545D01*
X0818Y05422D02*
X08194Y05436D01*
Y0545*
X0818Y0536D02*
Y05422D01*
X10039Y05356D02*
X10154Y0547D01*
X09644Y0535D02*
X09669D01*
X09675Y05356D02*
X10039D01*
X09669Y0535D02*
X09675Y05356D01*
X09564Y061D02*
X09644Y0602D01*
Y0535D02*
Y0602D01*
X09474Y0535D02*
X09644D01*
X09054Y065D02*
Y0671D01*
X08814Y0632D02*
X09004Y0613D01*
X08714Y0632D02*
X08814D01*
X08714Y0625D02*
X08716Y06248D01*
X09344Y057D02*
X09564D01*
X08716Y06248D02*
X08796D01*
X09344Y057*
G54D70*
X07Y06891D02*
X07Y06891D01*
X06804Y0689D02*
X06804Y06891D01*
X07*
X09725Y0544D02*
Y05762D01*
X10064Y061*
X09804Y0574D02*
X10064Y06D01*
X09804Y0544D02*
Y0574D01*
X09882Y05719D02*
X10064Y059D01*
X09882Y0544D02*
Y05719D01*
X09961Y05698D02*
X10064Y058D01*
X09961Y0544D02*
Y05698D01*
X06655Y05692D02*
X06964Y06D01*
X06655Y0544D02*
Y05692D01*
X06734Y0567D02*
X06964Y059D01*
X06734Y0544D02*
Y0567D01*
X06812Y0544D02*
Y05645D01*
X06964Y05797*
Y058*
Y061D02*
Y061D01*
X06576Y0544D02*
Y05712D01*
X06964Y061*
X06944Y068D02*
X07D01*
X06784Y0664D02*
X06944Y068D01*
X06974Y06316D02*
Y0632D01*
X06964Y06306D02*
X06974Y06316D01*
X06964Y063D02*
Y06306D01*
X06974Y0632D02*
X07134Y0648D01*
Y0655*
X07003Y06891D02*
X07032Y0692D01*
X07Y06891D02*
X07023D01*
X07134Y0678*
Y0655D02*
Y0678D01*
X09774Y0639D02*
X09864Y063D01*
X10064*
X07314Y0578D02*
X07318D01*
X07247Y06772D02*
X07256Y06763D01*
X07247Y06772D02*
Y068D01*
X07284Y06763D02*
X07314Y06733D01*
X07256Y06763D02*
X07284D01*
X07314Y0578D02*
Y0651D01*
Y06733*
X07398Y057D02*
X08244D01*
X07318Y0578D02*
X07398Y057D01*
X09124D02*
X09474Y0535D01*
X08244Y057D02*
X08564D01*
X09124*
X09394Y0677D02*
X09774Y0639D01*
X07247Y068D02*
X07334D01*
X07Y06891D02*
X07003D01*
X07454Y0677D02*
X09394D01*
X07304Y0692D02*
X07454Y0677D01*
X07032Y0692D02*
X07304D01*
X07334Y068D02*
X07422Y06712D01*
X09052*
X09054Y0671*
X07422Y06652D02*
Y06712D01*
G54D71*
X06804Y0601D02*
Y0606D01*
X06479Y0573D02*
Y05736D01*
X06464Y057D02*
Y05714D01*
X06479Y0573*
X06734Y0599D02*
Y0606D01*
X06479Y05736D02*
X06734Y0599D01*
X06464Y063D02*
X06624D01*
X08194Y0545D02*
Y05461D01*
X06524Y0573D02*
X06804Y0601D01*
X06524Y0566D02*
Y0573D01*
X06464Y056D02*
X06524Y0566D01*
X08894Y0636D02*
Y0659D01*
G54D72*
X09194Y0671D02*
X09294Y0661D01*
X09054Y0671D02*
X09194D01*
G54D74*
X09741Y0699D03*
X09526D03*
G54D75*
X06655Y0544D03*
X06734D03*
X06812D03*
X09804D03*
X09882D03*
X09961D03*
G54D76*
X06576Y0544D03*
X09725D03*
G54D77*
X08094Y0545D03*
X08294D03*
X08194D03*
X09014Y0524D03*
X09114D03*
X07469Y0581D03*
X07214D03*
G54D78*
X08394Y0545D03*
X09214Y0524D03*
G54D79*
X07794Y0525D03*
G54D80*
X07894Y0525D03*
X07994D03*
X08094D03*
X08194D03*
X08294D03*
X08394D03*
X08494D03*
X08594D03*
X08694D03*
G54D81*
X06964Y063D03*
Y061D03*
Y062D03*
Y06D03*
Y059D03*
Y058D03*
Y057D03*
Y056D03*
X06464D03*
Y057D03*
Y058D03*
Y059D03*
Y06D03*
Y061D03*
Y062D03*
X10064Y063D03*
Y061D03*
Y062D03*
Y06D03*
Y059D03*
Y058D03*
Y057D03*
Y056D03*
X09564D03*
Y057D03*
Y058D03*
Y059D03*
Y06D03*
Y061D03*
Y062D03*
X06704Y0679D03*
X06804Y0689D03*
Y0679D03*
G54D82*
X06464Y063D03*
X09564D03*
X06704Y0689D03*
G54D83*
X07366Y05427D03*
X09158D03*
G54D84*
X09774Y0639D03*
X06804Y0606D03*
X06734D03*
X06624Y063D03*
X07664Y0599D03*
X06784Y0664D03*
X07134Y0648D03*
X08324Y0564D03*
X08244Y057D03*
X09474Y0535D03*
X09354Y0524D03*
X08564Y057D03*
X08414Y0564D03*
X08714Y0618D03*
X09294Y0661D03*
X08894Y0636D03*
X09344Y0621D03*
X07004Y0537D03*
X07864Y0588D03*
X07724Y0559D03*
X07554Y0531D03*
X07714Y0637D03*
X07404D03*
X07004Y0658D03*
X08894Y0546D03*
X09074Y0558D03*
X09434Y0578D03*
X09384Y0559D03*
X10064Y0548D03*
X07404Y0657D03*
X06404Y0666D03*
X07004Y0701D03*
X07374D03*
X09074Y0622D03*
X09144Y0691D03*
X09354D03*
X09854Y0681D03*
X10074Y0668D03*
X07184Y0528D03*
X09444Y0611D03*
X09054Y0671D03*
X08894Y0659D03*
X07422Y06652D03*
X07534Y0683D03*
X08714Y0632D03*
Y0625D03*
G54D85*
X09729Y06871D03*
X09538D03*
G54D86*
X07664Y05926D03*
Y05875D03*
G54D87*
X07Y0671D03*
Y068D03*
Y06891D03*
G54D88*
X07247Y068D03*
G54D21*
X03943Y07622D03*
X0389D03*
X04803Y07592D03*
X0475D03*
G54D37*
X02666Y08912D03*
X03076Y08772D03*
X02896Y08812D03*
G54D56*
X05492Y09132D03*
X05301D03*
G54D69*
X02226Y08262D02*
Y08362D01*
Y08462*
Y08062D02*
Y08162D01*
X02366Y08362D02*
X02486Y08482D01*
X02226Y08362D02*
X02366D01*
X02486Y08482D02*
Y08842D01*
X03425Y08137D02*
X03426D01*
X0336Y08072D02*
X03425Y08137D01*
X03232Y08072D02*
X0336D01*
X03426Y08188D02*
Y08252D01*
X02486Y08842D02*
X02546Y08902D01*
X03956Y07723D02*
X04006Y07773D01*
X04086Y07754D02*
Y07902D01*
X04056Y07712D02*
Y07724D01*
X04086Y07754*
X02996Y07962D02*
X03076Y08042D01*
X02726Y07962D02*
X02996D01*
X04006Y07773D02*
Y07962D01*
X04876Y07502D02*
Y07511D01*
X04866Y07513D02*
X04876Y07502D01*
X04866Y07513D02*
Y07529D01*
X04803Y07592D02*
X04866Y07529D01*
X04803Y07592D02*
Y07592D01*
X04776Y07502D02*
Y0752D01*
X0475Y07547D02*
Y07592D01*
Y07547D02*
X04776Y0752D01*
X05206Y07582D02*
X05236Y07612D01*
X04948Y07582D02*
X05206D01*
X04876Y07511D02*
X04948Y07582D01*
X04976Y07502D02*
X05116D01*
X04156Y07712D02*
Y07876D01*
X04176Y07896D02*
Y07902D01*
X04156Y07876D02*
X04176Y07896D01*
X05326Y08262D02*
Y08362D01*
Y08462*
Y08062D02*
Y08162D01*
X05826Y07962D02*
X05916Y07872D01*
Y07732D02*
Y07872D01*
X05086Y07902D02*
X05286D01*
X05326Y07862*
X02726Y07962D02*
X02735Y07971D01*
X04546Y08442D02*
X05086Y07902D01*
X04476Y08442D02*
X04546D01*
X05156Y08392D02*
X05326Y08562D01*
X04766Y08392D02*
X05156D01*
X04816Y08762D02*
X05106Y08472D01*
X02766Y07632D02*
X03076Y07942D01*
Y08042*
X03856Y07706D02*
X0389Y07672D01*
Y07622D02*
Y07672D01*
X03856Y07706D02*
Y07712D01*
X03943Y07684D02*
X03956Y07698D01*
Y07712*
X03943Y07622D02*
Y07684D01*
X05802Y07618D02*
X05916Y07732D01*
X05406Y07612D02*
X05432D01*
X05438Y07618D02*
X05802D01*
X05432Y07612D02*
X05438Y07618D01*
X05326Y08362D02*
X05406Y08282D01*
Y07612D02*
Y08282D01*
X05236Y07612D02*
X05406D01*
X04816Y08762D02*
Y08972D01*
X04576Y08582D02*
X04766Y08392D01*
X04476Y08582D02*
X04576D01*
X04476Y08512D02*
X04479Y08509D01*
X05106Y07962D02*
X05326D01*
X04479Y08509D02*
X04559D01*
X05106Y07962*
G54D70*
X02763Y09152D02*
X02763Y09152D01*
X02566Y09152D02*
X02567Y09152D01*
X02763*
X05488Y07702D02*
Y08024D01*
X05826Y08362*
X05566Y08002D02*
X05826Y08262D01*
X05566Y07702D02*
Y08002D01*
X05645Y07981D02*
X05826Y08162D01*
X05645Y07702D02*
Y07981D01*
X05724Y0796D02*
X05826Y08062D01*
X05724Y07702D02*
Y0796D01*
X02418Y07954D02*
X02726Y08262D01*
X02418Y07702D02*
Y07954D01*
X02496Y07932D02*
X02726Y08162D01*
X02496Y07702D02*
Y07932D01*
X02575Y07702D02*
Y07907D01*
X02726Y08059*
Y08062*
Y08362D02*
Y08362D01*
X02339Y07702D02*
Y07974D01*
X02726Y08362*
X02706Y09062D02*
X02763D01*
X02546Y08902D02*
X02706Y09062D01*
X02736Y08577D02*
Y08582D01*
X02726Y08567D02*
X02736Y08577D01*
X02726Y08562D02*
Y08567D01*
X02736Y08582D02*
X02896Y08742D01*
Y08812*
X02766Y09152D02*
X02795Y09182D01*
X02763Y09152D02*
X02786D01*
X02896Y09042*
Y08812D02*
Y09042D01*
X05536Y08652D02*
X05626Y08562D01*
X05826*
X03076Y08042D02*
X03081D01*
X0301Y09033D02*
X03019Y09024D01*
X0301Y09033D02*
Y09062D01*
X03047Y09024D02*
X03076Y08994D01*
X03019Y09024D02*
X03047D01*
X03076Y08042D02*
Y08772D01*
Y08994*
X03161Y07962D02*
X04006D01*
X03081Y08042D02*
X03161Y07962D01*
X04886D02*
X05236Y07612D01*
X04006Y07962D02*
X04326D01*
X04886*
X05156Y09032D02*
X05536Y08652D01*
X0301Y09062D02*
X03096D01*
X02763Y09152D02*
X02766D01*
X03216Y09032D02*
X05156D01*
X03066Y09182D02*
X03216Y09032D01*
X02795Y09182D02*
X03066D01*
X03096Y09062D02*
X03184Y08974D01*
X04814*
X04816Y08972*
X03184Y08914D02*
Y08974D01*
G54D71*
X02566Y08272D02*
Y08322D01*
X02242Y07992D02*
Y07998D01*
X02226Y07962D02*
Y07976D01*
X02242Y07992*
X02496Y08252D02*
Y08322D01*
X02242Y07998D02*
X02496Y08252D01*
X02226Y08562D02*
X02386D01*
X03956Y07712D02*
Y07723D01*
X02286Y07992D02*
X02566Y08272D01*
X02286Y07922D02*
Y07992D01*
X02226Y07862D02*
X02286Y07922D01*
X04656Y08622D02*
Y08852D01*
G54D72*
X04956Y08972D02*
X05056Y08872D01*
X04816Y08972D02*
X04956D01*
G54D74*
X05504Y09252D03*
X05289D03*
G54D75*
X02418Y07702D03*
X02496D03*
X02575D03*
X05566D03*
X05645D03*
X05724D03*
G54D76*
X02339Y07702D03*
X05488D03*
G54D77*
X03856Y07712D03*
X04056D03*
X03956D03*
X04776Y07502D03*
X04876D03*
X03232Y08072D03*
X02976D03*
G54D78*
X04156Y07712D03*
X04976Y07502D03*
G54D79*
X03556Y07512D03*
G54D80*
X03656Y07512D03*
X03756D03*
X03856D03*
X03956D03*
X04056D03*
X04156D03*
X04256D03*
X04356D03*
X04456D03*
G54D81*
X02726Y08562D03*
Y08362D03*
Y08462D03*
Y08262D03*
Y08162D03*
Y08062D03*
Y07962D03*
Y07862D03*
X02226D03*
Y07962D03*
Y08062D03*
Y08162D03*
Y08262D03*
Y08362D03*
Y08462D03*
X05826Y08562D03*
Y08362D03*
Y08462D03*
Y08262D03*
Y08162D03*
Y08062D03*
Y07962D03*
Y07862D03*
X05326D03*
Y07962D03*
Y08062D03*
Y08162D03*
Y08262D03*
Y08362D03*
Y08462D03*
X02466Y09052D03*
X02566Y09152D03*
Y09052D03*
G54D82*
X02226Y08562D03*
X05326D03*
X02466Y09152D03*
G54D83*
X03129Y07689D03*
X04921D03*
G54D84*
X05536Y08652D03*
X02566Y08322D03*
X02496D03*
X02386Y08562D03*
X03426Y08252D03*
X02546Y08902D03*
X02896Y08742D03*
X04086Y07902D03*
X04006Y07962D03*
X05236Y07612D03*
X05116Y07502D03*
X04326Y07962D03*
X04176Y07902D03*
X04476Y08442D03*
X05056Y08872D03*
X04656Y08622D03*
X05106Y08472D03*
X02766Y07632D03*
X03626Y08142D03*
X03486Y07852D03*
X03316Y07572D03*
X03476Y08632D03*
X03166D03*
X02766Y08842D03*
X04656Y07722D03*
X04836Y07842D03*
X05196Y08042D03*
X05146Y07852D03*
X05826Y07742D03*
X03166Y08832D03*
X02166Y08922D03*
X02766Y09272D03*
X03136D03*
X04836Y08482D03*
X04906Y09172D03*
X05116D03*
X05616Y09072D03*
X05836Y08942D03*
X02946Y07542D03*
X05206Y08372D03*
X04816Y08972D03*
X04656Y08852D03*
X03184Y08914D03*
X03296Y09092D03*
X04476Y08582D03*
Y08512D03*
G54D85*
X05492Y09132D03*
X05301D03*
G54D86*
X03426Y08188D03*
Y08137D03*
G54D87*
X02763Y08971D03*
Y09062D03*
Y09152D03*
G54D88*
X0301Y09062D03*
G54D21*
X0818Y07622D03*
X08127D03*
X0904Y07592D03*
X08987D03*
G54D37*
X06904Y08912D03*
X07314Y08772D03*
X07134Y08812D03*
G54D56*
X09729Y09132D03*
X09538D03*
G54D69*
X06464Y08262D02*
Y08362D01*
Y08462*
Y08062D02*
Y08162D01*
X06604Y08362D02*
X06724Y08482D01*
X06464Y08362D02*
X06604D01*
X06724Y08482D02*
Y08842D01*
X07662Y08137D02*
X07664D01*
X07597Y08072D02*
X07662Y08137D01*
X07469Y08072D02*
X07597D01*
X07664Y08188D02*
Y08252D01*
X06724Y08842D02*
X06784Y08902D01*
X08194Y07723D02*
X08244Y07773D01*
X08324Y07754D02*
Y07902D01*
X08294Y07712D02*
Y07724D01*
X08324Y07754*
X07234Y07962D02*
X07314Y08042D01*
X06964Y07962D02*
X07234D01*
X08244Y07773D02*
Y07962D01*
X09114Y07502D02*
Y07511D01*
X09103Y07513D02*
X09114Y07502D01*
X09103Y07513D02*
Y07529D01*
X0904Y07592D02*
X09103Y07529D01*
X0904Y07592D02*
Y07592D01*
X09014Y07502D02*
Y0752D01*
X08987Y07547D02*
Y07592D01*
Y07547D02*
X09014Y0752D01*
X09444Y07582D02*
X09474Y07612D01*
X09185Y07582D02*
X09444D01*
X09114Y07511D02*
X09185Y07582D01*
X09214Y07502D02*
X09354D01*
X08394Y07712D02*
Y07876D01*
X08414Y07896D02*
Y07902D01*
X08394Y07876D02*
X08414Y07896D01*
X09564Y08262D02*
Y08362D01*
Y08462*
Y08062D02*
Y08162D01*
X10064Y07962D02*
X10154Y07872D01*
Y07732D02*
Y07872D01*
X09324Y07902D02*
X09524D01*
X09564Y07862*
X06964Y07962D02*
X06972Y07971D01*
X08784Y08442D02*
X09324Y07902D01*
X08714Y08442D02*
X08784D01*
X09394Y08392D02*
X09564Y08562D01*
X09004Y08392D02*
X09394D01*
X09054Y08762D02*
X09344Y08472D01*
X07004Y07632D02*
X07314Y07942D01*
Y08042*
X08094Y07706D02*
X08127Y07672D01*
Y07622D02*
Y07672D01*
X08094Y07706D02*
Y07712D01*
X0818Y07684D02*
X08194Y07698D01*
Y07712*
X0818Y07622D02*
Y07684D01*
X10039Y07618D02*
X10154Y07732D01*
X09644Y07612D02*
X09669D01*
X09675Y07618D02*
X10039D01*
X09669Y07612D02*
X09675Y07618D01*
X09564Y08362D02*
X09644Y08282D01*
Y07612D02*
Y08282D01*
X09474Y07612D02*
X09644D01*
X09054Y08762D02*
Y08972D01*
X08814Y08582D02*
X09004Y08392D01*
X08714Y08582D02*
X08814D01*
X08714Y08512D02*
X08716Y08509D01*
X09344Y07962D02*
X09564D01*
X08716Y08509D02*
X08796D01*
X09344Y07962*
G54D70*
X07Y09152D02*
X07Y09152D01*
X06804Y09152D02*
X06804Y09152D01*
X07*
X09725Y07702D02*
Y08024D01*
X10064Y08362*
X09804Y08002D02*
X10064Y08262D01*
X09804Y07702D02*
Y08002D01*
X09882Y07981D02*
X10064Y08162D01*
X09882Y07702D02*
Y07981D01*
X09961Y0796D02*
X10064Y08062D01*
X09961Y07702D02*
Y0796D01*
X06655Y07954D02*
X06964Y08262D01*
X06655Y07702D02*
Y07954D01*
X06734Y07932D02*
X06964Y08162D01*
X06734Y07702D02*
Y07932D01*
X06812Y07702D02*
Y07907D01*
X06964Y08059*
Y08062*
Y08362D02*
Y08362D01*
X06576Y07702D02*
Y07974D01*
X06964Y08362*
X06944Y09062D02*
X07D01*
X06784Y08902D02*
X06944Y09062D01*
X06974Y08577D02*
Y08582D01*
X06964Y08567D02*
X06974Y08577D01*
X06964Y08562D02*
Y08567D01*
X06974Y08582D02*
X07134Y08742D01*
Y08812*
X07003Y09152D02*
X07032Y09182D01*
X07Y09152D02*
X07023D01*
X07134Y09042*
Y08812D02*
Y09042D01*
X09774Y08652D02*
X09864Y08562D01*
X10064*
X07314Y08042D02*
X07318D01*
X07247Y09033D02*
X07256Y09024D01*
X07247Y09033D02*
Y09062D01*
X07284Y09024D02*
X07314Y08994D01*
X07256Y09024D02*
X07284D01*
X07314Y08042D02*
Y08772D01*
Y08994*
X07398Y07962D02*
X08244D01*
X07318Y08042D02*
X07398Y07962D01*
X09124D02*
X09474Y07612D01*
X08244Y07962D02*
X08564D01*
X09124*
X09394Y09032D02*
X09774Y08652D01*
X07247Y09062D02*
X07334D01*
X07Y09152D02*
X07003D01*
X07454Y09032D02*
X09394D01*
X07304Y09182D02*
X07454Y09032D01*
X07032Y09182D02*
X07304D01*
X07334Y09062D02*
X07422Y08974D01*
X09052*
X09054Y08972*
X07422Y08914D02*
Y08974D01*
G54D71*
X06804Y08272D02*
Y08322D01*
X06479Y07992D02*
Y07998D01*
X06464Y07962D02*
Y07976D01*
X06479Y07992*
X06734Y08252D02*
Y08322D01*
X06479Y07998D02*
X06734Y08252D01*
X06464Y08562D02*
X06624D01*
X08194Y07712D02*
Y07723D01*
X06524Y07992D02*
X06804Y08272D01*
X06524Y07922D02*
Y07992D01*
X06464Y07862D02*
X06524Y07922D01*
X08894Y08622D02*
Y08852D01*
G54D72*
X09194Y08972D02*
X09294Y08872D01*
X09054Y08972D02*
X09194D01*
G54D74*
X09741Y09252D03*
X09526D03*
G54D75*
X06655Y07702D03*
X06734D03*
X06812D03*
X09804D03*
X09882D03*
X09961D03*
G54D76*
X06576Y07702D03*
X09725D03*
G54D77*
X08094Y07712D03*
X08294D03*
X08194D03*
X09014Y07502D03*
X09114D03*
X07469Y08072D03*
X07214D03*
G54D78*
X08394Y07712D03*
X09214Y07502D03*
G54D79*
X07794Y07512D03*
G54D80*
X07894Y07512D03*
X07994D03*
X08094D03*
X08194D03*
X08294D03*
X08394D03*
X08494D03*
X08594D03*
X08694D03*
G54D81*
X06964Y08562D03*
Y08362D03*
Y08462D03*
Y08262D03*
Y08162D03*
Y08062D03*
Y07962D03*
Y07862D03*
X06464D03*
Y07962D03*
Y08062D03*
Y08162D03*
Y08262D03*
Y08362D03*
Y08462D03*
X10064Y08562D03*
Y08362D03*
Y08462D03*
Y08262D03*
Y08162D03*
Y08062D03*
Y07962D03*
Y07862D03*
X09564D03*
Y07962D03*
Y08062D03*
Y08162D03*
Y08262D03*
Y08362D03*
Y08462D03*
X06704Y09052D03*
X06804Y09152D03*
Y09052D03*
G54D82*
X06464Y08562D03*
X09564D03*
X06704Y09152D03*
G54D83*
X07366Y07689D03*
X09158D03*
G54D84*
X09774Y08652D03*
X06804Y08322D03*
X06734D03*
X06624Y08562D03*
X07664Y08252D03*
X06784Y08902D03*
X07134Y08742D03*
X08324Y07902D03*
X08244Y07962D03*
X09474Y07612D03*
X09354Y07502D03*
X08564Y07962D03*
X08414Y07902D03*
X08714Y08442D03*
X09294Y08872D03*
X08894Y08622D03*
X09344Y08472D03*
X07004Y07632D03*
X07864Y08142D03*
X07724Y07852D03*
X07554Y07572D03*
X07714Y08632D03*
X07404D03*
X07004Y08842D03*
X08894Y07722D03*
X09074Y07842D03*
X09434Y08042D03*
X09384Y07852D03*
X10064Y07742D03*
X07404Y08832D03*
X06404Y08922D03*
X07004Y09272D03*
X07374D03*
X09074Y08482D03*
X09144Y09172D03*
X09354D03*
X09854Y09072D03*
X10074Y08942D03*
X07184Y07542D03*
X09444Y08372D03*
X09054Y08972D03*
X08894Y08852D03*
X07422Y08914D03*
X07534Y09092D03*
X08714Y08582D03*
Y08512D03*
G54D85*
X09729Y09132D03*
X09538D03*
G54D86*
X07664Y08188D03*
Y08137D03*
G54D87*
X07Y08971D03*
Y09062D03*
Y09152D03*
G54D88*
X07247Y09062D03*
G54D21*
X03943Y09884D03*
X0389D03*
X04803Y09854D03*
X0475D03*
G54D37*
X02666Y11174D03*
X03076Y11034D03*
X02896Y11074D03*
G54D56*
X05492Y11394D03*
X05301D03*
G54D69*
X02226Y10524D02*
Y10624D01*
Y10724*
Y10324D02*
Y10424D01*
X02366Y10624D02*
X02486Y10744D01*
X02226Y10624D02*
X02366D01*
X02486Y10744D02*
Y11104D01*
X03425Y10398D02*
X03426D01*
X0336Y10334D02*
X03425Y10398D01*
X03232Y10334D02*
X0336D01*
X03426Y10449D02*
Y10514D01*
X02486Y11104D02*
X02546Y11164D01*
X03956Y09984D02*
X04006Y10034D01*
X04086Y10015D02*
Y10164D01*
X04056Y09974D02*
Y09985D01*
X04086Y10015*
X02996Y10224D02*
X03076Y10304D01*
X02726Y10224D02*
X02996D01*
X04006Y10034D02*
Y10224D01*
X04876Y09764D02*
Y09772D01*
X04866Y09774D02*
X04876Y09764D01*
X04866Y09774D02*
Y0979D01*
X04803Y09853D02*
X04866Y0979D01*
X04803Y09853D02*
Y09854D01*
X04776Y09764D02*
Y09781D01*
X0475Y09808D02*
Y09854D01*
Y09808D02*
X04776Y09781D01*
X05206Y09844D02*
X05236Y09874D01*
X04948Y09844D02*
X05206D01*
X04876Y09772D02*
X04948Y09844D01*
X04976Y09764D02*
X05116D01*
X04156Y09974D02*
Y10137D01*
X04176Y10157D02*
Y10164D01*
X04156Y10137D02*
X04176Y10157D01*
X05326Y10524D02*
Y10624D01*
Y10724*
Y10324D02*
Y10424D01*
X05826Y10224D02*
X05916Y10134D01*
Y09994D02*
Y10134D01*
X05086Y10164D02*
X05286D01*
X05326Y10124*
X02726Y10224D02*
X02735Y10232D01*
X04546Y10704D02*
X05086Y10164D01*
X04476Y10704D02*
X04546D01*
X05156Y10654D02*
X05326Y10824D01*
X04766Y10654D02*
X05156D01*
X04816Y11024D02*
X05106Y10734D01*
X02766Y09894D02*
X03076Y10204D01*
Y10304*
X03856Y09967D02*
X0389Y09933D01*
Y09884D02*
Y09933D01*
X03856Y09967D02*
Y09974D01*
X03943Y09945D02*
X03956Y09959D01*
Y09974*
X03943Y09884D02*
Y09945D01*
X05802Y09879D02*
X05916Y09994D01*
X05406Y09874D02*
X05432D01*
X05438Y09879D02*
X05802D01*
X05432Y09874D02*
X05438Y09879D01*
X05326Y10624D02*
X05406Y10544D01*
Y09874D02*
Y10544D01*
X05236Y09874D02*
X05406D01*
X04816Y11024D02*
Y11234D01*
X04576Y10844D02*
X04766Y10654D01*
X04476Y10844D02*
X04576D01*
X04476Y10774D02*
X04479Y10771D01*
X05106Y10224D02*
X05326D01*
X04479Y10771D02*
X04559D01*
X05106Y10224*
G54D70*
X02763Y11414D02*
X02763Y11414D01*
X02566Y11414D02*
X02567Y11414D01*
X02763*
X05488Y09964D02*
Y10285D01*
X05826Y10624*
X05566Y10264D02*
X05826Y10524D01*
X05566Y09964D02*
Y10264D01*
X05645Y10242D02*
X05826Y10424D01*
X05645Y09964D02*
Y10242D01*
X05724Y10221D02*
X05826Y10324D01*
X05724Y09964D02*
Y10221D01*
X02418Y10215D02*
X02726Y10524D01*
X02418Y09964D02*
Y10215D01*
X02496Y10194D02*
X02726Y10424D01*
X02496Y09964D02*
Y10194D01*
X02575Y09964D02*
Y10168D01*
X02726Y1032*
Y10324*
Y10623D02*
Y10624D01*
X02339Y09964D02*
Y10235D01*
X02726Y10623*
X02706Y11324D02*
X02763D01*
X02546Y11164D02*
X02706Y11324D01*
X02736Y10839D02*
Y10844D01*
X02726Y10829D02*
X02736Y10839D01*
X02726Y10824D02*
Y10829D01*
X02736Y10844D02*
X02896Y11004D01*
Y11074*
X02766Y11414D02*
X02795Y11444D01*
X02763Y11414D02*
X02786D01*
X02896Y11304*
Y11074D02*
Y11304D01*
X05536Y10914D02*
X05626Y10824D01*
X05826*
X03076Y10304D02*
X03081D01*
X0301Y11295D02*
X03019Y11286D01*
X0301Y11295D02*
Y11324D01*
X03047Y11286D02*
X03076Y11256D01*
X03019Y11286D02*
X03047D01*
X03076Y10304D02*
Y11034D01*
Y11256*
X03161Y10224D02*
X04006D01*
X03081Y10304D02*
X03161Y10224D01*
X04886D02*
X05236Y09874D01*
X04006Y10224D02*
X04326D01*
X04886*
X05156Y11294D02*
X05536Y10914D01*
X0301Y11324D02*
X03096D01*
X02763Y11414D02*
X02766D01*
X03216Y11294D02*
X05156D01*
X03066Y11444D02*
X03216Y11294D01*
X02795Y11444D02*
X03066D01*
X03096Y11324D02*
X03184Y11236D01*
X04814*
X04816Y11234*
X03184Y11176D02*
Y11236D01*
G54D71*
X02566Y10534D02*
Y10584D01*
X02242Y10253D02*
Y10259D01*
X02226Y10224D02*
Y10237D01*
X02242Y10253*
X02496Y10514D02*
Y10584D01*
X02242Y10259D02*
X02496Y10514D01*
X02226Y10824D02*
X02386D01*
X03956Y09974D02*
Y09984D01*
X02286Y10254D02*
X02566Y10534D01*
X02286Y10184D02*
Y10254D01*
X02226Y10124D02*
X02286Y10184D01*
X04656Y10884D02*
Y11114D01*
G54D72*
X04956Y11234D02*
X05056Y11134D01*
X04816Y11234D02*
X04956D01*
G54D74*
X05504Y11514D03*
X05289D03*
G54D75*
X02418Y09964D03*
X02496D03*
X02575D03*
X05566D03*
X05645D03*
X05724D03*
G54D76*
X02339Y09964D03*
X05488D03*
G54D77*
X03856Y09974D03*
X04056D03*
X03956D03*
X04776Y09764D03*
X04876D03*
X03232Y10334D03*
X02976D03*
G54D78*
X04156Y09974D03*
X04976Y09764D03*
G54D79*
X03556Y09774D03*
G54D80*
X03656Y09774D03*
X03756D03*
X03856D03*
X03956D03*
X04056D03*
X04156D03*
X04256D03*
X04356D03*
X04456D03*
G54D81*
X02726Y10824D03*
Y10624D03*
Y10724D03*
Y10524D03*
Y10424D03*
Y10324D03*
Y10224D03*
Y10124D03*
X02226D03*
Y10224D03*
Y10324D03*
Y10424D03*
Y10524D03*
Y10624D03*
Y10724D03*
X05826Y10824D03*
Y10624D03*
Y10724D03*
Y10524D03*
Y10424D03*
Y10324D03*
Y10224D03*
Y10124D03*
X05326D03*
Y10224D03*
Y10324D03*
Y10424D03*
Y10524D03*
Y10624D03*
Y10724D03*
X02466Y11314D03*
X02566Y11414D03*
Y11314D03*
G54D82*
X02226Y10824D03*
X05326D03*
X02466Y11414D03*
G54D83*
X03129Y0995D03*
X04921D03*
G54D84*
X05536Y10914D03*
X02566Y10584D03*
X02496D03*
X02386Y10824D03*
X03426Y10514D03*
X02546Y11164D03*
X02896Y11004D03*
X04086Y10164D03*
X04006Y10224D03*
X05236Y09874D03*
X05116Y09764D03*
X04326Y10224D03*
X04176Y10164D03*
X04476Y10704D03*
X05056Y11134D03*
X04656Y10884D03*
X05106Y10734D03*
X02766Y09894D03*
X03626Y10404D03*
X03486Y10114D03*
X03316Y09834D03*
X03476Y10894D03*
X03166D03*
X02766Y11104D03*
X04656Y09984D03*
X04836Y10104D03*
X05196Y10304D03*
X05146Y10114D03*
X05826Y10004D03*
X03166Y11094D03*
X02166Y11184D03*
X02766Y11534D03*
X03136D03*
X04836Y10744D03*
X04906Y11434D03*
X05116D03*
X05616Y11334D03*
X05836Y11204D03*
X02946Y09804D03*
X05206Y10634D03*
X04816Y11234D03*
X04656Y11114D03*
X03184Y11176D03*
X03296Y11354D03*
X04476Y10844D03*
Y10774D03*
G54D85*
X05492Y11394D03*
X05301D03*
G54D86*
X03426Y10449D03*
Y10398D03*
G54D87*
X02763Y11233D03*
Y11324D03*
Y11414D03*
G54D88*
X0301Y11324D03*
G54D21*
X0818Y09884D03*
X08127D03*
X0904Y09854D03*
X08987D03*
G54D37*
X06904Y11174D03*
X07314Y11034D03*
X07134Y11074D03*
G54D56*
X09729Y11394D03*
X09538D03*
G54D69*
X06464Y10524D02*
Y10624D01*
Y10724*
Y10324D02*
Y10424D01*
X06604Y10624D02*
X06724Y10744D01*
X06464Y10624D02*
X06604D01*
X06724Y10744D02*
Y11104D01*
X07662Y10398D02*
X07664D01*
X07597Y10334D02*
X07662Y10398D01*
X07469Y10334D02*
X07597D01*
X07664Y10449D02*
Y10514D01*
X06724Y11104D02*
X06784Y11164D01*
X08194Y09984D02*
X08244Y10034D01*
X08324Y10015D02*
Y10164D01*
X08294Y09974D02*
Y09985D01*
X08324Y10015*
X07234Y10224D02*
X07314Y10304D01*
X06964Y10224D02*
X07234D01*
X08244Y10034D02*
Y10224D01*
X09114Y09764D02*
Y09772D01*
X09103Y09774D02*
X09114Y09764D01*
X09103Y09774D02*
Y0979D01*
X0904Y09853D02*
X09103Y0979D01*
X0904Y09853D02*
Y09854D01*
X09014Y09764D02*
Y09781D01*
X08987Y09808D02*
Y09854D01*
Y09808D02*
X09014Y09781D01*
X09444Y09844D02*
X09474Y09874D01*
X09185Y09844D02*
X09444D01*
X09114Y09772D02*
X09185Y09844D01*
X09214Y09764D02*
X09354D01*
X08394Y09974D02*
Y10137D01*
X08414Y10157D02*
Y10164D01*
X08394Y10137D02*
X08414Y10157D01*
X09564Y10524D02*
Y10624D01*
Y10724*
Y10324D02*
Y10424D01*
X10064Y10224D02*
X10154Y10134D01*
Y09994D02*
Y10134D01*
X09324Y10164D02*
X09524D01*
X09564Y10124*
X06964Y10224D02*
X06972Y10232D01*
X08784Y10704D02*
X09324Y10164D01*
X08714Y10704D02*
X08784D01*
X09394Y10654D02*
X09564Y10824D01*
X09004Y10654D02*
X09394D01*
X09054Y11024D02*
X09344Y10734D01*
X07004Y09894D02*
X07314Y10204D01*
Y10304*
X08094Y09967D02*
X08127Y09933D01*
Y09884D02*
Y09933D01*
X08094Y09967D02*
Y09974D01*
X0818Y09945D02*
X08194Y09959D01*
Y09974*
X0818Y09884D02*
Y09945D01*
X10039Y09879D02*
X10154Y09994D01*
X09644Y09874D02*
X09669D01*
X09675Y09879D02*
X10039D01*
X09669Y09874D02*
X09675Y09879D01*
X09564Y10624D02*
X09644Y10544D01*
Y09874D02*
Y10544D01*
X09474Y09874D02*
X09644D01*
X09054Y11024D02*
Y11234D01*
X08814Y10844D02*
X09004Y10654D01*
X08714Y10844D02*
X08814D01*
X08714Y10774D02*
X08716Y10771D01*
X09344Y10224D02*
X09564D01*
X08716Y10771D02*
X08796D01*
X09344Y10224*
G54D70*
X07Y11414D02*
X07Y11414D01*
X06804Y11414D02*
X06804Y11414D01*
X07*
X09725Y09964D02*
Y10285D01*
X10064Y10624*
X09804Y10264D02*
X10064Y10524D01*
X09804Y09964D02*
Y10264D01*
X09882Y10242D02*
X10064Y10424D01*
X09882Y09964D02*
Y10242D01*
X09961Y10221D02*
X10064Y10324D01*
X09961Y09964D02*
Y10221D01*
X06655Y10215D02*
X06964Y10524D01*
X06655Y09964D02*
Y10215D01*
X06734Y10194D02*
X06964Y10424D01*
X06734Y09964D02*
Y10194D01*
X06812Y09964D02*
Y10168D01*
X06964Y1032*
Y10324*
Y10623D02*
Y10624D01*
X06576Y09964D02*
Y10235D01*
X06964Y10623*
X06944Y11324D02*
X07D01*
X06784Y11164D02*
X06944Y11324D01*
X06974Y10839D02*
Y10844D01*
X06964Y10829D02*
X06974Y10839D01*
X06964Y10824D02*
Y10829D01*
X06974Y10844D02*
X07134Y11004D01*
Y11074*
X07003Y11414D02*
X07032Y11444D01*
X07Y11414D02*
X07023D01*
X07134Y11304*
Y11074D02*
Y11304D01*
X09774Y10914D02*
X09864Y10824D01*
X10064*
X07314Y10304D02*
X07318D01*
X07247Y11295D02*
X07256Y11286D01*
X07247Y11295D02*
Y11324D01*
X07284Y11286D02*
X07314Y11256D01*
X07256Y11286D02*
X07284D01*
X07314Y10304D02*
Y11034D01*
Y11256*
X07398Y10224D02*
X08244D01*
X07318Y10304D02*
X07398Y10224D01*
X09124D02*
X09474Y09874D01*
X08244Y10224D02*
X08564D01*
X09124*
X09394Y11294D02*
X09774Y10914D01*
X07247Y11324D02*
X07334D01*
X07Y11414D02*
X07003D01*
X07454Y11294D02*
X09394D01*
X07304Y11444D02*
X07454Y11294D01*
X07032Y11444D02*
X07304D01*
X07334Y11324D02*
X07422Y11236D01*
X09052*
X09054Y11234*
X07422Y11176D02*
Y11236D01*
G54D71*
X06804Y10534D02*
Y10584D01*
X06479Y10253D02*
Y10259D01*
X06464Y10224D02*
Y10237D01*
X06479Y10253*
X06734Y10514D02*
Y10584D01*
X06479Y10259D02*
X06734Y10514D01*
X06464Y10824D02*
X06624D01*
X08194Y09974D02*
Y09984D01*
X06524Y10254D02*
X06804Y10534D01*
X06524Y10184D02*
Y10254D01*
X06464Y10124D02*
X06524Y10184D01*
X08894Y10884D02*
Y11114D01*
G54D72*
X09194Y11234D02*
X09294Y11134D01*
X09054Y11234D02*
X09194D01*
G54D74*
X09741Y11514D03*
X09526D03*
G54D75*
X06655Y09964D03*
X06734D03*
X06812D03*
X09804D03*
X09882D03*
X09961D03*
G54D76*
X06576Y09964D03*
X09725D03*
G54D77*
X08094Y09974D03*
X08294D03*
X08194D03*
X09014Y09764D03*
X09114D03*
X07469Y10334D03*
X07214D03*
G54D78*
X08394Y09974D03*
X09214Y09764D03*
G54D79*
X07794Y09774D03*
G54D80*
X07894Y09774D03*
X07994D03*
X08094D03*
X08194D03*
X08294D03*
X08394D03*
X08494D03*
X08594D03*
X08694D03*
G54D81*
X06964Y10824D03*
Y10624D03*
Y10724D03*
Y10524D03*
Y10424D03*
Y10324D03*
Y10224D03*
Y10124D03*
X06464D03*
Y10224D03*
Y10324D03*
Y10424D03*
Y10524D03*
Y10624D03*
Y10724D03*
X10064Y10824D03*
Y10624D03*
Y10724D03*
Y10524D03*
Y10424D03*
Y10324D03*
Y10224D03*
Y10124D03*
X09564D03*
Y10224D03*
Y10324D03*
Y10424D03*
Y10524D03*
Y10624D03*
Y10724D03*
X06704Y11314D03*
X06804Y11414D03*
Y11314D03*
G54D82*
X06464Y10824D03*
X09564D03*
X06704Y11414D03*
G54D83*
X07366Y0995D03*
X09158D03*
G54D84*
X09774Y10914D03*
X06804Y10584D03*
X06734D03*
X06624Y10824D03*
X07664Y10514D03*
X06784Y11164D03*
X07134Y11004D03*
X08324Y10164D03*
X08244Y10224D03*
X09474Y09874D03*
X09354Y09764D03*
X08564Y10224D03*
X08414Y10164D03*
X08714Y10704D03*
X09294Y11134D03*
X08894Y10884D03*
X09344Y10734D03*
X07004Y09894D03*
X07864Y10404D03*
X07724Y10114D03*
X07554Y09834D03*
X07714Y10894D03*
X07404D03*
X07004Y11104D03*
X08894Y09984D03*
X09074Y10104D03*
X09434Y10304D03*
X09384Y10114D03*
X10064Y10004D03*
X07404Y11094D03*
X06404Y11184D03*
X07004Y11534D03*
X07374D03*
X09074Y10744D03*
X09144Y11434D03*
X09354D03*
X09854Y11334D03*
X10074Y11204D03*
X07184Y09804D03*
X09444Y10634D03*
X09054Y11234D03*
X08894Y11114D03*
X07422Y11176D03*
X07534Y11354D03*
X08714Y10844D03*
Y10774D03*
G54D85*
X09729Y11394D03*
X09538D03*
G54D86*
X07664Y10449D03*
Y10398D03*
G54D87*
X07Y11233D03*
Y11324D03*
Y11414D03*
G54D88*
X07247Y11324D03*
G54D21*
X03943Y12146D03*
X0389D03*
X04803Y12116D03*
X0475D03*
G54D37*
X02666Y13436D03*
X03076Y13296D03*
X02896Y13336D03*
G54D56*
X05492Y13656D03*
X05301D03*
G54D69*
X02226Y12786D02*
Y12886D01*
Y12986*
Y12586D02*
Y12686D01*
X02366Y12886D02*
X02486Y13006D01*
X02226Y12886D02*
X02366D01*
X02486Y13006D02*
Y13366D01*
X03425Y1266D02*
X03426D01*
X0336Y12596D02*
X03425Y1266D01*
X03232Y12596D02*
X0336D01*
X03426Y12711D02*
Y12776D01*
X02486Y13366D02*
X02546Y13426D01*
X03956Y12246D02*
X04006Y12296D01*
X04086Y12277D02*
Y12426D01*
X04056Y12236D02*
Y12247D01*
X04086Y12277*
X02996Y12486D02*
X03076Y12566D01*
X02726Y12486D02*
X02996D01*
X04006Y12296D02*
Y12486D01*
X04876Y12026D02*
Y12034D01*
X04866Y12036D02*
X04876Y12026D01*
X04866Y12036D02*
Y12052D01*
X04803Y12115D02*
X04866Y12052D01*
X04803Y12115D02*
Y12116D01*
X04776Y12026D02*
Y12043D01*
X0475Y1207D02*
Y12116D01*
Y1207D02*
X04776Y12043D01*
X05206Y12106D02*
X05236Y12136D01*
X04948Y12106D02*
X05206D01*
X04876Y12034D02*
X04948Y12106D01*
X04976Y12026D02*
X05116D01*
X04156Y12236D02*
Y12399D01*
X04176Y12419D02*
Y12426D01*
X04156Y12399D02*
X04176Y12419D01*
X05326Y12786D02*
Y12886D01*
Y12986*
Y12586D02*
Y12686D01*
X05826Y12486D02*
X05916Y12396D01*
Y12256D02*
Y12396D01*
X05086Y12426D02*
X05286D01*
X05326Y12386*
X02726Y12486D02*
X02735Y12494D01*
X04546Y12966D02*
X05086Y12426D01*
X04476Y12966D02*
X04546D01*
X05156Y12916D02*
X05326Y13086D01*
X04766Y12916D02*
X05156D01*
X04816Y13286D02*
X05106Y12996D01*
X02766Y12156D02*
X03076Y12466D01*
Y12566*
X03856Y12229D02*
X0389Y12195D01*
Y12146D02*
Y12195D01*
X03856Y12229D02*
Y12236D01*
X03943Y12207D02*
X03956Y12221D01*
Y12236*
X03943Y12146D02*
Y12207D01*
X05802Y12141D02*
X05916Y12256D01*
X05406Y12136D02*
X05432D01*
X05438Y12141D02*
X05802D01*
X05432Y12136D02*
X05438Y12141D01*
X05326Y12886D02*
X05406Y12806D01*
Y12136D02*
Y12806D01*
X05236Y12136D02*
X05406D01*
X04816Y13286D02*
Y13496D01*
X04576Y13106D02*
X04766Y12916D01*
X04476Y13106D02*
X04576D01*
X04476Y13036D02*
X04479Y13033D01*
X05106Y12486D02*
X05326D01*
X04479Y13033D02*
X04559D01*
X05106Y12486*
G54D70*
X02763Y13676D02*
X02763Y13676D01*
X02566Y13676D02*
X02567Y13676D01*
X02763*
X05488Y12226D02*
Y12547D01*
X05826Y12886*
X05566Y12526D02*
X05826Y12786D01*
X05566Y12226D02*
Y12526D01*
X05645Y12504D02*
X05826Y12686D01*
X05645Y12226D02*
Y12504D01*
X05724Y12483D02*
X05826Y12586D01*
X05724Y12226D02*
Y12483D01*
X02418Y12477D02*
X02726Y12786D01*
X02418Y12226D02*
Y12477D01*
X02496Y12456D02*
X02726Y12686D01*
X02496Y12226D02*
Y12456D01*
X02575Y12226D02*
Y1243D01*
X02726Y12582*
Y12586*
Y12885D02*
Y12886D01*
X02339Y12226D02*
Y12497D01*
X02726Y12885*
X02706Y13586D02*
X02763D01*
X02546Y13426D02*
X02706Y13586D01*
X02736Y13101D02*
Y13106D01*
X02726Y13091D02*
X02736Y13101D01*
X02726Y13086D02*
Y13091D01*
X02736Y13106D02*
X02896Y13266D01*
Y13336*
X02766Y13676D02*
X02795Y13706D01*
X02763Y13676D02*
X02786D01*
X02896Y13566*
Y13336D02*
Y13566D01*
X05536Y13176D02*
X05626Y13086D01*
X05826*
X03076Y12566D02*
X03081D01*
X0301Y13557D02*
X03019Y13548D01*
X0301Y13557D02*
Y13586D01*
X03047Y13548D02*
X03076Y13518D01*
X03019Y13548D02*
X03047D01*
X03076Y12566D02*
Y13296D01*
Y13518*
X03161Y12486D02*
X04006D01*
X03081Y12566D02*
X03161Y12486D01*
X04886D02*
X05236Y12136D01*
X04006Y12486D02*
X04326D01*
X04886*
X05156Y13556D02*
X05536Y13176D01*
X0301Y13586D02*
X03096D01*
X02763Y13676D02*
X02766D01*
X03216Y13556D02*
X05156D01*
X03066Y13706D02*
X03216Y13556D01*
X02795Y13706D02*
X03066D01*
X03096Y13586D02*
X03184Y13498D01*
X04814*
X04816Y13496*
X03184Y13438D02*
Y13498D01*
G54D71*
X02566Y12796D02*
Y12846D01*
X02242Y12515D02*
Y12521D01*
X02226Y12486D02*
Y12499D01*
X02242Y12515*
X02496Y12776D02*
Y12846D01*
X02242Y12521D02*
X02496Y12776D01*
X02226Y13086D02*
X02386D01*
X03956Y12236D02*
Y12246D01*
X02286Y12516D02*
X02566Y12796D01*
X02286Y12446D02*
Y12516D01*
X02226Y12386D02*
X02286Y12446D01*
X04656Y13146D02*
Y13376D01*
G54D72*
X04956Y13496D02*
X05056Y13396D01*
X04816Y13496D02*
X04956D01*
G54D74*
X05504Y13776D03*
X05289D03*
G54D75*
X02418Y12226D03*
X02496D03*
X02575D03*
X05566D03*
X05645D03*
X05724D03*
G54D76*
X02339Y12226D03*
X05488D03*
G54D77*
X03856Y12236D03*
X04056D03*
X03956D03*
X04776Y12026D03*
X04876D03*
X03232Y12596D03*
X02976D03*
G54D78*
X04156Y12236D03*
X04976Y12026D03*
G54D79*
X03556Y12036D03*
G54D80*
X03656Y12036D03*
X03756D03*
X03856D03*
X03956D03*
X04056D03*
X04156D03*
X04256D03*
X04356D03*
X04456D03*
G54D81*
X02726Y13086D03*
Y12886D03*
Y12986D03*
Y12786D03*
Y12686D03*
Y12586D03*
Y12486D03*
Y12386D03*
X02226D03*
Y12486D03*
Y12586D03*
Y12686D03*
Y12786D03*
Y12886D03*
Y12986D03*
X05826Y13086D03*
Y12886D03*
Y12986D03*
Y12786D03*
Y12686D03*
Y12586D03*
Y12486D03*
Y12386D03*
X05326D03*
Y12486D03*
Y12586D03*
Y12686D03*
Y12786D03*
Y12886D03*
Y12986D03*
X02466Y13576D03*
X02566Y13676D03*
Y13576D03*
G54D82*
X02226Y13086D03*
X05326D03*
X02466Y13676D03*
G54D83*
X03129Y12212D03*
X04921D03*
G54D84*
X05536Y13176D03*
X02566Y12846D03*
X02496D03*
X02386Y13086D03*
X03426Y12776D03*
X02546Y13426D03*
X02896Y13266D03*
X04086Y12426D03*
X04006Y12486D03*
X05236Y12136D03*
X05116Y12026D03*
X04326Y12486D03*
X04176Y12426D03*
X04476Y12966D03*
X05056Y13396D03*
X04656Y13146D03*
X05106Y12996D03*
X02766Y12156D03*
X03626Y12666D03*
X03486Y12376D03*
X03316Y12096D03*
X03476Y13156D03*
X03166D03*
X02766Y13366D03*
X04656Y12246D03*
X04836Y12366D03*
X05196Y12566D03*
X05146Y12376D03*
X05826Y12266D03*
X03166Y13356D03*
X02166Y13446D03*
X02766Y13796D03*
X03136D03*
X04836Y13006D03*
X04906Y13696D03*
X05116D03*
X05616Y13596D03*
X05836Y13466D03*
X02946Y12066D03*
X05206Y12896D03*
X04816Y13496D03*
X04656Y13376D03*
X03184Y13438D03*
X03296Y13616D03*
X04476Y13106D03*
Y13036D03*
G54D85*
X05492Y13656D03*
X05301D03*
G54D86*
X03426Y12711D03*
Y1266D03*
G54D87*
X02763Y13495D03*
Y13586D03*
Y13676D03*
G54D88*
X0301Y13586D03*
G54D21*
X0818Y12146D03*
X08127D03*
X0904Y12116D03*
X08987D03*
G54D37*
X06904Y13436D03*
X07314Y13296D03*
X07134Y13336D03*
G54D56*
X09729Y13656D03*
X09538D03*
G54D69*
X06464Y12786D02*
Y12886D01*
Y12986*
Y12586D02*
Y12686D01*
X06604Y12886D02*
X06724Y13006D01*
X06464Y12886D02*
X06604D01*
X06724Y13006D02*
Y13366D01*
X07662Y1266D02*
X07664D01*
X07597Y12596D02*
X07662Y1266D01*
X07469Y12596D02*
X07597D01*
X07664Y12711D02*
Y12776D01*
X06724Y13366D02*
X06784Y13426D01*
X08194Y12246D02*
X08244Y12296D01*
X08324Y12277D02*
Y12426D01*
X08294Y12236D02*
Y12247D01*
X08324Y12277*
X07234Y12486D02*
X07314Y12566D01*
X06964Y12486D02*
X07234D01*
X08244Y12296D02*
Y12486D01*
X09114Y12026D02*
Y12034D01*
X09103Y12036D02*
X09114Y12026D01*
X09103Y12036D02*
Y12052D01*
X0904Y12115D02*
X09103Y12052D01*
X0904Y12115D02*
Y12116D01*
X09014Y12026D02*
Y12043D01*
X08987Y1207D02*
Y12116D01*
Y1207D02*
X09014Y12043D01*
X09444Y12106D02*
X09474Y12136D01*
X09185Y12106D02*
X09444D01*
X09114Y12034D02*
X09185Y12106D01*
X09214Y12026D02*
X09354D01*
X08394Y12236D02*
Y12399D01*
X08414Y12419D02*
Y12426D01*
X08394Y12399D02*
X08414Y12419D01*
X09564Y12786D02*
Y12886D01*
Y12986*
Y12586D02*
Y12686D01*
X10064Y12486D02*
X10154Y12396D01*
Y12256D02*
Y12396D01*
X09324Y12426D02*
X09524D01*
X09564Y12386*
X06964Y12486D02*
X06972Y12494D01*
X08784Y12966D02*
X09324Y12426D01*
X08714Y12966D02*
X08784D01*
X09394Y12916D02*
X09564Y13086D01*
X09004Y12916D02*
X09394D01*
X09054Y13286D02*
X09344Y12996D01*
X07004Y12156D02*
X07314Y12466D01*
Y12566*
X08094Y12229D02*
X08127Y12195D01*
Y12146D02*
Y12195D01*
X08094Y12229D02*
Y12236D01*
X0818Y12207D02*
X08194Y12221D01*
Y12236*
X0818Y12146D02*
Y12207D01*
X10039Y12141D02*
X10154Y12256D01*
X09644Y12136D02*
X09669D01*
X09675Y12141D02*
X10039D01*
X09669Y12136D02*
X09675Y12141D01*
X09564Y12886D02*
X09644Y12806D01*
Y12136D02*
Y12806D01*
X09474Y12136D02*
X09644D01*
X09054Y13286D02*
Y13496D01*
X08814Y13106D02*
X09004Y12916D01*
X08714Y13106D02*
X08814D01*
X08714Y13036D02*
X08716Y13033D01*
X09344Y12486D02*
X09564D01*
X08716Y13033D02*
X08796D01*
X09344Y12486*
G54D70*
X07Y13676D02*
X07Y13676D01*
X06804Y13676D02*
X06804Y13676D01*
X07*
X09725Y12226D02*
Y12547D01*
X10064Y12886*
X09804Y12526D02*
X10064Y12786D01*
X09804Y12226D02*
Y12526D01*
X09882Y12504D02*
X10064Y12686D01*
X09882Y12226D02*
Y12504D01*
X09961Y12483D02*
X10064Y12586D01*
X09961Y12226D02*
Y12483D01*
X06655Y12477D02*
X06964Y12786D01*
X06655Y12226D02*
Y12477D01*
X06734Y12456D02*
X06964Y12686D01*
X06734Y12226D02*
Y12456D01*
X06812Y12226D02*
Y1243D01*
X06964Y12582*
Y12586*
Y12885D02*
Y12886D01*
X06576Y12226D02*
Y12497D01*
X06964Y12885*
X06944Y13586D02*
X07D01*
X06784Y13426D02*
X06944Y13586D01*
X06974Y13101D02*
Y13106D01*
X06964Y13091D02*
X06974Y13101D01*
X06964Y13086D02*
Y13091D01*
X06974Y13106D02*
X07134Y13266D01*
Y13336*
X07003Y13676D02*
X07032Y13706D01*
X07Y13676D02*
X07023D01*
X07134Y13566*
Y13336D02*
Y13566D01*
X09774Y13176D02*
X09864Y13086D01*
X10064*
X07314Y12566D02*
X07318D01*
X07247Y13557D02*
X07256Y13548D01*
X07247Y13557D02*
Y13586D01*
X07284Y13548D02*
X07314Y13518D01*
X07256Y13548D02*
X07284D01*
X07314Y12566D02*
Y13296D01*
Y13518*
X07398Y12486D02*
X08244D01*
X07318Y12566D02*
X07398Y12486D01*
X09124D02*
X09474Y12136D01*
X08244Y12486D02*
X08564D01*
X09124*
X09394Y13556D02*
X09774Y13176D01*
X07247Y13586D02*
X07334D01*
X07Y13676D02*
X07003D01*
X07454Y13556D02*
X09394D01*
X07304Y13706D02*
X07454Y13556D01*
X07032Y13706D02*
X07304D01*
X07334Y13586D02*
X07422Y13498D01*
X09052*
X09054Y13496*
X07422Y13438D02*
Y13498D01*
G54D71*
X06804Y12796D02*
Y12846D01*
X06479Y12515D02*
Y12521D01*
X06464Y12486D02*
Y12499D01*
X06479Y12515*
X06734Y12776D02*
Y12846D01*
X06479Y12521D02*
X06734Y12776D01*
X06464Y13086D02*
X06624D01*
X08194Y12236D02*
Y12246D01*
X06524Y12516D02*
X06804Y12796D01*
X06524Y12446D02*
Y12516D01*
X06464Y12386D02*
X06524Y12446D01*
X08894Y13146D02*
Y13376D01*
G54D72*
X09194Y13496D02*
X09294Y13396D01*
X09054Y13496D02*
X09194D01*
G54D74*
X09741Y13776D03*
X09526D03*
G54D75*
X06655Y12226D03*
X06734D03*
X06812D03*
X09804D03*
X09882D03*
X09961D03*
G54D76*
X06576Y12226D03*
X09725D03*
G54D77*
X08094Y12236D03*
X08294D03*
X08194D03*
X09014Y12026D03*
X09114D03*
X07469Y12596D03*
X07214D03*
G54D78*
X08394Y12236D03*
X09214Y12026D03*
G54D79*
X07794Y12036D03*
G54D80*
X07894Y12036D03*
X07994D03*
X08094D03*
X08194D03*
X08294D03*
X08394D03*
X08494D03*
X08594D03*
X08694D03*
G54D81*
X06964Y13086D03*
Y12886D03*
Y12986D03*
Y12786D03*
Y12686D03*
Y12586D03*
Y12486D03*
Y12386D03*
X06464D03*
Y12486D03*
Y12586D03*
Y12686D03*
Y12786D03*
Y12886D03*
Y12986D03*
X10064Y13086D03*
Y12886D03*
Y12986D03*
Y12786D03*
Y12686D03*
Y12586D03*
Y12486D03*
Y12386D03*
X09564D03*
Y12486D03*
Y12586D03*
Y12686D03*
Y12786D03*
Y12886D03*
Y12986D03*
X06704Y13576D03*
X06804Y13676D03*
Y13576D03*
G54D82*
X06464Y13086D03*
X09564D03*
X06704Y13676D03*
G54D83*
X07366Y12212D03*
X09158D03*
G54D84*
X09774Y13176D03*
X06804Y12846D03*
X06734D03*
X06624Y13086D03*
X07664Y12776D03*
X06784Y13426D03*
X07134Y13266D03*
X08324Y12426D03*
X08244Y12486D03*
X09474Y12136D03*
X09354Y12026D03*
X08564Y12486D03*
X08414Y12426D03*
X08714Y12966D03*
X09294Y13396D03*
X08894Y13146D03*
X09344Y12996D03*
X07004Y12156D03*
X07864Y12666D03*
X07724Y12376D03*
X07554Y12096D03*
X07714Y13156D03*
X07404D03*
X07004Y13366D03*
X08894Y12246D03*
X09074Y12366D03*
X09434Y12566D03*
X09384Y12376D03*
X10064Y12266D03*
X07404Y13356D03*
X06404Y13446D03*
X07004Y13796D03*
X07374D03*
X09074Y13006D03*
X09144Y13696D03*
X09354D03*
X09854Y13596D03*
X10074Y13466D03*
X07184Y12066D03*
X09444Y12896D03*
X09054Y13496D03*
X08894Y13376D03*
X07422Y13438D03*
X07534Y13616D03*
X08714Y13106D03*
Y13036D03*
G54D85*
X09729Y13656D03*
X09538D03*
G54D86*
X07664Y12711D03*
Y1266D03*
G54D87*
X07Y13495D03*
Y13586D03*
Y13676D03*
G54D88*
X07247Y13586D03*
M02*