G04*
G04 #@! TF.GenerationSoftware,Altium Limited,Altium Designer,22.0.2 (36)*
G04*
G04 Layer_Color=16711935*
%FSLAX25Y25*%
%MOIN*%
G70*
G04*
G04 #@! TF.SameCoordinates,A5FD766F-ED0D-4258-BB47-254A20FAC7F6*
G04*
G04*
G04 #@! TF.FilePolarity,Positive*
G04*
G01*
G75*
%ADD15C,0.00394*%
%ADD95C,0.00100*%
%ADD96C,0.00000*%
D15*
X76500Y163001D02*
Y165500D01*
X77000Y166000D01*
X78000D01*
X78499Y165500D01*
Y163001D01*
X80999Y166000D02*
Y163001D01*
X79499Y164500D01*
X81498D01*
D95*
X393650Y114040D02*
X392982Y113309D01*
X392343Y112552D01*
X391734Y111771D01*
X391156Y110967D01*
X390610Y110141D01*
X390096Y109294D01*
X389615Y108428D01*
X389169Y107544D01*
X388757Y106643D01*
X388381Y105726D01*
X388041Y104796D01*
X387737Y103853D01*
X387471Y102900D01*
X387241Y101936D01*
X387050Y100964D01*
X386896Y99986D01*
X386781Y99002D01*
X386703Y98015D01*
X386665Y97025D01*
Y96035D01*
X386703Y95045D01*
X386781Y94058D01*
X386896Y93074D01*
X387050Y92096D01*
X387241Y91124D01*
X387471Y90160D01*
X387737Y89206D01*
X388041Y88264D01*
X388381Y87334D01*
X388757Y86417D01*
X389169Y85516D01*
X389615Y84632D01*
X390096Y83766D01*
X390610Y82919D01*
X391156Y82093D01*
X391734Y81289D01*
X392343Y80508D01*
X392982Y79751D01*
X393650Y79020D01*
X393650Y183095D02*
X393602Y184063D01*
X393460Y185021D01*
X393225Y185962D01*
X392898Y186874D01*
X392484Y187750D01*
X391986Y188581D01*
X391408Y189360D01*
X390758Y190078D01*
X390040Y190728D01*
X389261Y191306D01*
X388430Y191804D01*
X387554Y192218D01*
X386642Y192545D01*
X385701Y192780D01*
X384743Y192922D01*
X383775Y192970D01*
X383790Y40D02*
X384821Y94D01*
X385840Y255D01*
X386837Y523D01*
X387800Y892D01*
X388720Y1361D01*
X389586Y1923D01*
X390388Y2573D01*
X391117Y3302D01*
X391767Y4104D01*
X392329Y4970D01*
X392798Y5890D01*
X393167Y6853D01*
X393435Y7850D01*
X393596Y8869D01*
X393650Y9900D01*
X-60D02*
X-6Y8869D01*
X155Y7850D01*
X423Y6853D01*
X792Y5890D01*
X1261Y4970D01*
X1823Y4104D01*
X2473Y3302D01*
X3202Y2573D01*
X4004Y1923D01*
X4870Y1361D01*
X5790Y892D01*
X6753Y523D01*
X7750Y255D01*
X8769Y94D01*
X9800Y40D01*
X9815Y192970D02*
X8847Y192922D01*
X7888Y192780D01*
X6948Y192545D01*
X6036Y192218D01*
X5160Y191804D01*
X4329Y191306D01*
X3550Y190728D01*
X2832Y190078D01*
X2182Y189360D01*
X1604Y188581D01*
X1106Y187750D01*
X692Y186874D01*
X365Y185962D01*
X130Y185021D01*
X-13Y184063D01*
X-60Y183095D01*
X-60Y79020D02*
X608Y79751D01*
X1247Y80508D01*
X1856Y81289D01*
X2434Y82093D01*
X2980Y82919D01*
X3494Y83766D01*
X3975Y84632D01*
X4421Y85517D01*
X4832Y86417D01*
X5209Y87334D01*
X5549Y88264D01*
X5852Y89206D01*
X6119Y90160D01*
X6349Y91124D01*
X6540Y92096D01*
X6694Y93074D01*
X6809Y94058D01*
X6887Y95045D01*
X6925Y96035D01*
Y97025D01*
X6887Y98015D01*
X6809Y99002D01*
X6694Y99986D01*
X6540Y100964D01*
X6349Y101936D01*
X6119Y102900D01*
X5852Y103853D01*
X5549Y104796D01*
X5209Y105726D01*
X4832Y106643D01*
X4421Y107544D01*
X3975Y108428D01*
X3494Y109294D01*
X2980Y110141D01*
X2434Y110967D01*
X1856Y111771D01*
X1247Y112552D01*
X608Y113309D01*
X-60Y114040D01*
X9815Y192970D02*
X383775D01*
X393650Y9890D02*
Y79020D01*
Y114040D02*
Y183110D01*
X9800Y40D02*
X383790D01*
X-60Y114040D02*
Y183110D01*
Y9890D02*
Y79020D01*
D96*
X323193Y181638D02*
X323350D01*
X323193Y186362D02*
X323350D01*
X344650Y181638D02*
X344807D01*
X344650Y186362D02*
X344807D01*
M02*
