G04*
G04 #@! TF.GenerationSoftware,Altium Limited,Altium Designer,22.0.2 (36)*
G04*
G04 Layer_Color=16711935*
%FSLAX25Y25*%
%MOIN*%
G70*
G04*
G04 #@! TF.SameCoordinates,A5FD766F-ED0D-4258-BB47-254A20FAC7F6*
G04*
G04*
G04 #@! TF.FilePolarity,Positive*
G04*
G01*
G75*
%ADD10C,0.00787*%
%ADD12C,0.01000*%
%ADD15C,0.00394*%
G36*
X201828Y141864D02*
X201584D01*
Y143468D01*
X201025Y141864D01*
X200798D01*
X200244Y143496D01*
Y141864D01*
X200000D01*
Y143781D01*
X200379D01*
X200834Y142421D01*
Y142418D01*
X200836Y142413D01*
X200839Y142404D01*
X200845Y142390D01*
X200856Y142357D01*
X200870Y142316D01*
X200884Y142269D01*
X200900Y142221D01*
X200914Y142177D01*
X200925Y142138D01*
X200928Y142144D01*
X200931Y142158D01*
X200939Y142183D01*
X200950Y142216D01*
X200964Y142260D01*
X200983Y142313D01*
X201003Y142374D01*
X201028Y142446D01*
X201487Y143781D01*
X201828D01*
Y141864D01*
D02*
G37*
G36*
X204964D02*
X204728D01*
Y143363D01*
X204726Y143360D01*
X204712Y143349D01*
X204695Y143332D01*
X204667Y143313D01*
X204637Y143288D01*
X204598Y143260D01*
X204554Y143230D01*
X204504Y143199D01*
X204501D01*
X204498Y143196D01*
X204482Y143185D01*
X204454Y143172D01*
X204421Y143155D01*
X204382Y143135D01*
X204341Y143116D01*
X204299Y143097D01*
X204257Y143080D01*
Y143307D01*
X204260D01*
X204266Y143313D01*
X204277Y143316D01*
X204291Y143324D01*
X204307Y143332D01*
X204327Y143343D01*
X204374Y143371D01*
X204429Y143402D01*
X204485Y143440D01*
X204543Y143485D01*
X204601Y143532D01*
X204604Y143534D01*
X204607Y143537D01*
X204615Y143545D01*
X204626Y143554D01*
X204651Y143581D01*
X204684Y143615D01*
X204717Y143654D01*
X204753Y143698D01*
X204784Y143742D01*
X204811Y143789D01*
X204964D01*
Y141864D01*
D02*
G37*
G36*
X203028Y143778D02*
X203083Y143775D01*
X203138Y143770D01*
X203194Y143762D01*
X203241Y143753D01*
X203244D01*
X203249Y143751D01*
X203257D01*
X203269Y143745D01*
X203299Y143737D01*
X203338Y143723D01*
X203382Y143703D01*
X203429Y143678D01*
X203476Y143651D01*
X203521Y143615D01*
X203523Y143612D01*
X203526Y143609D01*
X203535Y143601D01*
X203546Y143593D01*
X203573Y143565D01*
X203607Y143526D01*
X203643Y143479D01*
X203681Y143424D01*
X203717Y143360D01*
X203748Y143288D01*
Y143285D01*
X203750Y143280D01*
X203756Y143269D01*
X203759Y143252D01*
X203767Y143233D01*
X203773Y143210D01*
X203778Y143185D01*
X203786Y143155D01*
X203795Y143124D01*
X203800Y143088D01*
X203814Y143011D01*
X203823Y142925D01*
X203825Y142831D01*
Y142828D01*
Y142823D01*
Y142809D01*
Y142795D01*
X203823Y142775D01*
Y142753D01*
X203820Y142701D01*
X203812Y142640D01*
X203803Y142576D01*
X203789Y142509D01*
X203773Y142443D01*
Y142440D01*
X203770Y142435D01*
X203767Y142426D01*
X203764Y142415D01*
X203753Y142385D01*
X203737Y142346D01*
X203720Y142302D01*
X203698Y142257D01*
X203670Y142210D01*
X203643Y142166D01*
X203640Y142160D01*
X203629Y142147D01*
X203612Y142127D01*
X203590Y142102D01*
X203565Y142075D01*
X203535Y142047D01*
X203504Y142016D01*
X203468Y141991D01*
X203462Y141989D01*
X203451Y141981D01*
X203432Y141969D01*
X203404Y141955D01*
X203371Y141939D01*
X203332Y141925D01*
X203288Y141908D01*
X203238Y141895D01*
X203233D01*
X203224Y141892D01*
X203216Y141889D01*
X203188Y141886D01*
X203149Y141881D01*
X203105Y141875D01*
X203052Y141870D01*
X202994Y141867D01*
X202931Y141864D01*
X202241D01*
Y143781D01*
X202978D01*
X203028Y143778D01*
D02*
G37*
G36*
X160950Y30239D02*
X160975Y30237D01*
X161005Y30234D01*
X161036Y30231D01*
X161072Y30223D01*
X161147Y30206D01*
X161230Y30181D01*
X161271Y30165D01*
X161310Y30145D01*
X161349Y30120D01*
X161388Y30095D01*
X161390Y30093D01*
X161396Y30090D01*
X161407Y30081D01*
X161421Y30068D01*
X161435Y30054D01*
X161454Y30034D01*
X161474Y30012D01*
X161496Y29990D01*
X161518Y29962D01*
X161540Y29929D01*
X161565Y29896D01*
X161587Y29860D01*
X161607Y29818D01*
X161629Y29777D01*
X161645Y29732D01*
X161662Y29683D01*
X161413Y29625D01*
Y29627D01*
X161410Y29633D01*
X161404Y29644D01*
X161399Y29658D01*
X161393Y29674D01*
X161385Y29697D01*
X161363Y29741D01*
X161335Y29791D01*
X161302Y29841D01*
X161260Y29888D01*
X161216Y29929D01*
X161211Y29935D01*
X161194Y29946D01*
X161166Y29960D01*
X161130Y29979D01*
X161083Y29996D01*
X161030Y30012D01*
X160967Y30023D01*
X160898Y30026D01*
X160875D01*
X160862Y30023D01*
X160842D01*
X160820Y30021D01*
X160767Y30012D01*
X160709Y30001D01*
X160648Y29982D01*
X160584Y29954D01*
X160526Y29918D01*
X160523D01*
X160521Y29913D01*
X160501Y29899D01*
X160476Y29877D01*
X160446Y29843D01*
X160410Y29802D01*
X160377Y29755D01*
X160346Y29697D01*
X160319Y29633D01*
Y29630D01*
X160316Y29625D01*
X160313Y29616D01*
X160310Y29602D01*
X160305Y29586D01*
X160299Y29566D01*
X160291Y29519D01*
X160280Y29464D01*
X160269Y29403D01*
X160263Y29336D01*
X160260Y29264D01*
Y29262D01*
Y29253D01*
Y29239D01*
Y29223D01*
X160263Y29203D01*
Y29179D01*
X160266Y29151D01*
X160269Y29120D01*
X160277Y29054D01*
X160291Y28982D01*
X160308Y28910D01*
X160330Y28838D01*
Y28835D01*
X160332Y28830D01*
X160338Y28821D01*
X160344Y28807D01*
X160360Y28774D01*
X160385Y28735D01*
X160415Y28691D01*
X160454Y28644D01*
X160499Y28602D01*
X160551Y28564D01*
X160554D01*
X160559Y28561D01*
X160568Y28555D01*
X160579Y28550D01*
X160593Y28544D01*
X160609Y28536D01*
X160648Y28519D01*
X160698Y28503D01*
X160753Y28489D01*
X160814Y28478D01*
X160878Y28475D01*
X160898D01*
X160914Y28478D01*
X160933D01*
X160953Y28480D01*
X161003Y28492D01*
X161061Y28505D01*
X161119Y28528D01*
X161180Y28558D01*
X161211Y28575D01*
X161238Y28597D01*
X161241Y28600D01*
X161244Y28602D01*
X161252Y28611D01*
X161263Y28619D01*
X161274Y28633D01*
X161288Y28650D01*
X161305Y28666D01*
X161319Y28688D01*
X161335Y28713D01*
X161354Y28741D01*
X161371Y28769D01*
X161388Y28802D01*
X161402Y28838D01*
X161416Y28877D01*
X161429Y28918D01*
X161440Y28962D01*
X161695Y28899D01*
Y28896D01*
X161693Y28885D01*
X161687Y28868D01*
X161679Y28846D01*
X161670Y28821D01*
X161659Y28791D01*
X161645Y28758D01*
X161629Y28721D01*
X161590Y28644D01*
X161540Y28566D01*
X161510Y28528D01*
X161479Y28489D01*
X161446Y28455D01*
X161407Y28422D01*
X161404Y28420D01*
X161399Y28414D01*
X161385Y28409D01*
X161371Y28397D01*
X161349Y28383D01*
X161327Y28370D01*
X161296Y28356D01*
X161266Y28342D01*
X161230Y28325D01*
X161191Y28311D01*
X161150Y28298D01*
X161105Y28284D01*
X161058Y28273D01*
X161008Y28267D01*
X160956Y28262D01*
X160900Y28259D01*
X160870D01*
X160848Y28262D01*
X160823D01*
X160792Y28264D01*
X160759Y28270D01*
X160720Y28275D01*
X160640Y28289D01*
X160557Y28311D01*
X160474Y28342D01*
X160435Y28361D01*
X160396Y28383D01*
X160393Y28386D01*
X160388Y28389D01*
X160377Y28397D01*
X160366Y28409D01*
X160349Y28420D01*
X160330Y28436D01*
X160308Y28455D01*
X160285Y28478D01*
X160263Y28503D01*
X160238Y28528D01*
X160188Y28591D01*
X160141Y28666D01*
X160100Y28749D01*
Y28752D01*
X160094Y28760D01*
X160091Y28774D01*
X160083Y28791D01*
X160078Y28813D01*
X160069Y28841D01*
X160058Y28871D01*
X160050Y28904D01*
X160042Y28940D01*
X160030Y28982D01*
X160017Y29068D01*
X160005Y29165D01*
X160000Y29264D01*
Y29267D01*
Y29278D01*
Y29295D01*
X160003Y29314D01*
Y29342D01*
X160005Y29370D01*
X160008Y29406D01*
X160014Y29442D01*
X160028Y29522D01*
X160047Y29611D01*
X160075Y29699D01*
X160114Y29785D01*
X160116Y29788D01*
X160119Y29796D01*
X160125Y29807D01*
X160136Y29821D01*
X160147Y29841D01*
X160161Y29863D01*
X160197Y29913D01*
X160244Y29968D01*
X160299Y30023D01*
X160363Y30079D01*
X160438Y30126D01*
X160440Y30129D01*
X160449Y30131D01*
X160460Y30137D01*
X160474Y30145D01*
X160496Y30154D01*
X160518Y30162D01*
X160546Y30173D01*
X160576Y30184D01*
X160609Y30195D01*
X160645Y30206D01*
X160723Y30223D01*
X160812Y30237D01*
X160903Y30242D01*
X160931D01*
X160950Y30239D01*
D02*
G37*
G36*
X163169Y29998D02*
X163166Y29996D01*
X163161Y29990D01*
X163149Y29979D01*
X163138Y29962D01*
X163122Y29943D01*
X163100Y29921D01*
X163077Y29893D01*
X163052Y29860D01*
X163028Y29827D01*
X162997Y29788D01*
X162967Y29744D01*
X162936Y29699D01*
X162903Y29649D01*
X162870Y29597D01*
X162837Y29539D01*
X162803Y29480D01*
X162801Y29478D01*
X162795Y29467D01*
X162787Y29450D01*
X162773Y29425D01*
X162759Y29395D01*
X162742Y29361D01*
X162723Y29323D01*
X162704Y29278D01*
X162681Y29228D01*
X162656Y29179D01*
X162634Y29123D01*
X162612Y29065D01*
X162568Y28946D01*
X162526Y28818D01*
Y28816D01*
X162523Y28807D01*
X162521Y28793D01*
X162515Y28777D01*
X162510Y28755D01*
X162504Y28727D01*
X162496Y28697D01*
X162490Y28663D01*
X162482Y28624D01*
X162474Y28583D01*
X162460Y28494D01*
X162446Y28397D01*
X162438Y28292D01*
X162197D01*
Y28295D01*
Y28303D01*
Y28314D01*
X162199Y28331D01*
Y28353D01*
X162202Y28381D01*
X162205Y28411D01*
X162208Y28444D01*
X162213Y28483D01*
X162219Y28522D01*
X162227Y28569D01*
X162235Y28616D01*
X162244Y28666D01*
X162255Y28721D01*
X162283Y28835D01*
Y28838D01*
X162285Y28849D01*
X162291Y28866D01*
X162299Y28890D01*
X162307Y28918D01*
X162319Y28951D01*
X162330Y28990D01*
X162346Y29032D01*
X162363Y29079D01*
X162379Y29126D01*
X162421Y29231D01*
X162471Y29342D01*
X162526Y29453D01*
X162529Y29456D01*
X162534Y29467D01*
X162543Y29480D01*
X162554Y29503D01*
X162568Y29528D01*
X162587Y29558D01*
X162607Y29591D01*
X162629Y29627D01*
X162681Y29708D01*
X162737Y29791D01*
X162801Y29877D01*
X162867Y29957D01*
X161928D01*
Y30184D01*
X163169D01*
Y29998D01*
D02*
G37*
G36*
X313967Y105878D02*
X313964D01*
X313953D01*
X313936D01*
X313914Y105881D01*
X313889Y105884D01*
X313861Y105889D01*
X313834Y105895D01*
X313803Y105906D01*
X313801D01*
X313798Y105909D01*
X313781Y105914D01*
X313756Y105925D01*
X313723Y105942D01*
X313684Y105964D01*
X313640Y105992D01*
X313596Y106022D01*
X313548Y106061D01*
X313546D01*
X313543Y106066D01*
X313526Y106080D01*
X313501Y106105D01*
X313465Y106141D01*
X313424Y106183D01*
X313374Y106235D01*
X313319Y106299D01*
X313260Y106368D01*
X313258Y106371D01*
X313249Y106382D01*
X313235Y106399D01*
X313219Y106418D01*
X313197Y106443D01*
X313172Y106474D01*
X313144Y106504D01*
X313114Y106540D01*
X313047Y106609D01*
X312981Y106679D01*
X312947Y106712D01*
X312914Y106742D01*
X312884Y106770D01*
X312853Y106792D01*
X312850D01*
X312848Y106798D01*
X312839Y106803D01*
X312828Y106809D01*
X312798Y106828D01*
X312762Y106850D01*
X312718Y106870D01*
X312670Y106889D01*
X312618Y106900D01*
X312568Y106906D01*
X312565D01*
X312562D01*
X312546Y106903D01*
X312518Y106900D01*
X312488Y106892D01*
X312449Y106881D01*
X312410Y106861D01*
X312371Y106836D01*
X312333Y106803D01*
X312327Y106798D01*
X312316Y106784D01*
X312302Y106764D01*
X312283Y106734D01*
X312266Y106695D01*
X312249Y106651D01*
X312238Y106598D01*
X312235Y106540D01*
Y106523D01*
X312238Y106512D01*
X312241Y106479D01*
X312249Y106440D01*
X312261Y106399D01*
X312280Y106352D01*
X312305Y106307D01*
X312338Y106266D01*
X312344Y106260D01*
X312357Y106249D01*
X312380Y106233D01*
X312413Y106216D01*
X312452Y106197D01*
X312502Y106180D01*
X312557Y106169D01*
X312621Y106163D01*
X312596Y105922D01*
X312593D01*
X312585Y105925D01*
X312571D01*
X312551Y105928D01*
X312529Y105933D01*
X312504Y105939D01*
X312474Y105947D01*
X312443Y105956D01*
X312377Y105978D01*
X312310Y106011D01*
X312277Y106030D01*
X312244Y106055D01*
X312213Y106080D01*
X312186Y106108D01*
X312183Y106111D01*
X312180Y106116D01*
X312172Y106125D01*
X312163Y106138D01*
X312152Y106155D01*
X312141Y106174D01*
X312127Y106197D01*
X312114Y106224D01*
X312100Y106255D01*
X312086Y106288D01*
X312075Y106324D01*
X312064Y106363D01*
X312055Y106404D01*
X312047Y106449D01*
X312044Y106496D01*
X312042Y106546D01*
Y106573D01*
X312044Y106593D01*
X312047Y106615D01*
X312050Y106643D01*
X312055Y106673D01*
X312061Y106703D01*
X312080Y106775D01*
X312108Y106848D01*
X312125Y106884D01*
X312144Y106920D01*
X312169Y106953D01*
X312197Y106983D01*
X312199Y106986D01*
X312202Y106992D01*
X312213Y106997D01*
X312225Y107008D01*
X312238Y107022D01*
X312258Y107036D01*
X312277Y107050D01*
X312302Y107066D01*
X312355Y107094D01*
X312421Y107122D01*
X312454Y107133D01*
X312493Y107138D01*
X312532Y107144D01*
X312574Y107147D01*
X312579D01*
X312593D01*
X312615Y107144D01*
X312646Y107141D01*
X312679Y107136D01*
X312718Y107124D01*
X312759Y107113D01*
X312801Y107097D01*
X312806Y107094D01*
X312820Y107088D01*
X312842Y107077D01*
X312873Y107061D01*
X312906Y107039D01*
X312947Y107011D01*
X312989Y106978D01*
X313036Y106939D01*
X313042Y106933D01*
X313058Y106920D01*
X313072Y106906D01*
X313086Y106892D01*
X313103Y106875D01*
X313125Y106853D01*
X313147Y106831D01*
X313172Y106803D01*
X313199Y106775D01*
X313230Y106742D01*
X313260Y106706D01*
X313297Y106667D01*
X313333Y106623D01*
X313371Y106579D01*
X313374Y106576D01*
X313380Y106570D01*
X313388Y106559D01*
X313399Y106546D01*
X313416Y106529D01*
X313432Y106510D01*
X313468Y106465D01*
X313510Y106418D01*
X313551Y106374D01*
X313587Y106335D01*
X313601Y106318D01*
X313615Y106305D01*
X313618Y106302D01*
X313626Y106293D01*
X313637Y106282D01*
X313654Y106269D01*
X313673Y106255D01*
X313693Y106238D01*
X313740Y106205D01*
Y107150D01*
X313967D01*
Y105878D01*
D02*
G37*
G36*
X313374Y105692D02*
X313391Y105687D01*
X313413Y105679D01*
X313438Y105670D01*
X313468Y105659D01*
X313501Y105645D01*
X313537Y105629D01*
X313615Y105590D01*
X313693Y105540D01*
X313731Y105510D01*
X313770Y105479D01*
X313803Y105446D01*
X313837Y105407D01*
X313839Y105404D01*
X313845Y105399D01*
X313850Y105385D01*
X313861Y105371D01*
X313875Y105349D01*
X313889Y105327D01*
X313903Y105296D01*
X313917Y105266D01*
X313934Y105230D01*
X313947Y105191D01*
X313961Y105149D01*
X313975Y105105D01*
X313986Y105058D01*
X313992Y105008D01*
X313997Y104956D01*
X314000Y104900D01*
Y104870D01*
X313997Y104848D01*
Y104823D01*
X313995Y104792D01*
X313989Y104759D01*
X313983Y104720D01*
X313970Y104640D01*
X313947Y104557D01*
X313917Y104474D01*
X313897Y104435D01*
X313875Y104396D01*
X313873Y104393D01*
X313870Y104388D01*
X313861Y104377D01*
X313850Y104366D01*
X313839Y104349D01*
X313823Y104330D01*
X313803Y104307D01*
X313781Y104285D01*
X313756Y104263D01*
X313731Y104238D01*
X313668Y104188D01*
X313593Y104141D01*
X313510Y104100D01*
X313507D01*
X313499Y104094D01*
X313485Y104091D01*
X313468Y104083D01*
X313446Y104077D01*
X313418Y104069D01*
X313388Y104058D01*
X313355Y104050D01*
X313319Y104042D01*
X313277Y104030D01*
X313191Y104017D01*
X313094Y104006D01*
X312995Y104000D01*
X312992D01*
X312981D01*
X312964D01*
X312945Y104003D01*
X312917D01*
X312889Y104006D01*
X312853Y104008D01*
X312817Y104014D01*
X312737Y104028D01*
X312648Y104047D01*
X312560Y104075D01*
X312474Y104113D01*
X312471Y104116D01*
X312463Y104119D01*
X312452Y104125D01*
X312438Y104136D01*
X312418Y104147D01*
X312396Y104161D01*
X312346Y104197D01*
X312291Y104244D01*
X312235Y104299D01*
X312180Y104363D01*
X312133Y104438D01*
X312130Y104440D01*
X312127Y104449D01*
X312122Y104460D01*
X312114Y104474D01*
X312105Y104496D01*
X312097Y104518D01*
X312086Y104546D01*
X312075Y104576D01*
X312064Y104609D01*
X312053Y104645D01*
X312036Y104723D01*
X312022Y104812D01*
X312017Y104903D01*
Y104931D01*
X312019Y104950D01*
X312022Y104975D01*
X312025Y105006D01*
X312028Y105036D01*
X312036Y105072D01*
X312053Y105147D01*
X312078Y105230D01*
X312094Y105271D01*
X312114Y105310D01*
X312139Y105349D01*
X312163Y105388D01*
X312166Y105391D01*
X312169Y105396D01*
X312177Y105407D01*
X312191Y105421D01*
X312205Y105435D01*
X312225Y105454D01*
X312247Y105474D01*
X312269Y105496D01*
X312297Y105518D01*
X312330Y105540D01*
X312363Y105565D01*
X312399Y105587D01*
X312440Y105607D01*
X312482Y105629D01*
X312526Y105645D01*
X312576Y105662D01*
X312634Y105413D01*
X312632D01*
X312626Y105410D01*
X312615Y105404D01*
X312601Y105399D01*
X312585Y105393D01*
X312562Y105385D01*
X312518Y105363D01*
X312468Y105335D01*
X312418Y105302D01*
X312371Y105260D01*
X312330Y105216D01*
X312324Y105210D01*
X312313Y105194D01*
X312299Y105166D01*
X312280Y105130D01*
X312263Y105083D01*
X312247Y105030D01*
X312235Y104967D01*
X312233Y104897D01*
Y104875D01*
X312235Y104861D01*
Y104842D01*
X312238Y104820D01*
X312247Y104767D01*
X312258Y104709D01*
X312277Y104648D01*
X312305Y104584D01*
X312341Y104526D01*
Y104524D01*
X312346Y104521D01*
X312360Y104501D01*
X312382Y104476D01*
X312416Y104446D01*
X312457Y104410D01*
X312504Y104377D01*
X312562Y104346D01*
X312626Y104318D01*
X312629D01*
X312634Y104316D01*
X312643Y104313D01*
X312657Y104310D01*
X312673Y104305D01*
X312693Y104299D01*
X312740Y104291D01*
X312795Y104280D01*
X312856Y104269D01*
X312923Y104263D01*
X312995Y104260D01*
X312997D01*
X313006D01*
X313019D01*
X313036D01*
X313055Y104263D01*
X313080D01*
X313108Y104266D01*
X313139Y104269D01*
X313205Y104277D01*
X313277Y104291D01*
X313349Y104307D01*
X313421Y104330D01*
X313424D01*
X313429Y104332D01*
X313438Y104338D01*
X313452Y104343D01*
X313485Y104360D01*
X313524Y104385D01*
X313568Y104416D01*
X313615Y104454D01*
X313657Y104499D01*
X313695Y104551D01*
Y104554D01*
X313698Y104560D01*
X313704Y104568D01*
X313709Y104579D01*
X313715Y104593D01*
X313723Y104609D01*
X313740Y104648D01*
X313756Y104698D01*
X313770Y104753D01*
X313781Y104814D01*
X313784Y104878D01*
Y104897D01*
X313781Y104914D01*
Y104934D01*
X313778Y104953D01*
X313767Y105003D01*
X313754Y105061D01*
X313731Y105119D01*
X313701Y105180D01*
X313684Y105210D01*
X313662Y105238D01*
X313659Y105241D01*
X313657Y105244D01*
X313648Y105252D01*
X313640Y105263D01*
X313626Y105274D01*
X313610Y105288D01*
X313593Y105305D01*
X313571Y105318D01*
X313546Y105335D01*
X313518Y105354D01*
X313490Y105371D01*
X313457Y105388D01*
X313421Y105402D01*
X313382Y105415D01*
X313341Y105429D01*
X313297Y105440D01*
X313360Y105695D01*
X313363D01*
X313374Y105692D01*
D02*
G37*
%LPC*%
G36*
X202939Y143554D02*
X202496D01*
Y142091D01*
X202950D01*
X202969Y142094D01*
X203011Y142097D01*
X203058Y142100D01*
X203108Y142105D01*
X203158Y142113D01*
X203199Y142124D01*
X203205Y142127D01*
X203219Y142130D01*
X203238Y142138D01*
X203263Y142149D01*
X203291Y142166D01*
X203318Y142183D01*
X203346Y142202D01*
X203374Y142224D01*
X203377Y142230D01*
X203388Y142241D01*
X203404Y142260D01*
X203424Y142288D01*
X203446Y142324D01*
X203471Y142366D01*
X203493Y142413D01*
X203512Y142465D01*
Y142468D01*
X203515Y142473D01*
X203518Y142482D01*
X203521Y142493D01*
X203523Y142507D01*
X203529Y142526D01*
X203535Y142545D01*
X203540Y142568D01*
X203548Y142623D01*
X203557Y142687D01*
X203562Y142759D01*
X203565Y142836D01*
Y142839D01*
Y142850D01*
Y142864D01*
X203562Y142886D01*
Y142911D01*
X203559Y142939D01*
X203557Y142972D01*
X203554Y143005D01*
X203540Y143080D01*
X203523Y143158D01*
X203499Y143230D01*
X203482Y143266D01*
X203465Y143296D01*
Y143299D01*
X203460Y143305D01*
X203454Y143313D01*
X203449Y143324D01*
X203426Y143352D01*
X203399Y143385D01*
X203363Y143421D01*
X203321Y143457D01*
X203274Y143487D01*
X203224Y143512D01*
X203219Y143515D01*
X203205Y143518D01*
X203180Y143526D01*
X203144Y143534D01*
X203100Y143540D01*
X203044Y143548D01*
X203011Y143551D01*
X202975D01*
X202939Y143554D01*
D02*
G37*
%LPD*%
D10*
X162205Y90191D02*
Y193537D01*
Y90191D02*
X237795D01*
Y193537D01*
X162205D02*
X237795D01*
X297000Y4000D02*
Y6500D01*
Y11500D02*
Y14000D01*
X267000Y4000D02*
X297000D01*
X267000Y14000D02*
X297000D01*
Y6500D02*
Y11500D01*
X267000Y4000D02*
Y14000D01*
X215630Y24902D02*
Y27402D01*
Y32402D02*
Y34902D01*
X174000Y25000D02*
X215630D01*
X174000Y35000D02*
X215630D01*
Y27402D02*
Y32402D01*
X174000Y25000D02*
Y35000D01*
X155669Y26835D02*
Y31165D01*
Y26835D02*
X164331D01*
Y31165D01*
X155669D02*
X164331D01*
X311638Y99276D02*
X316362D01*
Y108724D01*
X311638D02*
X316362D01*
X311638Y99276D02*
Y108724D01*
D12*
X132946Y66000D02*
X132928Y66999D01*
X132875Y67997D01*
X132786Y68992D01*
X132662Y69984D01*
X132503Y70970D01*
X132309Y71951D01*
X132081Y72923D01*
X131818Y73887D01*
X131521Y74841D01*
X131191Y75784D01*
X130827Y76715D01*
X130430Y77632D01*
X130001Y78535D01*
X129540Y79421D01*
X129048Y80291D01*
X128526Y81143D01*
X127973Y81975D01*
X127392Y82788D01*
X126782Y83579D01*
X126144Y84349D01*
X125479Y85095D01*
X124789Y85817D01*
X124073Y86514D01*
X123333Y87185D01*
X122569Y87830D01*
X121783Y88447D01*
X120976Y89035D01*
X120148Y89595D01*
X119301Y90125D01*
X118436Y90625D01*
X117553Y91093D01*
X116654Y91530D01*
X115741Y91935D01*
X114813Y92307D01*
X113874Y92646D01*
X112922Y92952D01*
X111960Y93223D01*
X110990Y93460D01*
X110011Y93663D01*
X109026Y93831D01*
X108036Y93963D01*
X107041Y94061D01*
X106044Y94123D01*
X105045Y94149D01*
X104046Y94140D01*
X103048Y94096D01*
X102052Y94016D01*
X101059Y93901D01*
X100071Y93751D01*
X99089Y93566D01*
X98115Y93346D01*
X97148Y93092D01*
X96192Y92803D01*
X95246Y92481D01*
X94312Y92125D01*
X93391Y91737D01*
X92485Y91316D01*
X91594Y90863D01*
X90720Y90379D01*
X89864Y89864D01*
X89026Y89319D01*
X88209Y88745D01*
X87412Y88142D01*
X86637Y87511D01*
X85885Y86853D01*
X85157Y86168D01*
X84453Y85459D01*
X83776Y84725D01*
X83124Y83967D01*
X82500Y83186D01*
X81904Y82384D01*
X81337Y81561D01*
X80800Y80719D01*
X80292Y79858D01*
X79816Y78980D01*
X79371Y78085D01*
X78958Y77175D01*
X78578Y76251D01*
X78231Y75314D01*
X77917Y74366D01*
X77637Y73406D01*
X77391Y72438D01*
X77180Y71461D01*
X77003Y70478D01*
X76862Y69489D01*
X76756Y68495D01*
X76685Y67498D01*
X76649Y66500D01*
X76649Y65500D01*
X76685Y64502D01*
X76756Y63505D01*
X76862Y62511D01*
X77003Y61522D01*
X77180Y60539D01*
X77391Y59562D01*
X77637Y58593D01*
X77917Y57634D01*
X78231Y56686D01*
X78578Y55749D01*
X78958Y54825D01*
X79371Y53915D01*
X79816Y53020D01*
X80292Y52142D01*
X80800Y51281D01*
X81337Y50438D01*
X81904Y49616D01*
X82500Y48814D01*
X83124Y48033D01*
X83776Y47275D01*
X84453Y46541D01*
X85157Y45831D01*
X85885Y45147D01*
X86637Y44489D01*
X87412Y43858D01*
X88209Y43255D01*
X89026Y42681D01*
X89864Y42136D01*
X90720Y41621D01*
X91594Y41137D01*
X92485Y40684D01*
X93391Y40263D01*
X94312Y39875D01*
X95246Y39519D01*
X96192Y39197D01*
X97148Y38908D01*
X98115Y38654D01*
X99089Y38434D01*
X100071Y38249D01*
X101059Y38099D01*
X102052Y37984D01*
X103048Y37904D01*
X104046Y37860D01*
X105045Y37851D01*
X106044Y37877D01*
X107042Y37940D01*
X108036Y38037D01*
X109026Y38170D01*
X110011Y38337D01*
X110990Y38540D01*
X111961Y38777D01*
X112922Y39048D01*
X113874Y39354D01*
X114814Y39693D01*
X115741Y40065D01*
X116655Y40470D01*
X117553Y40907D01*
X118436Y41375D01*
X119301Y41875D01*
X120148Y42405D01*
X120976Y42965D01*
X121783Y43554D01*
X122569Y44170D01*
X123333Y44815D01*
X124073Y45486D01*
X124789Y46183D01*
X125480Y46905D01*
X126144Y47652D01*
X126782Y48421D01*
X127392Y49212D01*
X127974Y50025D01*
X128526Y50858D01*
X129048Y51709D01*
X129540Y52579D01*
X130001Y53466D01*
X130430Y54368D01*
X130827Y55285D01*
X131191Y56216D01*
X131521Y57159D01*
X131818Y58113D01*
X132081Y59077D01*
X132309Y60050D01*
X132503Y61030D01*
X132662Y62017D01*
X132786Y63008D01*
X132875Y64003D01*
X132928Y65001D01*
X132946Y66000D01*
X102889Y87638D02*
X99890D01*
Y85638D01*
X102389Y82639D02*
X102889Y83139D01*
Y84139D01*
X102389Y84639D01*
X101889D01*
X101389Y84139D01*
Y83139D01*
X100890Y82639D01*
X100390D01*
X99890Y83139D01*
Y84139D01*
X100390Y84639D01*
X99890Y81640D02*
Y80640D01*
Y81140D01*
X102889D01*
X102389Y81640D01*
D15*
X136700Y68559D02*
Y66560D01*
X137700Y67559D02*
X135701D01*
M02*
