%FSTAX23Y23*%
%MOIN*%
%SFA1B1*%

%IPPOS*%
%ADD11C,0.007870*%
%ADD15C,0.005000*%
%LNcontrolboardv1-1*%
%LPD*%
G36*
X03891Y03111D02*
X03892Y03111D01*
X03892Y0311*
X03893Y0311*
X03893Y0311*
X03893Y0311*
X03894Y0311*
X03894Y0311*
X03894Y03109*
X03895Y03109*
X03895Y03109*
X03895Y03109*
X03895Y03109*
X03895Y03109*
X03895Y03108*
X03895Y03108*
X03896Y03108*
X03896Y03107*
X03896Y03107*
X03897Y03106*
X03897Y03105*
X03897Y03105*
X03897Y03104*
X03897Y03103*
X03897Y03103*
X03897Y03102*
X03897Y03102*
X03897Y03101*
Y03101*
X03897Y03101*
Y03101*
Y031*
Y031*
Y031*
X03897Y03099*
X03897Y03099*
X03897Y03098*
X03897Y03097*
X03897Y03097*
X03897Y03096*
X03897Y03095*
X03897Y03095*
X03896Y03095*
X03896Y03094*
X03896Y03094*
X03896Y03094*
X03896Y03093*
X03896Y03093*
X03896Y03093*
X03896Y03093*
X03895Y03093*
X03895Y03093*
X03895Y03092*
X03894Y03092*
X03894Y03092*
X03893Y03092*
X03893Y03091*
X03893Y03091*
X03892Y03091*
X03892Y03091*
X03892Y03091*
X03891Y03091*
X03891*
X03891Y03091*
X03891*
X0389Y03091*
X0389Y03091*
X03889Y03091*
X03889Y03091*
X03888Y03092*
X03888Y03092*
X03888Y03092*
X03888Y03092*
X03888Y03092*
X03888*
X03887Y03092*
X03887Y03093*
X03886Y03093*
X03886Y03093*
X03886Y03094*
X03886Y03094*
X03886Y03094*
X03886Y03094*
X03886Y03094*
Y03094*
X03885Y03095*
X03885Y03095*
X03885Y03096*
X03885Y03097*
X03885Y03097*
Y03097*
X03885Y03097*
Y03097*
Y03098*
Y03098*
Y03098*
X03885Y03098*
X03885Y03099*
X03885Y03099*
X03885Y03099*
X03885Y031*
X03885Y031*
X03885Y03101*
X03886Y03101*
X03886Y03101*
X03886Y03101*
X03886Y03102*
X03886Y03102*
X03886Y03102*
X03886Y03102*
X03886Y03102*
X03886Y03102*
X03887Y03102*
X03887Y03103*
X03887Y03103*
X03888Y03103*
X03888Y03103*
X03888Y03103*
X03889Y03104*
X03889Y03104*
X0389Y03104*
X0389Y03104*
X0389Y03104*
X0389Y03104*
X0389*
X03891Y03104*
X03891Y03104*
X03892Y03104*
X03892Y03104*
X03893Y03103*
X03893Y03103*
X03893Y03103*
X03893Y03103*
X03893*
X03894Y03103*
X03894Y03103*
X03894Y03102*
X03895Y03102*
X03895Y03102*
X03895Y03101*
X03895Y03101*
X03895Y03101*
Y03102*
X03895Y03102*
X03895Y03103*
X03895Y03103*
X03895Y03104*
X03895Y03104*
X03895Y03104*
X03895Y03105*
X03895Y03105*
X03895Y03105*
X03895Y03105*
X03895Y03105*
X03895Y03106*
X03895Y03106*
X03895Y03106*
Y03106*
X03894Y03106*
X03894Y03107*
X03894Y03107*
X03893Y03107*
X03893Y03108*
X03893Y03108*
X03893Y03108*
X03893Y03108*
X03892Y03108*
X03892Y03108*
X03892Y03109*
X03891Y03109*
X03891Y03109*
X03891Y03109*
X03891*
X0389Y03109*
X0389Y03109*
X03889Y03108*
X03889Y03108*
X03889Y03108*
X03889Y03108*
X03888Y03108*
X03888Y03108*
X03888Y03107*
X03888Y03107*
X03888Y03107*
X03888Y03106*
X03888Y03106*
X03888Y03106*
X03887Y03106*
X03887Y03106*
Y03106*
X03885Y03106*
X03885Y03107*
X03886Y03107*
X03886Y03108*
X03886Y03108*
X03886Y03109*
X03887Y03109*
X03887Y03109*
X03887Y03109*
X03887Y03109*
X03887Y03109*
X03887Y03109*
X03887Y0311*
X03887Y0311*
X03888Y0311*
X03889Y0311*
X03889Y03111*
X0389Y03111*
X0389Y03111*
X0389*
X0389Y03111*
X03891*
X03891Y03111*
G37*
G54D15*
X0Y0D02*
X12286D01*
Y16786*
X0*
Y0*
G36*
X03908Y03111D02*
X03909Y03111D01*
X0391Y03111*
X0391Y0311*
X03911Y0311*
X03911Y0311*
X03911Y0311*
X03912Y0311*
X03912Y0311*
X03912Y0311*
X03912Y0311*
X03912Y0311*
X03912Y0311*
X03913Y03109*
X03914Y03109*
X03914Y03108*
X03915Y03108*
X03915Y03107*
X03915Y03107*
X03915Y03107*
X03915Y03107*
X03915Y03106*
X03915Y03106*
X03915Y03106*
X03916Y03105*
X03916Y03105*
X03916Y03104*
X03916Y03103*
X03916Y03103*
X03916Y03102*
X03916Y03102*
Y03102*
X03916Y03101*
Y03101*
Y03101*
Y03101*
X03916Y031*
X03916Y03099*
X03916Y03098*
X03916Y03098*
X03916Y03098*
X03916Y03097*
X03916Y03097*
X03916Y03097*
X03916Y03096*
X03916Y03096*
X03916Y03096*
X03915Y03096*
Y03096*
X03915Y03095*
X03915Y03094*
X03914Y03094*
X03914Y03094*
X03914Y03093*
X03913Y03093*
X03913Y03093*
X03913Y03093*
X03913Y03093*
X03913Y03092*
X03913Y03092*
X03913Y03092*
X03913Y03092*
X03912Y03092*
X03912Y03092*
X03911Y03092*
X0391Y03091*
X03909Y03091*
X03909Y03091*
X03909Y03091*
X03908Y03091*
X03908*
X03908Y03091*
X03907*
X03907Y03091*
X03906Y03091*
X03906Y03091*
X03905Y03091*
X03905Y03091*
X03905Y03092*
X03904Y03092*
X03904Y03092*
X03904Y03092*
X03903Y03092*
X03903Y03092*
X03903Y03092*
X03903Y03093*
X03903Y03093*
X03902Y03093*
X03902Y03093*
X03902Y03093*
X03902Y03093*
X03901Y03094*
X03901Y03094*
X03901Y03095*
X039Y03096*
X039Y03096*
X039Y03096*
X039Y03097*
X039Y03097*
X039Y03097*
X039Y03097*
X039Y03097*
Y03097*
X03902Y03098*
X03902Y03098*
X03902Y03097*
X03902Y03097*
X03903Y03097*
X03903Y03096*
X03903Y03096*
X03903Y03096*
X03903Y03095*
X03903Y03095*
X03904Y03095*
X03904Y03095*
X03904Y03095*
X03904Y03095*
X03904Y03095*
X03904Y03094*
X03904Y03094*
X03904Y03094*
X03905Y03094*
X03905Y03094*
X03906Y03094*
X03906Y03093*
X03907Y03093*
X03907Y03093*
X03907*
X03908Y03093*
X03908*
X03908Y03093*
X03909Y03093*
X0391Y03094*
X0391Y03094*
X0391Y03094*
X03911Y03094*
X03911Y03094*
X03911Y03094*
X03911Y03094*
X03911Y03094*
X03911*
X03912Y03095*
X03912Y03095*
X03912Y03095*
X03913Y03096*
X03913Y03096*
X03913Y03097*
X03913Y03097*
X03913Y03097*
X03913Y03097*
Y03097*
X03913Y03098*
X03914Y03098*
X03914Y03099*
X03914Y031*
X03914Y031*
X03914Y031*
Y03101*
X03914Y03101*
Y03101*
Y03101*
Y03101*
Y03101*
X03914Y03102*
X03914Y03103*
X03914Y03103*
X03914Y03104*
X03914Y03104*
X03913Y03104*
X03913Y03105*
X03913Y03105*
X03913Y03105*
X03913Y03105*
Y03105*
X03913Y03105*
X03913Y03106*
X03912Y03107*
X03912Y03107*
X03912Y03107*
X03911Y03107*
X03911Y03108*
X03911Y03108*
X03911*
X03911Y03108*
X0391Y03108*
X03909Y03109*
X03909Y03109*
X03908Y03109*
X03908Y03109*
X03908*
X03908Y03109*
X03908*
X03907Y03109*
X03906Y03109*
X03906Y03108*
X03905Y03108*
X03905Y03108*
X03905Y03108*
X03904Y03108*
X03904Y03108*
X03904Y03107*
X03903Y03107*
X03903Y03106*
X03903Y03106*
X03903Y03105*
X03903Y03105*
X03903Y03105*
X03902Y03105*
X03902Y03105*
X03902Y03105*
Y03105*
X039Y03105*
X039Y03106*
X039Y03106*
X039Y03107*
X03901Y03107*
X03901Y03107*
X03901Y03108*
X03901Y03108*
X03902Y03108*
X03902Y03109*
X03902Y03109*
X03902Y03109*
X03902Y03109*
X03902Y03109*
X03903Y03109*
X03903Y03109*
X03903Y03109*
X03903Y0311*
X03903Y0311*
X03904Y0311*
X03904Y0311*
X03905Y03111*
X03906Y03111*
X03906Y03111*
X03906Y03111*
X03907Y03111*
X03907Y03111*
X03907Y03111*
X03907*
X03908Y03111*
G37*
G36*
X04752Y03081D02*
X04752Y03081D01*
X04753Y03081*
X04753Y0308*
X04754Y0308*
X04754Y0308*
X04754Y0308*
X04755Y0308*
X04755Y03079*
X04755Y03079*
X04755Y03079*
X04755Y03079*
X04756Y03079*
X04756Y03079*
X04756Y03079*
X04756Y03079*
X04756Y03078*
X04756Y03078*
X04757Y03077*
X04757Y03077*
X04757Y03077*
X04757Y03076*
X04757Y03076*
X04757Y03075*
X04757Y03075*
X04757Y03075*
X04757Y03074*
Y03074*
Y03074*
Y03074*
X04757Y03074*
X04757Y03073*
X04757Y03073*
X04757Y03072*
X04757Y03072*
X04757Y03071*
X04757Y03071*
X04757Y03071*
X04756Y03071*
X04756Y0307*
X04756Y0307*
X04756Y0307*
X04756Y0307*
X04756Y0307*
X04756Y0307*
X04756Y0307*
X04755Y03069*
X04755Y03069*
X04755Y03069*
X04754Y03069*
X04754Y03068*
X04754Y03068*
X04753Y03068*
X04753Y03068*
X04753Y03068*
X04752Y03068*
X04752Y03068*
X04752Y03068*
X04752*
X04751Y03068*
X04751Y03068*
X0475Y03068*
X0475Y03068*
X0475Y03068*
X04749Y03069*
X04749Y03069*
X04749Y03069*
X04749Y03069*
X04748Y03069*
X04748Y0307*
X04748Y0307*
X04747Y0307*
X04747Y0307*
X04747Y0307*
X04747Y0307*
Y0307*
Y0307*
Y0307*
Y0307*
X04747Y03069*
X04747Y03069*
X04747Y03068*
X04747Y03068*
X04747Y03068*
X04747Y03067*
X04747Y03067*
Y03067*
X04747Y03067*
Y03067*
X04748Y03067*
X04748Y03066*
X04748Y03066*
X04748Y03065*
X04748Y03065*
X04748Y03065*
X04748Y03065*
X04748Y03065*
X04749Y03065*
X04749Y03064*
X04749Y03064*
X04749Y03064*
X04749Y03064*
X0475Y03064*
X0475Y03064*
X0475Y03063*
X0475Y03063*
X0475Y03063*
X04751Y03063*
X04751Y03063*
X04751Y03063*
X04751Y03063*
X04752*
X04752Y03063*
X04752Y03063*
X04753Y03063*
X04753Y03063*
X04753Y03063*
X04754Y03064*
X04754Y03064*
X04754Y03064*
X04754Y03064*
X04754Y03064*
X04754Y03065*
X04755Y03065*
X04755Y03065*
X04755Y03066*
X04755Y03066*
Y03066*
X04755Y03066*
Y03066*
X04757Y03066*
X04757Y03065*
X04757Y03064*
X04756Y03064*
X04756Y03063*
X04756Y03063*
X04756Y03063*
X04756Y03063*
X04755Y03062*
X04755Y03062*
X04755Y03062*
X04755Y03062*
X04755Y03062*
X04755Y03062*
X04754Y03062*
X04754Y03061*
X04753Y03061*
X04752Y03061*
X04752Y03061*
X04752*
X04752Y03061*
X04752*
X04751Y03061*
X0475Y03061*
X0475Y03061*
X04749Y03062*
X04749Y03062*
X04749Y03062*
X04748Y03062*
X04748Y03062*
X04748Y03062*
X04748Y03062*
X04748Y03062*
X04748*
X04747Y03063*
X04747Y03063*
X04747Y03064*
X04746Y03064*
X04746Y03065*
X04746Y03065*
X04746Y03065*
X04746Y03065*
X04746Y03065*
X04746Y03065*
Y03066*
X04745Y03066*
X04745Y03066*
X04745Y03067*
X04745Y03068*
X04745Y03069*
X04745Y0307*
X04745Y0307*
Y0307*
X04745Y03071*
Y03071*
Y03071*
Y03071*
Y03071*
Y03072*
X04745Y03073*
X04745Y03073*
X04745Y03074*
X04745Y03074*
X04745Y03075*
X04745Y03075*
X04745Y03075*
X04745Y03076*
X04745Y03076*
X04745Y03076*
X04745Y03076*
X04746Y03077*
X04746Y03077*
X04746Y03077*
Y03077*
X04746Y03077*
X04746Y03078*
X04747Y03079*
X04747Y03079*
X04747Y03079*
X04748Y03079*
X04748Y0308*
X04748Y0308*
X04748Y0308*
X04748*
X04749Y0308*
X04749Y0308*
X0475Y0308*
X0475Y03081*
X04751Y03081*
X04751Y03081*
X04751*
X04751Y03081*
X04751*
X04752Y03081*
G37*
G36*
X04768Y03081D02*
X04769Y03081D01*
X0477Y03081*
X0477Y0308*
X04771Y0308*
X04771Y0308*
X04771Y0308*
X04772Y0308*
X04772Y0308*
X04772Y0308*
X04772Y0308*
X04772Y0308*
X04772Y0308*
X04773Y03079*
X04774Y03079*
X04774Y03078*
X04775Y03078*
X04775Y03077*
X04775Y03077*
X04775Y03077*
X04775Y03077*
X04775Y03076*
X04775Y03076*
X04775Y03076*
X04776Y03075*
X04776Y03075*
X04776Y03074*
X04776Y03073*
X04776Y03073*
X04776Y03072*
X04776Y03072*
Y03072*
X04776Y03071*
Y03071*
Y03071*
Y03071*
X04776Y0307*
X04776Y03069*
X04776Y03068*
X04776Y03068*
X04776Y03068*
X04776Y03067*
X04776Y03067*
X04776Y03067*
X04776Y03066*
X04776Y03066*
X04776Y03066*
X04775Y03066*
Y03066*
X04775Y03065*
X04775Y03064*
X04774Y03064*
X04774Y03064*
X04774Y03063*
X04773Y03063*
X04773Y03063*
X04773Y03063*
X04773Y03063*
X04773Y03062*
X04773Y03062*
X04773Y03062*
X04773Y03062*
X04772Y03062*
X04772Y03062*
X04771Y03062*
X0477Y03061*
X04769Y03061*
X04769Y03061*
X04769Y03061*
X04768Y03061*
X04768*
X04768Y03061*
X04767*
X04767Y03061*
X04766Y03061*
X04766Y03061*
X04765Y03061*
X04765Y03061*
X04765Y03062*
X04764Y03062*
X04764Y03062*
X04764Y03062*
X04763Y03062*
X04763Y03062*
X04763Y03062*
X04763Y03063*
X04763Y03063*
X04762Y03063*
X04762Y03063*
X04762Y03063*
X04762Y03063*
X04761Y03064*
X04761Y03064*
X04761Y03065*
X0476Y03066*
X0476Y03066*
X0476Y03066*
X0476Y03067*
X0476Y03067*
X0476Y03067*
X0476Y03067*
X0476Y03067*
Y03067*
X04762Y03068*
X04762Y03068*
X04762Y03067*
X04762Y03067*
X04763Y03067*
X04763Y03066*
X04763Y03066*
X04763Y03066*
X04763Y03065*
X04763Y03065*
X04764Y03065*
X04764Y03065*
X04764Y03065*
X04764Y03065*
X04764Y03065*
X04764Y03064*
X04764Y03064*
X04764Y03064*
X04765Y03064*
X04765Y03064*
X04766Y03064*
X04766Y03063*
X04767Y03063*
X04767Y03063*
X04767*
X04768Y03063*
X04768*
X04768Y03063*
X04769Y03063*
X0477Y03064*
X0477Y03064*
X0477Y03064*
X04771Y03064*
X04771Y03064*
X04771Y03064*
X04771Y03064*
X04771Y03064*
X04771*
X04772Y03065*
X04772Y03065*
X04772Y03065*
X04773Y03066*
X04773Y03066*
X04773Y03067*
X04773Y03067*
X04773Y03067*
X04773Y03067*
Y03067*
X04773Y03068*
X04774Y03068*
X04774Y03069*
X04774Y0307*
X04774Y0307*
X04774Y0307*
Y03071*
X04774Y03071*
Y03071*
Y03071*
Y03071*
Y03071*
X04774Y03072*
X04774Y03073*
X04774Y03073*
X04774Y03074*
X04774Y03074*
X04773Y03074*
X04773Y03075*
X04773Y03075*
X04773Y03075*
X04773Y03075*
Y03075*
X04773Y03075*
X04773Y03076*
X04772Y03077*
X04772Y03077*
X04772Y03077*
X04771Y03077*
X04771Y03078*
X04771Y03078*
X04771*
X04771Y03078*
X0477Y03078*
X04769Y03079*
X04769Y03079*
X04768Y03079*
X04768Y03079*
X04768*
X04768Y03079*
X04768*
X04767Y03079*
X04766Y03079*
X04766Y03078*
X04765Y03078*
X04765Y03078*
X04765Y03078*
X04764Y03078*
X04764Y03078*
X04764Y03077*
X04763Y03077*
X04763Y03076*
X04763Y03076*
X04763Y03075*
X04763Y03075*
X04763Y03075*
X04762Y03075*
X04762Y03075*
X04762Y03075*
Y03075*
X0476Y03075*
X0476Y03076*
X0476Y03076*
X0476Y03077*
X04761Y03077*
X04761Y03077*
X04761Y03078*
X04761Y03078*
X04762Y03078*
X04762Y03079*
X04762Y03079*
X04762Y03079*
X04762Y03079*
X04762Y03079*
X04763Y03079*
X04763Y03079*
X04763Y03079*
X04763Y0308*
X04763Y0308*
X04764Y0308*
X04764Y0308*
X04765Y03081*
X04766Y03081*
X04766Y03081*
X04766Y03081*
X04767Y03081*
X04767Y03081*
X04767Y03081*
X04767*
X04768Y03081*
G37*
G36*
X08128Y03111D02*
X08129Y03111D01*
X08129Y0311*
X0813Y0311*
X0813Y0311*
X0813Y0311*
X08131Y0311*
X08131Y0311*
X08131Y03109*
X08132Y03109*
X08132Y03109*
X08132Y03109*
X08132Y03109*
X08132Y03109*
X08132Y03108*
X08132Y03108*
X08133Y03108*
X08133Y03107*
X08133Y03107*
X08134Y03106*
X08134Y03105*
X08134Y03105*
X08134Y03104*
X08134Y03103*
X08134Y03103*
X08134Y03102*
X08134Y03102*
X08134Y03101*
Y03101*
X08135Y03101*
Y03101*
Y031*
Y031*
Y031*
X08134Y03099*
X08134Y03099*
X08134Y03098*
X08134Y03097*
X08134Y03097*
X08134Y03096*
X08134Y03095*
X08134Y03095*
X08133Y03095*
X08133Y03094*
X08133Y03094*
X08133Y03094*
X08133Y03093*
X08133Y03093*
X08133Y03093*
X08133Y03093*
X08132Y03093*
X08132Y03093*
X08132Y03092*
X08131Y03092*
X08131Y03092*
X0813Y03092*
X0813Y03091*
X0813Y03091*
X08129Y03091*
X08129Y03091*
X08129Y03091*
X08128Y03091*
X08128*
X08128Y03091*
X08128*
X08127Y03091*
X08127Y03091*
X08126Y03091*
X08126Y03091*
X08125Y03092*
X08125Y03092*
X08125Y03092*
X08125Y03092*
X08125Y03092*
X08125*
X08124Y03092*
X08124Y03093*
X08123Y03093*
X08123Y03093*
X08123Y03094*
X08123Y03094*
X08123Y03094*
X08123Y03094*
X08123Y03094*
Y03094*
X08122Y03095*
X08122Y03095*
X08122Y03096*
X08122Y03097*
X08122Y03097*
Y03097*
X08122Y03097*
Y03097*
Y03098*
Y03098*
Y03098*
X08122Y03098*
X08122Y03099*
X08122Y03099*
X08122Y03099*
X08122Y031*
X08122Y031*
X08122Y03101*
X08123Y03101*
X08123Y03101*
X08123Y03101*
X08123Y03102*
X08123Y03102*
X08123Y03102*
X08123Y03102*
X08123Y03102*
X08123Y03102*
X08124Y03102*
X08124Y03103*
X08124Y03103*
X08125Y03103*
X08125Y03103*
X08125Y03103*
X08126Y03104*
X08126Y03104*
X08127Y03104*
X08127Y03104*
X08127Y03104*
X08127Y03104*
X08127*
X08128Y03104*
X08128Y03104*
X08129Y03104*
X08129Y03104*
X0813Y03103*
X0813Y03103*
X0813Y03103*
X0813Y03103*
X0813*
X08131Y03103*
X08131Y03103*
X08131Y03102*
X08132Y03102*
X08132Y03102*
X08132Y03101*
X08132Y03101*
X08132Y03101*
Y03102*
X08132Y03102*
X08132Y03103*
X08132Y03103*
X08132Y03104*
X08132Y03104*
X08132Y03104*
X08132Y03105*
X08132Y03105*
X08132Y03105*
X08132Y03105*
X08132Y03105*
X08132Y03106*
X08132Y03106*
X08132Y03106*
Y03106*
X08131Y03106*
X08131Y03107*
X08131Y03107*
X0813Y03107*
X0813Y03108*
X0813Y03108*
X0813Y03108*
X0813Y03108*
X08129Y03108*
X08129Y03108*
X08129Y03109*
X08128Y03109*
X08128Y03109*
X08128Y03109*
X08128*
X08127Y03109*
X08127Y03109*
X08126Y03108*
X08126Y03108*
X08126Y03108*
X08126Y03108*
X08125Y03108*
X08125Y03108*
X08125Y03107*
X08125Y03107*
X08125Y03107*
X08125Y03106*
X08125Y03106*
X08125Y03106*
X08125Y03106*
X08124Y03106*
Y03106*
X08122Y03106*
X08122Y03107*
X08123Y03107*
X08123Y03108*
X08123Y03108*
X08123Y03109*
X08124Y03109*
X08124Y03109*
X08124Y03109*
X08124Y03109*
X08124Y03109*
X08124Y03109*
X08124Y0311*
X08124Y0311*
X08125Y0311*
X08126Y0311*
X08126Y03111*
X08127Y03111*
X08127Y03111*
X08127*
X08127Y03111*
X08128*
X08128Y03111*
G37*
G36*
X08145Y03111D02*
X08146Y03111D01*
X08147Y03111*
X08147Y0311*
X08148Y0311*
X08148Y0311*
X08148Y0311*
X08149Y0311*
X08149Y0311*
X08149Y0311*
X08149Y0311*
X08149Y0311*
X08149Y0311*
X0815Y03109*
X08151Y03109*
X08151Y03108*
X08152Y03108*
X08152Y03107*
X08152Y03107*
X08152Y03107*
X08152Y03107*
X08152Y03106*
X08152Y03106*
X08152Y03106*
X08153Y03105*
X08153Y03105*
X08153Y03104*
X08153Y03103*
X08153Y03103*
X08153Y03102*
X08153Y03102*
Y03102*
X08154Y03101*
Y03101*
Y03101*
Y03101*
X08153Y031*
X08153Y03099*
X08153Y03098*
X08153Y03098*
X08153Y03098*
X08153Y03097*
X08153Y03097*
X08153Y03097*
X08153Y03096*
X08153Y03096*
X08153Y03096*
X08153Y03096*
Y03096*
X08152Y03095*
X08152Y03094*
X08151Y03094*
X08151Y03094*
X08151Y03093*
X0815Y03093*
X0815Y03093*
X0815Y03093*
X0815Y03093*
X0815Y03092*
X0815Y03092*
X0815Y03092*
X0815Y03092*
X08149Y03092*
X08149Y03092*
X08148Y03092*
X08147Y03091*
X08146Y03091*
X08146Y03091*
X08146Y03091*
X08145Y03091*
X08145*
X08145Y03091*
X08145*
X08144Y03091*
X08143Y03091*
X08143Y03091*
X08142Y03091*
X08142Y03091*
X08142Y03092*
X08141Y03092*
X08141Y03092*
X08141Y03092*
X0814Y03092*
X0814Y03092*
X0814Y03092*
X0814Y03093*
X0814Y03093*
X08139Y03093*
X08139Y03093*
X08139Y03093*
X08139Y03093*
X08138Y03094*
X08138Y03094*
X08138Y03095*
X08137Y03096*
X08137Y03096*
X08137Y03096*
X08137Y03097*
X08137Y03097*
X08137Y03097*
X08137Y03097*
X08137Y03097*
Y03097*
X08139Y03098*
X08139Y03098*
X08139Y03097*
X08139Y03097*
X0814Y03097*
X0814Y03096*
X0814Y03096*
X0814Y03096*
X0814Y03095*
X0814Y03095*
X08141Y03095*
X08141Y03095*
X08141Y03095*
X08141Y03095*
X08141Y03095*
X08141Y03094*
X08141Y03094*
X08141Y03094*
X08142Y03094*
X08142Y03094*
X08143Y03094*
X08143Y03093*
X08144Y03093*
X08144Y03093*
X08144*
X08145Y03093*
X08145*
X08145Y03093*
X08146Y03093*
X08147Y03094*
X08147Y03094*
X08147Y03094*
X08148Y03094*
X08148Y03094*
X08148Y03094*
X08148Y03094*
X08148Y03094*
X08148*
X08149Y03095*
X08149Y03095*
X08149Y03095*
X0815Y03096*
X0815Y03096*
X0815Y03097*
X0815Y03097*
X0815Y03097*
X0815Y03097*
Y03097*
X0815Y03098*
X08151Y03098*
X08151Y03099*
X08151Y031*
X08151Y031*
X08151Y031*
Y03101*
X08151Y03101*
Y03101*
Y03101*
Y03101*
Y03101*
X08151Y03102*
X08151Y03103*
X08151Y03103*
X08151Y03104*
X08151Y03104*
X0815Y03104*
X0815Y03105*
X0815Y03105*
X0815Y03105*
X0815Y03105*
Y03105*
X0815Y03105*
X0815Y03106*
X08149Y03107*
X08149Y03107*
X08149Y03107*
X08148Y03107*
X08148Y03108*
X08148Y03108*
X08148*
X08148Y03108*
X08147Y03108*
X08146Y03109*
X08146Y03109*
X08145Y03109*
X08145Y03109*
X08145*
X08145Y03109*
X08145*
X08144Y03109*
X08143Y03109*
X08143Y03108*
X08142Y03108*
X08142Y03108*
X08142Y03108*
X08141Y03108*
X08141Y03108*
X08141Y03107*
X0814Y03107*
X0814Y03106*
X0814Y03106*
X0814Y03105*
X0814Y03105*
X0814Y03105*
X08139Y03105*
X08139Y03105*
X08139Y03105*
Y03105*
X08137Y03105*
X08137Y03106*
X08137Y03106*
X08137Y03107*
X08138Y03107*
X08138Y03107*
X08138Y03108*
X08138Y03108*
X08139Y03108*
X08139Y03109*
X08139Y03109*
X08139Y03109*
X08139Y03109*
X08139Y03109*
X0814Y03109*
X0814Y03109*
X0814Y03109*
X0814Y0311*
X0814Y0311*
X08141Y0311*
X08141Y0311*
X08142Y03111*
X08143Y03111*
X08143Y03111*
X08143Y03111*
X08144Y03111*
X08144Y03111*
X08144Y03111*
X08144*
X08145Y03111*
G37*
G36*
X08989Y03081D02*
X08989Y03081D01*
X0899Y03081*
X0899Y0308*
X08991Y0308*
X08991Y0308*
X08991Y0308*
X08992Y0308*
X08992Y03079*
X08992Y03079*
X08992Y03079*
X08993Y03079*
X08993Y03079*
X08993Y03079*
X08993Y03079*
X08993Y03079*
X08993Y03078*
X08993Y03078*
X08994Y03077*
X08994Y03077*
X08994Y03077*
X08994Y03076*
X08994Y03076*
X08994Y03075*
X08994Y03075*
X08994Y03075*
X08994Y03074*
Y03074*
Y03074*
Y03074*
X08994Y03074*
X08994Y03073*
X08994Y03073*
X08994Y03072*
X08994Y03072*
X08994Y03071*
X08994Y03071*
X08994Y03071*
X08993Y03071*
X08993Y0307*
X08993Y0307*
X08993Y0307*
X08993Y0307*
X08993Y0307*
X08993Y0307*
X08993Y0307*
X08992Y03069*
X08992Y03069*
X08992Y03069*
X08991Y03069*
X08991Y03068*
X08991Y03068*
X0899Y03068*
X0899Y03068*
X0899Y03068*
X08989Y03068*
X08989Y03068*
X08989Y03068*
X08989*
X08988Y03068*
X08988Y03068*
X08987Y03068*
X08987Y03068*
X08987Y03068*
X08986Y03069*
X08986Y03069*
X08986Y03069*
X08986Y03069*
X08985Y03069*
X08985Y0307*
X08985Y0307*
X08984Y0307*
X08984Y0307*
X08984Y0307*
X08984Y0307*
Y0307*
Y0307*
Y0307*
Y0307*
X08984Y03069*
X08984Y03069*
X08984Y03068*
X08984Y03068*
X08984Y03068*
X08984Y03067*
X08984Y03067*
Y03067*
X08985Y03067*
Y03067*
X08985Y03067*
X08985Y03066*
X08985Y03066*
X08985Y03065*
X08985Y03065*
X08985Y03065*
X08985Y03065*
X08985Y03065*
X08986Y03065*
X08986Y03064*
X08986Y03064*
X08986Y03064*
X08986Y03064*
X08987Y03064*
X08987Y03064*
X08987Y03063*
X08987Y03063*
X08987Y03063*
X08988Y03063*
X08988Y03063*
X08988Y03063*
X08988Y03063*
X08989*
X08989Y03063*
X08989Y03063*
X0899Y03063*
X0899Y03063*
X0899Y03063*
X08991Y03064*
X08991Y03064*
X08991Y03064*
X08991Y03064*
X08991Y03064*
X08991Y03065*
X08992Y03065*
X08992Y03065*
X08992Y03066*
X08992Y03066*
Y03066*
X08992Y03066*
Y03066*
X08994Y03066*
X08994Y03065*
X08994Y03064*
X08993Y03064*
X08993Y03063*
X08993Y03063*
X08993Y03063*
X08993Y03063*
X08992Y03062*
X08992Y03062*
X08992Y03062*
X08992Y03062*
X08992Y03062*
X08992Y03062*
X08991Y03062*
X08991Y03061*
X0899Y03061*
X08989Y03061*
X08989Y03061*
X08989*
X08989Y03061*
X08989*
X08988Y03061*
X08987Y03061*
X08987Y03061*
X08986Y03062*
X08986Y03062*
X08986Y03062*
X08985Y03062*
X08985Y03062*
X08985Y03062*
X08985Y03062*
X08985Y03062*
X08985*
X08984Y03063*
X08984Y03063*
X08984Y03064*
X08983Y03064*
X08983Y03065*
X08983Y03065*
X08983Y03065*
X08983Y03065*
X08983Y03065*
X08983Y03065*
Y03066*
X08982Y03066*
X08982Y03066*
X08982Y03067*
X08982Y03068*
X08982Y03069*
X08982Y0307*
X08982Y0307*
Y0307*
X08982Y03071*
Y03071*
Y03071*
Y03071*
Y03071*
Y03072*
X08982Y03073*
X08982Y03073*
X08982Y03074*
X08982Y03074*
X08982Y03075*
X08982Y03075*
X08982Y03075*
X08982Y03076*
X08982Y03076*
X08982Y03076*
X08982Y03076*
X08983Y03077*
X08983Y03077*
X08983Y03077*
Y03077*
X08983Y03077*
X08983Y03078*
X08984Y03079*
X08984Y03079*
X08984Y03079*
X08985Y03079*
X08985Y0308*
X08985Y0308*
X08985Y0308*
X08985*
X08986Y0308*
X08986Y0308*
X08987Y0308*
X08987Y03081*
X08988Y03081*
X08988Y03081*
X08988*
X08988Y03081*
X08988*
X08989Y03081*
G37*
G36*
X09005Y03081D02*
X09006Y03081D01*
X09007Y03081*
X09007Y0308*
X09008Y0308*
X09008Y0308*
X09008Y0308*
X09009Y0308*
X09009Y0308*
X09009Y0308*
X09009Y0308*
X09009Y0308*
X09009Y0308*
X0901Y03079*
X09011Y03079*
X09011Y03078*
X09012Y03078*
X09012Y03077*
X09012Y03077*
X09012Y03077*
X09012Y03077*
X09012Y03076*
X09012Y03076*
X09012Y03076*
X09013Y03075*
X09013Y03075*
X09013Y03074*
X09013Y03073*
X09013Y03073*
X09013Y03072*
X09013Y03072*
Y03072*
X09014Y03071*
Y03071*
Y03071*
Y03071*
X09013Y0307*
X09013Y03069*
X09013Y03068*
X09013Y03068*
X09013Y03068*
X09013Y03067*
X09013Y03067*
X09013Y03067*
X09013Y03066*
X09013Y03066*
X09013Y03066*
X09013Y03066*
Y03066*
X09012Y03065*
X09012Y03064*
X09011Y03064*
X09011Y03064*
X09011Y03063*
X0901Y03063*
X0901Y03063*
X0901Y03063*
X0901Y03063*
X0901Y03062*
X0901Y03062*
X0901Y03062*
X0901Y03062*
X09009Y03062*
X09009Y03062*
X09008Y03062*
X09007Y03061*
X09006Y03061*
X09006Y03061*
X09006Y03061*
X09005Y03061*
X09005*
X09005Y03061*
X09005*
X09004Y03061*
X09003Y03061*
X09003Y03061*
X09002Y03061*
X09002Y03061*
X09002Y03062*
X09001Y03062*
X09001Y03062*
X09001Y03062*
X09Y03062*
X09Y03062*
X09Y03062*
X09Y03063*
X09Y03063*
X08999Y03063*
X08999Y03063*
X08999Y03063*
X08999Y03063*
X08998Y03064*
X08998Y03064*
X08998Y03065*
X08997Y03066*
X08997Y03066*
X08997Y03066*
X08997Y03067*
X08997Y03067*
X08997Y03067*
X08997Y03067*
X08997Y03067*
Y03067*
X08999Y03068*
X08999Y03068*
X08999Y03067*
X08999Y03067*
X09Y03067*
X09Y03066*
X09Y03066*
X09Y03066*
X09Y03065*
X09Y03065*
X09001Y03065*
X09001Y03065*
X09001Y03065*
X09001Y03065*
X09001Y03065*
X09001Y03064*
X09001Y03064*
X09001Y03064*
X09002Y03064*
X09002Y03064*
X09003Y03064*
X09003Y03063*
X09004Y03063*
X09004Y03063*
X09004*
X09005Y03063*
X09005*
X09005Y03063*
X09006Y03063*
X09007Y03064*
X09007Y03064*
X09007Y03064*
X09008Y03064*
X09008Y03064*
X09008Y03064*
X09008Y03064*
X09008Y03064*
X09008*
X09009Y03065*
X09009Y03065*
X09009Y03065*
X0901Y03066*
X0901Y03066*
X0901Y03067*
X0901Y03067*
X0901Y03067*
X0901Y03067*
Y03067*
X0901Y03068*
X09011Y03068*
X09011Y03069*
X09011Y0307*
X09011Y0307*
X09011Y0307*
Y03071*
X09011Y03071*
Y03071*
Y03071*
Y03071*
Y03071*
X09011Y03072*
X09011Y03073*
X09011Y03073*
X09011Y03074*
X09011Y03074*
X0901Y03074*
X0901Y03075*
X0901Y03075*
X0901Y03075*
X0901Y03075*
Y03075*
X0901Y03075*
X0901Y03076*
X09009Y03077*
X09009Y03077*
X09009Y03077*
X09008Y03077*
X09008Y03078*
X09008Y03078*
X09008*
X09008Y03078*
X09007Y03078*
X09006Y03079*
X09006Y03079*
X09005Y03079*
X09005Y03079*
X09005*
X09005Y03079*
X09005*
X09004Y03079*
X09003Y03079*
X09003Y03078*
X09002Y03078*
X09002Y03078*
X09002Y03078*
X09001Y03078*
X09001Y03078*
X09001Y03077*
X09Y03077*
X09Y03076*
X09Y03076*
X09Y03075*
X09Y03075*
X09Y03075*
X08999Y03075*
X08999Y03075*
X08999Y03075*
Y03075*
X08997Y03075*
X08997Y03076*
X08997Y03076*
X08997Y03077*
X08998Y03077*
X08998Y03077*
X08998Y03078*
X08998Y03078*
X08999Y03078*
X08999Y03079*
X08999Y03079*
X08999Y03079*
X08999Y03079*
X08999Y03079*
X09Y03079*
X09Y03079*
X09Y03079*
X09Y0308*
X09Y0308*
X09001Y0308*
X09001Y0308*
X09002Y03081*
X09003Y03081*
X09003Y03081*
X09003Y03081*
X09004Y03081*
X09004Y03081*
X09004Y03081*
X09004*
X09005Y03081*
G37*
G36*
X03891Y05373D02*
X03892Y05373D01*
X03892Y05372*
X03893Y05372*
X03893Y05372*
X03893Y05372*
X03894Y05372*
X03894Y05372*
X03894Y05371*
X03895Y05371*
X03895Y05371*
X03895Y05371*
X03895Y05371*
X03895Y05371*
X03895Y0537*
X03895Y0537*
X03896Y0537*
X03896Y05369*
X03896Y05369*
X03897Y05368*
X03897Y05367*
X03897Y05367*
X03897Y05366*
X03897Y05365*
X03897Y05365*
X03897Y05364*
X03897Y05364*
X03897Y05363*
Y05363*
X03897Y05363*
Y05363*
Y05362*
Y05362*
Y05362*
X03897Y05361*
X03897Y05361*
X03897Y0536*
X03897Y05359*
X03897Y05359*
X03897Y05358*
X03897Y05357*
X03897Y05357*
X03896Y05357*
X03896Y05356*
X03896Y05356*
X03896Y05356*
X03896Y05355*
X03896Y05355*
X03896Y05355*
X03896Y05355*
X03895Y05355*
X03895Y05355*
X03895Y05354*
X03894Y05354*
X03894Y05354*
X03893Y05354*
X03893Y05353*
X03893Y05353*
X03892Y05353*
X03892Y05353*
X03892Y05353*
X03891Y05353*
X03891*
X03891Y05353*
X03891*
X0389Y05353*
X0389Y05353*
X03889Y05353*
X03889Y05353*
X03888Y05354*
X03888Y05354*
X03888Y05354*
X03888Y05354*
X03888Y05354*
X03888*
X03887Y05354*
X03887Y05355*
X03886Y05355*
X03886Y05355*
X03886Y05356*
X03886Y05356*
X03886Y05356*
X03886Y05356*
X03886Y05356*
Y05356*
X03885Y05357*
X03885Y05357*
X03885Y05358*
X03885Y05359*
X03885Y05359*
Y05359*
X03885Y05359*
Y05359*
Y0536*
Y0536*
Y0536*
X03885Y0536*
X03885Y05361*
X03885Y05361*
X03885Y05361*
X03885Y05362*
X03885Y05362*
X03885Y05363*
X03886Y05363*
X03886Y05363*
X03886Y05363*
X03886Y05364*
X03886Y05364*
X03886Y05364*
X03886Y05364*
X03886Y05364*
X03886Y05364*
X03887Y05364*
X03887Y05365*
X03887Y05365*
X03888Y05365*
X03888Y05365*
X03888Y05365*
X03889Y05366*
X03889Y05366*
X0389Y05366*
X0389Y05366*
X0389Y05366*
X0389Y05366*
X0389*
X03891Y05366*
X03891Y05366*
X03892Y05366*
X03892Y05366*
X03893Y05365*
X03893Y05365*
X03893Y05365*
X03893Y05365*
X03893*
X03894Y05365*
X03894Y05365*
X03894Y05364*
X03895Y05364*
X03895Y05364*
X03895Y05363*
X03895Y05363*
X03895Y05363*
Y05364*
X03895Y05364*
X03895Y05365*
X03895Y05365*
X03895Y05366*
X03895Y05366*
X03895Y05366*
X03895Y05367*
X03895Y05367*
X03895Y05367*
X03895Y05367*
X03895Y05367*
X03895Y05368*
X03895Y05368*
X03895Y05368*
Y05368*
X03894Y05368*
X03894Y05369*
X03894Y05369*
X03893Y05369*
X03893Y0537*
X03893Y0537*
X03893Y0537*
X03893Y0537*
X03892Y0537*
X03892Y0537*
X03892Y05371*
X03891Y05371*
X03891Y05371*
X03891Y05371*
X03891*
X0389Y05371*
X0389Y05371*
X03889Y0537*
X03889Y0537*
X03889Y0537*
X03889Y0537*
X03888Y0537*
X03888Y0537*
X03888Y05369*
X03888Y05369*
X03888Y05369*
X03888Y05368*
X03888Y05368*
X03888Y05368*
X03887Y05368*
X03887Y05368*
Y05368*
X03885Y05368*
X03885Y05369*
X03886Y05369*
X03886Y0537*
X03886Y0537*
X03886Y05371*
X03887Y05371*
X03887Y05371*
X03887Y05371*
X03887Y05371*
X03887Y05371*
X03887Y05371*
X03887Y05372*
X03887Y05372*
X03888Y05372*
X03889Y05372*
X03889Y05373*
X0389Y05373*
X0389Y05373*
X0389*
X0389Y05373*
X03891*
X03891Y05373*
G37*
G36*
X03908Y05373D02*
X03909Y05373D01*
X0391Y05373*
X0391Y05372*
X03911Y05372*
X03911Y05372*
X03911Y05372*
X03912Y05372*
X03912Y05372*
X03912Y05372*
X03912Y05372*
X03912Y05372*
X03912Y05372*
X03913Y05371*
X03914Y05371*
X03914Y0537*
X03915Y0537*
X03915Y05369*
X03915Y05369*
X03915Y05369*
X03915Y05369*
X03915Y05368*
X03915Y05368*
X03915Y05368*
X03916Y05367*
X03916Y05367*
X03916Y05366*
X03916Y05365*
X03916Y05365*
X03916Y05364*
X03916Y05364*
Y05364*
X03916Y05363*
Y05363*
Y05363*
Y05363*
X03916Y05362*
X03916Y05361*
X03916Y0536*
X03916Y0536*
X03916Y0536*
X03916Y05359*
X03916Y05359*
X03916Y05359*
X03916Y05358*
X03916Y05358*
X03916Y05358*
X03915Y05358*
Y05358*
X03915Y05357*
X03915Y05356*
X03914Y05356*
X03914Y05356*
X03914Y05355*
X03913Y05355*
X03913Y05355*
X03913Y05355*
X03913Y05355*
X03913Y05354*
X03913Y05354*
X03913Y05354*
X03913Y05354*
X03912Y05354*
X03912Y05354*
X03911Y05354*
X0391Y05353*
X03909Y05353*
X03909Y05353*
X03909Y05353*
X03908Y05353*
X03908*
X03908Y05353*
X03907*
X03907Y05353*
X03906Y05353*
X03906Y05353*
X03905Y05353*
X03905Y05353*
X03905Y05354*
X03904Y05354*
X03904Y05354*
X03904Y05354*
X03903Y05354*
X03903Y05354*
X03903Y05354*
X03903Y05355*
X03903Y05355*
X03902Y05355*
X03902Y05355*
X03902Y05355*
X03902Y05355*
X03901Y05356*
X03901Y05356*
X03901Y05357*
X039Y05358*
X039Y05358*
X039Y05358*
X039Y05359*
X039Y05359*
X039Y05359*
X039Y05359*
X039Y05359*
Y05359*
X03902Y0536*
X03902Y0536*
X03902Y05359*
X03902Y05359*
X03903Y05359*
X03903Y05358*
X03903Y05358*
X03903Y05358*
X03903Y05357*
X03903Y05357*
X03904Y05357*
X03904Y05357*
X03904Y05357*
X03904Y05357*
X03904Y05357*
X03904Y05356*
X03904Y05356*
X03904Y05356*
X03905Y05356*
X03905Y05356*
X03906Y05356*
X03906Y05355*
X03907Y05355*
X03907Y05355*
X03907*
X03908Y05355*
X03908*
X03908Y05355*
X03909Y05355*
X0391Y05356*
X0391Y05356*
X0391Y05356*
X03911Y05356*
X03911Y05356*
X03911Y05356*
X03911Y05356*
X03911Y05356*
X03911*
X03912Y05357*
X03912Y05357*
X03912Y05357*
X03913Y05358*
X03913Y05358*
X03913Y05359*
X03913Y05359*
X03913Y05359*
X03913Y05359*
Y05359*
X03913Y0536*
X03914Y0536*
X03914Y05361*
X03914Y05362*
X03914Y05362*
X03914Y05362*
Y05363*
X03914Y05363*
Y05363*
Y05363*
Y05363*
Y05363*
X03914Y05364*
X03914Y05365*
X03914Y05365*
X03914Y05366*
X03914Y05366*
X03913Y05366*
X03913Y05367*
X03913Y05367*
X03913Y05367*
X03913Y05367*
Y05367*
X03913Y05367*
X03913Y05368*
X03912Y05369*
X03912Y05369*
X03912Y05369*
X03911Y05369*
X03911Y0537*
X03911Y0537*
X03911*
X03911Y0537*
X0391Y0537*
X03909Y05371*
X03909Y05371*
X03908Y05371*
X03908Y05371*
X03908*
X03908Y05371*
X03908*
X03907Y05371*
X03906Y05371*
X03906Y0537*
X03905Y0537*
X03905Y0537*
X03905Y0537*
X03904Y0537*
X03904Y0537*
X03904Y05369*
X03903Y05369*
X03903Y05368*
X03903Y05368*
X03903Y05367*
X03903Y05367*
X03903Y05367*
X03902Y05367*
X03902Y05367*
X03902Y05367*
Y05367*
X039Y05367*
X039Y05368*
X039Y05368*
X039Y05369*
X03901Y05369*
X03901Y05369*
X03901Y0537*
X03901Y0537*
X03902Y0537*
X03902Y05371*
X03902Y05371*
X03902Y05371*
X03902Y05371*
X03902Y05371*
X03903Y05371*
X03903Y05371*
X03903Y05371*
X03903Y05372*
X03903Y05372*
X03904Y05372*
X03904Y05372*
X03905Y05373*
X03906Y05373*
X03906Y05373*
X03906Y05373*
X03907Y05373*
X03907Y05373*
X03907Y05373*
X03907*
X03908Y05373*
G37*
G36*
X04752Y05343D02*
X04752Y05343D01*
X04753Y05343*
X04753Y05342*
X04754Y05342*
X04754Y05342*
X04754Y05342*
X04755Y05342*
X04755Y05341*
X04755Y05341*
X04755Y05341*
X04755Y05341*
X04756Y05341*
X04756Y05341*
X04756Y05341*
X04756Y05341*
X04756Y0534*
X04756Y0534*
X04757Y05339*
X04757Y05339*
X04757Y05339*
X04757Y05338*
X04757Y05338*
X04757Y05337*
X04757Y05337*
X04757Y05337*
X04757Y05336*
Y05336*
Y05336*
Y05336*
X04757Y05336*
X04757Y05335*
X04757Y05335*
X04757Y05334*
X04757Y05334*
X04757Y05333*
X04757Y05333*
X04757Y05333*
X04756Y05333*
X04756Y05332*
X04756Y05332*
X04756Y05332*
X04756Y05332*
X04756Y05332*
X04756Y05332*
X04756Y05332*
X04755Y05331*
X04755Y05331*
X04755Y05331*
X04754Y05331*
X04754Y0533*
X04754Y0533*
X04753Y0533*
X04753Y0533*
X04753Y0533*
X04752Y0533*
X04752Y0533*
X04752Y0533*
X04752*
X04751Y0533*
X04751Y0533*
X0475Y0533*
X0475Y0533*
X0475Y0533*
X04749Y05331*
X04749Y05331*
X04749Y05331*
X04749Y05331*
X04748Y05331*
X04748Y05332*
X04748Y05332*
X04747Y05332*
X04747Y05332*
X04747Y05332*
X04747Y05332*
Y05332*
Y05332*
Y05332*
Y05332*
X04747Y05331*
X04747Y05331*
X04747Y0533*
X04747Y0533*
X04747Y0533*
X04747Y05329*
X04747Y05329*
Y05329*
X04747Y05329*
Y05329*
X04748Y05329*
X04748Y05328*
X04748Y05328*
X04748Y05327*
X04748Y05327*
X04748Y05327*
X04748Y05327*
X04748Y05327*
X04749Y05327*
X04749Y05326*
X04749Y05326*
X04749Y05326*
X04749Y05326*
X0475Y05326*
X0475Y05326*
X0475Y05325*
X0475Y05325*
X0475Y05325*
X04751Y05325*
X04751Y05325*
X04751Y05325*
X04751Y05325*
X04752*
X04752Y05325*
X04752Y05325*
X04753Y05325*
X04753Y05325*
X04753Y05325*
X04754Y05326*
X04754Y05326*
X04754Y05326*
X04754Y05326*
X04754Y05326*
X04754Y05327*
X04755Y05327*
X04755Y05327*
X04755Y05328*
X04755Y05328*
Y05328*
X04755Y05328*
Y05328*
X04757Y05328*
X04757Y05327*
X04757Y05326*
X04756Y05326*
X04756Y05325*
X04756Y05325*
X04756Y05325*
X04756Y05325*
X04755Y05324*
X04755Y05324*
X04755Y05324*
X04755Y05324*
X04755Y05324*
X04755Y05324*
X04754Y05324*
X04754Y05323*
X04753Y05323*
X04752Y05323*
X04752Y05323*
X04752*
X04752Y05323*
X04752*
X04751Y05323*
X0475Y05323*
X0475Y05323*
X04749Y05324*
X04749Y05324*
X04749Y05324*
X04748Y05324*
X04748Y05324*
X04748Y05324*
X04748Y05324*
X04748Y05324*
X04748*
X04747Y05325*
X04747Y05325*
X04747Y05326*
X04746Y05326*
X04746Y05327*
X04746Y05327*
X04746Y05327*
X04746Y05327*
X04746Y05327*
X04746Y05327*
Y05328*
X04745Y05328*
X04745Y05328*
X04745Y05329*
X04745Y0533*
X04745Y05331*
X04745Y05332*
X04745Y05332*
Y05332*
X04745Y05333*
Y05333*
Y05333*
Y05333*
Y05333*
Y05334*
X04745Y05335*
X04745Y05335*
X04745Y05336*
X04745Y05336*
X04745Y05337*
X04745Y05337*
X04745Y05337*
X04745Y05338*
X04745Y05338*
X04745Y05338*
X04745Y05338*
X04746Y05339*
X04746Y05339*
X04746Y05339*
Y05339*
X04746Y05339*
X04746Y0534*
X04747Y05341*
X04747Y05341*
X04747Y05341*
X04748Y05341*
X04748Y05342*
X04748Y05342*
X04748Y05342*
X04748*
X04749Y05342*
X04749Y05342*
X0475Y05342*
X0475Y05343*
X04751Y05343*
X04751Y05343*
X04751*
X04751Y05343*
X04751*
X04752Y05343*
G37*
G36*
X04768Y05343D02*
X04769Y05343D01*
X0477Y05343*
X0477Y05342*
X04771Y05342*
X04771Y05342*
X04771Y05342*
X04772Y05342*
X04772Y05342*
X04772Y05342*
X04772Y05342*
X04772Y05342*
X04772Y05342*
X04773Y05341*
X04774Y05341*
X04774Y0534*
X04775Y0534*
X04775Y05339*
X04775Y05339*
X04775Y05339*
X04775Y05339*
X04775Y05338*
X04775Y05338*
X04775Y05338*
X04776Y05337*
X04776Y05337*
X04776Y05336*
X04776Y05335*
X04776Y05335*
X04776Y05334*
X04776Y05334*
Y05334*
X04776Y05333*
Y05333*
Y05333*
Y05333*
X04776Y05332*
X04776Y05331*
X04776Y0533*
X04776Y0533*
X04776Y0533*
X04776Y05329*
X04776Y05329*
X04776Y05329*
X04776Y05328*
X04776Y05328*
X04776Y05328*
X04775Y05328*
Y05328*
X04775Y05327*
X04775Y05326*
X04774Y05326*
X04774Y05326*
X04774Y05325*
X04773Y05325*
X04773Y05325*
X04773Y05325*
X04773Y05325*
X04773Y05324*
X04773Y05324*
X04773Y05324*
X04773Y05324*
X04772Y05324*
X04772Y05324*
X04771Y05324*
X0477Y05323*
X04769Y05323*
X04769Y05323*
X04769Y05323*
X04768Y05323*
X04768*
X04768Y05323*
X04767*
X04767Y05323*
X04766Y05323*
X04766Y05323*
X04765Y05323*
X04765Y05323*
X04765Y05324*
X04764Y05324*
X04764Y05324*
X04764Y05324*
X04763Y05324*
X04763Y05324*
X04763Y05324*
X04763Y05325*
X04763Y05325*
X04762Y05325*
X04762Y05325*
X04762Y05325*
X04762Y05325*
X04761Y05326*
X04761Y05326*
X04761Y05327*
X0476Y05328*
X0476Y05328*
X0476Y05328*
X0476Y05329*
X0476Y05329*
X0476Y05329*
X0476Y05329*
X0476Y05329*
Y05329*
X04762Y0533*
X04762Y0533*
X04762Y05329*
X04762Y05329*
X04763Y05329*
X04763Y05328*
X04763Y05328*
X04763Y05328*
X04763Y05327*
X04763Y05327*
X04764Y05327*
X04764Y05327*
X04764Y05327*
X04764Y05327*
X04764Y05327*
X04764Y05326*
X04764Y05326*
X04764Y05326*
X04765Y05326*
X04765Y05326*
X04766Y05326*
X04766Y05325*
X04767Y05325*
X04767Y05325*
X04767*
X04768Y05325*
X04768*
X04768Y05325*
X04769Y05325*
X0477Y05326*
X0477Y05326*
X0477Y05326*
X04771Y05326*
X04771Y05326*
X04771Y05326*
X04771Y05326*
X04771Y05326*
X04771*
X04772Y05327*
X04772Y05327*
X04772Y05327*
X04773Y05328*
X04773Y05328*
X04773Y05329*
X04773Y05329*
X04773Y05329*
X04773Y05329*
Y05329*
X04773Y0533*
X04774Y0533*
X04774Y05331*
X04774Y05332*
X04774Y05332*
X04774Y05332*
Y05333*
X04774Y05333*
Y05333*
Y05333*
Y05333*
Y05333*
X04774Y05334*
X04774Y05335*
X04774Y05335*
X04774Y05336*
X04774Y05336*
X04773Y05336*
X04773Y05337*
X04773Y05337*
X04773Y05337*
X04773Y05337*
Y05337*
X04773Y05337*
X04773Y05338*
X04772Y05339*
X04772Y05339*
X04772Y05339*
X04771Y05339*
X04771Y0534*
X04771Y0534*
X04771*
X04771Y0534*
X0477Y0534*
X04769Y05341*
X04769Y05341*
X04768Y05341*
X04768Y05341*
X04768*
X04768Y05341*
X04768*
X04767Y05341*
X04766Y05341*
X04766Y0534*
X04765Y0534*
X04765Y0534*
X04765Y0534*
X04764Y0534*
X04764Y0534*
X04764Y05339*
X04763Y05339*
X04763Y05338*
X04763Y05338*
X04763Y05337*
X04763Y05337*
X04763Y05337*
X04762Y05337*
X04762Y05337*
X04762Y05337*
Y05337*
X0476Y05337*
X0476Y05338*
X0476Y05338*
X0476Y05339*
X04761Y05339*
X04761Y05339*
X04761Y0534*
X04761Y0534*
X04762Y0534*
X04762Y05341*
X04762Y05341*
X04762Y05341*
X04762Y05341*
X04762Y05341*
X04763Y05341*
X04763Y05341*
X04763Y05341*
X04763Y05342*
X04763Y05342*
X04764Y05342*
X04764Y05342*
X04765Y05343*
X04766Y05343*
X04766Y05343*
X04766Y05343*
X04767Y05343*
X04767Y05343*
X04767Y05343*
X04767*
X04768Y05343*
G37*
G36*
X08128Y05373D02*
X08129Y05373D01*
X08129Y05372*
X0813Y05372*
X0813Y05372*
X0813Y05372*
X08131Y05372*
X08131Y05372*
X08131Y05371*
X08132Y05371*
X08132Y05371*
X08132Y05371*
X08132Y05371*
X08132Y05371*
X08132Y0537*
X08132Y0537*
X08133Y0537*
X08133Y05369*
X08133Y05369*
X08134Y05368*
X08134Y05367*
X08134Y05367*
X08134Y05366*
X08134Y05365*
X08134Y05365*
X08134Y05364*
X08134Y05364*
X08134Y05363*
Y05363*
X08135Y05363*
Y05363*
Y05362*
Y05362*
Y05362*
X08134Y05361*
X08134Y05361*
X08134Y0536*
X08134Y05359*
X08134Y05359*
X08134Y05358*
X08134Y05357*
X08134Y05357*
X08133Y05357*
X08133Y05356*
X08133Y05356*
X08133Y05356*
X08133Y05355*
X08133Y05355*
X08133Y05355*
X08133Y05355*
X08132Y05355*
X08132Y05355*
X08132Y05354*
X08131Y05354*
X08131Y05354*
X0813Y05354*
X0813Y05353*
X0813Y05353*
X08129Y05353*
X08129Y05353*
X08129Y05353*
X08128Y05353*
X08128*
X08128Y05353*
X08128*
X08127Y05353*
X08127Y05353*
X08126Y05353*
X08126Y05353*
X08125Y05354*
X08125Y05354*
X08125Y05354*
X08125Y05354*
X08125Y05354*
X08125*
X08124Y05354*
X08124Y05355*
X08123Y05355*
X08123Y05355*
X08123Y05356*
X08123Y05356*
X08123Y05356*
X08123Y05356*
X08123Y05356*
Y05356*
X08122Y05357*
X08122Y05357*
X08122Y05358*
X08122Y05359*
X08122Y05359*
Y05359*
X08122Y05359*
Y05359*
Y0536*
Y0536*
Y0536*
X08122Y0536*
X08122Y05361*
X08122Y05361*
X08122Y05361*
X08122Y05362*
X08122Y05362*
X08122Y05363*
X08123Y05363*
X08123Y05363*
X08123Y05363*
X08123Y05364*
X08123Y05364*
X08123Y05364*
X08123Y05364*
X08123Y05364*
X08123Y05364*
X08124Y05364*
X08124Y05365*
X08124Y05365*
X08125Y05365*
X08125Y05365*
X08125Y05365*
X08126Y05366*
X08126Y05366*
X08127Y05366*
X08127Y05366*
X08127Y05366*
X08127Y05366*
X08127*
X08128Y05366*
X08128Y05366*
X08129Y05366*
X08129Y05366*
X0813Y05365*
X0813Y05365*
X0813Y05365*
X0813Y05365*
X0813*
X08131Y05365*
X08131Y05365*
X08131Y05364*
X08132Y05364*
X08132Y05364*
X08132Y05363*
X08132Y05363*
X08132Y05363*
Y05364*
X08132Y05364*
X08132Y05365*
X08132Y05365*
X08132Y05366*
X08132Y05366*
X08132Y05366*
X08132Y05367*
X08132Y05367*
X08132Y05367*
X08132Y05367*
X08132Y05367*
X08132Y05368*
X08132Y05368*
X08132Y05368*
Y05368*
X08131Y05368*
X08131Y05369*
X08131Y05369*
X0813Y05369*
X0813Y0537*
X0813Y0537*
X0813Y0537*
X0813Y0537*
X08129Y0537*
X08129Y0537*
X08129Y05371*
X08128Y05371*
X08128Y05371*
X08128Y05371*
X08128*
X08127Y05371*
X08127Y05371*
X08126Y0537*
X08126Y0537*
X08126Y0537*
X08126Y0537*
X08125Y0537*
X08125Y0537*
X08125Y05369*
X08125Y05369*
X08125Y05369*
X08125Y05368*
X08125Y05368*
X08125Y05368*
X08125Y05368*
X08124Y05368*
Y05368*
X08122Y05368*
X08122Y05369*
X08123Y05369*
X08123Y0537*
X08123Y0537*
X08123Y05371*
X08124Y05371*
X08124Y05371*
X08124Y05371*
X08124Y05371*
X08124Y05371*
X08124Y05371*
X08124Y05372*
X08124Y05372*
X08125Y05372*
X08126Y05372*
X08126Y05373*
X08127Y05373*
X08127Y05373*
X08127*
X08127Y05373*
X08128*
X08128Y05373*
G37*
G36*
X08145Y05373D02*
X08146Y05373D01*
X08147Y05373*
X08147Y05372*
X08148Y05372*
X08148Y05372*
X08148Y05372*
X08149Y05372*
X08149Y05372*
X08149Y05372*
X08149Y05372*
X08149Y05372*
X08149Y05372*
X0815Y05371*
X08151Y05371*
X08151Y0537*
X08152Y0537*
X08152Y05369*
X08152Y05369*
X08152Y05369*
X08152Y05369*
X08152Y05368*
X08152Y05368*
X08152Y05368*
X08153Y05367*
X08153Y05367*
X08153Y05366*
X08153Y05365*
X08153Y05365*
X08153Y05364*
X08153Y05364*
Y05364*
X08154Y05363*
Y05363*
Y05363*
Y05363*
X08153Y05362*
X08153Y05361*
X08153Y0536*
X08153Y0536*
X08153Y0536*
X08153Y05359*
X08153Y05359*
X08153Y05359*
X08153Y05358*
X08153Y05358*
X08153Y05358*
X08153Y05358*
Y05358*
X08152Y05357*
X08152Y05356*
X08151Y05356*
X08151Y05356*
X08151Y05355*
X0815Y05355*
X0815Y05355*
X0815Y05355*
X0815Y05355*
X0815Y05354*
X0815Y05354*
X0815Y05354*
X0815Y05354*
X08149Y05354*
X08149Y05354*
X08148Y05354*
X08147Y05353*
X08146Y05353*
X08146Y05353*
X08146Y05353*
X08145Y05353*
X08145*
X08145Y05353*
X08145*
X08144Y05353*
X08143Y05353*
X08143Y05353*
X08142Y05353*
X08142Y05353*
X08142Y05354*
X08141Y05354*
X08141Y05354*
X08141Y05354*
X0814Y05354*
X0814Y05354*
X0814Y05354*
X0814Y05355*
X0814Y05355*
X08139Y05355*
X08139Y05355*
X08139Y05355*
X08139Y05355*
X08138Y05356*
X08138Y05356*
X08138Y05357*
X08137Y05358*
X08137Y05358*
X08137Y05358*
X08137Y05359*
X08137Y05359*
X08137Y05359*
X08137Y05359*
X08137Y05359*
Y05359*
X08139Y0536*
X08139Y0536*
X08139Y05359*
X08139Y05359*
X0814Y05359*
X0814Y05358*
X0814Y05358*
X0814Y05358*
X0814Y05357*
X0814Y05357*
X08141Y05357*
X08141Y05357*
X08141Y05357*
X08141Y05357*
X08141Y05357*
X08141Y05356*
X08141Y05356*
X08141Y05356*
X08142Y05356*
X08142Y05356*
X08143Y05356*
X08143Y05355*
X08144Y05355*
X08144Y05355*
X08144*
X08145Y05355*
X08145*
X08145Y05355*
X08146Y05355*
X08147Y05356*
X08147Y05356*
X08147Y05356*
X08148Y05356*
X08148Y05356*
X08148Y05356*
X08148Y05356*
X08148Y05356*
X08148*
X08149Y05357*
X08149Y05357*
X08149Y05357*
X0815Y05358*
X0815Y05358*
X0815Y05359*
X0815Y05359*
X0815Y05359*
X0815Y05359*
Y05359*
X0815Y0536*
X08151Y0536*
X08151Y05361*
X08151Y05362*
X08151Y05362*
X08151Y05362*
Y05363*
X08151Y05363*
Y05363*
Y05363*
Y05363*
Y05363*
X08151Y05364*
X08151Y05365*
X08151Y05365*
X08151Y05366*
X08151Y05366*
X0815Y05366*
X0815Y05367*
X0815Y05367*
X0815Y05367*
X0815Y05367*
Y05367*
X0815Y05367*
X0815Y05368*
X08149Y05369*
X08149Y05369*
X08149Y05369*
X08148Y05369*
X08148Y0537*
X08148Y0537*
X08148*
X08148Y0537*
X08147Y0537*
X08146Y05371*
X08146Y05371*
X08145Y05371*
X08145Y05371*
X08145*
X08145Y05371*
X08145*
X08144Y05371*
X08143Y05371*
X08143Y0537*
X08142Y0537*
X08142Y0537*
X08142Y0537*
X08141Y0537*
X08141Y0537*
X08141Y05369*
X0814Y05369*
X0814Y05368*
X0814Y05368*
X0814Y05367*
X0814Y05367*
X0814Y05367*
X08139Y05367*
X08139Y05367*
X08139Y05367*
Y05367*
X08137Y05367*
X08137Y05368*
X08137Y05368*
X08137Y05369*
X08138Y05369*
X08138Y05369*
X08138Y0537*
X08138Y0537*
X08139Y0537*
X08139Y05371*
X08139Y05371*
X08139Y05371*
X08139Y05371*
X08139Y05371*
X0814Y05371*
X0814Y05371*
X0814Y05371*
X0814Y05372*
X0814Y05372*
X08141Y05372*
X08141Y05372*
X08142Y05373*
X08143Y05373*
X08143Y05373*
X08143Y05373*
X08144Y05373*
X08144Y05373*
X08144Y05373*
X08144*
X08145Y05373*
G37*
G36*
X08989Y05343D02*
X08989Y05343D01*
X0899Y05343*
X0899Y05342*
X08991Y05342*
X08991Y05342*
X08991Y05342*
X08992Y05342*
X08992Y05341*
X08992Y05341*
X08992Y05341*
X08993Y05341*
X08993Y05341*
X08993Y05341*
X08993Y05341*
X08993Y05341*
X08993Y0534*
X08993Y0534*
X08994Y05339*
X08994Y05339*
X08994Y05339*
X08994Y05338*
X08994Y05338*
X08994Y05337*
X08994Y05337*
X08994Y05337*
X08994Y05336*
Y05336*
Y05336*
Y05336*
X08994Y05336*
X08994Y05335*
X08994Y05335*
X08994Y05334*
X08994Y05334*
X08994Y05333*
X08994Y05333*
X08994Y05333*
X08993Y05333*
X08993Y05332*
X08993Y05332*
X08993Y05332*
X08993Y05332*
X08993Y05332*
X08993Y05332*
X08993Y05332*
X08992Y05331*
X08992Y05331*
X08992Y05331*
X08991Y05331*
X08991Y0533*
X08991Y0533*
X0899Y0533*
X0899Y0533*
X0899Y0533*
X08989Y0533*
X08989Y0533*
X08989Y0533*
X08989*
X08988Y0533*
X08988Y0533*
X08987Y0533*
X08987Y0533*
X08987Y0533*
X08986Y05331*
X08986Y05331*
X08986Y05331*
X08986Y05331*
X08985Y05331*
X08985Y05332*
X08985Y05332*
X08984Y05332*
X08984Y05332*
X08984Y05332*
X08984Y05332*
Y05332*
Y05332*
Y05332*
Y05332*
X08984Y05331*
X08984Y05331*
X08984Y0533*
X08984Y0533*
X08984Y0533*
X08984Y05329*
X08984Y05329*
Y05329*
X08985Y05329*
Y05329*
X08985Y05329*
X08985Y05328*
X08985Y05328*
X08985Y05327*
X08985Y05327*
X08985Y05327*
X08985Y05327*
X08985Y05327*
X08986Y05327*
X08986Y05326*
X08986Y05326*
X08986Y05326*
X08986Y05326*
X08987Y05326*
X08987Y05326*
X08987Y05325*
X08987Y05325*
X08987Y05325*
X08988Y05325*
X08988Y05325*
X08988Y05325*
X08988Y05325*
X08989*
X08989Y05325*
X08989Y05325*
X0899Y05325*
X0899Y05325*
X0899Y05325*
X08991Y05326*
X08991Y05326*
X08991Y05326*
X08991Y05326*
X08991Y05326*
X08991Y05327*
X08992Y05327*
X08992Y05327*
X08992Y05328*
X08992Y05328*
Y05328*
X08992Y05328*
Y05328*
X08994Y05328*
X08994Y05327*
X08994Y05326*
X08993Y05326*
X08993Y05325*
X08993Y05325*
X08993Y05325*
X08993Y05325*
X08992Y05324*
X08992Y05324*
X08992Y05324*
X08992Y05324*
X08992Y05324*
X08992Y05324*
X08991Y05324*
X08991Y05323*
X0899Y05323*
X08989Y05323*
X08989Y05323*
X08989*
X08989Y05323*
X08989*
X08988Y05323*
X08987Y05323*
X08987Y05323*
X08986Y05324*
X08986Y05324*
X08986Y05324*
X08985Y05324*
X08985Y05324*
X08985Y05324*
X08985Y05324*
X08985Y05324*
X08985*
X08984Y05325*
X08984Y05325*
X08984Y05326*
X08983Y05326*
X08983Y05327*
X08983Y05327*
X08983Y05327*
X08983Y05327*
X08983Y05327*
X08983Y05327*
Y05328*
X08982Y05328*
X08982Y05328*
X08982Y05329*
X08982Y0533*
X08982Y05331*
X08982Y05332*
X08982Y05332*
Y05332*
X08982Y05333*
Y05333*
Y05333*
Y05333*
Y05333*
Y05334*
X08982Y05335*
X08982Y05335*
X08982Y05336*
X08982Y05336*
X08982Y05337*
X08982Y05337*
X08982Y05337*
X08982Y05338*
X08982Y05338*
X08982Y05338*
X08982Y05338*
X08983Y05339*
X08983Y05339*
X08983Y05339*
Y05339*
X08983Y05339*
X08983Y0534*
X08984Y05341*
X08984Y05341*
X08984Y05341*
X08985Y05341*
X08985Y05342*
X08985Y05342*
X08985Y05342*
X08985*
X08986Y05342*
X08986Y05342*
X08987Y05342*
X08987Y05343*
X08988Y05343*
X08988Y05343*
X08988*
X08988Y05343*
X08988*
X08989Y05343*
G37*
G36*
X09005Y05343D02*
X09006Y05343D01*
X09007Y05343*
X09007Y05342*
X09008Y05342*
X09008Y05342*
X09008Y05342*
X09009Y05342*
X09009Y05342*
X09009Y05342*
X09009Y05342*
X09009Y05342*
X09009Y05342*
X0901Y05341*
X09011Y05341*
X09011Y0534*
X09012Y0534*
X09012Y05339*
X09012Y05339*
X09012Y05339*
X09012Y05339*
X09012Y05338*
X09012Y05338*
X09012Y05338*
X09013Y05337*
X09013Y05337*
X09013Y05336*
X09013Y05335*
X09013Y05335*
X09013Y05334*
X09013Y05334*
Y05334*
X09014Y05333*
Y05333*
Y05333*
Y05333*
X09013Y05332*
X09013Y05331*
X09013Y0533*
X09013Y0533*
X09013Y0533*
X09013Y05329*
X09013Y05329*
X09013Y05329*
X09013Y05328*
X09013Y05328*
X09013Y05328*
X09013Y05328*
Y05328*
X09012Y05327*
X09012Y05326*
X09011Y05326*
X09011Y05326*
X09011Y05325*
X0901Y05325*
X0901Y05325*
X0901Y05325*
X0901Y05325*
X0901Y05324*
X0901Y05324*
X0901Y05324*
X0901Y05324*
X09009Y05324*
X09009Y05324*
X09008Y05324*
X09007Y05323*
X09006Y05323*
X09006Y05323*
X09006Y05323*
X09005Y05323*
X09005*
X09005Y05323*
X09005*
X09004Y05323*
X09003Y05323*
X09003Y05323*
X09002Y05323*
X09002Y05323*
X09002Y05324*
X09001Y05324*
X09001Y05324*
X09001Y05324*
X09Y05324*
X09Y05324*
X09Y05324*
X09Y05325*
X09Y05325*
X08999Y05325*
X08999Y05325*
X08999Y05325*
X08999Y05325*
X08998Y05326*
X08998Y05326*
X08998Y05327*
X08997Y05328*
X08997Y05328*
X08997Y05328*
X08997Y05329*
X08997Y05329*
X08997Y05329*
X08997Y05329*
X08997Y05329*
Y05329*
X08999Y0533*
X08999Y0533*
X08999Y05329*
X08999Y05329*
X09Y05329*
X09Y05328*
X09Y05328*
X09Y05328*
X09Y05327*
X09Y05327*
X09001Y05327*
X09001Y05327*
X09001Y05327*
X09001Y05327*
X09001Y05327*
X09001Y05326*
X09001Y05326*
X09001Y05326*
X09002Y05326*
X09002Y05326*
X09003Y05326*
X09003Y05325*
X09004Y05325*
X09004Y05325*
X09004*
X09005Y05325*
X09005*
X09005Y05325*
X09006Y05325*
X09007Y05326*
X09007Y05326*
X09007Y05326*
X09008Y05326*
X09008Y05326*
X09008Y05326*
X09008Y05326*
X09008Y05326*
X09008*
X09009Y05327*
X09009Y05327*
X09009Y05327*
X0901Y05328*
X0901Y05328*
X0901Y05329*
X0901Y05329*
X0901Y05329*
X0901Y05329*
Y05329*
X0901Y0533*
X09011Y0533*
X09011Y05331*
X09011Y05332*
X09011Y05332*
X09011Y05332*
Y05333*
X09011Y05333*
Y05333*
Y05333*
Y05333*
Y05333*
X09011Y05334*
X09011Y05335*
X09011Y05335*
X09011Y05336*
X09011Y05336*
X0901Y05336*
X0901Y05337*
X0901Y05337*
X0901Y05337*
X0901Y05337*
Y05337*
X0901Y05337*
X0901Y05338*
X09009Y05339*
X09009Y05339*
X09009Y05339*
X09008Y05339*
X09008Y0534*
X09008Y0534*
X09008*
X09008Y0534*
X09007Y0534*
X09006Y05341*
X09006Y05341*
X09005Y05341*
X09005Y05341*
X09005*
X09005Y05341*
X09005*
X09004Y05341*
X09003Y05341*
X09003Y0534*
X09002Y0534*
X09002Y0534*
X09002Y0534*
X09001Y0534*
X09001Y0534*
X09001Y05339*
X09Y05339*
X09Y05338*
X09Y05338*
X09Y05337*
X09Y05337*
X09Y05337*
X08999Y05337*
X08999Y05337*
X08999Y05337*
Y05337*
X08997Y05337*
X08997Y05338*
X08997Y05338*
X08997Y05339*
X08998Y05339*
X08998Y05339*
X08998Y0534*
X08998Y0534*
X08999Y0534*
X08999Y05341*
X08999Y05341*
X08999Y05341*
X08999Y05341*
X08999Y05341*
X09Y05341*
X09Y05341*
X09Y05341*
X09Y05342*
X09Y05342*
X09001Y05342*
X09001Y05342*
X09002Y05343*
X09003Y05343*
X09003Y05343*
X09003Y05343*
X09004Y05343*
X09004Y05343*
X09004Y05343*
X09004*
X09005Y05343*
G37*
G36*
X03891Y07635D02*
X03892Y07635D01*
X03892Y07634*
X03893Y07634*
X03893Y07634*
X03893Y07634*
X03894Y07634*
X03894Y07634*
X03894Y07633*
X03895Y07633*
X03895Y07633*
X03895Y07633*
X03895Y07633*
X03895Y07633*
X03895Y07632*
X03895Y07632*
X03896Y07632*
X03896Y07631*
X03896Y07631*
X03897Y0763*
X03897Y07629*
X03897Y07629*
X03897Y07628*
X03897Y07627*
X03897Y07627*
X03897Y07626*
X03897Y07626*
X03897Y07625*
Y07625*
X03897Y07625*
Y07625*
Y07624*
Y07624*
Y07624*
X03897Y07623*
X03897Y07623*
X03897Y07622*
X03897Y07621*
X03897Y07621*
X03897Y0762*
X03897Y07619*
X03897Y07619*
X03896Y07619*
X03896Y07618*
X03896Y07618*
X03896Y07618*
X03896Y07617*
X03896Y07617*
X03896Y07617*
X03896Y07617*
X03895Y07617*
X03895Y07617*
X03895Y07616*
X03894Y07616*
X03894Y07616*
X03893Y07616*
X03893Y07615*
X03893Y07615*
X03892Y07615*
X03892Y07615*
X03892Y07615*
X03891Y07615*
X03891*
X03891Y07615*
X03891*
X0389Y07615*
X0389Y07615*
X03889Y07615*
X03889Y07615*
X03888Y07616*
X03888Y07616*
X03888Y07616*
X03888Y07616*
X03888Y07616*
X03888*
X03887Y07616*
X03887Y07617*
X03886Y07617*
X03886Y07617*
X03886Y07618*
X03886Y07618*
X03886Y07618*
X03886Y07618*
X03886Y07618*
Y07618*
X03885Y07619*
X03885Y07619*
X03885Y0762*
X03885Y07621*
X03885Y07621*
Y07621*
X03885Y07621*
Y07621*
Y07622*
Y07622*
Y07622*
X03885Y07622*
X03885Y07623*
X03885Y07623*
X03885Y07623*
X03885Y07624*
X03885Y07624*
X03885Y07625*
X03886Y07625*
X03886Y07625*
X03886Y07625*
X03886Y07626*
X03886Y07626*
X03886Y07626*
X03886Y07626*
X03886Y07626*
X03886Y07626*
X03887Y07626*
X03887Y07627*
X03887Y07627*
X03888Y07627*
X03888Y07627*
X03888Y07627*
X03889Y07628*
X03889Y07628*
X0389Y07628*
X0389Y07628*
X0389Y07628*
X0389Y07628*
X0389*
X03891Y07628*
X03891Y07628*
X03892Y07628*
X03892Y07628*
X03893Y07627*
X03893Y07627*
X03893Y07627*
X03893Y07627*
X03893*
X03894Y07627*
X03894Y07627*
X03894Y07626*
X03895Y07626*
X03895Y07626*
X03895Y07625*
X03895Y07625*
X03895Y07625*
Y07626*
X03895Y07626*
X03895Y07627*
X03895Y07627*
X03895Y07628*
X03895Y07628*
X03895Y07628*
X03895Y07629*
X03895Y07629*
X03895Y07629*
X03895Y07629*
X03895Y07629*
X03895Y0763*
X03895Y0763*
X03895Y0763*
Y0763*
X03894Y0763*
X03894Y07631*
X03894Y07631*
X03893Y07631*
X03893Y07632*
X03893Y07632*
X03893Y07632*
X03893Y07632*
X03892Y07632*
X03892Y07632*
X03892Y07633*
X03891Y07633*
X03891Y07633*
X03891Y07633*
X03891*
X0389Y07633*
X0389Y07633*
X03889Y07632*
X03889Y07632*
X03889Y07632*
X03889Y07632*
X03888Y07632*
X03888Y07632*
X03888Y07631*
X03888Y07631*
X03888Y07631*
X03888Y0763*
X03888Y0763*
X03888Y0763*
X03887Y0763*
X03887Y0763*
Y0763*
X03885Y0763*
X03885Y07631*
X03886Y07631*
X03886Y07632*
X03886Y07632*
X03886Y07633*
X03887Y07633*
X03887Y07633*
X03887Y07633*
X03887Y07633*
X03887Y07633*
X03887Y07633*
X03887Y07634*
X03887Y07634*
X03888Y07634*
X03889Y07634*
X03889Y07635*
X0389Y07635*
X0389Y07635*
X0389*
X0389Y07635*
X03891*
X03891Y07635*
G37*
G36*
X03908Y07635D02*
X03909Y07635D01*
X0391Y07635*
X0391Y07634*
X03911Y07634*
X03911Y07634*
X03911Y07634*
X03912Y07634*
X03912Y07634*
X03912Y07634*
X03912Y07634*
X03912Y07634*
X03912Y07634*
X03913Y07633*
X03914Y07633*
X03914Y07632*
X03915Y07632*
X03915Y07631*
X03915Y07631*
X03915Y07631*
X03915Y07631*
X03915Y0763*
X03915Y0763*
X03915Y0763*
X03916Y07629*
X03916Y07629*
X03916Y07628*
X03916Y07627*
X03916Y07627*
X03916Y07626*
X03916Y07626*
Y07626*
X03916Y07625*
Y07625*
Y07625*
Y07625*
X03916Y07624*
X03916Y07623*
X03916Y07622*
X03916Y07622*
X03916Y07622*
X03916Y07621*
X03916Y07621*
X03916Y07621*
X03916Y0762*
X03916Y0762*
X03916Y0762*
X03915Y0762*
Y0762*
X03915Y07619*
X03915Y07618*
X03914Y07618*
X03914Y07618*
X03914Y07617*
X03913Y07617*
X03913Y07617*
X03913Y07617*
X03913Y07617*
X03913Y07616*
X03913Y07616*
X03913Y07616*
X03913Y07616*
X03912Y07616*
X03912Y07616*
X03911Y07616*
X0391Y07615*
X03909Y07615*
X03909Y07615*
X03909Y07615*
X03908Y07615*
X03908*
X03908Y07615*
X03907*
X03907Y07615*
X03906Y07615*
X03906Y07615*
X03905Y07615*
X03905Y07615*
X03905Y07616*
X03904Y07616*
X03904Y07616*
X03904Y07616*
X03903Y07616*
X03903Y07616*
X03903Y07616*
X03903Y07617*
X03903Y07617*
X03902Y07617*
X03902Y07617*
X03902Y07617*
X03902Y07617*
X03901Y07618*
X03901Y07618*
X03901Y07619*
X039Y0762*
X039Y0762*
X039Y0762*
X039Y07621*
X039Y07621*
X039Y07621*
X039Y07621*
X039Y07621*
Y07621*
X03902Y07622*
X03902Y07622*
X03902Y07621*
X03902Y07621*
X03903Y07621*
X03903Y0762*
X03903Y0762*
X03903Y0762*
X03903Y07619*
X03903Y07619*
X03904Y07619*
X03904Y07619*
X03904Y07619*
X03904Y07619*
X03904Y07619*
X03904Y07618*
X03904Y07618*
X03904Y07618*
X03905Y07618*
X03905Y07618*
X03906Y07618*
X03906Y07617*
X03907Y07617*
X03907Y07617*
X03907*
X03908Y07617*
X03908*
X03908Y07617*
X03909Y07617*
X0391Y07618*
X0391Y07618*
X0391Y07618*
X03911Y07618*
X03911Y07618*
X03911Y07618*
X03911Y07618*
X03911Y07618*
X03911*
X03912Y07619*
X03912Y07619*
X03912Y07619*
X03913Y0762*
X03913Y0762*
X03913Y07621*
X03913Y07621*
X03913Y07621*
X03913Y07621*
Y07621*
X03913Y07622*
X03914Y07622*
X03914Y07623*
X03914Y07624*
X03914Y07624*
X03914Y07624*
Y07625*
X03914Y07625*
Y07625*
Y07625*
Y07625*
Y07625*
X03914Y07626*
X03914Y07627*
X03914Y07627*
X03914Y07628*
X03914Y07628*
X03913Y07628*
X03913Y07629*
X03913Y07629*
X03913Y07629*
X03913Y07629*
Y07629*
X03913Y07629*
X03913Y0763*
X03912Y07631*
X03912Y07631*
X03912Y07631*
X03911Y07631*
X03911Y07632*
X03911Y07632*
X03911*
X03911Y07632*
X0391Y07632*
X03909Y07633*
X03909Y07633*
X03908Y07633*
X03908Y07633*
X03908*
X03908Y07633*
X03908*
X03907Y07633*
X03906Y07633*
X03906Y07632*
X03905Y07632*
X03905Y07632*
X03905Y07632*
X03904Y07632*
X03904Y07632*
X03904Y07631*
X03903Y07631*
X03903Y0763*
X03903Y0763*
X03903Y07629*
X03903Y07629*
X03903Y07629*
X03902Y07629*
X03902Y07629*
X03902Y07629*
Y07629*
X039Y07629*
X039Y0763*
X039Y0763*
X039Y07631*
X03901Y07631*
X03901Y07631*
X03901Y07632*
X03901Y07632*
X03902Y07632*
X03902Y07633*
X03902Y07633*
X03902Y07633*
X03902Y07633*
X03902Y07633*
X03903Y07633*
X03903Y07633*
X03903Y07633*
X03903Y07634*
X03903Y07634*
X03904Y07634*
X03904Y07634*
X03905Y07635*
X03906Y07635*
X03906Y07635*
X03906Y07635*
X03907Y07635*
X03907Y07635*
X03907Y07635*
X03907*
X03908Y07635*
G37*
G36*
X04752Y07605D02*
X04752Y07605D01*
X04753Y07605*
X04753Y07604*
X04754Y07604*
X04754Y07604*
X04754Y07604*
X04755Y07604*
X04755Y07603*
X04755Y07603*
X04755Y07603*
X04755Y07603*
X04756Y07603*
X04756Y07603*
X04756Y07603*
X04756Y07603*
X04756Y07602*
X04756Y07602*
X04757Y07601*
X04757Y07601*
X04757Y07601*
X04757Y076*
X04757Y076*
X04757Y07599*
X04757Y07599*
X04757Y07599*
X04757Y07598*
Y07598*
Y07598*
Y07598*
X04757Y07598*
X04757Y07597*
X04757Y07597*
X04757Y07596*
X04757Y07596*
X04757Y07595*
X04757Y07595*
X04757Y07595*
X04756Y07595*
X04756Y07594*
X04756Y07594*
X04756Y07594*
X04756Y07594*
X04756Y07594*
X04756Y07594*
X04756Y07594*
X04755Y07593*
X04755Y07593*
X04755Y07593*
X04754Y07593*
X04754Y07592*
X04754Y07592*
X04753Y07592*
X04753Y07592*
X04753Y07592*
X04752Y07592*
X04752Y07592*
X04752Y07592*
X04752*
X04751Y07592*
X04751Y07592*
X0475Y07592*
X0475Y07592*
X0475Y07592*
X04749Y07593*
X04749Y07593*
X04749Y07593*
X04749Y07593*
X04748Y07593*
X04748Y07594*
X04748Y07594*
X04747Y07594*
X04747Y07594*
X04747Y07594*
X04747Y07594*
Y07594*
Y07594*
Y07594*
Y07594*
X04747Y07593*
X04747Y07593*
X04747Y07592*
X04747Y07592*
X04747Y07592*
X04747Y07591*
X04747Y07591*
Y07591*
X04747Y07591*
Y07591*
X04748Y07591*
X04748Y0759*
X04748Y0759*
X04748Y07589*
X04748Y07589*
X04748Y07589*
X04748Y07589*
X04748Y07589*
X04749Y07589*
X04749Y07588*
X04749Y07588*
X04749Y07588*
X04749Y07588*
X0475Y07588*
X0475Y07588*
X0475Y07587*
X0475Y07587*
X0475Y07587*
X04751Y07587*
X04751Y07587*
X04751Y07587*
X04751Y07587*
X04752*
X04752Y07587*
X04752Y07587*
X04753Y07587*
X04753Y07587*
X04753Y07587*
X04754Y07588*
X04754Y07588*
X04754Y07588*
X04754Y07588*
X04754Y07588*
X04754Y07589*
X04755Y07589*
X04755Y07589*
X04755Y0759*
X04755Y0759*
Y0759*
X04755Y0759*
Y0759*
X04757Y0759*
X04757Y07589*
X04757Y07588*
X04756Y07588*
X04756Y07587*
X04756Y07587*
X04756Y07587*
X04756Y07587*
X04755Y07586*
X04755Y07586*
X04755Y07586*
X04755Y07586*
X04755Y07586*
X04755Y07586*
X04754Y07586*
X04754Y07585*
X04753Y07585*
X04752Y07585*
X04752Y07585*
X04752*
X04752Y07585*
X04752*
X04751Y07585*
X0475Y07585*
X0475Y07585*
X04749Y07586*
X04749Y07586*
X04749Y07586*
X04748Y07586*
X04748Y07586*
X04748Y07586*
X04748Y07586*
X04748Y07586*
X04748*
X04747Y07587*
X04747Y07587*
X04747Y07588*
X04746Y07588*
X04746Y07589*
X04746Y07589*
X04746Y07589*
X04746Y07589*
X04746Y07589*
X04746Y07589*
Y0759*
X04745Y0759*
X04745Y0759*
X04745Y07591*
X04745Y07592*
X04745Y07593*
X04745Y07594*
X04745Y07594*
Y07594*
X04745Y07595*
Y07595*
Y07595*
Y07595*
Y07595*
Y07596*
X04745Y07597*
X04745Y07597*
X04745Y07598*
X04745Y07598*
X04745Y07599*
X04745Y07599*
X04745Y07599*
X04745Y076*
X04745Y076*
X04745Y076*
X04745Y076*
X04746Y07601*
X04746Y07601*
X04746Y07601*
Y07601*
X04746Y07601*
X04746Y07602*
X04747Y07603*
X04747Y07603*
X04747Y07603*
X04748Y07603*
X04748Y07604*
X04748Y07604*
X04748Y07604*
X04748*
X04749Y07604*
X04749Y07604*
X0475Y07604*
X0475Y07605*
X04751Y07605*
X04751Y07605*
X04751*
X04751Y07605*
X04751*
X04752Y07605*
G37*
G36*
X04768Y07605D02*
X04769Y07605D01*
X0477Y07605*
X0477Y07604*
X04771Y07604*
X04771Y07604*
X04771Y07604*
X04772Y07604*
X04772Y07604*
X04772Y07604*
X04772Y07604*
X04772Y07604*
X04772Y07604*
X04773Y07603*
X04774Y07603*
X04774Y07602*
X04775Y07602*
X04775Y07601*
X04775Y07601*
X04775Y07601*
X04775Y07601*
X04775Y076*
X04775Y076*
X04775Y076*
X04776Y07599*
X04776Y07599*
X04776Y07598*
X04776Y07597*
X04776Y07597*
X04776Y07596*
X04776Y07596*
Y07596*
X04776Y07595*
Y07595*
Y07595*
Y07595*
X04776Y07594*
X04776Y07593*
X04776Y07592*
X04776Y07592*
X04776Y07592*
X04776Y07591*
X04776Y07591*
X04776Y07591*
X04776Y0759*
X04776Y0759*
X04776Y0759*
X04775Y0759*
Y0759*
X04775Y07589*
X04775Y07588*
X04774Y07588*
X04774Y07588*
X04774Y07587*
X04773Y07587*
X04773Y07587*
X04773Y07587*
X04773Y07587*
X04773Y07586*
X04773Y07586*
X04773Y07586*
X04773Y07586*
X04772Y07586*
X04772Y07586*
X04771Y07586*
X0477Y07585*
X04769Y07585*
X04769Y07585*
X04769Y07585*
X04768Y07585*
X04768*
X04768Y07585*
X04767*
X04767Y07585*
X04766Y07585*
X04766Y07585*
X04765Y07585*
X04765Y07585*
X04765Y07586*
X04764Y07586*
X04764Y07586*
X04764Y07586*
X04763Y07586*
X04763Y07586*
X04763Y07586*
X04763Y07587*
X04763Y07587*
X04762Y07587*
X04762Y07587*
X04762Y07587*
X04762Y07587*
X04761Y07588*
X04761Y07588*
X04761Y07589*
X0476Y0759*
X0476Y0759*
X0476Y0759*
X0476Y07591*
X0476Y07591*
X0476Y07591*
X0476Y07591*
X0476Y07591*
Y07591*
X04762Y07592*
X04762Y07592*
X04762Y07591*
X04762Y07591*
X04763Y07591*
X04763Y0759*
X04763Y0759*
X04763Y0759*
X04763Y07589*
X04763Y07589*
X04764Y07589*
X04764Y07589*
X04764Y07589*
X04764Y07589*
X04764Y07589*
X04764Y07588*
X04764Y07588*
X04764Y07588*
X04765Y07588*
X04765Y07588*
X04766Y07588*
X04766Y07587*
X04767Y07587*
X04767Y07587*
X04767*
X04768Y07587*
X04768*
X04768Y07587*
X04769Y07587*
X0477Y07588*
X0477Y07588*
X0477Y07588*
X04771Y07588*
X04771Y07588*
X04771Y07588*
X04771Y07588*
X04771Y07588*
X04771*
X04772Y07589*
X04772Y07589*
X04772Y07589*
X04773Y0759*
X04773Y0759*
X04773Y07591*
X04773Y07591*
X04773Y07591*
X04773Y07591*
Y07591*
X04773Y07592*
X04774Y07592*
X04774Y07593*
X04774Y07594*
X04774Y07594*
X04774Y07594*
Y07595*
X04774Y07595*
Y07595*
Y07595*
Y07595*
Y07595*
X04774Y07596*
X04774Y07597*
X04774Y07597*
X04774Y07598*
X04774Y07598*
X04773Y07598*
X04773Y07599*
X04773Y07599*
X04773Y07599*
X04773Y07599*
Y07599*
X04773Y07599*
X04773Y076*
X04772Y07601*
X04772Y07601*
X04772Y07601*
X04771Y07601*
X04771Y07602*
X04771Y07602*
X04771*
X04771Y07602*
X0477Y07602*
X04769Y07603*
X04769Y07603*
X04768Y07603*
X04768Y07603*
X04768*
X04768Y07603*
X04768*
X04767Y07603*
X04766Y07603*
X04766Y07602*
X04765Y07602*
X04765Y07602*
X04765Y07602*
X04764Y07602*
X04764Y07602*
X04764Y07601*
X04763Y07601*
X04763Y076*
X04763Y076*
X04763Y07599*
X04763Y07599*
X04763Y07599*
X04762Y07599*
X04762Y07599*
X04762Y07599*
Y07599*
X0476Y07599*
X0476Y076*
X0476Y076*
X0476Y07601*
X04761Y07601*
X04761Y07601*
X04761Y07602*
X04761Y07602*
X04762Y07602*
X04762Y07603*
X04762Y07603*
X04762Y07603*
X04762Y07603*
X04762Y07603*
X04763Y07603*
X04763Y07603*
X04763Y07603*
X04763Y07604*
X04763Y07604*
X04764Y07604*
X04764Y07604*
X04765Y07605*
X04766Y07605*
X04766Y07605*
X04766Y07605*
X04767Y07605*
X04767Y07605*
X04767Y07605*
X04767*
X04768Y07605*
G37*
G36*
X08128Y07635D02*
X08129Y07635D01*
X08129Y07634*
X0813Y07634*
X0813Y07634*
X0813Y07634*
X08131Y07634*
X08131Y07634*
X08131Y07633*
X08132Y07633*
X08132Y07633*
X08132Y07633*
X08132Y07633*
X08132Y07633*
X08132Y07632*
X08132Y07632*
X08133Y07632*
X08133Y07631*
X08133Y07631*
X08134Y0763*
X08134Y07629*
X08134Y07629*
X08134Y07628*
X08134Y07627*
X08134Y07627*
X08134Y07626*
X08134Y07626*
X08134Y07625*
Y07625*
X08135Y07625*
Y07625*
Y07624*
Y07624*
Y07624*
X08134Y07623*
X08134Y07623*
X08134Y07622*
X08134Y07621*
X08134Y07621*
X08134Y0762*
X08134Y07619*
X08134Y07619*
X08133Y07619*
X08133Y07618*
X08133Y07618*
X08133Y07618*
X08133Y07617*
X08133Y07617*
X08133Y07617*
X08133Y07617*
X08132Y07617*
X08132Y07617*
X08132Y07616*
X08131Y07616*
X08131Y07616*
X0813Y07616*
X0813Y07615*
X0813Y07615*
X08129Y07615*
X08129Y07615*
X08129Y07615*
X08128Y07615*
X08128*
X08128Y07615*
X08128*
X08127Y07615*
X08127Y07615*
X08126Y07615*
X08126Y07615*
X08125Y07616*
X08125Y07616*
X08125Y07616*
X08125Y07616*
X08125Y07616*
X08125*
X08124Y07616*
X08124Y07617*
X08123Y07617*
X08123Y07617*
X08123Y07618*
X08123Y07618*
X08123Y07618*
X08123Y07618*
X08123Y07618*
Y07618*
X08122Y07619*
X08122Y07619*
X08122Y0762*
X08122Y07621*
X08122Y07621*
Y07621*
X08122Y07621*
Y07621*
Y07622*
Y07622*
Y07622*
X08122Y07622*
X08122Y07623*
X08122Y07623*
X08122Y07623*
X08122Y07624*
X08122Y07624*
X08122Y07625*
X08123Y07625*
X08123Y07625*
X08123Y07625*
X08123Y07626*
X08123Y07626*
X08123Y07626*
X08123Y07626*
X08123Y07626*
X08123Y07626*
X08124Y07626*
X08124Y07627*
X08124Y07627*
X08125Y07627*
X08125Y07627*
X08125Y07627*
X08126Y07628*
X08126Y07628*
X08127Y07628*
X08127Y07628*
X08127Y07628*
X08127Y07628*
X08127*
X08128Y07628*
X08128Y07628*
X08129Y07628*
X08129Y07628*
X0813Y07627*
X0813Y07627*
X0813Y07627*
X0813Y07627*
X0813*
X08131Y07627*
X08131Y07627*
X08131Y07626*
X08132Y07626*
X08132Y07626*
X08132Y07625*
X08132Y07625*
X08132Y07625*
Y07626*
X08132Y07626*
X08132Y07627*
X08132Y07627*
X08132Y07628*
X08132Y07628*
X08132Y07628*
X08132Y07629*
X08132Y07629*
X08132Y07629*
X08132Y07629*
X08132Y07629*
X08132Y0763*
X08132Y0763*
X08132Y0763*
Y0763*
X08131Y0763*
X08131Y07631*
X08131Y07631*
X0813Y07631*
X0813Y07632*
X0813Y07632*
X0813Y07632*
X0813Y07632*
X08129Y07632*
X08129Y07632*
X08129Y07633*
X08128Y07633*
X08128Y07633*
X08128Y07633*
X08128*
X08127Y07633*
X08127Y07633*
X08126Y07632*
X08126Y07632*
X08126Y07632*
X08126Y07632*
X08125Y07632*
X08125Y07632*
X08125Y07631*
X08125Y07631*
X08125Y07631*
X08125Y0763*
X08125Y0763*
X08125Y0763*
X08125Y0763*
X08124Y0763*
Y0763*
X08122Y0763*
X08122Y07631*
X08123Y07631*
X08123Y07632*
X08123Y07632*
X08123Y07633*
X08124Y07633*
X08124Y07633*
X08124Y07633*
X08124Y07633*
X08124Y07633*
X08124Y07633*
X08124Y07634*
X08124Y07634*
X08125Y07634*
X08126Y07634*
X08126Y07635*
X08127Y07635*
X08127Y07635*
X08127*
X08127Y07635*
X08128*
X08128Y07635*
G37*
G36*
X08145Y07635D02*
X08146Y07635D01*
X08147Y07635*
X08147Y07634*
X08148Y07634*
X08148Y07634*
X08148Y07634*
X08149Y07634*
X08149Y07634*
X08149Y07634*
X08149Y07634*
X08149Y07634*
X08149Y07634*
X0815Y07633*
X08151Y07633*
X08151Y07632*
X08152Y07632*
X08152Y07631*
X08152Y07631*
X08152Y07631*
X08152Y07631*
X08152Y0763*
X08152Y0763*
X08152Y0763*
X08153Y07629*
X08153Y07629*
X08153Y07628*
X08153Y07627*
X08153Y07627*
X08153Y07626*
X08153Y07626*
Y07626*
X08154Y07625*
Y07625*
Y07625*
Y07625*
X08153Y07624*
X08153Y07623*
X08153Y07622*
X08153Y07622*
X08153Y07622*
X08153Y07621*
X08153Y07621*
X08153Y07621*
X08153Y0762*
X08153Y0762*
X08153Y0762*
X08153Y0762*
Y0762*
X08152Y07619*
X08152Y07618*
X08151Y07618*
X08151Y07618*
X08151Y07617*
X0815Y07617*
X0815Y07617*
X0815Y07617*
X0815Y07617*
X0815Y07616*
X0815Y07616*
X0815Y07616*
X0815Y07616*
X08149Y07616*
X08149Y07616*
X08148Y07616*
X08147Y07615*
X08146Y07615*
X08146Y07615*
X08146Y07615*
X08145Y07615*
X08145*
X08145Y07615*
X08145*
X08144Y07615*
X08143Y07615*
X08143Y07615*
X08142Y07615*
X08142Y07615*
X08142Y07616*
X08141Y07616*
X08141Y07616*
X08141Y07616*
X0814Y07616*
X0814Y07616*
X0814Y07616*
X0814Y07617*
X0814Y07617*
X08139Y07617*
X08139Y07617*
X08139Y07617*
X08139Y07617*
X08138Y07618*
X08138Y07618*
X08138Y07619*
X08137Y0762*
X08137Y0762*
X08137Y0762*
X08137Y07621*
X08137Y07621*
X08137Y07621*
X08137Y07621*
X08137Y07621*
Y07621*
X08139Y07622*
X08139Y07622*
X08139Y07621*
X08139Y07621*
X0814Y07621*
X0814Y0762*
X0814Y0762*
X0814Y0762*
X0814Y07619*
X0814Y07619*
X08141Y07619*
X08141Y07619*
X08141Y07619*
X08141Y07619*
X08141Y07619*
X08141Y07618*
X08141Y07618*
X08141Y07618*
X08142Y07618*
X08142Y07618*
X08143Y07618*
X08143Y07617*
X08144Y07617*
X08144Y07617*
X08144*
X08145Y07617*
X08145*
X08145Y07617*
X08146Y07617*
X08147Y07618*
X08147Y07618*
X08147Y07618*
X08148Y07618*
X08148Y07618*
X08148Y07618*
X08148Y07618*
X08148Y07618*
X08148*
X08149Y07619*
X08149Y07619*
X08149Y07619*
X0815Y0762*
X0815Y0762*
X0815Y07621*
X0815Y07621*
X0815Y07621*
X0815Y07621*
Y07621*
X0815Y07622*
X08151Y07622*
X08151Y07623*
X08151Y07624*
X08151Y07624*
X08151Y07624*
Y07625*
X08151Y07625*
Y07625*
Y07625*
Y07625*
Y07625*
X08151Y07626*
X08151Y07627*
X08151Y07627*
X08151Y07628*
X08151Y07628*
X0815Y07628*
X0815Y07629*
X0815Y07629*
X0815Y07629*
X0815Y07629*
Y07629*
X0815Y07629*
X0815Y0763*
X08149Y07631*
X08149Y07631*
X08149Y07631*
X08148Y07631*
X08148Y07632*
X08148Y07632*
X08148*
X08148Y07632*
X08147Y07632*
X08146Y07633*
X08146Y07633*
X08145Y07633*
X08145Y07633*
X08145*
X08145Y07633*
X08145*
X08144Y07633*
X08143Y07633*
X08143Y07632*
X08142Y07632*
X08142Y07632*
X08142Y07632*
X08141Y07632*
X08141Y07632*
X08141Y07631*
X0814Y07631*
X0814Y0763*
X0814Y0763*
X0814Y07629*
X0814Y07629*
X0814Y07629*
X08139Y07629*
X08139Y07629*
X08139Y07629*
Y07629*
X08137Y07629*
X08137Y0763*
X08137Y0763*
X08137Y07631*
X08138Y07631*
X08138Y07631*
X08138Y07632*
X08138Y07632*
X08139Y07632*
X08139Y07633*
X08139Y07633*
X08139Y07633*
X08139Y07633*
X08139Y07633*
X0814Y07633*
X0814Y07633*
X0814Y07633*
X0814Y07634*
X0814Y07634*
X08141Y07634*
X08141Y07634*
X08142Y07635*
X08143Y07635*
X08143Y07635*
X08143Y07635*
X08144Y07635*
X08144Y07635*
X08144Y07635*
X08144*
X08145Y07635*
G37*
G36*
X08989Y07605D02*
X08989Y07605D01*
X0899Y07605*
X0899Y07604*
X08991Y07604*
X08991Y07604*
X08991Y07604*
X08992Y07604*
X08992Y07603*
X08992Y07603*
X08992Y07603*
X08993Y07603*
X08993Y07603*
X08993Y07603*
X08993Y07603*
X08993Y07603*
X08993Y07602*
X08993Y07602*
X08994Y07601*
X08994Y07601*
X08994Y07601*
X08994Y076*
X08994Y076*
X08994Y07599*
X08994Y07599*
X08994Y07599*
X08994Y07598*
Y07598*
Y07598*
Y07598*
X08994Y07598*
X08994Y07597*
X08994Y07597*
X08994Y07596*
X08994Y07596*
X08994Y07595*
X08994Y07595*
X08994Y07595*
X08993Y07595*
X08993Y07594*
X08993Y07594*
X08993Y07594*
X08993Y07594*
X08993Y07594*
X08993Y07594*
X08993Y07594*
X08992Y07593*
X08992Y07593*
X08992Y07593*
X08991Y07593*
X08991Y07592*
X08991Y07592*
X0899Y07592*
X0899Y07592*
X0899Y07592*
X08989Y07592*
X08989Y07592*
X08989Y07592*
X08989*
X08988Y07592*
X08988Y07592*
X08987Y07592*
X08987Y07592*
X08987Y07592*
X08986Y07593*
X08986Y07593*
X08986Y07593*
X08986Y07593*
X08985Y07593*
X08985Y07594*
X08985Y07594*
X08984Y07594*
X08984Y07594*
X08984Y07594*
X08984Y07594*
Y07594*
Y07594*
Y07594*
Y07594*
X08984Y07593*
X08984Y07593*
X08984Y07592*
X08984Y07592*
X08984Y07592*
X08984Y07591*
X08984Y07591*
Y07591*
X08985Y07591*
Y07591*
X08985Y07591*
X08985Y0759*
X08985Y0759*
X08985Y07589*
X08985Y07589*
X08985Y07589*
X08985Y07589*
X08985Y07589*
X08986Y07589*
X08986Y07588*
X08986Y07588*
X08986Y07588*
X08986Y07588*
X08987Y07588*
X08987Y07588*
X08987Y07587*
X08987Y07587*
X08987Y07587*
X08988Y07587*
X08988Y07587*
X08988Y07587*
X08988Y07587*
X08989*
X08989Y07587*
X08989Y07587*
X0899Y07587*
X0899Y07587*
X0899Y07587*
X08991Y07588*
X08991Y07588*
X08991Y07588*
X08991Y07588*
X08991Y07588*
X08991Y07589*
X08992Y07589*
X08992Y07589*
X08992Y0759*
X08992Y0759*
Y0759*
X08992Y0759*
Y0759*
X08994Y0759*
X08994Y07589*
X08994Y07588*
X08993Y07588*
X08993Y07587*
X08993Y07587*
X08993Y07587*
X08993Y07587*
X08992Y07586*
X08992Y07586*
X08992Y07586*
X08992Y07586*
X08992Y07586*
X08992Y07586*
X08991Y07586*
X08991Y07585*
X0899Y07585*
X08989Y07585*
X08989Y07585*
X08989*
X08989Y07585*
X08989*
X08988Y07585*
X08987Y07585*
X08987Y07585*
X08986Y07586*
X08986Y07586*
X08986Y07586*
X08985Y07586*
X08985Y07586*
X08985Y07586*
X08985Y07586*
X08985Y07586*
X08985*
X08984Y07587*
X08984Y07587*
X08984Y07588*
X08983Y07588*
X08983Y07589*
X08983Y07589*
X08983Y07589*
X08983Y07589*
X08983Y07589*
X08983Y07589*
Y0759*
X08982Y0759*
X08982Y0759*
X08982Y07591*
X08982Y07592*
X08982Y07593*
X08982Y07594*
X08982Y07594*
Y07594*
X08982Y07595*
Y07595*
Y07595*
Y07595*
Y07595*
Y07596*
X08982Y07597*
X08982Y07597*
X08982Y07598*
X08982Y07598*
X08982Y07599*
X08982Y07599*
X08982Y07599*
X08982Y076*
X08982Y076*
X08982Y076*
X08982Y076*
X08983Y07601*
X08983Y07601*
X08983Y07601*
Y07601*
X08983Y07601*
X08983Y07602*
X08984Y07603*
X08984Y07603*
X08984Y07603*
X08985Y07603*
X08985Y07604*
X08985Y07604*
X08985Y07604*
X08985*
X08986Y07604*
X08986Y07604*
X08987Y07604*
X08987Y07605*
X08988Y07605*
X08988Y07605*
X08988*
X08988Y07605*
X08988*
X08989Y07605*
G37*
G36*
X09005Y07605D02*
X09006Y07605D01*
X09007Y07605*
X09007Y07604*
X09008Y07604*
X09008Y07604*
X09008Y07604*
X09009Y07604*
X09009Y07604*
X09009Y07604*
X09009Y07604*
X09009Y07604*
X09009Y07604*
X0901Y07603*
X09011Y07603*
X09011Y07602*
X09012Y07602*
X09012Y07601*
X09012Y07601*
X09012Y07601*
X09012Y07601*
X09012Y076*
X09012Y076*
X09012Y076*
X09013Y07599*
X09013Y07599*
X09013Y07598*
X09013Y07597*
X09013Y07597*
X09013Y07596*
X09013Y07596*
Y07596*
X09014Y07595*
Y07595*
Y07595*
Y07595*
X09013Y07594*
X09013Y07593*
X09013Y07592*
X09013Y07592*
X09013Y07592*
X09013Y07591*
X09013Y07591*
X09013Y07591*
X09013Y0759*
X09013Y0759*
X09013Y0759*
X09013Y0759*
Y0759*
X09012Y07589*
X09012Y07588*
X09011Y07588*
X09011Y07588*
X09011Y07587*
X0901Y07587*
X0901Y07587*
X0901Y07587*
X0901Y07587*
X0901Y07586*
X0901Y07586*
X0901Y07586*
X0901Y07586*
X09009Y07586*
X09009Y07586*
X09008Y07586*
X09007Y07585*
X09006Y07585*
X09006Y07585*
X09006Y07585*
X09005Y07585*
X09005*
X09005Y07585*
X09005*
X09004Y07585*
X09003Y07585*
X09003Y07585*
X09002Y07585*
X09002Y07585*
X09002Y07586*
X09001Y07586*
X09001Y07586*
X09001Y07586*
X09Y07586*
X09Y07586*
X09Y07586*
X09Y07587*
X09Y07587*
X08999Y07587*
X08999Y07587*
X08999Y07587*
X08999Y07587*
X08998Y07588*
X08998Y07588*
X08998Y07589*
X08997Y0759*
X08997Y0759*
X08997Y0759*
X08997Y07591*
X08997Y07591*
X08997Y07591*
X08997Y07591*
X08997Y07591*
Y07591*
X08999Y07592*
X08999Y07592*
X08999Y07591*
X08999Y07591*
X09Y07591*
X09Y0759*
X09Y0759*
X09Y0759*
X09Y07589*
X09Y07589*
X09001Y07589*
X09001Y07589*
X09001Y07589*
X09001Y07589*
X09001Y07589*
X09001Y07588*
X09001Y07588*
X09001Y07588*
X09002Y07588*
X09002Y07588*
X09003Y07588*
X09003Y07587*
X09004Y07587*
X09004Y07587*
X09004*
X09005Y07587*
X09005*
X09005Y07587*
X09006Y07587*
X09007Y07588*
X09007Y07588*
X09007Y07588*
X09008Y07588*
X09008Y07588*
X09008Y07588*
X09008Y07588*
X09008Y07588*
X09008*
X09009Y07589*
X09009Y07589*
X09009Y07589*
X0901Y0759*
X0901Y0759*
X0901Y07591*
X0901Y07591*
X0901Y07591*
X0901Y07591*
Y07591*
X0901Y07592*
X09011Y07592*
X09011Y07593*
X09011Y07594*
X09011Y07594*
X09011Y07594*
Y07595*
X09011Y07595*
Y07595*
Y07595*
Y07595*
Y07595*
X09011Y07596*
X09011Y07597*
X09011Y07597*
X09011Y07598*
X09011Y07598*
X0901Y07598*
X0901Y07599*
X0901Y07599*
X0901Y07599*
X0901Y07599*
Y07599*
X0901Y07599*
X0901Y076*
X09009Y07601*
X09009Y07601*
X09009Y07601*
X09008Y07601*
X09008Y07602*
X09008Y07602*
X09008*
X09008Y07602*
X09007Y07602*
X09006Y07603*
X09006Y07603*
X09005Y07603*
X09005Y07603*
X09005*
X09005Y07603*
X09005*
X09004Y07603*
X09003Y07603*
X09003Y07602*
X09002Y07602*
X09002Y07602*
X09002Y07602*
X09001Y07602*
X09001Y07602*
X09001Y07601*
X09Y07601*
X09Y076*
X09Y076*
X09Y07599*
X09Y07599*
X09Y07599*
X08999Y07599*
X08999Y07599*
X08999Y07599*
Y07599*
X08997Y07599*
X08997Y076*
X08997Y076*
X08997Y07601*
X08998Y07601*
X08998Y07601*
X08998Y07602*
X08998Y07602*
X08999Y07602*
X08999Y07603*
X08999Y07603*
X08999Y07603*
X08999Y07603*
X08999Y07603*
X09Y07603*
X09Y07603*
X09Y07603*
X09Y07604*
X09Y07604*
X09001Y07604*
X09001Y07604*
X09002Y07605*
X09003Y07605*
X09003Y07605*
X09003Y07605*
X09004Y07605*
X09004Y07605*
X09004Y07605*
X09004*
X09005Y07605*
G37*
G36*
X03891Y09896D02*
X03892Y09896D01*
X03892Y09895*
X03893Y09895*
X03893Y09895*
X03893Y09895*
X03894Y09895*
X03894Y09895*
X03894Y09894*
X03895Y09894*
X03895Y09894*
X03895Y09894*
X03895Y09894*
X03895Y09894*
X03895Y09893*
X03895Y09893*
X03896Y09893*
X03896Y09892*
X03896Y09892*
X03897Y09891*
X03897Y0989*
X03897Y0989*
X03897Y09889*
X03897Y09888*
X03897Y09888*
X03897Y09887*
X03897Y09887*
X03897Y09886*
Y09886*
X03897Y09886*
Y09886*
Y09885*
Y09885*
Y09885*
X03897Y09884*
X03897Y09884*
X03897Y09883*
X03897Y09882*
X03897Y09882*
X03897Y09881*
X03897Y0988*
X03897Y0988*
X03896Y0988*
X03896Y09879*
X03896Y09879*
X03896Y09879*
X03896Y09878*
X03896Y09878*
X03896Y09878*
X03896Y09878*
X03895Y09878*
X03895Y09878*
X03895Y09877*
X03894Y09877*
X03894Y09877*
X03893Y09877*
X03893Y09876*
X03893Y09876*
X03892Y09876*
X03892Y09876*
X03892Y09876*
X03891Y09876*
X03891*
X03891Y09876*
X03891*
X0389Y09876*
X0389Y09876*
X03889Y09876*
X03889Y09877*
X03888Y09877*
X03888Y09877*
X03888Y09877*
X03888Y09877*
X03888Y09877*
X03888*
X03887Y09877*
X03887Y09878*
X03886Y09878*
X03886Y09878*
X03886Y09879*
X03886Y09879*
X03886Y09879*
X03886Y09879*
X03886Y09879*
Y09879*
X03885Y0988*
X03885Y0988*
X03885Y09881*
X03885Y09882*
X03885Y09882*
Y09882*
X03885Y09882*
Y09882*
Y09883*
Y09883*
Y09883*
X03885Y09883*
X03885Y09884*
X03885Y09884*
X03885Y09884*
X03885Y09885*
X03885Y09885*
X03885Y09886*
X03886Y09886*
X03886Y09886*
X03886Y09886*
X03886Y09887*
X03886Y09887*
X03886Y09887*
X03886Y09887*
X03886Y09887*
X03886Y09887*
X03887Y09887*
X03887Y09888*
X03887Y09888*
X03888Y09888*
X03888Y09888*
X03888Y09888*
X03889Y09889*
X03889Y09889*
X0389Y09889*
X0389Y09889*
X0389Y09889*
X0389Y09889*
X0389*
X03891Y09889*
X03891Y09889*
X03892Y09889*
X03892Y09889*
X03893Y09888*
X03893Y09888*
X03893Y09888*
X03893Y09888*
X03893*
X03894Y09888*
X03894Y09888*
X03894Y09887*
X03895Y09887*
X03895Y09887*
X03895Y09887*
X03895Y09886*
X03895Y09886*
Y09887*
X03895Y09887*
X03895Y09888*
X03895Y09888*
X03895Y09889*
X03895Y09889*
X03895Y09889*
X03895Y0989*
X03895Y0989*
X03895Y0989*
X03895Y0989*
X03895Y0989*
X03895Y09891*
X03895Y09891*
X03895Y09891*
Y09891*
X03894Y09891*
X03894Y09892*
X03894Y09892*
X03893Y09892*
X03893Y09893*
X03893Y09893*
X03893Y09893*
X03893Y09893*
X03892Y09893*
X03892Y09893*
X03892Y09894*
X03891Y09894*
X03891Y09894*
X03891Y09894*
X03891*
X0389Y09894*
X0389Y09894*
X03889Y09893*
X03889Y09893*
X03889Y09893*
X03889Y09893*
X03888Y09893*
X03888Y09893*
X03888Y09892*
X03888Y09892*
X03888Y09892*
X03888Y09891*
X03888Y09891*
X03888Y09891*
X03887Y09891*
X03887Y09891*
Y09891*
X03885Y09891*
X03885Y09892*
X03886Y09892*
X03886Y09893*
X03886Y09893*
X03886Y09894*
X03887Y09894*
X03887Y09894*
X03887Y09894*
X03887Y09894*
X03887Y09894*
X03887Y09894*
X03887Y09895*
X03887Y09895*
X03888Y09895*
X03889Y09895*
X03889Y09896*
X0389Y09896*
X0389Y09896*
X0389*
X0389Y09896*
X03891*
X03891Y09896*
G37*
G36*
X03908Y09896D02*
X03909Y09896D01*
X0391Y09896*
X0391Y09895*
X03911Y09895*
X03911Y09895*
X03911Y09895*
X03912Y09895*
X03912Y09895*
X03912Y09895*
X03912Y09895*
X03912Y09895*
X03912Y09895*
X03913Y09894*
X03914Y09894*
X03914Y09893*
X03915Y09893*
X03915Y09892*
X03915Y09892*
X03915Y09892*
X03915Y09892*
X03915Y09891*
X03915Y09891*
X03915Y09891*
X03916Y0989*
X03916Y0989*
X03916Y09889*
X03916Y09888*
X03916Y09888*
X03916Y09887*
X03916Y09887*
Y09887*
X03916Y09886*
Y09886*
Y09886*
Y09886*
X03916Y09885*
X03916Y09884*
X03916Y09883*
X03916Y09883*
X03916Y09883*
X03916Y09882*
X03916Y09882*
X03916Y09882*
X03916Y09881*
X03916Y09881*
X03916Y09881*
X03915Y09881*
Y09881*
X03915Y0988*
X03915Y09879*
X03914Y09879*
X03914Y09879*
X03914Y09878*
X03913Y09878*
X03913Y09878*
X03913Y09878*
X03913Y09878*
X03913Y09877*
X03913Y09877*
X03913Y09877*
X03913Y09877*
X03912Y09877*
X03912Y09877*
X03911Y09877*
X0391Y09876*
X03909Y09876*
X03909Y09876*
X03909Y09876*
X03908Y09876*
X03908*
X03908Y09876*
X03907*
X03907Y09876*
X03906Y09876*
X03906Y09876*
X03905Y09876*
X03905Y09876*
X03905Y09877*
X03904Y09877*
X03904Y09877*
X03904Y09877*
X03903Y09877*
X03903Y09877*
X03903Y09877*
X03903Y09878*
X03903Y09878*
X03902Y09878*
X03902Y09878*
X03902Y09878*
X03902Y09878*
X03901Y09879*
X03901Y09879*
X03901Y0988*
X039Y09881*
X039Y09881*
X039Y09881*
X039Y09882*
X039Y09882*
X039Y09882*
X039Y09882*
X039Y09882*
Y09882*
X03902Y09883*
X03902Y09883*
X03902Y09882*
X03902Y09882*
X03903Y09882*
X03903Y09881*
X03903Y09881*
X03903Y09881*
X03903Y0988*
X03903Y0988*
X03904Y0988*
X03904Y0988*
X03904Y0988*
X03904Y0988*
X03904Y0988*
X03904Y0988*
X03904Y09879*
X03904Y09879*
X03905Y09879*
X03905Y09879*
X03906Y09879*
X03906Y09878*
X03907Y09878*
X03907Y09878*
X03907*
X03908Y09878*
X03908*
X03908Y09878*
X03909Y09878*
X0391Y09879*
X0391Y09879*
X0391Y09879*
X03911Y09879*
X03911Y09879*
X03911Y09879*
X03911Y09879*
X03911Y09879*
X03911*
X03912Y0988*
X03912Y0988*
X03912Y0988*
X03913Y09881*
X03913Y09881*
X03913Y09882*
X03913Y09882*
X03913Y09882*
X03913Y09882*
Y09882*
X03913Y09883*
X03914Y09883*
X03914Y09884*
X03914Y09885*
X03914Y09885*
X03914Y09885*
Y09886*
X03914Y09886*
Y09886*
Y09886*
Y09886*
Y09886*
X03914Y09887*
X03914Y09888*
X03914Y09888*
X03914Y09889*
X03914Y09889*
X03913Y09889*
X03913Y0989*
X03913Y0989*
X03913Y0989*
X03913Y0989*
Y0989*
X03913Y0989*
X03913Y09891*
X03912Y09892*
X03912Y09892*
X03912Y09892*
X03911Y09892*
X03911Y09893*
X03911Y09893*
X03911*
X03911Y09893*
X0391Y09893*
X03909Y09894*
X03909Y09894*
X03908Y09894*
X03908Y09894*
X03908*
X03908Y09894*
X03908*
X03907Y09894*
X03906Y09894*
X03906Y09893*
X03905Y09893*
X03905Y09893*
X03905Y09893*
X03904Y09893*
X03904Y09893*
X03904Y09892*
X03903Y09892*
X03903Y09891*
X03903Y09891*
X03903Y0989*
X03903Y0989*
X03903Y0989*
X03902Y0989*
X03902Y0989*
X03902Y0989*
Y0989*
X039Y0989*
X039Y09891*
X039Y09891*
X039Y09892*
X03901Y09892*
X03901Y09892*
X03901Y09893*
X03901Y09893*
X03902Y09893*
X03902Y09894*
X03902Y09894*
X03902Y09894*
X03902Y09894*
X03902Y09894*
X03903Y09894*
X03903Y09894*
X03903Y09894*
X03903Y09895*
X03903Y09895*
X03904Y09895*
X03904Y09895*
X03905Y09896*
X03906Y09896*
X03906Y09896*
X03906Y09896*
X03907Y09896*
X03907Y09896*
X03907Y09896*
X03907*
X03908Y09896*
G37*
G36*
X04752Y09866D02*
X04752Y09866D01*
X04753Y09866*
X04753Y09865*
X04754Y09865*
X04754Y09865*
X04754Y09865*
X04755Y09865*
X04755Y09864*
X04755Y09864*
X04755Y09864*
X04755Y09864*
X04756Y09864*
X04756Y09864*
X04756Y09864*
X04756Y09864*
X04756Y09863*
X04756Y09863*
X04757Y09862*
X04757Y09862*
X04757Y09862*
X04757Y09861*
X04757Y09861*
X04757Y0986*
X04757Y0986*
X04757Y0986*
X04757Y09859*
Y09859*
Y09859*
Y09859*
X04757Y09859*
X04757Y09858*
X04757Y09858*
X04757Y09857*
X04757Y09857*
X04757Y09857*
X04757Y09856*
X04757Y09856*
X04756Y09856*
X04756Y09855*
X04756Y09855*
X04756Y09855*
X04756Y09855*
X04756Y09855*
X04756Y09855*
X04756Y09855*
X04755Y09854*
X04755Y09854*
X04755Y09854*
X04754Y09854*
X04754Y09853*
X04754Y09853*
X04753Y09853*
X04753Y09853*
X04753Y09853*
X04752Y09853*
X04752Y09853*
X04752Y09853*
X04752*
X04751Y09853*
X04751Y09853*
X0475Y09853*
X0475Y09853*
X0475Y09853*
X04749Y09854*
X04749Y09854*
X04749Y09854*
X04749Y09854*
X04748Y09854*
X04748Y09855*
X04748Y09855*
X04747Y09855*
X04747Y09855*
X04747Y09855*
X04747Y09855*
Y09855*
Y09855*
Y09855*
Y09855*
X04747Y09854*
X04747Y09854*
X04747Y09853*
X04747Y09853*
X04747Y09853*
X04747Y09852*
X04747Y09852*
Y09852*
X04747Y09852*
Y09852*
X04748Y09852*
X04748Y09851*
X04748Y09851*
X04748Y0985*
X04748Y0985*
X04748Y0985*
X04748Y0985*
X04748Y0985*
X04749Y0985*
X04749Y09849*
X04749Y09849*
X04749Y09849*
X04749Y09849*
X0475Y09849*
X0475Y09849*
X0475Y09849*
X0475Y09848*
X0475Y09848*
X04751Y09848*
X04751Y09848*
X04751Y09848*
X04751Y09848*
X04752*
X04752Y09848*
X04752Y09848*
X04753Y09848*
X04753Y09848*
X04753Y09849*
X04754Y09849*
X04754Y09849*
X04754Y09849*
X04754Y09849*
X04754Y09849*
X04754Y0985*
X04755Y0985*
X04755Y0985*
X04755Y09851*
X04755Y09851*
Y09851*
X04755Y09851*
Y09851*
X04757Y09851*
X04757Y0985*
X04757Y09849*
X04756Y09849*
X04756Y09848*
X04756Y09848*
X04756Y09848*
X04756Y09848*
X04755Y09847*
X04755Y09847*
X04755Y09847*
X04755Y09847*
X04755Y09847*
X04755Y09847*
X04754Y09847*
X04754Y09846*
X04753Y09846*
X04752Y09846*
X04752Y09846*
X04752*
X04752Y09846*
X04752*
X04751Y09846*
X0475Y09846*
X0475Y09846*
X04749Y09847*
X04749Y09847*
X04749Y09847*
X04748Y09847*
X04748Y09847*
X04748Y09847*
X04748Y09847*
X04748Y09847*
X04748*
X04747Y09848*
X04747Y09848*
X04747Y09849*
X04746Y09849*
X04746Y0985*
X04746Y0985*
X04746Y0985*
X04746Y0985*
X04746Y0985*
X04746Y0985*
Y09851*
X04745Y09851*
X04745Y09851*
X04745Y09852*
X04745Y09853*
X04745Y09854*
X04745Y09855*
X04745Y09855*
Y09855*
X04745Y09856*
Y09856*
Y09856*
Y09856*
Y09856*
Y09857*
X04745Y09858*
X04745Y09858*
X04745Y09859*
X04745Y09859*
X04745Y0986*
X04745Y0986*
X04745Y0986*
X04745Y09861*
X04745Y09861*
X04745Y09861*
X04745Y09861*
X04746Y09862*
X04746Y09862*
X04746Y09862*
Y09862*
X04746Y09862*
X04746Y09863*
X04747Y09864*
X04747Y09864*
X04747Y09864*
X04748Y09864*
X04748Y09865*
X04748Y09865*
X04748Y09865*
X04748*
X04749Y09865*
X04749Y09865*
X0475Y09865*
X0475Y09866*
X04751Y09866*
X04751Y09866*
X04751*
X04751Y09866*
X04751*
X04752Y09866*
G37*
G36*
X04768Y09866D02*
X04769Y09866D01*
X0477Y09866*
X0477Y09865*
X04771Y09865*
X04771Y09865*
X04771Y09865*
X04772Y09865*
X04772Y09865*
X04772Y09865*
X04772Y09865*
X04772Y09865*
X04772Y09865*
X04773Y09864*
X04774Y09864*
X04774Y09863*
X04775Y09863*
X04775Y09862*
X04775Y09862*
X04775Y09862*
X04775Y09862*
X04775Y09861*
X04775Y09861*
X04775Y09861*
X04776Y0986*
X04776Y0986*
X04776Y09859*
X04776Y09858*
X04776Y09858*
X04776Y09857*
X04776Y09857*
Y09857*
X04776Y09856*
Y09856*
Y09856*
Y09856*
X04776Y09855*
X04776Y09854*
X04776Y09853*
X04776Y09853*
X04776Y09853*
X04776Y09852*
X04776Y09852*
X04776Y09852*
X04776Y09851*
X04776Y09851*
X04776Y09851*
X04775Y09851*
Y09851*
X04775Y0985*
X04775Y09849*
X04774Y09849*
X04774Y09849*
X04774Y09848*
X04773Y09848*
X04773Y09848*
X04773Y09848*
X04773Y09848*
X04773Y09847*
X04773Y09847*
X04773Y09847*
X04773Y09847*
X04772Y09847*
X04772Y09847*
X04771Y09847*
X0477Y09846*
X04769Y09846*
X04769Y09846*
X04769Y09846*
X04768Y09846*
X04768*
X04768Y09846*
X04767*
X04767Y09846*
X04766Y09846*
X04766Y09846*
X04765Y09846*
X04765Y09846*
X04765Y09847*
X04764Y09847*
X04764Y09847*
X04764Y09847*
X04763Y09847*
X04763Y09847*
X04763Y09847*
X04763Y09848*
X04763Y09848*
X04762Y09848*
X04762Y09848*
X04762Y09848*
X04762Y09848*
X04761Y09849*
X04761Y09849*
X04761Y0985*
X0476Y09851*
X0476Y09851*
X0476Y09851*
X0476Y09852*
X0476Y09852*
X0476Y09852*
X0476Y09852*
X0476Y09852*
Y09852*
X04762Y09853*
X04762Y09853*
X04762Y09852*
X04762Y09852*
X04763Y09852*
X04763Y09851*
X04763Y09851*
X04763Y09851*
X04763Y0985*
X04763Y0985*
X04764Y0985*
X04764Y0985*
X04764Y0985*
X04764Y0985*
X04764Y0985*
X04764Y0985*
X04764Y09849*
X04764Y09849*
X04765Y09849*
X04765Y09849*
X04766Y09849*
X04766Y09848*
X04767Y09848*
X04767Y09848*
X04767*
X04768Y09848*
X04768*
X04768Y09848*
X04769Y09848*
X0477Y09849*
X0477Y09849*
X0477Y09849*
X04771Y09849*
X04771Y09849*
X04771Y09849*
X04771Y09849*
X04771Y09849*
X04771*
X04772Y0985*
X04772Y0985*
X04772Y0985*
X04773Y09851*
X04773Y09851*
X04773Y09852*
X04773Y09852*
X04773Y09852*
X04773Y09852*
Y09852*
X04773Y09853*
X04774Y09853*
X04774Y09854*
X04774Y09855*
X04774Y09855*
X04774Y09855*
Y09856*
X04774Y09856*
Y09856*
Y09856*
Y09856*
Y09856*
X04774Y09857*
X04774Y09858*
X04774Y09858*
X04774Y09859*
X04774Y09859*
X04773Y09859*
X04773Y0986*
X04773Y0986*
X04773Y0986*
X04773Y0986*
Y0986*
X04773Y0986*
X04773Y09861*
X04772Y09862*
X04772Y09862*
X04772Y09862*
X04771Y09862*
X04771Y09863*
X04771Y09863*
X04771*
X04771Y09863*
X0477Y09863*
X04769Y09864*
X04769Y09864*
X04768Y09864*
X04768Y09864*
X04768*
X04768Y09864*
X04768*
X04767Y09864*
X04766Y09864*
X04766Y09863*
X04765Y09863*
X04765Y09863*
X04765Y09863*
X04764Y09863*
X04764Y09863*
X04764Y09862*
X04763Y09862*
X04763Y09861*
X04763Y09861*
X04763Y0986*
X04763Y0986*
X04763Y0986*
X04762Y0986*
X04762Y0986*
X04762Y0986*
Y0986*
X0476Y0986*
X0476Y09861*
X0476Y09861*
X0476Y09862*
X04761Y09862*
X04761Y09862*
X04761Y09863*
X04761Y09863*
X04762Y09863*
X04762Y09864*
X04762Y09864*
X04762Y09864*
X04762Y09864*
X04762Y09864*
X04763Y09864*
X04763Y09864*
X04763Y09864*
X04763Y09865*
X04763Y09865*
X04764Y09865*
X04764Y09865*
X04765Y09866*
X04766Y09866*
X04766Y09866*
X04766Y09866*
X04767Y09866*
X04767Y09866*
X04767Y09866*
X04767*
X04768Y09866*
G37*
G36*
X08128Y09896D02*
X08129Y09896D01*
X08129Y09895*
X0813Y09895*
X0813Y09895*
X0813Y09895*
X08131Y09895*
X08131Y09895*
X08131Y09894*
X08132Y09894*
X08132Y09894*
X08132Y09894*
X08132Y09894*
X08132Y09894*
X08132Y09893*
X08132Y09893*
X08133Y09893*
X08133Y09892*
X08133Y09892*
X08134Y09891*
X08134Y0989*
X08134Y0989*
X08134Y09889*
X08134Y09888*
X08134Y09888*
X08134Y09887*
X08134Y09887*
X08134Y09886*
Y09886*
X08135Y09886*
Y09886*
Y09885*
Y09885*
Y09885*
X08134Y09884*
X08134Y09884*
X08134Y09883*
X08134Y09882*
X08134Y09882*
X08134Y09881*
X08134Y0988*
X08134Y0988*
X08133Y0988*
X08133Y09879*
X08133Y09879*
X08133Y09879*
X08133Y09878*
X08133Y09878*
X08133Y09878*
X08133Y09878*
X08132Y09878*
X08132Y09878*
X08132Y09877*
X08131Y09877*
X08131Y09877*
X0813Y09877*
X0813Y09876*
X0813Y09876*
X08129Y09876*
X08129Y09876*
X08129Y09876*
X08128Y09876*
X08128*
X08128Y09876*
X08128*
X08127Y09876*
X08127Y09876*
X08126Y09876*
X08126Y09877*
X08125Y09877*
X08125Y09877*
X08125Y09877*
X08125Y09877*
X08125Y09877*
X08125*
X08124Y09877*
X08124Y09878*
X08123Y09878*
X08123Y09878*
X08123Y09879*
X08123Y09879*
X08123Y09879*
X08123Y09879*
X08123Y09879*
Y09879*
X08122Y0988*
X08122Y0988*
X08122Y09881*
X08122Y09882*
X08122Y09882*
Y09882*
X08122Y09882*
Y09882*
Y09883*
Y09883*
Y09883*
X08122Y09883*
X08122Y09884*
X08122Y09884*
X08122Y09884*
X08122Y09885*
X08122Y09885*
X08122Y09886*
X08123Y09886*
X08123Y09886*
X08123Y09886*
X08123Y09887*
X08123Y09887*
X08123Y09887*
X08123Y09887*
X08123Y09887*
X08123Y09887*
X08124Y09887*
X08124Y09888*
X08124Y09888*
X08125Y09888*
X08125Y09888*
X08125Y09888*
X08126Y09889*
X08126Y09889*
X08127Y09889*
X08127Y09889*
X08127Y09889*
X08127Y09889*
X08127*
X08128Y09889*
X08128Y09889*
X08129Y09889*
X08129Y09889*
X0813Y09888*
X0813Y09888*
X0813Y09888*
X0813Y09888*
X0813*
X08131Y09888*
X08131Y09888*
X08131Y09887*
X08132Y09887*
X08132Y09887*
X08132Y09887*
X08132Y09886*
X08132Y09886*
Y09887*
X08132Y09887*
X08132Y09888*
X08132Y09888*
X08132Y09889*
X08132Y09889*
X08132Y09889*
X08132Y0989*
X08132Y0989*
X08132Y0989*
X08132Y0989*
X08132Y0989*
X08132Y09891*
X08132Y09891*
X08132Y09891*
Y09891*
X08131Y09891*
X08131Y09892*
X08131Y09892*
X0813Y09892*
X0813Y09893*
X0813Y09893*
X0813Y09893*
X0813Y09893*
X08129Y09893*
X08129Y09893*
X08129Y09894*
X08128Y09894*
X08128Y09894*
X08128Y09894*
X08128*
X08127Y09894*
X08127Y09894*
X08126Y09893*
X08126Y09893*
X08126Y09893*
X08126Y09893*
X08125Y09893*
X08125Y09893*
X08125Y09892*
X08125Y09892*
X08125Y09892*
X08125Y09891*
X08125Y09891*
X08125Y09891*
X08125Y09891*
X08124Y09891*
Y09891*
X08122Y09891*
X08122Y09892*
X08123Y09892*
X08123Y09893*
X08123Y09893*
X08123Y09894*
X08124Y09894*
X08124Y09894*
X08124Y09894*
X08124Y09894*
X08124Y09894*
X08124Y09894*
X08124Y09895*
X08124Y09895*
X08125Y09895*
X08126Y09895*
X08126Y09896*
X08127Y09896*
X08127Y09896*
X08127*
X08127Y09896*
X08128*
X08128Y09896*
G37*
G36*
X08145Y09896D02*
X08146Y09896D01*
X08147Y09896*
X08147Y09895*
X08148Y09895*
X08148Y09895*
X08148Y09895*
X08149Y09895*
X08149Y09895*
X08149Y09895*
X08149Y09895*
X08149Y09895*
X08149Y09895*
X0815Y09894*
X08151Y09894*
X08151Y09893*
X08152Y09893*
X08152Y09892*
X08152Y09892*
X08152Y09892*
X08152Y09892*
X08152Y09891*
X08152Y09891*
X08152Y09891*
X08153Y0989*
X08153Y0989*
X08153Y09889*
X08153Y09888*
X08153Y09888*
X08153Y09887*
X08153Y09887*
Y09887*
X08154Y09886*
Y09886*
Y09886*
Y09886*
X08153Y09885*
X08153Y09884*
X08153Y09883*
X08153Y09883*
X08153Y09883*
X08153Y09882*
X08153Y09882*
X08153Y09882*
X08153Y09881*
X08153Y09881*
X08153Y09881*
X08153Y09881*
Y09881*
X08152Y0988*
X08152Y09879*
X08151Y09879*
X08151Y09879*
X08151Y09878*
X0815Y09878*
X0815Y09878*
X0815Y09878*
X0815Y09878*
X0815Y09877*
X0815Y09877*
X0815Y09877*
X0815Y09877*
X08149Y09877*
X08149Y09877*
X08148Y09877*
X08147Y09876*
X08146Y09876*
X08146Y09876*
X08146Y09876*
X08145Y09876*
X08145*
X08145Y09876*
X08145*
X08144Y09876*
X08143Y09876*
X08143Y09876*
X08142Y09876*
X08142Y09876*
X08142Y09877*
X08141Y09877*
X08141Y09877*
X08141Y09877*
X0814Y09877*
X0814Y09877*
X0814Y09877*
X0814Y09878*
X0814Y09878*
X08139Y09878*
X08139Y09878*
X08139Y09878*
X08139Y09878*
X08138Y09879*
X08138Y09879*
X08138Y0988*
X08137Y09881*
X08137Y09881*
X08137Y09881*
X08137Y09882*
X08137Y09882*
X08137Y09882*
X08137Y09882*
X08137Y09882*
Y09882*
X08139Y09883*
X08139Y09883*
X08139Y09882*
X08139Y09882*
X0814Y09882*
X0814Y09881*
X0814Y09881*
X0814Y09881*
X0814Y0988*
X0814Y0988*
X08141Y0988*
X08141Y0988*
X08141Y0988*
X08141Y0988*
X08141Y0988*
X08141Y0988*
X08141Y09879*
X08141Y09879*
X08142Y09879*
X08142Y09879*
X08143Y09879*
X08143Y09878*
X08144Y09878*
X08144Y09878*
X08144*
X08145Y09878*
X08145*
X08145Y09878*
X08146Y09878*
X08147Y09879*
X08147Y09879*
X08147Y09879*
X08148Y09879*
X08148Y09879*
X08148Y09879*
X08148Y09879*
X08148Y09879*
X08148*
X08149Y0988*
X08149Y0988*
X08149Y0988*
X0815Y09881*
X0815Y09881*
X0815Y09882*
X0815Y09882*
X0815Y09882*
X0815Y09882*
Y09882*
X0815Y09883*
X08151Y09883*
X08151Y09884*
X08151Y09885*
X08151Y09885*
X08151Y09885*
Y09886*
X08151Y09886*
Y09886*
Y09886*
Y09886*
Y09886*
X08151Y09887*
X08151Y09888*
X08151Y09888*
X08151Y09889*
X08151Y09889*
X0815Y09889*
X0815Y0989*
X0815Y0989*
X0815Y0989*
X0815Y0989*
Y0989*
X0815Y0989*
X0815Y09891*
X08149Y09892*
X08149Y09892*
X08149Y09892*
X08148Y09892*
X08148Y09893*
X08148Y09893*
X08148*
X08148Y09893*
X08147Y09893*
X08146Y09894*
X08146Y09894*
X08145Y09894*
X08145Y09894*
X08145*
X08145Y09894*
X08145*
X08144Y09894*
X08143Y09894*
X08143Y09893*
X08142Y09893*
X08142Y09893*
X08142Y09893*
X08141Y09893*
X08141Y09893*
X08141Y09892*
X0814Y09892*
X0814Y09891*
X0814Y09891*
X0814Y0989*
X0814Y0989*
X0814Y0989*
X08139Y0989*
X08139Y0989*
X08139Y0989*
Y0989*
X08137Y0989*
X08137Y09891*
X08137Y09891*
X08137Y09892*
X08138Y09892*
X08138Y09892*
X08138Y09893*
X08138Y09893*
X08139Y09893*
X08139Y09894*
X08139Y09894*
X08139Y09894*
X08139Y09894*
X08139Y09894*
X0814Y09894*
X0814Y09894*
X0814Y09894*
X0814Y09895*
X0814Y09895*
X08141Y09895*
X08141Y09895*
X08142Y09896*
X08143Y09896*
X08143Y09896*
X08143Y09896*
X08144Y09896*
X08144Y09896*
X08144Y09896*
X08144*
X08145Y09896*
G37*
G36*
X08989Y09866D02*
X08989Y09866D01*
X0899Y09866*
X0899Y09865*
X08991Y09865*
X08991Y09865*
X08991Y09865*
X08992Y09865*
X08992Y09864*
X08992Y09864*
X08992Y09864*
X08993Y09864*
X08993Y09864*
X08993Y09864*
X08993Y09864*
X08993Y09864*
X08993Y09863*
X08993Y09863*
X08994Y09862*
X08994Y09862*
X08994Y09862*
X08994Y09861*
X08994Y09861*
X08994Y0986*
X08994Y0986*
X08994Y0986*
X08994Y09859*
Y09859*
Y09859*
Y09859*
X08994Y09859*
X08994Y09858*
X08994Y09858*
X08994Y09857*
X08994Y09857*
X08994Y09857*
X08994Y09856*
X08994Y09856*
X08993Y09856*
X08993Y09855*
X08993Y09855*
X08993Y09855*
X08993Y09855*
X08993Y09855*
X08993Y09855*
X08993Y09855*
X08992Y09854*
X08992Y09854*
X08992Y09854*
X08991Y09854*
X08991Y09853*
X08991Y09853*
X0899Y09853*
X0899Y09853*
X0899Y09853*
X08989Y09853*
X08989Y09853*
X08989Y09853*
X08989*
X08988Y09853*
X08988Y09853*
X08987Y09853*
X08987Y09853*
X08987Y09853*
X08986Y09854*
X08986Y09854*
X08986Y09854*
X08986Y09854*
X08985Y09854*
X08985Y09855*
X08985Y09855*
X08984Y09855*
X08984Y09855*
X08984Y09855*
X08984Y09855*
Y09855*
Y09855*
Y09855*
Y09855*
X08984Y09854*
X08984Y09854*
X08984Y09853*
X08984Y09853*
X08984Y09853*
X08984Y09852*
X08984Y09852*
Y09852*
X08985Y09852*
Y09852*
X08985Y09852*
X08985Y09851*
X08985Y09851*
X08985Y0985*
X08985Y0985*
X08985Y0985*
X08985Y0985*
X08985Y0985*
X08986Y0985*
X08986Y09849*
X08986Y09849*
X08986Y09849*
X08986Y09849*
X08987Y09849*
X08987Y09849*
X08987Y09849*
X08987Y09848*
X08987Y09848*
X08988Y09848*
X08988Y09848*
X08988Y09848*
X08988Y09848*
X08989*
X08989Y09848*
X08989Y09848*
X0899Y09848*
X0899Y09848*
X0899Y09849*
X08991Y09849*
X08991Y09849*
X08991Y09849*
X08991Y09849*
X08991Y09849*
X08991Y0985*
X08992Y0985*
X08992Y0985*
X08992Y09851*
X08992Y09851*
Y09851*
X08992Y09851*
Y09851*
X08994Y09851*
X08994Y0985*
X08994Y09849*
X08993Y09849*
X08993Y09848*
X08993Y09848*
X08993Y09848*
X08993Y09848*
X08992Y09847*
X08992Y09847*
X08992Y09847*
X08992Y09847*
X08992Y09847*
X08992Y09847*
X08991Y09847*
X08991Y09846*
X0899Y09846*
X08989Y09846*
X08989Y09846*
X08989*
X08989Y09846*
X08989*
X08988Y09846*
X08987Y09846*
X08987Y09846*
X08986Y09847*
X08986Y09847*
X08986Y09847*
X08985Y09847*
X08985Y09847*
X08985Y09847*
X08985Y09847*
X08985Y09847*
X08985*
X08984Y09848*
X08984Y09848*
X08984Y09849*
X08983Y09849*
X08983Y0985*
X08983Y0985*
X08983Y0985*
X08983Y0985*
X08983Y0985*
X08983Y0985*
Y09851*
X08982Y09851*
X08982Y09851*
X08982Y09852*
X08982Y09853*
X08982Y09854*
X08982Y09855*
X08982Y09855*
Y09855*
X08982Y09856*
Y09856*
Y09856*
Y09856*
Y09856*
Y09857*
X08982Y09858*
X08982Y09858*
X08982Y09859*
X08982Y09859*
X08982Y0986*
X08982Y0986*
X08982Y0986*
X08982Y09861*
X08982Y09861*
X08982Y09861*
X08982Y09861*
X08983Y09862*
X08983Y09862*
X08983Y09862*
Y09862*
X08983Y09862*
X08983Y09863*
X08984Y09864*
X08984Y09864*
X08984Y09864*
X08985Y09864*
X08985Y09865*
X08985Y09865*
X08985Y09865*
X08985*
X08986Y09865*
X08986Y09865*
X08987Y09865*
X08987Y09866*
X08988Y09866*
X08988Y09866*
X08988*
X08988Y09866*
X08988*
X08989Y09866*
G37*
G36*
X09005Y09866D02*
X09006Y09866D01*
X09007Y09866*
X09007Y09865*
X09008Y09865*
X09008Y09865*
X09008Y09865*
X09009Y09865*
X09009Y09865*
X09009Y09865*
X09009Y09865*
X09009Y09865*
X09009Y09865*
X0901Y09864*
X09011Y09864*
X09011Y09863*
X09012Y09863*
X09012Y09862*
X09012Y09862*
X09012Y09862*
X09012Y09862*
X09012Y09861*
X09012Y09861*
X09012Y09861*
X09013Y0986*
X09013Y0986*
X09013Y09859*
X09013Y09858*
X09013Y09858*
X09013Y09857*
X09013Y09857*
Y09857*
X09014Y09856*
Y09856*
Y09856*
Y09856*
X09013Y09855*
X09013Y09854*
X09013Y09853*
X09013Y09853*
X09013Y09853*
X09013Y09852*
X09013Y09852*
X09013Y09852*
X09013Y09851*
X09013Y09851*
X09013Y09851*
X09013Y09851*
Y09851*
X09012Y0985*
X09012Y09849*
X09011Y09849*
X09011Y09849*
X09011Y09848*
X0901Y09848*
X0901Y09848*
X0901Y09848*
X0901Y09848*
X0901Y09847*
X0901Y09847*
X0901Y09847*
X0901Y09847*
X09009Y09847*
X09009Y09847*
X09008Y09847*
X09007Y09846*
X09006Y09846*
X09006Y09846*
X09006Y09846*
X09005Y09846*
X09005*
X09005Y09846*
X09005*
X09004Y09846*
X09003Y09846*
X09003Y09846*
X09002Y09846*
X09002Y09846*
X09002Y09847*
X09001Y09847*
X09001Y09847*
X09001Y09847*
X09Y09847*
X09Y09847*
X09Y09847*
X09Y09848*
X09Y09848*
X08999Y09848*
X08999Y09848*
X08999Y09848*
X08999Y09848*
X08998Y09849*
X08998Y09849*
X08998Y0985*
X08997Y09851*
X08997Y09851*
X08997Y09851*
X08997Y09852*
X08997Y09852*
X08997Y09852*
X08997Y09852*
X08997Y09852*
Y09852*
X08999Y09853*
X08999Y09853*
X08999Y09852*
X08999Y09852*
X09Y09852*
X09Y09851*
X09Y09851*
X09Y09851*
X09Y0985*
X09Y0985*
X09001Y0985*
X09001Y0985*
X09001Y0985*
X09001Y0985*
X09001Y0985*
X09001Y0985*
X09001Y09849*
X09001Y09849*
X09002Y09849*
X09002Y09849*
X09003Y09849*
X09003Y09848*
X09004Y09848*
X09004Y09848*
X09004*
X09005Y09848*
X09005*
X09005Y09848*
X09006Y09848*
X09007Y09849*
X09007Y09849*
X09007Y09849*
X09008Y09849*
X09008Y09849*
X09008Y09849*
X09008Y09849*
X09008Y09849*
X09008*
X09009Y0985*
X09009Y0985*
X09009Y0985*
X0901Y09851*
X0901Y09851*
X0901Y09852*
X0901Y09852*
X0901Y09852*
X0901Y09852*
Y09852*
X0901Y09853*
X09011Y09853*
X09011Y09854*
X09011Y09855*
X09011Y09855*
X09011Y09855*
Y09856*
X09011Y09856*
Y09856*
Y09856*
Y09856*
Y09856*
X09011Y09857*
X09011Y09858*
X09011Y09858*
X09011Y09859*
X09011Y09859*
X0901Y09859*
X0901Y0986*
X0901Y0986*
X0901Y0986*
X0901Y0986*
Y0986*
X0901Y0986*
X0901Y09861*
X09009Y09862*
X09009Y09862*
X09009Y09862*
X09008Y09862*
X09008Y09863*
X09008Y09863*
X09008*
X09008Y09863*
X09007Y09863*
X09006Y09864*
X09006Y09864*
X09005Y09864*
X09005Y09864*
X09005*
X09005Y09864*
X09005*
X09004Y09864*
X09003Y09864*
X09003Y09863*
X09002Y09863*
X09002Y09863*
X09002Y09863*
X09001Y09863*
X09001Y09863*
X09001Y09862*
X09Y09862*
X09Y09861*
X09Y09861*
X09Y0986*
X09Y0986*
X09Y0986*
X08999Y0986*
X08999Y0986*
X08999Y0986*
Y0986*
X08997Y0986*
X08997Y09861*
X08997Y09861*
X08997Y09862*
X08998Y09862*
X08998Y09862*
X08998Y09863*
X08998Y09863*
X08999Y09863*
X08999Y09864*
X08999Y09864*
X08999Y09864*
X08999Y09864*
X08999Y09864*
X09Y09864*
X09Y09864*
X09Y09864*
X09Y09865*
X09Y09865*
X09001Y09865*
X09001Y09865*
X09002Y09866*
X09003Y09866*
X09003Y09866*
X09003Y09866*
X09004Y09866*
X09004Y09866*
X09004Y09866*
X09004*
X09005Y09866*
G37*
G36*
X03891Y12158D02*
X03892Y12158D01*
X03892Y12157*
X03893Y12157*
X03893Y12157*
X03893Y12157*
X03894Y12157*
X03894Y12157*
X03894Y12156*
X03895Y12156*
X03895Y12156*
X03895Y12156*
X03895Y12156*
X03895Y12156*
X03895Y12155*
X03895Y12155*
X03896Y12155*
X03896Y12154*
X03896Y12154*
X03897Y12153*
X03897Y12152*
X03897Y12152*
X03897Y12151*
X03897Y1215*
X03897Y1215*
X03897Y12149*
X03897Y12149*
X03897Y12148*
Y12148*
X03897Y12148*
Y12148*
Y12147*
Y12147*
Y12147*
X03897Y12146*
X03897Y12146*
X03897Y12145*
X03897Y12144*
X03897Y12144*
X03897Y12143*
X03897Y12142*
X03897Y12142*
X03896Y12142*
X03896Y12141*
X03896Y12141*
X03896Y12141*
X03896Y1214*
X03896Y1214*
X03896Y1214*
X03896Y1214*
X03895Y1214*
X03895Y1214*
X03895Y12139*
X03894Y12139*
X03894Y12139*
X03893Y12139*
X03893Y12138*
X03893Y12138*
X03892Y12138*
X03892Y12138*
X03892Y12138*
X03891Y12138*
X03891*
X03891Y12138*
X03891*
X0389Y12138*
X0389Y12138*
X03889Y12138*
X03889Y12139*
X03888Y12139*
X03888Y12139*
X03888Y12139*
X03888Y12139*
X03888Y12139*
X03888*
X03887Y12139*
X03887Y1214*
X03886Y1214*
X03886Y1214*
X03886Y12141*
X03886Y12141*
X03886Y12141*
X03886Y12141*
X03886Y12141*
Y12141*
X03885Y12142*
X03885Y12142*
X03885Y12143*
X03885Y12144*
X03885Y12144*
Y12144*
X03885Y12144*
Y12144*
Y12145*
Y12145*
Y12145*
X03885Y12145*
X03885Y12146*
X03885Y12146*
X03885Y12146*
X03885Y12147*
X03885Y12147*
X03885Y12148*
X03886Y12148*
X03886Y12148*
X03886Y12148*
X03886Y12149*
X03886Y12149*
X03886Y12149*
X03886Y12149*
X03886Y12149*
X03886Y12149*
X03887Y12149*
X03887Y1215*
X03887Y1215*
X03888Y1215*
X03888Y1215*
X03888Y1215*
X03889Y12151*
X03889Y12151*
X0389Y12151*
X0389Y12151*
X0389Y12151*
X0389Y12151*
X0389*
X03891Y12151*
X03891Y12151*
X03892Y12151*
X03892Y12151*
X03893Y1215*
X03893Y1215*
X03893Y1215*
X03893Y1215*
X03893*
X03894Y1215*
X03894Y1215*
X03894Y12149*
X03895Y12149*
X03895Y12149*
X03895Y12149*
X03895Y12148*
X03895Y12148*
Y12149*
X03895Y12149*
X03895Y1215*
X03895Y1215*
X03895Y12151*
X03895Y12151*
X03895Y12151*
X03895Y12152*
X03895Y12152*
X03895Y12152*
X03895Y12152*
X03895Y12152*
X03895Y12153*
X03895Y12153*
X03895Y12153*
Y12153*
X03894Y12153*
X03894Y12154*
X03894Y12154*
X03893Y12154*
X03893Y12155*
X03893Y12155*
X03893Y12155*
X03893Y12155*
X03892Y12155*
X03892Y12155*
X03892Y12156*
X03891Y12156*
X03891Y12156*
X03891Y12156*
X03891*
X0389Y12156*
X0389Y12156*
X03889Y12155*
X03889Y12155*
X03889Y12155*
X03889Y12155*
X03888Y12155*
X03888Y12155*
X03888Y12154*
X03888Y12154*
X03888Y12154*
X03888Y12153*
X03888Y12153*
X03888Y12153*
X03887Y12153*
X03887Y12153*
Y12153*
X03885Y12153*
X03885Y12154*
X03886Y12154*
X03886Y12155*
X03886Y12155*
X03886Y12156*
X03887Y12156*
X03887Y12156*
X03887Y12156*
X03887Y12156*
X03887Y12156*
X03887Y12156*
X03887Y12157*
X03887Y12157*
X03888Y12157*
X03889Y12157*
X03889Y12158*
X0389Y12158*
X0389Y12158*
X0389*
X0389Y12158*
X03891*
X03891Y12158*
G37*
G36*
X03908Y12158D02*
X03909Y12158D01*
X0391Y12158*
X0391Y12157*
X03911Y12157*
X03911Y12157*
X03911Y12157*
X03912Y12157*
X03912Y12157*
X03912Y12157*
X03912Y12157*
X03912Y12157*
X03912Y12157*
X03913Y12156*
X03914Y12156*
X03914Y12155*
X03915Y12155*
X03915Y12154*
X03915Y12154*
X03915Y12154*
X03915Y12154*
X03915Y12153*
X03915Y12153*
X03915Y12153*
X03916Y12152*
X03916Y12152*
X03916Y12151*
X03916Y1215*
X03916Y1215*
X03916Y12149*
X03916Y12149*
Y12149*
X03916Y12148*
Y12148*
Y12148*
Y12148*
X03916Y12147*
X03916Y12146*
X03916Y12145*
X03916Y12145*
X03916Y12145*
X03916Y12144*
X03916Y12144*
X03916Y12144*
X03916Y12143*
X03916Y12143*
X03916Y12143*
X03915Y12143*
Y12143*
X03915Y12142*
X03915Y12141*
X03914Y12141*
X03914Y12141*
X03914Y1214*
X03913Y1214*
X03913Y1214*
X03913Y1214*
X03913Y1214*
X03913Y12139*
X03913Y12139*
X03913Y12139*
X03913Y12139*
X03912Y12139*
X03912Y12139*
X03911Y12139*
X0391Y12138*
X03909Y12138*
X03909Y12138*
X03909Y12138*
X03908Y12138*
X03908*
X03908Y12138*
X03907*
X03907Y12138*
X03906Y12138*
X03906Y12138*
X03905Y12138*
X03905Y12138*
X03905Y12139*
X03904Y12139*
X03904Y12139*
X03904Y12139*
X03903Y12139*
X03903Y12139*
X03903Y12139*
X03903Y1214*
X03903Y1214*
X03902Y1214*
X03902Y1214*
X03902Y1214*
X03902Y1214*
X03901Y12141*
X03901Y12141*
X03901Y12142*
X039Y12143*
X039Y12143*
X039Y12143*
X039Y12144*
X039Y12144*
X039Y12144*
X039Y12144*
X039Y12144*
Y12144*
X03902Y12145*
X03902Y12145*
X03902Y12144*
X03902Y12144*
X03903Y12144*
X03903Y12143*
X03903Y12143*
X03903Y12143*
X03903Y12142*
X03903Y12142*
X03904Y12142*
X03904Y12142*
X03904Y12142*
X03904Y12142*
X03904Y12142*
X03904Y12142*
X03904Y12141*
X03904Y12141*
X03905Y12141*
X03905Y12141*
X03906Y12141*
X03906Y1214*
X03907Y1214*
X03907Y1214*
X03907*
X03908Y1214*
X03908*
X03908Y1214*
X03909Y1214*
X0391Y12141*
X0391Y12141*
X0391Y12141*
X03911Y12141*
X03911Y12141*
X03911Y12141*
X03911Y12141*
X03911Y12141*
X03911*
X03912Y12142*
X03912Y12142*
X03912Y12142*
X03913Y12143*
X03913Y12143*
X03913Y12144*
X03913Y12144*
X03913Y12144*
X03913Y12144*
Y12144*
X03913Y12145*
X03914Y12145*
X03914Y12146*
X03914Y12147*
X03914Y12147*
X03914Y12147*
Y12148*
X03914Y12148*
Y12148*
Y12148*
Y12148*
Y12148*
X03914Y12149*
X03914Y1215*
X03914Y1215*
X03914Y12151*
X03914Y12151*
X03913Y12151*
X03913Y12152*
X03913Y12152*
X03913Y12152*
X03913Y12152*
Y12152*
X03913Y12152*
X03913Y12153*
X03912Y12154*
X03912Y12154*
X03912Y12154*
X03911Y12154*
X03911Y12155*
X03911Y12155*
X03911*
X03911Y12155*
X0391Y12155*
X03909Y12156*
X03909Y12156*
X03908Y12156*
X03908Y12156*
X03908*
X03908Y12156*
X03908*
X03907Y12156*
X03906Y12156*
X03906Y12155*
X03905Y12155*
X03905Y12155*
X03905Y12155*
X03904Y12155*
X03904Y12155*
X03904Y12154*
X03903Y12154*
X03903Y12153*
X03903Y12153*
X03903Y12152*
X03903Y12152*
X03903Y12152*
X03902Y12152*
X03902Y12152*
X03902Y12152*
Y12152*
X039Y12152*
X039Y12153*
X039Y12153*
X039Y12154*
X03901Y12154*
X03901Y12154*
X03901Y12155*
X03901Y12155*
X03902Y12155*
X03902Y12156*
X03902Y12156*
X03902Y12156*
X03902Y12156*
X03902Y12156*
X03903Y12156*
X03903Y12156*
X03903Y12156*
X03903Y12157*
X03903Y12157*
X03904Y12157*
X03904Y12157*
X03905Y12158*
X03906Y12158*
X03906Y12158*
X03906Y12158*
X03907Y12158*
X03907Y12158*
X03907Y12158*
X03907*
X03908Y12158*
G37*
G36*
X04752Y12128D02*
X04752Y12128D01*
X04753Y12128*
X04753Y12127*
X04754Y12127*
X04754Y12127*
X04754Y12127*
X04755Y12127*
X04755Y12126*
X04755Y12126*
X04755Y12126*
X04755Y12126*
X04756Y12126*
X04756Y12126*
X04756Y12126*
X04756Y12126*
X04756Y12125*
X04756Y12125*
X04757Y12124*
X04757Y12124*
X04757Y12124*
X04757Y12123*
X04757Y12123*
X04757Y12122*
X04757Y12122*
X04757Y12122*
X04757Y12121*
Y12121*
Y12121*
Y12121*
X04757Y12121*
X04757Y1212*
X04757Y1212*
X04757Y12119*
X04757Y12119*
X04757Y12119*
X04757Y12118*
X04757Y12118*
X04756Y12118*
X04756Y12117*
X04756Y12117*
X04756Y12117*
X04756Y12117*
X04756Y12117*
X04756Y12117*
X04756Y12117*
X04755Y12116*
X04755Y12116*
X04755Y12116*
X04754Y12116*
X04754Y12115*
X04754Y12115*
X04753Y12115*
X04753Y12115*
X04753Y12115*
X04752Y12115*
X04752Y12115*
X04752Y12115*
X04752*
X04751Y12115*
X04751Y12115*
X0475Y12115*
X0475Y12115*
X0475Y12115*
X04749Y12116*
X04749Y12116*
X04749Y12116*
X04749Y12116*
X04748Y12116*
X04748Y12117*
X04748Y12117*
X04747Y12117*
X04747Y12117*
X04747Y12117*
X04747Y12117*
Y12117*
Y12117*
Y12117*
Y12117*
X04747Y12116*
X04747Y12116*
X04747Y12115*
X04747Y12115*
X04747Y12115*
X04747Y12114*
X04747Y12114*
Y12114*
X04747Y12114*
Y12114*
X04748Y12114*
X04748Y12113*
X04748Y12113*
X04748Y12112*
X04748Y12112*
X04748Y12112*
X04748Y12112*
X04748Y12112*
X04749Y12112*
X04749Y12111*
X04749Y12111*
X04749Y12111*
X04749Y12111*
X0475Y12111*
X0475Y12111*
X0475Y12111*
X0475Y1211*
X0475Y1211*
X04751Y1211*
X04751Y1211*
X04751Y1211*
X04751Y1211*
X04752*
X04752Y1211*
X04752Y1211*
X04753Y1211*
X04753Y1211*
X04753Y12111*
X04754Y12111*
X04754Y12111*
X04754Y12111*
X04754Y12111*
X04754Y12111*
X04754Y12112*
X04755Y12112*
X04755Y12112*
X04755Y12113*
X04755Y12113*
Y12113*
X04755Y12113*
Y12113*
X04757Y12113*
X04757Y12112*
X04757Y12111*
X04756Y12111*
X04756Y1211*
X04756Y1211*
X04756Y1211*
X04756Y1211*
X04755Y12109*
X04755Y12109*
X04755Y12109*
X04755Y12109*
X04755Y12109*
X04755Y12109*
X04754Y12109*
X04754Y12108*
X04753Y12108*
X04752Y12108*
X04752Y12108*
X04752*
X04752Y12108*
X04752*
X04751Y12108*
X0475Y12108*
X0475Y12108*
X04749Y12109*
X04749Y12109*
X04749Y12109*
X04748Y12109*
X04748Y12109*
X04748Y12109*
X04748Y12109*
X04748Y12109*
X04748*
X04747Y1211*
X04747Y1211*
X04747Y12111*
X04746Y12111*
X04746Y12112*
X04746Y12112*
X04746Y12112*
X04746Y12112*
X04746Y12112*
X04746Y12112*
Y12113*
X04745Y12113*
X04745Y12113*
X04745Y12114*
X04745Y12115*
X04745Y12116*
X04745Y12117*
X04745Y12117*
Y12117*
X04745Y12118*
Y12118*
Y12118*
Y12118*
Y12118*
Y12119*
X04745Y1212*
X04745Y1212*
X04745Y12121*
X04745Y12121*
X04745Y12122*
X04745Y12122*
X04745Y12122*
X04745Y12123*
X04745Y12123*
X04745Y12123*
X04745Y12123*
X04746Y12124*
X04746Y12124*
X04746Y12124*
Y12124*
X04746Y12124*
X04746Y12125*
X04747Y12126*
X04747Y12126*
X04747Y12126*
X04748Y12126*
X04748Y12127*
X04748Y12127*
X04748Y12127*
X04748*
X04749Y12127*
X04749Y12127*
X0475Y12127*
X0475Y12128*
X04751Y12128*
X04751Y12128*
X04751*
X04751Y12128*
X04751*
X04752Y12128*
G37*
G36*
X04768Y12128D02*
X04769Y12128D01*
X0477Y12128*
X0477Y12127*
X04771Y12127*
X04771Y12127*
X04771Y12127*
X04772Y12127*
X04772Y12127*
X04772Y12127*
X04772Y12127*
X04772Y12127*
X04772Y12127*
X04773Y12126*
X04774Y12126*
X04774Y12125*
X04775Y12125*
X04775Y12124*
X04775Y12124*
X04775Y12124*
X04775Y12124*
X04775Y12123*
X04775Y12123*
X04775Y12123*
X04776Y12122*
X04776Y12122*
X04776Y12121*
X04776Y1212*
X04776Y1212*
X04776Y12119*
X04776Y12119*
Y12119*
X04776Y12118*
Y12118*
Y12118*
Y12118*
X04776Y12117*
X04776Y12116*
X04776Y12115*
X04776Y12115*
X04776Y12115*
X04776Y12114*
X04776Y12114*
X04776Y12114*
X04776Y12113*
X04776Y12113*
X04776Y12113*
X04775Y12113*
Y12113*
X04775Y12112*
X04775Y12111*
X04774Y12111*
X04774Y12111*
X04774Y1211*
X04773Y1211*
X04773Y1211*
X04773Y1211*
X04773Y1211*
X04773Y12109*
X04773Y12109*
X04773Y12109*
X04773Y12109*
X04772Y12109*
X04772Y12109*
X04771Y12109*
X0477Y12108*
X04769Y12108*
X04769Y12108*
X04769Y12108*
X04768Y12108*
X04768*
X04768Y12108*
X04767*
X04767Y12108*
X04766Y12108*
X04766Y12108*
X04765Y12108*
X04765Y12108*
X04765Y12109*
X04764Y12109*
X04764Y12109*
X04764Y12109*
X04763Y12109*
X04763Y12109*
X04763Y12109*
X04763Y1211*
X04763Y1211*
X04762Y1211*
X04762Y1211*
X04762Y1211*
X04762Y1211*
X04761Y12111*
X04761Y12111*
X04761Y12112*
X0476Y12113*
X0476Y12113*
X0476Y12113*
X0476Y12114*
X0476Y12114*
X0476Y12114*
X0476Y12114*
X0476Y12114*
Y12114*
X04762Y12115*
X04762Y12115*
X04762Y12114*
X04762Y12114*
X04763Y12114*
X04763Y12113*
X04763Y12113*
X04763Y12113*
X04763Y12112*
X04763Y12112*
X04764Y12112*
X04764Y12112*
X04764Y12112*
X04764Y12112*
X04764Y12112*
X04764Y12112*
X04764Y12111*
X04764Y12111*
X04765Y12111*
X04765Y12111*
X04766Y12111*
X04766Y1211*
X04767Y1211*
X04767Y1211*
X04767*
X04768Y1211*
X04768*
X04768Y1211*
X04769Y1211*
X0477Y12111*
X0477Y12111*
X0477Y12111*
X04771Y12111*
X04771Y12111*
X04771Y12111*
X04771Y12111*
X04771Y12111*
X04771*
X04772Y12112*
X04772Y12112*
X04772Y12112*
X04773Y12113*
X04773Y12113*
X04773Y12114*
X04773Y12114*
X04773Y12114*
X04773Y12114*
Y12114*
X04773Y12115*
X04774Y12115*
X04774Y12116*
X04774Y12117*
X04774Y12117*
X04774Y12117*
Y12118*
X04774Y12118*
Y12118*
Y12118*
Y12118*
Y12118*
X04774Y12119*
X04774Y1212*
X04774Y1212*
X04774Y12121*
X04774Y12121*
X04773Y12121*
X04773Y12122*
X04773Y12122*
X04773Y12122*
X04773Y12122*
Y12122*
X04773Y12122*
X04773Y12123*
X04772Y12124*
X04772Y12124*
X04772Y12124*
X04771Y12124*
X04771Y12125*
X04771Y12125*
X04771*
X04771Y12125*
X0477Y12125*
X04769Y12126*
X04769Y12126*
X04768Y12126*
X04768Y12126*
X04768*
X04768Y12126*
X04768*
X04767Y12126*
X04766Y12126*
X04766Y12125*
X04765Y12125*
X04765Y12125*
X04765Y12125*
X04764Y12125*
X04764Y12125*
X04764Y12124*
X04763Y12124*
X04763Y12123*
X04763Y12123*
X04763Y12122*
X04763Y12122*
X04763Y12122*
X04762Y12122*
X04762Y12122*
X04762Y12122*
Y12122*
X0476Y12122*
X0476Y12123*
X0476Y12123*
X0476Y12124*
X04761Y12124*
X04761Y12124*
X04761Y12125*
X04761Y12125*
X04762Y12125*
X04762Y12126*
X04762Y12126*
X04762Y12126*
X04762Y12126*
X04762Y12126*
X04763Y12126*
X04763Y12126*
X04763Y12126*
X04763Y12127*
X04763Y12127*
X04764Y12127*
X04764Y12127*
X04765Y12128*
X04766Y12128*
X04766Y12128*
X04766Y12128*
X04767Y12128*
X04767Y12128*
X04767Y12128*
X04767*
X04768Y12128*
G37*
G36*
X08128Y12158D02*
X08129Y12158D01*
X08129Y12157*
X0813Y12157*
X0813Y12157*
X0813Y12157*
X08131Y12157*
X08131Y12157*
X08131Y12156*
X08132Y12156*
X08132Y12156*
X08132Y12156*
X08132Y12156*
X08132Y12156*
X08132Y12155*
X08132Y12155*
X08133Y12155*
X08133Y12154*
X08133Y12154*
X08134Y12153*
X08134Y12152*
X08134Y12152*
X08134Y12151*
X08134Y1215*
X08134Y1215*
X08134Y12149*
X08134Y12149*
X08134Y12148*
Y12148*
X08135Y12148*
Y12148*
Y12147*
Y12147*
Y12147*
X08134Y12146*
X08134Y12146*
X08134Y12145*
X08134Y12144*
X08134Y12144*
X08134Y12143*
X08134Y12142*
X08134Y12142*
X08133Y12142*
X08133Y12141*
X08133Y12141*
X08133Y12141*
X08133Y1214*
X08133Y1214*
X08133Y1214*
X08133Y1214*
X08132Y1214*
X08132Y1214*
X08132Y12139*
X08131Y12139*
X08131Y12139*
X0813Y12139*
X0813Y12138*
X0813Y12138*
X08129Y12138*
X08129Y12138*
X08129Y12138*
X08128Y12138*
X08128*
X08128Y12138*
X08128*
X08127Y12138*
X08127Y12138*
X08126Y12138*
X08126Y12139*
X08125Y12139*
X08125Y12139*
X08125Y12139*
X08125Y12139*
X08125Y12139*
X08125*
X08124Y12139*
X08124Y1214*
X08123Y1214*
X08123Y1214*
X08123Y12141*
X08123Y12141*
X08123Y12141*
X08123Y12141*
X08123Y12141*
Y12141*
X08122Y12142*
X08122Y12142*
X08122Y12143*
X08122Y12144*
X08122Y12144*
Y12144*
X08122Y12144*
Y12144*
Y12145*
Y12145*
Y12145*
X08122Y12145*
X08122Y12146*
X08122Y12146*
X08122Y12146*
X08122Y12147*
X08122Y12147*
X08122Y12148*
X08123Y12148*
X08123Y12148*
X08123Y12148*
X08123Y12149*
X08123Y12149*
X08123Y12149*
X08123Y12149*
X08123Y12149*
X08123Y12149*
X08124Y12149*
X08124Y1215*
X08124Y1215*
X08125Y1215*
X08125Y1215*
X08125Y1215*
X08126Y12151*
X08126Y12151*
X08127Y12151*
X08127Y12151*
X08127Y12151*
X08127Y12151*
X08127*
X08128Y12151*
X08128Y12151*
X08129Y12151*
X08129Y12151*
X0813Y1215*
X0813Y1215*
X0813Y1215*
X0813Y1215*
X0813*
X08131Y1215*
X08131Y1215*
X08131Y12149*
X08132Y12149*
X08132Y12149*
X08132Y12149*
X08132Y12148*
X08132Y12148*
Y12149*
X08132Y12149*
X08132Y1215*
X08132Y1215*
X08132Y12151*
X08132Y12151*
X08132Y12151*
X08132Y12152*
X08132Y12152*
X08132Y12152*
X08132Y12152*
X08132Y12152*
X08132Y12153*
X08132Y12153*
X08132Y12153*
Y12153*
X08131Y12153*
X08131Y12154*
X08131Y12154*
X0813Y12154*
X0813Y12155*
X0813Y12155*
X0813Y12155*
X0813Y12155*
X08129Y12155*
X08129Y12155*
X08129Y12156*
X08128Y12156*
X08128Y12156*
X08128Y12156*
X08128*
X08127Y12156*
X08127Y12156*
X08126Y12155*
X08126Y12155*
X08126Y12155*
X08126Y12155*
X08125Y12155*
X08125Y12155*
X08125Y12154*
X08125Y12154*
X08125Y12154*
X08125Y12153*
X08125Y12153*
X08125Y12153*
X08125Y12153*
X08124Y12153*
Y12153*
X08122Y12153*
X08122Y12154*
X08123Y12154*
X08123Y12155*
X08123Y12155*
X08123Y12156*
X08124Y12156*
X08124Y12156*
X08124Y12156*
X08124Y12156*
X08124Y12156*
X08124Y12156*
X08124Y12157*
X08124Y12157*
X08125Y12157*
X08126Y12157*
X08126Y12158*
X08127Y12158*
X08127Y12158*
X08127*
X08127Y12158*
X08128*
X08128Y12158*
G37*
G36*
X08145Y12158D02*
X08146Y12158D01*
X08147Y12158*
X08147Y12157*
X08148Y12157*
X08148Y12157*
X08148Y12157*
X08149Y12157*
X08149Y12157*
X08149Y12157*
X08149Y12157*
X08149Y12157*
X08149Y12157*
X0815Y12156*
X08151Y12156*
X08151Y12155*
X08152Y12155*
X08152Y12154*
X08152Y12154*
X08152Y12154*
X08152Y12154*
X08152Y12153*
X08152Y12153*
X08152Y12153*
X08153Y12152*
X08153Y12152*
X08153Y12151*
X08153Y1215*
X08153Y1215*
X08153Y12149*
X08153Y12149*
Y12149*
X08154Y12148*
Y12148*
Y12148*
Y12148*
X08153Y12147*
X08153Y12146*
X08153Y12145*
X08153Y12145*
X08153Y12145*
X08153Y12144*
X08153Y12144*
X08153Y12144*
X08153Y12143*
X08153Y12143*
X08153Y12143*
X08153Y12143*
Y12143*
X08152Y12142*
X08152Y12141*
X08151Y12141*
X08151Y12141*
X08151Y1214*
X0815Y1214*
X0815Y1214*
X0815Y1214*
X0815Y1214*
X0815Y12139*
X0815Y12139*
X0815Y12139*
X0815Y12139*
X08149Y12139*
X08149Y12139*
X08148Y12139*
X08147Y12138*
X08146Y12138*
X08146Y12138*
X08146Y12138*
X08145Y12138*
X08145*
X08145Y12138*
X08145*
X08144Y12138*
X08143Y12138*
X08143Y12138*
X08142Y12138*
X08142Y12138*
X08142Y12139*
X08141Y12139*
X08141Y12139*
X08141Y12139*
X0814Y12139*
X0814Y12139*
X0814Y12139*
X0814Y1214*
X0814Y1214*
X08139Y1214*
X08139Y1214*
X08139Y1214*
X08139Y1214*
X08138Y12141*
X08138Y12141*
X08138Y12142*
X08137Y12143*
X08137Y12143*
X08137Y12143*
X08137Y12144*
X08137Y12144*
X08137Y12144*
X08137Y12144*
X08137Y12144*
Y12144*
X08139Y12145*
X08139Y12145*
X08139Y12144*
X08139Y12144*
X0814Y12144*
X0814Y12143*
X0814Y12143*
X0814Y12143*
X0814Y12142*
X0814Y12142*
X08141Y12142*
X08141Y12142*
X08141Y12142*
X08141Y12142*
X08141Y12142*
X08141Y12142*
X08141Y12141*
X08141Y12141*
X08142Y12141*
X08142Y12141*
X08143Y12141*
X08143Y1214*
X08144Y1214*
X08144Y1214*
X08144*
X08145Y1214*
X08145*
X08145Y1214*
X08146Y1214*
X08147Y12141*
X08147Y12141*
X08147Y12141*
X08148Y12141*
X08148Y12141*
X08148Y12141*
X08148Y12141*
X08148Y12141*
X08148*
X08149Y12142*
X08149Y12142*
X08149Y12142*
X0815Y12143*
X0815Y12143*
X0815Y12144*
X0815Y12144*
X0815Y12144*
X0815Y12144*
Y12144*
X0815Y12145*
X08151Y12145*
X08151Y12146*
X08151Y12147*
X08151Y12147*
X08151Y12147*
Y12148*
X08151Y12148*
Y12148*
Y12148*
Y12148*
Y12148*
X08151Y12149*
X08151Y1215*
X08151Y1215*
X08151Y12151*
X08151Y12151*
X0815Y12151*
X0815Y12152*
X0815Y12152*
X0815Y12152*
X0815Y12152*
Y12152*
X0815Y12152*
X0815Y12153*
X08149Y12154*
X08149Y12154*
X08149Y12154*
X08148Y12154*
X08148Y12155*
X08148Y12155*
X08148*
X08148Y12155*
X08147Y12155*
X08146Y12156*
X08146Y12156*
X08145Y12156*
X08145Y12156*
X08145*
X08145Y12156*
X08145*
X08144Y12156*
X08143Y12156*
X08143Y12155*
X08142Y12155*
X08142Y12155*
X08142Y12155*
X08141Y12155*
X08141Y12155*
X08141Y12154*
X0814Y12154*
X0814Y12153*
X0814Y12153*
X0814Y12152*
X0814Y12152*
X0814Y12152*
X08139Y12152*
X08139Y12152*
X08139Y12152*
Y12152*
X08137Y12152*
X08137Y12153*
X08137Y12153*
X08137Y12154*
X08138Y12154*
X08138Y12154*
X08138Y12155*
X08138Y12155*
X08139Y12155*
X08139Y12156*
X08139Y12156*
X08139Y12156*
X08139Y12156*
X08139Y12156*
X0814Y12156*
X0814Y12156*
X0814Y12156*
X0814Y12157*
X0814Y12157*
X08141Y12157*
X08141Y12157*
X08142Y12158*
X08143Y12158*
X08143Y12158*
X08143Y12158*
X08144Y12158*
X08144Y12158*
X08144Y12158*
X08144*
X08145Y12158*
G37*
G36*
X08989Y12128D02*
X08989Y12128D01*
X0899Y12128*
X0899Y12127*
X08991Y12127*
X08991Y12127*
X08991Y12127*
X08992Y12127*
X08992Y12126*
X08992Y12126*
X08992Y12126*
X08993Y12126*
X08993Y12126*
X08993Y12126*
X08993Y12126*
X08993Y12126*
X08993Y12125*
X08993Y12125*
X08994Y12124*
X08994Y12124*
X08994Y12124*
X08994Y12123*
X08994Y12123*
X08994Y12122*
X08994Y12122*
X08994Y12122*
X08994Y12121*
Y12121*
Y12121*
Y12121*
X08994Y12121*
X08994Y1212*
X08994Y1212*
X08994Y12119*
X08994Y12119*
X08994Y12119*
X08994Y12118*
X08994Y12118*
X08993Y12118*
X08993Y12117*
X08993Y12117*
X08993Y12117*
X08993Y12117*
X08993Y12117*
X08993Y12117*
X08993Y12117*
X08992Y12116*
X08992Y12116*
X08992Y12116*
X08991Y12116*
X08991Y12115*
X08991Y12115*
X0899Y12115*
X0899Y12115*
X0899Y12115*
X08989Y12115*
X08989Y12115*
X08989Y12115*
X08989*
X08988Y12115*
X08988Y12115*
X08987Y12115*
X08987Y12115*
X08987Y12115*
X08986Y12116*
X08986Y12116*
X08986Y12116*
X08986Y12116*
X08985Y12116*
X08985Y12117*
X08985Y12117*
X08984Y12117*
X08984Y12117*
X08984Y12117*
X08984Y12117*
Y12117*
Y12117*
Y12117*
Y12117*
X08984Y12116*
X08984Y12116*
X08984Y12115*
X08984Y12115*
X08984Y12115*
X08984Y12114*
X08984Y12114*
Y12114*
X08985Y12114*
Y12114*
X08985Y12114*
X08985Y12113*
X08985Y12113*
X08985Y12112*
X08985Y12112*
X08985Y12112*
X08985Y12112*
X08985Y12112*
X08986Y12112*
X08986Y12111*
X08986Y12111*
X08986Y12111*
X08986Y12111*
X08987Y12111*
X08987Y12111*
X08987Y12111*
X08987Y1211*
X08987Y1211*
X08988Y1211*
X08988Y1211*
X08988Y1211*
X08988Y1211*
X08989*
X08989Y1211*
X08989Y1211*
X0899Y1211*
X0899Y1211*
X0899Y12111*
X08991Y12111*
X08991Y12111*
X08991Y12111*
X08991Y12111*
X08991Y12111*
X08991Y12112*
X08992Y12112*
X08992Y12112*
X08992Y12113*
X08992Y12113*
Y12113*
X08992Y12113*
Y12113*
X08994Y12113*
X08994Y12112*
X08994Y12111*
X08993Y12111*
X08993Y1211*
X08993Y1211*
X08993Y1211*
X08993Y1211*
X08992Y12109*
X08992Y12109*
X08992Y12109*
X08992Y12109*
X08992Y12109*
X08992Y12109*
X08991Y12109*
X08991Y12108*
X0899Y12108*
X08989Y12108*
X08989Y12108*
X08989*
X08989Y12108*
X08989*
X08988Y12108*
X08987Y12108*
X08987Y12108*
X08986Y12109*
X08986Y12109*
X08986Y12109*
X08985Y12109*
X08985Y12109*
X08985Y12109*
X08985Y12109*
X08985Y12109*
X08985*
X08984Y1211*
X08984Y1211*
X08984Y12111*
X08983Y12111*
X08983Y12112*
X08983Y12112*
X08983Y12112*
X08983Y12112*
X08983Y12112*
X08983Y12112*
Y12113*
X08982Y12113*
X08982Y12113*
X08982Y12114*
X08982Y12115*
X08982Y12116*
X08982Y12117*
X08982Y12117*
Y12117*
X08982Y12118*
Y12118*
Y12118*
Y12118*
Y12118*
Y12119*
X08982Y1212*
X08982Y1212*
X08982Y12121*
X08982Y12121*
X08982Y12122*
X08982Y12122*
X08982Y12122*
X08982Y12123*
X08982Y12123*
X08982Y12123*
X08982Y12123*
X08983Y12124*
X08983Y12124*
X08983Y12124*
Y12124*
X08983Y12124*
X08983Y12125*
X08984Y12126*
X08984Y12126*
X08984Y12126*
X08985Y12126*
X08985Y12127*
X08985Y12127*
X08985Y12127*
X08985*
X08986Y12127*
X08986Y12127*
X08987Y12127*
X08987Y12128*
X08988Y12128*
X08988Y12128*
X08988*
X08988Y12128*
X08988*
X08989Y12128*
G37*
G36*
X09005Y12128D02*
X09006Y12128D01*
X09007Y12128*
X09007Y12127*
X09008Y12127*
X09008Y12127*
X09008Y12127*
X09009Y12127*
X09009Y12127*
X09009Y12127*
X09009Y12127*
X09009Y12127*
X09009Y12127*
X0901Y12126*
X09011Y12126*
X09011Y12125*
X09012Y12125*
X09012Y12124*
X09012Y12124*
X09012Y12124*
X09012Y12124*
X09012Y12123*
X09012Y12123*
X09012Y12123*
X09013Y12122*
X09013Y12122*
X09013Y12121*
X09013Y1212*
X09013Y1212*
X09013Y12119*
X09013Y12119*
Y12119*
X09014Y12118*
Y12118*
Y12118*
Y12118*
X09013Y12117*
X09013Y12116*
X09013Y12115*
X09013Y12115*
X09013Y12115*
X09013Y12114*
X09013Y12114*
X09013Y12114*
X09013Y12113*
X09013Y12113*
X09013Y12113*
X09013Y12113*
Y12113*
X09012Y12112*
X09012Y12111*
X09011Y12111*
X09011Y12111*
X09011Y1211*
X0901Y1211*
X0901Y1211*
X0901Y1211*
X0901Y1211*
X0901Y12109*
X0901Y12109*
X0901Y12109*
X0901Y12109*
X09009Y12109*
X09009Y12109*
X09008Y12109*
X09007Y12108*
X09006Y12108*
X09006Y12108*
X09006Y12108*
X09005Y12108*
X09005*
X09005Y12108*
X09005*
X09004Y12108*
X09003Y12108*
X09003Y12108*
X09002Y12108*
X09002Y12108*
X09002Y12109*
X09001Y12109*
X09001Y12109*
X09001Y12109*
X09Y12109*
X09Y12109*
X09Y12109*
X09Y1211*
X09Y1211*
X08999Y1211*
X08999Y1211*
X08999Y1211*
X08999Y1211*
X08998Y12111*
X08998Y12111*
X08998Y12112*
X08997Y12113*
X08997Y12113*
X08997Y12113*
X08997Y12114*
X08997Y12114*
X08997Y12114*
X08997Y12114*
X08997Y12114*
Y12114*
X08999Y12115*
X08999Y12115*
X08999Y12114*
X08999Y12114*
X09Y12114*
X09Y12113*
X09Y12113*
X09Y12113*
X09Y12112*
X09Y12112*
X09001Y12112*
X09001Y12112*
X09001Y12112*
X09001Y12112*
X09001Y12112*
X09001Y12112*
X09001Y12111*
X09001Y12111*
X09002Y12111*
X09002Y12111*
X09003Y12111*
X09003Y1211*
X09004Y1211*
X09004Y1211*
X09004*
X09005Y1211*
X09005*
X09005Y1211*
X09006Y1211*
X09007Y12111*
X09007Y12111*
X09007Y12111*
X09008Y12111*
X09008Y12111*
X09008Y12111*
X09008Y12111*
X09008Y12111*
X09008*
X09009Y12112*
X09009Y12112*
X09009Y12112*
X0901Y12113*
X0901Y12113*
X0901Y12114*
X0901Y12114*
X0901Y12114*
X0901Y12114*
Y12114*
X0901Y12115*
X09011Y12115*
X09011Y12116*
X09011Y12117*
X09011Y12117*
X09011Y12117*
Y12118*
X09011Y12118*
Y12118*
Y12118*
Y12118*
Y12118*
X09011Y12119*
X09011Y1212*
X09011Y1212*
X09011Y12121*
X09011Y12121*
X0901Y12121*
X0901Y12122*
X0901Y12122*
X0901Y12122*
X0901Y12122*
Y12122*
X0901Y12122*
X0901Y12123*
X09009Y12124*
X09009Y12124*
X09009Y12124*
X09008Y12124*
X09008Y12125*
X09008Y12125*
X09008*
X09008Y12125*
X09007Y12125*
X09006Y12126*
X09006Y12126*
X09005Y12126*
X09005Y12126*
X09005*
X09005Y12126*
X09005*
X09004Y12126*
X09003Y12126*
X09003Y12125*
X09002Y12125*
X09002Y12125*
X09002Y12125*
X09001Y12125*
X09001Y12125*
X09001Y12124*
X09Y12124*
X09Y12123*
X09Y12123*
X09Y12122*
X09Y12122*
X09Y12122*
X08999Y12122*
X08999Y12122*
X08999Y12122*
Y12122*
X08997Y12122*
X08997Y12123*
X08997Y12123*
X08997Y12124*
X08998Y12124*
X08998Y12124*
X08998Y12125*
X08998Y12125*
X08999Y12125*
X08999Y12126*
X08999Y12126*
X08999Y12126*
X08999Y12126*
X08999Y12126*
X09Y12126*
X09Y12126*
X09Y12126*
X09Y12127*
X09Y12127*
X09001Y12127*
X09001Y12127*
X09002Y12128*
X09003Y12128*
X09003Y12128*
X09003Y12128*
X09004Y12128*
X09004Y12128*
X09004Y12128*
X09004*
X09005Y12128*
G37*
%LNcontrolboardv1-2*%
%LPC*%
G36*
X03891Y03102D02*
X03891D01*
X0389Y03102*
X0389Y03102*
X03889Y03101*
X03889Y03101*
X03889Y03101*
X03888Y03101*
X03888Y03101*
X03888Y03101*
X03888Y031*
X03888Y031*
X03887Y03099*
X03887Y03099*
X03887Y03098*
X03887Y03098*
Y03098*
X03887Y03098*
Y03098*
Y03098*
Y03097*
X03887Y03097*
X03887Y03096*
X03888Y03096*
X03888Y03095*
X03888Y03095*
X03888Y03094*
X03888Y03094*
X03888Y03094*
Y03094*
X03888Y03094*
X03889Y03094*
X03889Y03094*
X0389Y03093*
X0389Y03093*
X0389Y03093*
X03891Y03093*
X03891Y03093*
X03891*
X03891Y03093*
X03892Y03093*
X03892Y03093*
X03892Y03093*
X03892Y03093*
X03893Y03094*
X03893Y03094*
X03893Y03094*
X03893Y03094*
X03893Y03094*
X03894Y03094*
X03894Y03095*
X03894Y03095*
X03894Y03095*
X03894Y03095*
X03894Y03095*
X03894Y03096*
X03895Y03096*
X03895Y03097*
X03895Y03097*
X03895Y03097*
X03895Y03097*
Y03098*
Y03098*
X03895Y03098*
X03895Y03099*
X03894Y03099*
X03894Y031*
X03894Y031*
X03894Y031*
X03894Y03101*
X03894Y03101*
X03893Y03101*
X03893Y03101*
X03892Y03101*
X03892Y03102*
X03892Y03102*
X03891Y03102*
X03891Y03102*
G37*
G36*
X04751Y03079D02*
X04751D01*
X04751Y03079*
X0475Y03079*
X0475Y03078*
X04749Y03078*
X04749Y03078*
X04749Y03078*
X04749Y03078*
X04748Y03078*
Y03078*
X04748Y03077*
X04748Y03077*
X04748Y03076*
X04748Y03075*
X04747Y03075*
X04747Y03075*
Y03075*
X04747Y03074*
Y03074*
Y03074*
Y03074*
X04747Y03074*
X04748Y03073*
X04748Y03072*
X04748Y03072*
X04748Y03072*
X04748Y03071*
X04748Y03071*
X04748Y03071*
X04749Y03071*
X04749Y0307*
X0475Y0307*
X0475Y0307*
X04751Y0307*
X04751Y0307*
X04751Y0307*
X04751*
X04752Y0307*
X04752Y0307*
X04753Y0307*
X04753Y03071*
X04753Y03071*
X04754Y03071*
X04754Y03071*
X04754Y03071*
X04754Y03072*
X04755Y03072*
X04755Y03073*
X04755Y03073*
X04755Y03073*
X04755Y03074*
Y03074*
X04755Y03074*
Y03074*
Y03074*
Y03074*
X04755Y03075*
X04755Y03075*
X04755Y03076*
X04754Y03077*
X04754Y03077*
X04754Y03077*
X04754Y03077*
X04754Y03077*
X04754Y03077*
Y03077*
X04754Y03078*
X04753Y03078*
X04753Y03078*
X04752Y03078*
X04752Y03079*
X04752Y03079*
X04751Y03079*
X04751Y03079*
G37*
G36*
X08128Y03102D02*
X08128D01*
X08127Y03102*
X08127Y03102*
X08126Y03101*
X08126Y03101*
X08126Y03101*
X08125Y03101*
X08125Y03101*
X08125Y03101*
X08125Y031*
X08125Y031*
X08124Y03099*
X08124Y03099*
X08124Y03098*
X08124Y03098*
Y03098*
X08124Y03098*
Y03098*
Y03098*
Y03097*
X08124Y03097*
X08124Y03096*
X08125Y03096*
X08125Y03095*
X08125Y03095*
X08125Y03094*
X08125Y03094*
X08125Y03094*
Y03094*
X08125Y03094*
X08126Y03094*
X08126Y03094*
X08127Y03093*
X08127Y03093*
X08127Y03093*
X08128Y03093*
X08128Y03093*
X08128*
X08128Y03093*
X08129Y03093*
X08129Y03093*
X08129Y03093*
X08129Y03093*
X0813Y03094*
X0813Y03094*
X0813Y03094*
X0813Y03094*
X0813Y03094*
X08131Y03094*
X08131Y03095*
X08131Y03095*
X08131Y03095*
X08131Y03095*
X08131Y03095*
X08131Y03096*
X08132Y03096*
X08132Y03097*
X08132Y03097*
X08132Y03097*
X08132Y03097*
Y03098*
Y03098*
X08132Y03098*
X08132Y03099*
X08131Y03099*
X08131Y031*
X08131Y031*
X08131Y031*
X08131Y03101*
X08131Y03101*
X0813Y03101*
X0813Y03101*
X08129Y03101*
X08129Y03102*
X08129Y03102*
X08128Y03102*
X08128Y03102*
G37*
G36*
X08988Y03079D02*
X08988D01*
X08988Y03079*
X08987Y03079*
X08987Y03078*
X08986Y03078*
X08986Y03078*
X08986Y03078*
X08986Y03078*
X08985Y03078*
Y03078*
X08985Y03077*
X08985Y03077*
X08985Y03076*
X08985Y03075*
X08984Y03075*
X08984Y03075*
Y03075*
X08984Y03074*
Y03074*
Y03074*
Y03074*
X08984Y03074*
X08985Y03073*
X08985Y03072*
X08985Y03072*
X08985Y03072*
X08985Y03071*
X08985Y03071*
X08985Y03071*
X08986Y03071*
X08986Y0307*
X08987Y0307*
X08987Y0307*
X08988Y0307*
X08988Y0307*
X08988Y0307*
X08988*
X08989Y0307*
X08989Y0307*
X0899Y0307*
X0899Y03071*
X0899Y03071*
X08991Y03071*
X08991Y03071*
X08991Y03071*
X08991Y03072*
X08992Y03072*
X08992Y03073*
X08992Y03073*
X08992Y03073*
X08992Y03074*
Y03074*
X08992Y03074*
Y03074*
Y03074*
Y03074*
X08992Y03075*
X08992Y03075*
X08992Y03076*
X08991Y03077*
X08991Y03077*
X08991Y03077*
X08991Y03077*
X08991Y03077*
X08991Y03077*
Y03077*
X08991Y03078*
X0899Y03078*
X0899Y03078*
X08989Y03078*
X08989Y03079*
X08989Y03079*
X08988Y03079*
X08988Y03079*
G37*
G36*
X03891Y05364D02*
X03891D01*
X0389Y05364*
X0389Y05364*
X03889Y05363*
X03889Y05363*
X03889Y05363*
X03888Y05363*
X03888Y05363*
X03888Y05363*
X03888Y05362*
X03888Y05362*
X03887Y05361*
X03887Y05361*
X03887Y0536*
X03887Y0536*
Y0536*
X03887Y0536*
Y0536*
Y0536*
Y05359*
X03887Y05359*
X03887Y05358*
X03888Y05358*
X03888Y05357*
X03888Y05357*
X03888Y05356*
X03888Y05356*
X03888Y05356*
Y05356*
X03888Y05356*
X03889Y05356*
X03889Y05356*
X0389Y05355*
X0389Y05355*
X0389Y05355*
X03891Y05355*
X03891Y05355*
X03891*
X03891Y05355*
X03892Y05355*
X03892Y05355*
X03892Y05355*
X03892Y05355*
X03893Y05356*
X03893Y05356*
X03893Y05356*
X03893Y05356*
X03893Y05356*
X03894Y05356*
X03894Y05357*
X03894Y05357*
X03894Y05357*
X03894Y05357*
X03894Y05357*
X03894Y05358*
X03895Y05358*
X03895Y05359*
X03895Y05359*
X03895Y05359*
X03895Y05359*
Y0536*
Y0536*
X03895Y0536*
X03895Y05361*
X03894Y05361*
X03894Y05362*
X03894Y05362*
X03894Y05362*
X03894Y05363*
X03894Y05363*
X03893Y05363*
X03893Y05363*
X03892Y05363*
X03892Y05364*
X03892Y05364*
X03891Y05364*
X03891Y05364*
G37*
G36*
X04751Y05341D02*
X04751D01*
X04751Y05341*
X0475Y05341*
X0475Y0534*
X04749Y0534*
X04749Y0534*
X04749Y0534*
X04749Y0534*
X04748Y0534*
Y0534*
X04748Y05339*
X04748Y05339*
X04748Y05338*
X04748Y05337*
X04747Y05337*
X04747Y05337*
Y05337*
X04747Y05336*
Y05336*
Y05336*
Y05336*
X04747Y05336*
X04748Y05335*
X04748Y05334*
X04748Y05334*
X04748Y05334*
X04748Y05333*
X04748Y05333*
X04748Y05333*
X04749Y05333*
X04749Y05332*
X0475Y05332*
X0475Y05332*
X04751Y05332*
X04751Y05332*
X04751Y05332*
X04751*
X04752Y05332*
X04752Y05332*
X04753Y05332*
X04753Y05333*
X04753Y05333*
X04754Y05333*
X04754Y05333*
X04754Y05333*
X04754Y05334*
X04755Y05334*
X04755Y05335*
X04755Y05335*
X04755Y05335*
X04755Y05336*
Y05336*
X04755Y05336*
Y05336*
Y05336*
Y05336*
X04755Y05337*
X04755Y05337*
X04755Y05338*
X04754Y05339*
X04754Y05339*
X04754Y05339*
X04754Y05339*
X04754Y05339*
X04754Y05339*
Y05339*
X04754Y0534*
X04753Y0534*
X04753Y0534*
X04752Y0534*
X04752Y05341*
X04752Y05341*
X04751Y05341*
X04751Y05341*
G37*
G36*
X08128Y05364D02*
X08128D01*
X08127Y05364*
X08127Y05364*
X08126Y05363*
X08126Y05363*
X08126Y05363*
X08125Y05363*
X08125Y05363*
X08125Y05363*
X08125Y05362*
X08125Y05362*
X08124Y05361*
X08124Y05361*
X08124Y0536*
X08124Y0536*
Y0536*
X08124Y0536*
Y0536*
Y0536*
Y05359*
X08124Y05359*
X08124Y05358*
X08125Y05358*
X08125Y05357*
X08125Y05357*
X08125Y05356*
X08125Y05356*
X08125Y05356*
Y05356*
X08125Y05356*
X08126Y05356*
X08126Y05356*
X08127Y05355*
X08127Y05355*
X08127Y05355*
X08128Y05355*
X08128Y05355*
X08128*
X08128Y05355*
X08129Y05355*
X08129Y05355*
X08129Y05355*
X08129Y05355*
X0813Y05356*
X0813Y05356*
X0813Y05356*
X0813Y05356*
X0813Y05356*
X08131Y05356*
X08131Y05357*
X08131Y05357*
X08131Y05357*
X08131Y05357*
X08131Y05357*
X08131Y05358*
X08132Y05358*
X08132Y05359*
X08132Y05359*
X08132Y05359*
X08132Y05359*
Y0536*
Y0536*
X08132Y0536*
X08132Y05361*
X08131Y05361*
X08131Y05362*
X08131Y05362*
X08131Y05362*
X08131Y05363*
X08131Y05363*
X0813Y05363*
X0813Y05363*
X08129Y05363*
X08129Y05364*
X08129Y05364*
X08128Y05364*
X08128Y05364*
G37*
G36*
X08988Y05341D02*
X08988D01*
X08988Y05341*
X08987Y05341*
X08987Y0534*
X08986Y0534*
X08986Y0534*
X08986Y0534*
X08986Y0534*
X08985Y0534*
Y0534*
X08985Y05339*
X08985Y05339*
X08985Y05338*
X08985Y05337*
X08984Y05337*
X08984Y05337*
Y05337*
X08984Y05336*
Y05336*
Y05336*
Y05336*
X08984Y05336*
X08985Y05335*
X08985Y05334*
X08985Y05334*
X08985Y05334*
X08985Y05333*
X08985Y05333*
X08985Y05333*
X08986Y05333*
X08986Y05332*
X08987Y05332*
X08987Y05332*
X08988Y05332*
X08988Y05332*
X08988Y05332*
X08988*
X08989Y05332*
X08989Y05332*
X0899Y05332*
X0899Y05333*
X0899Y05333*
X08991Y05333*
X08991Y05333*
X08991Y05333*
X08991Y05334*
X08992Y05334*
X08992Y05335*
X08992Y05335*
X08992Y05335*
X08992Y05336*
Y05336*
X08992Y05336*
Y05336*
Y05336*
Y05336*
X08992Y05337*
X08992Y05337*
X08992Y05338*
X08991Y05339*
X08991Y05339*
X08991Y05339*
X08991Y05339*
X08991Y05339*
X08991Y05339*
Y05339*
X08991Y0534*
X0899Y0534*
X0899Y0534*
X08989Y0534*
X08989Y05341*
X08989Y05341*
X08988Y05341*
X08988Y05341*
G37*
G36*
X03891Y07626D02*
X03891D01*
X0389Y07626*
X0389Y07626*
X03889Y07625*
X03889Y07625*
X03889Y07625*
X03888Y07625*
X03888Y07625*
X03888Y07625*
X03888Y07624*
X03888Y07624*
X03887Y07623*
X03887Y07623*
X03887Y07622*
X03887Y07622*
Y07622*
X03887Y07622*
Y07622*
Y07622*
Y07621*
X03887Y07621*
X03887Y0762*
X03888Y0762*
X03888Y07619*
X03888Y07619*
X03888Y07618*
X03888Y07618*
X03888Y07618*
Y07618*
X03888Y07618*
X03889Y07618*
X03889Y07618*
X0389Y07617*
X0389Y07617*
X0389Y07617*
X03891Y07617*
X03891Y07617*
X03891*
X03891Y07617*
X03892Y07617*
X03892Y07617*
X03892Y07617*
X03892Y07617*
X03893Y07618*
X03893Y07618*
X03893Y07618*
X03893Y07618*
X03893Y07618*
X03894Y07618*
X03894Y07619*
X03894Y07619*
X03894Y07619*
X03894Y07619*
X03894Y07619*
X03894Y0762*
X03895Y0762*
X03895Y07621*
X03895Y07621*
X03895Y07621*
X03895Y07621*
Y07622*
Y07622*
X03895Y07622*
X03895Y07623*
X03894Y07623*
X03894Y07624*
X03894Y07624*
X03894Y07624*
X03894Y07625*
X03894Y07625*
X03893Y07625*
X03893Y07625*
X03892Y07625*
X03892Y07626*
X03892Y07626*
X03891Y07626*
X03891Y07626*
G37*
G36*
X04751Y07603D02*
X04751D01*
X04751Y07603*
X0475Y07603*
X0475Y07602*
X04749Y07602*
X04749Y07602*
X04749Y07602*
X04749Y07602*
X04748Y07602*
Y07602*
X04748Y07601*
X04748Y07601*
X04748Y076*
X04748Y07599*
X04747Y07599*
X04747Y07599*
Y07599*
X04747Y07598*
Y07598*
Y07598*
Y07598*
X04747Y07598*
X04748Y07597*
X04748Y07596*
X04748Y07596*
X04748Y07596*
X04748Y07595*
X04748Y07595*
X04748Y07595*
X04749Y07595*
X04749Y07594*
X0475Y07594*
X0475Y07594*
X04751Y07594*
X04751Y07594*
X04751Y07594*
X04751*
X04752Y07594*
X04752Y07594*
X04753Y07594*
X04753Y07595*
X04753Y07595*
X04754Y07595*
X04754Y07595*
X04754Y07595*
X04754Y07596*
X04755Y07596*
X04755Y07597*
X04755Y07597*
X04755Y07597*
X04755Y07598*
Y07598*
X04755Y07598*
Y07598*
Y07598*
Y07598*
X04755Y07599*
X04755Y07599*
X04755Y076*
X04754Y07601*
X04754Y07601*
X04754Y07601*
X04754Y07601*
X04754Y07601*
X04754Y07601*
Y07601*
X04754Y07602*
X04753Y07602*
X04753Y07602*
X04752Y07602*
X04752Y07603*
X04752Y07603*
X04751Y07603*
X04751Y07603*
G37*
G36*
X08128Y07626D02*
X08128D01*
X08127Y07626*
X08127Y07626*
X08126Y07625*
X08126Y07625*
X08126Y07625*
X08125Y07625*
X08125Y07625*
X08125Y07625*
X08125Y07624*
X08125Y07624*
X08124Y07623*
X08124Y07623*
X08124Y07622*
X08124Y07622*
Y07622*
X08124Y07622*
Y07622*
Y07622*
Y07621*
X08124Y07621*
X08124Y0762*
X08125Y0762*
X08125Y07619*
X08125Y07619*
X08125Y07618*
X08125Y07618*
X08125Y07618*
Y07618*
X08125Y07618*
X08126Y07618*
X08126Y07618*
X08127Y07617*
X08127Y07617*
X08127Y07617*
X08128Y07617*
X08128Y07617*
X08128*
X08128Y07617*
X08129Y07617*
X08129Y07617*
X08129Y07617*
X08129Y07617*
X0813Y07618*
X0813Y07618*
X0813Y07618*
X0813Y07618*
X0813Y07618*
X08131Y07618*
X08131Y07619*
X08131Y07619*
X08131Y07619*
X08131Y07619*
X08131Y07619*
X08131Y0762*
X08132Y0762*
X08132Y07621*
X08132Y07621*
X08132Y07621*
X08132Y07621*
Y07622*
Y07622*
X08132Y07622*
X08132Y07623*
X08131Y07623*
X08131Y07624*
X08131Y07624*
X08131Y07624*
X08131Y07625*
X08131Y07625*
X0813Y07625*
X0813Y07625*
X08129Y07625*
X08129Y07626*
X08129Y07626*
X08128Y07626*
X08128Y07626*
G37*
G36*
X08988Y07603D02*
X08988D01*
X08988Y07603*
X08987Y07603*
X08987Y07602*
X08986Y07602*
X08986Y07602*
X08986Y07602*
X08986Y07602*
X08985Y07602*
Y07602*
X08985Y07601*
X08985Y07601*
X08985Y076*
X08985Y07599*
X08984Y07599*
X08984Y07599*
Y07599*
X08984Y07598*
Y07598*
Y07598*
Y07598*
X08984Y07598*
X08985Y07597*
X08985Y07596*
X08985Y07596*
X08985Y07596*
X08985Y07595*
X08985Y07595*
X08985Y07595*
X08986Y07595*
X08986Y07594*
X08987Y07594*
X08987Y07594*
X08988Y07594*
X08988Y07594*
X08988Y07594*
X08988*
X08989Y07594*
X08989Y07594*
X0899Y07594*
X0899Y07595*
X0899Y07595*
X08991Y07595*
X08991Y07595*
X08991Y07595*
X08991Y07596*
X08992Y07596*
X08992Y07597*
X08992Y07597*
X08992Y07597*
X08992Y07598*
Y07598*
X08992Y07598*
Y07598*
Y07598*
Y07598*
X08992Y07599*
X08992Y07599*
X08992Y076*
X08991Y07601*
X08991Y07601*
X08991Y07601*
X08991Y07601*
X08991Y07601*
X08991Y07601*
Y07601*
X08991Y07602*
X0899Y07602*
X0899Y07602*
X08989Y07602*
X08989Y07603*
X08989Y07603*
X08988Y07603*
X08988Y07603*
G37*
G36*
X03891Y09887D02*
X03891D01*
X0389Y09887*
X0389Y09887*
X03889Y09886*
X03889Y09886*
X03889Y09886*
X03888Y09886*
X03888Y09886*
X03888Y09886*
X03888Y09885*
X03888Y09885*
X03887Y09884*
X03887Y09884*
X03887Y09883*
X03887Y09883*
Y09883*
X03887Y09883*
Y09883*
Y09883*
Y09882*
X03887Y09882*
X03887Y09881*
X03888Y09881*
X03888Y0988*
X03888Y0988*
X03888Y09879*
X03888Y09879*
X03888Y09879*
Y09879*
X03888Y09879*
X03889Y09879*
X03889Y09879*
X0389Y09878*
X0389Y09878*
X0389Y09878*
X03891Y09878*
X03891Y09878*
X03891*
X03891Y09878*
X03892Y09878*
X03892Y09878*
X03892Y09878*
X03892Y09878*
X03893Y09879*
X03893Y09879*
X03893Y09879*
X03893Y09879*
X03893Y09879*
X03894Y09879*
X03894Y0988*
X03894Y0988*
X03894Y0988*
X03894Y0988*
X03894Y0988*
X03894Y09881*
X03895Y09881*
X03895Y09882*
X03895Y09882*
X03895Y09882*
X03895Y09882*
Y09883*
Y09883*
X03895Y09883*
X03895Y09884*
X03894Y09884*
X03894Y09885*
X03894Y09885*
X03894Y09885*
X03894Y09886*
X03894Y09886*
X03893Y09886*
X03893Y09886*
X03892Y09887*
X03892Y09887*
X03892Y09887*
X03891Y09887*
X03891Y09887*
G37*
G36*
X04751Y09864D02*
X04751D01*
X04751Y09864*
X0475Y09864*
X0475Y09863*
X04749Y09863*
X04749Y09863*
X04749Y09863*
X04749Y09863*
X04748Y09863*
Y09863*
X04748Y09862*
X04748Y09862*
X04748Y09861*
X04748Y0986*
X04747Y0986*
X04747Y0986*
Y0986*
X04747Y0986*
Y09859*
Y09859*
Y09859*
X04747Y09859*
X04748Y09858*
X04748Y09857*
X04748Y09857*
X04748Y09857*
X04748Y09856*
X04748Y09856*
X04748Y09856*
X04749Y09856*
X04749Y09855*
X0475Y09855*
X0475Y09855*
X04751Y09855*
X04751Y09855*
X04751Y09855*
X04751*
X04752Y09855*
X04752Y09855*
X04753Y09855*
X04753Y09856*
X04753Y09856*
X04754Y09856*
X04754Y09856*
X04754Y09856*
X04754Y09857*
X04755Y09857*
X04755Y09858*
X04755Y09858*
X04755Y09858*
X04755Y09859*
Y09859*
X04755Y09859*
Y09859*
Y09859*
Y09859*
X04755Y0986*
X04755Y0986*
X04755Y09861*
X04754Y09862*
X04754Y09862*
X04754Y09862*
X04754Y09862*
X04754Y09862*
X04754Y09862*
Y09862*
X04754Y09863*
X04753Y09863*
X04753Y09863*
X04752Y09863*
X04752Y09864*
X04752Y09864*
X04751Y09864*
X04751Y09864*
G37*
G36*
X08128Y09887D02*
X08128D01*
X08127Y09887*
X08127Y09887*
X08126Y09886*
X08126Y09886*
X08126Y09886*
X08125Y09886*
X08125Y09886*
X08125Y09886*
X08125Y09885*
X08125Y09885*
X08124Y09884*
X08124Y09884*
X08124Y09883*
X08124Y09883*
Y09883*
X08124Y09883*
Y09883*
Y09883*
Y09882*
X08124Y09882*
X08124Y09881*
X08125Y09881*
X08125Y0988*
X08125Y0988*
X08125Y09879*
X08125Y09879*
X08125Y09879*
Y09879*
X08125Y09879*
X08126Y09879*
X08126Y09879*
X08127Y09878*
X08127Y09878*
X08127Y09878*
X08128Y09878*
X08128Y09878*
X08128*
X08128Y09878*
X08129Y09878*
X08129Y09878*
X08129Y09878*
X08129Y09878*
X0813Y09879*
X0813Y09879*
X0813Y09879*
X0813Y09879*
X0813Y09879*
X08131Y09879*
X08131Y0988*
X08131Y0988*
X08131Y0988*
X08131Y0988*
X08131Y0988*
X08131Y09881*
X08132Y09881*
X08132Y09882*
X08132Y09882*
X08132Y09882*
X08132Y09882*
Y09883*
Y09883*
X08132Y09883*
X08132Y09884*
X08131Y09884*
X08131Y09885*
X08131Y09885*
X08131Y09885*
X08131Y09886*
X08131Y09886*
X0813Y09886*
X0813Y09886*
X08129Y09887*
X08129Y09887*
X08129Y09887*
X08128Y09887*
X08128Y09887*
G37*
G36*
X08988Y09864D02*
X08988D01*
X08988Y09864*
X08987Y09864*
X08987Y09863*
X08986Y09863*
X08986Y09863*
X08986Y09863*
X08986Y09863*
X08985Y09863*
Y09863*
X08985Y09862*
X08985Y09862*
X08985Y09861*
X08985Y0986*
X08984Y0986*
X08984Y0986*
Y0986*
X08984Y0986*
Y09859*
Y09859*
Y09859*
X08984Y09859*
X08985Y09858*
X08985Y09857*
X08985Y09857*
X08985Y09857*
X08985Y09856*
X08985Y09856*
X08985Y09856*
X08986Y09856*
X08986Y09855*
X08987Y09855*
X08987Y09855*
X08988Y09855*
X08988Y09855*
X08988Y09855*
X08988*
X08989Y09855*
X08989Y09855*
X0899Y09855*
X0899Y09856*
X0899Y09856*
X08991Y09856*
X08991Y09856*
X08991Y09856*
X08991Y09857*
X08992Y09857*
X08992Y09858*
X08992Y09858*
X08992Y09858*
X08992Y09859*
Y09859*
X08992Y09859*
Y09859*
Y09859*
Y09859*
X08992Y0986*
X08992Y0986*
X08992Y09861*
X08991Y09862*
X08991Y09862*
X08991Y09862*
X08991Y09862*
X08991Y09862*
X08991Y09862*
Y09862*
X08991Y09863*
X0899Y09863*
X0899Y09863*
X08989Y09863*
X08989Y09864*
X08989Y09864*
X08988Y09864*
X08988Y09864*
G37*
G36*
X03891Y12149D02*
X03891D01*
X0389Y12149*
X0389Y12149*
X03889Y12148*
X03889Y12148*
X03889Y12148*
X03888Y12148*
X03888Y12148*
X03888Y12148*
X03888Y12147*
X03888Y12147*
X03887Y12146*
X03887Y12146*
X03887Y12145*
X03887Y12145*
Y12145*
X03887Y12145*
Y12145*
Y12145*
Y12144*
X03887Y12144*
X03887Y12143*
X03888Y12143*
X03888Y12142*
X03888Y12142*
X03888Y12141*
X03888Y12141*
X03888Y12141*
Y12141*
X03888Y12141*
X03889Y12141*
X03889Y12141*
X0389Y1214*
X0389Y1214*
X0389Y1214*
X03891Y1214*
X03891Y1214*
X03891*
X03891Y1214*
X03892Y1214*
X03892Y1214*
X03892Y1214*
X03892Y1214*
X03893Y12141*
X03893Y12141*
X03893Y12141*
X03893Y12141*
X03893Y12141*
X03894Y12141*
X03894Y12142*
X03894Y12142*
X03894Y12142*
X03894Y12142*
X03894Y12142*
X03894Y12143*
X03895Y12143*
X03895Y12144*
X03895Y12144*
X03895Y12144*
X03895Y12144*
Y12145*
Y12145*
X03895Y12145*
X03895Y12146*
X03894Y12146*
X03894Y12147*
X03894Y12147*
X03894Y12147*
X03894Y12148*
X03894Y12148*
X03893Y12148*
X03893Y12148*
X03892Y12149*
X03892Y12149*
X03892Y12149*
X03891Y12149*
X03891Y12149*
G37*
G36*
X04751Y12126D02*
X04751D01*
X04751Y12126*
X0475Y12126*
X0475Y12125*
X04749Y12125*
X04749Y12125*
X04749Y12125*
X04749Y12125*
X04748Y12125*
Y12125*
X04748Y12124*
X04748Y12124*
X04748Y12123*
X04748Y12122*
X04747Y12122*
X04747Y12122*
Y12122*
X04747Y12122*
Y12121*
Y12121*
Y12121*
X04747Y12121*
X04748Y1212*
X04748Y12119*
X04748Y12119*
X04748Y12119*
X04748Y12118*
X04748Y12118*
X04748Y12118*
X04749Y12118*
X04749Y12117*
X0475Y12117*
X0475Y12117*
X04751Y12117*
X04751Y12117*
X04751Y12117*
X04751*
X04752Y12117*
X04752Y12117*
X04753Y12117*
X04753Y12118*
X04753Y12118*
X04754Y12118*
X04754Y12118*
X04754Y12118*
X04754Y12119*
X04755Y12119*
X04755Y1212*
X04755Y1212*
X04755Y1212*
X04755Y12121*
Y12121*
X04755Y12121*
Y12121*
Y12121*
Y12121*
X04755Y12122*
X04755Y12122*
X04755Y12123*
X04754Y12124*
X04754Y12124*
X04754Y12124*
X04754Y12124*
X04754Y12124*
X04754Y12124*
Y12124*
X04754Y12125*
X04753Y12125*
X04753Y12125*
X04752Y12125*
X04752Y12126*
X04752Y12126*
X04751Y12126*
X04751Y12126*
G37*
G36*
X08128Y12149D02*
X08128D01*
X08127Y12149*
X08127Y12149*
X08126Y12148*
X08126Y12148*
X08126Y12148*
X08125Y12148*
X08125Y12148*
X08125Y12148*
X08125Y12147*
X08125Y12147*
X08124Y12146*
X08124Y12146*
X08124Y12145*
X08124Y12145*
Y12145*
X08124Y12145*
Y12145*
Y12145*
Y12144*
X08124Y12144*
X08124Y12143*
X08125Y12143*
X08125Y12142*
X08125Y12142*
X08125Y12141*
X08125Y12141*
X08125Y12141*
Y12141*
X08125Y12141*
X08126Y12141*
X08126Y12141*
X08127Y1214*
X08127Y1214*
X08127Y1214*
X08128Y1214*
X08128Y1214*
X08128*
X08128Y1214*
X08129Y1214*
X08129Y1214*
X08129Y1214*
X08129Y1214*
X0813Y12141*
X0813Y12141*
X0813Y12141*
X0813Y12141*
X0813Y12141*
X08131Y12141*
X08131Y12142*
X08131Y12142*
X08131Y12142*
X08131Y12142*
X08131Y12142*
X08131Y12143*
X08132Y12143*
X08132Y12144*
X08132Y12144*
X08132Y12144*
X08132Y12144*
Y12145*
Y12145*
X08132Y12145*
X08132Y12146*
X08131Y12146*
X08131Y12147*
X08131Y12147*
X08131Y12147*
X08131Y12148*
X08131Y12148*
X0813Y12148*
X0813Y12148*
X08129Y12149*
X08129Y12149*
X08129Y12149*
X08128Y12149*
X08128Y12149*
G37*
G36*
X08988Y12126D02*
X08988D01*
X08988Y12126*
X08987Y12126*
X08987Y12125*
X08986Y12125*
X08986Y12125*
X08986Y12125*
X08986Y12125*
X08985Y12125*
Y12125*
X08985Y12124*
X08985Y12124*
X08985Y12123*
X08985Y12122*
X08984Y12122*
X08984Y12122*
Y12122*
X08984Y12122*
Y12121*
Y12121*
Y12121*
X08984Y12121*
X08985Y1212*
X08985Y12119*
X08985Y12119*
X08985Y12119*
X08985Y12118*
X08985Y12118*
X08985Y12118*
X08986Y12118*
X08986Y12117*
X08987Y12117*
X08987Y12117*
X08988Y12117*
X08988Y12117*
X08988Y12117*
X08988*
X08989Y12117*
X08989Y12117*
X0899Y12117*
X0899Y12118*
X0899Y12118*
X08991Y12118*
X08991Y12118*
X08991Y12118*
X08991Y12119*
X08992Y12119*
X08992Y1212*
X08992Y1212*
X08992Y1212*
X08992Y12121*
Y12121*
X08992Y12121*
Y12121*
Y12121*
Y12121*
X08992Y12122*
X08992Y12122*
X08992Y12123*
X08991Y12124*
X08991Y12124*
X08991Y12124*
X08991Y12124*
X08991Y12124*
X08991Y12124*
Y12124*
X08991Y12125*
X0899Y12125*
X0899Y12125*
X08989Y12125*
X08989Y12126*
X08989Y12126*
X08988Y12126*
X08988Y12126*
G37*
%LNcontrolboardv1-3*%
%LPD*%
G54D11*
X03873Y0312D02*
X0396D01*
X03873Y03077D02*
Y0312D01*
Y03077D02*
X0396D01*
Y0312*
X04733Y0309D02*
X0482D01*
X04733Y03047D02*
Y0309D01*
Y03047D02*
X0482D01*
Y0309*
X03496Y03048D02*
X04516D01*
X03496Y02928D02*
Y03048D01*
X04516Y02928D02*
Y03048D01*
X03496Y02928D02*
X04516D01*
X0811Y0312D02*
X08197D01*
X0811Y03077D02*
Y0312D01*
Y03077D02*
X08197D01*
Y0312*
X0897Y0309D02*
X09057D01*
X0897Y03047D02*
Y0309D01*
Y03047D02*
X09057D01*
Y0309*
X07734Y03048D02*
X08754D01*
X07734Y02928D02*
Y03048D01*
X08754Y02928D02*
Y03048D01*
X07734Y02928D02*
X08754D01*
X03873Y05382D02*
X0396D01*
X03873Y05339D02*
Y05382D01*
Y05339D02*
X0396D01*
Y05382*
X04733Y05352D02*
X0482D01*
X04733Y05309D02*
Y05352D01*
Y05309D02*
X0482D01*
Y05352*
X03496Y0531D02*
X04516D01*
X03496Y0519D02*
Y0531D01*
X04516Y0519D02*
Y0531D01*
X03496Y0519D02*
X04516D01*
X0811Y05382D02*
X08197D01*
X0811Y05339D02*
Y05382D01*
Y05339D02*
X08197D01*
Y05382*
X0897Y05352D02*
X09057D01*
X0897Y05309D02*
Y05352D01*
Y05309D02*
X09057D01*
Y05352*
X07734Y0531D02*
X08754D01*
X07734Y0519D02*
Y0531D01*
X08754Y0519D02*
Y0531D01*
X07734Y0519D02*
X08754D01*
X03873Y07644D02*
X0396D01*
X03873Y07601D02*
Y07644D01*
Y07601D02*
X0396D01*
Y07644*
X04733Y07614D02*
X0482D01*
X04733Y07571D02*
Y07614D01*
Y07571D02*
X0482D01*
Y07614*
X03496Y07572D02*
X04516D01*
X03496Y07452D02*
Y07572D01*
X04516Y07452D02*
Y07572D01*
X03496Y07452D02*
X04516D01*
X0811Y07644D02*
X08197D01*
X0811Y07601D02*
Y07644D01*
Y07601D02*
X08197D01*
Y07644*
X0897Y07614D02*
X09057D01*
X0897Y07571D02*
Y07614D01*
Y07571D02*
X09057D01*
Y07614*
X07734Y07572D02*
X08754D01*
X07734Y07452D02*
Y07572D01*
X08754Y07452D02*
Y07572D01*
X07734Y07452D02*
X08754D01*
X03873Y09905D02*
X0396D01*
X03873Y09862D02*
Y09905D01*
Y09862D02*
X0396D01*
Y09905*
X04733Y09875D02*
X0482D01*
X04733Y09832D02*
Y09875D01*
Y09832D02*
X0482D01*
Y09875*
X03496Y09834D02*
X04516D01*
X03496Y09714D02*
Y09834D01*
X04516Y09714D02*
Y09834D01*
X03496Y09714D02*
X04516D01*
X0811Y09905D02*
X08197D01*
X0811Y09862D02*
Y09905D01*
Y09862D02*
X08197D01*
Y09905*
X0897Y09875D02*
X09057D01*
X0897Y09832D02*
Y09875D01*
Y09832D02*
X09057D01*
Y09875*
X07734Y09834D02*
X08754D01*
X07734Y09714D02*
Y09834D01*
X08754Y09714D02*
Y09834D01*
X07734Y09714D02*
X08754D01*
X03873Y12167D02*
X0396D01*
X03873Y12124D02*
Y12167D01*
Y12124D02*
X0396D01*
Y12167*
X04733Y12137D02*
X0482D01*
X04733Y12094D02*
Y12137D01*
Y12094D02*
X0482D01*
Y12137*
X03496Y12096D02*
X04516D01*
X03496Y11976D02*
Y12096D01*
X04516Y11976D02*
Y12096D01*
X03496Y11976D02*
X04516D01*
X0811Y12167D02*
X08197D01*
X0811Y12124D02*
Y12167D01*
Y12124D02*
X08197D01*
Y12167*
X0897Y12137D02*
X09057D01*
X0897Y12094D02*
Y12137D01*
Y12094D02*
X09057D01*
Y12137*
X07734Y12096D02*
X08754D01*
X07734Y11976D02*
Y12096D01*
X08754Y11976D02*
Y12096D01*
X07734Y11976D02*
X08754D01*
M02*