G04*
G04 #@! TF.GenerationSoftware,Altium Limited,Altium Designer,22.0.2 (36)*
G04*
G04 Layer_Physical_Order=2*
G04 Layer_Color=16711680*
%FSLAX25Y25*%
%MOIN*%
G70*
G04*
G04 #@! TF.SameCoordinates,A5FD766F-ED0D-4258-BB47-254A20FAC7F6*
G04*
G04*
G04 #@! TF.FilePolarity,Positive*
G04*
G01*
G75*
%ADD18C,0.05906*%
%ADD34R,0.02559X0.02756*%
%ADD66O,0.04000X0.05748*%
%ADD69C,0.02500*%
%ADD71C,0.02000*%
%ADD72C,0.05000*%
%ADD73C,0.03000*%
%ADD74R,0.07000X0.07000*%
%ADD75C,0.07000*%
%ADD76C,0.08000*%
%ADD77R,0.08000X0.08000*%
%ADD78C,0.06000*%
%ADD79R,0.06000X0.06000*%
%ADD80C,0.06500*%
%ADD81R,0.06500X0.06500*%
%ADD82O,0.04724X0.09449*%
%ADD83C,0.13543*%
%ADD84C,0.05000*%
G04:AMPARAMS|DCode=85|XSize=125.98mil|YSize=68.9mil|CornerRadius=2.07mil|HoleSize=0mil|Usage=FLASHONLY|Rotation=270.000|XOffset=0mil|YOffset=0mil|HoleType=Round|Shape=RoundedRectangle|*
%AMROUNDEDRECTD85*
21,1,0.12598,0.06476,0,0,270.0*
21,1,0.12185,0.06890,0,0,270.0*
1,1,0.00413,-0.03238,-0.06093*
1,1,0.00413,-0.03238,0.06093*
1,1,0.00413,0.03238,0.06093*
1,1,0.00413,0.03238,-0.06093*
%
%ADD85ROUNDEDRECTD85*%
G04:AMPARAMS|DCode=86|XSize=35.43mil|YSize=68.9mil|CornerRadius=1.95mil|HoleSize=0mil|Usage=FLASHONLY|Rotation=270.000|XOffset=0mil|YOffset=0mil|HoleType=Round|Shape=RoundedRectangle|*
%AMROUNDEDRECTD86*
21,1,0.03543,0.06500,0,0,270.0*
21,1,0.03154,0.06890,0,0,270.0*
1,1,0.00390,-0.03250,-0.01577*
1,1,0.00390,-0.03250,0.01577*
1,1,0.00390,0.03250,0.01577*
1,1,0.00390,0.03250,-0.01577*
%
%ADD86ROUNDEDRECTD86*%
%ADD87R,0.03740X0.03347*%
%ADD88O,0.04134X0.08268*%
G36*
X385804Y191925D02*
X387714Y191257D01*
X389427Y190180D01*
X390857Y188750D01*
X391934Y187037D01*
X392602Y185127D01*
X392833Y183072D01*
X392833Y114336D01*
X390948Y112090D01*
X390923Y112045D01*
X390887Y112008D01*
X389143Y109296D01*
X389124Y109248D01*
X389094Y109207D01*
X387707Y106296D01*
X387694Y106246D01*
X387669Y106201D01*
X386663Y103138D01*
X386656Y103087D01*
X386637Y103039D01*
X386026Y99873D01*
X386027Y99821D01*
X386013Y99772D01*
X385809Y96553D01*
X385816Y96503D01*
X385809Y96452D01*
X386013Y93234D01*
X386027Y93184D01*
X386026Y93132D01*
X386637Y89966D01*
X386656Y89919D01*
X386663Y89868D01*
X387669Y86804D01*
X387694Y86759D01*
X387707Y86709D01*
X389094Y83798D01*
X389124Y83757D01*
X389143Y83709D01*
X390887Y80997D01*
X390923Y80960D01*
X390948Y80915D01*
X392833Y78669D01*
X392833Y9933D01*
X392602Y7878D01*
X391934Y5968D01*
X390857Y4255D01*
X389427Y2825D01*
X387714Y1749D01*
X385804Y1080D01*
X383749Y849D01*
X9823Y848D01*
X7768Y1080D01*
X5858Y1748D01*
X4145Y2825D01*
X2715Y4255D01*
X1638Y5968D01*
X970Y7878D01*
X738Y9933D01*
X738Y78669D01*
X2624Y80914D01*
X2649Y80959D01*
X2684Y80997D01*
X4429Y83709D01*
X4447Y83757D01*
X4478Y83798D01*
X5865Y86709D01*
X5878Y86759D01*
X5903Y86804D01*
X6909Y89867D01*
X6916Y89918D01*
X6935Y89966D01*
X7546Y93132D01*
X7545Y93184D01*
X7559Y93233D01*
X7763Y96451D01*
X7756Y96502D01*
X7763Y96553D01*
X7559Y99771D01*
X7545Y99821D01*
X7546Y99873D01*
X6935Y103039D01*
X6916Y103087D01*
X6909Y103138D01*
X5903Y106201D01*
X5877Y106246D01*
X5865Y106296D01*
X4478Y109207D01*
X4447Y109248D01*
X4429Y109296D01*
X2684Y112008D01*
X2649Y112045D01*
X2624Y112090D01*
X738Y114336D01*
X738Y183071D01*
X970Y185127D01*
X1638Y187037D01*
X2714Y188750D01*
X4145Y190180D01*
X5858Y191256D01*
X7768Y191925D01*
X9823Y192156D01*
X162000Y192156D01*
Y165329D01*
X117379D01*
X103354Y179354D01*
X102664Y179883D01*
X102332Y180020D01*
X101862Y180215D01*
X101000Y180329D01*
X73858D01*
X72997Y180215D01*
X72194Y179883D01*
X71504Y179354D01*
X69507Y177356D01*
X53725D01*
X53640Y177441D01*
X52660Y178007D01*
X51566Y178300D01*
X50434D01*
X49340Y178007D01*
X48360Y177441D01*
X47559Y176640D01*
X46993Y175660D01*
X46700Y174566D01*
Y173434D01*
X46993Y172340D01*
X47559Y171360D01*
X48360Y170559D01*
X49340Y169993D01*
X50434Y169700D01*
X51566D01*
X52660Y169993D01*
X53640Y170559D01*
X53780Y170699D01*
X70669D01*
X70879Y170727D01*
X71566D01*
X74253Y168040D01*
X74006Y167579D01*
X73947Y167591D01*
X72741D01*
X72361Y167883D01*
X71558Y168215D01*
X70697Y168328D01*
X65000D01*
X64139Y168215D01*
X63336Y167883D01*
X62646Y167354D01*
X46646Y151354D01*
X46514Y151181D01*
X46359Y151026D01*
X46250Y150837D01*
X46117Y150664D01*
X46034Y150463D01*
X45925Y150274D01*
X45868Y150063D01*
X45785Y149862D01*
X45757Y149645D01*
X45700Y149434D01*
Y149216D01*
X45671Y149000D01*
X45700Y148784D01*
Y148656D01*
X41522Y144478D01*
X41069Y143800D01*
X40910Y143000D01*
X40910Y143000D01*
Y107866D01*
X30134Y97090D01*
X20758D01*
X20441Y97640D01*
X19640Y98441D01*
X19090Y98759D01*
Y101242D01*
X19640Y101559D01*
X20441Y102360D01*
X21007Y103340D01*
X21300Y104434D01*
Y105566D01*
X21007Y106660D01*
X20441Y107640D01*
X19640Y108441D01*
X18660Y109007D01*
X17566Y109300D01*
X16434D01*
X15340Y109007D01*
X14360Y108441D01*
X13559Y107640D01*
X12993Y106660D01*
X12700Y105566D01*
Y104434D01*
X12993Y103340D01*
X13559Y102360D01*
X14360Y101559D01*
X14910Y101242D01*
Y98759D01*
X14360Y98441D01*
X13559Y97640D01*
X12993Y96660D01*
X12700Y95566D01*
Y94434D01*
X12993Y93340D01*
X13559Y92360D01*
X14360Y91559D01*
X14910Y91242D01*
Y88758D01*
X14360Y88441D01*
X13559Y87640D01*
X12993Y86660D01*
X12700Y85566D01*
Y84434D01*
X12993Y83340D01*
X13559Y82360D01*
X14360Y81559D01*
X15340Y80993D01*
X16434Y80700D01*
X17566D01*
X18660Y80993D01*
X19640Y81559D01*
X20441Y82360D01*
X21007Y83340D01*
X21300Y84434D01*
Y85566D01*
X21007Y86660D01*
X20441Y87640D01*
X19640Y88441D01*
X19090Y88758D01*
Y91242D01*
X19640Y91559D01*
X20441Y92360D01*
X20758Y92910D01*
X31000D01*
X31000Y92910D01*
X31800Y93069D01*
X32478Y93522D01*
X44478Y105522D01*
X44478Y105522D01*
X44931Y106200D01*
X45090Y107000D01*
Y142134D01*
X48656Y145700D01*
X48784D01*
X49000Y145671D01*
X49216Y145700D01*
X49434D01*
X49645Y145756D01*
X49861Y145785D01*
X50063Y145868D01*
X50274Y145925D01*
X50463Y146034D01*
X50664Y146117D01*
X50837Y146250D01*
X51026Y146359D01*
X51180Y146514D01*
X51354Y146646D01*
X57480Y152773D01*
X57837Y152427D01*
X57317Y151526D01*
X57176Y151000D01*
X60000D01*
Y153824D01*
X59474Y153683D01*
X58573Y153163D01*
X58227Y153520D01*
X66379Y161671D01*
X70697D01*
X71558Y161785D01*
X72361Y162118D01*
X72741Y162409D01*
X73947D01*
X74335Y162486D01*
X74664Y162706D01*
X74884Y163035D01*
X74961Y163423D01*
Y166577D01*
X74949Y166636D01*
X75410Y166883D01*
X80672Y161621D01*
Y141740D01*
X80503Y141448D01*
X80247Y140494D01*
Y139506D01*
X80503Y138551D01*
X80672Y138260D01*
Y134379D01*
X65646Y119354D01*
X65391Y119020D01*
X65340Y119007D01*
X64360Y118441D01*
X63559Y117640D01*
X62993Y116660D01*
X62700Y115566D01*
Y114434D01*
X62993Y113340D01*
X63559Y112360D01*
X64360Y111559D01*
X65340Y110993D01*
X66434Y110700D01*
X67566D01*
X68660Y110993D01*
X69640Y111559D01*
X70441Y112360D01*
X71007Y113340D01*
X71300Y114434D01*
Y115566D01*
X71294Y115587D01*
X86354Y130646D01*
X86486Y130819D01*
X86641Y130974D01*
X86750Y131163D01*
X86883Y131336D01*
X86966Y131537D01*
X87075Y131726D01*
X87132Y131937D01*
X87215Y132139D01*
X87244Y132355D01*
X87300Y132566D01*
Y132784D01*
X87328Y133000D01*
Y138260D01*
X87497Y138551D01*
X87753Y139506D01*
Y140494D01*
X87497Y141448D01*
X87328Y141740D01*
Y163000D01*
X87215Y163862D01*
X86883Y164664D01*
X86354Y165354D01*
X78498Y173210D01*
X78689Y173671D01*
X99621D01*
X104530Y168763D01*
X104296Y168289D01*
X104000Y168328D01*
X99568D01*
Y171092D01*
X99490Y171485D01*
X99267Y171818D01*
X98934Y172041D01*
X98541Y172119D01*
X92065D01*
X91672Y172041D01*
X91339Y171818D01*
X91117Y171485D01*
X91039Y171092D01*
Y158907D01*
X91117Y158515D01*
X91339Y158182D01*
X91672Y157959D01*
X92065Y157881D01*
X96181D01*
X96248Y157872D01*
X97692D01*
X98672Y156893D01*
Y137740D01*
X98503Y137449D01*
X98247Y136494D01*
Y135506D01*
X98503Y134552D01*
X98672Y134260D01*
Y63000D01*
X98715Y62671D01*
X93134Y57090D01*
X70758D01*
X70441Y57640D01*
X69640Y58441D01*
X68660Y59007D01*
X67566Y59300D01*
X67098D01*
X66891Y59800D01*
X67873Y60782D01*
X68660Y60993D01*
X69640Y61559D01*
X70441Y62360D01*
X71007Y63340D01*
X71300Y64434D01*
Y65566D01*
X71007Y66660D01*
X70441Y67640D01*
X69640Y68441D01*
X68660Y69007D01*
X67566Y69300D01*
X66714D01*
X66507Y69800D01*
X67407Y70700D01*
X67566D01*
X68660Y70993D01*
X69640Y71559D01*
X70441Y72360D01*
X71007Y73340D01*
X71300Y74434D01*
Y75566D01*
X71007Y76660D01*
X70441Y77640D01*
X69640Y78441D01*
X68660Y79007D01*
X67566Y79300D01*
X66714D01*
X66507Y79800D01*
X67407Y80700D01*
X67566D01*
X68660Y80993D01*
X69640Y81559D01*
X70441Y82360D01*
X71007Y83340D01*
X71300Y84434D01*
Y85566D01*
X71007Y86660D01*
X70441Y87640D01*
X69640Y88441D01*
X68660Y89007D01*
X67566Y89300D01*
X66795D01*
X66588Y89800D01*
X67488Y90700D01*
X67566D01*
X68660Y90993D01*
X69640Y91559D01*
X70441Y92360D01*
X71007Y93340D01*
X71300Y94434D01*
Y95566D01*
X71007Y96660D01*
X70441Y97640D01*
X69640Y98441D01*
X68660Y99007D01*
X67566Y99300D01*
X66434D01*
X65340Y99007D01*
X64360Y98441D01*
X63559Y97640D01*
X62993Y96660D01*
X62700Y95566D01*
Y95326D01*
X53317Y85944D01*
X53280Y85948D01*
X52835Y86168D01*
Y88249D01*
X53026Y88359D01*
X53641Y88974D01*
X54075Y89726D01*
X54300Y90566D01*
Y91435D01*
X54075Y92274D01*
X53641Y93026D01*
X53026Y93641D01*
X52274Y94075D01*
X51434Y94300D01*
X50566D01*
X49726Y94075D01*
X48974Y93641D01*
X48359Y93026D01*
X47925Y92274D01*
X47759Y91654D01*
X47241D01*
X47075Y92274D01*
X46641Y93026D01*
X46026Y93641D01*
X45274Y94075D01*
X44434Y94300D01*
X43566D01*
X42726Y94075D01*
X41974Y93641D01*
X41359Y93026D01*
X40925Y92274D01*
X40700Y91435D01*
Y90566D01*
X40925Y89726D01*
X41359Y88974D01*
X41974Y88359D01*
X42165Y88249D01*
Y84760D01*
X21773Y64368D01*
X21300Y64603D01*
Y65566D01*
X21007Y66660D01*
X20441Y67640D01*
X19640Y68441D01*
X19090Y68758D01*
Y71241D01*
X19640Y71559D01*
X20441Y72360D01*
X21007Y73340D01*
X21300Y74434D01*
Y75566D01*
X21007Y76660D01*
X20441Y77640D01*
X19640Y78441D01*
X18660Y79007D01*
X17566Y79300D01*
X16434D01*
X15340Y79007D01*
X14360Y78441D01*
X13559Y77640D01*
X12993Y76660D01*
X12700Y75566D01*
Y74434D01*
X12993Y73340D01*
X13559Y72360D01*
X14360Y71559D01*
X14910Y71241D01*
Y68758D01*
X14360Y68441D01*
X13559Y67640D01*
X12993Y66660D01*
X12700Y65566D01*
Y64434D01*
X12993Y63340D01*
X13559Y62360D01*
X14360Y61559D01*
X15340Y60993D01*
X16434Y60700D01*
X17398D01*
X17632Y60227D01*
X17299Y59894D01*
X16902Y59300D01*
X16434D01*
X15340Y59007D01*
X14360Y58441D01*
X13559Y57640D01*
X12993Y56660D01*
X12700Y55566D01*
Y54434D01*
X12993Y53340D01*
X13559Y52360D01*
X14360Y51559D01*
X15340Y50993D01*
X16434Y50700D01*
X17566D01*
X18660Y50993D01*
X19640Y51559D01*
X20441Y52360D01*
X20665Y52747D01*
X21165Y52614D01*
Y51760D01*
X18464Y49059D01*
X17566Y49300D01*
X16434D01*
X15340Y49007D01*
X14360Y48441D01*
X13559Y47640D01*
X12993Y46660D01*
X12700Y45566D01*
Y44434D01*
X12993Y43340D01*
X13559Y42360D01*
X14360Y41559D01*
X15340Y40993D01*
X16434Y40700D01*
X17566D01*
X18660Y40993D01*
X19640Y41559D01*
X20441Y42360D01*
X21007Y43340D01*
X21300Y44434D01*
Y45566D01*
X21059Y46464D01*
X24298Y49702D01*
X24423Y49891D01*
X24924Y49739D01*
Y33050D01*
X24202D01*
Y24950D01*
X32302D01*
Y26523D01*
X32802Y26657D01*
X32885Y26513D01*
X33639Y25759D01*
X34563Y25226D01*
X35593Y24950D01*
X36659D01*
X37689Y25226D01*
X38613Y25759D01*
X39367Y26513D01*
X39786Y27239D01*
X40340D01*
X40759Y26513D01*
X41513Y25759D01*
X42437Y25226D01*
X43467Y24950D01*
X44533D01*
X45563Y25226D01*
X46487Y25759D01*
X47241Y26513D01*
X47660Y27239D01*
X48214D01*
X48633Y26513D01*
X49387Y25759D01*
X50311Y25226D01*
X51341Y24950D01*
X52407D01*
X53437Y25226D01*
X54361Y25759D01*
X55115Y26513D01*
X55648Y27437D01*
X55924Y28467D01*
Y29533D01*
X55648Y30563D01*
X55203Y31335D01*
Y48112D01*
X62200Y55109D01*
X62700Y54902D01*
Y54434D01*
X62993Y53340D01*
X63559Y52360D01*
X64360Y51559D01*
X65340Y50993D01*
X66434Y50700D01*
X67566D01*
X68660Y50993D01*
X69640Y51559D01*
X70441Y52360D01*
X70758Y52910D01*
X94000D01*
X94000Y52910D01*
X94800Y53069D01*
X95478Y53522D01*
X99448Y57492D01*
X99910Y57301D01*
Y53866D01*
X71344Y25300D01*
X70565D01*
X69726Y25075D01*
X68974Y24641D01*
X68359Y24026D01*
X67925Y23274D01*
X67700Y22434D01*
Y21565D01*
X67925Y20726D01*
X68359Y19974D01*
X68974Y19359D01*
X69726Y18925D01*
X70565Y18700D01*
X71434D01*
X72274Y18925D01*
X73026Y19359D01*
X73641Y19974D01*
X74075Y20726D01*
X74300Y21565D01*
Y22344D01*
X103478Y51522D01*
X103931Y52200D01*
X104090Y53000D01*
Y55991D01*
X104552Y56182D01*
X108088Y52646D01*
X108777Y52117D01*
X109580Y51785D01*
X110441Y51671D01*
X192910D01*
Y36913D01*
X190762Y34765D01*
X190632Y34800D01*
X189368D01*
X188147Y34473D01*
X187053Y33841D01*
X186159Y32947D01*
X185527Y31853D01*
X185362Y31238D01*
X184845D01*
X184659Y31930D01*
X184001Y33070D01*
X183070Y34001D01*
X181930Y34659D01*
X181000Y34908D01*
Y30000D01*
Y24835D01*
X181252Y24642D01*
Y23378D01*
X181063D01*
Y22000D01*
X183343D01*
X185622D01*
Y23378D01*
X185433D01*
Y25995D01*
X185433Y25995D01*
X185274Y26795D01*
X184821Y27473D01*
X184500Y27794D01*
X184659Y28070D01*
X184845Y28762D01*
X185362D01*
X185527Y28147D01*
X186159Y27053D01*
X186567Y26645D01*
Y21000D01*
X186578Y20947D01*
Y18822D01*
X190737D01*
Y20947D01*
X190748Y21000D01*
Y25231D01*
X191853Y25527D01*
X192947Y26159D01*
X193841Y27053D01*
X194473Y28147D01*
X194741Y29149D01*
X195259D01*
X195527Y28147D01*
X196159Y27053D01*
X197053Y26159D01*
X198147Y25527D01*
X199368Y25200D01*
X200632D01*
X201853Y25527D01*
X202947Y26159D01*
X203841Y27053D01*
X204473Y28147D01*
X204700Y28995D01*
X205200Y28929D01*
Y25200D01*
X214800D01*
Y34800D01*
X212090D01*
Y45458D01*
X212332Y45700D01*
X212435D01*
X213274Y45925D01*
X214026Y46359D01*
X214641Y46974D01*
X215075Y47726D01*
X215300Y48566D01*
Y49434D01*
X215075Y50274D01*
X214641Y51026D01*
X214495Y51171D01*
X214703Y51671D01*
X281621D01*
X313703Y19590D01*
X313496Y19090D01*
X289101D01*
X289101Y19090D01*
X288301Y18931D01*
X287623Y18478D01*
X287623Y18478D01*
X282879Y13734D01*
X282632Y13800D01*
X281715D01*
X276737Y18778D01*
Y20178D01*
X272578D01*
Y18053D01*
X272567Y18000D01*
Y17902D01*
X272567Y17902D01*
X272578Y17848D01*
Y15822D01*
X273781D01*
X277975Y11628D01*
X277527Y10853D01*
X277362Y10238D01*
X276845D01*
X276659Y10930D01*
X276001Y12070D01*
X275070Y13001D01*
X273930Y13659D01*
X272658Y14000D01*
X271715D01*
X271433Y14282D01*
Y15622D01*
X271622D01*
Y17000D01*
X269343D01*
X267063D01*
Y15622D01*
X267252D01*
Y13416D01*
X267252Y13416D01*
X267411Y12616D01*
X267865Y11938D01*
X267902Y11901D01*
X267341Y10930D01*
X267092Y10000D01*
X272000D01*
Y9000D01*
X273000D01*
Y4092D01*
X273930Y4341D01*
X275070Y4999D01*
X276001Y5930D01*
X276659Y7070D01*
X276845Y7762D01*
X277362D01*
X277527Y7147D01*
X278159Y6053D01*
X279053Y5159D01*
X280147Y4527D01*
X281368Y4200D01*
X282632D01*
X283853Y4527D01*
X284947Y5159D01*
X285841Y6053D01*
X286473Y7147D01*
X286700Y7995D01*
X287200Y7929D01*
Y4200D01*
X296800D01*
Y6910D01*
X303423D01*
X303974Y6359D01*
X304726Y5925D01*
X305566Y5700D01*
X306434D01*
X307274Y5925D01*
X308026Y6359D01*
X308641Y6974D01*
X309075Y7726D01*
X309300Y8566D01*
Y9434D01*
X309075Y10274D01*
X308641Y11026D01*
X308026Y11641D01*
X307274Y12075D01*
X306434Y12300D01*
X305566D01*
X304726Y12075D01*
X303974Y11641D01*
X303423Y11090D01*
X296800D01*
Y13800D01*
X289510D01*
X289319Y14262D01*
X289967Y14910D01*
X315000D01*
X315000Y14910D01*
X315800Y15069D01*
X316478Y15522D01*
X317656Y16700D01*
X317784D01*
X318000Y16671D01*
X318216Y16700D01*
X318435D01*
X318645Y16757D01*
X318862Y16785D01*
X319063Y16868D01*
X319274Y16925D01*
X319463Y17034D01*
X319664Y17118D01*
X319837Y17250D01*
X320026Y17359D01*
X320181Y17514D01*
X320354Y17646D01*
X320486Y17819D01*
X320577Y17910D01*
X337565D01*
X337565Y17910D01*
X338365Y18069D01*
X338950Y18460D01*
X374550D01*
X374550Y18460D01*
X375350Y18619D01*
X376028Y19072D01*
X387478Y30522D01*
X387478Y30522D01*
X387931Y31200D01*
X388090Y32000D01*
X388090Y32000D01*
Y46000D01*
X387931Y46800D01*
X387478Y47478D01*
X387478Y47478D01*
X381136Y53820D01*
X381300Y54434D01*
Y55566D01*
X381007Y56660D01*
X380441Y57640D01*
X379640Y58441D01*
X378660Y59007D01*
X377566Y59300D01*
X376714D01*
X376507Y59800D01*
X377407Y60700D01*
X377566D01*
X378660Y60993D01*
X379640Y61559D01*
X380441Y62360D01*
X381007Y63340D01*
X381300Y64434D01*
Y65566D01*
X381007Y66660D01*
X380441Y67640D01*
X379640Y68441D01*
X378660Y69007D01*
X377566Y69300D01*
X376714D01*
X376507Y69800D01*
X377407Y70700D01*
X377566D01*
X378660Y70993D01*
X379640Y71559D01*
X380441Y72360D01*
X381007Y73340D01*
X381300Y74434D01*
Y75566D01*
X381007Y76660D01*
X380441Y77640D01*
X379640Y78441D01*
X378660Y79007D01*
X377566Y79300D01*
X376714D01*
X376507Y79800D01*
X377407Y80700D01*
X377566D01*
X378660Y80993D01*
X379640Y81559D01*
X380441Y82360D01*
X381007Y83340D01*
X381300Y84434D01*
Y85566D01*
X381007Y86660D01*
X380441Y87640D01*
X379640Y88441D01*
X378660Y89007D01*
X377566Y89300D01*
X376714D01*
X376507Y89800D01*
X377407Y90700D01*
X377566D01*
X378660Y90993D01*
X379640Y91559D01*
X380441Y92360D01*
X381007Y93340D01*
X381300Y94434D01*
Y95566D01*
X381007Y96660D01*
X380441Y97640D01*
X379640Y98441D01*
X378660Y99007D01*
X377566Y99300D01*
X376434D01*
X375340Y99007D01*
X374360Y98441D01*
X373559Y97640D01*
X372993Y96660D01*
X372700Y95566D01*
Y95407D01*
X340772Y63480D01*
X340243Y62790D01*
X340106Y62458D01*
X339911Y61988D01*
X339797Y61126D01*
Y33050D01*
X339076D01*
Y24950D01*
X347176D01*
Y26523D01*
X347676Y26657D01*
X347759Y26513D01*
X348513Y25759D01*
X349437Y25226D01*
X350467Y24950D01*
X351533D01*
X352563Y25226D01*
X353487Y25759D01*
X354241Y26513D01*
X354660Y27239D01*
X355214D01*
X355633Y26513D01*
X356387Y25759D01*
X357311Y25226D01*
X358341Y24950D01*
X359407D01*
X360437Y25226D01*
X361361Y25759D01*
X362115Y26513D01*
X362534Y27239D01*
X363088D01*
X363507Y26513D01*
X364261Y25759D01*
X365185Y25226D01*
X366215Y24950D01*
X367281D01*
X368311Y25226D01*
X369235Y25759D01*
X369989Y26513D01*
X370522Y27437D01*
X370798Y28467D01*
Y29533D01*
X370522Y30563D01*
X370076Y31335D01*
Y53369D01*
X372200Y55493D01*
X372700Y55286D01*
Y54434D01*
X372993Y53340D01*
X373559Y52360D01*
X374360Y51559D01*
X375340Y50993D01*
X376434Y50700D01*
X377566D01*
X378180Y50864D01*
X380006Y49038D01*
X379699Y48638D01*
X378737Y49193D01*
X378000Y49391D01*
Y46000D01*
X381391D01*
X381193Y46737D01*
X380638Y47699D01*
X381038Y48006D01*
X383910Y45134D01*
Y32866D01*
X373684Y22640D01*
X338115D01*
X338115Y22640D01*
X337590Y22536D01*
X337090Y22886D01*
Y87000D01*
X337090Y87000D01*
X336931Y87800D01*
X336478Y88478D01*
X331136Y93820D01*
X331300Y94434D01*
Y95566D01*
X331007Y96660D01*
X330441Y97640D01*
X329640Y98441D01*
X329090Y98759D01*
Y101242D01*
X329640Y101559D01*
X330441Y102360D01*
X331007Y103340D01*
X331300Y104434D01*
Y105566D01*
X331007Y106660D01*
X330441Y107640D01*
X329640Y108441D01*
X328660Y109007D01*
X327566Y109300D01*
X326434D01*
X325340Y109007D01*
X324360Y108441D01*
X323559Y107640D01*
X322993Y106660D01*
X322700Y105566D01*
Y104434D01*
X322993Y103340D01*
X323559Y102360D01*
X324360Y101559D01*
X324910Y101242D01*
Y98759D01*
X324360Y98441D01*
X323559Y97640D01*
X322993Y96660D01*
X322700Y95566D01*
Y94434D01*
X322993Y93340D01*
X323559Y92360D01*
X324360Y91559D01*
X324910Y91242D01*
Y88758D01*
X324360Y88441D01*
X323559Y87640D01*
X322993Y86660D01*
X322700Y85566D01*
Y84434D01*
X322993Y83340D01*
X323559Y82360D01*
X324360Y81559D01*
X325340Y80993D01*
X326434Y80700D01*
X327566D01*
X328660Y80993D01*
X329640Y81559D01*
X330441Y82360D01*
X331007Y83340D01*
X331300Y84434D01*
Y85566D01*
X331007Y86660D01*
X330441Y87640D01*
X329640Y88441D01*
X329090Y88758D01*
Y89301D01*
X329552Y89492D01*
X332910Y86134D01*
Y22090D01*
X320577D01*
X320486Y22181D01*
X320354Y22354D01*
X285354Y57354D01*
X284664Y57883D01*
X284332Y58020D01*
X283861Y58215D01*
X283000Y58328D01*
X111820D01*
X105329Y64820D01*
Y134260D01*
X105497Y134552D01*
X105753Y135506D01*
Y136494D01*
X105497Y137449D01*
X105329Y137740D01*
Y158257D01*
X105423Y158347D01*
X105773Y158519D01*
X109471Y154821D01*
Y150200D01*
X109500Y149984D01*
Y149766D01*
X109556Y149555D01*
X109585Y149338D01*
X109668Y149137D01*
X109725Y148926D01*
X109834Y148737D01*
X109917Y148536D01*
X110050Y148363D01*
X110159Y148174D01*
X110314Y148020D01*
X110446Y147846D01*
X110619Y147714D01*
X110774Y147559D01*
X110963Y147450D01*
X111136Y147317D01*
X111337Y147234D01*
X111526Y147125D01*
X111737Y147068D01*
X111939Y146985D01*
X112155Y146956D01*
X112366Y146900D01*
X112584D01*
X112800Y146871D01*
X113016Y146900D01*
X113234D01*
X113445Y146956D01*
X113662Y146985D01*
X113863Y147068D01*
X114074Y147125D01*
X114263Y147234D01*
X114464Y147317D01*
X114637Y147450D01*
X114826Y147559D01*
X114980Y147714D01*
X115154Y147846D01*
X115286Y148020D01*
X115441Y148174D01*
X115550Y148363D01*
X115683Y148536D01*
X115766Y148737D01*
X115875Y148926D01*
X115932Y149137D01*
X116015Y149338D01*
X116044Y149555D01*
X116100Y149766D01*
Y149984D01*
X116129Y150200D01*
Y152872D01*
X273910D01*
Y135000D01*
X273910Y135000D01*
X274069Y134200D01*
X274522Y133522D01*
X301700Y106344D01*
Y105566D01*
X301925Y104726D01*
X302359Y103974D01*
X302974Y103359D01*
X303726Y102925D01*
X304566Y102700D01*
X305434D01*
X306274Y102925D01*
X307026Y103359D01*
X307641Y103974D01*
X308075Y104726D01*
X308300Y105566D01*
Y106434D01*
X308075Y107274D01*
X307641Y108026D01*
X307026Y108641D01*
X306274Y109075D01*
X305434Y109300D01*
X304656D01*
X278090Y135866D01*
Y153423D01*
X278181Y153514D01*
X278354Y153646D01*
X278360Y153655D01*
X289029D01*
X296700Y145984D01*
Y145566D01*
X296925Y144726D01*
X297359Y143974D01*
X297974Y143359D01*
X298726Y142925D01*
X299566Y142700D01*
X300434D01*
X301274Y142925D01*
X302026Y143359D01*
X302641Y143974D01*
X303075Y144726D01*
X303300Y145566D01*
Y146434D01*
X303075Y147274D01*
X302641Y148026D01*
X302026Y148641D01*
X301274Y149075D01*
X300434Y149300D01*
X300016D01*
X291658Y157658D01*
X290897Y158167D01*
X290872Y158171D01*
X290922Y158671D01*
X308621D01*
X345646Y121646D01*
X354646Y112646D01*
X355336Y112118D01*
X356138Y111785D01*
X357000Y111671D01*
X374247D01*
X374360Y111559D01*
X375340Y110993D01*
X376434Y110700D01*
X377566D01*
X378660Y110993D01*
X379640Y111559D01*
X380441Y112360D01*
X381007Y113340D01*
X381300Y114434D01*
Y115566D01*
X381007Y116660D01*
X380441Y117640D01*
X379640Y118441D01*
X378660Y119007D01*
X377566Y119300D01*
X376434D01*
X375340Y119007D01*
X374360Y118441D01*
X374247Y118328D01*
X358379D01*
X350354Y126354D01*
X312354Y164354D01*
X311664Y164883D01*
X311332Y165020D01*
X310861Y165215D01*
X310000Y165329D01*
X238000D01*
Y192156D01*
X383749Y192157D01*
X385804Y191925D01*
D02*
G37*
G36*
X209505Y51171D02*
X209359Y51026D01*
X208925Y50274D01*
X208700Y49434D01*
Y48566D01*
X208824Y48103D01*
X208522Y47802D01*
X208069Y47123D01*
X207910Y46323D01*
X207910Y46323D01*
Y34800D01*
X205200D01*
X205090Y35254D01*
Y46423D01*
X205641Y46974D01*
X206075Y47726D01*
X206300Y48566D01*
Y49434D01*
X206075Y50274D01*
X205641Y51026D01*
X205495Y51171D01*
X205702Y51671D01*
X209297D01*
X209505Y51171D01*
D02*
G37*
G36*
X348246Y60831D02*
X348117Y60664D01*
X347980Y60332D01*
X347785Y59861D01*
X347672Y59000D01*
Y33061D01*
X347176Y33050D01*
Y33050D01*
X346455D01*
Y59747D01*
X347869Y61162D01*
X348246Y60831D01*
D02*
G37*
G36*
X33244Y55790D02*
X33106Y55458D01*
X32911Y54988D01*
X32798Y54126D01*
Y33061D01*
X32302Y33050D01*
Y33050D01*
X31580D01*
Y54792D01*
X32833Y56045D01*
X33244Y55790D01*
D02*
G37*
G36*
X200505Y51171D02*
X200359Y51026D01*
X199925Y50274D01*
X199700Y49434D01*
Y48566D01*
X199925Y47726D01*
X200359Y46974D01*
X200910Y46423D01*
Y35185D01*
X200632Y34800D01*
X199368D01*
X198147Y34473D01*
X197053Y33841D01*
X196159Y32947D01*
X195527Y31853D01*
X195259Y30851D01*
X194741D01*
X194473Y31853D01*
X194212Y32304D01*
X196478Y34569D01*
X196478Y34569D01*
X196931Y35248D01*
X197090Y36048D01*
X197090Y36048D01*
Y51671D01*
X200297D01*
X200505Y51171D01*
D02*
G37*
G36*
X62467Y65053D02*
X62502Y64826D01*
X49520Y51844D01*
X48991Y51155D01*
X48854Y50822D01*
X48659Y50352D01*
X48546Y49491D01*
Y31335D01*
X48214Y30761D01*
X47660D01*
X47328Y31335D01*
Y50621D01*
X61934Y65227D01*
X62467Y65053D01*
D02*
G37*
G36*
X41246Y53831D02*
X41118Y53664D01*
X40980Y53332D01*
X40785Y52861D01*
X40672Y52000D01*
Y31335D01*
X40340Y30761D01*
X39786D01*
X39454Y31335D01*
Y52747D01*
X40869Y54162D01*
X41246Y53831D01*
D02*
G37*
G36*
X363994Y56580D02*
X363865Y56412D01*
X363728Y56080D01*
X363533Y55610D01*
X363420Y54748D01*
Y31335D01*
X363088Y30761D01*
X362534D01*
X362203Y31335D01*
Y55495D01*
X363617Y56910D01*
X363994Y56580D01*
D02*
G37*
G36*
X356120Y58706D02*
X355991Y58538D01*
X355854Y58206D01*
X355659Y57736D01*
X355545Y56874D01*
Y31335D01*
X355214Y30761D01*
X354660D01*
X354328Y31335D01*
Y57621D01*
X355743Y59036D01*
X356120Y58706D01*
D02*
G37*
%LPC*%
G36*
X345728Y189587D02*
Y185000D01*
X348120D01*
Y186362D01*
X348004Y187240D01*
X347665Y188058D01*
X347126Y188760D01*
X346424Y189299D01*
X345728Y189587D01*
D02*
G37*
G36*
X324272D02*
Y185000D01*
X326663D01*
Y186362D01*
X326547Y187240D01*
X326208Y188058D01*
X325670Y188760D01*
X324967Y189299D01*
X324272Y189587D01*
D02*
G37*
G36*
X343728D02*
X343033Y189299D01*
X342331Y188760D01*
X341792Y188058D01*
X341453Y187240D01*
X341337Y186362D01*
Y185000D01*
X343728D01*
Y189587D01*
D02*
G37*
G36*
X322272D02*
X321576Y189299D01*
X320874Y188760D01*
X320335Y188058D01*
X319996Y187240D01*
X319880Y186362D01*
Y185000D01*
X322272D01*
Y189587D01*
D02*
G37*
G36*
X348120Y183000D02*
X345728D01*
Y178413D01*
X346424Y178701D01*
X347126Y179240D01*
X347665Y179942D01*
X348004Y180760D01*
X348120Y181638D01*
Y183000D01*
D02*
G37*
G36*
X326663D02*
X324272D01*
Y178413D01*
X324967Y178701D01*
X325670Y179240D01*
X326208Y179942D01*
X326547Y180760D01*
X326663Y181638D01*
Y183000D01*
D02*
G37*
G36*
X343728D02*
X341337D01*
Y181638D01*
X341453Y180760D01*
X341792Y179942D01*
X342331Y179240D01*
X343033Y178701D01*
X343728Y178413D01*
Y183000D01*
D02*
G37*
G36*
X322272D02*
X319880D01*
Y181638D01*
X319996Y180760D01*
X320335Y179942D01*
X320874Y179240D01*
X321576Y178701D01*
X322272Y178413D01*
Y183000D01*
D02*
G37*
G36*
X344547Y177043D02*
Y173071D01*
X346641D01*
Y174138D01*
X346535Y174938D01*
X346226Y175684D01*
X345735Y176325D01*
X345094Y176817D01*
X344547Y177043D01*
D02*
G37*
G36*
X325453D02*
Y173071D01*
X327546D01*
Y174138D01*
X327441Y174938D01*
X327132Y175684D01*
X326640Y176325D01*
X325999Y176817D01*
X325453Y177043D01*
D02*
G37*
G36*
X342547D02*
X342001Y176817D01*
X341360Y176325D01*
X340868Y175684D01*
X340559Y174938D01*
X340454Y174138D01*
Y173071D01*
X342547D01*
Y177043D01*
D02*
G37*
G36*
X323453D02*
X322906Y176817D01*
X322265Y176325D01*
X321774Y175684D01*
X321465Y174938D01*
X321359Y174138D01*
Y173071D01*
X323453D01*
Y177043D01*
D02*
G37*
G36*
X45300Y178300D02*
X36700D01*
Y169700D01*
X45300D01*
Y178300D01*
D02*
G37*
G36*
X346641Y171071D02*
X344547D01*
Y167098D01*
X345094Y167325D01*
X345735Y167816D01*
X346226Y168457D01*
X346535Y169203D01*
X346641Y170004D01*
Y171071D01*
D02*
G37*
G36*
X327546D02*
X325453D01*
Y167098D01*
X325999Y167325D01*
X326640Y167816D01*
X327132Y168457D01*
X327441Y169203D01*
X327546Y170004D01*
Y171071D01*
D02*
G37*
G36*
X342547D02*
X340454D01*
Y170004D01*
X340559Y169203D01*
X340868Y168457D01*
X341360Y167816D01*
X342001Y167325D01*
X342547Y167098D01*
Y171071D01*
D02*
G37*
G36*
X323453D02*
X321359D01*
Y170004D01*
X321465Y169203D01*
X321774Y168457D01*
X322265Y167816D01*
X322906Y167325D01*
X323453Y167098D01*
Y171071D01*
D02*
G37*
G36*
X52000Y168391D02*
Y165000D01*
X55391D01*
X55193Y165737D01*
X54601Y166763D01*
X53763Y167601D01*
X52737Y168193D01*
X52000Y168391D01*
D02*
G37*
G36*
X50000D02*
X49263Y168193D01*
X48237Y167601D01*
X47399Y166763D01*
X46807Y165737D01*
X46609Y165000D01*
X50000D01*
Y168391D01*
D02*
G37*
G36*
X41566Y168300D02*
X40434D01*
X39340Y168007D01*
X38360Y167441D01*
X37559Y166640D01*
X36993Y165660D01*
X36700Y164566D01*
Y163434D01*
X36993Y162340D01*
X37559Y161360D01*
X38360Y160559D01*
X39340Y159993D01*
X40434Y159700D01*
X41566D01*
X42660Y159993D01*
X43640Y160559D01*
X44441Y161360D01*
X45007Y162340D01*
X45300Y163434D01*
Y164566D01*
X45007Y165660D01*
X44441Y166640D01*
X43640Y167441D01*
X42660Y168007D01*
X41566Y168300D01*
D02*
G37*
G36*
X55391Y163000D02*
X52000D01*
Y159609D01*
X52737Y159807D01*
X53763Y160399D01*
X54601Y161237D01*
X55193Y162263D01*
X55391Y163000D01*
D02*
G37*
G36*
X50000D02*
X46609D01*
X46807Y162263D01*
X47399Y161237D01*
X48237Y160399D01*
X49263Y159807D01*
X50000Y159609D01*
Y163000D01*
D02*
G37*
G36*
X73947Y158740D02*
X71697D01*
Y156945D01*
X75165D01*
Y157522D01*
X75072Y157988D01*
X74808Y158383D01*
X74413Y158647D01*
X73947Y158740D01*
D02*
G37*
G36*
X69697D02*
X67447D01*
X66981Y158647D01*
X66585Y158383D01*
X66321Y157988D01*
X66228Y157522D01*
Y156945D01*
X69697D01*
Y158740D01*
D02*
G37*
G36*
X75165Y154945D02*
X71697D01*
Y153150D01*
X73947D01*
X74413Y153243D01*
X74808Y153507D01*
X75072Y153902D01*
X75165Y154368D01*
Y154945D01*
D02*
G37*
G36*
X69697D02*
X66228D01*
Y154368D01*
X66321Y153902D01*
X66585Y153507D01*
X66981Y153243D01*
X67447Y153150D01*
X69697D01*
Y154945D01*
D02*
G37*
G36*
X62000Y153824D02*
Y151000D01*
X64824D01*
X64683Y151526D01*
X64163Y152427D01*
X63427Y153163D01*
X62526Y153683D01*
X62000Y153824D01*
D02*
G37*
G36*
X64824Y149000D02*
X62000D01*
Y146176D01*
X62526Y146317D01*
X63427Y146837D01*
X64163Y147573D01*
X64683Y148474D01*
X64824Y149000D01*
D02*
G37*
G36*
X60000D02*
X57176D01*
X57317Y148474D01*
X57837Y147573D01*
X58573Y146837D01*
X59474Y146317D01*
X60000Y146176D01*
Y149000D01*
D02*
G37*
G36*
X260435Y147300D02*
X259565D01*
X258726Y147075D01*
X257974Y146641D01*
X257359Y146026D01*
X256925Y145274D01*
X256700Y144434D01*
Y143566D01*
X256925Y142726D01*
X257359Y141974D01*
X257974Y141359D01*
X258165Y141249D01*
Y123751D01*
X257974Y123641D01*
X257359Y123026D01*
X256925Y122274D01*
X256700Y121434D01*
Y120566D01*
X256925Y119726D01*
X257359Y118974D01*
X257974Y118359D01*
X258726Y117925D01*
X259565Y117700D01*
X260435D01*
X261274Y117925D01*
X262026Y118359D01*
X262641Y118974D01*
X263075Y119726D01*
X263300Y120566D01*
Y121434D01*
X263075Y122274D01*
X262641Y123026D01*
X262026Y123641D01*
X261835Y123751D01*
Y141249D01*
X262026Y141359D01*
X262641Y141974D01*
X263075Y142726D01*
X263300Y143566D01*
Y144434D01*
X263075Y145274D01*
X262641Y146026D01*
X262026Y146641D01*
X261274Y147075D01*
X260435Y147300D01*
D02*
G37*
G36*
X21300Y119300D02*
X12700D01*
Y110700D01*
X21300D01*
Y113165D01*
X30249D01*
X30359Y112974D01*
X30974Y112359D01*
X31726Y111925D01*
X32566Y111700D01*
X33434D01*
X34274Y111925D01*
X35026Y112359D01*
X35641Y112974D01*
X36075Y113726D01*
X36300Y114566D01*
Y115434D01*
X36075Y116274D01*
X35641Y117026D01*
X35026Y117641D01*
X34274Y118075D01*
X33434Y118300D01*
X32566D01*
X31726Y118075D01*
X30974Y117641D01*
X30359Y117026D01*
X30249Y116835D01*
X21300D01*
Y119300D01*
D02*
G37*
G36*
X378000Y109391D02*
Y106000D01*
X381391D01*
X381193Y106737D01*
X380601Y107763D01*
X379763Y108601D01*
X378737Y109193D01*
X378000Y109391D01*
D02*
G37*
G36*
X376000D02*
X375263Y109193D01*
X374237Y108601D01*
X373399Y107763D01*
X372807Y106737D01*
X372609Y106000D01*
X376000D01*
Y109391D01*
D02*
G37*
G36*
X68000D02*
Y106000D01*
X71391D01*
X71193Y106737D01*
X70601Y107763D01*
X69763Y108601D01*
X68737Y109193D01*
X68000Y109391D01*
D02*
G37*
G36*
X66000D02*
X65263Y109193D01*
X64237Y108601D01*
X63399Y107763D01*
X62807Y106737D01*
X62609Y106000D01*
X66000D01*
Y109391D01*
D02*
G37*
G36*
X381391Y104000D02*
X378000D01*
Y100609D01*
X378737Y100807D01*
X379763Y101399D01*
X380601Y102237D01*
X381193Y103263D01*
X381391Y104000D01*
D02*
G37*
G36*
X376000D02*
X372609D01*
X372807Y103263D01*
X373399Y102237D01*
X374237Y101399D01*
X375263Y100807D01*
X376000Y100609D01*
Y104000D01*
D02*
G37*
G36*
X71391D02*
X68000D01*
Y100609D01*
X68737Y100807D01*
X69763Y101399D01*
X70601Y102237D01*
X71193Y103263D01*
X71391Y104000D01*
D02*
G37*
G36*
X66000D02*
X62609D01*
X62807Y103263D01*
X63399Y102237D01*
X64237Y101399D01*
X65263Y100807D01*
X66000Y100609D01*
Y104000D01*
D02*
G37*
G36*
X242435Y120300D02*
X241565D01*
X240726Y120075D01*
X239974Y119641D01*
X239359Y119026D01*
X238925Y118274D01*
X238700Y117434D01*
Y116566D01*
X238925Y115726D01*
X239359Y114974D01*
X239974Y114359D01*
X240726Y113925D01*
X241346Y113759D01*
Y113241D01*
X240726Y113075D01*
X239974Y112641D01*
X239359Y112026D01*
X238925Y111274D01*
X238700Y110434D01*
Y109566D01*
X238925Y108726D01*
X239359Y107974D01*
X239974Y107359D01*
X240726Y106925D01*
X241346Y106759D01*
Y106241D01*
X240726Y106075D01*
X239974Y105641D01*
X239359Y105026D01*
X238925Y104274D01*
X238700Y103434D01*
Y102566D01*
X238925Y101726D01*
X239359Y100974D01*
X239974Y100359D01*
X240726Y99925D01*
X241565Y99700D01*
X242435D01*
X243274Y99925D01*
X244026Y100359D01*
X244577Y100910D01*
X248134D01*
X301522Y47522D01*
X301522Y47522D01*
X302200Y47069D01*
X303000Y46910D01*
X322134D01*
X322864Y46180D01*
X322700Y45566D01*
Y44434D01*
X322993Y43340D01*
X323559Y42360D01*
X324360Y41559D01*
X325340Y40993D01*
X326434Y40700D01*
X327566D01*
X328660Y40993D01*
X329640Y41559D01*
X330441Y42360D01*
X331007Y43340D01*
X331300Y44434D01*
Y45566D01*
X331007Y46660D01*
X330441Y47640D01*
X329640Y48441D01*
X328660Y49007D01*
X327566Y49300D01*
X326434D01*
X325820Y49136D01*
X324478Y50478D01*
X323800Y50931D01*
X323000Y51090D01*
X323000Y51090D01*
X303866D01*
X250478Y104478D01*
X249800Y104931D01*
X249000Y105090D01*
X249000Y105090D01*
X244577D01*
X244026Y105641D01*
X243274Y106075D01*
X242654Y106241D01*
Y106759D01*
X243274Y106925D01*
X244026Y107359D01*
X244348Y107682D01*
X249363D01*
X303522Y53522D01*
X304200Y53069D01*
X305000Y52910D01*
X305000Y52910D01*
X323242D01*
X323559Y52360D01*
X324360Y51559D01*
X325340Y50993D01*
X326434Y50700D01*
X327566D01*
X328660Y50993D01*
X329640Y51559D01*
X330441Y52360D01*
X331007Y53340D01*
X331300Y54434D01*
Y55566D01*
X331007Y56660D01*
X330441Y57640D01*
X329640Y58441D01*
X328660Y59007D01*
X327566Y59300D01*
X326434D01*
X325340Y59007D01*
X324360Y58441D01*
X323559Y57640D01*
X323242Y57090D01*
X305866D01*
X251706Y111250D01*
X251028Y111703D01*
X250228Y111862D01*
X250228Y111862D01*
X244736D01*
X244641Y112026D01*
X244026Y112641D01*
X243274Y113075D01*
X242654Y113241D01*
Y113759D01*
X243274Y113925D01*
X244026Y114359D01*
X244577Y114910D01*
X251134D01*
X269522Y96522D01*
X269522Y96522D01*
X270200Y96069D01*
X271000Y95910D01*
X271000Y95910D01*
X310000D01*
X310000Y95910D01*
X310800Y96069D01*
X311478Y96522D01*
X325656Y110700D01*
X331300D01*
Y119300D01*
X322700D01*
Y113656D01*
X309134Y100090D01*
X271866D01*
X253478Y118478D01*
X252800Y118931D01*
X252000Y119090D01*
X252000Y119090D01*
X244577D01*
X244026Y119641D01*
X243274Y120075D01*
X242435Y120300D01*
D02*
G37*
G36*
X137434Y87300D02*
X136566D01*
X135726Y87075D01*
X134974Y86641D01*
X134359Y86026D01*
X133925Y85274D01*
X133700Y84434D01*
Y83565D01*
X133925Y82726D01*
X134359Y81974D01*
X134910Y81423D01*
Y80032D01*
X134330D01*
Y75414D01*
X134330Y75086D01*
X134330Y74586D01*
Y72924D01*
X129496Y68090D01*
X121926D01*
X121432Y68947D01*
X120538Y69841D01*
X119443Y70473D01*
X118222Y70800D01*
X116959D01*
X115738Y70473D01*
X114643Y69841D01*
X113750Y68947D01*
X113118Y67853D01*
X112791Y66632D01*
Y65368D01*
X113118Y64147D01*
X113750Y63053D01*
X114643Y62159D01*
X115738Y61527D01*
X116959Y61200D01*
X118222D01*
X119443Y61527D01*
X120538Y62159D01*
X121432Y63053D01*
X121926Y63910D01*
X130362D01*
X130362Y63910D01*
X131162Y64069D01*
X131840Y64522D01*
X137286Y69968D01*
X139670D01*
Y74586D01*
X139670Y74914D01*
X139670Y75414D01*
Y80032D01*
X139090D01*
Y81423D01*
X139641Y81974D01*
X140075Y82726D01*
X140300Y83565D01*
Y84434D01*
X140075Y85274D01*
X139641Y86026D01*
X139026Y86641D01*
X138274Y87075D01*
X137434Y87300D01*
D02*
G37*
G36*
X93000Y70908D02*
Y67000D01*
X96908D01*
X96659Y67930D01*
X96001Y69070D01*
X95070Y70001D01*
X93930Y70659D01*
X93000Y70908D01*
D02*
G37*
G36*
X91000D02*
X90070Y70659D01*
X88930Y70001D01*
X87999Y69070D01*
X87341Y67930D01*
X87092Y67000D01*
X91000D01*
Y70908D01*
D02*
G37*
G36*
X96908Y65000D02*
X93000D01*
Y61092D01*
X93930Y61341D01*
X95070Y61999D01*
X96001Y62930D01*
X96659Y64070D01*
X96908Y65000D01*
D02*
G37*
G36*
X91000D02*
X87092D01*
X87341Y64070D01*
X87999Y62930D01*
X88930Y61999D01*
X90070Y61341D01*
X91000Y61092D01*
Y65000D01*
D02*
G37*
G36*
X327566Y79300D02*
X326434D01*
X325340Y79007D01*
X324360Y78441D01*
X323559Y77640D01*
X322993Y76660D01*
X322700Y75566D01*
Y74434D01*
X322993Y73340D01*
X323559Y72360D01*
X324360Y71559D01*
X324910Y71241D01*
Y68758D01*
X324360Y68441D01*
X323559Y67640D01*
X322993Y66660D01*
X322700Y65566D01*
Y64434D01*
X322993Y63340D01*
X323559Y62360D01*
X324360Y61559D01*
X325340Y60993D01*
X326434Y60700D01*
X327566D01*
X328660Y60993D01*
X329640Y61559D01*
X330441Y62360D01*
X331007Y63340D01*
X331300Y64434D01*
Y65566D01*
X331007Y66660D01*
X330441Y67640D01*
X329640Y68441D01*
X329090Y68758D01*
Y71241D01*
X329640Y71559D01*
X330441Y72360D01*
X331007Y73340D01*
X331300Y74434D01*
Y75566D01*
X331007Y76660D01*
X330441Y77640D01*
X329640Y78441D01*
X328660Y79007D01*
X327566Y79300D01*
D02*
G37*
G36*
X376000Y49391D02*
X375263Y49193D01*
X374237Y48601D01*
X373399Y47763D01*
X372807Y46737D01*
X372609Y46000D01*
X376000D01*
Y49391D01*
D02*
G37*
G36*
X68000D02*
Y46000D01*
X71391D01*
X71193Y46737D01*
X70601Y47763D01*
X69763Y48601D01*
X68737Y49193D01*
X68000Y49391D01*
D02*
G37*
G36*
X66000D02*
X65263Y49193D01*
X64237Y48601D01*
X63399Y47763D01*
X62807Y46737D01*
X62609Y46000D01*
X66000D01*
Y49391D01*
D02*
G37*
G36*
X381391Y44000D02*
X378000D01*
Y40609D01*
X378737Y40807D01*
X379763Y41399D01*
X380601Y42237D01*
X381193Y43263D01*
X381391Y44000D01*
D02*
G37*
G36*
X376000D02*
X372609D01*
X372807Y43263D01*
X373399Y42237D01*
X374237Y41399D01*
X375263Y40807D01*
X376000Y40609D01*
Y44000D01*
D02*
G37*
G36*
X71391D02*
X68000D01*
Y40609D01*
X68737Y40807D01*
X69763Y41399D01*
X70601Y42237D01*
X71193Y43263D01*
X71391Y44000D01*
D02*
G37*
G36*
X66000D02*
X62609D01*
X62807Y43263D01*
X63399Y42237D01*
X64237Y41399D01*
X65263Y40807D01*
X66000Y40609D01*
Y44000D01*
D02*
G37*
G36*
X179000Y34908D02*
X178070Y34659D01*
X176930Y34001D01*
X175999Y33070D01*
X175341Y31930D01*
X175092Y31000D01*
X179000D01*
Y34908D01*
D02*
G37*
G36*
Y29000D02*
X175092D01*
X175341Y28070D01*
X175999Y26930D01*
X176930Y25999D01*
X178070Y25341D01*
X179000Y25092D01*
Y29000D01*
D02*
G37*
G36*
X287177Y35176D02*
X285686D01*
X284223Y34885D01*
X282845Y34315D01*
X281605Y33486D01*
X280550Y32431D01*
X279722Y31191D01*
X279151Y29813D01*
X278860Y28350D01*
Y26859D01*
X279151Y25396D01*
X279722Y24018D01*
X280550Y22778D01*
X281605Y21724D01*
X282845Y20895D01*
X284223Y20324D01*
X285686Y20033D01*
X287177D01*
X288640Y20324D01*
X290018Y20895D01*
X291258Y21724D01*
X292313Y22778D01*
X293141Y24018D01*
X293712Y25396D01*
X294003Y26859D01*
Y28350D01*
X293712Y29813D01*
X293141Y31191D01*
X292313Y32431D01*
X291258Y33486D01*
X290018Y34315D01*
X288640Y34885D01*
X287177Y35176D01*
D02*
G37*
G36*
X108044D02*
X106552D01*
X105089Y34885D01*
X103711Y34315D01*
X102471Y33486D01*
X101417Y32431D01*
X100588Y31191D01*
X100017Y29813D01*
X99726Y28350D01*
Y26859D01*
X100017Y25396D01*
X100588Y24018D01*
X101417Y22778D01*
X102471Y21724D01*
X103711Y20895D01*
X105089Y20324D01*
X106552Y20033D01*
X108044D01*
X109506Y20324D01*
X110884Y20895D01*
X112124Y21724D01*
X113179Y22778D01*
X114008Y24018D01*
X114578Y25396D01*
X114869Y26859D01*
Y28350D01*
X114578Y29813D01*
X114008Y31191D01*
X113179Y32431D01*
X112124Y33486D01*
X110884Y34315D01*
X109506Y34885D01*
X108044Y35176D01*
D02*
G37*
G36*
X271622Y20378D02*
X270343D01*
Y19000D01*
X271622D01*
Y20378D01*
D02*
G37*
G36*
X268343D02*
X267063D01*
Y19000D01*
X268343D01*
Y20378D01*
D02*
G37*
G36*
X185622Y20000D02*
X184343D01*
Y18622D01*
X185622D01*
Y20000D01*
D02*
G37*
G36*
X182343D02*
X181063D01*
Y18622D01*
X182343D01*
Y20000D01*
D02*
G37*
G36*
X171000Y13873D02*
Y11000D01*
X173873D01*
X173727Y11544D01*
X173201Y12456D01*
X172456Y13201D01*
X171544Y13727D01*
X171000Y13873D01*
D02*
G37*
G36*
X169000D02*
X168456Y13727D01*
X167544Y13201D01*
X166799Y12456D01*
X166273Y11544D01*
X166127Y11000D01*
X169000D01*
Y13873D01*
D02*
G37*
G36*
X240500Y13800D02*
X239500D01*
X238533Y13541D01*
X237667Y13041D01*
X236959Y12333D01*
X236459Y11467D01*
X236200Y10500D01*
Y9500D01*
X236459Y8533D01*
X236959Y7667D01*
X237667Y6959D01*
X238533Y6459D01*
X239500Y6200D01*
X240500D01*
X241467Y6459D01*
X242333Y6959D01*
X243041Y7667D01*
X243541Y8533D01*
X243800Y9500D01*
Y10500D01*
X243541Y11467D01*
X243041Y12333D01*
X242333Y13041D01*
X241467Y13541D01*
X240500Y13800D01*
D02*
G37*
G36*
X230500D02*
X229500D01*
X228533Y13541D01*
X227667Y13041D01*
X226959Y12333D01*
X226459Y11467D01*
X226200Y10500D01*
Y9500D01*
X226459Y8533D01*
X226959Y7667D01*
X227667Y6959D01*
X228533Y6459D01*
X229500Y6200D01*
X230500D01*
X231467Y6459D01*
X232333Y6959D01*
X233041Y7667D01*
X233541Y8533D01*
X233800Y9500D01*
Y10500D01*
X233541Y11467D01*
X233041Y12333D01*
X232333Y13041D01*
X231467Y13541D01*
X230500Y13800D01*
D02*
G37*
G36*
X220500D02*
X219500D01*
X218533Y13541D01*
X217667Y13041D01*
X216959Y12333D01*
X216459Y11467D01*
X216200Y10500D01*
Y9500D01*
X216459Y8533D01*
X216959Y7667D01*
X217667Y6959D01*
X218533Y6459D01*
X219500Y6200D01*
X220500D01*
X221467Y6459D01*
X222333Y6959D01*
X223041Y7667D01*
X223541Y8533D01*
X223800Y9500D01*
Y10500D01*
X223541Y11467D01*
X223041Y12333D01*
X222333Y13041D01*
X221467Y13541D01*
X220500Y13800D01*
D02*
G37*
G36*
X210500D02*
X209500D01*
X208533Y13541D01*
X207667Y13041D01*
X206959Y12333D01*
X206459Y11467D01*
X206200Y10500D01*
Y9500D01*
X206459Y8533D01*
X206959Y7667D01*
X207667Y6959D01*
X208533Y6459D01*
X209500Y6200D01*
X210500D01*
X211467Y6459D01*
X212333Y6959D01*
X213041Y7667D01*
X213541Y8533D01*
X213800Y9500D01*
Y10500D01*
X213541Y11467D01*
X213041Y12333D01*
X212333Y13041D01*
X211467Y13541D01*
X210500Y13800D01*
D02*
G37*
G36*
X200500D02*
X199500D01*
X198533Y13541D01*
X197667Y13041D01*
X196959Y12333D01*
X196459Y11467D01*
X196200Y10500D01*
Y9500D01*
X196459Y8533D01*
X196959Y7667D01*
X197667Y6959D01*
X198533Y6459D01*
X199500Y6200D01*
X200500D01*
X201467Y6459D01*
X202333Y6959D01*
X203041Y7667D01*
X203541Y8533D01*
X203800Y9500D01*
Y10500D01*
X203541Y11467D01*
X203041Y12333D01*
X202333Y13041D01*
X201467Y13541D01*
X200500Y13800D01*
D02*
G37*
G36*
X190500D02*
X189500D01*
X188533Y13541D01*
X187667Y13041D01*
X186959Y12333D01*
X186459Y11467D01*
X186200Y10500D01*
Y9500D01*
X186459Y8533D01*
X186959Y7667D01*
X187667Y6959D01*
X188533Y6459D01*
X189500Y6200D01*
X190500D01*
X191467Y6459D01*
X192333Y6959D01*
X193041Y7667D01*
X193541Y8533D01*
X193800Y9500D01*
Y10500D01*
X193541Y11467D01*
X193041Y12333D01*
X192333Y13041D01*
X191467Y13541D01*
X190500Y13800D01*
D02*
G37*
G36*
X180500D02*
X179500D01*
X178533Y13541D01*
X177667Y13041D01*
X176959Y12333D01*
X176459Y11467D01*
X176200Y10500D01*
Y9500D01*
X176459Y8533D01*
X176959Y7667D01*
X177667Y6959D01*
X178533Y6459D01*
X179500Y6200D01*
X180500D01*
X181467Y6459D01*
X182333Y6959D01*
X183041Y7667D01*
X183541Y8533D01*
X183800Y9500D01*
Y10500D01*
X183541Y11467D01*
X183041Y12333D01*
X182333Y13041D01*
X181467Y13541D01*
X180500Y13800D01*
D02*
G37*
G36*
X160500D02*
X159500D01*
X158533Y13541D01*
X157667Y13041D01*
X156959Y12333D01*
X156459Y11467D01*
X156200Y10500D01*
Y9500D01*
X156459Y8533D01*
X156959Y7667D01*
X157667Y6959D01*
X158533Y6459D01*
X159500Y6200D01*
X160500D01*
X161467Y6459D01*
X162333Y6959D01*
X163041Y7667D01*
X163541Y8533D01*
X163800Y9500D01*
Y10500D01*
X163541Y11467D01*
X163041Y12333D01*
X162333Y13041D01*
X161467Y13541D01*
X160500Y13800D01*
D02*
G37*
G36*
X153800D02*
X146200D01*
Y6200D01*
X153800D01*
Y13800D01*
D02*
G37*
G36*
X173873Y9000D02*
X171000D01*
Y6127D01*
X171544Y6273D01*
X172456Y6799D01*
X173201Y7544D01*
X173727Y8456D01*
X173873Y9000D01*
D02*
G37*
G36*
X169000D02*
X166127D01*
X166273Y8456D01*
X166799Y7544D01*
X167544Y6799D01*
X168456Y6273D01*
X169000Y6127D01*
Y9000D01*
D02*
G37*
G36*
X271000Y8000D02*
X267092D01*
X267341Y7070D01*
X267999Y5930D01*
X268930Y4999D01*
X270070Y4341D01*
X271000Y4092D01*
Y8000D01*
D02*
G37*
%LPD*%
D18*
X61000Y150000D02*
D03*
X102000Y136000D02*
D03*
X84000Y140000D02*
D03*
D34*
X269343Y18000D02*
D03*
X274657D02*
D03*
X183343Y21000D02*
D03*
X188657D02*
D03*
D66*
X324453Y172071D02*
D03*
X343547D02*
D03*
D69*
X250228Y109772D02*
X305000Y55000D01*
X242228Y109772D02*
X250228D01*
X305000Y55000D02*
X327000D01*
X242000Y110000D02*
X242228Y109772D01*
X242000Y117000D02*
X252000D01*
X271000Y98000D01*
X276000Y135000D02*
Y156000D01*
X318000Y20000D02*
X335000D01*
Y87000D01*
X327000Y95000D02*
X335000Y87000D01*
X337565Y20000D02*
X338115Y20550D01*
X374550D01*
X335000Y20000D02*
X337565D01*
X374550Y20550D02*
X386000Y32000D01*
X188657Y21000D02*
Y27169D01*
X190000Y28512D02*
Y30000D01*
X188657Y27169D02*
X190000Y28512D01*
X180000Y29337D02*
Y30000D01*
X183343Y21000D02*
Y25995D01*
X180000Y29337D02*
X183343Y25995D01*
X102000Y53000D02*
Y63000D01*
X71000Y22000D02*
X102000Y53000D01*
X276000Y135000D02*
X305000Y106000D01*
X271000Y98000D02*
X310000D01*
X327000Y115000D01*
X242000Y103000D02*
X249000D01*
X303000Y49000D01*
X67000Y55000D02*
X67861Y55861D01*
X323000Y49000D02*
X327000Y45000D01*
X303000Y49000D02*
X323000D01*
X386000Y32000D02*
Y46000D01*
X377000Y55000D02*
X386000Y46000D01*
X327000Y65000D02*
Y75000D01*
Y95000D02*
Y105000D01*
Y85000D02*
Y95000D01*
X210000Y46323D02*
X212000Y48324D01*
Y49000D01*
X210000Y30000D02*
Y46323D01*
X292000Y9000D02*
X306000D01*
X282000Y9899D02*
X289101Y17000D01*
X315000D01*
X318000Y20000D01*
X269343Y13416D02*
X272000Y10759D01*
X269343Y13416D02*
Y18000D01*
X272000Y9000D02*
Y10759D01*
X274657Y17902D02*
Y18000D01*
Y17902D02*
X280948Y11611D01*
Y10052D02*
Y11611D01*
Y10052D02*
X282000Y9000D01*
Y9899D01*
X195000Y36048D02*
Y55000D01*
X67000D02*
X94000D01*
X102000Y63000D01*
X200000Y31172D02*
X203000Y34172D01*
X200000Y30000D02*
Y31172D01*
X203000Y34172D02*
Y49000D01*
X190000Y31047D02*
X195000Y36048D01*
X43000Y143000D02*
X49000Y149000D01*
X137000Y77559D02*
Y84000D01*
X117591Y66000D02*
X130362D01*
X136803Y72441D01*
X137000D01*
X43000Y107000D02*
Y143000D01*
X17000Y95000D02*
X31000D01*
X43000Y107000D01*
X17000Y65000D02*
Y75000D01*
Y95000D02*
Y105000D01*
Y85000D02*
Y95000D01*
D71*
X260000Y121000D02*
Y144000D01*
X17000Y45000D02*
X23000Y51000D01*
Y58000D01*
X51000Y86000D01*
X190000Y30000D02*
Y31047D01*
X17000Y115000D02*
X33000D01*
X18596Y58596D02*
X44000Y84000D01*
Y91000D01*
X17000Y56353D02*
X18596Y57949D01*
X17000Y55000D02*
Y56353D01*
X18596Y57949D02*
Y58596D01*
X51000Y86000D02*
Y91000D01*
D72*
X112800Y150200D02*
Y156200D01*
X275800D02*
X276000Y156000D01*
X112800Y156200D02*
X275800D01*
X104000Y165000D02*
X112800Y156200D01*
X73858Y177000D02*
X101000D01*
X116000Y162000D01*
X310000D01*
X70697Y174055D02*
X70913D01*
X95303Y165000D02*
X104000D01*
X310000Y162000D02*
X348000Y124000D01*
X227000Y55000D02*
X283000D01*
X195000D02*
X227000D01*
X283000D02*
X318000Y20000D01*
X102441Y63000D02*
X110441Y55000D01*
X195000D01*
X102000Y136000D02*
Y158272D01*
Y63000D02*
Y136000D01*
X96248Y161201D02*
X99071D01*
X102000Y158272D01*
X95303Y162146D02*
Y165000D01*
Y162146D02*
X96248Y161201D01*
X102000Y63000D02*
X102441D01*
X357000Y115000D02*
X377000D01*
X348000Y124000D02*
X357000Y115000D01*
X84000Y140000D02*
Y163000D01*
X72945Y174055D02*
X84000Y163000D01*
X70697Y174055D02*
X72945D01*
X70913D02*
X73858Y177000D01*
X84000Y133000D02*
Y140000D01*
X68000Y117000D02*
X84000Y133000D01*
X67000Y115000D02*
Y115541D01*
X68000Y116541D01*
Y117000D01*
X49000Y149000D02*
X65000Y165000D01*
X70697D01*
X28252Y56171D02*
X67000Y94919D01*
X28252Y29000D02*
Y56171D01*
X67000Y94919D02*
Y95000D01*
Y64617D02*
Y65000D01*
X51874Y49491D02*
X67000Y64617D01*
X51874Y29000D02*
Y49491D01*
X44000Y29000D02*
Y52000D01*
X67000Y75000D01*
X36126Y29000D02*
Y54126D01*
X67000Y85000D01*
X366748Y29000D02*
Y54748D01*
X377000Y65000D01*
X358874Y29000D02*
Y56874D01*
X377000Y75000D01*
X351000Y29000D02*
Y59000D01*
X377000Y85000D01*
X343126Y61126D02*
X377000Y95000D01*
X343126Y29000D02*
Y61126D01*
X51028Y174028D02*
X70669D01*
X51000Y174000D02*
X51028Y174028D01*
X70669D02*
X70697Y174055D01*
D73*
X276000Y156000D02*
X290000D01*
X300000Y146000D01*
D74*
X327000Y115000D02*
D03*
X17000D02*
D03*
X41000Y174000D02*
D03*
D75*
X327000Y105000D02*
D03*
Y95000D02*
D03*
Y85000D02*
D03*
Y75000D02*
D03*
Y65000D02*
D03*
Y55000D02*
D03*
Y45000D02*
D03*
X377000D02*
D03*
Y55000D02*
D03*
Y65000D02*
D03*
Y75000D02*
D03*
Y85000D02*
D03*
Y105000D02*
D03*
Y95000D02*
D03*
Y115000D02*
D03*
X17000Y105000D02*
D03*
Y95000D02*
D03*
Y85000D02*
D03*
Y75000D02*
D03*
Y65000D02*
D03*
Y55000D02*
D03*
Y45000D02*
D03*
X67000D02*
D03*
Y55000D02*
D03*
Y65000D02*
D03*
Y75000D02*
D03*
Y85000D02*
D03*
Y105000D02*
D03*
Y95000D02*
D03*
Y115000D02*
D03*
X51000Y164000D02*
D03*
Y174000D02*
D03*
X41000Y164000D02*
D03*
D76*
X92000Y66000D02*
D03*
X117591D02*
D03*
X282000Y9000D02*
D03*
X272000D02*
D03*
X190000Y30000D02*
D03*
X200000D02*
D03*
X180000D02*
D03*
D77*
X292000Y9000D02*
D03*
X210000Y30000D02*
D03*
D78*
X240000Y10000D02*
D03*
X230000D02*
D03*
X220000D02*
D03*
X210000D02*
D03*
X200000D02*
D03*
X190000D02*
D03*
X180000D02*
D03*
X170000D02*
D03*
X160000D02*
D03*
D79*
X150000D02*
D03*
D80*
X366748Y29000D02*
D03*
X358874D02*
D03*
X351000D02*
D03*
X51874D02*
D03*
X44000D02*
D03*
X36126D02*
D03*
D81*
X343126D02*
D03*
X28252D02*
D03*
D82*
X323272Y184000D02*
D03*
X344728D02*
D03*
D83*
X286432Y27605D02*
D03*
X107298D02*
D03*
D84*
X242000Y110000D02*
D03*
Y117000D02*
D03*
X124000Y168000D02*
D03*
X112800Y150200D02*
D03*
X260000Y144000D02*
D03*
X276000Y156000D02*
D03*
X315000Y96000D02*
D03*
X89000Y13000D02*
D03*
X378000Y153000D02*
D03*
X356000Y166000D02*
D03*
X306000Y176000D02*
D03*
X285000D02*
D03*
X278000Y107000D02*
D03*
X108000Y186000D02*
D03*
X71000D02*
D03*
X11000Y151000D02*
D03*
X111000Y142000D02*
D03*
X377000Y33000D02*
D03*
X309000Y44000D02*
D03*
X314000Y63000D02*
D03*
X278000Y43000D02*
D03*
X260000Y31000D02*
D03*
X71000Y143000D02*
D03*
X111000Y122000D02*
D03*
X142000D02*
D03*
X126000Y16000D02*
D03*
X143000Y44000D02*
D03*
X157000Y73000D02*
D03*
X71000Y22000D02*
D03*
X305000Y106000D02*
D03*
X260000Y121000D02*
D03*
X300000Y146000D02*
D03*
X242000Y103000D02*
D03*
X212000Y49000D02*
D03*
X227000Y55000D02*
D03*
X306000Y9000D02*
D03*
X318000Y20000D02*
D03*
X195000Y55000D02*
D03*
X203000Y49000D02*
D03*
X84000Y133000D02*
D03*
X49000Y149000D02*
D03*
X137000Y84000D02*
D03*
X33000Y115000D02*
D03*
X44000Y91000D02*
D03*
X51000D02*
D03*
X348000Y124000D02*
D03*
D85*
X95303Y165000D02*
D03*
D86*
X70697Y174055D02*
D03*
Y165000D02*
D03*
Y155945D02*
D03*
D87*
X137000Y72441D02*
D03*
Y77559D02*
D03*
D88*
X324453Y172071D02*
D03*
X343547D02*
D03*
M02*
