%FSTAX23Y23*%
%MOIN*%
%SFA1B1*%

%IPPOS*%
%ADD11C,0.007870*%
%ADD12C,0.010000*%
%ADD14C,0.003940*%
%ADD15C,0.005000*%
%LNcontrolboardv1-1*%
%LPD*%
G36*
X05196Y03947D02*
X05196D01*
X05196*
X05196*
X05196Y03947*
X05195Y03947*
X05195Y03947*
X05195Y03947*
X05195Y03948*
X05195*
X05194Y03948*
X05194Y03948*
X05194Y03948*
X05194Y03948*
X05193Y03948*
X05193Y03948*
X05192Y03949*
X05192Y03949*
X05192*
X05192Y03949*
X05192Y03949*
X05192Y0395*
X05191Y0395*
X05191Y0395*
X0519Y03951*
X0519Y03951*
X05189Y03952*
X05189Y03952*
X05189Y03952*
X05189Y03952*
X05189Y03953*
X05188Y03953*
X05188Y03953*
X05188Y03954*
X05188Y03954*
X05187Y03955*
X05186Y03955*
X05186Y03956*
X05186Y03956*
X05185Y03956*
X05185Y03956*
X05185*
X05185Y03956*
X05185Y03957*
X05185Y03957*
X05184Y03957*
X05184Y03957*
X05184Y03957*
X05183Y03957*
X05183Y03957*
X05182Y03958*
X05182*
X05182*
X05182Y03958*
X05182Y03957*
X05181Y03957*
X05181Y03957*
X05181Y03957*
X0518Y03957*
X0518Y03957*
X0518Y03956*
X0518Y03956*
X0518Y03956*
X05179Y03956*
X05179Y03955*
X05179Y03955*
X05179Y03954*
X05179Y03954*
Y03954*
X05179Y03954*
X05179Y03953*
X05179Y03953*
X05179Y03952*
X05179Y03952*
X0518Y03952*
X0518Y03951*
X0518Y03951*
X0518Y03951*
X0518Y03951*
X05181Y03951*
X05181Y0395*
X05182Y0395*
X05182Y0395*
X05183Y0395*
X05182Y03948*
X05182*
X05182Y03948*
X05182*
X05182Y03948*
X05182Y03948*
X05182Y03948*
X05181Y03948*
X05181Y03948*
X0518Y03948*
X0518Y03949*
X05179Y03949*
X05179Y03949*
X05179Y03949*
X05178Y0395*
X05178Y0395*
X05178Y0395*
X05178Y0395*
X05178Y0395*
X05178Y0395*
X05178Y0395*
X05178Y0395*
X05178Y03951*
X05177Y03951*
X05177Y03951*
X05177Y03952*
X05177Y03952*
X05177Y03953*
X05177Y03953*
X05177Y03953*
X05177Y03954*
Y03954*
X05177Y03954*
X05177Y03955*
X05177Y03955*
X05177Y03955*
X05177Y03956*
X05177Y03956*
X05178Y03957*
X05178Y03957*
X05178Y03958*
X05178Y03958*
X05178Y03958*
X05178Y03958*
X05179Y03958*
X05179Y03958*
X05179Y03959*
X05179Y03959*
X05179Y03959*
X05179Y03959*
X0518Y03959*
X0518Y03959*
X05181Y0396*
X05181Y0396*
X05181Y0396*
X05182Y0396*
X05182Y0396*
X05182*
X05182*
X05183Y0396*
X05183Y0396*
X05183Y0396*
X05184Y0396*
X05184Y0396*
X05185Y03959*
X05185Y03959*
X05185Y03959*
X05185Y03959*
X05185Y03959*
X05186Y03959*
X05186Y03959*
X05186Y03958*
X05187Y03958*
X05187Y03958*
X05187Y03958*
X05187Y03958*
X05187Y03957*
X05188Y03957*
X05188Y03957*
X05188Y03957*
X05188Y03957*
X05188Y03956*
X05189Y03956*
X05189Y03956*
X05189Y03955*
X0519Y03955*
X0519Y03954*
X0519Y03954*
X0519Y03954*
X0519Y03954*
X0519Y03954*
X05191Y03954*
X05191Y03954*
X05191Y03953*
X05192Y03953*
X05192Y03952*
X05192Y03952*
X05193Y03952*
X05193Y03952*
X05193Y03952*
X05193Y03951*
X05193Y03951*
X05193Y03951*
X05193Y03951*
X05193Y03951*
X05194Y03951*
Y0396*
X05196*
Y03947*
G37*
G54D15*
X0Y0D02*
X12286D01*
Y16786*
X0*
Y0*
G36*
X0519Y03945D02*
X0519Y03945D01*
X05191Y03945*
X05191Y03945*
X05191Y03945*
X05192Y03945*
X05192Y03945*
X05193Y03944*
X05193Y03944*
X05194Y03944*
X05194Y03943*
X05195Y03943*
X05195Y03943*
X05195Y03943*
X05195Y03942*
X05195Y03942*
X05195Y03942*
X05195Y03942*
X05195Y03942*
X05196Y03941*
X05196Y03941*
X05196Y03941*
X05196Y0394*
X05196Y0394*
X05196Y0394*
X05196Y03939*
X05196Y03939*
X05196Y03938*
X05196Y03937*
Y03937*
X05196Y03937*
Y03937*
X05196Y03936*
X05196Y03936*
X05196Y03936*
X05196Y03935*
X05196Y03934*
X05196Y03933*
X05195Y03933*
X05195Y03932*
X05195Y03932*
X05195Y03932*
X05195Y03932*
X05195Y03932*
X05195Y03932*
X05195Y03932*
X05195Y03932*
X05194Y03931*
X05194Y03931*
X05194Y03931*
X05193Y0393*
X05192Y0393*
X05192Y03929*
X05192*
X05191Y03929*
X05191Y03929*
X05191Y03929*
X05191Y03929*
X05191Y03929*
X0519Y03929*
X0519Y03929*
X0519Y03929*
X05189Y03929*
X05188Y03929*
X05187Y03929*
X05186Y03928*
X05186*
X05186*
X05186*
X05186Y03929*
X05186*
X05185Y03929*
X05185Y03929*
X05185Y03929*
X05184Y03929*
X05183Y03929*
X05182Y03929*
X05181Y0393*
X05181Y0393*
X05181Y0393*
X05181Y0393*
X05181Y0393*
X05181Y0393*
X0518Y0393*
X0518Y0393*
X05179Y03931*
X05179Y03931*
X05178Y03932*
X05178Y03933*
X05178Y03933*
X05178Y03933*
X05178Y03933*
X05178Y03933*
X05178Y03933*
X05177Y03934*
X05177Y03934*
X05177Y03934*
X05177Y03935*
X05177Y03935*
X05177Y03936*
X05177Y03937*
X05177Y03938*
Y03938*
X05177Y03938*
X05177Y03938*
X05177Y03939*
X05177Y03939*
X05177Y03939*
X05177Y0394*
X05177Y03941*
X05177Y03941*
X05178Y03942*
X05178Y03942*
X05178Y03942*
X05178Y03942*
X05178Y03942*
X05178Y03943*
X05178Y03943*
X05179Y03943*
X05179Y03943*
X05179Y03943*
X05179Y03943*
X05179Y03944*
X0518Y03944*
X0518Y03944*
X0518Y03944*
X05181Y03945*
X05181Y03945*
X05182Y03945*
X05182Y03945*
X05183Y03943*
X05183*
X05183Y03943*
X05183Y03943*
X05183Y03942*
X05182Y03942*
X05182Y03942*
X05182Y03942*
X05181Y03942*
X05181Y03942*
X0518Y03941*
X0518Y03941*
X0518Y03941*
X0518Y0394*
X05179Y0394*
X05179Y0394*
X05179Y03939*
X05179Y03939*
X05179Y03938*
X05179Y03937*
Y03937*
X05179Y03937*
Y03937*
X05179Y03937*
X05179Y03936*
X05179Y03936*
X05179Y03935*
X0518Y03934*
X0518Y03934*
Y03934*
X0518Y03934*
X0518Y03934*
X0518Y03933*
X05181Y03933*
X05181Y03933*
X05182Y03932*
X05182Y03932*
X05183Y03932*
X05183*
X05183Y03932*
X05183Y03932*
X05183Y03932*
X05183Y03932*
X05183Y03931*
X05184Y03931*
X05184Y03931*
X05185Y03931*
X05186Y03931*
X05186Y03931*
X05186*
X05187*
X05187*
X05187*
X05187Y03931*
X05187*
X05188Y03931*
X05188Y03931*
X05189Y03931*
X05189Y03931*
X0519Y03932*
X05191Y03932*
X05191*
X05191Y03932*
X05191Y03932*
X05191Y03932*
X05191Y03932*
X05192Y03932*
X05192Y03933*
X05193Y03933*
X05193Y03933*
X05193Y03934*
Y03934*
X05193Y03934*
X05194Y03934*
X05194Y03934*
X05194Y03934*
X05194Y03935*
X05194Y03935*
X05194Y03935*
X05194Y03936*
X05194Y03937*
X05194Y03937*
Y03937*
X05194Y03938*
Y03938*
X05194Y03938*
X05194Y03939*
X05194Y03939*
X05194Y0394*
X05194Y0394*
X05193Y03941*
X05193Y03941*
X05193Y03941*
X05193Y03941*
X05193Y03941*
X05193Y03941*
X05193Y03941*
X05193Y03941*
X05192Y03942*
X05192Y03942*
X05192Y03942*
X05192Y03942*
X05191Y03942*
X05191Y03942*
X05191Y03943*
X0519Y03943*
X0519Y03943*
X05189Y03943*
X0519Y03945*
X0519*
X0519Y03945*
G37*
G36*
X03666Y03191D02*
X03666Y03191D01*
X03667Y03191*
X03667Y03191*
X03667Y03191*
X03668Y03191*
X03669Y0319*
X03669Y0319*
X0367Y0319*
X0367Y0319*
X0367Y03189*
X0367Y03189*
X0367Y03189*
X03671Y03189*
X03671Y03189*
X03671Y03189*
X03671Y03189*
X03671Y03189*
X03671Y03188*
X03672Y03188*
X03672Y03188*
X03672Y03187*
X03672Y03187*
X03673Y03187*
X03673Y03186*
X03673Y03186*
X03673Y03185*
X03671Y03185*
Y03185*
X03671Y03185*
X03671Y03185*
X0367Y03185*
X0367Y03185*
X0367Y03185*
X0367Y03186*
X0367Y03186*
X0367Y03187*
X03669Y03187*
X03669Y03188*
X03669Y03188*
X03668Y03188*
X03668Y03188*
X03668Y03188*
X03667Y03188*
X03667Y03189*
X03666Y03189*
X03665Y03189*
X03665*
X03665Y03189*
X03665*
X03665Y03189*
X03664Y03189*
X03664Y03189*
X03663Y03188*
X03662Y03188*
X03662Y03188*
X03662*
X03662Y03188*
X03662Y03187*
X03661Y03187*
X03661Y03187*
X03661Y03187*
X0366Y03186*
X0366Y03185*
X0366Y03185*
Y03185*
X0366Y03185*
X0366Y03185*
X0366Y03185*
X0366Y03184*
X03659Y03184*
X03659Y03184*
X03659Y03183*
X03659Y03183*
X03659Y03182*
X03659Y03181*
Y03181*
Y03181*
Y03181*
Y03181*
X03659Y03181*
Y0318*
X03659Y0318*
X03659Y0318*
X03659Y03179*
X03659Y03178*
X0366Y03178*
X0366Y03177*
Y03177*
X0366Y03177*
X0366Y03177*
X0366Y03177*
X0366Y03176*
X0366Y03176*
X03661Y03175*
X03661Y03175*
X03661Y03175*
X03662Y03174*
X03662*
X03662Y03174*
X03662Y03174*
X03662Y03174*
X03662Y03174*
X03663Y03174*
X03663Y03174*
X03663Y03174*
X03664Y03173*
X03665Y03173*
X03665Y03173*
X03665*
X03666Y03173*
X03666*
X03666Y03173*
X03667Y03173*
X03667Y03174*
X03668Y03174*
X03668Y03174*
X03669Y03174*
X03669Y03174*
X03669Y03174*
X03669Y03175*
X03669Y03175*
X03669Y03175*
X03669Y03175*
X03669Y03175*
X0367Y03175*
X0367Y03175*
X0367Y03176*
X0367Y03176*
X0367Y03176*
X0367Y03177*
X03671Y03177*
X03671Y03177*
X03671Y03178*
X03671Y03178*
X03673Y03177*
Y03177*
X03673Y03177*
X03673Y03177*
X03673Y03177*
X03673Y03177*
X03673Y03176*
X03673Y03176*
X03673Y03176*
X03672Y03175*
X03672Y03174*
X03672Y03174*
X03671Y03173*
X03671Y03173*
X03671Y03173*
X03671Y03173*
X0367Y03173*
X0367Y03173*
X0367Y03172*
X0367Y03172*
X0367Y03172*
X03669Y03172*
X03669Y03172*
X03669Y03172*
X03668Y03172*
X03668Y03171*
X03668Y03171*
X03667Y03171*
X03667Y03171*
X03666Y03171*
X03665Y03171*
X03665*
X03665Y03171*
X03665*
X03664Y03171*
X03664Y03171*
X03664Y03171*
X03663Y03171*
X03662Y03172*
X03661Y03172*
X03661Y03172*
X0366Y03172*
X0366Y03172*
X0366Y03172*
X0366Y03172*
X0366Y03173*
X0366Y03173*
X0366Y03173*
X0366Y03173*
X03659Y03173*
X03659Y03174*
X03659Y03174*
X03658Y03174*
X03658Y03175*
X03657Y03176*
Y03176*
X03657Y03176*
X03657Y03176*
X03657Y03176*
X03657Y03177*
X03657Y03177*
X03657Y03177*
X03657Y03178*
X03657Y03178*
X03657Y03178*
X03657Y03179*
X03657Y0318*
X03656Y03181*
Y03181*
Y03181*
Y03181*
X03657Y03182*
Y03182*
X03657Y03182*
X03657Y03183*
X03657Y03183*
X03657Y03184*
X03657Y03185*
X03657Y03185*
X03658Y03186*
X03658Y03186*
X03658Y03186*
X03658Y03187*
X03658Y03187*
X03658Y03187*
X03658Y03187*
X03658Y03188*
X03659Y03188*
X03659Y03189*
X0366Y03189*
X03661Y0319*
X03661Y0319*
X03661Y0319*
X03661Y0319*
X03661Y0319*
X03661Y0319*
X03662Y0319*
X03662Y0319*
X03662Y0319*
X03663Y0319*
X03663Y03191*
X03664Y03191*
X03665Y03191*
X03666Y03191*
X03666*
X03666Y03191*
G37*
G36*
X03688Y03188D02*
X03688Y03188D01*
X03688Y03188*
X03688Y03188*
X03688Y03188*
X03688Y03188*
X03687Y03188*
X03687Y03187*
X03687Y03187*
X03687Y03187*
X03686Y03186*
X03686Y03186*
X03686Y03185*
X03686Y03185*
X03685Y03184*
X03685Y03184*
X03685Y03183*
X03684Y03183*
X03684Y03183*
X03684Y03183*
X03684Y03183*
X03684Y03182*
X03684Y03182*
X03684Y03182*
X03684Y03181*
X03683Y03181*
X03683Y0318*
X03683Y0318*
X03683Y03179*
X03682Y03178*
X03682Y03177*
Y03177*
X03682Y03177*
X03682Y03176*
X03682Y03176*
X03682Y03176*
X03682Y03176*
X03681Y03175*
X03681Y03175*
X03681Y03175*
X03681Y03174*
X03681Y03173*
X03681Y03172*
X03681Y03171*
X03678*
Y03171*
Y03172*
Y03172*
X03678Y03172*
Y03172*
X03679Y03172*
X03679Y03173*
X03679Y03173*
X03679Y03173*
X03679Y03174*
X03679Y03174*
X03679Y03175*
X03679Y03175*
X03679Y03176*
X03679Y03177*
Y03177*
X03679Y03177*
X03679Y03177*
X03679Y03177*
X0368Y03178*
X0368Y03178*
X0368Y03178*
X0368Y03179*
X0368Y03179*
X0368Y0318*
X03681Y03181*
X03681Y03182*
X03682Y03183*
X03682Y03183*
X03682Y03183*
X03682Y03183*
X03682Y03184*
X03682Y03184*
X03682Y03184*
X03683Y03184*
X03683Y03185*
X03683Y03186*
X03684Y03186*
X03684Y03187*
X03685Y03188*
X03676*
Y0319*
X03688*
Y03188*
G37*
G36*
X04075Y04307D02*
X04072D01*
Y04323*
X04067Y04307*
X04064*
X04059Y04323*
Y04307*
X04056*
Y04326*
X0406*
X04065Y04313*
Y04313*
X04065Y04313*
X04065Y04313*
X04065Y04312*
X04065Y04312*
X04065Y04312*
X04065Y04311*
X04065Y04311*
X04066Y0431*
X04066Y0431*
X04066Y0431*
X04066Y0431*
X04066Y0431*
X04066Y04311*
X04066Y04311*
X04066Y04312*
X04067Y04312*
X04067Y04313*
X04071Y04326*
X04075*
Y04307*
G37*
G36*
X04106D02*
X04104D01*
Y04322*
X04104Y04322*
X04104Y04322*
X04103Y04322*
X04103Y04322*
X04103Y04321*
X04102Y04321*
X04102Y04321*
X04102Y0432*
X04102*
X04101Y0432*
X04101Y0432*
X04101Y0432*
X04101Y0432*
X041Y0432*
X041Y0432*
X04099Y04319*
X04099Y04319*
Y04322*
X04099*
X04099Y04322*
X04099Y04322*
X04099Y04322*
X041Y04322*
X041Y04322*
X041Y04322*
X04101Y04323*
X04101Y04323*
X04102Y04323*
X04103Y04324*
X04103Y04324*
X04103Y04324*
X04103Y04324*
X04103Y04324*
X04103Y04324*
X04103Y04325*
X04104Y04325*
X04104Y04325*
X04104Y04326*
X04105Y04326*
X04106*
Y04307*
G37*
G36*
X04087Y04326D02*
X04087Y04326D01*
X04088Y04326*
X04088Y04326*
X04089Y04326*
X04089*
X04089Y04326*
X04089*
X04089Y04326*
X04089Y04326*
X0409Y04326*
X0409Y04326*
X04091Y04325*
X04091Y04325*
X04092Y04325*
X04092Y04325*
X04092Y04325*
X04092Y04325*
X04092Y04324*
X04092Y04324*
X04093Y04324*
X04093Y04323*
X04093Y04323*
X04094Y04322*
X04094Y04321*
Y04321*
X04094Y04321*
X04094Y04321*
X04094Y04321*
X04094Y04321*
X04094Y04321*
X04094Y0432*
X04094Y0432*
X04094Y0432*
X04094Y04319*
X04095Y04319*
X04095Y04318*
X04095Y04317*
Y04317*
Y04317*
Y04317*
Y04316*
X04095Y04316*
Y04316*
X04095Y04316*
X04095Y04315*
X04095Y04314*
X04094Y04314*
X04094Y04313*
Y04313*
X04094Y04313*
X04094Y04313*
X04094Y04313*
X04094Y04312*
X04094Y04312*
X04094Y04312*
X04093Y04311*
X04093Y04311*
X04093Y0431*
X04093Y0431*
X04093Y0431*
X04093Y0431*
X04092Y0431*
X04092Y04309*
X04092Y04309*
X04092Y04309*
X04091Y04308*
X04091Y04308*
X04091Y04308*
X04091Y04308*
X04091Y04308*
X0409Y04308*
X0409Y04308*
X04089Y04308*
X04089Y04307*
X04089*
X04089Y04307*
X04089Y04307*
X04088Y04307*
X04088Y04307*
X04088Y04307*
X04087Y04307*
X04086Y04307*
X04086Y04307*
X04079*
Y04326*
X04086*
X04087Y04326*
G37*
G36*
X09433Y03947D02*
X09433D01*
X09433*
X09433*
X09433Y03947*
X09432Y03947*
X09432Y03947*
X09432Y03947*
X09432Y03948*
X09432*
X09431Y03948*
X09431Y03948*
X09431Y03948*
X09431Y03948*
X0943Y03948*
X0943Y03948*
X09429Y03949*
X09429Y03949*
X09429*
X09429Y03949*
X09429Y03949*
X09429Y0395*
X09428Y0395*
X09428Y0395*
X09427Y03951*
X09427Y03951*
X09426Y03952*
X09426Y03952*
X09426Y03952*
X09426Y03952*
X09426Y03953*
X09425Y03953*
X09425Y03953*
X09425Y03954*
X09425Y03954*
X09424Y03955*
X09423Y03955*
X09423Y03956*
X09423Y03956*
X09422Y03956*
X09422Y03956*
X09422*
X09422Y03956*
X09422Y03957*
X09422Y03957*
X09421Y03957*
X09421Y03957*
X09421Y03957*
X0942Y03957*
X0942Y03957*
X09419Y03958*
X09419*
X09419*
X09419Y03958*
X09419Y03957*
X09418Y03957*
X09418Y03957*
X09418Y03957*
X09417Y03957*
X09417Y03957*
X09417Y03956*
X09417Y03956*
X09417Y03956*
X09416Y03956*
X09416Y03955*
X09416Y03955*
X09416Y03954*
X09416Y03954*
Y03954*
X09416Y03954*
X09416Y03953*
X09416Y03953*
X09416Y03952*
X09416Y03952*
X09417Y03952*
X09417Y03951*
X09417Y03951*
X09417Y03951*
X09417Y03951*
X09418Y03951*
X09418Y0395*
X09419Y0395*
X09419Y0395*
X0942Y0395*
X09419Y03948*
X09419*
X09419Y03948*
X09419*
X09419Y03948*
X09419Y03948*
X09419Y03948*
X09418Y03948*
X09418Y03948*
X09417Y03948*
X09417Y03949*
X09416Y03949*
X09416Y03949*
X09416Y03949*
X09415Y0395*
X09415Y0395*
X09415Y0395*
X09415Y0395*
X09415Y0395*
X09415Y0395*
X09415Y0395*
X09415Y0395*
X09415Y03951*
X09415Y03951*
X09414Y03951*
X09414Y03952*
X09414Y03952*
X09414Y03953*
X09414Y03953*
X09414Y03953*
X09414Y03954*
Y03954*
X09414Y03954*
X09414Y03955*
X09414Y03955*
X09414Y03955*
X09414Y03956*
X09414Y03956*
X09415Y03957*
X09415Y03957*
X09415Y03958*
X09415Y03958*
X09415Y03958*
X09415Y03958*
X09416Y03958*
X09416Y03958*
X09416Y03959*
X09416Y03959*
X09416Y03959*
X09416Y03959*
X09417Y03959*
X09417Y03959*
X09418Y0396*
X09418Y0396*
X09418Y0396*
X09419Y0396*
X09419Y0396*
X09419*
X09419*
X0942Y0396*
X0942Y0396*
X0942Y0396*
X09421Y0396*
X09421Y0396*
X09422Y03959*
X09422Y03959*
X09422Y03959*
X09422Y03959*
X09422Y03959*
X09423Y03959*
X09423Y03959*
X09423Y03958*
X09424Y03958*
X09424Y03958*
X09424Y03958*
X09424Y03958*
X09424Y03957*
X09425Y03957*
X09425Y03957*
X09425Y03957*
X09425Y03957*
X09425Y03956*
X09426Y03956*
X09426Y03956*
X09426Y03955*
X09427Y03955*
X09427Y03954*
X09427Y03954*
X09427Y03954*
X09427Y03954*
X09427Y03954*
X09428Y03954*
X09428Y03954*
X09428Y03953*
X09429Y03953*
X09429Y03952*
X09429Y03952*
X0943Y03952*
X0943Y03952*
X0943Y03952*
X0943Y03951*
X0943Y03951*
X0943Y03951*
X0943Y03951*
X0943Y03951*
X09431Y03951*
Y0396*
X09433*
Y03947*
G37*
G36*
X09427Y03945D02*
X09427Y03945D01*
X09428Y03945*
X09428Y03945*
X09428Y03945*
X09429Y03945*
X09429Y03945*
X0943Y03944*
X0943Y03944*
X09431Y03944*
X09431Y03943*
X09432Y03943*
X09432Y03943*
X09432Y03943*
X09432Y03942*
X09432Y03942*
X09432Y03942*
X09432Y03942*
X09432Y03942*
X09433Y03941*
X09433Y03941*
X09433Y03941*
X09433Y0394*
X09433Y0394*
X09433Y0394*
X09433Y03939*
X09433Y03939*
X09433Y03938*
X09434Y03937*
Y03937*
X09433Y03937*
Y03937*
X09433Y03936*
X09433Y03936*
X09433Y03936*
X09433Y03935*
X09433Y03934*
X09433Y03933*
X09432Y03933*
X09432Y03932*
X09432Y03932*
X09432Y03932*
X09432Y03932*
X09432Y03932*
X09432Y03932*
X09432Y03932*
X09432Y03932*
X09431Y03931*
X09431Y03931*
X09431Y03931*
X0943Y0393*
X09429Y0393*
X09429Y03929*
X09429*
X09428Y03929*
X09428Y03929*
X09428Y03929*
X09428Y03929*
X09428Y03929*
X09427Y03929*
X09427Y03929*
X09427Y03929*
X09426Y03929*
X09425Y03929*
X09424Y03929*
X09423Y03928*
X09423*
X09423*
X09423*
X09423Y03929*
X09423*
X09422Y03929*
X09422Y03929*
X09422Y03929*
X09421Y03929*
X0942Y03929*
X09419Y03929*
X09418Y0393*
X09418Y0393*
X09418Y0393*
X09418Y0393*
X09418Y0393*
X09418Y0393*
X09417Y0393*
X09417Y0393*
X09416Y03931*
X09416Y03931*
X09415Y03932*
X09415Y03933*
X09415Y03933*
X09415Y03933*
X09415Y03933*
X09415Y03933*
X09415Y03933*
X09414Y03934*
X09414Y03934*
X09414Y03934*
X09414Y03935*
X09414Y03935*
X09414Y03936*
X09414Y03937*
X09414Y03938*
Y03938*
X09414Y03938*
X09414Y03938*
X09414Y03939*
X09414Y03939*
X09414Y03939*
X09414Y0394*
X09414Y03941*
X09414Y03941*
X09415Y03942*
X09415Y03942*
X09415Y03942*
X09415Y03942*
X09415Y03942*
X09415Y03943*
X09415Y03943*
X09416Y03943*
X09416Y03943*
X09416Y03943*
X09416Y03943*
X09416Y03944*
X09417Y03944*
X09417Y03944*
X09417Y03944*
X09418Y03945*
X09418Y03945*
X09419Y03945*
X09419Y03945*
X0942Y03943*
X0942*
X0942Y03943*
X0942Y03943*
X0942Y03942*
X09419Y03942*
X09419Y03942*
X09419Y03942*
X09418Y03942*
X09418Y03942*
X09417Y03941*
X09417Y03941*
X09417Y03941*
X09417Y0394*
X09416Y0394*
X09416Y0394*
X09416Y03939*
X09416Y03939*
X09416Y03938*
X09416Y03937*
Y03937*
X09416Y03937*
Y03937*
X09416Y03937*
X09416Y03936*
X09416Y03936*
X09416Y03935*
X09417Y03934*
X09417Y03934*
Y03934*
X09417Y03934*
X09417Y03934*
X09417Y03933*
X09418Y03933*
X09418Y03933*
X09419Y03932*
X09419Y03932*
X0942Y03932*
X0942*
X0942Y03932*
X0942Y03932*
X0942Y03932*
X0942Y03932*
X0942Y03931*
X09421Y03931*
X09421Y03931*
X09422Y03931*
X09423Y03931*
X09423Y03931*
X09423*
X09424*
X09424*
X09424*
X09424Y03931*
X09424*
X09425Y03931*
X09425Y03931*
X09426Y03931*
X09426Y03931*
X09427Y03932*
X09428Y03932*
X09428*
X09428Y03932*
X09428Y03932*
X09428Y03932*
X09428Y03932*
X09429Y03932*
X09429Y03933*
X0943Y03933*
X0943Y03933*
X0943Y03934*
Y03934*
X0943Y03934*
X09431Y03934*
X09431Y03934*
X09431Y03934*
X09431Y03935*
X09431Y03935*
X09431Y03935*
X09431Y03936*
X09431Y03937*
X09431Y03937*
Y03937*
X09431Y03938*
Y03938*
X09431Y03938*
X09431Y03939*
X09431Y03939*
X09431Y0394*
X09431Y0394*
X0943Y03941*
X0943Y03941*
X0943Y03941*
X0943Y03941*
X0943Y03941*
X0943Y03941*
X0943Y03941*
X0943Y03941*
X09429Y03942*
X09429Y03942*
X09429Y03942*
X09429Y03942*
X09428Y03942*
X09428Y03942*
X09428Y03943*
X09427Y03943*
X09427Y03943*
X09426Y03943*
X09427Y03945*
X09427*
X09427Y03945*
G37*
G36*
X07903Y03191D02*
X07903Y03191D01*
X07904Y03191*
X07904Y03191*
X07904Y03191*
X07905Y03191*
X07906Y0319*
X07906Y0319*
X07907Y0319*
X07907Y0319*
X07907Y03189*
X07907Y03189*
X07907Y03189*
X07908Y03189*
X07908Y03189*
X07908Y03189*
X07908Y03189*
X07908Y03189*
X07908Y03188*
X07909Y03188*
X07909Y03188*
X07909Y03187*
X07909Y03187*
X0791Y03187*
X0791Y03186*
X0791Y03186*
X0791Y03185*
X07908Y03185*
Y03185*
X07908Y03185*
X07908Y03185*
X07907Y03185*
X07907Y03185*
X07907Y03185*
X07907Y03186*
X07907Y03186*
X07907Y03187*
X07906Y03187*
X07906Y03188*
X07906Y03188*
X07905Y03188*
X07905Y03188*
X07905Y03188*
X07904Y03188*
X07904Y03189*
X07903Y03189*
X07902Y03189*
X07902*
X07902Y03189*
X07902*
X07902Y03189*
X07901Y03189*
X07901Y03189*
X079Y03188*
X07899Y03188*
X07899Y03188*
X07899*
X07899Y03188*
X07899Y03187*
X07898Y03187*
X07898Y03187*
X07898Y03187*
X07897Y03186*
X07897Y03185*
X07897Y03185*
Y03185*
X07897Y03185*
X07897Y03185*
X07897Y03185*
X07897Y03184*
X07896Y03184*
X07896Y03184*
X07896Y03183*
X07896Y03183*
X07896Y03182*
X07896Y03181*
Y03181*
Y03181*
Y03181*
Y03181*
X07896Y03181*
Y0318*
X07896Y0318*
X07896Y0318*
X07896Y03179*
X07896Y03178*
X07897Y03178*
X07897Y03177*
Y03177*
X07897Y03177*
X07897Y03177*
X07897Y03177*
X07897Y03176*
X07897Y03176*
X07898Y03175*
X07898Y03175*
X07898Y03175*
X07899Y03174*
X07899*
X07899Y03174*
X07899Y03174*
X07899Y03174*
X07899Y03174*
X079Y03174*
X079Y03174*
X079Y03174*
X07901Y03173*
X07902Y03173*
X07902Y03173*
X07902*
X07903Y03173*
X07903*
X07903Y03173*
X07904Y03173*
X07904Y03174*
X07905Y03174*
X07905Y03174*
X07906Y03174*
X07906Y03174*
X07906Y03174*
X07906Y03175*
X07906Y03175*
X07906Y03175*
X07906Y03175*
X07906Y03175*
X07907Y03175*
X07907Y03175*
X07907Y03176*
X07907Y03176*
X07907Y03176*
X07907Y03177*
X07908Y03177*
X07908Y03177*
X07908Y03178*
X07908Y03178*
X0791Y03177*
Y03177*
X0791Y03177*
X0791Y03177*
X0791Y03177*
X0791Y03177*
X0791Y03176*
X0791Y03176*
X0791Y03176*
X07909Y03175*
X07909Y03174*
X07909Y03174*
X07908Y03173*
X07908Y03173*
X07908Y03173*
X07908Y03173*
X07907Y03173*
X07907Y03173*
X07907Y03172*
X07907Y03172*
X07907Y03172*
X07906Y03172*
X07906Y03172*
X07906Y03172*
X07905Y03172*
X07905Y03171*
X07905Y03171*
X07904Y03171*
X07904Y03171*
X07903Y03171*
X07903Y03171*
X07902*
X07902Y03171*
X07902*
X07901Y03171*
X07901Y03171*
X07901Y03171*
X079Y03171*
X07899Y03172*
X07898Y03172*
X07898Y03172*
X07897Y03172*
X07897Y03172*
X07897Y03172*
X07897Y03172*
X07897Y03173*
X07897Y03173*
X07897Y03173*
X07897Y03173*
X07896Y03173*
X07896Y03174*
X07896Y03174*
X07895Y03174*
X07895Y03175*
X07895Y03176*
Y03176*
X07894Y03176*
X07894Y03176*
X07894Y03176*
X07894Y03177*
X07894Y03177*
X07894Y03177*
X07894Y03178*
X07894Y03178*
X07894Y03178*
X07894Y03179*
X07894Y0318*
X07894Y03181*
Y03181*
Y03181*
Y03181*
X07894Y03182*
Y03182*
X07894Y03182*
X07894Y03183*
X07894Y03183*
X07894Y03184*
X07894Y03185*
X07894Y03185*
X07895Y03186*
X07895Y03186*
X07895Y03186*
X07895Y03187*
X07895Y03187*
X07895Y03187*
X07895Y03187*
X07895Y03188*
X07896Y03188*
X07896Y03189*
X07897Y03189*
X07898Y0319*
X07898Y0319*
X07898Y0319*
X07898Y0319*
X07898Y0319*
X07898Y0319*
X07899Y0319*
X07899Y0319*
X07899Y0319*
X079Y0319*
X079Y03191*
X07901Y03191*
X07902Y03191*
X07903Y03191*
X07903*
X07903Y03191*
G37*
G36*
X07925Y03188D02*
X07925Y03188D01*
X07925Y03188*
X07925Y03188*
X07925Y03188*
X07925Y03188*
X07925Y03188*
X07924Y03187*
X07924Y03187*
X07924Y03187*
X07923Y03186*
X07923Y03186*
X07923Y03185*
X07923Y03185*
X07922Y03184*
X07922Y03184*
X07922Y03183*
X07922Y03183*
X07921Y03183*
X07921Y03183*
X07921Y03183*
X07921Y03182*
X07921Y03182*
X07921Y03182*
X07921Y03181*
X0792Y03181*
X0792Y0318*
X0792Y0318*
X0792Y03179*
X07919Y03178*
X07919Y03177*
Y03177*
X07919Y03177*
X07919Y03176*
X07919Y03176*
X07919Y03176*
X07919Y03176*
X07918Y03175*
X07918Y03175*
X07918Y03175*
X07918Y03174*
X07918Y03173*
X07918Y03172*
X07918Y03171*
X07915*
Y03171*
Y03172*
Y03172*
X07915Y03172*
Y03172*
X07916Y03172*
X07916Y03173*
X07916Y03173*
X07916Y03173*
X07916Y03174*
X07916Y03174*
X07916Y03175*
X07916Y03175*
X07916Y03176*
X07916Y03177*
Y03177*
X07916Y03177*
X07916Y03177*
X07916Y03177*
X07917Y03178*
X07917Y03178*
X07917Y03178*
X07917Y03179*
X07917Y03179*
X07917Y0318*
X07918Y03181*
X07918Y03182*
X07919Y03183*
X07919Y03183*
X07919Y03183*
X07919Y03183*
X07919Y03184*
X07919Y03184*
X07919Y03184*
X0792Y03184*
X0792Y03185*
X0792Y03186*
X07921Y03186*
X07922Y03187*
X07922Y03188*
X07913*
Y0319*
X07925*
Y03188*
G37*
G36*
X08312Y04307D02*
X08309D01*
Y04323*
X08304Y04307*
X08301*
X08296Y04323*
Y04307*
X08294*
Y04326*
X08297*
X08302Y04313*
Y04313*
X08302Y04313*
X08302Y04313*
X08302Y04312*
X08302Y04312*
X08302Y04312*
X08302Y04311*
X08303Y04311*
X08303Y0431*
X08303Y0431*
X08303Y0431*
X08303Y0431*
X08303Y0431*
X08303Y04311*
X08303Y04311*
X08303Y04312*
X08304Y04312*
X08304Y04313*
X08308Y04326*
X08312*
Y04307*
G37*
G36*
X08343D02*
X08341D01*
Y04322*
X08341Y04322*
X08341Y04322*
X0834Y04322*
X0834Y04322*
X0834Y04321*
X08339Y04321*
X08339Y04321*
X08339Y0432*
X08339*
X08338Y0432*
X08338Y0432*
X08338Y0432*
X08338Y0432*
X08337Y0432*
X08337Y0432*
X08336Y04319*
X08336Y04319*
Y04322*
X08336*
X08336Y04322*
X08336Y04322*
X08336Y04322*
X08337Y04322*
X08337Y04322*
X08337Y04322*
X08338Y04323*
X08338Y04323*
X08339Y04323*
X0834Y04324*
X0834Y04324*
X0834Y04324*
X0834Y04324*
X0834Y04324*
X0834Y04324*
X0834Y04325*
X08341Y04325*
X08341Y04325*
X08341Y04326*
X08342Y04326*
X08343*
Y04307*
G37*
G36*
X08324Y04326D02*
X08324Y04326D01*
X08325Y04326*
X08325Y04326*
X08326Y04326*
X08326*
X08326Y04326*
X08326*
X08326Y04326*
X08326Y04326*
X08327Y04326*
X08327Y04326*
X08328Y04325*
X08328Y04325*
X08329Y04325*
X08329Y04325*
X08329Y04325*
X08329Y04325*
X08329Y04324*
X08329Y04324*
X0833Y04324*
X0833Y04323*
X0833Y04323*
X08331Y04322*
X08331Y04321*
Y04321*
X08331Y04321*
X08331Y04321*
X08331Y04321*
X08331Y04321*
X08331Y04321*
X08331Y0432*
X08331Y0432*
X08331Y0432*
X08332Y04319*
X08332Y04319*
X08332Y04318*
X08332Y04317*
Y04317*
Y04317*
Y04317*
Y04316*
X08332Y04316*
Y04316*
X08332Y04316*
X08332Y04315*
X08332Y04314*
X08331Y04314*
X08331Y04313*
Y04313*
X08331Y04313*
X08331Y04313*
X08331Y04313*
X08331Y04312*
X08331Y04312*
X08331Y04312*
X0833Y04311*
X0833Y04311*
X0833Y0431*
X0833Y0431*
X0833Y0431*
X0833Y0431*
X08329Y0431*
X08329Y04309*
X08329Y04309*
X08329Y04309*
X08328Y04308*
X08328Y04308*
X08328Y04308*
X08328Y04308*
X08328Y04308*
X08327Y04308*
X08327Y04308*
X08326Y04308*
X08326Y04307*
X08326*
X08326Y04307*
X08326Y04307*
X08325Y04307*
X08325Y04307*
X08325Y04307*
X08324Y04307*
X08323Y04307*
X08323Y04307*
X08316*
Y04326*
X08323*
X08324Y04326*
G37*
G36*
X05196Y06209D02*
X05196D01*
X05196*
X05196*
X05196Y06209*
X05195Y06209*
X05195Y06209*
X05195Y06209*
X05195Y0621*
X05195*
X05194Y0621*
X05194Y0621*
X05194Y0621*
X05194Y0621*
X05193Y0621*
X05193Y0621*
X05192Y06211*
X05192Y06211*
X05192*
X05192Y06211*
X05192Y06211*
X05192Y06212*
X05191Y06212*
X05191Y06212*
X0519Y06213*
X0519Y06213*
X05189Y06214*
X05189Y06214*
X05189Y06214*
X05189Y06214*
X05189Y06215*
X05188Y06215*
X05188Y06215*
X05188Y06216*
X05188Y06216*
X05187Y06217*
X05186Y06217*
X05186Y06218*
X05186Y06218*
X05185Y06218*
X05185Y06218*
X05185*
X05185Y06218*
X05185Y06219*
X05185Y06219*
X05184Y06219*
X05184Y06219*
X05184Y06219*
X05183Y06219*
X05183Y06219*
X05182Y0622*
X05182*
X05182*
X05182Y0622*
X05182Y06219*
X05181Y06219*
X05181Y06219*
X05181Y06219*
X0518Y06219*
X0518Y06219*
X0518Y06218*
X0518Y06218*
X0518Y06218*
X05179Y06218*
X05179Y06217*
X05179Y06217*
X05179Y06216*
X05179Y06216*
Y06216*
X05179Y06216*
X05179Y06215*
X05179Y06215*
X05179Y06214*
X05179Y06214*
X0518Y06214*
X0518Y06213*
X0518Y06213*
X0518Y06213*
X0518Y06213*
X05181Y06213*
X05181Y06212*
X05182Y06212*
X05182Y06212*
X05183Y06212*
X05182Y0621*
X05182*
X05182Y0621*
X05182*
X05182Y0621*
X05182Y0621*
X05182Y0621*
X05181Y0621*
X05181Y0621*
X0518Y0621*
X0518Y06211*
X05179Y06211*
X05179Y06211*
X05179Y06211*
X05178Y06212*
X05178Y06212*
X05178Y06212*
X05178Y06212*
X05178Y06212*
X05178Y06212*
X05178Y06212*
X05178Y06212*
X05178Y06213*
X05177Y06213*
X05177Y06213*
X05177Y06214*
X05177Y06214*
X05177Y06215*
X05177Y06215*
X05177Y06215*
X05177Y06216*
Y06216*
X05177Y06216*
X05177Y06217*
X05177Y06217*
X05177Y06217*
X05177Y06218*
X05177Y06218*
X05178Y06219*
X05178Y06219*
X05178Y0622*
X05178Y0622*
X05178Y0622*
X05178Y0622*
X05179Y0622*
X05179Y0622*
X05179Y06221*
X05179Y06221*
X05179Y06221*
X05179Y06221*
X0518Y06221*
X0518Y06221*
X05181Y06222*
X05181Y06222*
X05181Y06222*
X05182Y06222*
X05182Y06222*
X05182*
X05182*
X05183Y06222*
X05183Y06222*
X05183Y06222*
X05184Y06222*
X05184Y06222*
X05185Y06221*
X05185Y06221*
X05185Y06221*
X05185Y06221*
X05185Y06221*
X05186Y06221*
X05186Y06221*
X05186Y0622*
X05187Y0622*
X05187Y0622*
X05187Y0622*
X05187Y0622*
X05187Y06219*
X05188Y06219*
X05188Y06219*
X05188Y06219*
X05188Y06219*
X05188Y06218*
X05189Y06218*
X05189Y06218*
X05189Y06217*
X0519Y06217*
X0519Y06216*
X0519Y06216*
X0519Y06216*
X0519Y06216*
X0519Y06216*
X05191Y06216*
X05191Y06216*
X05191Y06215*
X05192Y06215*
X05192Y06214*
X05192Y06214*
X05193Y06214*
X05193Y06214*
X05193Y06214*
X05193Y06213*
X05193Y06213*
X05193Y06213*
X05193Y06213*
X05193Y06213*
X05194Y06213*
Y06222*
X05196*
Y06209*
G37*
G36*
X0519Y06207D02*
X0519Y06207D01*
X05191Y06207*
X05191Y06207*
X05191Y06207*
X05192Y06207*
X05192Y06207*
X05193Y06206*
X05193Y06206*
X05194Y06206*
X05194Y06205*
X05195Y06205*
X05195Y06205*
X05195Y06205*
X05195Y06204*
X05195Y06204*
X05195Y06204*
X05195Y06204*
X05195Y06204*
X05196Y06203*
X05196Y06203*
X05196Y06203*
X05196Y06202*
X05196Y06202*
X05196Y06202*
X05196Y06201*
X05196Y06201*
X05196Y062*
X05196Y06199*
Y06199*
X05196Y06199*
Y06199*
X05196Y06198*
X05196Y06198*
X05196Y06198*
X05196Y06197*
X05196Y06196*
X05196Y06195*
X05195Y06195*
X05195Y06194*
X05195Y06194*
X05195Y06194*
X05195Y06194*
X05195Y06194*
X05195Y06194*
X05195Y06194*
X05195Y06194*
X05194Y06193*
X05194Y06193*
X05194Y06193*
X05193Y06192*
X05192Y06192*
X05192Y06191*
X05192*
X05191Y06191*
X05191Y06191*
X05191Y06191*
X05191Y06191*
X05191Y06191*
X0519Y06191*
X0519Y06191*
X0519Y06191*
X05189Y06191*
X05188Y06191*
X05187Y06191*
X05186Y0619*
X05186*
X05186*
X05186*
X05186Y06191*
X05186*
X05185Y06191*
X05185Y06191*
X05185Y06191*
X05184Y06191*
X05183Y06191*
X05182Y06191*
X05181Y06192*
X05181Y06192*
X05181Y06192*
X05181Y06192*
X05181Y06192*
X05181Y06192*
X0518Y06192*
X0518Y06192*
X05179Y06193*
X05179Y06193*
X05178Y06194*
X05178Y06195*
X05178Y06195*
X05178Y06195*
X05178Y06195*
X05178Y06195*
X05178Y06195*
X05177Y06196*
X05177Y06196*
X05177Y06196*
X05177Y06197*
X05177Y06197*
X05177Y06198*
X05177Y06199*
X05177Y062*
Y062*
X05177Y062*
X05177Y062*
X05177Y06201*
X05177Y06201*
X05177Y06201*
X05177Y06202*
X05177Y06203*
X05177Y06203*
X05178Y06204*
X05178Y06204*
X05178Y06204*
X05178Y06204*
X05178Y06204*
X05178Y06205*
X05178Y06205*
X05179Y06205*
X05179Y06205*
X05179Y06205*
X05179Y06205*
X05179Y06206*
X0518Y06206*
X0518Y06206*
X0518Y06206*
X05181Y06207*
X05181Y06207*
X05182Y06207*
X05182Y06207*
X05183Y06205*
X05183*
X05183Y06205*
X05183Y06205*
X05183Y06204*
X05182Y06204*
X05182Y06204*
X05182Y06204*
X05181Y06204*
X05181Y06204*
X0518Y06203*
X0518Y06203*
X0518Y06203*
X0518Y06202*
X05179Y06202*
X05179Y06202*
X05179Y06201*
X05179Y06201*
X05179Y062*
X05179Y06199*
Y06199*
X05179Y06199*
Y06199*
X05179Y06199*
X05179Y06198*
X05179Y06198*
X05179Y06197*
X0518Y06196*
X0518Y06196*
Y06196*
X0518Y06196*
X0518Y06196*
X0518Y06195*
X05181Y06195*
X05181Y06195*
X05182Y06194*
X05182Y06194*
X05183Y06194*
X05183*
X05183Y06194*
X05183Y06194*
X05183Y06194*
X05183Y06194*
X05183Y06193*
X05184Y06193*
X05184Y06193*
X05185Y06193*
X05186Y06193*
X05186Y06193*
X05186*
X05187*
X05187*
X05187*
X05187Y06193*
X05187*
X05188Y06193*
X05188Y06193*
X05189Y06193*
X05189Y06193*
X0519Y06194*
X05191Y06194*
X05191*
X05191Y06194*
X05191Y06194*
X05191Y06194*
X05191Y06194*
X05192Y06194*
X05192Y06195*
X05193Y06195*
X05193Y06195*
X05193Y06196*
Y06196*
X05193Y06196*
X05194Y06196*
X05194Y06196*
X05194Y06196*
X05194Y06197*
X05194Y06197*
X05194Y06197*
X05194Y06198*
X05194Y06199*
X05194Y06199*
Y06199*
X05194Y062*
Y062*
X05194Y062*
X05194Y06201*
X05194Y06201*
X05194Y06202*
X05194Y06202*
X05193Y06203*
X05193Y06203*
X05193Y06203*
X05193Y06203*
X05193Y06203*
X05193Y06203*
X05193Y06203*
X05193Y06203*
X05192Y06204*
X05192Y06204*
X05192Y06204*
X05192Y06204*
X05191Y06204*
X05191Y06204*
X05191Y06205*
X0519Y06205*
X0519Y06205*
X05189Y06205*
X0519Y06207*
X0519*
X0519Y06207*
G37*
G36*
X03666Y05453D02*
X03666Y05453D01*
X03667Y05453*
X03667Y05453*
X03667Y05453*
X03668Y05453*
X03669Y05452*
X03669Y05452*
X0367Y05452*
X0367Y05452*
X0367Y05451*
X0367Y05451*
X0367Y05451*
X03671Y05451*
X03671Y05451*
X03671Y05451*
X03671Y05451*
X03671Y05451*
X03671Y0545*
X03672Y0545*
X03672Y0545*
X03672Y05449*
X03672Y05449*
X03673Y05449*
X03673Y05448*
X03673Y05448*
X03673Y05447*
X03671Y05447*
Y05447*
X03671Y05447*
X03671Y05447*
X0367Y05447*
X0367Y05447*
X0367Y05447*
X0367Y05448*
X0367Y05448*
X0367Y05449*
X03669Y05449*
X03669Y0545*
X03669Y0545*
X03668Y0545*
X03668Y0545*
X03668Y0545*
X03667Y0545*
X03667Y05451*
X03666Y05451*
X03665Y05451*
X03665*
X03665Y05451*
X03665*
X03665Y05451*
X03664Y05451*
X03664Y05451*
X03663Y0545*
X03662Y0545*
X03662Y0545*
X03662*
X03662Y0545*
X03662Y05449*
X03661Y05449*
X03661Y05449*
X03661Y05449*
X0366Y05448*
X0366Y05447*
X0366Y05447*
Y05447*
X0366Y05447*
X0366Y05447*
X0366Y05447*
X0366Y05446*
X03659Y05446*
X03659Y05446*
X03659Y05445*
X03659Y05445*
X03659Y05444*
X03659Y05443*
Y05443*
Y05443*
Y05443*
Y05443*
X03659Y05443*
Y05442*
X03659Y05442*
X03659Y05442*
X03659Y05441*
X03659Y0544*
X0366Y0544*
X0366Y05439*
Y05439*
X0366Y05439*
X0366Y05439*
X0366Y05439*
X0366Y05438*
X0366Y05438*
X03661Y05437*
X03661Y05437*
X03661Y05437*
X03662Y05436*
X03662*
X03662Y05436*
X03662Y05436*
X03662Y05436*
X03662Y05436*
X03663Y05436*
X03663Y05436*
X03663Y05436*
X03664Y05435*
X03665Y05435*
X03665Y05435*
X03665*
X03666Y05435*
X03666*
X03666Y05435*
X03667Y05435*
X03667Y05436*
X03668Y05436*
X03668Y05436*
X03669Y05436*
X03669Y05436*
X03669Y05436*
X03669Y05437*
X03669Y05437*
X03669Y05437*
X03669Y05437*
X03669Y05437*
X0367Y05437*
X0367Y05437*
X0367Y05438*
X0367Y05438*
X0367Y05438*
X0367Y05439*
X03671Y05439*
X03671Y05439*
X03671Y0544*
X03671Y0544*
X03673Y05439*
Y05439*
X03673Y05439*
X03673Y05439*
X03673Y05439*
X03673Y05439*
X03673Y05438*
X03673Y05438*
X03673Y05438*
X03672Y05437*
X03672Y05436*
X03672Y05436*
X03671Y05435*
X03671Y05435*
X03671Y05435*
X03671Y05435*
X0367Y05435*
X0367Y05435*
X0367Y05434*
X0367Y05434*
X0367Y05434*
X03669Y05434*
X03669Y05434*
X03669Y05434*
X03668Y05434*
X03668Y05433*
X03668Y05433*
X03667Y05433*
X03667Y05433*
X03666Y05433*
X03665Y05433*
X03665*
X03665Y05433*
X03665*
X03664Y05433*
X03664Y05433*
X03664Y05433*
X03663Y05433*
X03662Y05434*
X03661Y05434*
X03661Y05434*
X0366Y05434*
X0366Y05434*
X0366Y05434*
X0366Y05434*
X0366Y05435*
X0366Y05435*
X0366Y05435*
X0366Y05435*
X03659Y05435*
X03659Y05436*
X03659Y05436*
X03658Y05436*
X03658Y05437*
X03657Y05438*
Y05438*
X03657Y05438*
X03657Y05438*
X03657Y05438*
X03657Y05439*
X03657Y05439*
X03657Y05439*
X03657Y0544*
X03657Y0544*
X03657Y0544*
X03657Y05441*
X03657Y05442*
X03656Y05443*
Y05443*
Y05443*
Y05443*
X03657Y05444*
Y05444*
X03657Y05444*
X03657Y05445*
X03657Y05445*
X03657Y05446*
X03657Y05447*
X03657Y05447*
X03658Y05448*
X03658Y05448*
X03658Y05448*
X03658Y05449*
X03658Y05449*
X03658Y05449*
X03658Y05449*
X03658Y0545*
X03659Y0545*
X03659Y05451*
X0366Y05451*
X03661Y05452*
X03661Y05452*
X03661Y05452*
X03661Y05452*
X03661Y05452*
X03661Y05452*
X03662Y05452*
X03662Y05452*
X03662Y05452*
X03663Y05452*
X03663Y05453*
X03664Y05453*
X03665Y05453*
X03666Y05453*
X03666*
X03666Y05453*
G37*
G36*
X03688Y0545D02*
X03688Y0545D01*
X03688Y0545*
X03688Y0545*
X03688Y0545*
X03688Y0545*
X03687Y0545*
X03687Y05449*
X03687Y05449*
X03687Y05449*
X03686Y05448*
X03686Y05448*
X03686Y05447*
X03686Y05447*
X03685Y05446*
X03685Y05446*
X03685Y05445*
X03684Y05445*
X03684Y05445*
X03684Y05445*
X03684Y05445*
X03684Y05444*
X03684Y05444*
X03684Y05444*
X03684Y05443*
X03683Y05443*
X03683Y05442*
X03683Y05442*
X03683Y05441*
X03682Y0544*
X03682Y05439*
Y05439*
X03682Y05439*
X03682Y05438*
X03682Y05438*
X03682Y05438*
X03682Y05438*
X03681Y05437*
X03681Y05437*
X03681Y05437*
X03681Y05436*
X03681Y05435*
X03681Y05434*
X03681Y05433*
X03678*
Y05433*
Y05434*
Y05434*
X03678Y05434*
Y05434*
X03679Y05434*
X03679Y05435*
X03679Y05435*
X03679Y05435*
X03679Y05436*
X03679Y05436*
X03679Y05437*
X03679Y05437*
X03679Y05438*
X03679Y05439*
Y05439*
X03679Y05439*
X03679Y05439*
X03679Y05439*
X0368Y0544*
X0368Y0544*
X0368Y0544*
X0368Y05441*
X0368Y05441*
X0368Y05442*
X03681Y05443*
X03681Y05444*
X03682Y05445*
X03682Y05445*
X03682Y05445*
X03682Y05445*
X03682Y05446*
X03682Y05446*
X03682Y05446*
X03683Y05446*
X03683Y05447*
X03683Y05448*
X03684Y05448*
X03684Y05449*
X03685Y0545*
X03676*
Y05452*
X03688*
Y0545*
G37*
G36*
X04075Y06569D02*
X04072D01*
Y06585*
X04067Y06569*
X04064*
X04059Y06585*
Y06569*
X04056*
Y06588*
X0406*
X04065Y06575*
Y06575*
X04065Y06575*
X04065Y06575*
X04065Y06574*
X04065Y06574*
X04065Y06574*
X04065Y06573*
X04065Y06573*
X04066Y06572*
X04066Y06572*
X04066Y06572*
X04066Y06572*
X04066Y06572*
X04066Y06573*
X04066Y06573*
X04066Y06574*
X04067Y06574*
X04067Y06575*
X04071Y06588*
X04075*
Y06569*
G37*
G36*
X04106D02*
X04104D01*
Y06584*
X04104Y06584*
X04104Y06584*
X04103Y06584*
X04103Y06584*
X04103Y06583*
X04102Y06583*
X04102Y06583*
X04102Y06582*
X04102*
X04101Y06582*
X04101Y06582*
X04101Y06582*
X04101Y06582*
X041Y06582*
X041Y06582*
X04099Y06581*
X04099Y06581*
Y06584*
X04099*
X04099Y06584*
X04099Y06584*
X04099Y06584*
X041Y06584*
X041Y06584*
X041Y06584*
X04101Y06585*
X04101Y06585*
X04102Y06585*
X04103Y06586*
X04103Y06586*
X04103Y06586*
X04103Y06586*
X04103Y06586*
X04103Y06586*
X04103Y06587*
X04104Y06587*
X04104Y06587*
X04104Y06588*
X04105Y06588*
X04106*
Y06569*
G37*
G36*
X04087Y06588D02*
X04087Y06588D01*
X04088Y06588*
X04088Y06588*
X04089Y06588*
X04089*
X04089Y06588*
X04089*
X04089Y06588*
X04089Y06588*
X0409Y06588*
X0409Y06588*
X04091Y06587*
X04091Y06587*
X04092Y06587*
X04092Y06587*
X04092Y06587*
X04092Y06587*
X04092Y06586*
X04092Y06586*
X04093Y06586*
X04093Y06585*
X04093Y06585*
X04094Y06584*
X04094Y06583*
Y06583*
X04094Y06583*
X04094Y06583*
X04094Y06583*
X04094Y06583*
X04094Y06583*
X04094Y06582*
X04094Y06582*
X04094Y06582*
X04094Y06581*
X04095Y06581*
X04095Y0658*
X04095Y06579*
Y06579*
Y06579*
Y06579*
Y06578*
X04095Y06578*
Y06578*
X04095Y06578*
X04095Y06577*
X04095Y06576*
X04094Y06576*
X04094Y06575*
Y06575*
X04094Y06575*
X04094Y06575*
X04094Y06575*
X04094Y06574*
X04094Y06574*
X04094Y06574*
X04093Y06573*
X04093Y06573*
X04093Y06572*
X04093Y06572*
X04093Y06572*
X04093Y06572*
X04092Y06572*
X04092Y06571*
X04092Y06571*
X04092Y06571*
X04091Y0657*
X04091Y0657*
X04091Y0657*
X04091Y0657*
X04091Y0657*
X0409Y0657*
X0409Y0657*
X04089Y0657*
X04089Y06569*
X04089*
X04089Y06569*
X04089Y06569*
X04088Y06569*
X04088Y06569*
X04088Y06569*
X04087Y06569*
X04086Y06569*
X04086Y06569*
X04079*
Y06588*
X04086*
X04087Y06588*
G37*
G36*
X09433Y06209D02*
X09433D01*
X09433*
X09433*
X09433Y06209*
X09432Y06209*
X09432Y06209*
X09432Y06209*
X09432Y0621*
X09432*
X09431Y0621*
X09431Y0621*
X09431Y0621*
X09431Y0621*
X0943Y0621*
X0943Y0621*
X09429Y06211*
X09429Y06211*
X09429*
X09429Y06211*
X09429Y06211*
X09429Y06212*
X09428Y06212*
X09428Y06212*
X09427Y06213*
X09427Y06213*
X09426Y06214*
X09426Y06214*
X09426Y06214*
X09426Y06214*
X09426Y06215*
X09425Y06215*
X09425Y06215*
X09425Y06216*
X09425Y06216*
X09424Y06217*
X09423Y06217*
X09423Y06218*
X09423Y06218*
X09422Y06218*
X09422Y06218*
X09422*
X09422Y06218*
X09422Y06219*
X09422Y06219*
X09421Y06219*
X09421Y06219*
X09421Y06219*
X0942Y06219*
X0942Y06219*
X09419Y0622*
X09419*
X09419*
X09419Y0622*
X09419Y06219*
X09418Y06219*
X09418Y06219*
X09418Y06219*
X09417Y06219*
X09417Y06219*
X09417Y06218*
X09417Y06218*
X09417Y06218*
X09416Y06218*
X09416Y06217*
X09416Y06217*
X09416Y06216*
X09416Y06216*
Y06216*
X09416Y06216*
X09416Y06215*
X09416Y06215*
X09416Y06214*
X09416Y06214*
X09417Y06214*
X09417Y06213*
X09417Y06213*
X09417Y06213*
X09417Y06213*
X09418Y06213*
X09418Y06212*
X09419Y06212*
X09419Y06212*
X0942Y06212*
X09419Y0621*
X09419*
X09419Y0621*
X09419*
X09419Y0621*
X09419Y0621*
X09419Y0621*
X09418Y0621*
X09418Y0621*
X09417Y0621*
X09417Y06211*
X09416Y06211*
X09416Y06211*
X09416Y06211*
X09415Y06212*
X09415Y06212*
X09415Y06212*
X09415Y06212*
X09415Y06212*
X09415Y06212*
X09415Y06212*
X09415Y06212*
X09415Y06213*
X09415Y06213*
X09414Y06213*
X09414Y06214*
X09414Y06214*
X09414Y06215*
X09414Y06215*
X09414Y06215*
X09414Y06216*
Y06216*
X09414Y06216*
X09414Y06217*
X09414Y06217*
X09414Y06217*
X09414Y06218*
X09414Y06218*
X09415Y06219*
X09415Y06219*
X09415Y0622*
X09415Y0622*
X09415Y0622*
X09415Y0622*
X09416Y0622*
X09416Y0622*
X09416Y06221*
X09416Y06221*
X09416Y06221*
X09416Y06221*
X09417Y06221*
X09417Y06221*
X09418Y06222*
X09418Y06222*
X09418Y06222*
X09419Y06222*
X09419Y06222*
X09419*
X09419*
X0942Y06222*
X0942Y06222*
X0942Y06222*
X09421Y06222*
X09421Y06222*
X09422Y06221*
X09422Y06221*
X09422Y06221*
X09422Y06221*
X09422Y06221*
X09423Y06221*
X09423Y06221*
X09423Y0622*
X09424Y0622*
X09424Y0622*
X09424Y0622*
X09424Y0622*
X09424Y06219*
X09425Y06219*
X09425Y06219*
X09425Y06219*
X09425Y06219*
X09425Y06218*
X09426Y06218*
X09426Y06218*
X09426Y06217*
X09427Y06217*
X09427Y06216*
X09427Y06216*
X09427Y06216*
X09427Y06216*
X09427Y06216*
X09428Y06216*
X09428Y06216*
X09428Y06215*
X09429Y06215*
X09429Y06214*
X09429Y06214*
X0943Y06214*
X0943Y06214*
X0943Y06214*
X0943Y06213*
X0943Y06213*
X0943Y06213*
X0943Y06213*
X0943Y06213*
X09431Y06213*
Y06222*
X09433*
Y06209*
G37*
G36*
X09427Y06207D02*
X09427Y06207D01*
X09428Y06207*
X09428Y06207*
X09428Y06207*
X09429Y06207*
X09429Y06207*
X0943Y06206*
X0943Y06206*
X09431Y06206*
X09431Y06205*
X09432Y06205*
X09432Y06205*
X09432Y06205*
X09432Y06204*
X09432Y06204*
X09432Y06204*
X09432Y06204*
X09432Y06204*
X09433Y06203*
X09433Y06203*
X09433Y06203*
X09433Y06202*
X09433Y06202*
X09433Y06202*
X09433Y06201*
X09433Y06201*
X09433Y062*
X09434Y06199*
Y06199*
X09433Y06199*
Y06199*
X09433Y06198*
X09433Y06198*
X09433Y06198*
X09433Y06197*
X09433Y06196*
X09433Y06195*
X09432Y06195*
X09432Y06194*
X09432Y06194*
X09432Y06194*
X09432Y06194*
X09432Y06194*
X09432Y06194*
X09432Y06194*
X09432Y06194*
X09431Y06193*
X09431Y06193*
X09431Y06193*
X0943Y06192*
X09429Y06192*
X09429Y06191*
X09429*
X09428Y06191*
X09428Y06191*
X09428Y06191*
X09428Y06191*
X09428Y06191*
X09427Y06191*
X09427Y06191*
X09427Y06191*
X09426Y06191*
X09425Y06191*
X09424Y06191*
X09423Y0619*
X09423*
X09423*
X09423*
X09423Y06191*
X09423*
X09422Y06191*
X09422Y06191*
X09422Y06191*
X09421Y06191*
X0942Y06191*
X09419Y06191*
X09418Y06192*
X09418Y06192*
X09418Y06192*
X09418Y06192*
X09418Y06192*
X09418Y06192*
X09417Y06192*
X09417Y06192*
X09416Y06193*
X09416Y06193*
X09415Y06194*
X09415Y06195*
X09415Y06195*
X09415Y06195*
X09415Y06195*
X09415Y06195*
X09415Y06195*
X09414Y06196*
X09414Y06196*
X09414Y06196*
X09414Y06197*
X09414Y06197*
X09414Y06198*
X09414Y06199*
X09414Y062*
Y062*
X09414Y062*
X09414Y062*
X09414Y06201*
X09414Y06201*
X09414Y06201*
X09414Y06202*
X09414Y06203*
X09414Y06203*
X09415Y06204*
X09415Y06204*
X09415Y06204*
X09415Y06204*
X09415Y06204*
X09415Y06205*
X09415Y06205*
X09416Y06205*
X09416Y06205*
X09416Y06205*
X09416Y06205*
X09416Y06206*
X09417Y06206*
X09417Y06206*
X09417Y06206*
X09418Y06207*
X09418Y06207*
X09419Y06207*
X09419Y06207*
X0942Y06205*
X0942*
X0942Y06205*
X0942Y06205*
X0942Y06204*
X09419Y06204*
X09419Y06204*
X09419Y06204*
X09418Y06204*
X09418Y06204*
X09417Y06203*
X09417Y06203*
X09417Y06203*
X09417Y06202*
X09416Y06202*
X09416Y06202*
X09416Y06201*
X09416Y06201*
X09416Y062*
X09416Y06199*
Y06199*
X09416Y06199*
Y06199*
X09416Y06199*
X09416Y06198*
X09416Y06198*
X09416Y06197*
X09417Y06196*
X09417Y06196*
Y06196*
X09417Y06196*
X09417Y06196*
X09417Y06195*
X09418Y06195*
X09418Y06195*
X09419Y06194*
X09419Y06194*
X0942Y06194*
X0942*
X0942Y06194*
X0942Y06194*
X0942Y06194*
X0942Y06194*
X0942Y06193*
X09421Y06193*
X09421Y06193*
X09422Y06193*
X09423Y06193*
X09423Y06193*
X09423*
X09424*
X09424*
X09424*
X09424Y06193*
X09424*
X09425Y06193*
X09425Y06193*
X09426Y06193*
X09426Y06193*
X09427Y06194*
X09428Y06194*
X09428*
X09428Y06194*
X09428Y06194*
X09428Y06194*
X09428Y06194*
X09429Y06194*
X09429Y06195*
X0943Y06195*
X0943Y06195*
X0943Y06196*
Y06196*
X0943Y06196*
X09431Y06196*
X09431Y06196*
X09431Y06196*
X09431Y06197*
X09431Y06197*
X09431Y06197*
X09431Y06198*
X09431Y06199*
X09431Y06199*
Y06199*
X09431Y062*
Y062*
X09431Y062*
X09431Y06201*
X09431Y06201*
X09431Y06202*
X09431Y06202*
X0943Y06203*
X0943Y06203*
X0943Y06203*
X0943Y06203*
X0943Y06203*
X0943Y06203*
X0943Y06203*
X0943Y06203*
X09429Y06204*
X09429Y06204*
X09429Y06204*
X09429Y06204*
X09428Y06204*
X09428Y06204*
X09428Y06205*
X09427Y06205*
X09427Y06205*
X09426Y06205*
X09427Y06207*
X09427*
X09427Y06207*
G37*
G36*
X07903Y05453D02*
X07903Y05453D01*
X07904Y05453*
X07904Y05453*
X07904Y05453*
X07905Y05453*
X07906Y05452*
X07906Y05452*
X07907Y05452*
X07907Y05452*
X07907Y05451*
X07907Y05451*
X07907Y05451*
X07908Y05451*
X07908Y05451*
X07908Y05451*
X07908Y05451*
X07908Y05451*
X07908Y0545*
X07909Y0545*
X07909Y0545*
X07909Y05449*
X07909Y05449*
X0791Y05449*
X0791Y05448*
X0791Y05448*
X0791Y05447*
X07908Y05447*
Y05447*
X07908Y05447*
X07908Y05447*
X07907Y05447*
X07907Y05447*
X07907Y05447*
X07907Y05448*
X07907Y05448*
X07907Y05449*
X07906Y05449*
X07906Y0545*
X07906Y0545*
X07905Y0545*
X07905Y0545*
X07905Y0545*
X07904Y0545*
X07904Y05451*
X07903Y05451*
X07902Y05451*
X07902*
X07902Y05451*
X07902*
X07902Y05451*
X07901Y05451*
X07901Y05451*
X079Y0545*
X07899Y0545*
X07899Y0545*
X07899*
X07899Y0545*
X07899Y05449*
X07898Y05449*
X07898Y05449*
X07898Y05449*
X07897Y05448*
X07897Y05447*
X07897Y05447*
Y05447*
X07897Y05447*
X07897Y05447*
X07897Y05447*
X07897Y05446*
X07896Y05446*
X07896Y05446*
X07896Y05445*
X07896Y05445*
X07896Y05444*
X07896Y05443*
Y05443*
Y05443*
Y05443*
Y05443*
X07896Y05443*
Y05442*
X07896Y05442*
X07896Y05442*
X07896Y05441*
X07896Y0544*
X07897Y0544*
X07897Y05439*
Y05439*
X07897Y05439*
X07897Y05439*
X07897Y05439*
X07897Y05438*
X07897Y05438*
X07898Y05437*
X07898Y05437*
X07898Y05437*
X07899Y05436*
X07899*
X07899Y05436*
X07899Y05436*
X07899Y05436*
X07899Y05436*
X079Y05436*
X079Y05436*
X079Y05436*
X07901Y05435*
X07902Y05435*
X07902Y05435*
X07902*
X07903Y05435*
X07903*
X07903Y05435*
X07904Y05435*
X07904Y05436*
X07905Y05436*
X07905Y05436*
X07906Y05436*
X07906Y05436*
X07906Y05436*
X07906Y05437*
X07906Y05437*
X07906Y05437*
X07906Y05437*
X07906Y05437*
X07907Y05437*
X07907Y05437*
X07907Y05438*
X07907Y05438*
X07907Y05438*
X07907Y05439*
X07908Y05439*
X07908Y05439*
X07908Y0544*
X07908Y0544*
X0791Y05439*
Y05439*
X0791Y05439*
X0791Y05439*
X0791Y05439*
X0791Y05439*
X0791Y05438*
X0791Y05438*
X0791Y05438*
X07909Y05437*
X07909Y05436*
X07909Y05436*
X07908Y05435*
X07908Y05435*
X07908Y05435*
X07908Y05435*
X07907Y05435*
X07907Y05435*
X07907Y05434*
X07907Y05434*
X07907Y05434*
X07906Y05434*
X07906Y05434*
X07906Y05434*
X07905Y05434*
X07905Y05433*
X07905Y05433*
X07904Y05433*
X07904Y05433*
X07903Y05433*
X07903Y05433*
X07902*
X07902Y05433*
X07902*
X07901Y05433*
X07901Y05433*
X07901Y05433*
X079Y05433*
X07899Y05434*
X07898Y05434*
X07898Y05434*
X07897Y05434*
X07897Y05434*
X07897Y05434*
X07897Y05434*
X07897Y05435*
X07897Y05435*
X07897Y05435*
X07897Y05435*
X07896Y05435*
X07896Y05436*
X07896Y05436*
X07895Y05436*
X07895Y05437*
X07895Y05438*
Y05438*
X07894Y05438*
X07894Y05438*
X07894Y05438*
X07894Y05439*
X07894Y05439*
X07894Y05439*
X07894Y0544*
X07894Y0544*
X07894Y0544*
X07894Y05441*
X07894Y05442*
X07894Y05443*
Y05443*
Y05443*
Y05443*
X07894Y05444*
Y05444*
X07894Y05444*
X07894Y05445*
X07894Y05445*
X07894Y05446*
X07894Y05447*
X07894Y05447*
X07895Y05448*
X07895Y05448*
X07895Y05448*
X07895Y05449*
X07895Y05449*
X07895Y05449*
X07895Y05449*
X07895Y0545*
X07896Y0545*
X07896Y05451*
X07897Y05451*
X07898Y05452*
X07898Y05452*
X07898Y05452*
X07898Y05452*
X07898Y05452*
X07898Y05452*
X07899Y05452*
X07899Y05452*
X07899Y05452*
X079Y05452*
X079Y05453*
X07901Y05453*
X07902Y05453*
X07903Y05453*
X07903*
X07903Y05453*
G37*
G36*
X07925Y0545D02*
X07925Y0545D01*
X07925Y0545*
X07925Y0545*
X07925Y0545*
X07925Y0545*
X07925Y0545*
X07924Y05449*
X07924Y05449*
X07924Y05449*
X07923Y05448*
X07923Y05448*
X07923Y05447*
X07923Y05447*
X07922Y05446*
X07922Y05446*
X07922Y05445*
X07922Y05445*
X07921Y05445*
X07921Y05445*
X07921Y05445*
X07921Y05444*
X07921Y05444*
X07921Y05444*
X07921Y05443*
X0792Y05443*
X0792Y05442*
X0792Y05442*
X0792Y05441*
X07919Y0544*
X07919Y05439*
Y05439*
X07919Y05439*
X07919Y05438*
X07919Y05438*
X07919Y05438*
X07919Y05438*
X07918Y05437*
X07918Y05437*
X07918Y05437*
X07918Y05436*
X07918Y05435*
X07918Y05434*
X07918Y05433*
X07915*
Y05433*
Y05434*
Y05434*
X07915Y05434*
Y05434*
X07916Y05434*
X07916Y05435*
X07916Y05435*
X07916Y05435*
X07916Y05436*
X07916Y05436*
X07916Y05437*
X07916Y05437*
X07916Y05438*
X07916Y05439*
Y05439*
X07916Y05439*
X07916Y05439*
X07916Y05439*
X07917Y0544*
X07917Y0544*
X07917Y0544*
X07917Y05441*
X07917Y05441*
X07917Y05442*
X07918Y05443*
X07918Y05444*
X07919Y05445*
X07919Y05445*
X07919Y05445*
X07919Y05445*
X07919Y05446*
X07919Y05446*
X07919Y05446*
X0792Y05446*
X0792Y05447*
X0792Y05448*
X07921Y05448*
X07922Y05449*
X07922Y0545*
X07913*
Y05452*
X07925*
Y0545*
G37*
G36*
X08312Y06569D02*
X08309D01*
Y06585*
X08304Y06569*
X08301*
X08296Y06585*
Y06569*
X08294*
Y06588*
X08297*
X08302Y06575*
Y06575*
X08302Y06575*
X08302Y06575*
X08302Y06574*
X08302Y06574*
X08302Y06574*
X08302Y06573*
X08303Y06573*
X08303Y06572*
X08303Y06572*
X08303Y06572*
X08303Y06572*
X08303Y06572*
X08303Y06573*
X08303Y06573*
X08303Y06574*
X08304Y06574*
X08304Y06575*
X08308Y06588*
X08312*
Y06569*
G37*
G36*
X08343D02*
X08341D01*
Y06584*
X08341Y06584*
X08341Y06584*
X0834Y06584*
X0834Y06584*
X0834Y06583*
X08339Y06583*
X08339Y06583*
X08339Y06582*
X08339*
X08338Y06582*
X08338Y06582*
X08338Y06582*
X08338Y06582*
X08337Y06582*
X08337Y06582*
X08336Y06581*
X08336Y06581*
Y06584*
X08336*
X08336Y06584*
X08336Y06584*
X08336Y06584*
X08337Y06584*
X08337Y06584*
X08337Y06584*
X08338Y06585*
X08338Y06585*
X08339Y06585*
X0834Y06586*
X0834Y06586*
X0834Y06586*
X0834Y06586*
X0834Y06586*
X0834Y06586*
X0834Y06587*
X08341Y06587*
X08341Y06587*
X08341Y06588*
X08342Y06588*
X08343*
Y06569*
G37*
G36*
X08324Y06588D02*
X08324Y06588D01*
X08325Y06588*
X08325Y06588*
X08326Y06588*
X08326*
X08326Y06588*
X08326*
X08326Y06588*
X08326Y06588*
X08327Y06588*
X08327Y06588*
X08328Y06587*
X08328Y06587*
X08329Y06587*
X08329Y06587*
X08329Y06587*
X08329Y06587*
X08329Y06586*
X08329Y06586*
X0833Y06586*
X0833Y06585*
X0833Y06585*
X08331Y06584*
X08331Y06583*
Y06583*
X08331Y06583*
X08331Y06583*
X08331Y06583*
X08331Y06583*
X08331Y06583*
X08331Y06582*
X08331Y06582*
X08331Y06582*
X08332Y06581*
X08332Y06581*
X08332Y0658*
X08332Y06579*
Y06579*
Y06579*
Y06579*
Y06578*
X08332Y06578*
Y06578*
X08332Y06578*
X08332Y06577*
X08332Y06576*
X08331Y06576*
X08331Y06575*
Y06575*
X08331Y06575*
X08331Y06575*
X08331Y06575*
X08331Y06574*
X08331Y06574*
X08331Y06574*
X0833Y06573*
X0833Y06573*
X0833Y06572*
X0833Y06572*
X0833Y06572*
X0833Y06572*
X08329Y06572*
X08329Y06571*
X08329Y06571*
X08329Y06571*
X08328Y0657*
X08328Y0657*
X08328Y0657*
X08328Y0657*
X08328Y0657*
X08327Y0657*
X08327Y0657*
X08326Y0657*
X08326Y06569*
X08326*
X08326Y06569*
X08326Y06569*
X08325Y06569*
X08325Y06569*
X08325Y06569*
X08324Y06569*
X08323Y06569*
X08323Y06569*
X08316*
Y06588*
X08323*
X08324Y06588*
G37*
G36*
X05196Y0847D02*
X05196D01*
X05196*
X05196*
X05196Y0847*
X05195Y0847*
X05195Y0847*
X05195Y0847*
X05195Y08471*
X05195*
X05194Y08471*
X05194Y08471*
X05194Y08471*
X05194Y08471*
X05193Y08471*
X05193Y08471*
X05192Y08472*
X05192Y08472*
X05192*
X05192Y08472*
X05192Y08472*
X05192Y08473*
X05191Y08473*
X05191Y08473*
X0519Y08474*
X0519Y08474*
X05189Y08475*
X05189Y08475*
X05189Y08475*
X05189Y08475*
X05189Y08476*
X05188Y08476*
X05188Y08476*
X05188Y08477*
X05188Y08477*
X05187Y08478*
X05186Y08478*
X05186Y08479*
X05186Y08479*
X05185Y08479*
X05185Y08479*
X05185*
X05185Y08479*
X05185Y0848*
X05185Y0848*
X05184Y0848*
X05184Y0848*
X05184Y0848*
X05183Y0848*
X05183Y08481*
X05182Y08481*
X05182*
X05182*
X05182Y08481*
X05182Y08481*
X05181Y0848*
X05181Y0848*
X05181Y0848*
X0518Y0848*
X0518Y0848*
X0518Y08479*
X0518Y08479*
X0518Y08479*
X05179Y08479*
X05179Y08478*
X05179Y08478*
X05179Y08477*
X05179Y08477*
Y08477*
X05179Y08477*
X05179Y08476*
X05179Y08476*
X05179Y08475*
X05179Y08475*
X0518Y08475*
X0518Y08474*
X0518Y08474*
X0518Y08474*
X0518Y08474*
X05181Y08474*
X05181Y08473*
X05182Y08473*
X05182Y08473*
X05183Y08473*
X05182Y08471*
X05182*
X05182Y08471*
X05182*
X05182Y08471*
X05182Y08471*
X05182Y08471*
X05181Y08471*
X05181Y08471*
X0518Y08471*
X0518Y08472*
X05179Y08472*
X05179Y08472*
X05179Y08472*
X05178Y08473*
X05178Y08473*
X05178Y08473*
X05178Y08473*
X05178Y08473*
X05178Y08473*
X05178Y08473*
X05178Y08473*
X05178Y08474*
X05177Y08474*
X05177Y08474*
X05177Y08475*
X05177Y08475*
X05177Y08476*
X05177Y08476*
X05177Y08476*
X05177Y08477*
Y08477*
X05177Y08477*
X05177Y08478*
X05177Y08478*
X05177Y08478*
X05177Y08479*
X05177Y08479*
X05178Y0848*
X05178Y0848*
X05178Y08481*
X05178Y08481*
X05178Y08481*
X05178Y08481*
X05179Y08481*
X05179Y08481*
X05179Y08482*
X05179Y08482*
X05179Y08482*
X05179Y08482*
X0518Y08482*
X0518Y08482*
X05181Y08483*
X05181Y08483*
X05181Y08483*
X05182Y08483*
X05182Y08483*
X05182*
X05182*
X05183Y08483*
X05183Y08483*
X05183Y08483*
X05184Y08483*
X05184Y08483*
X05185Y08482*
X05185Y08482*
X05185Y08482*
X05185Y08482*
X05185Y08482*
X05186Y08482*
X05186Y08482*
X05186Y08481*
X05187Y08481*
X05187Y08481*
X05187Y08481*
X05187Y08481*
X05187Y0848*
X05188Y0848*
X05188Y0848*
X05188Y0848*
X05188Y0848*
X05188Y08479*
X05189Y08479*
X05189Y08479*
X05189Y08478*
X0519Y08478*
X0519Y08477*
X0519Y08477*
X0519Y08477*
X0519Y08477*
X0519Y08477*
X05191Y08477*
X05191Y08477*
X05191Y08476*
X05192Y08476*
X05192Y08475*
X05192Y08475*
X05193Y08475*
X05193Y08475*
X05193Y08475*
X05193Y08474*
X05193Y08474*
X05193Y08474*
X05193Y08474*
X05193Y08474*
X05194Y08474*
Y08483*
X05196*
Y0847*
G37*
G36*
X0519Y08468D02*
X0519Y08468D01*
X05191Y08468*
X05191Y08468*
X05191Y08468*
X05192Y08468*
X05192Y08468*
X05193Y08467*
X05193Y08467*
X05194Y08467*
X05194Y08466*
X05195Y08466*
X05195Y08466*
X05195Y08466*
X05195Y08465*
X05195Y08465*
X05195Y08465*
X05195Y08465*
X05195Y08465*
X05196Y08464*
X05196Y08464*
X05196Y08464*
X05196Y08463*
X05196Y08463*
X05196Y08463*
X05196Y08462*
X05196Y08462*
X05196Y08461*
X05196Y08461*
Y0846*
X05196Y0846*
Y0846*
X05196Y08459*
X05196Y08459*
X05196Y08459*
X05196Y08458*
X05196Y08457*
X05196Y08456*
X05195Y08456*
X05195Y08455*
X05195Y08455*
X05195Y08455*
X05195Y08455*
X05195Y08455*
X05195Y08455*
X05195Y08455*
X05195Y08455*
X05194Y08454*
X05194Y08454*
X05194Y08454*
X05193Y08453*
X05192Y08453*
X05192Y08453*
X05192*
X05191Y08452*
X05191Y08452*
X05191Y08452*
X05191Y08452*
X05191Y08452*
X0519Y08452*
X0519Y08452*
X0519Y08452*
X05189Y08452*
X05188Y08452*
X05187Y08452*
X05186Y08452*
X05186*
X05186*
X05186*
X05186Y08452*
X05186*
X05185Y08452*
X05185Y08452*
X05185Y08452*
X05184Y08452*
X05183Y08452*
X05182Y08452*
X05181Y08453*
X05181Y08453*
X05181Y08453*
X05181Y08453*
X05181Y08453*
X05181Y08453*
X0518Y08453*
X0518Y08453*
X05179Y08454*
X05179Y08454*
X05178Y08455*
X05178Y08456*
X05178Y08456*
X05178Y08456*
X05178Y08456*
X05178Y08456*
X05178Y08456*
X05177Y08457*
X05177Y08457*
X05177Y08457*
X05177Y08458*
X05177Y08458*
X05177Y08459*
X05177Y0846*
X05177Y08461*
Y08461*
X05177Y08461*
X05177Y08461*
X05177Y08462*
X05177Y08462*
X05177Y08462*
X05177Y08463*
X05177Y08464*
X05177Y08464*
X05178Y08465*
X05178Y08465*
X05178Y08465*
X05178Y08465*
X05178Y08465*
X05178Y08466*
X05178Y08466*
X05179Y08466*
X05179Y08466*
X05179Y08466*
X05179Y08466*
X05179Y08467*
X0518Y08467*
X0518Y08467*
X0518Y08467*
X05181Y08468*
X05181Y08468*
X05182Y08468*
X05182Y08468*
X05183Y08466*
X05183*
X05183Y08466*
X05183Y08466*
X05183Y08465*
X05182Y08465*
X05182Y08465*
X05182Y08465*
X05181Y08465*
X05181Y08465*
X0518Y08464*
X0518Y08464*
X0518Y08464*
X0518Y08463*
X05179Y08463*
X05179Y08463*
X05179Y08462*
X05179Y08462*
X05179Y08461*
X05179Y0846*
Y0846*
X05179Y0846*
Y0846*
X05179Y0846*
X05179Y08459*
X05179Y08459*
X05179Y08458*
X0518Y08457*
X0518Y08457*
Y08457*
X0518Y08457*
X0518Y08457*
X0518Y08456*
X05181Y08456*
X05181Y08456*
X05182Y08455*
X05182Y08455*
X05183Y08455*
X05183*
X05183Y08455*
X05183Y08455*
X05183Y08455*
X05183Y08455*
X05183Y08454*
X05184Y08454*
X05184Y08454*
X05185Y08454*
X05186Y08454*
X05186Y08454*
X05186*
X05187*
X05187*
X05187*
X05187Y08454*
X05187*
X05188Y08454*
X05188Y08454*
X05189Y08454*
X05189Y08454*
X0519Y08455*
X05191Y08455*
X05191*
X05191Y08455*
X05191Y08455*
X05191Y08455*
X05191Y08455*
X05192Y08455*
X05192Y08456*
X05193Y08456*
X05193Y08456*
X05193Y08457*
Y08457*
X05193Y08457*
X05194Y08457*
X05194Y08457*
X05194Y08457*
X05194Y08458*
X05194Y08458*
X05194Y08458*
X05194Y08459*
X05194Y0846*
X05194Y0846*
Y0846*
X05194Y08461*
Y08461*
X05194Y08461*
X05194Y08462*
X05194Y08462*
X05194Y08463*
X05194Y08463*
X05193Y08464*
X05193Y08464*
X05193Y08464*
X05193Y08464*
X05193Y08464*
X05193Y08464*
X05193Y08464*
X05193Y08464*
X05192Y08465*
X05192Y08465*
X05192Y08465*
X05192Y08465*
X05191Y08465*
X05191Y08465*
X05191Y08466*
X0519Y08466*
X0519Y08466*
X05189Y08466*
X0519Y08468*
X0519*
X0519Y08468*
G37*
G36*
X03666Y07715D02*
X03666Y07715D01*
X03667Y07715*
X03667Y07715*
X03667Y07715*
X03668Y07715*
X03669Y07714*
X03669Y07714*
X0367Y07714*
X0367Y07714*
X0367Y07713*
X0367Y07713*
X0367Y07713*
X03671Y07713*
X03671Y07713*
X03671Y07713*
X03671Y07713*
X03671Y07713*
X03671Y07712*
X03672Y07712*
X03672Y07712*
X03672Y07711*
X03672Y07711*
X03673Y07711*
X03673Y0771*
X03673Y0771*
X03673Y07709*
X03671Y07709*
Y07709*
X03671Y07709*
X03671Y07709*
X0367Y07709*
X0367Y07709*
X0367Y07709*
X0367Y0771*
X0367Y0771*
X0367Y07711*
X03669Y07711*
X03669Y07712*
X03669Y07712*
X03668Y07712*
X03668Y07712*
X03668Y07712*
X03667Y07712*
X03667Y07713*
X03666Y07713*
X03665Y07713*
X03665*
X03665Y07713*
X03665*
X03665Y07713*
X03664Y07713*
X03664Y07713*
X03663Y07712*
X03662Y07712*
X03662Y07712*
X03662*
X03662Y07712*
X03662Y07711*
X03661Y07711*
X03661Y07711*
X03661Y07711*
X0366Y0771*
X0366Y07709*
X0366Y07709*
Y07709*
X0366Y07709*
X0366Y07709*
X0366Y07709*
X0366Y07708*
X03659Y07708*
X03659Y07708*
X03659Y07707*
X03659Y07707*
X03659Y07706*
X03659Y07705*
Y07705*
Y07705*
Y07705*
Y07705*
X03659Y07705*
Y07704*
X03659Y07704*
X03659Y07704*
X03659Y07703*
X03659Y07702*
X0366Y07702*
X0366Y07701*
Y07701*
X0366Y07701*
X0366Y07701*
X0366Y07701*
X0366Y077*
X0366Y077*
X03661Y07699*
X03661Y07699*
X03661Y07699*
X03662Y07698*
X03662*
X03662Y07698*
X03662Y07698*
X03662Y07698*
X03662Y07698*
X03663Y07698*
X03663Y07698*
X03663Y07698*
X03664Y07697*
X03665Y07697*
X03665Y07697*
X03665*
X03666Y07697*
X03666*
X03666Y07697*
X03667Y07697*
X03667Y07698*
X03668Y07698*
X03668Y07698*
X03669Y07698*
X03669Y07698*
X03669Y07698*
X03669Y07699*
X03669Y07699*
X03669Y07699*
X03669Y07699*
X03669Y07699*
X0367Y07699*
X0367Y07699*
X0367Y077*
X0367Y077*
X0367Y077*
X0367Y07701*
X03671Y07701*
X03671Y07701*
X03671Y07702*
X03671Y07702*
X03673Y07701*
Y07701*
X03673Y07701*
X03673Y07701*
X03673Y07701*
X03673Y07701*
X03673Y077*
X03673Y077*
X03673Y077*
X03672Y07699*
X03672Y07698*
X03672Y07698*
X03671Y07697*
X03671Y07697*
X03671Y07697*
X03671Y07697*
X0367Y07697*
X0367Y07697*
X0367Y07696*
X0367Y07696*
X0367Y07696*
X03669Y07696*
X03669Y07696*
X03669Y07696*
X03668Y07696*
X03668Y07695*
X03668Y07695*
X03667Y07695*
X03667Y07695*
X03666Y07695*
X03665Y07695*
X03665*
X03665Y07695*
X03665*
X03664Y07695*
X03664Y07695*
X03664Y07695*
X03663Y07695*
X03662Y07696*
X03661Y07696*
X03661Y07696*
X0366Y07696*
X0366Y07696*
X0366Y07696*
X0366Y07696*
X0366Y07697*
X0366Y07697*
X0366Y07697*
X0366Y07697*
X03659Y07697*
X03659Y07698*
X03659Y07698*
X03658Y07698*
X03658Y07699*
X03657Y077*
Y077*
X03657Y077*
X03657Y077*
X03657Y077*
X03657Y07701*
X03657Y07701*
X03657Y07701*
X03657Y07702*
X03657Y07702*
X03657Y07702*
X03657Y07703*
X03657Y07704*
X03656Y07705*
Y07705*
Y07705*
Y07705*
X03657Y07706*
Y07706*
X03657Y07706*
X03657Y07707*
X03657Y07707*
X03657Y07708*
X03657Y07709*
X03657Y07709*
X03658Y0771*
X03658Y0771*
X03658Y0771*
X03658Y07711*
X03658Y07711*
X03658Y07711*
X03658Y07711*
X03658Y07712*
X03659Y07712*
X03659Y07713*
X0366Y07713*
X03661Y07714*
X03661Y07714*
X03661Y07714*
X03661Y07714*
X03661Y07714*
X03661Y07714*
X03662Y07714*
X03662Y07714*
X03662Y07714*
X03663Y07714*
X03663Y07715*
X03664Y07715*
X03665Y07715*
X03666Y07715*
X03666*
X03666Y07715*
G37*
G36*
X03688Y07712D02*
X03688Y07712D01*
X03688Y07712*
X03688Y07712*
X03688Y07712*
X03688Y07712*
X03687Y07712*
X03687Y07711*
X03687Y07711*
X03687Y07711*
X03686Y0771*
X03686Y0771*
X03686Y07709*
X03686Y07709*
X03685Y07708*
X03685Y07708*
X03685Y07707*
X03684Y07707*
X03684Y07707*
X03684Y07707*
X03684Y07707*
X03684Y07706*
X03684Y07706*
X03684Y07706*
X03684Y07705*
X03683Y07705*
X03683Y07704*
X03683Y07704*
X03683Y07703*
X03682Y07702*
X03682Y07701*
Y07701*
X03682Y07701*
X03682Y077*
X03682Y077*
X03682Y077*
X03682Y077*
X03681Y07699*
X03681Y07699*
X03681Y07699*
X03681Y07698*
X03681Y07697*
X03681Y07696*
X03681Y07695*
X03678*
Y07695*
Y07696*
Y07696*
X03678Y07696*
Y07696*
X03679Y07696*
X03679Y07697*
X03679Y07697*
X03679Y07697*
X03679Y07698*
X03679Y07698*
X03679Y07699*
X03679Y07699*
X03679Y077*
X03679Y07701*
Y07701*
X03679Y07701*
X03679Y07701*
X03679Y07701*
X0368Y07702*
X0368Y07702*
X0368Y07702*
X0368Y07703*
X0368Y07703*
X0368Y07704*
X03681Y07705*
X03681Y07706*
X03682Y07707*
X03682Y07707*
X03682Y07707*
X03682Y07707*
X03682Y07708*
X03682Y07708*
X03682Y07708*
X03683Y07708*
X03683Y07709*
X03683Y0771*
X03684Y0771*
X03684Y07711*
X03685Y07712*
X03676*
Y07714*
X03688*
Y07712*
G37*
G36*
X04075Y0883D02*
X04072D01*
Y08846*
X04067Y0883*
X04064*
X04059Y08846*
Y0883*
X04056*
Y08849*
X0406*
X04065Y08836*
Y08836*
X04065Y08836*
X04065Y08836*
X04065Y08835*
X04065Y08835*
X04065Y08835*
X04065Y08834*
X04065Y08834*
X04066Y08833*
X04066Y08833*
X04066Y08833*
X04066Y08833*
X04066Y08833*
X04066Y08834*
X04066Y08834*
X04066Y08835*
X04067Y08835*
X04067Y08836*
X04071Y08849*
X04075*
Y0883*
G37*
G36*
X04106D02*
X04104D01*
Y08845*
X04104Y08845*
X04104Y08845*
X04103Y08845*
X04103Y08845*
X04103Y08844*
X04102Y08844*
X04102Y08844*
X04102Y08843*
X04102*
X04101Y08843*
X04101Y08843*
X04101Y08843*
X04101Y08843*
X041Y08843*
X041Y08843*
X04099Y08842*
X04099Y08842*
Y08845*
X04099*
X04099Y08845*
X04099Y08845*
X04099Y08845*
X041Y08845*
X041Y08845*
X041Y08845*
X04101Y08846*
X04101Y08846*
X04102Y08846*
X04103Y08847*
X04103Y08847*
X04103Y08847*
X04103Y08847*
X04103Y08847*
X04103Y08847*
X04103Y08848*
X04104Y08848*
X04104Y08848*
X04104Y08849*
X04105Y08849*
X04106*
Y0883*
G37*
G36*
X04087Y08849D02*
X04087Y08849D01*
X04088Y08849*
X04088Y08849*
X04089Y08849*
X04089*
X04089Y08849*
X04089*
X04089Y08849*
X04089Y08849*
X0409Y08849*
X0409Y08849*
X04091Y08848*
X04091Y08848*
X04092Y08848*
X04092Y08848*
X04092Y08848*
X04092Y08848*
X04092Y08847*
X04092Y08847*
X04093Y08847*
X04093Y08846*
X04093Y08846*
X04094Y08845*
X04094Y08844*
Y08844*
X04094Y08844*
X04094Y08844*
X04094Y08844*
X04094Y08844*
X04094Y08844*
X04094Y08843*
X04094Y08843*
X04094Y08843*
X04094Y08842*
X04095Y08842*
X04095Y08841*
X04095Y0884*
Y0884*
Y0884*
Y0884*
Y08839*
X04095Y08839*
Y08839*
X04095Y08839*
X04095Y08838*
X04095Y08837*
X04094Y08837*
X04094Y08836*
Y08836*
X04094Y08836*
X04094Y08836*
X04094Y08836*
X04094Y08835*
X04094Y08835*
X04094Y08835*
X04093Y08834*
X04093Y08834*
X04093Y08833*
X04093Y08833*
X04093Y08833*
X04093Y08833*
X04092Y08833*
X04092Y08832*
X04092Y08832*
X04092Y08832*
X04091Y08831*
X04091Y08831*
X04091Y08831*
X04091Y08831*
X04091Y08831*
X0409Y08831*
X0409Y08831*
X04089Y08831*
X04089Y0883*
X04089*
X04089Y0883*
X04089Y0883*
X04088Y0883*
X04088Y0883*
X04088Y0883*
X04087Y0883*
X04086Y0883*
X04086Y0883*
X04079*
Y08849*
X04086*
X04087Y08849*
G37*
G36*
X09433Y0847D02*
X09433D01*
X09433*
X09433*
X09433Y0847*
X09432Y0847*
X09432Y0847*
X09432Y0847*
X09432Y08471*
X09432*
X09431Y08471*
X09431Y08471*
X09431Y08471*
X09431Y08471*
X0943Y08471*
X0943Y08471*
X09429Y08472*
X09429Y08472*
X09429*
X09429Y08472*
X09429Y08472*
X09429Y08473*
X09428Y08473*
X09428Y08473*
X09427Y08474*
X09427Y08474*
X09426Y08475*
X09426Y08475*
X09426Y08475*
X09426Y08475*
X09426Y08476*
X09425Y08476*
X09425Y08476*
X09425Y08477*
X09425Y08477*
X09424Y08478*
X09423Y08478*
X09423Y08479*
X09423Y08479*
X09422Y08479*
X09422Y08479*
X09422*
X09422Y08479*
X09422Y0848*
X09422Y0848*
X09421Y0848*
X09421Y0848*
X09421Y0848*
X0942Y0848*
X0942Y08481*
X09419Y08481*
X09419*
X09419*
X09419Y08481*
X09419Y08481*
X09418Y0848*
X09418Y0848*
X09418Y0848*
X09417Y0848*
X09417Y0848*
X09417Y08479*
X09417Y08479*
X09417Y08479*
X09416Y08479*
X09416Y08478*
X09416Y08478*
X09416Y08477*
X09416Y08477*
Y08477*
X09416Y08477*
X09416Y08476*
X09416Y08476*
X09416Y08475*
X09416Y08475*
X09417Y08475*
X09417Y08474*
X09417Y08474*
X09417Y08474*
X09417Y08474*
X09418Y08474*
X09418Y08473*
X09419Y08473*
X09419Y08473*
X0942Y08473*
X09419Y08471*
X09419*
X09419Y08471*
X09419*
X09419Y08471*
X09419Y08471*
X09419Y08471*
X09418Y08471*
X09418Y08471*
X09417Y08471*
X09417Y08472*
X09416Y08472*
X09416Y08472*
X09416Y08472*
X09415Y08473*
X09415Y08473*
X09415Y08473*
X09415Y08473*
X09415Y08473*
X09415Y08473*
X09415Y08473*
X09415Y08473*
X09415Y08474*
X09415Y08474*
X09414Y08474*
X09414Y08475*
X09414Y08475*
X09414Y08476*
X09414Y08476*
X09414Y08476*
X09414Y08477*
Y08477*
X09414Y08477*
X09414Y08478*
X09414Y08478*
X09414Y08478*
X09414Y08479*
X09414Y08479*
X09415Y0848*
X09415Y0848*
X09415Y08481*
X09415Y08481*
X09415Y08481*
X09415Y08481*
X09416Y08481*
X09416Y08481*
X09416Y08482*
X09416Y08482*
X09416Y08482*
X09416Y08482*
X09417Y08482*
X09417Y08482*
X09418Y08483*
X09418Y08483*
X09418Y08483*
X09419Y08483*
X09419Y08483*
X09419*
X09419*
X0942Y08483*
X0942Y08483*
X0942Y08483*
X09421Y08483*
X09421Y08483*
X09422Y08482*
X09422Y08482*
X09422Y08482*
X09422Y08482*
X09422Y08482*
X09423Y08482*
X09423Y08482*
X09423Y08481*
X09424Y08481*
X09424Y08481*
X09424Y08481*
X09424Y08481*
X09424Y0848*
X09425Y0848*
X09425Y0848*
X09425Y0848*
X09425Y0848*
X09425Y08479*
X09426Y08479*
X09426Y08479*
X09426Y08478*
X09427Y08478*
X09427Y08477*
X09427Y08477*
X09427Y08477*
X09427Y08477*
X09427Y08477*
X09428Y08477*
X09428Y08477*
X09428Y08476*
X09429Y08476*
X09429Y08475*
X09429Y08475*
X0943Y08475*
X0943Y08475*
X0943Y08475*
X0943Y08474*
X0943Y08474*
X0943Y08474*
X0943Y08474*
X0943Y08474*
X09431Y08474*
Y08483*
X09433*
Y0847*
G37*
G36*
X09427Y08468D02*
X09427Y08468D01*
X09428Y08468*
X09428Y08468*
X09428Y08468*
X09429Y08468*
X09429Y08468*
X0943Y08467*
X0943Y08467*
X09431Y08467*
X09431Y08466*
X09432Y08466*
X09432Y08466*
X09432Y08466*
X09432Y08465*
X09432Y08465*
X09432Y08465*
X09432Y08465*
X09432Y08465*
X09433Y08464*
X09433Y08464*
X09433Y08464*
X09433Y08463*
X09433Y08463*
X09433Y08463*
X09433Y08462*
X09433Y08462*
X09433Y08461*
X09434Y08461*
Y0846*
X09433Y0846*
Y0846*
X09433Y08459*
X09433Y08459*
X09433Y08459*
X09433Y08458*
X09433Y08457*
X09433Y08456*
X09432Y08456*
X09432Y08455*
X09432Y08455*
X09432Y08455*
X09432Y08455*
X09432Y08455*
X09432Y08455*
X09432Y08455*
X09432Y08455*
X09431Y08454*
X09431Y08454*
X09431Y08454*
X0943Y08453*
X09429Y08453*
X09429Y08453*
X09429*
X09428Y08452*
X09428Y08452*
X09428Y08452*
X09428Y08452*
X09428Y08452*
X09427Y08452*
X09427Y08452*
X09427Y08452*
X09426Y08452*
X09425Y08452*
X09424Y08452*
X09423Y08452*
X09423*
X09423*
X09423*
X09423Y08452*
X09423*
X09422Y08452*
X09422Y08452*
X09422Y08452*
X09421Y08452*
X0942Y08452*
X09419Y08452*
X09418Y08453*
X09418Y08453*
X09418Y08453*
X09418Y08453*
X09418Y08453*
X09418Y08453*
X09417Y08453*
X09417Y08453*
X09416Y08454*
X09416Y08454*
X09415Y08455*
X09415Y08456*
X09415Y08456*
X09415Y08456*
X09415Y08456*
X09415Y08456*
X09415Y08456*
X09414Y08457*
X09414Y08457*
X09414Y08457*
X09414Y08458*
X09414Y08458*
X09414Y08459*
X09414Y0846*
X09414Y08461*
Y08461*
X09414Y08461*
X09414Y08461*
X09414Y08462*
X09414Y08462*
X09414Y08462*
X09414Y08463*
X09414Y08464*
X09414Y08464*
X09415Y08465*
X09415Y08465*
X09415Y08465*
X09415Y08465*
X09415Y08465*
X09415Y08466*
X09415Y08466*
X09416Y08466*
X09416Y08466*
X09416Y08466*
X09416Y08466*
X09416Y08467*
X09417Y08467*
X09417Y08467*
X09417Y08467*
X09418Y08468*
X09418Y08468*
X09419Y08468*
X09419Y08468*
X0942Y08466*
X0942*
X0942Y08466*
X0942Y08466*
X0942Y08465*
X09419Y08465*
X09419Y08465*
X09419Y08465*
X09418Y08465*
X09418Y08465*
X09417Y08464*
X09417Y08464*
X09417Y08464*
X09417Y08463*
X09416Y08463*
X09416Y08463*
X09416Y08462*
X09416Y08462*
X09416Y08461*
X09416Y0846*
Y0846*
X09416Y0846*
Y0846*
X09416Y0846*
X09416Y08459*
X09416Y08459*
X09416Y08458*
X09417Y08457*
X09417Y08457*
Y08457*
X09417Y08457*
X09417Y08457*
X09417Y08456*
X09418Y08456*
X09418Y08456*
X09419Y08455*
X09419Y08455*
X0942Y08455*
X0942*
X0942Y08455*
X0942Y08455*
X0942Y08455*
X0942Y08455*
X0942Y08454*
X09421Y08454*
X09421Y08454*
X09422Y08454*
X09423Y08454*
X09423Y08454*
X09423*
X09424*
X09424*
X09424*
X09424Y08454*
X09424*
X09425Y08454*
X09425Y08454*
X09426Y08454*
X09426Y08454*
X09427Y08455*
X09428Y08455*
X09428*
X09428Y08455*
X09428Y08455*
X09428Y08455*
X09428Y08455*
X09429Y08455*
X09429Y08456*
X0943Y08456*
X0943Y08456*
X0943Y08457*
Y08457*
X0943Y08457*
X09431Y08457*
X09431Y08457*
X09431Y08457*
X09431Y08458*
X09431Y08458*
X09431Y08458*
X09431Y08459*
X09431Y0846*
X09431Y0846*
Y0846*
X09431Y08461*
Y08461*
X09431Y08461*
X09431Y08462*
X09431Y08462*
X09431Y08463*
X09431Y08463*
X0943Y08464*
X0943Y08464*
X0943Y08464*
X0943Y08464*
X0943Y08464*
X0943Y08464*
X0943Y08464*
X0943Y08464*
X09429Y08465*
X09429Y08465*
X09429Y08465*
X09429Y08465*
X09428Y08465*
X09428Y08465*
X09428Y08466*
X09427Y08466*
X09427Y08466*
X09426Y08466*
X09427Y08468*
X09427*
X09427Y08468*
G37*
G36*
X07903Y07715D02*
X07903Y07715D01*
X07904Y07715*
X07904Y07715*
X07904Y07715*
X07905Y07715*
X07906Y07714*
X07906Y07714*
X07907Y07714*
X07907Y07714*
X07907Y07713*
X07907Y07713*
X07907Y07713*
X07908Y07713*
X07908Y07713*
X07908Y07713*
X07908Y07713*
X07908Y07713*
X07908Y07712*
X07909Y07712*
X07909Y07712*
X07909Y07711*
X07909Y07711*
X0791Y07711*
X0791Y0771*
X0791Y0771*
X0791Y07709*
X07908Y07709*
Y07709*
X07908Y07709*
X07908Y07709*
X07907Y07709*
X07907Y07709*
X07907Y07709*
X07907Y0771*
X07907Y0771*
X07907Y07711*
X07906Y07711*
X07906Y07712*
X07906Y07712*
X07905Y07712*
X07905Y07712*
X07905Y07712*
X07904Y07712*
X07904Y07713*
X07903Y07713*
X07902Y07713*
X07902*
X07902Y07713*
X07902*
X07902Y07713*
X07901Y07713*
X07901Y07713*
X079Y07712*
X07899Y07712*
X07899Y07712*
X07899*
X07899Y07712*
X07899Y07711*
X07898Y07711*
X07898Y07711*
X07898Y07711*
X07897Y0771*
X07897Y07709*
X07897Y07709*
Y07709*
X07897Y07709*
X07897Y07709*
X07897Y07709*
X07897Y07708*
X07896Y07708*
X07896Y07708*
X07896Y07707*
X07896Y07707*
X07896Y07706*
X07896Y07705*
Y07705*
Y07705*
Y07705*
Y07705*
X07896Y07705*
Y07704*
X07896Y07704*
X07896Y07704*
X07896Y07703*
X07896Y07702*
X07897Y07702*
X07897Y07701*
Y07701*
X07897Y07701*
X07897Y07701*
X07897Y07701*
X07897Y077*
X07897Y077*
X07898Y07699*
X07898Y07699*
X07898Y07699*
X07899Y07698*
X07899*
X07899Y07698*
X07899Y07698*
X07899Y07698*
X07899Y07698*
X079Y07698*
X079Y07698*
X079Y07698*
X07901Y07697*
X07902Y07697*
X07902Y07697*
X07902*
X07903Y07697*
X07903*
X07903Y07697*
X07904Y07697*
X07904Y07698*
X07905Y07698*
X07905Y07698*
X07906Y07698*
X07906Y07698*
X07906Y07698*
X07906Y07699*
X07906Y07699*
X07906Y07699*
X07906Y07699*
X07906Y07699*
X07907Y07699*
X07907Y07699*
X07907Y077*
X07907Y077*
X07907Y077*
X07907Y07701*
X07908Y07701*
X07908Y07701*
X07908Y07702*
X07908Y07702*
X0791Y07701*
Y07701*
X0791Y07701*
X0791Y07701*
X0791Y07701*
X0791Y07701*
X0791Y077*
X0791Y077*
X0791Y077*
X07909Y07699*
X07909Y07698*
X07909Y07698*
X07908Y07697*
X07908Y07697*
X07908Y07697*
X07908Y07697*
X07907Y07697*
X07907Y07697*
X07907Y07696*
X07907Y07696*
X07907Y07696*
X07906Y07696*
X07906Y07696*
X07906Y07696*
X07905Y07696*
X07905Y07695*
X07905Y07695*
X07904Y07695*
X07904Y07695*
X07903Y07695*
X07903Y07695*
X07902*
X07902Y07695*
X07902*
X07901Y07695*
X07901Y07695*
X07901Y07695*
X079Y07695*
X07899Y07696*
X07898Y07696*
X07898Y07696*
X07897Y07696*
X07897Y07696*
X07897Y07696*
X07897Y07696*
X07897Y07697*
X07897Y07697*
X07897Y07697*
X07897Y07697*
X07896Y07697*
X07896Y07698*
X07896Y07698*
X07895Y07698*
X07895Y07699*
X07895Y077*
Y077*
X07894Y077*
X07894Y077*
X07894Y077*
X07894Y07701*
X07894Y07701*
X07894Y07701*
X07894Y07702*
X07894Y07702*
X07894Y07702*
X07894Y07703*
X07894Y07704*
X07894Y07705*
Y07705*
Y07705*
Y07705*
X07894Y07706*
Y07706*
X07894Y07706*
X07894Y07707*
X07894Y07707*
X07894Y07708*
X07894Y07709*
X07894Y07709*
X07895Y0771*
X07895Y0771*
X07895Y0771*
X07895Y07711*
X07895Y07711*
X07895Y07711*
X07895Y07711*
X07895Y07712*
X07896Y07712*
X07896Y07713*
X07897Y07713*
X07898Y07714*
X07898Y07714*
X07898Y07714*
X07898Y07714*
X07898Y07714*
X07898Y07714*
X07899Y07714*
X07899Y07714*
X07899Y07714*
X079Y07714*
X079Y07715*
X07901Y07715*
X07902Y07715*
X07903Y07715*
X07903*
X07903Y07715*
G37*
G36*
X07925Y07712D02*
X07925Y07712D01*
X07925Y07712*
X07925Y07712*
X07925Y07712*
X07925Y07712*
X07925Y07712*
X07924Y07711*
X07924Y07711*
X07924Y07711*
X07923Y0771*
X07923Y0771*
X07923Y07709*
X07923Y07709*
X07922Y07708*
X07922Y07708*
X07922Y07707*
X07922Y07707*
X07921Y07707*
X07921Y07707*
X07921Y07707*
X07921Y07706*
X07921Y07706*
X07921Y07706*
X07921Y07705*
X0792Y07705*
X0792Y07704*
X0792Y07704*
X0792Y07703*
X07919Y07702*
X07919Y07701*
Y07701*
X07919Y07701*
X07919Y077*
X07919Y077*
X07919Y077*
X07919Y077*
X07918Y07699*
X07918Y07699*
X07918Y07699*
X07918Y07698*
X07918Y07697*
X07918Y07696*
X07918Y07695*
X07915*
Y07695*
Y07696*
Y07696*
X07915Y07696*
Y07696*
X07916Y07696*
X07916Y07697*
X07916Y07697*
X07916Y07697*
X07916Y07698*
X07916Y07698*
X07916Y07699*
X07916Y07699*
X07916Y077*
X07916Y07701*
Y07701*
X07916Y07701*
X07916Y07701*
X07916Y07701*
X07917Y07702*
X07917Y07702*
X07917Y07702*
X07917Y07703*
X07917Y07703*
X07917Y07704*
X07918Y07705*
X07918Y07706*
X07919Y07707*
X07919Y07707*
X07919Y07707*
X07919Y07707*
X07919Y07708*
X07919Y07708*
X07919Y07708*
X0792Y07708*
X0792Y07709*
X0792Y0771*
X07921Y0771*
X07922Y07711*
X07922Y07712*
X07913*
Y07714*
X07925*
Y07712*
G37*
G36*
X08312Y0883D02*
X08309D01*
Y08846*
X08304Y0883*
X08301*
X08296Y08846*
Y0883*
X08294*
Y08849*
X08297*
X08302Y08836*
Y08836*
X08302Y08836*
X08302Y08836*
X08302Y08835*
X08302Y08835*
X08302Y08835*
X08302Y08834*
X08303Y08834*
X08303Y08833*
X08303Y08833*
X08303Y08833*
X08303Y08833*
X08303Y08833*
X08303Y08834*
X08303Y08834*
X08303Y08835*
X08304Y08835*
X08304Y08836*
X08308Y08849*
X08312*
Y0883*
G37*
G36*
X08343D02*
X08341D01*
Y08845*
X08341Y08845*
X08341Y08845*
X0834Y08845*
X0834Y08845*
X0834Y08844*
X08339Y08844*
X08339Y08844*
X08339Y08843*
X08339*
X08338Y08843*
X08338Y08843*
X08338Y08843*
X08338Y08843*
X08337Y08843*
X08337Y08843*
X08336Y08842*
X08336Y08842*
Y08845*
X08336*
X08336Y08845*
X08336Y08845*
X08336Y08845*
X08337Y08845*
X08337Y08845*
X08337Y08845*
X08338Y08846*
X08338Y08846*
X08339Y08846*
X0834Y08847*
X0834Y08847*
X0834Y08847*
X0834Y08847*
X0834Y08847*
X0834Y08847*
X0834Y08848*
X08341Y08848*
X08341Y08848*
X08341Y08849*
X08342Y08849*
X08343*
Y0883*
G37*
G36*
X08324Y08849D02*
X08324Y08849D01*
X08325Y08849*
X08325Y08849*
X08326Y08849*
X08326*
X08326Y08849*
X08326*
X08326Y08849*
X08326Y08849*
X08327Y08849*
X08327Y08849*
X08328Y08848*
X08328Y08848*
X08329Y08848*
X08329Y08848*
X08329Y08848*
X08329Y08848*
X08329Y08847*
X08329Y08847*
X0833Y08847*
X0833Y08846*
X0833Y08846*
X08331Y08845*
X08331Y08844*
Y08844*
X08331Y08844*
X08331Y08844*
X08331Y08844*
X08331Y08844*
X08331Y08844*
X08331Y08843*
X08331Y08843*
X08331Y08843*
X08332Y08842*
X08332Y08842*
X08332Y08841*
X08332Y0884*
Y0884*
Y0884*
Y0884*
Y08839*
X08332Y08839*
Y08839*
X08332Y08839*
X08332Y08838*
X08332Y08837*
X08331Y08837*
X08331Y08836*
Y08836*
X08331Y08836*
X08331Y08836*
X08331Y08836*
X08331Y08835*
X08331Y08835*
X08331Y08835*
X0833Y08834*
X0833Y08834*
X0833Y08833*
X0833Y08833*
X0833Y08833*
X0833Y08833*
X08329Y08833*
X08329Y08832*
X08329Y08832*
X08329Y08832*
X08328Y08831*
X08328Y08831*
X08328Y08831*
X08328Y08831*
X08328Y08831*
X08327Y08831*
X08327Y08831*
X08326Y08831*
X08326Y0883*
X08326*
X08326Y0883*
X08326Y0883*
X08325Y0883*
X08325Y0883*
X08325Y0883*
X08324Y0883*
X08323Y0883*
X08323Y0883*
X08316*
Y08849*
X08323*
X08324Y08849*
G37*
G36*
X05196Y10732D02*
X05196D01*
X05196*
X05196*
X05196Y10732*
X05195Y10732*
X05195Y10732*
X05195Y10732*
X05195Y10733*
X05195*
X05194Y10733*
X05194Y10733*
X05194Y10733*
X05194Y10733*
X05193Y10733*
X05193Y10733*
X05192Y10734*
X05192Y10734*
X05192*
X05192Y10734*
X05192Y10734*
X05192Y10735*
X05191Y10735*
X05191Y10735*
X0519Y10736*
X0519Y10736*
X05189Y10737*
X05189Y10737*
X05189Y10737*
X05189Y10737*
X05189Y10738*
X05188Y10738*
X05188Y10738*
X05188Y10739*
X05188Y10739*
X05187Y1074*
X05186Y1074*
X05186Y10741*
X05186Y10741*
X05185Y10741*
X05185Y10741*
X05185*
X05185Y10741*
X05185Y10742*
X05185Y10742*
X05184Y10742*
X05184Y10742*
X05184Y10742*
X05183Y10742*
X05183Y10743*
X05182Y10743*
X05182*
X05182*
X05182Y10743*
X05182Y10743*
X05181Y10742*
X05181Y10742*
X05181Y10742*
X0518Y10742*
X0518Y10742*
X0518Y10741*
X0518Y10741*
X0518Y10741*
X05179Y10741*
X05179Y1074*
X05179Y1074*
X05179Y10739*
X05179Y10739*
Y10739*
X05179Y10739*
X05179Y10738*
X05179Y10738*
X05179Y10737*
X05179Y10737*
X0518Y10737*
X0518Y10736*
X0518Y10736*
X0518Y10736*
X0518Y10736*
X05181Y10736*
X05181Y10735*
X05182Y10735*
X05182Y10735*
X05183Y10735*
X05182Y10733*
X05182*
X05182Y10733*
X05182*
X05182Y10733*
X05182Y10733*
X05182Y10733*
X05181Y10733*
X05181Y10733*
X0518Y10733*
X0518Y10734*
X05179Y10734*
X05179Y10734*
X05179Y10734*
X05178Y10735*
X05178Y10735*
X05178Y10735*
X05178Y10735*
X05178Y10735*
X05178Y10735*
X05178Y10735*
X05178Y10735*
X05178Y10736*
X05177Y10736*
X05177Y10736*
X05177Y10737*
X05177Y10737*
X05177Y10738*
X05177Y10738*
X05177Y10738*
X05177Y10739*
Y10739*
X05177Y10739*
X05177Y1074*
X05177Y1074*
X05177Y1074*
X05177Y10741*
X05177Y10741*
X05178Y10742*
X05178Y10742*
X05178Y10743*
X05178Y10743*
X05178Y10743*
X05178Y10743*
X05179Y10743*
X05179Y10743*
X05179Y10744*
X05179Y10744*
X05179Y10744*
X05179Y10744*
X0518Y10744*
X0518Y10744*
X05181Y10745*
X05181Y10745*
X05181Y10745*
X05182Y10745*
X05182Y10745*
X05182*
X05182*
X05183Y10745*
X05183Y10745*
X05183Y10745*
X05184Y10745*
X05184Y10745*
X05185Y10744*
X05185Y10744*
X05185Y10744*
X05185Y10744*
X05185Y10744*
X05186Y10744*
X05186Y10744*
X05186Y10743*
X05187Y10743*
X05187Y10743*
X05187Y10743*
X05187Y10743*
X05187Y10742*
X05188Y10742*
X05188Y10742*
X05188Y10742*
X05188Y10742*
X05188Y10741*
X05189Y10741*
X05189Y10741*
X05189Y1074*
X0519Y1074*
X0519Y10739*
X0519Y10739*
X0519Y10739*
X0519Y10739*
X0519Y10739*
X05191Y10739*
X05191Y10739*
X05191Y10738*
X05192Y10738*
X05192Y10737*
X05192Y10737*
X05193Y10737*
X05193Y10737*
X05193Y10737*
X05193Y10736*
X05193Y10736*
X05193Y10736*
X05193Y10736*
X05193Y10736*
X05194Y10736*
Y10745*
X05196*
Y10732*
G37*
G36*
X0519Y1073D02*
X0519Y1073D01*
X05191Y1073*
X05191Y1073*
X05191Y1073*
X05192Y1073*
X05192Y1073*
X05193Y10729*
X05193Y10729*
X05194Y10729*
X05194Y10728*
X05195Y10728*
X05195Y10728*
X05195Y10728*
X05195Y10727*
X05195Y10727*
X05195Y10727*
X05195Y10727*
X05195Y10727*
X05196Y10726*
X05196Y10726*
X05196Y10726*
X05196Y10725*
X05196Y10725*
X05196Y10725*
X05196Y10724*
X05196Y10724*
X05196Y10723*
X05196Y10723*
Y10722*
X05196Y10722*
Y10722*
X05196Y10721*
X05196Y10721*
X05196Y10721*
X05196Y1072*
X05196Y10719*
X05196Y10718*
X05195Y10718*
X05195Y10717*
X05195Y10717*
X05195Y10717*
X05195Y10717*
X05195Y10717*
X05195Y10717*
X05195Y10717*
X05195Y10717*
X05194Y10716*
X05194Y10716*
X05194Y10716*
X05193Y10715*
X05192Y10715*
X05192Y10715*
X05192*
X05191Y10714*
X05191Y10714*
X05191Y10714*
X05191Y10714*
X05191Y10714*
X0519Y10714*
X0519Y10714*
X0519Y10714*
X05189Y10714*
X05188Y10714*
X05187Y10714*
X05186Y10714*
X05186*
X05186*
X05186*
X05186Y10714*
X05186*
X05185Y10714*
X05185Y10714*
X05185Y10714*
X05184Y10714*
X05183Y10714*
X05182Y10714*
X05181Y10715*
X05181Y10715*
X05181Y10715*
X05181Y10715*
X05181Y10715*
X05181Y10715*
X0518Y10715*
X0518Y10715*
X05179Y10716*
X05179Y10716*
X05178Y10717*
X05178Y10718*
X05178Y10718*
X05178Y10718*
X05178Y10718*
X05178Y10718*
X05178Y10718*
X05177Y10719*
X05177Y10719*
X05177Y10719*
X05177Y1072*
X05177Y1072*
X05177Y10721*
X05177Y10722*
X05177Y10723*
Y10723*
X05177Y10723*
X05177Y10723*
X05177Y10724*
X05177Y10724*
X05177Y10724*
X05177Y10725*
X05177Y10726*
X05177Y10726*
X05178Y10727*
X05178Y10727*
X05178Y10727*
X05178Y10727*
X05178Y10727*
X05178Y10728*
X05178Y10728*
X05179Y10728*
X05179Y10728*
X05179Y10728*
X05179Y10728*
X05179Y10729*
X0518Y10729*
X0518Y10729*
X0518Y10729*
X05181Y1073*
X05181Y1073*
X05182Y1073*
X05182Y1073*
X05183Y10728*
X05183*
X05183Y10728*
X05183Y10728*
X05183Y10727*
X05182Y10727*
X05182Y10727*
X05182Y10727*
X05181Y10727*
X05181Y10727*
X0518Y10726*
X0518Y10726*
X0518Y10726*
X0518Y10725*
X05179Y10725*
X05179Y10725*
X05179Y10724*
X05179Y10724*
X05179Y10723*
X05179Y10722*
Y10722*
X05179Y10722*
Y10722*
X05179Y10722*
X05179Y10721*
X05179Y10721*
X05179Y1072*
X0518Y10719*
X0518Y10719*
Y10719*
X0518Y10719*
X0518Y10719*
X0518Y10718*
X05181Y10718*
X05181Y10718*
X05182Y10717*
X05182Y10717*
X05183Y10717*
X05183*
X05183Y10717*
X05183Y10717*
X05183Y10717*
X05183Y10717*
X05183Y10716*
X05184Y10716*
X05184Y10716*
X05185Y10716*
X05186Y10716*
X05186Y10716*
X05186*
X05187*
X05187*
X05187*
X05187Y10716*
X05187*
X05188Y10716*
X05188Y10716*
X05189Y10716*
X05189Y10716*
X0519Y10717*
X05191Y10717*
X05191*
X05191Y10717*
X05191Y10717*
X05191Y10717*
X05191Y10717*
X05192Y10717*
X05192Y10718*
X05193Y10718*
X05193Y10718*
X05193Y10719*
Y10719*
X05193Y10719*
X05194Y10719*
X05194Y10719*
X05194Y10719*
X05194Y1072*
X05194Y1072*
X05194Y1072*
X05194Y10721*
X05194Y10722*
X05194Y10722*
Y10722*
X05194Y10723*
Y10723*
X05194Y10723*
X05194Y10724*
X05194Y10724*
X05194Y10725*
X05194Y10725*
X05193Y10726*
X05193Y10726*
X05193Y10726*
X05193Y10726*
X05193Y10726*
X05193Y10726*
X05193Y10726*
X05193Y10726*
X05192Y10727*
X05192Y10727*
X05192Y10727*
X05192Y10727*
X05191Y10727*
X05191Y10727*
X05191Y10728*
X0519Y10728*
X0519Y10728*
X05189Y10728*
X0519Y1073*
X0519*
X0519Y1073*
G37*
G36*
X03666Y09976D02*
X03666Y09976D01*
X03667Y09976*
X03667Y09976*
X03667Y09976*
X03668Y09976*
X03669Y09975*
X03669Y09975*
X0367Y09975*
X0367Y09975*
X0367Y09974*
X0367Y09974*
X0367Y09974*
X03671Y09974*
X03671Y09974*
X03671Y09974*
X03671Y09974*
X03671Y09974*
X03671Y09973*
X03672Y09973*
X03672Y09973*
X03672Y09972*
X03672Y09972*
X03673Y09972*
X03673Y09971*
X03673Y09971*
X03673Y0997*
X03671Y0997*
Y0997*
X03671Y0997*
X03671Y0997*
X0367Y0997*
X0367Y0997*
X0367Y0997*
X0367Y09971*
X0367Y09971*
X0367Y09972*
X03669Y09972*
X03669Y09973*
X03669Y09973*
X03668Y09973*
X03668Y09973*
X03668Y09973*
X03667Y09973*
X03667Y09974*
X03666Y09974*
X03665Y09974*
X03665*
X03665Y09974*
X03665*
X03665Y09974*
X03664Y09974*
X03664Y09974*
X03663Y09973*
X03662Y09973*
X03662Y09973*
X03662*
X03662Y09973*
X03662Y09972*
X03661Y09972*
X03661Y09972*
X03661Y09972*
X0366Y09971*
X0366Y0997*
X0366Y0997*
Y0997*
X0366Y0997*
X0366Y0997*
X0366Y0997*
X0366Y09969*
X03659Y09969*
X03659Y09969*
X03659Y09968*
X03659Y09968*
X03659Y09967*
X03659Y09966*
Y09966*
Y09966*
Y09966*
Y09966*
X03659Y09966*
Y09965*
X03659Y09965*
X03659Y09965*
X03659Y09964*
X03659Y09963*
X0366Y09963*
X0366Y09962*
Y09962*
X0366Y09962*
X0366Y09962*
X0366Y09962*
X0366Y09961*
X0366Y09961*
X03661Y0996*
X03661Y0996*
X03661Y0996*
X03662Y09959*
X03662*
X03662Y09959*
X03662Y09959*
X03662Y09959*
X03662Y09959*
X03663Y09959*
X03663Y09959*
X03663Y09959*
X03664Y09958*
X03665Y09958*
X03665Y09958*
X03665*
X03666Y09958*
X03666*
X03666Y09958*
X03667Y09958*
X03667Y09959*
X03668Y09959*
X03668Y09959*
X03669Y09959*
X03669Y09959*
X03669Y0996*
X03669Y0996*
X03669Y0996*
X03669Y0996*
X03669Y0996*
X03669Y0996*
X0367Y0996*
X0367Y0996*
X0367Y09961*
X0367Y09961*
X0367Y09961*
X0367Y09962*
X03671Y09962*
X03671Y09962*
X03671Y09963*
X03671Y09963*
X03673Y09962*
Y09962*
X03673Y09962*
X03673Y09962*
X03673Y09962*
X03673Y09962*
X03673Y09961*
X03673Y09961*
X03673Y09961*
X03672Y0996*
X03672Y09959*
X03672Y09959*
X03671Y09958*
X03671Y09958*
X03671Y09958*
X03671Y09958*
X0367Y09958*
X0367Y09958*
X0367Y09957*
X0367Y09957*
X0367Y09957*
X03669Y09957*
X03669Y09957*
X03669Y09957*
X03668Y09957*
X03668Y09956*
X03668Y09956*
X03667Y09956*
X03667Y09956*
X03666Y09956*
X03665Y09956*
X03665*
X03665Y09956*
X03665*
X03664Y09956*
X03664Y09956*
X03664Y09956*
X03663Y09956*
X03662Y09957*
X03661Y09957*
X03661Y09957*
X0366Y09957*
X0366Y09957*
X0366Y09957*
X0366Y09957*
X0366Y09958*
X0366Y09958*
X0366Y09958*
X0366Y09958*
X03659Y09958*
X03659Y09959*
X03659Y09959*
X03658Y09959*
X03658Y0996*
X03657Y09961*
Y09961*
X03657Y09961*
X03657Y09961*
X03657Y09961*
X03657Y09962*
X03657Y09962*
X03657Y09962*
X03657Y09963*
X03657Y09963*
X03657Y09963*
X03657Y09964*
X03657Y09965*
X03656Y09966*
Y09966*
Y09966*
Y09966*
X03657Y09967*
Y09967*
X03657Y09967*
X03657Y09968*
X03657Y09968*
X03657Y09969*
X03657Y0997*
X03657Y0997*
X03658Y09971*
X03658Y09971*
X03658Y09971*
X03658Y09972*
X03658Y09972*
X03658Y09972*
X03658Y09972*
X03658Y09973*
X03659Y09973*
X03659Y09974*
X0366Y09974*
X03661Y09975*
X03661Y09975*
X03661Y09975*
X03661Y09975*
X03661Y09975*
X03661Y09975*
X03662Y09975*
X03662Y09975*
X03662Y09975*
X03663Y09975*
X03663Y09976*
X03664Y09976*
X03665Y09976*
X03666Y09976*
X03666*
X03666Y09976*
G37*
G36*
X03688Y09973D02*
X03688Y09973D01*
X03688Y09973*
X03688Y09973*
X03688Y09973*
X03688Y09973*
X03687Y09973*
X03687Y09972*
X03687Y09972*
X03687Y09972*
X03686Y09971*
X03686Y09971*
X03686Y0997*
X03686Y0997*
X03685Y09969*
X03685Y09969*
X03685Y09968*
X03684Y09968*
X03684Y09968*
X03684Y09968*
X03684Y09968*
X03684Y09967*
X03684Y09967*
X03684Y09967*
X03684Y09966*
X03683Y09966*
X03683Y09965*
X03683Y09965*
X03683Y09964*
X03682Y09963*
X03682Y09962*
Y09962*
X03682Y09962*
X03682Y09961*
X03682Y09961*
X03682Y09961*
X03682Y09961*
X03681Y0996*
X03681Y0996*
X03681Y0996*
X03681Y09959*
X03681Y09958*
X03681Y09957*
X03681Y09956*
X03678*
Y09956*
Y09957*
Y09957*
X03678Y09957*
Y09957*
X03679Y09957*
X03679Y09958*
X03679Y09958*
X03679Y09958*
X03679Y09959*
X03679Y09959*
X03679Y0996*
X03679Y0996*
X03679Y09961*
X03679Y09962*
Y09962*
X03679Y09962*
X03679Y09962*
X03679Y09962*
X0368Y09963*
X0368Y09963*
X0368Y09963*
X0368Y09964*
X0368Y09964*
X0368Y09965*
X03681Y09966*
X03681Y09967*
X03682Y09968*
X03682Y09968*
X03682Y09968*
X03682Y09968*
X03682Y09969*
X03682Y09969*
X03682Y09969*
X03683Y09969*
X03683Y0997*
X03683Y09971*
X03684Y09971*
X03684Y09972*
X03685Y09973*
X03676*
Y09975*
X03688*
Y09973*
G37*
G36*
X04075Y11092D02*
X04072D01*
Y11108*
X04067Y11092*
X04064*
X04059Y11108*
Y11092*
X04056*
Y11111*
X0406*
X04065Y11098*
Y11098*
X04065Y11098*
X04065Y11098*
X04065Y11097*
X04065Y11097*
X04065Y11097*
X04065Y11096*
X04065Y11096*
X04066Y11095*
X04066Y11095*
X04066Y11095*
X04066Y11095*
X04066Y11095*
X04066Y11096*
X04066Y11096*
X04066Y11097*
X04067Y11097*
X04067Y11098*
X04071Y11111*
X04075*
Y11092*
G37*
G36*
X04106D02*
X04104D01*
Y11107*
X04104Y11107*
X04104Y11107*
X04103Y11107*
X04103Y11107*
X04103Y11106*
X04102Y11106*
X04102Y11106*
X04102Y11105*
X04102*
X04101Y11105*
X04101Y11105*
X04101Y11105*
X04101Y11105*
X041Y11105*
X041Y11105*
X04099Y11104*
X04099Y11104*
Y11107*
X04099*
X04099Y11107*
X04099Y11107*
X04099Y11107*
X041Y11107*
X041Y11107*
X041Y11107*
X04101Y11108*
X04101Y11108*
X04102Y11108*
X04103Y11109*
X04103Y11109*
X04103Y11109*
X04103Y11109*
X04103Y11109*
X04103Y11109*
X04103Y1111*
X04104Y1111*
X04104Y1111*
X04104Y11111*
X04105Y11111*
X04106*
Y11092*
G37*
G36*
X04087Y11111D02*
X04087Y11111D01*
X04088Y11111*
X04088Y11111*
X04089Y11111*
X04089*
X04089Y11111*
X04089*
X04089Y11111*
X04089Y11111*
X0409Y11111*
X0409Y11111*
X04091Y1111*
X04091Y1111*
X04092Y1111*
X04092Y1111*
X04092Y1111*
X04092Y1111*
X04092Y11109*
X04092Y11109*
X04093Y11109*
X04093Y11108*
X04093Y11108*
X04094Y11107*
X04094Y11106*
Y11106*
X04094Y11106*
X04094Y11106*
X04094Y11106*
X04094Y11106*
X04094Y11106*
X04094Y11105*
X04094Y11105*
X04094Y11105*
X04094Y11104*
X04095Y11104*
X04095Y11103*
X04095Y11102*
Y11102*
Y11102*
Y11102*
Y11101*
X04095Y11101*
Y11101*
X04095Y11101*
X04095Y111*
X04095Y11099*
X04094Y11099*
X04094Y11098*
Y11098*
X04094Y11098*
X04094Y11098*
X04094Y11098*
X04094Y11097*
X04094Y11097*
X04094Y11097*
X04093Y11096*
X04093Y11096*
X04093Y11095*
X04093Y11095*
X04093Y11095*
X04093Y11095*
X04092Y11095*
X04092Y11094*
X04092Y11094*
X04092Y11094*
X04091Y11093*
X04091Y11093*
X04091Y11093*
X04091Y11093*
X04091Y11093*
X0409Y11093*
X0409Y11093*
X04089Y11093*
X04089Y11092*
X04089*
X04089Y11092*
X04089Y11092*
X04088Y11092*
X04088Y11092*
X04088Y11092*
X04087Y11092*
X04086Y11092*
X04086Y11092*
X04079*
Y11111*
X04086*
X04087Y11111*
G37*
G36*
X09433Y10732D02*
X09433D01*
X09433*
X09433*
X09433Y10732*
X09432Y10732*
X09432Y10732*
X09432Y10732*
X09432Y10733*
X09432*
X09431Y10733*
X09431Y10733*
X09431Y10733*
X09431Y10733*
X0943Y10733*
X0943Y10733*
X09429Y10734*
X09429Y10734*
X09429*
X09429Y10734*
X09429Y10734*
X09429Y10735*
X09428Y10735*
X09428Y10735*
X09427Y10736*
X09427Y10736*
X09426Y10737*
X09426Y10737*
X09426Y10737*
X09426Y10737*
X09426Y10738*
X09425Y10738*
X09425Y10738*
X09425Y10739*
X09425Y10739*
X09424Y1074*
X09423Y1074*
X09423Y10741*
X09423Y10741*
X09422Y10741*
X09422Y10741*
X09422*
X09422Y10741*
X09422Y10742*
X09422Y10742*
X09421Y10742*
X09421Y10742*
X09421Y10742*
X0942Y10742*
X0942Y10743*
X09419Y10743*
X09419*
X09419*
X09419Y10743*
X09419Y10743*
X09418Y10742*
X09418Y10742*
X09418Y10742*
X09417Y10742*
X09417Y10742*
X09417Y10741*
X09417Y10741*
X09417Y10741*
X09416Y10741*
X09416Y1074*
X09416Y1074*
X09416Y10739*
X09416Y10739*
Y10739*
X09416Y10739*
X09416Y10738*
X09416Y10738*
X09416Y10737*
X09416Y10737*
X09417Y10737*
X09417Y10736*
X09417Y10736*
X09417Y10736*
X09417Y10736*
X09418Y10736*
X09418Y10735*
X09419Y10735*
X09419Y10735*
X0942Y10735*
X09419Y10733*
X09419*
X09419Y10733*
X09419*
X09419Y10733*
X09419Y10733*
X09419Y10733*
X09418Y10733*
X09418Y10733*
X09417Y10733*
X09417Y10734*
X09416Y10734*
X09416Y10734*
X09416Y10734*
X09415Y10735*
X09415Y10735*
X09415Y10735*
X09415Y10735*
X09415Y10735*
X09415Y10735*
X09415Y10735*
X09415Y10735*
X09415Y10736*
X09415Y10736*
X09414Y10736*
X09414Y10737*
X09414Y10737*
X09414Y10738*
X09414Y10738*
X09414Y10738*
X09414Y10739*
Y10739*
X09414Y10739*
X09414Y1074*
X09414Y1074*
X09414Y1074*
X09414Y10741*
X09414Y10741*
X09415Y10742*
X09415Y10742*
X09415Y10743*
X09415Y10743*
X09415Y10743*
X09415Y10743*
X09416Y10743*
X09416Y10743*
X09416Y10744*
X09416Y10744*
X09416Y10744*
X09416Y10744*
X09417Y10744*
X09417Y10744*
X09418Y10745*
X09418Y10745*
X09418Y10745*
X09419Y10745*
X09419Y10745*
X09419*
X09419*
X0942Y10745*
X0942Y10745*
X0942Y10745*
X09421Y10745*
X09421Y10745*
X09422Y10744*
X09422Y10744*
X09422Y10744*
X09422Y10744*
X09422Y10744*
X09423Y10744*
X09423Y10744*
X09423Y10743*
X09424Y10743*
X09424Y10743*
X09424Y10743*
X09424Y10743*
X09424Y10742*
X09425Y10742*
X09425Y10742*
X09425Y10742*
X09425Y10742*
X09425Y10741*
X09426Y10741*
X09426Y10741*
X09426Y1074*
X09427Y1074*
X09427Y10739*
X09427Y10739*
X09427Y10739*
X09427Y10739*
X09427Y10739*
X09428Y10739*
X09428Y10739*
X09428Y10738*
X09429Y10738*
X09429Y10737*
X09429Y10737*
X0943Y10737*
X0943Y10737*
X0943Y10737*
X0943Y10736*
X0943Y10736*
X0943Y10736*
X0943Y10736*
X0943Y10736*
X09431Y10736*
Y10745*
X09433*
Y10732*
G37*
G36*
X09427Y1073D02*
X09427Y1073D01*
X09428Y1073*
X09428Y1073*
X09428Y1073*
X09429Y1073*
X09429Y1073*
X0943Y10729*
X0943Y10729*
X09431Y10729*
X09431Y10728*
X09432Y10728*
X09432Y10728*
X09432Y10728*
X09432Y10727*
X09432Y10727*
X09432Y10727*
X09432Y10727*
X09432Y10727*
X09433Y10726*
X09433Y10726*
X09433Y10726*
X09433Y10725*
X09433Y10725*
X09433Y10725*
X09433Y10724*
X09433Y10724*
X09433Y10723*
X09434Y10723*
Y10722*
X09433Y10722*
Y10722*
X09433Y10721*
X09433Y10721*
X09433Y10721*
X09433Y1072*
X09433Y10719*
X09433Y10718*
X09432Y10718*
X09432Y10717*
X09432Y10717*
X09432Y10717*
X09432Y10717*
X09432Y10717*
X09432Y10717*
X09432Y10717*
X09432Y10717*
X09431Y10716*
X09431Y10716*
X09431Y10716*
X0943Y10715*
X09429Y10715*
X09429Y10715*
X09429*
X09428Y10714*
X09428Y10714*
X09428Y10714*
X09428Y10714*
X09428Y10714*
X09427Y10714*
X09427Y10714*
X09427Y10714*
X09426Y10714*
X09425Y10714*
X09424Y10714*
X09423Y10714*
X09423*
X09423*
X09423*
X09423Y10714*
X09423*
X09422Y10714*
X09422Y10714*
X09422Y10714*
X09421Y10714*
X0942Y10714*
X09419Y10714*
X09418Y10715*
X09418Y10715*
X09418Y10715*
X09418Y10715*
X09418Y10715*
X09418Y10715*
X09417Y10715*
X09417Y10715*
X09416Y10716*
X09416Y10716*
X09415Y10717*
X09415Y10718*
X09415Y10718*
X09415Y10718*
X09415Y10718*
X09415Y10718*
X09415Y10718*
X09414Y10719*
X09414Y10719*
X09414Y10719*
X09414Y1072*
X09414Y1072*
X09414Y10721*
X09414Y10722*
X09414Y10723*
Y10723*
X09414Y10723*
X09414Y10723*
X09414Y10724*
X09414Y10724*
X09414Y10724*
X09414Y10725*
X09414Y10726*
X09414Y10726*
X09415Y10727*
X09415Y10727*
X09415Y10727*
X09415Y10727*
X09415Y10727*
X09415Y10728*
X09415Y10728*
X09416Y10728*
X09416Y10728*
X09416Y10728*
X09416Y10728*
X09416Y10729*
X09417Y10729*
X09417Y10729*
X09417Y10729*
X09418Y1073*
X09418Y1073*
X09419Y1073*
X09419Y1073*
X0942Y10728*
X0942*
X0942Y10728*
X0942Y10728*
X0942Y10727*
X09419Y10727*
X09419Y10727*
X09419Y10727*
X09418Y10727*
X09418Y10727*
X09417Y10726*
X09417Y10726*
X09417Y10726*
X09417Y10725*
X09416Y10725*
X09416Y10725*
X09416Y10724*
X09416Y10724*
X09416Y10723*
X09416Y10722*
Y10722*
X09416Y10722*
Y10722*
X09416Y10722*
X09416Y10721*
X09416Y10721*
X09416Y1072*
X09417Y10719*
X09417Y10719*
Y10719*
X09417Y10719*
X09417Y10719*
X09417Y10718*
X09418Y10718*
X09418Y10718*
X09419Y10717*
X09419Y10717*
X0942Y10717*
X0942*
X0942Y10717*
X0942Y10717*
X0942Y10717*
X0942Y10717*
X0942Y10716*
X09421Y10716*
X09421Y10716*
X09422Y10716*
X09423Y10716*
X09423Y10716*
X09423*
X09424*
X09424*
X09424*
X09424Y10716*
X09424*
X09425Y10716*
X09425Y10716*
X09426Y10716*
X09426Y10716*
X09427Y10717*
X09428Y10717*
X09428*
X09428Y10717*
X09428Y10717*
X09428Y10717*
X09428Y10717*
X09429Y10717*
X09429Y10718*
X0943Y10718*
X0943Y10718*
X0943Y10719*
Y10719*
X0943Y10719*
X09431Y10719*
X09431Y10719*
X09431Y10719*
X09431Y1072*
X09431Y1072*
X09431Y1072*
X09431Y10721*
X09431Y10722*
X09431Y10722*
Y10722*
X09431Y10723*
Y10723*
X09431Y10723*
X09431Y10724*
X09431Y10724*
X09431Y10725*
X09431Y10725*
X0943Y10726*
X0943Y10726*
X0943Y10726*
X0943Y10726*
X0943Y10726*
X0943Y10726*
X0943Y10726*
X0943Y10726*
X09429Y10727*
X09429Y10727*
X09429Y10727*
X09429Y10727*
X09428Y10727*
X09428Y10727*
X09428Y10728*
X09427Y10728*
X09427Y10728*
X09426Y10728*
X09427Y1073*
X09427*
X09427Y1073*
G37*
G36*
X07903Y09976D02*
X07903Y09976D01*
X07904Y09976*
X07904Y09976*
X07904Y09976*
X07905Y09976*
X07906Y09975*
X07906Y09975*
X07907Y09975*
X07907Y09975*
X07907Y09974*
X07907Y09974*
X07907Y09974*
X07908Y09974*
X07908Y09974*
X07908Y09974*
X07908Y09974*
X07908Y09974*
X07908Y09973*
X07909Y09973*
X07909Y09973*
X07909Y09972*
X07909Y09972*
X0791Y09972*
X0791Y09971*
X0791Y09971*
X0791Y0997*
X07908Y0997*
Y0997*
X07908Y0997*
X07908Y0997*
X07907Y0997*
X07907Y0997*
X07907Y0997*
X07907Y09971*
X07907Y09971*
X07907Y09972*
X07906Y09972*
X07906Y09973*
X07906Y09973*
X07905Y09973*
X07905Y09973*
X07905Y09973*
X07904Y09973*
X07904Y09974*
X07903Y09974*
X07902Y09974*
X07902*
X07902Y09974*
X07902*
X07902Y09974*
X07901Y09974*
X07901Y09974*
X079Y09973*
X07899Y09973*
X07899Y09973*
X07899*
X07899Y09973*
X07899Y09972*
X07898Y09972*
X07898Y09972*
X07898Y09972*
X07897Y09971*
X07897Y0997*
X07897Y0997*
Y0997*
X07897Y0997*
X07897Y0997*
X07897Y0997*
X07897Y09969*
X07896Y09969*
X07896Y09969*
X07896Y09968*
X07896Y09968*
X07896Y09967*
X07896Y09966*
Y09966*
Y09966*
Y09966*
Y09966*
X07896Y09966*
Y09965*
X07896Y09965*
X07896Y09965*
X07896Y09964*
X07896Y09963*
X07897Y09963*
X07897Y09962*
Y09962*
X07897Y09962*
X07897Y09962*
X07897Y09962*
X07897Y09961*
X07897Y09961*
X07898Y0996*
X07898Y0996*
X07898Y0996*
X07899Y09959*
X07899*
X07899Y09959*
X07899Y09959*
X07899Y09959*
X07899Y09959*
X079Y09959*
X079Y09959*
X079Y09959*
X07901Y09958*
X07902Y09958*
X07902Y09958*
X07902*
X07903Y09958*
X07903*
X07903Y09958*
X07904Y09958*
X07904Y09959*
X07905Y09959*
X07905Y09959*
X07906Y09959*
X07906Y09959*
X07906Y0996*
X07906Y0996*
X07906Y0996*
X07906Y0996*
X07906Y0996*
X07906Y0996*
X07907Y0996*
X07907Y0996*
X07907Y09961*
X07907Y09961*
X07907Y09961*
X07907Y09962*
X07908Y09962*
X07908Y09962*
X07908Y09963*
X07908Y09963*
X0791Y09962*
Y09962*
X0791Y09962*
X0791Y09962*
X0791Y09962*
X0791Y09962*
X0791Y09961*
X0791Y09961*
X0791Y09961*
X07909Y0996*
X07909Y09959*
X07909Y09959*
X07908Y09958*
X07908Y09958*
X07908Y09958*
X07908Y09958*
X07907Y09958*
X07907Y09958*
X07907Y09957*
X07907Y09957*
X07907Y09957*
X07906Y09957*
X07906Y09957*
X07906Y09957*
X07905Y09957*
X07905Y09956*
X07905Y09956*
X07904Y09956*
X07904Y09956*
X07903Y09956*
X07903Y09956*
X07902*
X07902Y09956*
X07902*
X07901Y09956*
X07901Y09956*
X07901Y09956*
X079Y09956*
X07899Y09957*
X07898Y09957*
X07898Y09957*
X07897Y09957*
X07897Y09957*
X07897Y09957*
X07897Y09957*
X07897Y09958*
X07897Y09958*
X07897Y09958*
X07897Y09958*
X07896Y09958*
X07896Y09959*
X07896Y09959*
X07895Y09959*
X07895Y0996*
X07895Y09961*
Y09961*
X07894Y09961*
X07894Y09961*
X07894Y09961*
X07894Y09962*
X07894Y09962*
X07894Y09962*
X07894Y09963*
X07894Y09963*
X07894Y09963*
X07894Y09964*
X07894Y09965*
X07894Y09966*
Y09966*
Y09966*
Y09966*
X07894Y09967*
Y09967*
X07894Y09967*
X07894Y09968*
X07894Y09968*
X07894Y09969*
X07894Y0997*
X07894Y0997*
X07895Y09971*
X07895Y09971*
X07895Y09971*
X07895Y09972*
X07895Y09972*
X07895Y09972*
X07895Y09972*
X07895Y09973*
X07896Y09973*
X07896Y09974*
X07897Y09974*
X07898Y09975*
X07898Y09975*
X07898Y09975*
X07898Y09975*
X07898Y09975*
X07898Y09975*
X07899Y09975*
X07899Y09975*
X07899Y09975*
X079Y09975*
X079Y09976*
X07901Y09976*
X07902Y09976*
X07903Y09976*
X07903*
X07903Y09976*
G37*
G36*
X07925Y09973D02*
X07925Y09973D01*
X07925Y09973*
X07925Y09973*
X07925Y09973*
X07925Y09973*
X07925Y09973*
X07924Y09972*
X07924Y09972*
X07924Y09972*
X07923Y09971*
X07923Y09971*
X07923Y0997*
X07923Y0997*
X07922Y09969*
X07922Y09969*
X07922Y09968*
X07922Y09968*
X07921Y09968*
X07921Y09968*
X07921Y09968*
X07921Y09967*
X07921Y09967*
X07921Y09967*
X07921Y09966*
X0792Y09966*
X0792Y09965*
X0792Y09965*
X0792Y09964*
X07919Y09963*
X07919Y09962*
Y09962*
X07919Y09962*
X07919Y09961*
X07919Y09961*
X07919Y09961*
X07919Y09961*
X07918Y0996*
X07918Y0996*
X07918Y0996*
X07918Y09959*
X07918Y09958*
X07918Y09957*
X07918Y09956*
X07915*
Y09956*
Y09957*
Y09957*
X07915Y09957*
Y09957*
X07916Y09957*
X07916Y09958*
X07916Y09958*
X07916Y09958*
X07916Y09959*
X07916Y09959*
X07916Y0996*
X07916Y0996*
X07916Y09961*
X07916Y09962*
Y09962*
X07916Y09962*
X07916Y09962*
X07916Y09962*
X07917Y09963*
X07917Y09963*
X07917Y09963*
X07917Y09964*
X07917Y09964*
X07917Y09965*
X07918Y09966*
X07918Y09967*
X07919Y09968*
X07919Y09968*
X07919Y09968*
X07919Y09968*
X07919Y09969*
X07919Y09969*
X07919Y09969*
X0792Y09969*
X0792Y0997*
X0792Y09971*
X07921Y09971*
X07922Y09972*
X07922Y09973*
X07913*
Y09975*
X07925*
Y09973*
G37*
G36*
X08312Y11092D02*
X08309D01*
Y11108*
X08304Y11092*
X08301*
X08296Y11108*
Y11092*
X08294*
Y11111*
X08297*
X08302Y11098*
Y11098*
X08302Y11098*
X08302Y11098*
X08302Y11097*
X08302Y11097*
X08302Y11097*
X08302Y11096*
X08303Y11096*
X08303Y11095*
X08303Y11095*
X08303Y11095*
X08303Y11095*
X08303Y11095*
X08303Y11096*
X08303Y11096*
X08303Y11097*
X08304Y11097*
X08304Y11098*
X08308Y11111*
X08312*
Y11092*
G37*
G36*
X08343D02*
X08341D01*
Y11107*
X08341Y11107*
X08341Y11107*
X0834Y11107*
X0834Y11107*
X0834Y11106*
X08339Y11106*
X08339Y11106*
X08339Y11105*
X08339*
X08338Y11105*
X08338Y11105*
X08338Y11105*
X08338Y11105*
X08337Y11105*
X08337Y11105*
X08336Y11104*
X08336Y11104*
Y11107*
X08336*
X08336Y11107*
X08336Y11107*
X08336Y11107*
X08337Y11107*
X08337Y11107*
X08337Y11107*
X08338Y11108*
X08338Y11108*
X08339Y11108*
X0834Y11109*
X0834Y11109*
X0834Y11109*
X0834Y11109*
X0834Y11109*
X0834Y11109*
X0834Y1111*
X08341Y1111*
X08341Y1111*
X08341Y11111*
X08342Y11111*
X08343*
Y11092*
G37*
G36*
X08324Y11111D02*
X08324Y11111D01*
X08325Y11111*
X08325Y11111*
X08326Y11111*
X08326*
X08326Y11111*
X08326*
X08326Y11111*
X08326Y11111*
X08327Y11111*
X08327Y11111*
X08328Y1111*
X08328Y1111*
X08329Y1111*
X08329Y1111*
X08329Y1111*
X08329Y1111*
X08329Y11109*
X08329Y11109*
X0833Y11109*
X0833Y11108*
X0833Y11108*
X08331Y11107*
X08331Y11106*
Y11106*
X08331Y11106*
X08331Y11106*
X08331Y11106*
X08331Y11106*
X08331Y11106*
X08331Y11105*
X08331Y11105*
X08331Y11105*
X08332Y11104*
X08332Y11104*
X08332Y11103*
X08332Y11102*
Y11102*
Y11102*
Y11102*
Y11101*
X08332Y11101*
Y11101*
X08332Y11101*
X08332Y111*
X08332Y11099*
X08331Y11099*
X08331Y11098*
Y11098*
X08331Y11098*
X08331Y11098*
X08331Y11098*
X08331Y11097*
X08331Y11097*
X08331Y11097*
X0833Y11096*
X0833Y11096*
X0833Y11095*
X0833Y11095*
X0833Y11095*
X0833Y11095*
X08329Y11095*
X08329Y11094*
X08329Y11094*
X08329Y11094*
X08328Y11093*
X08328Y11093*
X08328Y11093*
X08328Y11093*
X08328Y11093*
X08327Y11093*
X08327Y11093*
X08326Y11093*
X08326Y11092*
X08326*
X08326Y11092*
X08326Y11092*
X08325Y11092*
X08325Y11092*
X08325Y11092*
X08324Y11092*
X08323Y11092*
X08323Y11092*
X08316*
Y11111*
X08323*
X08324Y11111*
G37*
G36*
X05196Y12994D02*
X05196D01*
X05196*
X05196*
X05196Y12994*
X05195Y12994*
X05195Y12994*
X05195Y12994*
X05195Y12995*
X05195*
X05194Y12995*
X05194Y12995*
X05194Y12995*
X05194Y12995*
X05193Y12995*
X05193Y12995*
X05192Y12996*
X05192Y12996*
X05192*
X05192Y12996*
X05192Y12996*
X05192Y12997*
X05191Y12997*
X05191Y12997*
X0519Y12998*
X0519Y12998*
X05189Y12999*
X05189Y12999*
X05189Y12999*
X05189Y12999*
X05189Y13*
X05188Y13*
X05188Y13*
X05188Y13001*
X05188Y13001*
X05187Y13002*
X05186Y13002*
X05186Y13003*
X05186Y13003*
X05185Y13003*
X05185Y13003*
X05185*
X05185Y13003*
X05185Y13004*
X05185Y13004*
X05184Y13004*
X05184Y13004*
X05184Y13004*
X05183Y13004*
X05183Y13005*
X05182Y13005*
X05182*
X05182*
X05182Y13005*
X05182Y13005*
X05181Y13004*
X05181Y13004*
X05181Y13004*
X0518Y13004*
X0518Y13004*
X0518Y13003*
X0518Y13003*
X0518Y13003*
X05179Y13003*
X05179Y13002*
X05179Y13002*
X05179Y13001*
X05179Y13001*
Y13001*
X05179Y13001*
X05179Y13*
X05179Y13*
X05179Y12999*
X05179Y12999*
X0518Y12999*
X0518Y12998*
X0518Y12998*
X0518Y12998*
X0518Y12998*
X05181Y12998*
X05181Y12997*
X05182Y12997*
X05182Y12997*
X05183Y12997*
X05182Y12995*
X05182*
X05182Y12995*
X05182*
X05182Y12995*
X05182Y12995*
X05182Y12995*
X05181Y12995*
X05181Y12995*
X0518Y12995*
X0518Y12996*
X05179Y12996*
X05179Y12996*
X05179Y12996*
X05178Y12997*
X05178Y12997*
X05178Y12997*
X05178Y12997*
X05178Y12997*
X05178Y12997*
X05178Y12997*
X05178Y12997*
X05178Y12998*
X05177Y12998*
X05177Y12998*
X05177Y12999*
X05177Y12999*
X05177Y13*
X05177Y13*
X05177Y13*
X05177Y13001*
Y13001*
X05177Y13001*
X05177Y13002*
X05177Y13002*
X05177Y13002*
X05177Y13003*
X05177Y13003*
X05178Y13004*
X05178Y13004*
X05178Y13005*
X05178Y13005*
X05178Y13005*
X05178Y13005*
X05179Y13005*
X05179Y13005*
X05179Y13006*
X05179Y13006*
X05179Y13006*
X05179Y13006*
X0518Y13006*
X0518Y13006*
X05181Y13007*
X05181Y13007*
X05181Y13007*
X05182Y13007*
X05182Y13007*
X05182*
X05182*
X05183Y13007*
X05183Y13007*
X05183Y13007*
X05184Y13007*
X05184Y13007*
X05185Y13006*
X05185Y13006*
X05185Y13006*
X05185Y13006*
X05185Y13006*
X05186Y13006*
X05186Y13006*
X05186Y13005*
X05187Y13005*
X05187Y13005*
X05187Y13005*
X05187Y13005*
X05187Y13004*
X05188Y13004*
X05188Y13004*
X05188Y13004*
X05188Y13004*
X05188Y13003*
X05189Y13003*
X05189Y13003*
X05189Y13002*
X0519Y13002*
X0519Y13001*
X0519Y13001*
X0519Y13001*
X0519Y13001*
X0519Y13001*
X05191Y13001*
X05191Y13001*
X05191Y13*
X05192Y13*
X05192Y12999*
X05192Y12999*
X05193Y12999*
X05193Y12999*
X05193Y12999*
X05193Y12998*
X05193Y12998*
X05193Y12998*
X05193Y12998*
X05193Y12998*
X05194Y12998*
Y13007*
X05196*
Y12994*
G37*
G36*
X0519Y12992D02*
X0519Y12992D01*
X05191Y12992*
X05191Y12992*
X05191Y12992*
X05192Y12992*
X05192Y12992*
X05193Y12991*
X05193Y12991*
X05194Y12991*
X05194Y1299*
X05195Y1299*
X05195Y1299*
X05195Y1299*
X05195Y12989*
X05195Y12989*
X05195Y12989*
X05195Y12989*
X05195Y12989*
X05196Y12988*
X05196Y12988*
X05196Y12988*
X05196Y12987*
X05196Y12987*
X05196Y12987*
X05196Y12986*
X05196Y12986*
X05196Y12985*
X05196Y12985*
Y12984*
X05196Y12984*
Y12984*
X05196Y12983*
X05196Y12983*
X05196Y12983*
X05196Y12982*
X05196Y12981*
X05196Y1298*
X05195Y1298*
X05195Y12979*
X05195Y12979*
X05195Y12979*
X05195Y12979*
X05195Y12979*
X05195Y12979*
X05195Y12979*
X05195Y12979*
X05194Y12978*
X05194Y12978*
X05194Y12978*
X05193Y12977*
X05192Y12977*
X05192Y12977*
X05192*
X05191Y12976*
X05191Y12976*
X05191Y12976*
X05191Y12976*
X05191Y12976*
X0519Y12976*
X0519Y12976*
X0519Y12976*
X05189Y12976*
X05188Y12976*
X05187Y12976*
X05186Y12976*
X05186*
X05186*
X05186*
X05186Y12976*
X05186*
X05185Y12976*
X05185Y12976*
X05185Y12976*
X05184Y12976*
X05183Y12976*
X05182Y12976*
X05181Y12977*
X05181Y12977*
X05181Y12977*
X05181Y12977*
X05181Y12977*
X05181Y12977*
X0518Y12977*
X0518Y12977*
X05179Y12978*
X05179Y12978*
X05178Y12979*
X05178Y1298*
X05178Y1298*
X05178Y1298*
X05178Y1298*
X05178Y1298*
X05178Y1298*
X05177Y12981*
X05177Y12981*
X05177Y12981*
X05177Y12982*
X05177Y12982*
X05177Y12983*
X05177Y12984*
X05177Y12985*
Y12985*
X05177Y12985*
X05177Y12985*
X05177Y12986*
X05177Y12986*
X05177Y12986*
X05177Y12987*
X05177Y12988*
X05177Y12988*
X05178Y12989*
X05178Y12989*
X05178Y12989*
X05178Y12989*
X05178Y12989*
X05178Y1299*
X05178Y1299*
X05179Y1299*
X05179Y1299*
X05179Y1299*
X05179Y1299*
X05179Y12991*
X0518Y12991*
X0518Y12991*
X0518Y12991*
X05181Y12992*
X05181Y12992*
X05182Y12992*
X05182Y12992*
X05183Y1299*
X05183*
X05183Y1299*
X05183Y1299*
X05183Y12989*
X05182Y12989*
X05182Y12989*
X05182Y12989*
X05181Y12989*
X05181Y12989*
X0518Y12988*
X0518Y12988*
X0518Y12988*
X0518Y12987*
X05179Y12987*
X05179Y12987*
X05179Y12986*
X05179Y12986*
X05179Y12985*
X05179Y12984*
Y12984*
X05179Y12984*
Y12984*
X05179Y12984*
X05179Y12983*
X05179Y12983*
X05179Y12982*
X0518Y12981*
X0518Y12981*
Y12981*
X0518Y12981*
X0518Y12981*
X0518Y1298*
X05181Y1298*
X05181Y1298*
X05182Y12979*
X05182Y12979*
X05183Y12979*
X05183*
X05183Y12979*
X05183Y12979*
X05183Y12979*
X05183Y12979*
X05183Y12978*
X05184Y12978*
X05184Y12978*
X05185Y12978*
X05186Y12978*
X05186Y12978*
X05186*
X05187*
X05187*
X05187*
X05187Y12978*
X05187*
X05188Y12978*
X05188Y12978*
X05189Y12978*
X05189Y12978*
X0519Y12979*
X05191Y12979*
X05191*
X05191Y12979*
X05191Y12979*
X05191Y12979*
X05191Y12979*
X05192Y12979*
X05192Y1298*
X05193Y1298*
X05193Y1298*
X05193Y12981*
Y12981*
X05193Y12981*
X05194Y12981*
X05194Y12981*
X05194Y12981*
X05194Y12982*
X05194Y12982*
X05194Y12982*
X05194Y12983*
X05194Y12984*
X05194Y12984*
Y12984*
X05194Y12985*
Y12985*
X05194Y12985*
X05194Y12986*
X05194Y12986*
X05194Y12987*
X05194Y12987*
X05193Y12988*
X05193Y12988*
X05193Y12988*
X05193Y12988*
X05193Y12988*
X05193Y12988*
X05193Y12988*
X05193Y12988*
X05192Y12989*
X05192Y12989*
X05192Y12989*
X05192Y12989*
X05191Y12989*
X05191Y12989*
X05191Y1299*
X0519Y1299*
X0519Y1299*
X05189Y1299*
X0519Y12992*
X0519*
X0519Y12992*
G37*
G36*
X03666Y12238D02*
X03666Y12238D01*
X03667Y12238*
X03667Y12238*
X03667Y12238*
X03668Y12238*
X03669Y12237*
X03669Y12237*
X0367Y12237*
X0367Y12237*
X0367Y12236*
X0367Y12236*
X0367Y12236*
X03671Y12236*
X03671Y12236*
X03671Y12236*
X03671Y12236*
X03671Y12236*
X03671Y12235*
X03672Y12235*
X03672Y12235*
X03672Y12234*
X03672Y12234*
X03673Y12234*
X03673Y12233*
X03673Y12233*
X03673Y12232*
X03671Y12232*
Y12232*
X03671Y12232*
X03671Y12232*
X0367Y12232*
X0367Y12232*
X0367Y12232*
X0367Y12233*
X0367Y12233*
X0367Y12234*
X03669Y12234*
X03669Y12235*
X03669Y12235*
X03668Y12235*
X03668Y12235*
X03668Y12235*
X03667Y12235*
X03667Y12236*
X03666Y12236*
X03665Y12236*
X03665*
X03665Y12236*
X03665*
X03665Y12236*
X03664Y12236*
X03664Y12236*
X03663Y12235*
X03662Y12235*
X03662Y12235*
X03662*
X03662Y12235*
X03662Y12234*
X03661Y12234*
X03661Y12234*
X03661Y12234*
X0366Y12233*
X0366Y12232*
X0366Y12232*
Y12232*
X0366Y12232*
X0366Y12232*
X0366Y12232*
X0366Y12231*
X03659Y12231*
X03659Y12231*
X03659Y1223*
X03659Y1223*
X03659Y12229*
X03659Y12228*
Y12228*
Y12228*
Y12228*
Y12228*
X03659Y12228*
Y12227*
X03659Y12227*
X03659Y12227*
X03659Y12226*
X03659Y12225*
X0366Y12225*
X0366Y12224*
Y12224*
X0366Y12224*
X0366Y12224*
X0366Y12224*
X0366Y12223*
X0366Y12223*
X03661Y12222*
X03661Y12222*
X03661Y12222*
X03662Y12221*
X03662*
X03662Y12221*
X03662Y12221*
X03662Y12221*
X03662Y12221*
X03663Y12221*
X03663Y12221*
X03663Y12221*
X03664Y1222*
X03665Y1222*
X03665Y1222*
X03665*
X03666Y1222*
X03666*
X03666Y1222*
X03667Y1222*
X03667Y12221*
X03668Y12221*
X03668Y12221*
X03669Y12221*
X03669Y12221*
X03669Y12222*
X03669Y12222*
X03669Y12222*
X03669Y12222*
X03669Y12222*
X03669Y12222*
X0367Y12222*
X0367Y12222*
X0367Y12223*
X0367Y12223*
X0367Y12223*
X0367Y12224*
X03671Y12224*
X03671Y12224*
X03671Y12225*
X03671Y12225*
X03673Y12224*
Y12224*
X03673Y12224*
X03673Y12224*
X03673Y12224*
X03673Y12224*
X03673Y12223*
X03673Y12223*
X03673Y12223*
X03672Y12222*
X03672Y12221*
X03672Y12221*
X03671Y1222*
X03671Y1222*
X03671Y1222*
X03671Y1222*
X0367Y1222*
X0367Y1222*
X0367Y12219*
X0367Y12219*
X0367Y12219*
X03669Y12219*
X03669Y12219*
X03669Y12219*
X03668Y12219*
X03668Y12218*
X03668Y12218*
X03667Y12218*
X03667Y12218*
X03666Y12218*
X03665Y12218*
X03665*
X03665Y12218*
X03665*
X03664Y12218*
X03664Y12218*
X03664Y12218*
X03663Y12218*
X03662Y12219*
X03661Y12219*
X03661Y12219*
X0366Y12219*
X0366Y12219*
X0366Y12219*
X0366Y12219*
X0366Y1222*
X0366Y1222*
X0366Y1222*
X0366Y1222*
X03659Y1222*
X03659Y12221*
X03659Y12221*
X03658Y12221*
X03658Y12222*
X03657Y12223*
Y12223*
X03657Y12223*
X03657Y12223*
X03657Y12223*
X03657Y12224*
X03657Y12224*
X03657Y12224*
X03657Y12225*
X03657Y12225*
X03657Y12225*
X03657Y12226*
X03657Y12227*
X03656Y12228*
Y12228*
Y12228*
Y12228*
X03657Y12229*
Y12229*
X03657Y12229*
X03657Y1223*
X03657Y1223*
X03657Y12231*
X03657Y12232*
X03657Y12232*
X03658Y12233*
X03658Y12233*
X03658Y12233*
X03658Y12234*
X03658Y12234*
X03658Y12234*
X03658Y12234*
X03658Y12235*
X03659Y12235*
X03659Y12236*
X0366Y12236*
X03661Y12237*
X03661Y12237*
X03661Y12237*
X03661Y12237*
X03661Y12237*
X03661Y12237*
X03662Y12237*
X03662Y12237*
X03662Y12237*
X03663Y12237*
X03663Y12238*
X03664Y12238*
X03665Y12238*
X03666Y12238*
X03666*
X03666Y12238*
G37*
G36*
X03688Y12235D02*
X03688Y12235D01*
X03688Y12235*
X03688Y12235*
X03688Y12235*
X03688Y12235*
X03687Y12235*
X03687Y12234*
X03687Y12234*
X03687Y12234*
X03686Y12233*
X03686Y12233*
X03686Y12232*
X03686Y12232*
X03685Y12231*
X03685Y12231*
X03685Y1223*
X03684Y1223*
X03684Y1223*
X03684Y1223*
X03684Y1223*
X03684Y12229*
X03684Y12229*
X03684Y12229*
X03684Y12228*
X03683Y12228*
X03683Y12227*
X03683Y12227*
X03683Y12226*
X03682Y12225*
X03682Y12224*
Y12224*
X03682Y12224*
X03682Y12223*
X03682Y12223*
X03682Y12223*
X03682Y12223*
X03681Y12222*
X03681Y12222*
X03681Y12222*
X03681Y12221*
X03681Y1222*
X03681Y12219*
X03681Y12218*
X03678*
Y12218*
Y12219*
Y12219*
X03678Y12219*
Y12219*
X03679Y12219*
X03679Y1222*
X03679Y1222*
X03679Y1222*
X03679Y12221*
X03679Y12221*
X03679Y12222*
X03679Y12222*
X03679Y12223*
X03679Y12224*
Y12224*
X03679Y12224*
X03679Y12224*
X03679Y12224*
X0368Y12225*
X0368Y12225*
X0368Y12225*
X0368Y12226*
X0368Y12226*
X0368Y12227*
X03681Y12228*
X03681Y12229*
X03682Y1223*
X03682Y1223*
X03682Y1223*
X03682Y1223*
X03682Y12231*
X03682Y12231*
X03682Y12231*
X03683Y12231*
X03683Y12232*
X03683Y12233*
X03684Y12233*
X03684Y12234*
X03685Y12235*
X03676*
Y12237*
X03688*
Y12235*
G37*
G36*
X04075Y13354D02*
X04072D01*
Y1337*
X04067Y13354*
X04064*
X04059Y1337*
Y13354*
X04056*
Y13373*
X0406*
X04065Y1336*
Y1336*
X04065Y1336*
X04065Y1336*
X04065Y13359*
X04065Y13359*
X04065Y13359*
X04065Y13358*
X04065Y13358*
X04066Y13357*
X04066Y13357*
X04066Y13357*
X04066Y13357*
X04066Y13357*
X04066Y13358*
X04066Y13358*
X04066Y13359*
X04067Y13359*
X04067Y1336*
X04071Y13373*
X04075*
Y13354*
G37*
G36*
X04106D02*
X04104D01*
Y13369*
X04104Y13369*
X04104Y13369*
X04103Y13369*
X04103Y13369*
X04103Y13368*
X04102Y13368*
X04102Y13368*
X04102Y13367*
X04102*
X04101Y13367*
X04101Y13367*
X04101Y13367*
X04101Y13367*
X041Y13367*
X041Y13367*
X04099Y13366*
X04099Y13366*
Y13369*
X04099*
X04099Y13369*
X04099Y13369*
X04099Y13369*
X041Y13369*
X041Y13369*
X041Y13369*
X04101Y1337*
X04101Y1337*
X04102Y1337*
X04103Y13371*
X04103Y13371*
X04103Y13371*
X04103Y13371*
X04103Y13371*
X04103Y13371*
X04103Y13372*
X04104Y13372*
X04104Y13372*
X04104Y13373*
X04105Y13373*
X04106*
Y13354*
G37*
G36*
X04087Y13373D02*
X04087Y13373D01*
X04088Y13373*
X04088Y13373*
X04089Y13373*
X04089*
X04089Y13373*
X04089*
X04089Y13373*
X04089Y13373*
X0409Y13373*
X0409Y13373*
X04091Y13372*
X04091Y13372*
X04092Y13372*
X04092Y13372*
X04092Y13372*
X04092Y13372*
X04092Y13371*
X04092Y13371*
X04093Y13371*
X04093Y1337*
X04093Y1337*
X04094Y13369*
X04094Y13368*
Y13368*
X04094Y13368*
X04094Y13368*
X04094Y13368*
X04094Y13368*
X04094Y13368*
X04094Y13367*
X04094Y13367*
X04094Y13367*
X04094Y13366*
X04095Y13366*
X04095Y13365*
X04095Y13364*
Y13364*
Y13364*
Y13364*
Y13363*
X04095Y13363*
Y13363*
X04095Y13363*
X04095Y13362*
X04095Y13361*
X04094Y13361*
X04094Y1336*
Y1336*
X04094Y1336*
X04094Y1336*
X04094Y1336*
X04094Y13359*
X04094Y13359*
X04094Y13359*
X04093Y13358*
X04093Y13358*
X04093Y13357*
X04093Y13357*
X04093Y13357*
X04093Y13357*
X04092Y13357*
X04092Y13356*
X04092Y13356*
X04092Y13356*
X04091Y13355*
X04091Y13355*
X04091Y13355*
X04091Y13355*
X04091Y13355*
X0409Y13355*
X0409Y13355*
X04089Y13355*
X04089Y13354*
X04089*
X04089Y13354*
X04089Y13354*
X04088Y13354*
X04088Y13354*
X04088Y13354*
X04087Y13354*
X04086Y13354*
X04086Y13354*
X04079*
Y13373*
X04086*
X04087Y13373*
G37*
G36*
X09433Y12994D02*
X09433D01*
X09433*
X09433*
X09433Y12994*
X09432Y12994*
X09432Y12994*
X09432Y12994*
X09432Y12995*
X09432*
X09431Y12995*
X09431Y12995*
X09431Y12995*
X09431Y12995*
X0943Y12995*
X0943Y12995*
X09429Y12996*
X09429Y12996*
X09429*
X09429Y12996*
X09429Y12996*
X09429Y12997*
X09428Y12997*
X09428Y12997*
X09427Y12998*
X09427Y12998*
X09426Y12999*
X09426Y12999*
X09426Y12999*
X09426Y12999*
X09426Y13*
X09425Y13*
X09425Y13*
X09425Y13001*
X09425Y13001*
X09424Y13002*
X09423Y13002*
X09423Y13003*
X09423Y13003*
X09422Y13003*
X09422Y13003*
X09422*
X09422Y13003*
X09422Y13004*
X09422Y13004*
X09421Y13004*
X09421Y13004*
X09421Y13004*
X0942Y13004*
X0942Y13005*
X09419Y13005*
X09419*
X09419*
X09419Y13005*
X09419Y13005*
X09418Y13004*
X09418Y13004*
X09418Y13004*
X09417Y13004*
X09417Y13004*
X09417Y13003*
X09417Y13003*
X09417Y13003*
X09416Y13003*
X09416Y13002*
X09416Y13002*
X09416Y13001*
X09416Y13001*
Y13001*
X09416Y13001*
X09416Y13*
X09416Y13*
X09416Y12999*
X09416Y12999*
X09417Y12999*
X09417Y12998*
X09417Y12998*
X09417Y12998*
X09417Y12998*
X09418Y12998*
X09418Y12997*
X09419Y12997*
X09419Y12997*
X0942Y12997*
X09419Y12995*
X09419*
X09419Y12995*
X09419*
X09419Y12995*
X09419Y12995*
X09419Y12995*
X09418Y12995*
X09418Y12995*
X09417Y12995*
X09417Y12996*
X09416Y12996*
X09416Y12996*
X09416Y12996*
X09415Y12997*
X09415Y12997*
X09415Y12997*
X09415Y12997*
X09415Y12997*
X09415Y12997*
X09415Y12997*
X09415Y12997*
X09415Y12998*
X09415Y12998*
X09414Y12998*
X09414Y12999*
X09414Y12999*
X09414Y13*
X09414Y13*
X09414Y13*
X09414Y13001*
Y13001*
X09414Y13001*
X09414Y13002*
X09414Y13002*
X09414Y13002*
X09414Y13003*
X09414Y13003*
X09415Y13004*
X09415Y13004*
X09415Y13005*
X09415Y13005*
X09415Y13005*
X09415Y13005*
X09416Y13005*
X09416Y13005*
X09416Y13006*
X09416Y13006*
X09416Y13006*
X09416Y13006*
X09417Y13006*
X09417Y13006*
X09418Y13007*
X09418Y13007*
X09418Y13007*
X09419Y13007*
X09419Y13007*
X09419*
X09419*
X0942Y13007*
X0942Y13007*
X0942Y13007*
X09421Y13007*
X09421Y13007*
X09422Y13006*
X09422Y13006*
X09422Y13006*
X09422Y13006*
X09422Y13006*
X09423Y13006*
X09423Y13006*
X09423Y13005*
X09424Y13005*
X09424Y13005*
X09424Y13005*
X09424Y13005*
X09424Y13004*
X09425Y13004*
X09425Y13004*
X09425Y13004*
X09425Y13004*
X09425Y13003*
X09426Y13003*
X09426Y13003*
X09426Y13002*
X09427Y13002*
X09427Y13001*
X09427Y13001*
X09427Y13001*
X09427Y13001*
X09427Y13001*
X09428Y13001*
X09428Y13001*
X09428Y13*
X09429Y13*
X09429Y12999*
X09429Y12999*
X0943Y12999*
X0943Y12999*
X0943Y12999*
X0943Y12998*
X0943Y12998*
X0943Y12998*
X0943Y12998*
X0943Y12998*
X09431Y12998*
Y13007*
X09433*
Y12994*
G37*
G36*
X09427Y12992D02*
X09427Y12992D01*
X09428Y12992*
X09428Y12992*
X09428Y12992*
X09429Y12992*
X09429Y12992*
X0943Y12991*
X0943Y12991*
X09431Y12991*
X09431Y1299*
X09432Y1299*
X09432Y1299*
X09432Y1299*
X09432Y12989*
X09432Y12989*
X09432Y12989*
X09432Y12989*
X09432Y12989*
X09433Y12988*
X09433Y12988*
X09433Y12988*
X09433Y12987*
X09433Y12987*
X09433Y12987*
X09433Y12986*
X09433Y12986*
X09433Y12985*
X09434Y12985*
Y12984*
X09433Y12984*
Y12984*
X09433Y12983*
X09433Y12983*
X09433Y12983*
X09433Y12982*
X09433Y12981*
X09433Y1298*
X09432Y1298*
X09432Y12979*
X09432Y12979*
X09432Y12979*
X09432Y12979*
X09432Y12979*
X09432Y12979*
X09432Y12979*
X09432Y12979*
X09431Y12978*
X09431Y12978*
X09431Y12978*
X0943Y12977*
X09429Y12977*
X09429Y12977*
X09429*
X09428Y12976*
X09428Y12976*
X09428Y12976*
X09428Y12976*
X09428Y12976*
X09427Y12976*
X09427Y12976*
X09427Y12976*
X09426Y12976*
X09425Y12976*
X09424Y12976*
X09423Y12976*
X09423*
X09423*
X09423*
X09423Y12976*
X09423*
X09422Y12976*
X09422Y12976*
X09422Y12976*
X09421Y12976*
X0942Y12976*
X09419Y12976*
X09418Y12977*
X09418Y12977*
X09418Y12977*
X09418Y12977*
X09418Y12977*
X09418Y12977*
X09417Y12977*
X09417Y12977*
X09416Y12978*
X09416Y12978*
X09415Y12979*
X09415Y1298*
X09415Y1298*
X09415Y1298*
X09415Y1298*
X09415Y1298*
X09415Y1298*
X09414Y12981*
X09414Y12981*
X09414Y12981*
X09414Y12982*
X09414Y12982*
X09414Y12983*
X09414Y12984*
X09414Y12985*
Y12985*
X09414Y12985*
X09414Y12985*
X09414Y12986*
X09414Y12986*
X09414Y12986*
X09414Y12987*
X09414Y12988*
X09414Y12988*
X09415Y12989*
X09415Y12989*
X09415Y12989*
X09415Y12989*
X09415Y12989*
X09415Y1299*
X09415Y1299*
X09416Y1299*
X09416Y1299*
X09416Y1299*
X09416Y1299*
X09416Y12991*
X09417Y12991*
X09417Y12991*
X09417Y12991*
X09418Y12992*
X09418Y12992*
X09419Y12992*
X09419Y12992*
X0942Y1299*
X0942*
X0942Y1299*
X0942Y1299*
X0942Y12989*
X09419Y12989*
X09419Y12989*
X09419Y12989*
X09418Y12989*
X09418Y12989*
X09417Y12988*
X09417Y12988*
X09417Y12988*
X09417Y12987*
X09416Y12987*
X09416Y12987*
X09416Y12986*
X09416Y12986*
X09416Y12985*
X09416Y12984*
Y12984*
X09416Y12984*
Y12984*
X09416Y12984*
X09416Y12983*
X09416Y12983*
X09416Y12982*
X09417Y12981*
X09417Y12981*
Y12981*
X09417Y12981*
X09417Y12981*
X09417Y1298*
X09418Y1298*
X09418Y1298*
X09419Y12979*
X09419Y12979*
X0942Y12979*
X0942*
X0942Y12979*
X0942Y12979*
X0942Y12979*
X0942Y12979*
X0942Y12978*
X09421Y12978*
X09421Y12978*
X09422Y12978*
X09423Y12978*
X09423Y12978*
X09423*
X09424*
X09424*
X09424*
X09424Y12978*
X09424*
X09425Y12978*
X09425Y12978*
X09426Y12978*
X09426Y12978*
X09427Y12979*
X09428Y12979*
X09428*
X09428Y12979*
X09428Y12979*
X09428Y12979*
X09428Y12979*
X09429Y12979*
X09429Y1298*
X0943Y1298*
X0943Y1298*
X0943Y12981*
Y12981*
X0943Y12981*
X09431Y12981*
X09431Y12981*
X09431Y12981*
X09431Y12982*
X09431Y12982*
X09431Y12982*
X09431Y12983*
X09431Y12984*
X09431Y12984*
Y12984*
X09431Y12985*
Y12985*
X09431Y12985*
X09431Y12986*
X09431Y12986*
X09431Y12987*
X09431Y12987*
X0943Y12988*
X0943Y12988*
X0943Y12988*
X0943Y12988*
X0943Y12988*
X0943Y12988*
X0943Y12988*
X0943Y12988*
X09429Y12989*
X09429Y12989*
X09429Y12989*
X09429Y12989*
X09428Y12989*
X09428Y12989*
X09428Y1299*
X09427Y1299*
X09427Y1299*
X09426Y1299*
X09427Y12992*
X09427*
X09427Y12992*
G37*
G36*
X07903Y12238D02*
X07903Y12238D01*
X07904Y12238*
X07904Y12238*
X07904Y12238*
X07905Y12238*
X07906Y12237*
X07906Y12237*
X07907Y12237*
X07907Y12237*
X07907Y12236*
X07907Y12236*
X07907Y12236*
X07908Y12236*
X07908Y12236*
X07908Y12236*
X07908Y12236*
X07908Y12236*
X07908Y12235*
X07909Y12235*
X07909Y12235*
X07909Y12234*
X07909Y12234*
X0791Y12234*
X0791Y12233*
X0791Y12233*
X0791Y12232*
X07908Y12232*
Y12232*
X07908Y12232*
X07908Y12232*
X07907Y12232*
X07907Y12232*
X07907Y12232*
X07907Y12233*
X07907Y12233*
X07907Y12234*
X07906Y12234*
X07906Y12235*
X07906Y12235*
X07905Y12235*
X07905Y12235*
X07905Y12235*
X07904Y12235*
X07904Y12236*
X07903Y12236*
X07902Y12236*
X07902*
X07902Y12236*
X07902*
X07902Y12236*
X07901Y12236*
X07901Y12236*
X079Y12235*
X07899Y12235*
X07899Y12235*
X07899*
X07899Y12235*
X07899Y12234*
X07898Y12234*
X07898Y12234*
X07898Y12234*
X07897Y12233*
X07897Y12232*
X07897Y12232*
Y12232*
X07897Y12232*
X07897Y12232*
X07897Y12232*
X07897Y12231*
X07896Y12231*
X07896Y12231*
X07896Y1223*
X07896Y1223*
X07896Y12229*
X07896Y12228*
Y12228*
Y12228*
Y12228*
Y12228*
X07896Y12228*
Y12227*
X07896Y12227*
X07896Y12227*
X07896Y12226*
X07896Y12225*
X07897Y12225*
X07897Y12224*
Y12224*
X07897Y12224*
X07897Y12224*
X07897Y12224*
X07897Y12223*
X07897Y12223*
X07898Y12222*
X07898Y12222*
X07898Y12222*
X07899Y12221*
X07899*
X07899Y12221*
X07899Y12221*
X07899Y12221*
X07899Y12221*
X079Y12221*
X079Y12221*
X079Y12221*
X07901Y1222*
X07902Y1222*
X07902Y1222*
X07902*
X07903Y1222*
X07903*
X07903Y1222*
X07904Y1222*
X07904Y12221*
X07905Y12221*
X07905Y12221*
X07906Y12221*
X07906Y12221*
X07906Y12222*
X07906Y12222*
X07906Y12222*
X07906Y12222*
X07906Y12222*
X07906Y12222*
X07907Y12222*
X07907Y12222*
X07907Y12223*
X07907Y12223*
X07907Y12223*
X07907Y12224*
X07908Y12224*
X07908Y12224*
X07908Y12225*
X07908Y12225*
X0791Y12224*
Y12224*
X0791Y12224*
X0791Y12224*
X0791Y12224*
X0791Y12224*
X0791Y12223*
X0791Y12223*
X0791Y12223*
X07909Y12222*
X07909Y12221*
X07909Y12221*
X07908Y1222*
X07908Y1222*
X07908Y1222*
X07908Y1222*
X07907Y1222*
X07907Y1222*
X07907Y12219*
X07907Y12219*
X07907Y12219*
X07906Y12219*
X07906Y12219*
X07906Y12219*
X07905Y12219*
X07905Y12218*
X07905Y12218*
X07904Y12218*
X07904Y12218*
X07903Y12218*
X07903Y12218*
X07902*
X07902Y12218*
X07902*
X07901Y12218*
X07901Y12218*
X07901Y12218*
X079Y12218*
X07899Y12219*
X07898Y12219*
X07898Y12219*
X07897Y12219*
X07897Y12219*
X07897Y12219*
X07897Y12219*
X07897Y1222*
X07897Y1222*
X07897Y1222*
X07897Y1222*
X07896Y1222*
X07896Y12221*
X07896Y12221*
X07895Y12221*
X07895Y12222*
X07895Y12223*
Y12223*
X07894Y12223*
X07894Y12223*
X07894Y12223*
X07894Y12224*
X07894Y12224*
X07894Y12224*
X07894Y12225*
X07894Y12225*
X07894Y12225*
X07894Y12226*
X07894Y12227*
X07894Y12228*
Y12228*
Y12228*
Y12228*
X07894Y12229*
Y12229*
X07894Y12229*
X07894Y1223*
X07894Y1223*
X07894Y12231*
X07894Y12232*
X07894Y12232*
X07895Y12233*
X07895Y12233*
X07895Y12233*
X07895Y12234*
X07895Y12234*
X07895Y12234*
X07895Y12234*
X07895Y12235*
X07896Y12235*
X07896Y12236*
X07897Y12236*
X07898Y12237*
X07898Y12237*
X07898Y12237*
X07898Y12237*
X07898Y12237*
X07898Y12237*
X07899Y12237*
X07899Y12237*
X07899Y12237*
X079Y12237*
X079Y12238*
X07901Y12238*
X07902Y12238*
X07903Y12238*
X07903*
X07903Y12238*
G37*
G36*
X07925Y12235D02*
X07925Y12235D01*
X07925Y12235*
X07925Y12235*
X07925Y12235*
X07925Y12235*
X07925Y12235*
X07924Y12234*
X07924Y12234*
X07924Y12234*
X07923Y12233*
X07923Y12233*
X07923Y12232*
X07923Y12232*
X07922Y12231*
X07922Y12231*
X07922Y1223*
X07922Y1223*
X07921Y1223*
X07921Y1223*
X07921Y1223*
X07921Y12229*
X07921Y12229*
X07921Y12229*
X07921Y12228*
X0792Y12228*
X0792Y12227*
X0792Y12227*
X0792Y12226*
X07919Y12225*
X07919Y12224*
Y12224*
X07919Y12224*
X07919Y12223*
X07919Y12223*
X07919Y12223*
X07919Y12223*
X07918Y12222*
X07918Y12222*
X07918Y12222*
X07918Y12221*
X07918Y1222*
X07918Y12219*
X07918Y12218*
X07915*
Y12218*
Y12219*
Y12219*
X07915Y12219*
Y12219*
X07916Y12219*
X07916Y1222*
X07916Y1222*
X07916Y1222*
X07916Y12221*
X07916Y12221*
X07916Y12222*
X07916Y12222*
X07916Y12223*
X07916Y12224*
Y12224*
X07916Y12224*
X07916Y12224*
X07916Y12224*
X07917Y12225*
X07917Y12225*
X07917Y12225*
X07917Y12226*
X07917Y12226*
X07917Y12227*
X07918Y12228*
X07918Y12229*
X07919Y1223*
X07919Y1223*
X07919Y1223*
X07919Y1223*
X07919Y12231*
X07919Y12231*
X07919Y12231*
X0792Y12231*
X0792Y12232*
X0792Y12233*
X07921Y12233*
X07922Y12234*
X07922Y12235*
X07913*
Y12237*
X07925*
Y12235*
G37*
G36*
X08312Y13354D02*
X08309D01*
Y1337*
X08304Y13354*
X08301*
X08296Y1337*
Y13354*
X08294*
Y13373*
X08297*
X08302Y1336*
Y1336*
X08302Y1336*
X08302Y1336*
X08302Y13359*
X08302Y13359*
X08302Y13359*
X08302Y13358*
X08303Y13358*
X08303Y13357*
X08303Y13357*
X08303Y13357*
X08303Y13357*
X08303Y13357*
X08303Y13358*
X08303Y13358*
X08303Y13359*
X08304Y13359*
X08304Y1336*
X08308Y13373*
X08312*
Y13354*
G37*
G36*
X08343D02*
X08341D01*
Y13369*
X08341Y13369*
X08341Y13369*
X0834Y13369*
X0834Y13369*
X0834Y13368*
X08339Y13368*
X08339Y13368*
X08339Y13367*
X08339*
X08338Y13367*
X08338Y13367*
X08338Y13367*
X08338Y13367*
X08337Y13367*
X08337Y13367*
X08336Y13366*
X08336Y13366*
Y13369*
X08336*
X08336Y13369*
X08336Y13369*
X08336Y13369*
X08337Y13369*
X08337Y13369*
X08337Y13369*
X08338Y1337*
X08338Y1337*
X08339Y1337*
X0834Y13371*
X0834Y13371*
X0834Y13371*
X0834Y13371*
X0834Y13371*
X0834Y13371*
X0834Y13372*
X08341Y13372*
X08341Y13372*
X08341Y13373*
X08342Y13373*
X08343*
Y13354*
G37*
G36*
X08324Y13373D02*
X08324Y13373D01*
X08325Y13373*
X08325Y13373*
X08326Y13373*
X08326*
X08326Y13373*
X08326*
X08326Y13373*
X08326Y13373*
X08327Y13373*
X08327Y13373*
X08328Y13372*
X08328Y13372*
X08329Y13372*
X08329Y13372*
X08329Y13372*
X08329Y13372*
X08329Y13371*
X08329Y13371*
X0833Y13371*
X0833Y1337*
X0833Y1337*
X08331Y13369*
X08331Y13368*
Y13368*
X08331Y13368*
X08331Y13368*
X08331Y13368*
X08331Y13368*
X08331Y13368*
X08331Y13367*
X08331Y13367*
X08331Y13367*
X08332Y13366*
X08332Y13366*
X08332Y13365*
X08332Y13364*
Y13364*
Y13364*
Y13364*
Y13363*
X08332Y13363*
Y13363*
X08332Y13363*
X08332Y13362*
X08332Y13361*
X08331Y13361*
X08331Y1336*
Y1336*
X08331Y1336*
X08331Y1336*
X08331Y1336*
X08331Y13359*
X08331Y13359*
X08331Y13359*
X0833Y13358*
X0833Y13358*
X0833Y13357*
X0833Y13357*
X0833Y13357*
X0833Y13357*
X08329Y13357*
X08329Y13356*
X08329Y13356*
X08329Y13356*
X08328Y13355*
X08328Y13355*
X08328Y13355*
X08328Y13355*
X08328Y13355*
X08327Y13355*
X08327Y13355*
X08326Y13355*
X08326Y13354*
X08326*
X08326Y13354*
X08326Y13354*
X08325Y13354*
X08325Y13354*
X08325Y13354*
X08324Y13354*
X08323Y13354*
X08323Y13354*
X08316*
Y13373*
X08323*
X08324Y13373*
G37*
%LNcontrolboardv1-2*%
%LPC*%
G36*
X04086Y04324D02*
X04081D01*
Y04309*
X04086*
X04086Y04309*
X04087Y04309*
X04087Y04309*
X04088Y0431*
X04088Y0431*
X04088Y0431*
X04089Y0431*
X04089Y0431*
X04089Y0431*
X04089Y0431*
X04089Y0431*
X0409Y0431*
X0409Y04311*
X0409Y04311*
X0409Y04311*
X0409Y04311*
X04091Y04311*
X04091Y04311*
X04091Y04312*
X04091Y04312*
X04091Y04313*
X04092Y04313*
Y04313*
X04092Y04313*
X04092Y04313*
X04092Y04313*
X04092Y04314*
X04092Y04314*
X04092Y04314*
X04092Y04314*
X04092Y04315*
X04092Y04315*
X04092Y04316*
X04092Y04317*
Y04317*
Y04317*
Y04317*
X04092Y04317*
Y04318*
X04092Y04318*
X04092Y04318*
X04092Y04319*
X04092Y04319*
X04092Y0432*
X04091Y04321*
X04091Y04321*
X04091Y04321*
Y04321*
X04091Y04322*
X04091Y04322*
X04091Y04322*
X04091Y04322*
X0409Y04322*
X0409Y04323*
X0409Y04323*
X04089Y04323*
X04089Y04324*
X04089Y04324*
X04089Y04324*
X04088Y04324*
X04088Y04324*
X04087Y04324*
X04087Y04324*
X04087Y04324*
X04086*
X04086Y04324*
G37*
G36*
X08323D02*
X08318D01*
Y04309*
X08323*
X08323Y04309*
X08324Y04309*
X08324Y04309*
X08325Y0431*
X08325Y0431*
X08325Y0431*
X08326Y0431*
X08326Y0431*
X08326Y0431*
X08326Y0431*
X08326Y0431*
X08327Y0431*
X08327Y04311*
X08327Y04311*
X08327Y04311*
X08327Y04311*
X08328Y04311*
X08328Y04311*
X08328Y04312*
X08328Y04312*
X08328Y04313*
X08329Y04313*
Y04313*
X08329Y04313*
X08329Y04313*
X08329Y04313*
X08329Y04314*
X08329Y04314*
X08329Y04314*
X08329Y04314*
X08329Y04315*
X08329Y04315*
X08329Y04316*
X08329Y04317*
Y04317*
Y04317*
Y04317*
X08329Y04317*
Y04318*
X08329Y04318*
X08329Y04318*
X08329Y04319*
X08329Y04319*
X08329Y0432*
X08328Y04321*
X08328Y04321*
X08328Y04321*
Y04321*
X08328Y04322*
X08328Y04322*
X08328Y04322*
X08328Y04322*
X08327Y04322*
X08327Y04323*
X08327Y04323*
X08326Y04323*
X08326Y04324*
X08326Y04324*
X08326Y04324*
X08325Y04324*
X08325Y04324*
X08325Y04324*
X08324Y04324*
X08324Y04324*
X08323*
X08323Y04324*
G37*
G36*
X04086Y06586D02*
X04081D01*
Y06571*
X04086*
X04086Y06571*
X04087Y06571*
X04087Y06571*
X04088Y06572*
X04088Y06572*
X04088Y06572*
X04089Y06572*
X04089Y06572*
X04089Y06572*
X04089Y06572*
X04089Y06572*
X0409Y06572*
X0409Y06573*
X0409Y06573*
X0409Y06573*
X0409Y06573*
X04091Y06573*
X04091Y06573*
X04091Y06574*
X04091Y06574*
X04091Y06575*
X04092Y06575*
Y06575*
X04092Y06575*
X04092Y06575*
X04092Y06575*
X04092Y06576*
X04092Y06576*
X04092Y06576*
X04092Y06576*
X04092Y06577*
X04092Y06577*
X04092Y06578*
X04092Y06579*
Y06579*
Y06579*
Y06579*
X04092Y06579*
Y0658*
X04092Y0658*
X04092Y0658*
X04092Y06581*
X04092Y06581*
X04092Y06582*
X04091Y06583*
X04091Y06583*
X04091Y06583*
Y06583*
X04091Y06584*
X04091Y06584*
X04091Y06584*
X04091Y06584*
X0409Y06584*
X0409Y06585*
X0409Y06585*
X04089Y06585*
X04089Y06586*
X04089Y06586*
X04089Y06586*
X04088Y06586*
X04088Y06586*
X04087Y06586*
X04087Y06586*
X04087Y06586*
X04086*
X04086Y06586*
G37*
G36*
X08323D02*
X08318D01*
Y06571*
X08323*
X08323Y06571*
X08324Y06571*
X08324Y06571*
X08325Y06572*
X08325Y06572*
X08325Y06572*
X08326Y06572*
X08326Y06572*
X08326Y06572*
X08326Y06572*
X08326Y06572*
X08327Y06572*
X08327Y06573*
X08327Y06573*
X08327Y06573*
X08327Y06573*
X08328Y06573*
X08328Y06573*
X08328Y06574*
X08328Y06574*
X08328Y06575*
X08329Y06575*
Y06575*
X08329Y06575*
X08329Y06575*
X08329Y06575*
X08329Y06576*
X08329Y06576*
X08329Y06576*
X08329Y06576*
X08329Y06577*
X08329Y06577*
X08329Y06578*
X08329Y06579*
Y06579*
Y06579*
Y06579*
X08329Y06579*
Y0658*
X08329Y0658*
X08329Y0658*
X08329Y06581*
X08329Y06581*
X08329Y06582*
X08328Y06583*
X08328Y06583*
X08328Y06583*
Y06583*
X08328Y06584*
X08328Y06584*
X08328Y06584*
X08328Y06584*
X08327Y06584*
X08327Y06585*
X08327Y06585*
X08326Y06585*
X08326Y06586*
X08326Y06586*
X08326Y06586*
X08325Y06586*
X08325Y06586*
X08325Y06586*
X08324Y06586*
X08324Y06586*
X08323*
X08323Y06586*
G37*
G36*
X04086Y08847D02*
X04081D01*
Y08832*
X04086*
X04086Y08832*
X04087Y08832*
X04087Y08833*
X04088Y08833*
X04088Y08833*
X04088Y08833*
X04089Y08833*
X04089Y08833*
X04089Y08833*
X04089Y08833*
X04089Y08833*
X0409Y08833*
X0409Y08834*
X0409Y08834*
X0409Y08834*
X0409Y08834*
X04091Y08834*
X04091Y08834*
X04091Y08835*
X04091Y08835*
X04091Y08836*
X04092Y08836*
Y08836*
X04092Y08836*
X04092Y08836*
X04092Y08836*
X04092Y08837*
X04092Y08837*
X04092Y08837*
X04092Y08837*
X04092Y08838*
X04092Y08838*
X04092Y08839*
X04092Y0884*
Y0884*
Y0884*
Y0884*
X04092Y0884*
Y08841*
X04092Y08841*
X04092Y08841*
X04092Y08842*
X04092Y08842*
X04092Y08843*
X04091Y08844*
X04091Y08844*
X04091Y08844*
Y08844*
X04091Y08845*
X04091Y08845*
X04091Y08845*
X04091Y08845*
X0409Y08845*
X0409Y08846*
X0409Y08846*
X04089Y08846*
X04089Y08847*
X04089Y08847*
X04089Y08847*
X04088Y08847*
X04088Y08847*
X04087Y08847*
X04087Y08847*
X04087Y08847*
X04086*
X04086Y08847*
G37*
G36*
X08323D02*
X08318D01*
Y08832*
X08323*
X08323Y08832*
X08324Y08832*
X08324Y08833*
X08325Y08833*
X08325Y08833*
X08325Y08833*
X08326Y08833*
X08326Y08833*
X08326Y08833*
X08326Y08833*
X08326Y08833*
X08327Y08833*
X08327Y08834*
X08327Y08834*
X08327Y08834*
X08327Y08834*
X08328Y08834*
X08328Y08834*
X08328Y08835*
X08328Y08835*
X08328Y08836*
X08329Y08836*
Y08836*
X08329Y08836*
X08329Y08836*
X08329Y08836*
X08329Y08837*
X08329Y08837*
X08329Y08837*
X08329Y08837*
X08329Y08838*
X08329Y08838*
X08329Y08839*
X08329Y0884*
Y0884*
Y0884*
Y0884*
X08329Y0884*
Y08841*
X08329Y08841*
X08329Y08841*
X08329Y08842*
X08329Y08842*
X08329Y08843*
X08328Y08844*
X08328Y08844*
X08328Y08844*
Y08844*
X08328Y08845*
X08328Y08845*
X08328Y08845*
X08328Y08845*
X08327Y08845*
X08327Y08846*
X08327Y08846*
X08326Y08846*
X08326Y08847*
X08326Y08847*
X08326Y08847*
X08325Y08847*
X08325Y08847*
X08325Y08847*
X08324Y08847*
X08324Y08847*
X08323*
X08323Y08847*
G37*
G36*
X04086Y11109D02*
X04081D01*
Y11094*
X04086*
X04086Y11094*
X04087Y11094*
X04087Y11095*
X04088Y11095*
X04088Y11095*
X04088Y11095*
X04089Y11095*
X04089Y11095*
X04089Y11095*
X04089Y11095*
X04089Y11095*
X0409Y11095*
X0409Y11096*
X0409Y11096*
X0409Y11096*
X0409Y11096*
X04091Y11096*
X04091Y11096*
X04091Y11097*
X04091Y11097*
X04091Y11098*
X04092Y11098*
Y11098*
X04092Y11098*
X04092Y11098*
X04092Y11098*
X04092Y11099*
X04092Y11099*
X04092Y11099*
X04092Y11099*
X04092Y111*
X04092Y111*
X04092Y11101*
X04092Y11102*
Y11102*
Y11102*
Y11102*
X04092Y11102*
Y11103*
X04092Y11103*
X04092Y11103*
X04092Y11104*
X04092Y11104*
X04092Y11105*
X04091Y11106*
X04091Y11106*
X04091Y11106*
Y11106*
X04091Y11107*
X04091Y11107*
X04091Y11107*
X04091Y11107*
X0409Y11107*
X0409Y11108*
X0409Y11108*
X04089Y11108*
X04089Y11109*
X04089Y11109*
X04089Y11109*
X04088Y11109*
X04088Y11109*
X04087Y11109*
X04087Y11109*
X04087Y11109*
X04086*
X04086Y11109*
G37*
G36*
X08323D02*
X08318D01*
Y11094*
X08323*
X08323Y11094*
X08324Y11094*
X08324Y11095*
X08325Y11095*
X08325Y11095*
X08325Y11095*
X08326Y11095*
X08326Y11095*
X08326Y11095*
X08326Y11095*
X08326Y11095*
X08327Y11095*
X08327Y11096*
X08327Y11096*
X08327Y11096*
X08327Y11096*
X08328Y11096*
X08328Y11096*
X08328Y11097*
X08328Y11097*
X08328Y11098*
X08329Y11098*
Y11098*
X08329Y11098*
X08329Y11098*
X08329Y11098*
X08329Y11099*
X08329Y11099*
X08329Y11099*
X08329Y11099*
X08329Y111*
X08329Y111*
X08329Y11101*
X08329Y11102*
Y11102*
Y11102*
Y11102*
X08329Y11102*
Y11103*
X08329Y11103*
X08329Y11103*
X08329Y11104*
X08329Y11104*
X08329Y11105*
X08328Y11106*
X08328Y11106*
X08328Y11106*
Y11106*
X08328Y11107*
X08328Y11107*
X08328Y11107*
X08328Y11107*
X08327Y11107*
X08327Y11108*
X08327Y11108*
X08326Y11108*
X08326Y11109*
X08326Y11109*
X08326Y11109*
X08325Y11109*
X08325Y11109*
X08325Y11109*
X08324Y11109*
X08324Y11109*
X08323*
X08323Y11109*
G37*
G36*
X04086Y13371D02*
X04081D01*
Y13356*
X04086*
X04086Y13356*
X04087Y13356*
X04087Y13357*
X04088Y13357*
X04088Y13357*
X04088Y13357*
X04089Y13357*
X04089Y13357*
X04089Y13357*
X04089Y13357*
X04089Y13357*
X0409Y13357*
X0409Y13358*
X0409Y13358*
X0409Y13358*
X0409Y13358*
X04091Y13358*
X04091Y13358*
X04091Y13359*
X04091Y13359*
X04091Y1336*
X04092Y1336*
Y1336*
X04092Y1336*
X04092Y1336*
X04092Y1336*
X04092Y13361*
X04092Y13361*
X04092Y13361*
X04092Y13361*
X04092Y13362*
X04092Y13362*
X04092Y13363*
X04092Y13364*
Y13364*
Y13364*
Y13364*
X04092Y13364*
Y13365*
X04092Y13365*
X04092Y13365*
X04092Y13366*
X04092Y13366*
X04092Y13367*
X04091Y13368*
X04091Y13368*
X04091Y13368*
Y13368*
X04091Y13369*
X04091Y13369*
X04091Y13369*
X04091Y13369*
X0409Y13369*
X0409Y1337*
X0409Y1337*
X04089Y1337*
X04089Y13371*
X04089Y13371*
X04089Y13371*
X04088Y13371*
X04088Y13371*
X04087Y13371*
X04087Y13371*
X04087Y13371*
X04086*
X04086Y13371*
G37*
G36*
X08323D02*
X08318D01*
Y13356*
X08323*
X08323Y13356*
X08324Y13356*
X08324Y13357*
X08325Y13357*
X08325Y13357*
X08325Y13357*
X08326Y13357*
X08326Y13357*
X08326Y13357*
X08326Y13357*
X08326Y13357*
X08327Y13357*
X08327Y13358*
X08327Y13358*
X08327Y13358*
X08327Y13358*
X08328Y13358*
X08328Y13358*
X08328Y13359*
X08328Y13359*
X08328Y1336*
X08329Y1336*
Y1336*
X08329Y1336*
X08329Y1336*
X08329Y1336*
X08329Y13361*
X08329Y13361*
X08329Y13361*
X08329Y13361*
X08329Y13362*
X08329Y13362*
X08329Y13363*
X08329Y13364*
Y13364*
Y13364*
Y13364*
X08329Y13364*
Y13365*
X08329Y13365*
X08329Y13365*
X08329Y13366*
X08329Y13366*
X08329Y13367*
X08328Y13368*
X08328Y13368*
X08328Y13368*
Y13368*
X08328Y13369*
X08328Y13369*
X08328Y13369*
X08328Y13369*
X08327Y13369*
X08327Y1337*
X08327Y1337*
X08326Y1337*
X08326Y13371*
X08326Y13371*
X08326Y13371*
X08325Y13371*
X08325Y13371*
X08325Y13371*
X08324Y13371*
X08324Y13371*
X08323*
X08323Y13371*
G37*
%LNcontrolboardv1-3*%
%LPD*%
G54D11*
X05173Y03881D02*
Y03976D01*
X0522*
Y03881D02*
Y03976D01*
X05173Y03881D02*
X0522D01*
X03613Y032D02*
X037D01*
Y03157D02*
Y032D01*
X03613Y03157D02*
X037D01*
X03613D02*
Y032D01*
X03796Y03138D02*
Y03238D01*
X04213Y03163D02*
Y03213D01*
X03796Y03238D02*
X04213D01*
X03796Y03138D02*
X04213D01*
Y03213D02*
Y03238D01*
Y03138D02*
Y03163D01*
X04726Y02928D02*
Y03028D01*
X05026Y02953D02*
Y03003D01*
X04726Y03028D02*
X05026D01*
X04726Y02928D02*
X05026D01*
Y03003D02*
Y03028D01*
Y02928D02*
Y02953D01*
X03679Y04824D02*
X04434D01*
Y0379D02*
Y04824D01*
X03679Y0379D02*
X04434D01*
X03679D02*
Y04824D01*
G54D12*
X03386Y03548D02*
X03386Y03558D01*
X03385Y03568*
X03384Y03578*
X03383Y03588*
X03382Y03598*
X0338Y03608*
X03377Y03618*
X03375Y03627*
X03372Y03637*
X03368Y03646*
X03365Y03656*
X03361Y03665*
X03357Y03674*
X03352Y03683*
X03347Y03691*
X03342Y037*
X03336Y03708*
X0333Y03716*
X03324Y03724*
X03318Y03732*
X03311Y03739*
X03304Y03747*
X03297Y03754*
X0329Y0376*
X03282Y03767*
X03274Y03773*
X03266Y03779*
X03258Y03784*
X0325Y0379*
X03241Y03795*
X03232Y03799*
X03223Y03804*
X03214Y03808*
X03205Y03812*
X03195Y03815*
X03186Y03818*
X03176Y03821*
X03166Y03823*
X03157Y03825*
X03147Y03827*
X03137Y03828*
X03127Y03829*
X03117Y0383*
X03107Y0383*
X03097Y0383*
X03087Y03829*
X03077Y03829*
X03067Y03828*
X03057Y03826*
X03047Y03824*
X03038Y03822*
X03028Y03819*
X03018Y03817*
X03009Y03813*
X03Y0381*
X0299Y03806*
X02981Y03802*
X02972Y03797*
X02964Y03792*
X02955Y03787*
X02947Y03782*
X02939Y03776*
X02931Y0377*
X02923Y03764*
X02915Y03757*
X02908Y0375*
X02901Y03743*
X02894Y03736*
X02888Y03728*
X02881Y0372*
X02876Y03712*
X0287Y03704*
X02864Y03696*
X02859Y03687*
X02855Y03678*
X0285Y03669*
X02846Y0366*
X02842Y03651*
X02839Y03642*
X02836Y03632*
X02833Y03623*
X0283Y03613*
X02828Y03603*
X02827Y03593*
X02825Y03583*
X02824Y03573*
X02823Y03563*
X02823Y03553*
Y03543*
X02823Y03534*
X02824Y03524*
X02825Y03514*
X02827Y03504*
X02828Y03494*
X0283Y03484*
X02833Y03474*
X02836Y03465*
X02839Y03455*
X02842Y03446*
X02846Y03437*
X0285Y03428*
X02855Y03419*
X02859Y0341*
X02864Y03401*
X0287Y03393*
X02876Y03385*
X02881Y03377*
X02888Y03369*
X02894Y03361*
X02901Y03354*
X02908Y03347*
X02915Y0334*
X02923Y03333*
X02931Y03327*
X02939Y03321*
X02947Y03315*
X02955Y0331*
X02964Y03305*
X02972Y033*
X02981Y03295*
X0299Y03291*
X03Y03287*
X03009Y03284*
X03018Y0328*
X03028Y03278*
X03038Y03275*
X03047Y03273*
X03057Y03271*
X03067Y03269*
X03077Y03268*
X03087Y03268*
X03097Y03267*
X03107Y03267*
X03117Y03267*
X03127Y03268*
X03137Y03269*
X03147Y0327*
X03157Y03272*
X03166Y03274*
X03176Y03276*
X03186Y03279*
X03195Y03282*
X03205Y03285*
X03214Y03289*
X03223Y03293*
X03232Y03298*
X03241Y03302*
X0325Y03307*
X03258Y03313*
X03266Y03318*
X03274Y03324*
X03282Y0333*
X0329Y03337*
X03297Y03343*
X03304Y0335*
X03311Y03358*
X03318Y03365*
X03324Y03373*
X0333Y03381*
X03336Y03389*
X03342Y03397*
X03347Y03406*
X03352Y03414*
X03357Y03423*
X03361Y03432*
X03365Y03441*
X03368Y03451*
X03372Y0346*
X03375Y0347*
X03377Y03479*
X0338Y03489*
X03382Y03499*
X03383Y03509*
X03384Y03519*
X03385Y03529*
X03386Y03539*
X03386Y03548*
X03085Y03765D02*
X03055D01*
Y03745*
X0308Y03715D02*
X03085Y0372D01*
Y0373*
X0308Y03735*
X03075*
X0307Y0373*
Y0372*
X03065Y03715*
X0306*
X03055Y0372*
Y0373*
X0306Y03735*
X03055Y03705D02*
Y03695D01*
Y037*
X03085*
X0308Y03705*
G54D14*
X03423Y03574D02*
Y03554D01*
X03433Y03564D02*
X03414D01*
G54D11*
X0941Y03881D02*
Y03976D01*
X09457*
Y03881D02*
Y03976D01*
X0941Y03881D02*
X09457D01*
X0785Y032D02*
X07937D01*
Y03157D02*
Y032D01*
X0785Y03157D02*
X07937D01*
X0785D02*
Y032D01*
X08034Y03138D02*
Y03238D01*
X0845Y03163D02*
Y03213D01*
X08034Y03238D02*
X0845D01*
X08034Y03138D02*
X0845D01*
Y03213D02*
Y03238D01*
Y03138D02*
Y03163D01*
X08964Y02928D02*
Y03028D01*
X09264Y02953D02*
Y03003D01*
X08964Y03028D02*
X09264D01*
X08964Y02928D02*
X09264D01*
Y03003D02*
Y03028D01*
Y02928D02*
Y02953D01*
X07916Y04824D02*
X08671D01*
Y0379D02*
Y04824D01*
X07916Y0379D02*
X08671D01*
X07916D02*
Y04824D01*
G54D12*
X07623Y03548D02*
X07623Y03558D01*
X07622Y03568*
X07621Y03578*
X0762Y03588*
X07619Y03598*
X07617Y03608*
X07614Y03618*
X07612Y03627*
X07609Y03637*
X07605Y03646*
X07602Y03656*
X07598Y03665*
X07594Y03674*
X07589Y03683*
X07584Y03691*
X07579Y037*
X07573Y03708*
X07567Y03716*
X07561Y03724*
X07555Y03732*
X07548Y03739*
X07541Y03747*
X07534Y03754*
X07527Y0376*
X07519Y03767*
X07511Y03773*
X07503Y03779*
X07495Y03784*
X07487Y0379*
X07478Y03795*
X07469Y03799*
X0746Y03804*
X07451Y03808*
X07442Y03812*
X07432Y03815*
X07423Y03818*
X07413Y03821*
X07403Y03823*
X07394Y03825*
X07384Y03827*
X07374Y03828*
X07364Y03829*
X07354Y0383*
X07344Y0383*
X07334Y0383*
X07324Y03829*
X07314Y03829*
X07304Y03828*
X07294Y03826*
X07284Y03824*
X07275Y03822*
X07265Y03819*
X07255Y03817*
X07246Y03813*
X07237Y0381*
X07227Y03806*
X07218Y03802*
X07209Y03797*
X07201Y03792*
X07192Y03787*
X07184Y03782*
X07176Y03776*
X07168Y0377*
X0716Y03764*
X07152Y03757*
X07145Y0375*
X07138Y03743*
X07131Y03736*
X07125Y03728*
X07119Y0372*
X07113Y03712*
X07107Y03704*
X07102Y03696*
X07096Y03687*
X07092Y03678*
X07087Y03669*
X07083Y0366*
X07079Y03651*
X07076Y03642*
X07073Y03632*
X0707Y03623*
X07067Y03613*
X07065Y03603*
X07064Y03593*
X07062Y03583*
X07061Y03573*
X0706Y03563*
X0706Y03553*
Y03543*
X0706Y03534*
X07061Y03524*
X07062Y03514*
X07064Y03504*
X07065Y03494*
X07067Y03484*
X0707Y03474*
X07073Y03465*
X07076Y03455*
X07079Y03446*
X07083Y03437*
X07087Y03428*
X07092Y03419*
X07096Y0341*
X07102Y03401*
X07107Y03393*
X07113Y03385*
X07119Y03377*
X07125Y03369*
X07131Y03361*
X07138Y03354*
X07145Y03347*
X07152Y0334*
X0716Y03333*
X07168Y03327*
X07176Y03321*
X07184Y03315*
X07192Y0331*
X07201Y03305*
X07209Y033*
X07218Y03295*
X07227Y03291*
X07237Y03287*
X07246Y03284*
X07255Y0328*
X07265Y03278*
X07275Y03275*
X07284Y03273*
X07294Y03271*
X07304Y03269*
X07314Y03268*
X07324Y03268*
X07334Y03267*
X07344Y03267*
X07354Y03267*
X07364Y03268*
X07374Y03269*
X07384Y0327*
X07394Y03272*
X07403Y03274*
X07413Y03276*
X07423Y03279*
X07432Y03282*
X07442Y03285*
X07451Y03289*
X0746Y03293*
X07469Y03298*
X07478Y03302*
X07487Y03307*
X07495Y03313*
X07503Y03318*
X07511Y03324*
X07519Y0333*
X07527Y03337*
X07534Y03343*
X07541Y0335*
X07548Y03358*
X07555Y03365*
X07561Y03373*
X07567Y03381*
X07573Y03389*
X07579Y03397*
X07584Y03406*
X07589Y03414*
X07594Y03423*
X07598Y03432*
X07602Y03441*
X07605Y03451*
X07609Y0346*
X07612Y0347*
X07614Y03479*
X07617Y03489*
X07619Y03499*
X0762Y03509*
X07621Y03519*
X07622Y03529*
X07623Y03539*
X07623Y03548*
X07322Y03765D02*
X07292D01*
Y03745*
X07317Y03715D02*
X07322Y0372D01*
Y0373*
X07317Y03735*
X07312*
X07307Y0373*
Y0372*
X07302Y03715*
X07297*
X07292Y0372*
Y0373*
X07297Y03735*
X07292Y03705D02*
Y03695D01*
Y037*
X07322*
X07317Y03705*
G54D14*
X07661Y03574D02*
Y03554D01*
X07671Y03564D02*
X07651D01*
G54D11*
X05173Y06143D02*
Y06238D01*
X0522*
Y06143D02*
Y06238D01*
X05173Y06143D02*
X0522D01*
X03613Y05462D02*
X037D01*
Y05419D02*
Y05462D01*
X03613Y05419D02*
X037D01*
X03613D02*
Y05462D01*
X03796Y054D02*
Y055D01*
X04213Y05425D02*
Y05475D01*
X03796Y055D02*
X04213D01*
X03796Y054D02*
X04213D01*
Y05475D02*
Y055D01*
Y054D02*
Y05425D01*
X04726Y0519D02*
Y0529D01*
X05026Y05215D02*
Y05265D01*
X04726Y0529D02*
X05026D01*
X04726Y0519D02*
X05026D01*
Y05265D02*
Y0529D01*
Y0519D02*
Y05215D01*
X03679Y07086D02*
X04434D01*
Y06052D02*
Y07086D01*
X03679Y06052D02*
X04434D01*
X03679D02*
Y07086D01*
G54D12*
X03386Y0581D02*
X03386Y0582D01*
X03385Y0583*
X03384Y0584*
X03383Y0585*
X03382Y0586*
X0338Y0587*
X03377Y0588*
X03375Y05889*
X03372Y05899*
X03368Y05908*
X03365Y05918*
X03361Y05927*
X03357Y05936*
X03352Y05945*
X03347Y05953*
X03342Y05962*
X03336Y0597*
X0333Y05978*
X03324Y05986*
X03318Y05994*
X03311Y06001*
X03304Y06009*
X03297Y06016*
X0329Y06022*
X03282Y06029*
X03274Y06035*
X03266Y06041*
X03258Y06046*
X0325Y06052*
X03241Y06057*
X03232Y06061*
X03223Y06066*
X03214Y0607*
X03205Y06074*
X03195Y06077*
X03186Y0608*
X03176Y06083*
X03166Y06085*
X03157Y06087*
X03147Y06089*
X03137Y0609*
X03127Y06091*
X03117Y06092*
X03107Y06092*
X03097Y06092*
X03087Y06091*
X03077Y06091*
X03067Y0609*
X03057Y06088*
X03047Y06086*
X03038Y06084*
X03028Y06081*
X03018Y06079*
X03009Y06075*
X03Y06072*
X0299Y06068*
X02981Y06064*
X02972Y06059*
X02964Y06054*
X02955Y06049*
X02947Y06044*
X02939Y06038*
X02931Y06032*
X02923Y06026*
X02915Y06019*
X02908Y06012*
X02901Y06005*
X02894Y05998*
X02888Y0599*
X02881Y05982*
X02876Y05974*
X0287Y05966*
X02864Y05958*
X02859Y05949*
X02855Y0594*
X0285Y05931*
X02846Y05922*
X02842Y05913*
X02839Y05904*
X02836Y05894*
X02833Y05885*
X0283Y05875*
X02828Y05865*
X02827Y05855*
X02825Y05845*
X02824Y05835*
X02823Y05825*
X02823Y05815*
Y05805*
X02823Y05796*
X02824Y05786*
X02825Y05776*
X02827Y05766*
X02828Y05756*
X0283Y05746*
X02833Y05736*
X02836Y05727*
X02839Y05717*
X02842Y05708*
X02846Y05699*
X0285Y0569*
X02855Y05681*
X02859Y05672*
X02864Y05663*
X0287Y05655*
X02876Y05647*
X02881Y05639*
X02888Y05631*
X02894Y05623*
X02901Y05616*
X02908Y05609*
X02915Y05602*
X02923Y05595*
X02931Y05589*
X02939Y05583*
X02947Y05577*
X02955Y05572*
X02964Y05567*
X02972Y05562*
X02981Y05557*
X0299Y05553*
X03Y05549*
X03009Y05546*
X03018Y05542*
X03028Y0554*
X03038Y05537*
X03047Y05535*
X03057Y05533*
X03067Y05531*
X03077Y0553*
X03087Y0553*
X03097Y05529*
X03107Y05529*
X03117Y05529*
X03127Y0553*
X03137Y05531*
X03147Y05532*
X03157Y05534*
X03166Y05536*
X03176Y05538*
X03186Y05541*
X03195Y05544*
X03205Y05547*
X03214Y05551*
X03223Y05555*
X03232Y0556*
X03241Y05564*
X0325Y05569*
X03258Y05575*
X03266Y0558*
X03274Y05586*
X03282Y05592*
X0329Y05599*
X03297Y05605*
X03304Y05612*
X03311Y0562*
X03318Y05627*
X03324Y05635*
X0333Y05643*
X03336Y05651*
X03342Y05659*
X03347Y05668*
X03352Y05676*
X03357Y05685*
X03361Y05694*
X03365Y05703*
X03368Y05713*
X03372Y05722*
X03375Y05732*
X03377Y05741*
X0338Y05751*
X03382Y05761*
X03383Y05771*
X03384Y05781*
X03385Y05791*
X03386Y05801*
X03386Y0581*
X03085Y06027D02*
X03055D01*
Y06007*
X0308Y05977D02*
X03085Y05982D01*
Y05992*
X0308Y05997*
X03075*
X0307Y05992*
Y05982*
X03065Y05977*
X0306*
X03055Y05982*
Y05992*
X0306Y05997*
X03055Y05967D02*
Y05957D01*
Y05962*
X03085*
X0308Y05967*
G54D14*
X03423Y05836D02*
Y05816D01*
X03433Y05826D02*
X03414D01*
G54D11*
X0941Y06143D02*
Y06238D01*
X09457*
Y06143D02*
Y06238D01*
X0941Y06143D02*
X09457D01*
X0785Y05462D02*
X07937D01*
Y05419D02*
Y05462D01*
X0785Y05419D02*
X07937D01*
X0785D02*
Y05462D01*
X08034Y054D02*
Y055D01*
X0845Y05425D02*
Y05475D01*
X08034Y055D02*
X0845D01*
X08034Y054D02*
X0845D01*
Y05475D02*
Y055D01*
Y054D02*
Y05425D01*
X08964Y0519D02*
Y0529D01*
X09264Y05215D02*
Y05265D01*
X08964Y0529D02*
X09264D01*
X08964Y0519D02*
X09264D01*
Y05265D02*
Y0529D01*
Y0519D02*
Y05215D01*
X07916Y07086D02*
X08671D01*
Y06052D02*
Y07086D01*
X07916Y06052D02*
X08671D01*
X07916D02*
Y07086D01*
G54D12*
X07623Y0581D02*
X07623Y0582D01*
X07622Y0583*
X07621Y0584*
X0762Y0585*
X07619Y0586*
X07617Y0587*
X07614Y0588*
X07612Y05889*
X07609Y05899*
X07605Y05908*
X07602Y05918*
X07598Y05927*
X07594Y05936*
X07589Y05945*
X07584Y05953*
X07579Y05962*
X07573Y0597*
X07567Y05978*
X07561Y05986*
X07555Y05994*
X07548Y06001*
X07541Y06009*
X07534Y06016*
X07527Y06022*
X07519Y06029*
X07511Y06035*
X07503Y06041*
X07495Y06046*
X07487Y06052*
X07478Y06057*
X07469Y06061*
X0746Y06066*
X07451Y0607*
X07442Y06074*
X07432Y06077*
X07423Y0608*
X07413Y06083*
X07403Y06085*
X07394Y06087*
X07384Y06089*
X07374Y0609*
X07364Y06091*
X07354Y06092*
X07344Y06092*
X07334Y06092*
X07324Y06091*
X07314Y06091*
X07304Y0609*
X07294Y06088*
X07284Y06086*
X07275Y06084*
X07265Y06081*
X07255Y06079*
X07246Y06075*
X07237Y06072*
X07227Y06068*
X07218Y06064*
X07209Y06059*
X07201Y06054*
X07192Y06049*
X07184Y06044*
X07176Y06038*
X07168Y06032*
X0716Y06026*
X07152Y06019*
X07145Y06012*
X07138Y06005*
X07131Y05998*
X07125Y0599*
X07119Y05982*
X07113Y05974*
X07107Y05966*
X07102Y05958*
X07096Y05949*
X07092Y0594*
X07087Y05931*
X07083Y05922*
X07079Y05913*
X07076Y05904*
X07073Y05894*
X0707Y05885*
X07067Y05875*
X07065Y05865*
X07064Y05855*
X07062Y05845*
X07061Y05835*
X0706Y05825*
X0706Y05815*
Y05805*
X0706Y05796*
X07061Y05786*
X07062Y05776*
X07064Y05766*
X07065Y05756*
X07067Y05746*
X0707Y05736*
X07073Y05727*
X07076Y05717*
X07079Y05708*
X07083Y05699*
X07087Y0569*
X07092Y05681*
X07096Y05672*
X07102Y05663*
X07107Y05655*
X07113Y05647*
X07119Y05639*
X07125Y05631*
X07131Y05623*
X07138Y05616*
X07145Y05609*
X07152Y05602*
X0716Y05595*
X07168Y05589*
X07176Y05583*
X07184Y05577*
X07192Y05572*
X07201Y05567*
X07209Y05562*
X07218Y05557*
X07227Y05553*
X07237Y05549*
X07246Y05546*
X07255Y05542*
X07265Y0554*
X07275Y05537*
X07284Y05535*
X07294Y05533*
X07304Y05531*
X07314Y0553*
X07324Y0553*
X07334Y05529*
X07344Y05529*
X07354Y05529*
X07364Y0553*
X07374Y05531*
X07384Y05532*
X07394Y05534*
X07403Y05536*
X07413Y05538*
X07423Y05541*
X07432Y05544*
X07442Y05547*
X07451Y05551*
X0746Y05555*
X07469Y0556*
X07478Y05564*
X07487Y05569*
X07495Y05575*
X07503Y0558*
X07511Y05586*
X07519Y05592*
X07527Y05599*
X07534Y05605*
X07541Y05612*
X07548Y0562*
X07555Y05627*
X07561Y05635*
X07567Y05643*
X07573Y05651*
X07579Y05659*
X07584Y05668*
X07589Y05676*
X07594Y05685*
X07598Y05694*
X07602Y05703*
X07605Y05713*
X07609Y05722*
X07612Y05732*
X07614Y05741*
X07617Y05751*
X07619Y05761*
X0762Y05771*
X07621Y05781*
X07622Y05791*
X07623Y05801*
X07623Y0581*
X07322Y06027D02*
X07292D01*
Y06007*
X07317Y05977D02*
X07322Y05982D01*
Y05992*
X07317Y05997*
X07312*
X07307Y05992*
Y05982*
X07302Y05977*
X07297*
X07292Y05982*
Y05992*
X07297Y05997*
X07292Y05967D02*
Y05957D01*
Y05962*
X07322*
X07317Y05967*
G54D14*
X07661Y05836D02*
Y05816D01*
X07671Y05826D02*
X07651D01*
G54D11*
X05173Y08404D02*
Y08499D01*
X0522*
Y08404D02*
Y08499D01*
X05173Y08404D02*
X0522D01*
X03613Y07724D02*
X037D01*
Y07681D02*
Y07724D01*
X03613Y07681D02*
X037D01*
X03613D02*
Y07724D01*
X03796Y07662D02*
Y07762D01*
X04213Y07687D02*
Y07737D01*
X03796Y07762D02*
X04213D01*
X03796Y07662D02*
X04213D01*
Y07737D02*
Y07762D01*
Y07662D02*
Y07687D01*
X04726Y07452D02*
Y07552D01*
X05026Y07477D02*
Y07527D01*
X04726Y07552D02*
X05026D01*
X04726Y07452D02*
X05026D01*
Y07527D02*
Y07552D01*
Y07452D02*
Y07477D01*
X03679Y09347D02*
X04434D01*
Y08314D02*
Y09347D01*
X03679Y08314D02*
X04434D01*
X03679D02*
Y09347D01*
G54D12*
X03386Y08072D02*
X03386Y08082D01*
X03385Y08092*
X03384Y08102*
X03383Y08112*
X03382Y08122*
X0338Y08132*
X03377Y08142*
X03375Y08151*
X03372Y08161*
X03368Y0817*
X03365Y0818*
X03361Y08189*
X03357Y08198*
X03352Y08207*
X03347Y08215*
X03342Y08224*
X03336Y08232*
X0333Y0824*
X03324Y08248*
X03318Y08256*
X03311Y08263*
X03304Y08271*
X03297Y08278*
X0329Y08284*
X03282Y08291*
X03274Y08297*
X03266Y08303*
X03258Y08308*
X0325Y08314*
X03241Y08319*
X03232Y08323*
X03223Y08328*
X03214Y08332*
X03205Y08336*
X03195Y08339*
X03186Y08342*
X03176Y08345*
X03166Y08347*
X03157Y08349*
X03147Y08351*
X03137Y08352*
X03127Y08353*
X03117Y08354*
X03107Y08354*
X03097Y08354*
X03087Y08353*
X03077Y08353*
X03067Y08352*
X03057Y0835*
X03047Y08348*
X03038Y08346*
X03028Y08343*
X03018Y08341*
X03009Y08337*
X03Y08334*
X0299Y0833*
X02981Y08326*
X02972Y08321*
X02964Y08316*
X02955Y08311*
X02947Y08306*
X02939Y083*
X02931Y08294*
X02923Y08288*
X02915Y08281*
X02908Y08274*
X02901Y08267*
X02894Y0826*
X02888Y08252*
X02881Y08244*
X02876Y08236*
X0287Y08228*
X02864Y0822*
X02859Y08211*
X02855Y08202*
X0285Y08193*
X02846Y08184*
X02842Y08175*
X02839Y08166*
X02836Y08156*
X02833Y08147*
X0283Y08137*
X02828Y08127*
X02827Y08117*
X02825Y08107*
X02824Y08097*
X02823Y08087*
X02823Y08077*
Y08067*
X02823Y08058*
X02824Y08048*
X02825Y08038*
X02827Y08028*
X02828Y08018*
X0283Y08008*
X02833Y07998*
X02836Y07989*
X02839Y07979*
X02842Y0797*
X02846Y07961*
X0285Y07952*
X02855Y07943*
X02859Y07934*
X02864Y07925*
X0287Y07917*
X02876Y07909*
X02881Y07901*
X02888Y07893*
X02894Y07885*
X02901Y07878*
X02908Y07871*
X02915Y07864*
X02923Y07857*
X02931Y07851*
X02939Y07845*
X02947Y07839*
X02955Y07834*
X02964Y07829*
X02972Y07824*
X02981Y07819*
X0299Y07815*
X03Y07811*
X03009Y07808*
X03018Y07804*
X03028Y07802*
X03038Y07799*
X03047Y07797*
X03057Y07795*
X03067Y07793*
X03077Y07792*
X03087Y07792*
X03097Y07791*
X03107Y07791*
X03117Y07791*
X03127Y07792*
X03137Y07793*
X03147Y07794*
X03157Y07796*
X03166Y07798*
X03176Y078*
X03186Y07803*
X03195Y07806*
X03205Y07809*
X03214Y07813*
X03223Y07817*
X03232Y07822*
X03241Y07826*
X0325Y07831*
X03258Y07837*
X03266Y07842*
X03274Y07848*
X03282Y07854*
X0329Y07861*
X03297Y07867*
X03304Y07874*
X03311Y07882*
X03318Y07889*
X03324Y07897*
X0333Y07905*
X03336Y07913*
X03342Y07921*
X03347Y0793*
X03352Y07938*
X03357Y07947*
X03361Y07956*
X03365Y07965*
X03368Y07975*
X03372Y07984*
X03375Y07994*
X03377Y08003*
X0338Y08013*
X03382Y08023*
X03383Y08033*
X03384Y08043*
X03385Y08053*
X03386Y08063*
X03386Y08072*
X03085Y08289D02*
X03055D01*
Y08269*
X0308Y08239D02*
X03085Y08244D01*
Y08254*
X0308Y08259*
X03075*
X0307Y08254*
Y08244*
X03065Y08239*
X0306*
X03055Y08244*
Y08254*
X0306Y08259*
X03055Y08229D02*
Y08219D01*
Y08224*
X03085*
X0308Y08229*
G54D14*
X03423Y08098D02*
Y08078D01*
X03433Y08088D02*
X03414D01*
G54D11*
X0941Y08404D02*
Y08499D01*
X09457*
Y08404D02*
Y08499D01*
X0941Y08404D02*
X09457D01*
X0785Y07724D02*
X07937D01*
Y07681D02*
Y07724D01*
X0785Y07681D02*
X07937D01*
X0785D02*
Y07724D01*
X08034Y07662D02*
Y07762D01*
X0845Y07687D02*
Y07737D01*
X08034Y07762D02*
X0845D01*
X08034Y07662D02*
X0845D01*
Y07737D02*
Y07762D01*
Y07662D02*
Y07687D01*
X08964Y07452D02*
Y07552D01*
X09264Y07477D02*
Y07527D01*
X08964Y07552D02*
X09264D01*
X08964Y07452D02*
X09264D01*
Y07527D02*
Y07552D01*
Y07452D02*
Y07477D01*
X07916Y09347D02*
X08671D01*
Y08314D02*
Y09347D01*
X07916Y08314D02*
X08671D01*
X07916D02*
Y09347D01*
G54D12*
X07623Y08072D02*
X07623Y08082D01*
X07622Y08092*
X07621Y08102*
X0762Y08112*
X07619Y08122*
X07617Y08132*
X07614Y08142*
X07612Y08151*
X07609Y08161*
X07605Y0817*
X07602Y0818*
X07598Y08189*
X07594Y08198*
X07589Y08207*
X07584Y08215*
X07579Y08224*
X07573Y08232*
X07567Y0824*
X07561Y08248*
X07555Y08256*
X07548Y08263*
X07541Y08271*
X07534Y08278*
X07527Y08284*
X07519Y08291*
X07511Y08297*
X07503Y08303*
X07495Y08308*
X07487Y08314*
X07478Y08319*
X07469Y08323*
X0746Y08328*
X07451Y08332*
X07442Y08336*
X07432Y08339*
X07423Y08342*
X07413Y08345*
X07403Y08347*
X07394Y08349*
X07384Y08351*
X07374Y08352*
X07364Y08353*
X07354Y08354*
X07344Y08354*
X07334Y08354*
X07324Y08353*
X07314Y08353*
X07304Y08352*
X07294Y0835*
X07284Y08348*
X07275Y08346*
X07265Y08343*
X07255Y08341*
X07246Y08337*
X07237Y08334*
X07227Y0833*
X07218Y08326*
X07209Y08321*
X07201Y08316*
X07192Y08311*
X07184Y08306*
X07176Y083*
X07168Y08294*
X0716Y08288*
X07152Y08281*
X07145Y08274*
X07138Y08267*
X07131Y0826*
X07125Y08252*
X07119Y08244*
X07113Y08236*
X07107Y08228*
X07102Y0822*
X07096Y08211*
X07092Y08202*
X07087Y08193*
X07083Y08184*
X07079Y08175*
X07076Y08166*
X07073Y08156*
X0707Y08147*
X07067Y08137*
X07065Y08127*
X07064Y08117*
X07062Y08107*
X07061Y08097*
X0706Y08087*
X0706Y08077*
Y08067*
X0706Y08058*
X07061Y08048*
X07062Y08038*
X07064Y08028*
X07065Y08018*
X07067Y08008*
X0707Y07998*
X07073Y07989*
X07076Y07979*
X07079Y0797*
X07083Y07961*
X07087Y07952*
X07092Y07943*
X07096Y07934*
X07102Y07925*
X07107Y07917*
X07113Y07909*
X07119Y07901*
X07125Y07893*
X07131Y07885*
X07138Y07878*
X07145Y07871*
X07152Y07864*
X0716Y07857*
X07168Y07851*
X07176Y07845*
X07184Y07839*
X07192Y07834*
X07201Y07829*
X07209Y07824*
X07218Y07819*
X07227Y07815*
X07237Y07811*
X07246Y07808*
X07255Y07804*
X07265Y07802*
X07275Y07799*
X07284Y07797*
X07294Y07795*
X07304Y07793*
X07314Y07792*
X07324Y07792*
X07334Y07791*
X07344Y07791*
X07354Y07791*
X07364Y07792*
X07374Y07793*
X07384Y07794*
X07394Y07796*
X07403Y07798*
X07413Y078*
X07423Y07803*
X07432Y07806*
X07442Y07809*
X07451Y07813*
X0746Y07817*
X07469Y07822*
X07478Y07826*
X07487Y07831*
X07495Y07837*
X07503Y07842*
X07511Y07848*
X07519Y07854*
X07527Y07861*
X07534Y07867*
X07541Y07874*
X07548Y07882*
X07555Y07889*
X07561Y07897*
X07567Y07905*
X07573Y07913*
X07579Y07921*
X07584Y0793*
X07589Y07938*
X07594Y07947*
X07598Y07956*
X07602Y07965*
X07605Y07975*
X07609Y07984*
X07612Y07994*
X07614Y08003*
X07617Y08013*
X07619Y08023*
X0762Y08033*
X07621Y08043*
X07622Y08053*
X07623Y08063*
X07623Y08072*
X07322Y08289D02*
X07292D01*
Y08269*
X07317Y08239D02*
X07322Y08244D01*
Y08254*
X07317Y08259*
X07312*
X07307Y08254*
Y08244*
X07302Y08239*
X07297*
X07292Y08244*
Y08254*
X07297Y08259*
X07292Y08229D02*
Y08219D01*
Y08224*
X07322*
X07317Y08229*
G54D14*
X07661Y08098D02*
Y08078D01*
X07671Y08088D02*
X07651D01*
G54D11*
X05173Y10666D02*
Y10761D01*
X0522*
Y10666D02*
Y10761D01*
X05173Y10666D02*
X0522D01*
X03613Y09985D02*
X037D01*
Y09942D02*
Y09985D01*
X03613Y09942D02*
X037D01*
X03613D02*
Y09985D01*
X03796Y09924D02*
Y10024D01*
X04213Y09948D02*
Y09998D01*
X03796Y10024D02*
X04213D01*
X03796Y09924D02*
X04213D01*
Y09998D02*
Y10023D01*
Y09923D02*
Y09948D01*
X04726Y09714D02*
Y09814D01*
X05026Y09739D02*
Y09789D01*
X04726Y09814D02*
X05026D01*
X04726Y09714D02*
X05026D01*
Y09789D02*
Y09814D01*
Y09714D02*
Y09739D01*
X03679Y11609D02*
X04434D01*
Y10575D02*
Y11609D01*
X03679Y10575D02*
X04434D01*
X03679D02*
Y11609D01*
G54D12*
X03386Y10334D02*
X03386Y10343D01*
X03385Y10353*
X03384Y10363*
X03383Y10373*
X03382Y10383*
X0338Y10393*
X03377Y10403*
X03375Y10412*
X03372Y10422*
X03368Y10431*
X03365Y10441*
X03361Y1045*
X03357Y10459*
X03352Y10468*
X03347Y10476*
X03342Y10485*
X03336Y10493*
X0333Y10501*
X03324Y10509*
X03318Y10517*
X03311Y10524*
X03304Y10532*
X03297Y10539*
X0329Y10545*
X03282Y10552*
X03274Y10558*
X03266Y10564*
X03258Y10569*
X0325Y10575*
X03241Y1058*
X03232Y10584*
X03223Y10589*
X03214Y10593*
X03205Y10597*
X03195Y106*
X03186Y10603*
X03176Y10606*
X03166Y10608*
X03157Y1061*
X03147Y10612*
X03137Y10613*
X03127Y10614*
X03117Y10615*
X03107Y10615*
X03097Y10615*
X03087Y10614*
X03077Y10614*
X03067Y10613*
X03057Y10611*
X03047Y10609*
X03038Y10607*
X03028Y10604*
X03018Y10602*
X03009Y10598*
X03Y10595*
X0299Y10591*
X02981Y10587*
X02972Y10582*
X02964Y10577*
X02955Y10572*
X02947Y10567*
X02939Y10561*
X02931Y10555*
X02923Y10549*
X02915Y10542*
X02908Y10535*
X02901Y10528*
X02894Y10521*
X02888Y10513*
X02881Y10505*
X02876Y10497*
X0287Y10489*
X02864Y10481*
X02859Y10472*
X02855Y10463*
X0285Y10454*
X02846Y10445*
X02842Y10436*
X02839Y10427*
X02836Y10417*
X02833Y10408*
X0283Y10398*
X02828Y10388*
X02827Y10378*
X02825Y10368*
X02824Y10358*
X02823Y10348*
X02823Y10339*
Y10329*
X02823Y10319*
X02824Y10309*
X02825Y10299*
X02827Y10289*
X02828Y10279*
X0283Y10269*
X02833Y10259*
X02836Y1025*
X02839Y1024*
X02842Y10231*
X02846Y10222*
X0285Y10213*
X02855Y10204*
X02859Y10195*
X02864Y10186*
X0287Y10178*
X02876Y1017*
X02881Y10162*
X02888Y10154*
X02894Y10146*
X02901Y10139*
X02908Y10132*
X02915Y10125*
X02923Y10118*
X02931Y10112*
X02939Y10106*
X02947Y101*
X02955Y10095*
X02964Y1009*
X02972Y10085*
X02981Y1008*
X0299Y10076*
X03Y10072*
X03009Y10069*
X03018Y10065*
X03028Y10063*
X03038Y1006*
X03047Y10058*
X03057Y10056*
X03067Y10054*
X03077Y10053*
X03087Y10053*
X03097Y10052*
X03107Y10052*
X03117Y10052*
X03127Y10053*
X03137Y10054*
X03147Y10055*
X03157Y10057*
X03166Y10059*
X03176Y10061*
X03186Y10064*
X03195Y10067*
X03205Y1007*
X03214Y10074*
X03223Y10078*
X03232Y10083*
X03241Y10087*
X0325Y10092*
X03258Y10098*
X03266Y10103*
X03274Y10109*
X03282Y10115*
X0329Y10122*
X03297Y10128*
X03304Y10135*
X03311Y10143*
X03318Y1015*
X03324Y10158*
X0333Y10166*
X03336Y10174*
X03342Y10182*
X03347Y10191*
X03352Y10199*
X03357Y10208*
X03361Y10217*
X03365Y10226*
X03368Y10236*
X03372Y10245*
X03375Y10255*
X03377Y10264*
X0338Y10274*
X03382Y10284*
X03383Y10294*
X03384Y10304*
X03385Y10314*
X03386Y10324*
X03386Y10334*
X03085Y1055D02*
X03055D01*
Y1053*
X0308Y105D02*
X03085Y10505D01*
Y10515*
X0308Y1052*
X03075*
X0307Y10515*
Y10505*
X03065Y105*
X0306*
X03055Y10505*
Y10515*
X0306Y1052*
X03055Y1049D02*
Y1048D01*
Y10485*
X03085*
X0308Y1049*
G54D14*
X03423Y10359D02*
Y10339D01*
X03433Y10349D02*
X03414D01*
G54D11*
X0941Y10666D02*
Y10761D01*
X09457*
Y10666D02*
Y10761D01*
X0941Y10666D02*
X09457D01*
X0785Y09985D02*
X07937D01*
Y09942D02*
Y09985D01*
X0785Y09942D02*
X07937D01*
X0785D02*
Y09985D01*
X08034Y09924D02*
Y10024D01*
X0845Y09948D02*
Y09998D01*
X08034Y10024D02*
X0845D01*
X08034Y09924D02*
X0845D01*
Y09998D02*
Y10023D01*
Y09923D02*
Y09948D01*
X08964Y09714D02*
Y09814D01*
X09264Y09739D02*
Y09789D01*
X08964Y09814D02*
X09264D01*
X08964Y09714D02*
X09264D01*
Y09789D02*
Y09814D01*
Y09714D02*
Y09739D01*
X07916Y11609D02*
X08671D01*
Y10575D02*
Y11609D01*
X07916Y10575D02*
X08671D01*
X07916D02*
Y11609D01*
G54D12*
X07623Y10334D02*
X07623Y10343D01*
X07622Y10353*
X07621Y10363*
X0762Y10373*
X07619Y10383*
X07617Y10393*
X07614Y10403*
X07612Y10412*
X07609Y10422*
X07605Y10431*
X07602Y10441*
X07598Y1045*
X07594Y10459*
X07589Y10468*
X07584Y10476*
X07579Y10485*
X07573Y10493*
X07567Y10501*
X07561Y10509*
X07555Y10517*
X07548Y10524*
X07541Y10532*
X07534Y10539*
X07527Y10545*
X07519Y10552*
X07511Y10558*
X07503Y10564*
X07495Y10569*
X07487Y10575*
X07478Y1058*
X07469Y10584*
X0746Y10589*
X07451Y10593*
X07442Y10597*
X07432Y106*
X07423Y10603*
X07413Y10606*
X07403Y10608*
X07394Y1061*
X07384Y10612*
X07374Y10613*
X07364Y10614*
X07354Y10615*
X07344Y10615*
X07334Y10615*
X07324Y10614*
X07314Y10614*
X07304Y10613*
X07294Y10611*
X07284Y10609*
X07275Y10607*
X07265Y10604*
X07255Y10602*
X07246Y10598*
X07237Y10595*
X07227Y10591*
X07218Y10587*
X07209Y10582*
X07201Y10577*
X07192Y10572*
X07184Y10567*
X07176Y10561*
X07168Y10555*
X0716Y10549*
X07152Y10542*
X07145Y10535*
X07138Y10528*
X07131Y10521*
X07125Y10513*
X07119Y10505*
X07113Y10497*
X07107Y10489*
X07102Y10481*
X07096Y10472*
X07092Y10463*
X07087Y10454*
X07083Y10445*
X07079Y10436*
X07076Y10427*
X07073Y10417*
X0707Y10408*
X07067Y10398*
X07065Y10388*
X07064Y10378*
X07062Y10368*
X07061Y10358*
X0706Y10348*
X0706Y10339*
Y10329*
X0706Y10319*
X07061Y10309*
X07062Y10299*
X07064Y10289*
X07065Y10279*
X07067Y10269*
X0707Y10259*
X07073Y1025*
X07076Y1024*
X07079Y10231*
X07083Y10222*
X07087Y10213*
X07092Y10204*
X07096Y10195*
X07102Y10186*
X07107Y10178*
X07113Y1017*
X07119Y10162*
X07125Y10154*
X07131Y10146*
X07138Y10139*
X07145Y10132*
X07152Y10125*
X0716Y10118*
X07168Y10112*
X07176Y10106*
X07184Y101*
X07192Y10095*
X07201Y1009*
X07209Y10085*
X07218Y1008*
X07227Y10076*
X07237Y10072*
X07246Y10069*
X07255Y10065*
X07265Y10063*
X07275Y1006*
X07284Y10058*
X07294Y10056*
X07304Y10054*
X07314Y10053*
X07324Y10053*
X07334Y10052*
X07344Y10052*
X07354Y10052*
X07364Y10053*
X07374Y10054*
X07384Y10055*
X07394Y10057*
X07403Y10059*
X07413Y10061*
X07423Y10064*
X07432Y10067*
X07442Y1007*
X07451Y10074*
X0746Y10078*
X07469Y10083*
X07478Y10087*
X07487Y10092*
X07495Y10098*
X07503Y10103*
X07511Y10109*
X07519Y10115*
X07527Y10122*
X07534Y10128*
X07541Y10135*
X07548Y10143*
X07555Y1015*
X07561Y10158*
X07567Y10166*
X07573Y10174*
X07579Y10182*
X07584Y10191*
X07589Y10199*
X07594Y10208*
X07598Y10217*
X07602Y10226*
X07605Y10236*
X07609Y10245*
X07612Y10255*
X07614Y10264*
X07617Y10274*
X07619Y10284*
X0762Y10294*
X07621Y10304*
X07622Y10314*
X07623Y10324*
X07623Y10334*
X07322Y1055D02*
X07292D01*
Y1053*
X07317Y105D02*
X07322Y10505D01*
Y10515*
X07317Y1052*
X07312*
X07307Y10515*
Y10505*
X07302Y105*
X07297*
X07292Y10505*
Y10515*
X07297Y1052*
X07292Y1049D02*
Y1048D01*
Y10485*
X07322*
X07317Y1049*
G54D14*
X07661Y10359D02*
Y10339D01*
X07671Y10349D02*
X07651D01*
G54D11*
X05173Y12928D02*
Y13023D01*
X0522*
Y12928D02*
Y13023D01*
X05173Y12928D02*
X0522D01*
X03613Y12247D02*
X037D01*
Y12204D02*
Y12247D01*
X03613Y12204D02*
X037D01*
X03613D02*
Y12247D01*
X03796Y12186D02*
Y12286D01*
X04213Y1221D02*
Y1226D01*
X03796Y12286D02*
X04213D01*
X03796Y12186D02*
X04213D01*
Y1226D02*
Y12285D01*
Y12185D02*
Y1221D01*
X04726Y11976D02*
Y12076D01*
X05026Y12001D02*
Y12051D01*
X04726Y12076D02*
X05026D01*
X04726Y11976D02*
X05026D01*
Y12051D02*
Y12076D01*
Y11976D02*
Y12001D01*
X03679Y13871D02*
X04434D01*
Y12837D02*
Y13871D01*
X03679Y12837D02*
X04434D01*
X03679D02*
Y13871D01*
G54D12*
X03386Y12596D02*
X03386Y12605D01*
X03385Y12615*
X03384Y12625*
X03383Y12635*
X03382Y12645*
X0338Y12655*
X03377Y12665*
X03375Y12674*
X03372Y12684*
X03368Y12693*
X03365Y12703*
X03361Y12712*
X03357Y12721*
X03352Y1273*
X03347Y12738*
X03342Y12747*
X03336Y12755*
X0333Y12763*
X03324Y12771*
X03318Y12779*
X03311Y12786*
X03304Y12794*
X03297Y12801*
X0329Y12807*
X03282Y12814*
X03274Y1282*
X03266Y12826*
X03258Y12831*
X0325Y12837*
X03241Y12842*
X03232Y12846*
X03223Y12851*
X03214Y12855*
X03205Y12859*
X03195Y12862*
X03186Y12865*
X03176Y12868*
X03166Y1287*
X03157Y12872*
X03147Y12874*
X03137Y12875*
X03127Y12876*
X03117Y12877*
X03107Y12877*
X03097Y12877*
X03087Y12876*
X03077Y12876*
X03067Y12875*
X03057Y12873*
X03047Y12871*
X03038Y12869*
X03028Y12866*
X03018Y12864*
X03009Y1286*
X03Y12857*
X0299Y12853*
X02981Y12849*
X02972Y12844*
X02964Y12839*
X02955Y12834*
X02947Y12829*
X02939Y12823*
X02931Y12817*
X02923Y12811*
X02915Y12804*
X02908Y12797*
X02901Y1279*
X02894Y12783*
X02888Y12775*
X02881Y12767*
X02876Y12759*
X0287Y12751*
X02864Y12743*
X02859Y12734*
X02855Y12725*
X0285Y12716*
X02846Y12707*
X02842Y12698*
X02839Y12689*
X02836Y12679*
X02833Y1267*
X0283Y1266*
X02828Y1265*
X02827Y1264*
X02825Y1263*
X02824Y1262*
X02823Y1261*
X02823Y12601*
Y12591*
X02823Y12581*
X02824Y12571*
X02825Y12561*
X02827Y12551*
X02828Y12541*
X0283Y12531*
X02833Y12521*
X02836Y12512*
X02839Y12502*
X02842Y12493*
X02846Y12484*
X0285Y12475*
X02855Y12466*
X02859Y12457*
X02864Y12448*
X0287Y1244*
X02876Y12432*
X02881Y12424*
X02888Y12416*
X02894Y12408*
X02901Y12401*
X02908Y12394*
X02915Y12387*
X02923Y1238*
X02931Y12374*
X02939Y12368*
X02947Y12362*
X02955Y12357*
X02964Y12352*
X02972Y12347*
X02981Y12342*
X0299Y12338*
X03Y12334*
X03009Y12331*
X03018Y12327*
X03028Y12325*
X03038Y12322*
X03047Y1232*
X03057Y12318*
X03067Y12316*
X03077Y12315*
X03087Y12315*
X03097Y12314*
X03107Y12314*
X03117Y12314*
X03127Y12315*
X03137Y12316*
X03147Y12317*
X03157Y12319*
X03166Y12321*
X03176Y12323*
X03186Y12326*
X03195Y12329*
X03205Y12332*
X03214Y12336*
X03223Y1234*
X03232Y12345*
X03241Y12349*
X0325Y12354*
X03258Y1236*
X03266Y12365*
X03274Y12371*
X03282Y12377*
X0329Y12384*
X03297Y1239*
X03304Y12397*
X03311Y12405*
X03318Y12412*
X03324Y1242*
X0333Y12428*
X03336Y12436*
X03342Y12444*
X03347Y12453*
X03352Y12461*
X03357Y1247*
X03361Y12479*
X03365Y12488*
X03368Y12498*
X03372Y12507*
X03375Y12517*
X03377Y12526*
X0338Y12536*
X03382Y12546*
X03383Y12556*
X03384Y12566*
X03385Y12576*
X03386Y12586*
X03386Y12596*
X03085Y12812D02*
X03055D01*
Y12792*
X0308Y12762D02*
X03085Y12767D01*
Y12777*
X0308Y12782*
X03075*
X0307Y12777*
Y12767*
X03065Y12762*
X0306*
X03055Y12767*
Y12777*
X0306Y12782*
X03055Y12752D02*
Y12742D01*
Y12747*
X03085*
X0308Y12752*
G54D14*
X03423Y12621D02*
Y12601D01*
X03433Y12611D02*
X03414D01*
G54D11*
X0941Y12928D02*
Y13023D01*
X09457*
Y12928D02*
Y13023D01*
X0941Y12928D02*
X09457D01*
X0785Y12247D02*
X07937D01*
Y12204D02*
Y12247D01*
X0785Y12204D02*
X07937D01*
X0785D02*
Y12247D01*
X08034Y12186D02*
Y12286D01*
X0845Y1221D02*
Y1226D01*
X08034Y12286D02*
X0845D01*
X08034Y12186D02*
X0845D01*
Y1226D02*
Y12285D01*
Y12185D02*
Y1221D01*
X08964Y11976D02*
Y12076D01*
X09264Y12001D02*
Y12051D01*
X08964Y12076D02*
X09264D01*
X08964Y11976D02*
X09264D01*
Y12051D02*
Y12076D01*
Y11976D02*
Y12001D01*
X07916Y13871D02*
X08671D01*
Y12837D02*
Y13871D01*
X07916Y12837D02*
X08671D01*
X07916D02*
Y13871D01*
G54D12*
X07623Y12596D02*
X07623Y12605D01*
X07622Y12615*
X07621Y12625*
X0762Y12635*
X07619Y12645*
X07617Y12655*
X07614Y12665*
X07612Y12674*
X07609Y12684*
X07605Y12693*
X07602Y12703*
X07598Y12712*
X07594Y12721*
X07589Y1273*
X07584Y12738*
X07579Y12747*
X07573Y12755*
X07567Y12763*
X07561Y12771*
X07555Y12779*
X07548Y12786*
X07541Y12794*
X07534Y12801*
X07527Y12807*
X07519Y12814*
X07511Y1282*
X07503Y12826*
X07495Y12831*
X07487Y12837*
X07478Y12842*
X07469Y12846*
X0746Y12851*
X07451Y12855*
X07442Y12859*
X07432Y12862*
X07423Y12865*
X07413Y12868*
X07403Y1287*
X07394Y12872*
X07384Y12874*
X07374Y12875*
X07364Y12876*
X07354Y12877*
X07344Y12877*
X07334Y12877*
X07324Y12876*
X07314Y12876*
X07304Y12875*
X07294Y12873*
X07284Y12871*
X07275Y12869*
X07265Y12866*
X07255Y12864*
X07246Y1286*
X07237Y12857*
X07227Y12853*
X07218Y12849*
X07209Y12844*
X07201Y12839*
X07192Y12834*
X07184Y12829*
X07176Y12823*
X07168Y12817*
X0716Y12811*
X07152Y12804*
X07145Y12797*
X07138Y1279*
X07131Y12783*
X07125Y12775*
X07119Y12767*
X07113Y12759*
X07107Y12751*
X07102Y12743*
X07096Y12734*
X07092Y12725*
X07087Y12716*
X07083Y12707*
X07079Y12698*
X07076Y12689*
X07073Y12679*
X0707Y1267*
X07067Y1266*
X07065Y1265*
X07064Y1264*
X07062Y1263*
X07061Y1262*
X0706Y1261*
X0706Y12601*
Y12591*
X0706Y12581*
X07061Y12571*
X07062Y12561*
X07064Y12551*
X07065Y12541*
X07067Y12531*
X0707Y12521*
X07073Y12512*
X07076Y12502*
X07079Y12493*
X07083Y12484*
X07087Y12475*
X07092Y12466*
X07096Y12457*
X07102Y12448*
X07107Y1244*
X07113Y12432*
X07119Y12424*
X07125Y12416*
X07131Y12408*
X07138Y12401*
X07145Y12394*
X07152Y12387*
X0716Y1238*
X07168Y12374*
X07176Y12368*
X07184Y12362*
X07192Y12357*
X07201Y12352*
X07209Y12347*
X07218Y12342*
X07227Y12338*
X07237Y12334*
X07246Y12331*
X07255Y12327*
X07265Y12325*
X07275Y12322*
X07284Y1232*
X07294Y12318*
X07304Y12316*
X07314Y12315*
X07324Y12315*
X07334Y12314*
X07344Y12314*
X07354Y12314*
X07364Y12315*
X07374Y12316*
X07384Y12317*
X07394Y12319*
X07403Y12321*
X07413Y12323*
X07423Y12326*
X07432Y12329*
X07442Y12332*
X07451Y12336*
X0746Y1234*
X07469Y12345*
X07478Y12349*
X07487Y12354*
X07495Y1236*
X07503Y12365*
X07511Y12371*
X07519Y12377*
X07527Y12384*
X07534Y1239*
X07541Y12397*
X07548Y12405*
X07555Y12412*
X07561Y1242*
X07567Y12428*
X07573Y12436*
X07579Y12444*
X07584Y12453*
X07589Y12461*
X07594Y1247*
X07598Y12479*
X07602Y12488*
X07605Y12498*
X07609Y12507*
X07612Y12517*
X07614Y12526*
X07617Y12536*
X07619Y12546*
X0762Y12556*
X07621Y12566*
X07622Y12576*
X07623Y12586*
X07623Y12596*
X07322Y12812D02*
X07292D01*
Y12792*
X07317Y12762D02*
X07322Y12767D01*
Y12777*
X07317Y12782*
X07312*
X07307Y12777*
Y12767*
X07302Y12762*
X07297*
X07292Y12767*
Y12777*
X07297Y12782*
X07292Y12752D02*
Y12742D01*
Y12747*
X07322*
X07317Y12752*
G54D14*
X07661Y12621D02*
Y12601D01*
X07671Y12611D02*
X07651D01*
M02*