%FSTAX23Y23*%
%MOIN*%
%SFA1B1*%

%IPPOS*%
%ADD11C,0.007870*%
%ADD12C,0.010000*%
%ADD15C,0.005000*%
%LNcontrolboardv1-1*%
%LPD*%
G54D11*
X05173Y03881D02*
Y03976D01*
X0522*
G54D15*
X0Y0D02*
X12286D01*
Y16786*
X0*
Y0*
G54D11*
X0522Y03881D02*
Y03976D01*
X05173Y03881D02*
X0522D01*
X03613Y032D02*
X037D01*
Y03157D02*
Y032D01*
X03613Y03157D02*
X037D01*
X03613D02*
Y032D01*
X03679Y04824D02*
X04434D01*
Y0379D02*
Y04824D01*
X03679Y0379D02*
X04434D01*
X03679D02*
Y04824D01*
G54D12*
X02306Y04053D02*
X02286D01*
Y04023*
X02306*
X02286Y04038D02*
X02296D01*
X02316Y04023D02*
Y04053D01*
X02336Y04023*
Y04053*
X02286Y03924D02*
Y03953D01*
X02296Y03943*
X02306Y03953*
Y03924*
X02336Y03948D02*
X02331Y03953D01*
X02321*
X02316Y03948*
Y03943*
X02321Y03938*
X02331*
X02336Y03933*
Y03928*
X02331Y03924*
X02321*
X02316Y03928*
X02346Y03924D02*
X02356D01*
X02351*
Y03953*
X02346Y03948*
X02286Y03824D02*
Y03853D01*
X02296Y03843*
X02306Y03853*
Y03824*
X02336Y03848D02*
X02331Y03853D01*
X02321*
X02316Y03848*
Y03843*
X02321Y03838*
X02331*
X02336Y03833*
Y03828*
X02331Y03824*
X02321*
X02316Y03828*
X02366Y03824D02*
X02346D01*
X02366Y03843*
Y03848*
X02361Y03853*
X02351*
X02346Y03848*
X02286Y03723D02*
Y03753D01*
X02296Y03743*
X02306Y03753*
Y03723*
X02336Y03748D02*
X02331Y03753D01*
X02321*
X02316Y03748*
Y03743*
X02321Y03738*
X02331*
X02336Y03733*
Y03728*
X02331Y03723*
X02321*
X02316Y03728*
X02346Y03748D02*
X02351Y03753D01*
X02361*
X02366Y03748*
Y03743*
X02361Y03738*
X02356*
X02361*
X02366Y03733*
Y03728*
X02361Y03723*
X02351*
X02346Y03728*
X02286Y03624D02*
Y03653D01*
X02301*
X02306Y03648*
Y03638*
X02301Y03633*
X02286*
X02296D02*
X02306Y03624D01*
X02336Y03648D02*
X02331Y03653D01*
X02321*
X02316Y03648*
Y03643*
X02321Y03638*
X02331*
X02336Y03633*
Y03628*
X02331Y03624*
X02321*
X02316Y03628*
X02346Y03653D02*
X02366D01*
X02356*
Y03624*
X02306Y03548D02*
X02301Y03553D01*
X02291*
X02286Y03548*
Y03543*
X02291Y03538*
X02301*
X02306Y03533*
Y03528*
X02301Y03523*
X02291*
X02286Y03528*
X02316Y03553D02*
Y03523D01*
X02336*
X02346D02*
Y03553D01*
X02361*
X02366Y03548*
Y03538*
X02361Y03533*
X02346*
X02306Y03448D02*
X02301Y03453D01*
X02291*
X02286Y03448*
Y03443*
X02291Y03438*
X02301*
X02306Y03433*
Y03428*
X02301Y03424*
X02291*
X02286Y03428*
X02316Y03453D02*
X02336D01*
X02326*
Y03424*
X02366Y03453D02*
X02346D01*
Y03424*
X02366*
X02346Y03438D02*
X02356D01*
X02376Y03424D02*
Y03453D01*
X02391*
X02396Y03448*
Y03438*
X02391Y03433*
X02376*
X02286Y03353D02*
Y03324D01*
X02301*
X02306Y03328*
Y03348*
X02301Y03353*
X02286*
X02316D02*
X02326D01*
X02321*
Y03324*
X02316*
X02326*
X02341D02*
Y03353D01*
X02356*
X02361Y03348*
Y03338*
X02356Y03333*
X02341*
X02351D02*
X02361Y03324D01*
X02557Y04053D02*
Y04033D01*
X02567Y04023*
X02577Y04033*
Y04053*
X02587Y04023D02*
Y04053D01*
X02597Y04043*
X02607Y04053*
Y04023*
X02632Y04053D02*
X02622D01*
X02617Y04048*
Y04028*
X02622Y04023*
X02632*
X02637Y04028*
Y04048*
X02632Y04053*
X02647D02*
X02666D01*
X02656*
Y04023*
X02607Y03948D02*
X02602Y03953D01*
X02592*
X02587Y03948*
Y03928*
X02592Y03924*
X02602*
X02607Y03928*
Y03938*
X02597*
X02617Y03924D02*
Y03953D01*
X02637Y03924*
Y03953*
X02647D02*
Y03924D01*
X02661*
X02666Y03928*
Y03948*
X02661Y03953*
X02647*
X02637Y03824D02*
X02617D01*
X02637Y03843*
Y03848*
X02632Y03853*
X02622*
X02617Y03848*
X02647Y03853D02*
Y03824D01*
X02661*
X02666Y03828*
Y03833*
X02661Y03838*
X02647*
X02661*
X02666Y03843*
Y03848*
X02661Y03853*
X02647*
X02637Y03723D02*
X02617D01*
X02637Y03743*
Y03748*
X02632Y03753*
X02622*
X02617Y03748*
X02647Y03723D02*
Y03743D01*
X02656Y03753*
X02666Y03743*
Y03723*
Y03738*
X02647*
X02622Y03624D02*
X02632D01*
X02627*
Y03653*
X02622Y03648*
X02647Y03624D02*
Y03643D01*
X02656Y03653*
X02666Y03643*
Y03624*
Y03638*
X02647*
X02622Y03523D02*
X02632D01*
X02627*
Y03553*
X02622Y03548*
X02647Y03553D02*
Y03523D01*
X02661*
X02666Y03528*
Y03533*
X02661Y03538*
X02647*
X02661*
X02666Y03543*
Y03548*
X02661Y03553*
X02647*
X02587Y03453D02*
Y03433D01*
X02597Y03424*
X02607Y03433*
Y03453*
X02617D02*
Y03424D01*
X02632*
X02637Y03428*
Y03448*
X02632Y03453*
X02617*
X02647D02*
Y03424D01*
X02661*
X02666Y03428*
Y03448*
X02661Y03453*
X02647*
X02607Y03348D02*
X02602Y03353D01*
X02592*
X02587Y03348*
Y03328*
X02592Y03324*
X02602*
X02607Y03328*
Y03338*
X02597*
X02617Y03324D02*
Y03353D01*
X02637Y03324*
Y03353*
X02647D02*
Y03324D01*
X02661*
X02666Y03328*
Y03348*
X02661Y03353*
X02647*
X05406Y04053D02*
X05386D01*
Y04023*
X05406*
X05386Y04038D02*
X05396D01*
X05416Y04023D02*
Y04053D01*
X05436Y04023*
Y04053*
X05386Y03924D02*
Y03953D01*
X05396Y03943*
X05406Y03953*
Y03924*
X05436Y03948D02*
X05431Y03953D01*
X05421*
X05416Y03948*
Y03943*
X05421Y03938*
X05431*
X05436Y03933*
Y03928*
X05431Y03924*
X05421*
X05416Y03928*
X05446Y03924D02*
X05456D01*
X05451*
Y03953*
X05446Y03948*
X05386Y03824D02*
Y03853D01*
X05396Y03843*
X05406Y03853*
Y03824*
X05436Y03848D02*
X05431Y03853D01*
X05421*
X05416Y03848*
Y03843*
X05421Y03838*
X05431*
X05436Y03833*
Y03828*
X05431Y03824*
X05421*
X05416Y03828*
X05466Y03824D02*
X05446D01*
X05466Y03843*
Y03848*
X05461Y03853*
X05451*
X05446Y03848*
X05386Y03723D02*
Y03753D01*
X05396Y03743*
X05406Y03753*
Y03723*
X05436Y03748D02*
X05431Y03753D01*
X05421*
X05416Y03748*
Y03743*
X05421Y03738*
X05431*
X05436Y03733*
Y03728*
X05431Y03723*
X05421*
X05416Y03728*
X05446Y03748D02*
X05451Y03753D01*
X05461*
X05466Y03748*
Y03743*
X05461Y03738*
X05456*
X05461*
X05466Y03733*
Y03728*
X05461Y03723*
X05451*
X05446Y03728*
X05386Y03624D02*
Y03653D01*
X05401*
X05406Y03648*
Y03638*
X05401Y03633*
X05386*
X05396D02*
X05406Y03624D01*
X05436Y03648D02*
X05431Y03653D01*
X05421*
X05416Y03648*
Y03643*
X05421Y03638*
X05431*
X05436Y03633*
Y03628*
X05431Y03624*
X05421*
X05416Y03628*
X05446Y03653D02*
X05466D01*
X05456*
Y03624*
X05406Y03548D02*
X05401Y03553D01*
X05391*
X05386Y03548*
Y03543*
X05391Y03538*
X05401*
X05406Y03533*
Y03528*
X05401Y03523*
X05391*
X05386Y03528*
X05416Y03553D02*
Y03523D01*
X05436*
X05446D02*
Y03553D01*
X05461*
X05466Y03548*
Y03538*
X05461Y03533*
X05446*
X05406Y03448D02*
X05401Y03453D01*
X05391*
X05386Y03448*
Y03443*
X05391Y03438*
X05401*
X05406Y03433*
Y03428*
X05401Y03424*
X05391*
X05386Y03428*
X05416Y03453D02*
X05436D01*
X05426*
Y03424*
X05466Y03453D02*
X05446D01*
Y03424*
X05466*
X05446Y03438D02*
X05456D01*
X05476Y03424D02*
Y03453D01*
X05491*
X05496Y03448*
Y03438*
X05491Y03433*
X05476*
X05386Y03353D02*
Y03324D01*
X05401*
X05406Y03328*
Y03348*
X05401Y03353*
X05386*
X05416D02*
X05426D01*
X05421*
Y03324*
X05416*
X05426*
X05441D02*
Y03353D01*
X05456*
X05461Y03348*
Y03338*
X05456Y03333*
X05441*
X05451D02*
X05461Y03324D01*
X05657Y04053D02*
Y04033D01*
X05667Y04023*
X05677Y04033*
Y04053*
X05687Y04023D02*
Y04053D01*
X05697Y04043*
X05707Y04053*
Y04023*
X05732Y04053D02*
X05722D01*
X05717Y04048*
Y04028*
X05722Y04023*
X05732*
X05737Y04028*
Y04048*
X05732Y04053*
X05747D02*
X05766D01*
X05756*
Y04023*
X05707Y03948D02*
X05702Y03953D01*
X05692*
X05687Y03948*
Y03928*
X05692Y03924*
X05702*
X05707Y03928*
Y03938*
X05697*
X05717Y03924D02*
Y03953D01*
X05737Y03924*
Y03953*
X05747D02*
Y03924D01*
X05761*
X05766Y03928*
Y03948*
X05761Y03953*
X05747*
X05737Y03824D02*
X05717D01*
X05737Y03843*
Y03848*
X05732Y03853*
X05722*
X05717Y03848*
X05747Y03853D02*
Y03824D01*
X05761*
X05766Y03828*
Y03833*
X05761Y03838*
X05747*
X05761*
X05766Y03843*
Y03848*
X05761Y03853*
X05747*
X05737Y03723D02*
X05717D01*
X05737Y03743*
Y03748*
X05732Y03753*
X05722*
X05717Y03748*
X05747Y03723D02*
Y03743D01*
X05756Y03753*
X05766Y03743*
Y03723*
Y03738*
X05747*
X05722Y03624D02*
X05732D01*
X05727*
Y03653*
X05722Y03648*
X05747Y03624D02*
Y03643D01*
X05756Y03653*
X05766Y03643*
Y03624*
Y03638*
X05747*
X05722Y03523D02*
X05732D01*
X05727*
Y03553*
X05722Y03548*
X05747Y03553D02*
Y03523D01*
X05761*
X05766Y03528*
Y03533*
X05761Y03538*
X05747*
X05761*
X05766Y03543*
Y03548*
X05761Y03553*
X05747*
X05687Y03453D02*
Y03433D01*
X05697Y03424*
X05707Y03433*
Y03453*
X05717D02*
Y03424D01*
X05732*
X05737Y03428*
Y03448*
X05732Y03453*
X05717*
X05747D02*
Y03424D01*
X05761*
X05766Y03428*
Y03448*
X05761Y03453*
X05747*
X05707Y03348D02*
X05702Y03353D01*
X05692*
X05687Y03348*
Y03328*
X05692Y03324*
X05702*
X05707Y03328*
Y03338*
X05697*
X05717Y03324D02*
Y03353D01*
X05737Y03324*
Y03353*
X05747D02*
Y03324D01*
X05761*
X05766Y03328*
Y03348*
X05761Y03353*
X05747*
G54D11*
X0941Y03881D02*
Y03976D01*
X09457*
Y03881D02*
Y03976D01*
X0941Y03881D02*
X09457D01*
X0785Y032D02*
X07937D01*
Y03157D02*
Y032D01*
X0785Y03157D02*
X07937D01*
X0785D02*
Y032D01*
X07916Y04824D02*
X08671D01*
Y0379D02*
Y04824D01*
X07916Y0379D02*
X08671D01*
X07916D02*
Y04824D01*
G54D12*
X06543Y04053D02*
X06524D01*
Y04023*
X06543*
X06524Y04038D02*
X06534D01*
X06553Y04023D02*
Y04053D01*
X06573Y04023*
Y04053*
X06524Y03924D02*
Y03953D01*
X06534Y03943*
X06543Y03953*
Y03924*
X06573Y03948D02*
X06568Y03953D01*
X06558*
X06553Y03948*
Y03943*
X06558Y03938*
X06568*
X06573Y03933*
Y03928*
X06568Y03924*
X06558*
X06553Y03928*
X06583Y03924D02*
X06593D01*
X06588*
Y03953*
X06583Y03948*
X06524Y03824D02*
Y03853D01*
X06534Y03843*
X06543Y03853*
Y03824*
X06573Y03848D02*
X06568Y03853D01*
X06558*
X06553Y03848*
Y03843*
X06558Y03838*
X06568*
X06573Y03833*
Y03828*
X06568Y03824*
X06558*
X06553Y03828*
X06603Y03824D02*
X06583D01*
X06603Y03843*
Y03848*
X06598Y03853*
X06588*
X06583Y03848*
X06524Y03723D02*
Y03753D01*
X06534Y03743*
X06543Y03753*
Y03723*
X06573Y03748D02*
X06568Y03753D01*
X06558*
X06553Y03748*
Y03743*
X06558Y03738*
X06568*
X06573Y03733*
Y03728*
X06568Y03723*
X06558*
X06553Y03728*
X06583Y03748D02*
X06588Y03753D01*
X06598*
X06603Y03748*
Y03743*
X06598Y03738*
X06593*
X06598*
X06603Y03733*
Y03728*
X06598Y03723*
X06588*
X06583Y03728*
X06524Y03624D02*
Y03653D01*
X06538*
X06543Y03648*
Y03638*
X06538Y03633*
X06524*
X06534D02*
X06543Y03624D01*
X06573Y03648D02*
X06568Y03653D01*
X06558*
X06553Y03648*
Y03643*
X06558Y03638*
X06568*
X06573Y03633*
Y03628*
X06568Y03624*
X06558*
X06553Y03628*
X06583Y03653D02*
X06603D01*
X06593*
Y03624*
X06543Y03548D02*
X06538Y03553D01*
X06529*
X06524Y03548*
Y03543*
X06529Y03538*
X06538*
X06543Y03533*
Y03528*
X06538Y03523*
X06529*
X06524Y03528*
X06553Y03553D02*
Y03523D01*
X06573*
X06583D02*
Y03553D01*
X06598*
X06603Y03548*
Y03538*
X06598Y03533*
X06583*
X06543Y03448D02*
X06538Y03453D01*
X06529*
X06524Y03448*
Y03443*
X06529Y03438*
X06538*
X06543Y03433*
Y03428*
X06538Y03424*
X06529*
X06524Y03428*
X06553Y03453D02*
X06573D01*
X06563*
Y03424*
X06603Y03453D02*
X06583D01*
Y03424*
X06603*
X06583Y03438D02*
X06593D01*
X06613Y03424D02*
Y03453D01*
X06628*
X06633Y03448*
Y03438*
X06628Y03433*
X06613*
X06524Y03353D02*
Y03324D01*
X06538*
X06543Y03328*
Y03348*
X06538Y03353*
X06524*
X06553D02*
X06563D01*
X06558*
Y03324*
X06553*
X06563*
X06578D02*
Y03353D01*
X06593*
X06598Y03348*
Y03338*
X06593Y03333*
X06578*
X06588D02*
X06598Y03324D01*
X06794Y04053D02*
Y04033D01*
X06804Y04023*
X06814Y04033*
Y04053*
X06824Y04023D02*
Y04053D01*
X06834Y04043*
X06844Y04053*
Y04023*
X06869Y04053D02*
X06859D01*
X06854Y04048*
Y04028*
X06859Y04023*
X06869*
X06874Y04028*
Y04048*
X06869Y04053*
X06884D02*
X06904D01*
X06894*
Y04023*
X06844Y03948D02*
X06839Y03953D01*
X06829*
X06824Y03948*
Y03928*
X06829Y03924*
X06839*
X06844Y03928*
Y03938*
X06834*
X06854Y03924D02*
Y03953D01*
X06874Y03924*
Y03953*
X06884D02*
Y03924D01*
X06899*
X06904Y03928*
Y03948*
X06899Y03953*
X06884*
X06874Y03824D02*
X06854D01*
X06874Y03843*
Y03848*
X06869Y03853*
X06859*
X06854Y03848*
X06884Y03853D02*
Y03824D01*
X06899*
X06904Y03828*
Y03833*
X06899Y03838*
X06884*
X06899*
X06904Y03843*
Y03848*
X06899Y03853*
X06884*
X06874Y03723D02*
X06854D01*
X06874Y03743*
Y03748*
X06869Y03753*
X06859*
X06854Y03748*
X06884Y03723D02*
Y03743D01*
X06894Y03753*
X06904Y03743*
Y03723*
Y03738*
X06884*
X06859Y03624D02*
X06869D01*
X06864*
Y03653*
X06859Y03648*
X06884Y03624D02*
Y03643D01*
X06894Y03653*
X06904Y03643*
Y03624*
Y03638*
X06884*
X06859Y03523D02*
X06869D01*
X06864*
Y03553*
X06859Y03548*
X06884Y03553D02*
Y03523D01*
X06899*
X06904Y03528*
Y03533*
X06899Y03538*
X06884*
X06899*
X06904Y03543*
Y03548*
X06899Y03553*
X06884*
X06824Y03453D02*
Y03433D01*
X06834Y03424*
X06844Y03433*
Y03453*
X06854D02*
Y03424D01*
X06869*
X06874Y03428*
Y03448*
X06869Y03453*
X06854*
X06884D02*
Y03424D01*
X06899*
X06904Y03428*
Y03448*
X06899Y03453*
X06884*
X06844Y03348D02*
X06839Y03353D01*
X06829*
X06824Y03348*
Y03328*
X06829Y03324*
X06839*
X06844Y03328*
Y03338*
X06834*
X06854Y03324D02*
Y03353D01*
X06874Y03324*
Y03353*
X06884D02*
Y03324D01*
X06899*
X06904Y03328*
Y03348*
X06899Y03353*
X06884*
X09643Y04053D02*
X09624D01*
Y04023*
X09643*
X09624Y04038D02*
X09634D01*
X09653Y04023D02*
Y04053D01*
X09673Y04023*
Y04053*
X09624Y03924D02*
Y03953D01*
X09634Y03943*
X09643Y03953*
Y03924*
X09673Y03948D02*
X09668Y03953D01*
X09658*
X09653Y03948*
Y03943*
X09658Y03938*
X09668*
X09673Y03933*
Y03928*
X09668Y03924*
X09658*
X09653Y03928*
X09683Y03924D02*
X09693D01*
X09688*
Y03953*
X09683Y03948*
X09624Y03824D02*
Y03853D01*
X09634Y03843*
X09643Y03853*
Y03824*
X09673Y03848D02*
X09668Y03853D01*
X09658*
X09653Y03848*
Y03843*
X09658Y03838*
X09668*
X09673Y03833*
Y03828*
X09668Y03824*
X09658*
X09653Y03828*
X09703Y03824D02*
X09683D01*
X09703Y03843*
Y03848*
X09698Y03853*
X09688*
X09683Y03848*
X09624Y03723D02*
Y03753D01*
X09634Y03743*
X09643Y03753*
Y03723*
X09673Y03748D02*
X09668Y03753D01*
X09658*
X09653Y03748*
Y03743*
X09658Y03738*
X09668*
X09673Y03733*
Y03728*
X09668Y03723*
X09658*
X09653Y03728*
X09683Y03748D02*
X09688Y03753D01*
X09698*
X09703Y03748*
Y03743*
X09698Y03738*
X09693*
X09698*
X09703Y03733*
Y03728*
X09698Y03723*
X09688*
X09683Y03728*
X09624Y03624D02*
Y03653D01*
X09638*
X09643Y03648*
Y03638*
X09638Y03633*
X09624*
X09634D02*
X09643Y03624D01*
X09673Y03648D02*
X09668Y03653D01*
X09658*
X09653Y03648*
Y03643*
X09658Y03638*
X09668*
X09673Y03633*
Y03628*
X09668Y03624*
X09658*
X09653Y03628*
X09683Y03653D02*
X09703D01*
X09693*
Y03624*
X09643Y03548D02*
X09638Y03553D01*
X09629*
X09624Y03548*
Y03543*
X09629Y03538*
X09638*
X09643Y03533*
Y03528*
X09638Y03523*
X09629*
X09624Y03528*
X09653Y03553D02*
Y03523D01*
X09673*
X09683D02*
Y03553D01*
X09698*
X09703Y03548*
Y03538*
X09698Y03533*
X09683*
X09643Y03448D02*
X09638Y03453D01*
X09629*
X09624Y03448*
Y03443*
X09629Y03438*
X09638*
X09643Y03433*
Y03428*
X09638Y03424*
X09629*
X09624Y03428*
X09653Y03453D02*
X09673D01*
X09663*
Y03424*
X09703Y03453D02*
X09683D01*
Y03424*
X09703*
X09683Y03438D02*
X09693D01*
X09713Y03424D02*
Y03453D01*
X09728*
X09733Y03448*
Y03438*
X09728Y03433*
X09713*
X09624Y03353D02*
Y03324D01*
X09638*
X09643Y03328*
Y03348*
X09638Y03353*
X09624*
X09653D02*
X09663D01*
X09658*
Y03324*
X09653*
X09663*
X09678D02*
Y03353D01*
X09693*
X09698Y03348*
Y03338*
X09693Y03333*
X09678*
X09688D02*
X09698Y03324D01*
X09894Y04053D02*
Y04033D01*
X09904Y04023*
X09914Y04033*
Y04053*
X09924Y04023D02*
Y04053D01*
X09934Y04043*
X09944Y04053*
Y04023*
X09969Y04053D02*
X09959D01*
X09954Y04048*
Y04028*
X09959Y04023*
X09969*
X09974Y04028*
Y04048*
X09969Y04053*
X09984D02*
X10004D01*
X09994*
Y04023*
X09944Y03948D02*
X09939Y03953D01*
X09929*
X09924Y03948*
Y03928*
X09929Y03924*
X09939*
X09944Y03928*
Y03938*
X09934*
X09954Y03924D02*
Y03953D01*
X09974Y03924*
Y03953*
X09984D02*
Y03924D01*
X09999*
X10004Y03928*
Y03948*
X09999Y03953*
X09984*
X09974Y03824D02*
X09954D01*
X09974Y03843*
Y03848*
X09969Y03853*
X09959*
X09954Y03848*
X09984Y03853D02*
Y03824D01*
X09999*
X10004Y03828*
Y03833*
X09999Y03838*
X09984*
X09999*
X10004Y03843*
Y03848*
X09999Y03853*
X09984*
X09974Y03723D02*
X09954D01*
X09974Y03743*
Y03748*
X09969Y03753*
X09959*
X09954Y03748*
X09984Y03723D02*
Y03743D01*
X09994Y03753*
X10004Y03743*
Y03723*
Y03738*
X09984*
X09959Y03624D02*
X09969D01*
X09964*
Y03653*
X09959Y03648*
X09984Y03624D02*
Y03643D01*
X09994Y03653*
X10004Y03643*
Y03624*
Y03638*
X09984*
X09959Y03523D02*
X09969D01*
X09964*
Y03553*
X09959Y03548*
X09984Y03553D02*
Y03523D01*
X09999*
X10004Y03528*
Y03533*
X09999Y03538*
X09984*
X09999*
X10004Y03543*
Y03548*
X09999Y03553*
X09984*
X09924Y03453D02*
Y03433D01*
X09934Y03424*
X09944Y03433*
Y03453*
X09954D02*
Y03424D01*
X09969*
X09974Y03428*
Y03448*
X09969Y03453*
X09954*
X09984D02*
Y03424D01*
X09999*
X10004Y03428*
Y03448*
X09999Y03453*
X09984*
X09944Y03348D02*
X09939Y03353D01*
X09929*
X09924Y03348*
Y03328*
X09929Y03324*
X09939*
X09944Y03328*
Y03338*
X09934*
X09954Y03324D02*
Y03353D01*
X09974Y03324*
Y03353*
X09984D02*
Y03324D01*
X09999*
X10004Y03328*
Y03348*
X09999Y03353*
X09984*
G54D11*
X05173Y06143D02*
Y06238D01*
X0522*
Y06143D02*
Y06238D01*
X05173Y06143D02*
X0522D01*
X03613Y05462D02*
X037D01*
Y05419D02*
Y05462D01*
X03613Y05419D02*
X037D01*
X03613D02*
Y05462D01*
X03679Y07086D02*
X04434D01*
Y06052D02*
Y07086D01*
X03679Y06052D02*
X04434D01*
X03679D02*
Y07086D01*
G54D12*
X02306Y06315D02*
X02286D01*
Y06285*
X02306*
X02286Y063D02*
X02296D01*
X02316Y06285D02*
Y06315D01*
X02336Y06285*
Y06315*
X02286Y06186D02*
Y06215D01*
X02296Y06205*
X02306Y06215*
Y06186*
X02336Y0621D02*
X02331Y06215D01*
X02321*
X02316Y0621*
Y06205*
X02321Y062*
X02331*
X02336Y06195*
Y0619*
X02331Y06186*
X02321*
X02316Y0619*
X02346Y06186D02*
X02356D01*
X02351*
Y06215*
X02346Y0621*
X02286Y06086D02*
Y06115D01*
X02296Y06105*
X02306Y06115*
Y06086*
X02336Y0611D02*
X02331Y06115D01*
X02321*
X02316Y0611*
Y06105*
X02321Y061*
X02331*
X02336Y06095*
Y0609*
X02331Y06086*
X02321*
X02316Y0609*
X02366Y06086D02*
X02346D01*
X02366Y06105*
Y0611*
X02361Y06115*
X02351*
X02346Y0611*
X02286Y05985D02*
Y06015D01*
X02296Y06005*
X02306Y06015*
Y05985*
X02336Y0601D02*
X02331Y06015D01*
X02321*
X02316Y0601*
Y06005*
X02321Y06*
X02331*
X02336Y05995*
Y0599*
X02331Y05985*
X02321*
X02316Y0599*
X02346Y0601D02*
X02351Y06015D01*
X02361*
X02366Y0601*
Y06005*
X02361Y06*
X02356*
X02361*
X02366Y05995*
Y0599*
X02361Y05985*
X02351*
X02346Y0599*
X02286Y05886D02*
Y05915D01*
X02301*
X02306Y0591*
Y059*
X02301Y05895*
X02286*
X02296D02*
X02306Y05886D01*
X02336Y0591D02*
X02331Y05915D01*
X02321*
X02316Y0591*
Y05905*
X02321Y059*
X02331*
X02336Y05895*
Y0589*
X02331Y05886*
X02321*
X02316Y0589*
X02346Y05915D02*
X02366D01*
X02356*
Y05886*
X02306Y0581D02*
X02301Y05815D01*
X02291*
X02286Y0581*
Y05805*
X02291Y058*
X02301*
X02306Y05795*
Y0579*
X02301Y05785*
X02291*
X02286Y0579*
X02316Y05815D02*
Y05785D01*
X02336*
X02346D02*
Y05815D01*
X02361*
X02366Y0581*
Y058*
X02361Y05795*
X02346*
X02306Y0571D02*
X02301Y05715D01*
X02291*
X02286Y0571*
Y05705*
X02291Y057*
X02301*
X02306Y05695*
Y0569*
X02301Y05686*
X02291*
X02286Y0569*
X02316Y05715D02*
X02336D01*
X02326*
Y05686*
X02366Y05715D02*
X02346D01*
Y05686*
X02366*
X02346Y057D02*
X02356D01*
X02376Y05686D02*
Y05715D01*
X02391*
X02396Y0571*
Y057*
X02391Y05695*
X02376*
X02286Y05615D02*
Y05586D01*
X02301*
X02306Y0559*
Y0561*
X02301Y05615*
X02286*
X02316D02*
X02326D01*
X02321*
Y05586*
X02316*
X02326*
X02341D02*
Y05615D01*
X02356*
X02361Y0561*
Y056*
X02356Y05595*
X02341*
X02351D02*
X02361Y05586D01*
X02557Y06315D02*
Y06295D01*
X02567Y06285*
X02577Y06295*
Y06315*
X02587Y06285D02*
Y06315D01*
X02597Y06305*
X02607Y06315*
Y06285*
X02632Y06315D02*
X02622D01*
X02617Y0631*
Y0629*
X02622Y06285*
X02632*
X02637Y0629*
Y0631*
X02632Y06315*
X02647D02*
X02666D01*
X02656*
Y06285*
X02607Y0621D02*
X02602Y06215D01*
X02592*
X02587Y0621*
Y0619*
X02592Y06186*
X02602*
X02607Y0619*
Y062*
X02597*
X02617Y06186D02*
Y06215D01*
X02637Y06186*
Y06215*
X02647D02*
Y06186D01*
X02661*
X02666Y0619*
Y0621*
X02661Y06215*
X02647*
X02637Y06086D02*
X02617D01*
X02637Y06105*
Y0611*
X02632Y06115*
X02622*
X02617Y0611*
X02647Y06115D02*
Y06086D01*
X02661*
X02666Y0609*
Y06095*
X02661Y061*
X02647*
X02661*
X02666Y06105*
Y0611*
X02661Y06115*
X02647*
X02637Y05985D02*
X02617D01*
X02637Y06005*
Y0601*
X02632Y06015*
X02622*
X02617Y0601*
X02647Y05985D02*
Y06005D01*
X02656Y06015*
X02666Y06005*
Y05985*
Y06*
X02647*
X02622Y05886D02*
X02632D01*
X02627*
Y05915*
X02622Y0591*
X02647Y05886D02*
Y05905D01*
X02656Y05915*
X02666Y05905*
Y05886*
Y059*
X02647*
X02622Y05785D02*
X02632D01*
X02627*
Y05815*
X02622Y0581*
X02647Y05815D02*
Y05785D01*
X02661*
X02666Y0579*
Y05795*
X02661Y058*
X02647*
X02661*
X02666Y05805*
Y0581*
X02661Y05815*
X02647*
X02587Y05715D02*
Y05695D01*
X02597Y05686*
X02607Y05695*
Y05715*
X02617D02*
Y05686D01*
X02632*
X02637Y0569*
Y0571*
X02632Y05715*
X02617*
X02647D02*
Y05686D01*
X02661*
X02666Y0569*
Y0571*
X02661Y05715*
X02647*
X02607Y0561D02*
X02602Y05615D01*
X02592*
X02587Y0561*
Y0559*
X02592Y05586*
X02602*
X02607Y0559*
Y056*
X02597*
X02617Y05586D02*
Y05615D01*
X02637Y05586*
Y05615*
X02647D02*
Y05586D01*
X02661*
X02666Y0559*
Y0561*
X02661Y05615*
X02647*
X05406Y06315D02*
X05386D01*
Y06285*
X05406*
X05386Y063D02*
X05396D01*
X05416Y06285D02*
Y06315D01*
X05436Y06285*
Y06315*
X05386Y06186D02*
Y06215D01*
X05396Y06205*
X05406Y06215*
Y06186*
X05436Y0621D02*
X05431Y06215D01*
X05421*
X05416Y0621*
Y06205*
X05421Y062*
X05431*
X05436Y06195*
Y0619*
X05431Y06186*
X05421*
X05416Y0619*
X05446Y06186D02*
X05456D01*
X05451*
Y06215*
X05446Y0621*
X05386Y06086D02*
Y06115D01*
X05396Y06105*
X05406Y06115*
Y06086*
X05436Y0611D02*
X05431Y06115D01*
X05421*
X05416Y0611*
Y06105*
X05421Y061*
X05431*
X05436Y06095*
Y0609*
X05431Y06086*
X05421*
X05416Y0609*
X05466Y06086D02*
X05446D01*
X05466Y06105*
Y0611*
X05461Y06115*
X05451*
X05446Y0611*
X05386Y05985D02*
Y06015D01*
X05396Y06005*
X05406Y06015*
Y05985*
X05436Y0601D02*
X05431Y06015D01*
X05421*
X05416Y0601*
Y06005*
X05421Y06*
X05431*
X05436Y05995*
Y0599*
X05431Y05985*
X05421*
X05416Y0599*
X05446Y0601D02*
X05451Y06015D01*
X05461*
X05466Y0601*
Y06005*
X05461Y06*
X05456*
X05461*
X05466Y05995*
Y0599*
X05461Y05985*
X05451*
X05446Y0599*
X05386Y05886D02*
Y05915D01*
X05401*
X05406Y0591*
Y059*
X05401Y05895*
X05386*
X05396D02*
X05406Y05886D01*
X05436Y0591D02*
X05431Y05915D01*
X05421*
X05416Y0591*
Y05905*
X05421Y059*
X05431*
X05436Y05895*
Y0589*
X05431Y05886*
X05421*
X05416Y0589*
X05446Y05915D02*
X05466D01*
X05456*
Y05886*
X05406Y0581D02*
X05401Y05815D01*
X05391*
X05386Y0581*
Y05805*
X05391Y058*
X05401*
X05406Y05795*
Y0579*
X05401Y05785*
X05391*
X05386Y0579*
X05416Y05815D02*
Y05785D01*
X05436*
X05446D02*
Y05815D01*
X05461*
X05466Y0581*
Y058*
X05461Y05795*
X05446*
X05406Y0571D02*
X05401Y05715D01*
X05391*
X05386Y0571*
Y05705*
X05391Y057*
X05401*
X05406Y05695*
Y0569*
X05401Y05686*
X05391*
X05386Y0569*
X05416Y05715D02*
X05436D01*
X05426*
Y05686*
X05466Y05715D02*
X05446D01*
Y05686*
X05466*
X05446Y057D02*
X05456D01*
X05476Y05686D02*
Y05715D01*
X05491*
X05496Y0571*
Y057*
X05491Y05695*
X05476*
X05386Y05615D02*
Y05586D01*
X05401*
X05406Y0559*
Y0561*
X05401Y05615*
X05386*
X05416D02*
X05426D01*
X05421*
Y05586*
X05416*
X05426*
X05441D02*
Y05615D01*
X05456*
X05461Y0561*
Y056*
X05456Y05595*
X05441*
X05451D02*
X05461Y05586D01*
X05657Y06315D02*
Y06295D01*
X05667Y06285*
X05677Y06295*
Y06315*
X05687Y06285D02*
Y06315D01*
X05697Y06305*
X05707Y06315*
Y06285*
X05732Y06315D02*
X05722D01*
X05717Y0631*
Y0629*
X05722Y06285*
X05732*
X05737Y0629*
Y0631*
X05732Y06315*
X05747D02*
X05766D01*
X05756*
Y06285*
X05707Y0621D02*
X05702Y06215D01*
X05692*
X05687Y0621*
Y0619*
X05692Y06186*
X05702*
X05707Y0619*
Y062*
X05697*
X05717Y06186D02*
Y06215D01*
X05737Y06186*
Y06215*
X05747D02*
Y06186D01*
X05761*
X05766Y0619*
Y0621*
X05761Y06215*
X05747*
X05737Y06086D02*
X05717D01*
X05737Y06105*
Y0611*
X05732Y06115*
X05722*
X05717Y0611*
X05747Y06115D02*
Y06086D01*
X05761*
X05766Y0609*
Y06095*
X05761Y061*
X05747*
X05761*
X05766Y06105*
Y0611*
X05761Y06115*
X05747*
X05737Y05985D02*
X05717D01*
X05737Y06005*
Y0601*
X05732Y06015*
X05722*
X05717Y0601*
X05747Y05985D02*
Y06005D01*
X05756Y06015*
X05766Y06005*
Y05985*
Y06*
X05747*
X05722Y05886D02*
X05732D01*
X05727*
Y05915*
X05722Y0591*
X05747Y05886D02*
Y05905D01*
X05756Y05915*
X05766Y05905*
Y05886*
Y059*
X05747*
X05722Y05785D02*
X05732D01*
X05727*
Y05815*
X05722Y0581*
X05747Y05815D02*
Y05785D01*
X05761*
X05766Y0579*
Y05795*
X05761Y058*
X05747*
X05761*
X05766Y05805*
Y0581*
X05761Y05815*
X05747*
X05687Y05715D02*
Y05695D01*
X05697Y05686*
X05707Y05695*
Y05715*
X05717D02*
Y05686D01*
X05732*
X05737Y0569*
Y0571*
X05732Y05715*
X05717*
X05747D02*
Y05686D01*
X05761*
X05766Y0569*
Y0571*
X05761Y05715*
X05747*
X05707Y0561D02*
X05702Y05615D01*
X05692*
X05687Y0561*
Y0559*
X05692Y05586*
X05702*
X05707Y0559*
Y056*
X05697*
X05717Y05586D02*
Y05615D01*
X05737Y05586*
Y05615*
X05747D02*
Y05586D01*
X05761*
X05766Y0559*
Y0561*
X05761Y05615*
X05747*
G54D11*
X0941Y06143D02*
Y06238D01*
X09457*
Y06143D02*
Y06238D01*
X0941Y06143D02*
X09457D01*
X0785Y05462D02*
X07937D01*
Y05419D02*
Y05462D01*
X0785Y05419D02*
X07937D01*
X0785D02*
Y05462D01*
X07916Y07086D02*
X08671D01*
Y06052D02*
Y07086D01*
X07916Y06052D02*
X08671D01*
X07916D02*
Y07086D01*
G54D12*
X06543Y06315D02*
X06524D01*
Y06285*
X06543*
X06524Y063D02*
X06534D01*
X06553Y06285D02*
Y06315D01*
X06573Y06285*
Y06315*
X06524Y06186D02*
Y06215D01*
X06534Y06205*
X06543Y06215*
Y06186*
X06573Y0621D02*
X06568Y06215D01*
X06558*
X06553Y0621*
Y06205*
X06558Y062*
X06568*
X06573Y06195*
Y0619*
X06568Y06186*
X06558*
X06553Y0619*
X06583Y06186D02*
X06593D01*
X06588*
Y06215*
X06583Y0621*
X06524Y06086D02*
Y06115D01*
X06534Y06105*
X06543Y06115*
Y06086*
X06573Y0611D02*
X06568Y06115D01*
X06558*
X06553Y0611*
Y06105*
X06558Y061*
X06568*
X06573Y06095*
Y0609*
X06568Y06086*
X06558*
X06553Y0609*
X06603Y06086D02*
X06583D01*
X06603Y06105*
Y0611*
X06598Y06115*
X06588*
X06583Y0611*
X06524Y05985D02*
Y06015D01*
X06534Y06005*
X06543Y06015*
Y05985*
X06573Y0601D02*
X06568Y06015D01*
X06558*
X06553Y0601*
Y06005*
X06558Y06*
X06568*
X06573Y05995*
Y0599*
X06568Y05985*
X06558*
X06553Y0599*
X06583Y0601D02*
X06588Y06015D01*
X06598*
X06603Y0601*
Y06005*
X06598Y06*
X06593*
X06598*
X06603Y05995*
Y0599*
X06598Y05985*
X06588*
X06583Y0599*
X06524Y05886D02*
Y05915D01*
X06538*
X06543Y0591*
Y059*
X06538Y05895*
X06524*
X06534D02*
X06543Y05886D01*
X06573Y0591D02*
X06568Y05915D01*
X06558*
X06553Y0591*
Y05905*
X06558Y059*
X06568*
X06573Y05895*
Y0589*
X06568Y05886*
X06558*
X06553Y0589*
X06583Y05915D02*
X06603D01*
X06593*
Y05886*
X06543Y0581D02*
X06538Y05815D01*
X06529*
X06524Y0581*
Y05805*
X06529Y058*
X06538*
X06543Y05795*
Y0579*
X06538Y05785*
X06529*
X06524Y0579*
X06553Y05815D02*
Y05785D01*
X06573*
X06583D02*
Y05815D01*
X06598*
X06603Y0581*
Y058*
X06598Y05795*
X06583*
X06543Y0571D02*
X06538Y05715D01*
X06529*
X06524Y0571*
Y05705*
X06529Y057*
X06538*
X06543Y05695*
Y0569*
X06538Y05686*
X06529*
X06524Y0569*
X06553Y05715D02*
X06573D01*
X06563*
Y05686*
X06603Y05715D02*
X06583D01*
Y05686*
X06603*
X06583Y057D02*
X06593D01*
X06613Y05686D02*
Y05715D01*
X06628*
X06633Y0571*
Y057*
X06628Y05695*
X06613*
X06524Y05615D02*
Y05586D01*
X06538*
X06543Y0559*
Y0561*
X06538Y05615*
X06524*
X06553D02*
X06563D01*
X06558*
Y05586*
X06553*
X06563*
X06578D02*
Y05615D01*
X06593*
X06598Y0561*
Y056*
X06593Y05595*
X06578*
X06588D02*
X06598Y05586D01*
X06794Y06315D02*
Y06295D01*
X06804Y06285*
X06814Y06295*
Y06315*
X06824Y06285D02*
Y06315D01*
X06834Y06305*
X06844Y06315*
Y06285*
X06869Y06315D02*
X06859D01*
X06854Y0631*
Y0629*
X06859Y06285*
X06869*
X06874Y0629*
Y0631*
X06869Y06315*
X06884D02*
X06904D01*
X06894*
Y06285*
X06844Y0621D02*
X06839Y06215D01*
X06829*
X06824Y0621*
Y0619*
X06829Y06186*
X06839*
X06844Y0619*
Y062*
X06834*
X06854Y06186D02*
Y06215D01*
X06874Y06186*
Y06215*
X06884D02*
Y06186D01*
X06899*
X06904Y0619*
Y0621*
X06899Y06215*
X06884*
X06874Y06086D02*
X06854D01*
X06874Y06105*
Y0611*
X06869Y06115*
X06859*
X06854Y0611*
X06884Y06115D02*
Y06086D01*
X06899*
X06904Y0609*
Y06095*
X06899Y061*
X06884*
X06899*
X06904Y06105*
Y0611*
X06899Y06115*
X06884*
X06874Y05985D02*
X06854D01*
X06874Y06005*
Y0601*
X06869Y06015*
X06859*
X06854Y0601*
X06884Y05985D02*
Y06005D01*
X06894Y06015*
X06904Y06005*
Y05985*
Y06*
X06884*
X06859Y05886D02*
X06869D01*
X06864*
Y05915*
X06859Y0591*
X06884Y05886D02*
Y05905D01*
X06894Y05915*
X06904Y05905*
Y05886*
Y059*
X06884*
X06859Y05785D02*
X06869D01*
X06864*
Y05815*
X06859Y0581*
X06884Y05815D02*
Y05785D01*
X06899*
X06904Y0579*
Y05795*
X06899Y058*
X06884*
X06899*
X06904Y05805*
Y0581*
X06899Y05815*
X06884*
X06824Y05715D02*
Y05695D01*
X06834Y05686*
X06844Y05695*
Y05715*
X06854D02*
Y05686D01*
X06869*
X06874Y0569*
Y0571*
X06869Y05715*
X06854*
X06884D02*
Y05686D01*
X06899*
X06904Y0569*
Y0571*
X06899Y05715*
X06884*
X06844Y0561D02*
X06839Y05615D01*
X06829*
X06824Y0561*
Y0559*
X06829Y05586*
X06839*
X06844Y0559*
Y056*
X06834*
X06854Y05586D02*
Y05615D01*
X06874Y05586*
Y05615*
X06884D02*
Y05586D01*
X06899*
X06904Y0559*
Y0561*
X06899Y05615*
X06884*
X09643Y06315D02*
X09624D01*
Y06285*
X09643*
X09624Y063D02*
X09634D01*
X09653Y06285D02*
Y06315D01*
X09673Y06285*
Y06315*
X09624Y06186D02*
Y06215D01*
X09634Y06205*
X09643Y06215*
Y06186*
X09673Y0621D02*
X09668Y06215D01*
X09658*
X09653Y0621*
Y06205*
X09658Y062*
X09668*
X09673Y06195*
Y0619*
X09668Y06186*
X09658*
X09653Y0619*
X09683Y06186D02*
X09693D01*
X09688*
Y06215*
X09683Y0621*
X09624Y06086D02*
Y06115D01*
X09634Y06105*
X09643Y06115*
Y06086*
X09673Y0611D02*
X09668Y06115D01*
X09658*
X09653Y0611*
Y06105*
X09658Y061*
X09668*
X09673Y06095*
Y0609*
X09668Y06086*
X09658*
X09653Y0609*
X09703Y06086D02*
X09683D01*
X09703Y06105*
Y0611*
X09698Y06115*
X09688*
X09683Y0611*
X09624Y05985D02*
Y06015D01*
X09634Y06005*
X09643Y06015*
Y05985*
X09673Y0601D02*
X09668Y06015D01*
X09658*
X09653Y0601*
Y06005*
X09658Y06*
X09668*
X09673Y05995*
Y0599*
X09668Y05985*
X09658*
X09653Y0599*
X09683Y0601D02*
X09688Y06015D01*
X09698*
X09703Y0601*
Y06005*
X09698Y06*
X09693*
X09698*
X09703Y05995*
Y0599*
X09698Y05985*
X09688*
X09683Y0599*
X09624Y05886D02*
Y05915D01*
X09638*
X09643Y0591*
Y059*
X09638Y05895*
X09624*
X09634D02*
X09643Y05886D01*
X09673Y0591D02*
X09668Y05915D01*
X09658*
X09653Y0591*
Y05905*
X09658Y059*
X09668*
X09673Y05895*
Y0589*
X09668Y05886*
X09658*
X09653Y0589*
X09683Y05915D02*
X09703D01*
X09693*
Y05886*
X09643Y0581D02*
X09638Y05815D01*
X09629*
X09624Y0581*
Y05805*
X09629Y058*
X09638*
X09643Y05795*
Y0579*
X09638Y05785*
X09629*
X09624Y0579*
X09653Y05815D02*
Y05785D01*
X09673*
X09683D02*
Y05815D01*
X09698*
X09703Y0581*
Y058*
X09698Y05795*
X09683*
X09643Y0571D02*
X09638Y05715D01*
X09629*
X09624Y0571*
Y05705*
X09629Y057*
X09638*
X09643Y05695*
Y0569*
X09638Y05686*
X09629*
X09624Y0569*
X09653Y05715D02*
X09673D01*
X09663*
Y05686*
X09703Y05715D02*
X09683D01*
Y05686*
X09703*
X09683Y057D02*
X09693D01*
X09713Y05686D02*
Y05715D01*
X09728*
X09733Y0571*
Y057*
X09728Y05695*
X09713*
X09624Y05615D02*
Y05586D01*
X09638*
X09643Y0559*
Y0561*
X09638Y05615*
X09624*
X09653D02*
X09663D01*
X09658*
Y05586*
X09653*
X09663*
X09678D02*
Y05615D01*
X09693*
X09698Y0561*
Y056*
X09693Y05595*
X09678*
X09688D02*
X09698Y05586D01*
X09894Y06315D02*
Y06295D01*
X09904Y06285*
X09914Y06295*
Y06315*
X09924Y06285D02*
Y06315D01*
X09934Y06305*
X09944Y06315*
Y06285*
X09969Y06315D02*
X09959D01*
X09954Y0631*
Y0629*
X09959Y06285*
X09969*
X09974Y0629*
Y0631*
X09969Y06315*
X09984D02*
X10004D01*
X09994*
Y06285*
X09944Y0621D02*
X09939Y06215D01*
X09929*
X09924Y0621*
Y0619*
X09929Y06186*
X09939*
X09944Y0619*
Y062*
X09934*
X09954Y06186D02*
Y06215D01*
X09974Y06186*
Y06215*
X09984D02*
Y06186D01*
X09999*
X10004Y0619*
Y0621*
X09999Y06215*
X09984*
X09974Y06086D02*
X09954D01*
X09974Y06105*
Y0611*
X09969Y06115*
X09959*
X09954Y0611*
X09984Y06115D02*
Y06086D01*
X09999*
X10004Y0609*
Y06095*
X09999Y061*
X09984*
X09999*
X10004Y06105*
Y0611*
X09999Y06115*
X09984*
X09974Y05985D02*
X09954D01*
X09974Y06005*
Y0601*
X09969Y06015*
X09959*
X09954Y0601*
X09984Y05985D02*
Y06005D01*
X09994Y06015*
X10004Y06005*
Y05985*
Y06*
X09984*
X09959Y05886D02*
X09969D01*
X09964*
Y05915*
X09959Y0591*
X09984Y05886D02*
Y05905D01*
X09994Y05915*
X10004Y05905*
Y05886*
Y059*
X09984*
X09959Y05785D02*
X09969D01*
X09964*
Y05815*
X09959Y0581*
X09984Y05815D02*
Y05785D01*
X09999*
X10004Y0579*
Y05795*
X09999Y058*
X09984*
X09999*
X10004Y05805*
Y0581*
X09999Y05815*
X09984*
X09924Y05715D02*
Y05695D01*
X09934Y05686*
X09944Y05695*
Y05715*
X09954D02*
Y05686D01*
X09969*
X09974Y0569*
Y0571*
X09969Y05715*
X09954*
X09984D02*
Y05686D01*
X09999*
X10004Y0569*
Y0571*
X09999Y05715*
X09984*
X09944Y0561D02*
X09939Y05615D01*
X09929*
X09924Y0561*
Y0559*
X09929Y05586*
X09939*
X09944Y0559*
Y056*
X09934*
X09954Y05586D02*
Y05615D01*
X09974Y05586*
Y05615*
X09984D02*
Y05586D01*
X09999*
X10004Y0559*
Y0561*
X09999Y05615*
X09984*
G54D11*
X05173Y08404D02*
Y08499D01*
X0522*
Y08404D02*
Y08499D01*
X05173Y08404D02*
X0522D01*
X03613Y07724D02*
X037D01*
Y07681D02*
Y07724D01*
X03613Y07681D02*
X037D01*
X03613D02*
Y07724D01*
X03679Y09347D02*
X04434D01*
Y08314D02*
Y09347D01*
X03679Y08314D02*
X04434D01*
X03679D02*
Y09347D01*
G54D12*
X02306Y08577D02*
X02286D01*
Y08547*
X02306*
X02286Y08562D02*
X02296D01*
X02316Y08547D02*
Y08577D01*
X02336Y08547*
Y08577*
X02286Y08447D02*
Y08477D01*
X02296Y08467*
X02306Y08477*
Y08447*
X02336Y08472D02*
X02331Y08477D01*
X02321*
X02316Y08472*
Y08467*
X02321Y08462*
X02331*
X02336Y08457*
Y08452*
X02331Y08447*
X02321*
X02316Y08452*
X02346Y08447D02*
X02356D01*
X02351*
Y08477*
X02346Y08472*
X02286Y08348D02*
Y08377D01*
X02296Y08367*
X02306Y08377*
Y08348*
X02336Y08372D02*
X02331Y08377D01*
X02321*
X02316Y08372*
Y08367*
X02321Y08362*
X02331*
X02336Y08357*
Y08352*
X02331Y08348*
X02321*
X02316Y08352*
X02366Y08348D02*
X02346D01*
X02366Y08367*
Y08372*
X02361Y08377*
X02351*
X02346Y08372*
X02286Y08247D02*
Y08277D01*
X02296Y08267*
X02306Y08277*
Y08247*
X02336Y08272D02*
X02331Y08277D01*
X02321*
X02316Y08272*
Y08267*
X02321Y08262*
X02331*
X02336Y08257*
Y08252*
X02331Y08247*
X02321*
X02316Y08252*
X02346Y08272D02*
X02351Y08277D01*
X02361*
X02366Y08272*
Y08267*
X02361Y08262*
X02356*
X02361*
X02366Y08257*
Y08252*
X02361Y08247*
X02351*
X02346Y08252*
X02286Y08148D02*
Y08177D01*
X02301*
X02306Y08172*
Y08162*
X02301Y08157*
X02286*
X02296D02*
X02306Y08148D01*
X02336Y08172D02*
X02331Y08177D01*
X02321*
X02316Y08172*
Y08167*
X02321Y08162*
X02331*
X02336Y08157*
Y08152*
X02331Y08148*
X02321*
X02316Y08152*
X02346Y08177D02*
X02366D01*
X02356*
Y08148*
X02306Y08072D02*
X02301Y08077D01*
X02291*
X02286Y08072*
Y08067*
X02291Y08062*
X02301*
X02306Y08057*
Y08052*
X02301Y08047*
X02291*
X02286Y08052*
X02316Y08077D02*
Y08047D01*
X02336*
X02346D02*
Y08077D01*
X02361*
X02366Y08072*
Y08062*
X02361Y08057*
X02346*
X02306Y07972D02*
X02301Y07977D01*
X02291*
X02286Y07972*
Y07967*
X02291Y07962*
X02301*
X02306Y07957*
Y07952*
X02301Y07948*
X02291*
X02286Y07952*
X02316Y07977D02*
X02336D01*
X02326*
Y07948*
X02366Y07977D02*
X02346D01*
Y07948*
X02366*
X02346Y07962D02*
X02356D01*
X02376Y07948D02*
Y07977D01*
X02391*
X02396Y07972*
Y07962*
X02391Y07957*
X02376*
X02286Y07877D02*
Y07848D01*
X02301*
X02306Y07852*
Y07872*
X02301Y07877*
X02286*
X02316D02*
X02326D01*
X02321*
Y07848*
X02316*
X02326*
X02341D02*
Y07877D01*
X02356*
X02361Y07872*
Y07862*
X02356Y07857*
X02341*
X02351D02*
X02361Y07848D01*
X02557Y08577D02*
Y08557D01*
X02567Y08547*
X02577Y08557*
Y08577*
X02587Y08547D02*
Y08577D01*
X02597Y08567*
X02607Y08577*
Y08547*
X02632Y08577D02*
X02622D01*
X02617Y08572*
Y08552*
X02622Y08547*
X02632*
X02637Y08552*
Y08572*
X02632Y08577*
X02647D02*
X02666D01*
X02656*
Y08547*
X02607Y08472D02*
X02602Y08477D01*
X02592*
X02587Y08472*
Y08452*
X02592Y08447*
X02602*
X02607Y08452*
Y08462*
X02597*
X02617Y08447D02*
Y08477D01*
X02637Y08447*
Y08477*
X02647D02*
Y08447D01*
X02661*
X02666Y08452*
Y08472*
X02661Y08477*
X02647*
X02637Y08348D02*
X02617D01*
X02637Y08367*
Y08372*
X02632Y08377*
X02622*
X02617Y08372*
X02647Y08377D02*
Y08348D01*
X02661*
X02666Y08352*
Y08357*
X02661Y08362*
X02647*
X02661*
X02666Y08367*
Y08372*
X02661Y08377*
X02647*
X02637Y08247D02*
X02617D01*
X02637Y08267*
Y08272*
X02632Y08277*
X02622*
X02617Y08272*
X02647Y08247D02*
Y08267D01*
X02656Y08277*
X02666Y08267*
Y08247*
Y08262*
X02647*
X02622Y08148D02*
X02632D01*
X02627*
Y08177*
X02622Y08172*
X02647Y08148D02*
Y08167D01*
X02656Y08177*
X02666Y08167*
Y08148*
Y08162*
X02647*
X02622Y08047D02*
X02632D01*
X02627*
Y08077*
X02622Y08072*
X02647Y08077D02*
Y08047D01*
X02661*
X02666Y08052*
Y08057*
X02661Y08062*
X02647*
X02661*
X02666Y08067*
Y08072*
X02661Y08077*
X02647*
X02587Y07977D02*
Y07957D01*
X02597Y07948*
X02607Y07957*
Y07977*
X02617D02*
Y07948D01*
X02632*
X02637Y07952*
Y07972*
X02632Y07977*
X02617*
X02647D02*
Y07948D01*
X02661*
X02666Y07952*
Y07972*
X02661Y07977*
X02647*
X02607Y07872D02*
X02602Y07877D01*
X02592*
X02587Y07872*
Y07852*
X02592Y07848*
X02602*
X02607Y07852*
Y07862*
X02597*
X02617Y07848D02*
Y07877D01*
X02637Y07848*
Y07877*
X02647D02*
Y07848D01*
X02661*
X02666Y07852*
Y07872*
X02661Y07877*
X02647*
X05406Y08577D02*
X05386D01*
Y08547*
X05406*
X05386Y08562D02*
X05396D01*
X05416Y08547D02*
Y08577D01*
X05436Y08547*
Y08577*
X05386Y08447D02*
Y08477D01*
X05396Y08467*
X05406Y08477*
Y08447*
X05436Y08472D02*
X05431Y08477D01*
X05421*
X05416Y08472*
Y08467*
X05421Y08462*
X05431*
X05436Y08457*
Y08452*
X05431Y08447*
X05421*
X05416Y08452*
X05446Y08447D02*
X05456D01*
X05451*
Y08477*
X05446Y08472*
X05386Y08348D02*
Y08377D01*
X05396Y08367*
X05406Y08377*
Y08348*
X05436Y08372D02*
X05431Y08377D01*
X05421*
X05416Y08372*
Y08367*
X05421Y08362*
X05431*
X05436Y08357*
Y08352*
X05431Y08348*
X05421*
X05416Y08352*
X05466Y08348D02*
X05446D01*
X05466Y08367*
Y08372*
X05461Y08377*
X05451*
X05446Y08372*
X05386Y08247D02*
Y08277D01*
X05396Y08267*
X05406Y08277*
Y08247*
X05436Y08272D02*
X05431Y08277D01*
X05421*
X05416Y08272*
Y08267*
X05421Y08262*
X05431*
X05436Y08257*
Y08252*
X05431Y08247*
X05421*
X05416Y08252*
X05446Y08272D02*
X05451Y08277D01*
X05461*
X05466Y08272*
Y08267*
X05461Y08262*
X05456*
X05461*
X05466Y08257*
Y08252*
X05461Y08247*
X05451*
X05446Y08252*
X05386Y08148D02*
Y08177D01*
X05401*
X05406Y08172*
Y08162*
X05401Y08157*
X05386*
X05396D02*
X05406Y08148D01*
X05436Y08172D02*
X05431Y08177D01*
X05421*
X05416Y08172*
Y08167*
X05421Y08162*
X05431*
X05436Y08157*
Y08152*
X05431Y08148*
X05421*
X05416Y08152*
X05446Y08177D02*
X05466D01*
X05456*
Y08148*
X05406Y08072D02*
X05401Y08077D01*
X05391*
X05386Y08072*
Y08067*
X05391Y08062*
X05401*
X05406Y08057*
Y08052*
X05401Y08047*
X05391*
X05386Y08052*
X05416Y08077D02*
Y08047D01*
X05436*
X05446D02*
Y08077D01*
X05461*
X05466Y08072*
Y08062*
X05461Y08057*
X05446*
X05406Y07972D02*
X05401Y07977D01*
X05391*
X05386Y07972*
Y07967*
X05391Y07962*
X05401*
X05406Y07957*
Y07952*
X05401Y07948*
X05391*
X05386Y07952*
X05416Y07977D02*
X05436D01*
X05426*
Y07948*
X05466Y07977D02*
X05446D01*
Y07948*
X05466*
X05446Y07962D02*
X05456D01*
X05476Y07948D02*
Y07977D01*
X05491*
X05496Y07972*
Y07962*
X05491Y07957*
X05476*
X05386Y07877D02*
Y07848D01*
X05401*
X05406Y07852*
Y07872*
X05401Y07877*
X05386*
X05416D02*
X05426D01*
X05421*
Y07848*
X05416*
X05426*
X05441D02*
Y07877D01*
X05456*
X05461Y07872*
Y07862*
X05456Y07857*
X05441*
X05451D02*
X05461Y07848D01*
X05657Y08577D02*
Y08557D01*
X05667Y08547*
X05677Y08557*
Y08577*
X05687Y08547D02*
Y08577D01*
X05697Y08567*
X05707Y08577*
Y08547*
X05732Y08577D02*
X05722D01*
X05717Y08572*
Y08552*
X05722Y08547*
X05732*
X05737Y08552*
Y08572*
X05732Y08577*
X05747D02*
X05766D01*
X05756*
Y08547*
X05707Y08472D02*
X05702Y08477D01*
X05692*
X05687Y08472*
Y08452*
X05692Y08447*
X05702*
X05707Y08452*
Y08462*
X05697*
X05717Y08447D02*
Y08477D01*
X05737Y08447*
Y08477*
X05747D02*
Y08447D01*
X05761*
X05766Y08452*
Y08472*
X05761Y08477*
X05747*
X05737Y08348D02*
X05717D01*
X05737Y08367*
Y08372*
X05732Y08377*
X05722*
X05717Y08372*
X05747Y08377D02*
Y08348D01*
X05761*
X05766Y08352*
Y08357*
X05761Y08362*
X05747*
X05761*
X05766Y08367*
Y08372*
X05761Y08377*
X05747*
X05737Y08247D02*
X05717D01*
X05737Y08267*
Y08272*
X05732Y08277*
X05722*
X05717Y08272*
X05747Y08247D02*
Y08267D01*
X05756Y08277*
X05766Y08267*
Y08247*
Y08262*
X05747*
X05722Y08148D02*
X05732D01*
X05727*
Y08177*
X05722Y08172*
X05747Y08148D02*
Y08167D01*
X05756Y08177*
X05766Y08167*
Y08148*
Y08162*
X05747*
X05722Y08047D02*
X05732D01*
X05727*
Y08077*
X05722Y08072*
X05747Y08077D02*
Y08047D01*
X05761*
X05766Y08052*
Y08057*
X05761Y08062*
X05747*
X05761*
X05766Y08067*
Y08072*
X05761Y08077*
X05747*
X05687Y07977D02*
Y07957D01*
X05697Y07948*
X05707Y07957*
Y07977*
X05717D02*
Y07948D01*
X05732*
X05737Y07952*
Y07972*
X05732Y07977*
X05717*
X05747D02*
Y07948D01*
X05761*
X05766Y07952*
Y07972*
X05761Y07977*
X05747*
X05707Y07872D02*
X05702Y07877D01*
X05692*
X05687Y07872*
Y07852*
X05692Y07848*
X05702*
X05707Y07852*
Y07862*
X05697*
X05717Y07848D02*
Y07877D01*
X05737Y07848*
Y07877*
X05747D02*
Y07848D01*
X05761*
X05766Y07852*
Y07872*
X05761Y07877*
X05747*
G54D11*
X0941Y08404D02*
Y08499D01*
X09457*
Y08404D02*
Y08499D01*
X0941Y08404D02*
X09457D01*
X0785Y07724D02*
X07937D01*
Y07681D02*
Y07724D01*
X0785Y07681D02*
X07937D01*
X0785D02*
Y07724D01*
X07916Y09347D02*
X08671D01*
Y08314D02*
Y09347D01*
X07916Y08314D02*
X08671D01*
X07916D02*
Y09347D01*
G54D12*
X06543Y08577D02*
X06524D01*
Y08547*
X06543*
X06524Y08562D02*
X06534D01*
X06553Y08547D02*
Y08577D01*
X06573Y08547*
Y08577*
X06524Y08447D02*
Y08477D01*
X06534Y08467*
X06543Y08477*
Y08447*
X06573Y08472D02*
X06568Y08477D01*
X06558*
X06553Y08472*
Y08467*
X06558Y08462*
X06568*
X06573Y08457*
Y08452*
X06568Y08447*
X06558*
X06553Y08452*
X06583Y08447D02*
X06593D01*
X06588*
Y08477*
X06583Y08472*
X06524Y08348D02*
Y08377D01*
X06534Y08367*
X06543Y08377*
Y08348*
X06573Y08372D02*
X06568Y08377D01*
X06558*
X06553Y08372*
Y08367*
X06558Y08362*
X06568*
X06573Y08357*
Y08352*
X06568Y08348*
X06558*
X06553Y08352*
X06603Y08348D02*
X06583D01*
X06603Y08367*
Y08372*
X06598Y08377*
X06588*
X06583Y08372*
X06524Y08247D02*
Y08277D01*
X06534Y08267*
X06543Y08277*
Y08247*
X06573Y08272D02*
X06568Y08277D01*
X06558*
X06553Y08272*
Y08267*
X06558Y08262*
X06568*
X06573Y08257*
Y08252*
X06568Y08247*
X06558*
X06553Y08252*
X06583Y08272D02*
X06588Y08277D01*
X06598*
X06603Y08272*
Y08267*
X06598Y08262*
X06593*
X06598*
X06603Y08257*
Y08252*
X06598Y08247*
X06588*
X06583Y08252*
X06524Y08148D02*
Y08177D01*
X06538*
X06543Y08172*
Y08162*
X06538Y08157*
X06524*
X06534D02*
X06543Y08148D01*
X06573Y08172D02*
X06568Y08177D01*
X06558*
X06553Y08172*
Y08167*
X06558Y08162*
X06568*
X06573Y08157*
Y08152*
X06568Y08148*
X06558*
X06553Y08152*
X06583Y08177D02*
X06603D01*
X06593*
Y08148*
X06543Y08072D02*
X06538Y08077D01*
X06529*
X06524Y08072*
Y08067*
X06529Y08062*
X06538*
X06543Y08057*
Y08052*
X06538Y08047*
X06529*
X06524Y08052*
X06553Y08077D02*
Y08047D01*
X06573*
X06583D02*
Y08077D01*
X06598*
X06603Y08072*
Y08062*
X06598Y08057*
X06583*
X06543Y07972D02*
X06538Y07977D01*
X06529*
X06524Y07972*
Y07967*
X06529Y07962*
X06538*
X06543Y07957*
Y07952*
X06538Y07948*
X06529*
X06524Y07952*
X06553Y07977D02*
X06573D01*
X06563*
Y07948*
X06603Y07977D02*
X06583D01*
Y07948*
X06603*
X06583Y07962D02*
X06593D01*
X06613Y07948D02*
Y07977D01*
X06628*
X06633Y07972*
Y07962*
X06628Y07957*
X06613*
X06524Y07877D02*
Y07848D01*
X06538*
X06543Y07852*
Y07872*
X06538Y07877*
X06524*
X06553D02*
X06563D01*
X06558*
Y07848*
X06553*
X06563*
X06578D02*
Y07877D01*
X06593*
X06598Y07872*
Y07862*
X06593Y07857*
X06578*
X06588D02*
X06598Y07848D01*
X06794Y08577D02*
Y08557D01*
X06804Y08547*
X06814Y08557*
Y08577*
X06824Y08547D02*
Y08577D01*
X06834Y08567*
X06844Y08577*
Y08547*
X06869Y08577D02*
X06859D01*
X06854Y08572*
Y08552*
X06859Y08547*
X06869*
X06874Y08552*
Y08572*
X06869Y08577*
X06884D02*
X06904D01*
X06894*
Y08547*
X06844Y08472D02*
X06839Y08477D01*
X06829*
X06824Y08472*
Y08452*
X06829Y08447*
X06839*
X06844Y08452*
Y08462*
X06834*
X06854Y08447D02*
Y08477D01*
X06874Y08447*
Y08477*
X06884D02*
Y08447D01*
X06899*
X06904Y08452*
Y08472*
X06899Y08477*
X06884*
X06874Y08348D02*
X06854D01*
X06874Y08367*
Y08372*
X06869Y08377*
X06859*
X06854Y08372*
X06884Y08377D02*
Y08348D01*
X06899*
X06904Y08352*
Y08357*
X06899Y08362*
X06884*
X06899*
X06904Y08367*
Y08372*
X06899Y08377*
X06884*
X06874Y08247D02*
X06854D01*
X06874Y08267*
Y08272*
X06869Y08277*
X06859*
X06854Y08272*
X06884Y08247D02*
Y08267D01*
X06894Y08277*
X06904Y08267*
Y08247*
Y08262*
X06884*
X06859Y08148D02*
X06869D01*
X06864*
Y08177*
X06859Y08172*
X06884Y08148D02*
Y08167D01*
X06894Y08177*
X06904Y08167*
Y08148*
Y08162*
X06884*
X06859Y08047D02*
X06869D01*
X06864*
Y08077*
X06859Y08072*
X06884Y08077D02*
Y08047D01*
X06899*
X06904Y08052*
Y08057*
X06899Y08062*
X06884*
X06899*
X06904Y08067*
Y08072*
X06899Y08077*
X06884*
X06824Y07977D02*
Y07957D01*
X06834Y07948*
X06844Y07957*
Y07977*
X06854D02*
Y07948D01*
X06869*
X06874Y07952*
Y07972*
X06869Y07977*
X06854*
X06884D02*
Y07948D01*
X06899*
X06904Y07952*
Y07972*
X06899Y07977*
X06884*
X06844Y07872D02*
X06839Y07877D01*
X06829*
X06824Y07872*
Y07852*
X06829Y07848*
X06839*
X06844Y07852*
Y07862*
X06834*
X06854Y07848D02*
Y07877D01*
X06874Y07848*
Y07877*
X06884D02*
Y07848D01*
X06899*
X06904Y07852*
Y07872*
X06899Y07877*
X06884*
X09643Y08577D02*
X09624D01*
Y08547*
X09643*
X09624Y08562D02*
X09634D01*
X09653Y08547D02*
Y08577D01*
X09673Y08547*
Y08577*
X09624Y08447D02*
Y08477D01*
X09634Y08467*
X09643Y08477*
Y08447*
X09673Y08472D02*
X09668Y08477D01*
X09658*
X09653Y08472*
Y08467*
X09658Y08462*
X09668*
X09673Y08457*
Y08452*
X09668Y08447*
X09658*
X09653Y08452*
X09683Y08447D02*
X09693D01*
X09688*
Y08477*
X09683Y08472*
X09624Y08348D02*
Y08377D01*
X09634Y08367*
X09643Y08377*
Y08348*
X09673Y08372D02*
X09668Y08377D01*
X09658*
X09653Y08372*
Y08367*
X09658Y08362*
X09668*
X09673Y08357*
Y08352*
X09668Y08348*
X09658*
X09653Y08352*
X09703Y08348D02*
X09683D01*
X09703Y08367*
Y08372*
X09698Y08377*
X09688*
X09683Y08372*
X09624Y08247D02*
Y08277D01*
X09634Y08267*
X09643Y08277*
Y08247*
X09673Y08272D02*
X09668Y08277D01*
X09658*
X09653Y08272*
Y08267*
X09658Y08262*
X09668*
X09673Y08257*
Y08252*
X09668Y08247*
X09658*
X09653Y08252*
X09683Y08272D02*
X09688Y08277D01*
X09698*
X09703Y08272*
Y08267*
X09698Y08262*
X09693*
X09698*
X09703Y08257*
Y08252*
X09698Y08247*
X09688*
X09683Y08252*
X09624Y08148D02*
Y08177D01*
X09638*
X09643Y08172*
Y08162*
X09638Y08157*
X09624*
X09634D02*
X09643Y08148D01*
X09673Y08172D02*
X09668Y08177D01*
X09658*
X09653Y08172*
Y08167*
X09658Y08162*
X09668*
X09673Y08157*
Y08152*
X09668Y08148*
X09658*
X09653Y08152*
X09683Y08177D02*
X09703D01*
X09693*
Y08148*
X09643Y08072D02*
X09638Y08077D01*
X09629*
X09624Y08072*
Y08067*
X09629Y08062*
X09638*
X09643Y08057*
Y08052*
X09638Y08047*
X09629*
X09624Y08052*
X09653Y08077D02*
Y08047D01*
X09673*
X09683D02*
Y08077D01*
X09698*
X09703Y08072*
Y08062*
X09698Y08057*
X09683*
X09643Y07972D02*
X09638Y07977D01*
X09629*
X09624Y07972*
Y07967*
X09629Y07962*
X09638*
X09643Y07957*
Y07952*
X09638Y07948*
X09629*
X09624Y07952*
X09653Y07977D02*
X09673D01*
X09663*
Y07948*
X09703Y07977D02*
X09683D01*
Y07948*
X09703*
X09683Y07962D02*
X09693D01*
X09713Y07948D02*
Y07977D01*
X09728*
X09733Y07972*
Y07962*
X09728Y07957*
X09713*
X09624Y07877D02*
Y07848D01*
X09638*
X09643Y07852*
Y07872*
X09638Y07877*
X09624*
X09653D02*
X09663D01*
X09658*
Y07848*
X09653*
X09663*
X09678D02*
Y07877D01*
X09693*
X09698Y07872*
Y07862*
X09693Y07857*
X09678*
X09688D02*
X09698Y07848D01*
X09894Y08577D02*
Y08557D01*
X09904Y08547*
X09914Y08557*
Y08577*
X09924Y08547D02*
Y08577D01*
X09934Y08567*
X09944Y08577*
Y08547*
X09969Y08577D02*
X09959D01*
X09954Y08572*
Y08552*
X09959Y08547*
X09969*
X09974Y08552*
Y08572*
X09969Y08577*
X09984D02*
X10004D01*
X09994*
Y08547*
X09944Y08472D02*
X09939Y08477D01*
X09929*
X09924Y08472*
Y08452*
X09929Y08447*
X09939*
X09944Y08452*
Y08462*
X09934*
X09954Y08447D02*
Y08477D01*
X09974Y08447*
Y08477*
X09984D02*
Y08447D01*
X09999*
X10004Y08452*
Y08472*
X09999Y08477*
X09984*
X09974Y08348D02*
X09954D01*
X09974Y08367*
Y08372*
X09969Y08377*
X09959*
X09954Y08372*
X09984Y08377D02*
Y08348D01*
X09999*
X10004Y08352*
Y08357*
X09999Y08362*
X09984*
X09999*
X10004Y08367*
Y08372*
X09999Y08377*
X09984*
X09974Y08247D02*
X09954D01*
X09974Y08267*
Y08272*
X09969Y08277*
X09959*
X09954Y08272*
X09984Y08247D02*
Y08267D01*
X09994Y08277*
X10004Y08267*
Y08247*
Y08262*
X09984*
X09959Y08148D02*
X09969D01*
X09964*
Y08177*
X09959Y08172*
X09984Y08148D02*
Y08167D01*
X09994Y08177*
X10004Y08167*
Y08148*
Y08162*
X09984*
X09959Y08047D02*
X09969D01*
X09964*
Y08077*
X09959Y08072*
X09984Y08077D02*
Y08047D01*
X09999*
X10004Y08052*
Y08057*
X09999Y08062*
X09984*
X09999*
X10004Y08067*
Y08072*
X09999Y08077*
X09984*
X09924Y07977D02*
Y07957D01*
X09934Y07948*
X09944Y07957*
Y07977*
X09954D02*
Y07948D01*
X09969*
X09974Y07952*
Y07972*
X09969Y07977*
X09954*
X09984D02*
Y07948D01*
X09999*
X10004Y07952*
Y07972*
X09999Y07977*
X09984*
X09944Y07872D02*
X09939Y07877D01*
X09929*
X09924Y07872*
Y07852*
X09929Y07848*
X09939*
X09944Y07852*
Y07862*
X09934*
X09954Y07848D02*
Y07877D01*
X09974Y07848*
Y07877*
X09984D02*
Y07848D01*
X09999*
X10004Y07852*
Y07872*
X09999Y07877*
X09984*
G54D11*
X05173Y10666D02*
Y10761D01*
X0522*
Y10666D02*
Y10761D01*
X05173Y10666D02*
X0522D01*
X03613Y09985D02*
X037D01*
Y09942D02*
Y09985D01*
X03613Y09942D02*
X037D01*
X03613D02*
Y09985D01*
X03679Y11609D02*
X04434D01*
Y10575D02*
Y11609D01*
X03679Y10575D02*
X04434D01*
X03679D02*
Y11609D01*
G54D12*
X02306Y10839D02*
X02286D01*
Y10809*
X02306*
X02286Y10824D02*
X02296D01*
X02316Y10809D02*
Y10839D01*
X02336Y10809*
Y10839*
X02286Y10709D02*
Y10739D01*
X02296Y10729*
X02306Y10739*
Y10709*
X02336Y10734D02*
X02331Y10739D01*
X02321*
X02316Y10734*
Y10729*
X02321Y10724*
X02331*
X02336Y10719*
Y10714*
X02331Y10709*
X02321*
X02316Y10714*
X02346Y10709D02*
X02356D01*
X02351*
Y10739*
X02346Y10734*
X02286Y10609D02*
Y10639D01*
X02296Y10629*
X02306Y10639*
Y10609*
X02336Y10634D02*
X02331Y10639D01*
X02321*
X02316Y10634*
Y10629*
X02321Y10624*
X02331*
X02336Y10619*
Y10614*
X02331Y10609*
X02321*
X02316Y10614*
X02366Y10609D02*
X02346D01*
X02366Y10629*
Y10634*
X02361Y10639*
X02351*
X02346Y10634*
X02286Y10509D02*
Y10538D01*
X02296Y10529*
X02306Y10538*
Y10509*
X02336Y10534D02*
X02331Y10538D01*
X02321*
X02316Y10534*
Y10529*
X02321Y10524*
X02331*
X02336Y10519*
Y10514*
X02331Y10509*
X02321*
X02316Y10514*
X02346Y10534D02*
X02351Y10538D01*
X02361*
X02366Y10534*
Y10529*
X02361Y10524*
X02356*
X02361*
X02366Y10519*
Y10514*
X02361Y10509*
X02351*
X02346Y10514*
X02286Y10409D02*
Y10439D01*
X02301*
X02306Y10434*
Y10424*
X02301Y10419*
X02286*
X02296D02*
X02306Y10409D01*
X02336Y10434D02*
X02331Y10439D01*
X02321*
X02316Y10434*
Y10429*
X02321Y10424*
X02331*
X02336Y10419*
Y10414*
X02331Y10409*
X02321*
X02316Y10414*
X02346Y10439D02*
X02366D01*
X02356*
Y10409*
X02306Y10334D02*
X02301Y10339D01*
X02291*
X02286Y10334*
Y10329*
X02291Y10324*
X02301*
X02306Y10319*
Y10314*
X02301Y10309*
X02291*
X02286Y10314*
X02316Y10339D02*
Y10309D01*
X02336*
X02346D02*
Y10339D01*
X02361*
X02366Y10334*
Y10324*
X02361Y10319*
X02346*
X02306Y10234D02*
X02301Y10238D01*
X02291*
X02286Y10234*
Y10229*
X02291Y10224*
X02301*
X02306Y10219*
Y10214*
X02301Y10209*
X02291*
X02286Y10214*
X02316Y10238D02*
X02336D01*
X02326*
Y10209*
X02366Y10238D02*
X02346D01*
Y10209*
X02366*
X02346Y10224D02*
X02356D01*
X02376Y10209D02*
Y10238D01*
X02391*
X02396Y10234*
Y10224*
X02391Y10219*
X02376*
X02286Y10139D02*
Y10109D01*
X02301*
X02306Y10114*
Y10134*
X02301Y10139*
X02286*
X02316D02*
X02326D01*
X02321*
Y10109*
X02316*
X02326*
X02341D02*
Y10139D01*
X02356*
X02361Y10134*
Y10124*
X02356Y10119*
X02341*
X02351D02*
X02361Y10109D01*
X02557Y10839D02*
Y10819D01*
X02567Y10809*
X02577Y10819*
Y10839*
X02587Y10809D02*
Y10839D01*
X02597Y10829*
X02607Y10839*
Y10809*
X02632Y10839D02*
X02622D01*
X02617Y10834*
Y10814*
X02622Y10809*
X02632*
X02637Y10814*
Y10834*
X02632Y10839*
X02647D02*
X02666D01*
X02656*
Y10809*
X02607Y10734D02*
X02602Y10739D01*
X02592*
X02587Y10734*
Y10714*
X02592Y10709*
X02602*
X02607Y10714*
Y10724*
X02597*
X02617Y10709D02*
Y10739D01*
X02637Y10709*
Y10739*
X02647D02*
Y10709D01*
X02661*
X02666Y10714*
Y10734*
X02661Y10739*
X02647*
X02637Y10609D02*
X02617D01*
X02637Y10629*
Y10634*
X02632Y10639*
X02622*
X02617Y10634*
X02647Y10639D02*
Y10609D01*
X02661*
X02666Y10614*
Y10619*
X02661Y10624*
X02647*
X02661*
X02666Y10629*
Y10634*
X02661Y10639*
X02647*
X02637Y10509D02*
X02617D01*
X02637Y10529*
Y10534*
X02632Y10538*
X02622*
X02617Y10534*
X02647Y10509D02*
Y10529D01*
X02656Y10538*
X02666Y10529*
Y10509*
Y10524*
X02647*
X02622Y10409D02*
X02632D01*
X02627*
Y10439*
X02622Y10434*
X02647Y10409D02*
Y10429D01*
X02656Y10439*
X02666Y10429*
Y10409*
Y10424*
X02647*
X02622Y10309D02*
X02632D01*
X02627*
Y10339*
X02622Y10334*
X02647Y10339D02*
Y10309D01*
X02661*
X02666Y10314*
Y10319*
X02661Y10324*
X02647*
X02661*
X02666Y10329*
Y10334*
X02661Y10339*
X02647*
X02587Y10238D02*
Y10219D01*
X02597Y10209*
X02607Y10219*
Y10238*
X02617D02*
Y10209D01*
X02632*
X02637Y10214*
Y10234*
X02632Y10238*
X02617*
X02647D02*
Y10209D01*
X02661*
X02666Y10214*
Y10234*
X02661Y10238*
X02647*
X02607Y10134D02*
X02602Y10139D01*
X02592*
X02587Y10134*
Y10114*
X02592Y10109*
X02602*
X02607Y10114*
Y10124*
X02597*
X02617Y10109D02*
Y10139D01*
X02637Y10109*
Y10139*
X02647D02*
Y10109D01*
X02661*
X02666Y10114*
Y10134*
X02661Y10139*
X02647*
X05406Y10839D02*
X05386D01*
Y10809*
X05406*
X05386Y10824D02*
X05396D01*
X05416Y10809D02*
Y10839D01*
X05436Y10809*
Y10839*
X05386Y10709D02*
Y10739D01*
X05396Y10729*
X05406Y10739*
Y10709*
X05436Y10734D02*
X05431Y10739D01*
X05421*
X05416Y10734*
Y10729*
X05421Y10724*
X05431*
X05436Y10719*
Y10714*
X05431Y10709*
X05421*
X05416Y10714*
X05446Y10709D02*
X05456D01*
X05451*
Y10739*
X05446Y10734*
X05386Y10609D02*
Y10639D01*
X05396Y10629*
X05406Y10639*
Y10609*
X05436Y10634D02*
X05431Y10639D01*
X05421*
X05416Y10634*
Y10629*
X05421Y10624*
X05431*
X05436Y10619*
Y10614*
X05431Y10609*
X05421*
X05416Y10614*
X05466Y10609D02*
X05446D01*
X05466Y10629*
Y10634*
X05461Y10639*
X05451*
X05446Y10634*
X05386Y10509D02*
Y10538D01*
X05396Y10529*
X05406Y10538*
Y10509*
X05436Y10534D02*
X05431Y10538D01*
X05421*
X05416Y10534*
Y10529*
X05421Y10524*
X05431*
X05436Y10519*
Y10514*
X05431Y10509*
X05421*
X05416Y10514*
X05446Y10534D02*
X05451Y10538D01*
X05461*
X05466Y10534*
Y10529*
X05461Y10524*
X05456*
X05461*
X05466Y10519*
Y10514*
X05461Y10509*
X05451*
X05446Y10514*
X05386Y10409D02*
Y10439D01*
X05401*
X05406Y10434*
Y10424*
X05401Y10419*
X05386*
X05396D02*
X05406Y10409D01*
X05436Y10434D02*
X05431Y10439D01*
X05421*
X05416Y10434*
Y10429*
X05421Y10424*
X05431*
X05436Y10419*
Y10414*
X05431Y10409*
X05421*
X05416Y10414*
X05446Y10439D02*
X05466D01*
X05456*
Y10409*
X05406Y10334D02*
X05401Y10339D01*
X05391*
X05386Y10334*
Y10329*
X05391Y10324*
X05401*
X05406Y10319*
Y10314*
X05401Y10309*
X05391*
X05386Y10314*
X05416Y10339D02*
Y10309D01*
X05436*
X05446D02*
Y10339D01*
X05461*
X05466Y10334*
Y10324*
X05461Y10319*
X05446*
X05406Y10234D02*
X05401Y10238D01*
X05391*
X05386Y10234*
Y10229*
X05391Y10224*
X05401*
X05406Y10219*
Y10214*
X05401Y10209*
X05391*
X05386Y10214*
X05416Y10238D02*
X05436D01*
X05426*
Y10209*
X05466Y10238D02*
X05446D01*
Y10209*
X05466*
X05446Y10224D02*
X05456D01*
X05476Y10209D02*
Y10238D01*
X05491*
X05496Y10234*
Y10224*
X05491Y10219*
X05476*
X05386Y10139D02*
Y10109D01*
X05401*
X05406Y10114*
Y10134*
X05401Y10139*
X05386*
X05416D02*
X05426D01*
X05421*
Y10109*
X05416*
X05426*
X05441D02*
Y10139D01*
X05456*
X05461Y10134*
Y10124*
X05456Y10119*
X05441*
X05451D02*
X05461Y10109D01*
X05657Y10839D02*
Y10819D01*
X05667Y10809*
X05677Y10819*
Y10839*
X05687Y10809D02*
Y10839D01*
X05697Y10829*
X05707Y10839*
Y10809*
X05732Y10839D02*
X05722D01*
X05717Y10834*
Y10814*
X05722Y10809*
X05732*
X05737Y10814*
Y10834*
X05732Y10839*
X05747D02*
X05766D01*
X05756*
Y10809*
X05707Y10734D02*
X05702Y10739D01*
X05692*
X05687Y10734*
Y10714*
X05692Y10709*
X05702*
X05707Y10714*
Y10724*
X05697*
X05717Y10709D02*
Y10739D01*
X05737Y10709*
Y10739*
X05747D02*
Y10709D01*
X05761*
X05766Y10714*
Y10734*
X05761Y10739*
X05747*
X05737Y10609D02*
X05717D01*
X05737Y10629*
Y10634*
X05732Y10639*
X05722*
X05717Y10634*
X05747Y10639D02*
Y10609D01*
X05761*
X05766Y10614*
Y10619*
X05761Y10624*
X05747*
X05761*
X05766Y10629*
Y10634*
X05761Y10639*
X05747*
X05737Y10509D02*
X05717D01*
X05737Y10529*
Y10534*
X05732Y10538*
X05722*
X05717Y10534*
X05747Y10509D02*
Y10529D01*
X05756Y10538*
X05766Y10529*
Y10509*
Y10524*
X05747*
X05722Y10409D02*
X05732D01*
X05727*
Y10439*
X05722Y10434*
X05747Y10409D02*
Y10429D01*
X05756Y10439*
X05766Y10429*
Y10409*
Y10424*
X05747*
X05722Y10309D02*
X05732D01*
X05727*
Y10339*
X05722Y10334*
X05747Y10339D02*
Y10309D01*
X05761*
X05766Y10314*
Y10319*
X05761Y10324*
X05747*
X05761*
X05766Y10329*
Y10334*
X05761Y10339*
X05747*
X05687Y10238D02*
Y10219D01*
X05697Y10209*
X05707Y10219*
Y10238*
X05717D02*
Y10209D01*
X05732*
X05737Y10214*
Y10234*
X05732Y10238*
X05717*
X05747D02*
Y10209D01*
X05761*
X05766Y10214*
Y10234*
X05761Y10238*
X05747*
X05707Y10134D02*
X05702Y10139D01*
X05692*
X05687Y10134*
Y10114*
X05692Y10109*
X05702*
X05707Y10114*
Y10124*
X05697*
X05717Y10109D02*
Y10139D01*
X05737Y10109*
Y10139*
X05747D02*
Y10109D01*
X05761*
X05766Y10114*
Y10134*
X05761Y10139*
X05747*
G54D11*
X0941Y10666D02*
Y10761D01*
X09457*
Y10666D02*
Y10761D01*
X0941Y10666D02*
X09457D01*
X0785Y09985D02*
X07937D01*
Y09942D02*
Y09985D01*
X0785Y09942D02*
X07937D01*
X0785D02*
Y09985D01*
X07916Y11609D02*
X08671D01*
Y10575D02*
Y11609D01*
X07916Y10575D02*
X08671D01*
X07916D02*
Y11609D01*
G54D12*
X06543Y10839D02*
X06524D01*
Y10809*
X06543*
X06524Y10824D02*
X06534D01*
X06553Y10809D02*
Y10839D01*
X06573Y10809*
Y10839*
X06524Y10709D02*
Y10739D01*
X06534Y10729*
X06543Y10739*
Y10709*
X06573Y10734D02*
X06568Y10739D01*
X06558*
X06553Y10734*
Y10729*
X06558Y10724*
X06568*
X06573Y10719*
Y10714*
X06568Y10709*
X06558*
X06553Y10714*
X06583Y10709D02*
X06593D01*
X06588*
Y10739*
X06583Y10734*
X06524Y10609D02*
Y10639D01*
X06534Y10629*
X06543Y10639*
Y10609*
X06573Y10634D02*
X06568Y10639D01*
X06558*
X06553Y10634*
Y10629*
X06558Y10624*
X06568*
X06573Y10619*
Y10614*
X06568Y10609*
X06558*
X06553Y10614*
X06603Y10609D02*
X06583D01*
X06603Y10629*
Y10634*
X06598Y10639*
X06588*
X06583Y10634*
X06524Y10509D02*
Y10538D01*
X06534Y10529*
X06543Y10538*
Y10509*
X06573Y10534D02*
X06568Y10538D01*
X06558*
X06553Y10534*
Y10529*
X06558Y10524*
X06568*
X06573Y10519*
Y10514*
X06568Y10509*
X06558*
X06553Y10514*
X06583Y10534D02*
X06588Y10538D01*
X06598*
X06603Y10534*
Y10529*
X06598Y10524*
X06593*
X06598*
X06603Y10519*
Y10514*
X06598Y10509*
X06588*
X06583Y10514*
X06524Y10409D02*
Y10439D01*
X06538*
X06543Y10434*
Y10424*
X06538Y10419*
X06524*
X06534D02*
X06543Y10409D01*
X06573Y10434D02*
X06568Y10439D01*
X06558*
X06553Y10434*
Y10429*
X06558Y10424*
X06568*
X06573Y10419*
Y10414*
X06568Y10409*
X06558*
X06553Y10414*
X06583Y10439D02*
X06603D01*
X06593*
Y10409*
X06543Y10334D02*
X06538Y10339D01*
X06529*
X06524Y10334*
Y10329*
X06529Y10324*
X06538*
X06543Y10319*
Y10314*
X06538Y10309*
X06529*
X06524Y10314*
X06553Y10339D02*
Y10309D01*
X06573*
X06583D02*
Y10339D01*
X06598*
X06603Y10334*
Y10324*
X06598Y10319*
X06583*
X06543Y10234D02*
X06538Y10238D01*
X06529*
X06524Y10234*
Y10229*
X06529Y10224*
X06538*
X06543Y10219*
Y10214*
X06538Y10209*
X06529*
X06524Y10214*
X06553Y10238D02*
X06573D01*
X06563*
Y10209*
X06603Y10238D02*
X06583D01*
Y10209*
X06603*
X06583Y10224D02*
X06593D01*
X06613Y10209D02*
Y10238D01*
X06628*
X06633Y10234*
Y10224*
X06628Y10219*
X06613*
X06524Y10139D02*
Y10109D01*
X06538*
X06543Y10114*
Y10134*
X06538Y10139*
X06524*
X06553D02*
X06563D01*
X06558*
Y10109*
X06553*
X06563*
X06578D02*
Y10139D01*
X06593*
X06598Y10134*
Y10124*
X06593Y10119*
X06578*
X06588D02*
X06598Y10109D01*
X06794Y10839D02*
Y10819D01*
X06804Y10809*
X06814Y10819*
Y10839*
X06824Y10809D02*
Y10839D01*
X06834Y10829*
X06844Y10839*
Y10809*
X06869Y10839D02*
X06859D01*
X06854Y10834*
Y10814*
X06859Y10809*
X06869*
X06874Y10814*
Y10834*
X06869Y10839*
X06884D02*
X06904D01*
X06894*
Y10809*
X06844Y10734D02*
X06839Y10739D01*
X06829*
X06824Y10734*
Y10714*
X06829Y10709*
X06839*
X06844Y10714*
Y10724*
X06834*
X06854Y10709D02*
Y10739D01*
X06874Y10709*
Y10739*
X06884D02*
Y10709D01*
X06899*
X06904Y10714*
Y10734*
X06899Y10739*
X06884*
X06874Y10609D02*
X06854D01*
X06874Y10629*
Y10634*
X06869Y10639*
X06859*
X06854Y10634*
X06884Y10639D02*
Y10609D01*
X06899*
X06904Y10614*
Y10619*
X06899Y10624*
X06884*
X06899*
X06904Y10629*
Y10634*
X06899Y10639*
X06884*
X06874Y10509D02*
X06854D01*
X06874Y10529*
Y10534*
X06869Y10538*
X06859*
X06854Y10534*
X06884Y10509D02*
Y10529D01*
X06894Y10538*
X06904Y10529*
Y10509*
Y10524*
X06884*
X06859Y10409D02*
X06869D01*
X06864*
Y10439*
X06859Y10434*
X06884Y10409D02*
Y10429D01*
X06894Y10439*
X06904Y10429*
Y10409*
Y10424*
X06884*
X06859Y10309D02*
X06869D01*
X06864*
Y10339*
X06859Y10334*
X06884Y10339D02*
Y10309D01*
X06899*
X06904Y10314*
Y10319*
X06899Y10324*
X06884*
X06899*
X06904Y10329*
Y10334*
X06899Y10339*
X06884*
X06824Y10238D02*
Y10219D01*
X06834Y10209*
X06844Y10219*
Y10238*
X06854D02*
Y10209D01*
X06869*
X06874Y10214*
Y10234*
X06869Y10238*
X06854*
X06884D02*
Y10209D01*
X06899*
X06904Y10214*
Y10234*
X06899Y10238*
X06884*
X06844Y10134D02*
X06839Y10139D01*
X06829*
X06824Y10134*
Y10114*
X06829Y10109*
X06839*
X06844Y10114*
Y10124*
X06834*
X06854Y10109D02*
Y10139D01*
X06874Y10109*
Y10139*
X06884D02*
Y10109D01*
X06899*
X06904Y10114*
Y10134*
X06899Y10139*
X06884*
X09643Y10839D02*
X09624D01*
Y10809*
X09643*
X09624Y10824D02*
X09634D01*
X09653Y10809D02*
Y10839D01*
X09673Y10809*
Y10839*
X09624Y10709D02*
Y10739D01*
X09634Y10729*
X09643Y10739*
Y10709*
X09673Y10734D02*
X09668Y10739D01*
X09658*
X09653Y10734*
Y10729*
X09658Y10724*
X09668*
X09673Y10719*
Y10714*
X09668Y10709*
X09658*
X09653Y10714*
X09683Y10709D02*
X09693D01*
X09688*
Y10739*
X09683Y10734*
X09624Y10609D02*
Y10639D01*
X09634Y10629*
X09643Y10639*
Y10609*
X09673Y10634D02*
X09668Y10639D01*
X09658*
X09653Y10634*
Y10629*
X09658Y10624*
X09668*
X09673Y10619*
Y10614*
X09668Y10609*
X09658*
X09653Y10614*
X09703Y10609D02*
X09683D01*
X09703Y10629*
Y10634*
X09698Y10639*
X09688*
X09683Y10634*
X09624Y10509D02*
Y10538D01*
X09634Y10529*
X09643Y10538*
Y10509*
X09673Y10534D02*
X09668Y10538D01*
X09658*
X09653Y10534*
Y10529*
X09658Y10524*
X09668*
X09673Y10519*
Y10514*
X09668Y10509*
X09658*
X09653Y10514*
X09683Y10534D02*
X09688Y10538D01*
X09698*
X09703Y10534*
Y10529*
X09698Y10524*
X09693*
X09698*
X09703Y10519*
Y10514*
X09698Y10509*
X09688*
X09683Y10514*
X09624Y10409D02*
Y10439D01*
X09638*
X09643Y10434*
Y10424*
X09638Y10419*
X09624*
X09634D02*
X09643Y10409D01*
X09673Y10434D02*
X09668Y10439D01*
X09658*
X09653Y10434*
Y10429*
X09658Y10424*
X09668*
X09673Y10419*
Y10414*
X09668Y10409*
X09658*
X09653Y10414*
X09683Y10439D02*
X09703D01*
X09693*
Y10409*
X09643Y10334D02*
X09638Y10339D01*
X09629*
X09624Y10334*
Y10329*
X09629Y10324*
X09638*
X09643Y10319*
Y10314*
X09638Y10309*
X09629*
X09624Y10314*
X09653Y10339D02*
Y10309D01*
X09673*
X09683D02*
Y10339D01*
X09698*
X09703Y10334*
Y10324*
X09698Y10319*
X09683*
X09643Y10234D02*
X09638Y10238D01*
X09629*
X09624Y10234*
Y10229*
X09629Y10224*
X09638*
X09643Y10219*
Y10214*
X09638Y10209*
X09629*
X09624Y10214*
X09653Y10238D02*
X09673D01*
X09663*
Y10209*
X09703Y10238D02*
X09683D01*
Y10209*
X09703*
X09683Y10224D02*
X09693D01*
X09713Y10209D02*
Y10238D01*
X09728*
X09733Y10234*
Y10224*
X09728Y10219*
X09713*
X09624Y10139D02*
Y10109D01*
X09638*
X09643Y10114*
Y10134*
X09638Y10139*
X09624*
X09653D02*
X09663D01*
X09658*
Y10109*
X09653*
X09663*
X09678D02*
Y10139D01*
X09693*
X09698Y10134*
Y10124*
X09693Y10119*
X09678*
X09688D02*
X09698Y10109D01*
X09894Y10839D02*
Y10819D01*
X09904Y10809*
X09914Y10819*
Y10839*
X09924Y10809D02*
Y10839D01*
X09934Y10829*
X09944Y10839*
Y10809*
X09969Y10839D02*
X09959D01*
X09954Y10834*
Y10814*
X09959Y10809*
X09969*
X09974Y10814*
Y10834*
X09969Y10839*
X09984D02*
X10004D01*
X09994*
Y10809*
X09944Y10734D02*
X09939Y10739D01*
X09929*
X09924Y10734*
Y10714*
X09929Y10709*
X09939*
X09944Y10714*
Y10724*
X09934*
X09954Y10709D02*
Y10739D01*
X09974Y10709*
Y10739*
X09984D02*
Y10709D01*
X09999*
X10004Y10714*
Y10734*
X09999Y10739*
X09984*
X09974Y10609D02*
X09954D01*
X09974Y10629*
Y10634*
X09969Y10639*
X09959*
X09954Y10634*
X09984Y10639D02*
Y10609D01*
X09999*
X10004Y10614*
Y10619*
X09999Y10624*
X09984*
X09999*
X10004Y10629*
Y10634*
X09999Y10639*
X09984*
X09974Y10509D02*
X09954D01*
X09974Y10529*
Y10534*
X09969Y10538*
X09959*
X09954Y10534*
X09984Y10509D02*
Y10529D01*
X09994Y10538*
X10004Y10529*
Y10509*
Y10524*
X09984*
X09959Y10409D02*
X09969D01*
X09964*
Y10439*
X09959Y10434*
X09984Y10409D02*
Y10429D01*
X09994Y10439*
X10004Y10429*
Y10409*
Y10424*
X09984*
X09959Y10309D02*
X09969D01*
X09964*
Y10339*
X09959Y10334*
X09984Y10339D02*
Y10309D01*
X09999*
X10004Y10314*
Y10319*
X09999Y10324*
X09984*
X09999*
X10004Y10329*
Y10334*
X09999Y10339*
X09984*
X09924Y10238D02*
Y10219D01*
X09934Y10209*
X09944Y10219*
Y10238*
X09954D02*
Y10209D01*
X09969*
X09974Y10214*
Y10234*
X09969Y10238*
X09954*
X09984D02*
Y10209D01*
X09999*
X10004Y10214*
Y10234*
X09999Y10238*
X09984*
X09944Y10134D02*
X09939Y10139D01*
X09929*
X09924Y10134*
Y10114*
X09929Y10109*
X09939*
X09944Y10114*
Y10124*
X09934*
X09954Y10109D02*
Y10139D01*
X09974Y10109*
Y10139*
X09984D02*
Y10109D01*
X09999*
X10004Y10114*
Y10134*
X09999Y10139*
X09984*
G54D11*
X05173Y12928D02*
Y13023D01*
X0522*
Y12928D02*
Y13023D01*
X05173Y12928D02*
X0522D01*
X03613Y12247D02*
X037D01*
Y12204D02*
Y12247D01*
X03613Y12204D02*
X037D01*
X03613D02*
Y12247D01*
X03679Y13871D02*
X04434D01*
Y12837D02*
Y13871D01*
X03679Y12837D02*
X04434D01*
X03679D02*
Y13871D01*
G54D12*
X02306Y13101D02*
X02286D01*
Y13071*
X02306*
X02286Y13086D02*
X02296D01*
X02316Y13071D02*
Y13101D01*
X02336Y13071*
Y13101*
X02286Y12971D02*
Y13001D01*
X02296Y12991*
X02306Y13001*
Y12971*
X02336Y12996D02*
X02331Y13001D01*
X02321*
X02316Y12996*
Y12991*
X02321Y12986*
X02331*
X02336Y12981*
Y12976*
X02331Y12971*
X02321*
X02316Y12976*
X02346Y12971D02*
X02356D01*
X02351*
Y13001*
X02346Y12996*
X02286Y12871D02*
Y12901D01*
X02296Y12891*
X02306Y12901*
Y12871*
X02336Y12896D02*
X02331Y12901D01*
X02321*
X02316Y12896*
Y12891*
X02321Y12886*
X02331*
X02336Y12881*
Y12876*
X02331Y12871*
X02321*
X02316Y12876*
X02366Y12871D02*
X02346D01*
X02366Y12891*
Y12896*
X02361Y12901*
X02351*
X02346Y12896*
X02286Y12771D02*
Y128D01*
X02296Y12791*
X02306Y128*
Y12771*
X02336Y12796D02*
X02331Y128D01*
X02321*
X02316Y12796*
Y12791*
X02321Y12786*
X02331*
X02336Y12781*
Y12776*
X02331Y12771*
X02321*
X02316Y12776*
X02346Y12796D02*
X02351Y128D01*
X02361*
X02366Y12796*
Y12791*
X02361Y12786*
X02356*
X02361*
X02366Y12781*
Y12776*
X02361Y12771*
X02351*
X02346Y12776*
X02286Y12671D02*
Y12701D01*
X02301*
X02306Y12696*
Y12686*
X02301Y12681*
X02286*
X02296D02*
X02306Y12671D01*
X02336Y12696D02*
X02331Y12701D01*
X02321*
X02316Y12696*
Y12691*
X02321Y12686*
X02331*
X02336Y12681*
Y12676*
X02331Y12671*
X02321*
X02316Y12676*
X02346Y12701D02*
X02366D01*
X02356*
Y12671*
X02306Y12596D02*
X02301Y12601D01*
X02291*
X02286Y12596*
Y12591*
X02291Y12586*
X02301*
X02306Y12581*
Y12576*
X02301Y12571*
X02291*
X02286Y12576*
X02316Y12601D02*
Y12571D01*
X02336*
X02346D02*
Y12601D01*
X02361*
X02366Y12596*
Y12586*
X02361Y12581*
X02346*
X02306Y12496D02*
X02301Y125D01*
X02291*
X02286Y12496*
Y12491*
X02291Y12486*
X02301*
X02306Y12481*
Y12476*
X02301Y12471*
X02291*
X02286Y12476*
X02316Y125D02*
X02336D01*
X02326*
Y12471*
X02366Y125D02*
X02346D01*
Y12471*
X02366*
X02346Y12486D02*
X02356D01*
X02376Y12471D02*
Y125D01*
X02391*
X02396Y12496*
Y12486*
X02391Y12481*
X02376*
X02286Y12401D02*
Y12371D01*
X02301*
X02306Y12376*
Y12396*
X02301Y12401*
X02286*
X02316D02*
X02326D01*
X02321*
Y12371*
X02316*
X02326*
X02341D02*
Y12401D01*
X02356*
X02361Y12396*
Y12386*
X02356Y12381*
X02341*
X02351D02*
X02361Y12371D01*
X02557Y13101D02*
Y13081D01*
X02567Y13071*
X02577Y13081*
Y13101*
X02587Y13071D02*
Y13101D01*
X02597Y13091*
X02607Y13101*
Y13071*
X02632Y13101D02*
X02622D01*
X02617Y13096*
Y13076*
X02622Y13071*
X02632*
X02637Y13076*
Y13096*
X02632Y13101*
X02647D02*
X02666D01*
X02656*
Y13071*
X02607Y12996D02*
X02602Y13001D01*
X02592*
X02587Y12996*
Y12976*
X02592Y12971*
X02602*
X02607Y12976*
Y12986*
X02597*
X02617Y12971D02*
Y13001D01*
X02637Y12971*
Y13001*
X02647D02*
Y12971D01*
X02661*
X02666Y12976*
Y12996*
X02661Y13001*
X02647*
X02637Y12871D02*
X02617D01*
X02637Y12891*
Y12896*
X02632Y12901*
X02622*
X02617Y12896*
X02647Y12901D02*
Y12871D01*
X02661*
X02666Y12876*
Y12881*
X02661Y12886*
X02647*
X02661*
X02666Y12891*
Y12896*
X02661Y12901*
X02647*
X02637Y12771D02*
X02617D01*
X02637Y12791*
Y12796*
X02632Y128*
X02622*
X02617Y12796*
X02647Y12771D02*
Y12791D01*
X02656Y128*
X02666Y12791*
Y12771*
Y12786*
X02647*
X02622Y12671D02*
X02632D01*
X02627*
Y12701*
X02622Y12696*
X02647Y12671D02*
Y12691D01*
X02656Y12701*
X02666Y12691*
Y12671*
Y12686*
X02647*
X02622Y12571D02*
X02632D01*
X02627*
Y12601*
X02622Y12596*
X02647Y12601D02*
Y12571D01*
X02661*
X02666Y12576*
Y12581*
X02661Y12586*
X02647*
X02661*
X02666Y12591*
Y12596*
X02661Y12601*
X02647*
X02587Y125D02*
Y12481D01*
X02597Y12471*
X02607Y12481*
Y125*
X02617D02*
Y12471D01*
X02632*
X02637Y12476*
Y12496*
X02632Y125*
X02617*
X02647D02*
Y12471D01*
X02661*
X02666Y12476*
Y12496*
X02661Y125*
X02647*
X02607Y12396D02*
X02602Y12401D01*
X02592*
X02587Y12396*
Y12376*
X02592Y12371*
X02602*
X02607Y12376*
Y12386*
X02597*
X02617Y12371D02*
Y12401D01*
X02637Y12371*
Y12401*
X02647D02*
Y12371D01*
X02661*
X02666Y12376*
Y12396*
X02661Y12401*
X02647*
X05406Y13101D02*
X05386D01*
Y13071*
X05406*
X05386Y13086D02*
X05396D01*
X05416Y13071D02*
Y13101D01*
X05436Y13071*
Y13101*
X05386Y12971D02*
Y13001D01*
X05396Y12991*
X05406Y13001*
Y12971*
X05436Y12996D02*
X05431Y13001D01*
X05421*
X05416Y12996*
Y12991*
X05421Y12986*
X05431*
X05436Y12981*
Y12976*
X05431Y12971*
X05421*
X05416Y12976*
X05446Y12971D02*
X05456D01*
X05451*
Y13001*
X05446Y12996*
X05386Y12871D02*
Y12901D01*
X05396Y12891*
X05406Y12901*
Y12871*
X05436Y12896D02*
X05431Y12901D01*
X05421*
X05416Y12896*
Y12891*
X05421Y12886*
X05431*
X05436Y12881*
Y12876*
X05431Y12871*
X05421*
X05416Y12876*
X05466Y12871D02*
X05446D01*
X05466Y12891*
Y12896*
X05461Y12901*
X05451*
X05446Y12896*
X05386Y12771D02*
Y128D01*
X05396Y12791*
X05406Y128*
Y12771*
X05436Y12796D02*
X05431Y128D01*
X05421*
X05416Y12796*
Y12791*
X05421Y12786*
X05431*
X05436Y12781*
Y12776*
X05431Y12771*
X05421*
X05416Y12776*
X05446Y12796D02*
X05451Y128D01*
X05461*
X05466Y12796*
Y12791*
X05461Y12786*
X05456*
X05461*
X05466Y12781*
Y12776*
X05461Y12771*
X05451*
X05446Y12776*
X05386Y12671D02*
Y12701D01*
X05401*
X05406Y12696*
Y12686*
X05401Y12681*
X05386*
X05396D02*
X05406Y12671D01*
X05436Y12696D02*
X05431Y12701D01*
X05421*
X05416Y12696*
Y12691*
X05421Y12686*
X05431*
X05436Y12681*
Y12676*
X05431Y12671*
X05421*
X05416Y12676*
X05446Y12701D02*
X05466D01*
X05456*
Y12671*
X05406Y12596D02*
X05401Y12601D01*
X05391*
X05386Y12596*
Y12591*
X05391Y12586*
X05401*
X05406Y12581*
Y12576*
X05401Y12571*
X05391*
X05386Y12576*
X05416Y12601D02*
Y12571D01*
X05436*
X05446D02*
Y12601D01*
X05461*
X05466Y12596*
Y12586*
X05461Y12581*
X05446*
X05406Y12496D02*
X05401Y125D01*
X05391*
X05386Y12496*
Y12491*
X05391Y12486*
X05401*
X05406Y12481*
Y12476*
X05401Y12471*
X05391*
X05386Y12476*
X05416Y125D02*
X05436D01*
X05426*
Y12471*
X05466Y125D02*
X05446D01*
Y12471*
X05466*
X05446Y12486D02*
X05456D01*
X05476Y12471D02*
Y125D01*
X05491*
X05496Y12496*
Y12486*
X05491Y12481*
X05476*
X05386Y12401D02*
Y12371D01*
X05401*
X05406Y12376*
Y12396*
X05401Y12401*
X05386*
X05416D02*
X05426D01*
X05421*
Y12371*
X05416*
X05426*
X05441D02*
Y12401D01*
X05456*
X05461Y12396*
Y12386*
X05456Y12381*
X05441*
X05451D02*
X05461Y12371D01*
X05657Y13101D02*
Y13081D01*
X05667Y13071*
X05677Y13081*
Y13101*
X05687Y13071D02*
Y13101D01*
X05697Y13091*
X05707Y13101*
Y13071*
X05732Y13101D02*
X05722D01*
X05717Y13096*
Y13076*
X05722Y13071*
X05732*
X05737Y13076*
Y13096*
X05732Y13101*
X05747D02*
X05766D01*
X05756*
Y13071*
X05707Y12996D02*
X05702Y13001D01*
X05692*
X05687Y12996*
Y12976*
X05692Y12971*
X05702*
X05707Y12976*
Y12986*
X05697*
X05717Y12971D02*
Y13001D01*
X05737Y12971*
Y13001*
X05747D02*
Y12971D01*
X05761*
X05766Y12976*
Y12996*
X05761Y13001*
X05747*
X05737Y12871D02*
X05717D01*
X05737Y12891*
Y12896*
X05732Y12901*
X05722*
X05717Y12896*
X05747Y12901D02*
Y12871D01*
X05761*
X05766Y12876*
Y12881*
X05761Y12886*
X05747*
X05761*
X05766Y12891*
Y12896*
X05761Y12901*
X05747*
X05737Y12771D02*
X05717D01*
X05737Y12791*
Y12796*
X05732Y128*
X05722*
X05717Y12796*
X05747Y12771D02*
Y12791D01*
X05756Y128*
X05766Y12791*
Y12771*
Y12786*
X05747*
X05722Y12671D02*
X05732D01*
X05727*
Y12701*
X05722Y12696*
X05747Y12671D02*
Y12691D01*
X05756Y12701*
X05766Y12691*
Y12671*
Y12686*
X05747*
X05722Y12571D02*
X05732D01*
X05727*
Y12601*
X05722Y12596*
X05747Y12601D02*
Y12571D01*
X05761*
X05766Y12576*
Y12581*
X05761Y12586*
X05747*
X05761*
X05766Y12591*
Y12596*
X05761Y12601*
X05747*
X05687Y125D02*
Y12481D01*
X05697Y12471*
X05707Y12481*
Y125*
X05717D02*
Y12471D01*
X05732*
X05737Y12476*
Y12496*
X05732Y125*
X05717*
X05747D02*
Y12471D01*
X05761*
X05766Y12476*
Y12496*
X05761Y125*
X05747*
X05707Y12396D02*
X05702Y12401D01*
X05692*
X05687Y12396*
Y12376*
X05692Y12371*
X05702*
X05707Y12376*
Y12386*
X05697*
X05717Y12371D02*
Y12401D01*
X05737Y12371*
Y12401*
X05747D02*
Y12371D01*
X05761*
X05766Y12376*
Y12396*
X05761Y12401*
X05747*
G54D11*
X0941Y12928D02*
Y13023D01*
X09457*
Y12928D02*
Y13023D01*
X0941Y12928D02*
X09457D01*
X0785Y12247D02*
X07937D01*
Y12204D02*
Y12247D01*
X0785Y12204D02*
X07937D01*
X0785D02*
Y12247D01*
X07916Y13871D02*
X08671D01*
Y12837D02*
Y13871D01*
X07916Y12837D02*
X08671D01*
X07916D02*
Y13871D01*
G54D12*
X06543Y13101D02*
X06524D01*
Y13071*
X06543*
X06524Y13086D02*
X06534D01*
X06553Y13071D02*
Y13101D01*
X06573Y13071*
Y13101*
X06524Y12971D02*
Y13001D01*
X06534Y12991*
X06543Y13001*
Y12971*
X06573Y12996D02*
X06568Y13001D01*
X06558*
X06553Y12996*
Y12991*
X06558Y12986*
X06568*
X06573Y12981*
Y12976*
X06568Y12971*
X06558*
X06553Y12976*
X06583Y12971D02*
X06593D01*
X06588*
Y13001*
X06583Y12996*
X06524Y12871D02*
Y12901D01*
X06534Y12891*
X06543Y12901*
Y12871*
X06573Y12896D02*
X06568Y12901D01*
X06558*
X06553Y12896*
Y12891*
X06558Y12886*
X06568*
X06573Y12881*
Y12876*
X06568Y12871*
X06558*
X06553Y12876*
X06603Y12871D02*
X06583D01*
X06603Y12891*
Y12896*
X06598Y12901*
X06588*
X06583Y12896*
X06524Y12771D02*
Y128D01*
X06534Y12791*
X06543Y128*
Y12771*
X06573Y12796D02*
X06568Y128D01*
X06558*
X06553Y12796*
Y12791*
X06558Y12786*
X06568*
X06573Y12781*
Y12776*
X06568Y12771*
X06558*
X06553Y12776*
X06583Y12796D02*
X06588Y128D01*
X06598*
X06603Y12796*
Y12791*
X06598Y12786*
X06593*
X06598*
X06603Y12781*
Y12776*
X06598Y12771*
X06588*
X06583Y12776*
X06524Y12671D02*
Y12701D01*
X06538*
X06543Y12696*
Y12686*
X06538Y12681*
X06524*
X06534D02*
X06543Y12671D01*
X06573Y12696D02*
X06568Y12701D01*
X06558*
X06553Y12696*
Y12691*
X06558Y12686*
X06568*
X06573Y12681*
Y12676*
X06568Y12671*
X06558*
X06553Y12676*
X06583Y12701D02*
X06603D01*
X06593*
Y12671*
X06543Y12596D02*
X06538Y12601D01*
X06529*
X06524Y12596*
Y12591*
X06529Y12586*
X06538*
X06543Y12581*
Y12576*
X06538Y12571*
X06529*
X06524Y12576*
X06553Y12601D02*
Y12571D01*
X06573*
X06583D02*
Y12601D01*
X06598*
X06603Y12596*
Y12586*
X06598Y12581*
X06583*
X06543Y12496D02*
X06538Y125D01*
X06529*
X06524Y12496*
Y12491*
X06529Y12486*
X06538*
X06543Y12481*
Y12476*
X06538Y12471*
X06529*
X06524Y12476*
X06553Y125D02*
X06573D01*
X06563*
Y12471*
X06603Y125D02*
X06583D01*
Y12471*
X06603*
X06583Y12486D02*
X06593D01*
X06613Y12471D02*
Y125D01*
X06628*
X06633Y12496*
Y12486*
X06628Y12481*
X06613*
X06524Y12401D02*
Y12371D01*
X06538*
X06543Y12376*
Y12396*
X06538Y12401*
X06524*
X06553D02*
X06563D01*
X06558*
Y12371*
X06553*
X06563*
X06578D02*
Y12401D01*
X06593*
X06598Y12396*
Y12386*
X06593Y12381*
X06578*
X06588D02*
X06598Y12371D01*
X06794Y13101D02*
Y13081D01*
X06804Y13071*
X06814Y13081*
Y13101*
X06824Y13071D02*
Y13101D01*
X06834Y13091*
X06844Y13101*
Y13071*
X06869Y13101D02*
X06859D01*
X06854Y13096*
Y13076*
X06859Y13071*
X06869*
X06874Y13076*
Y13096*
X06869Y13101*
X06884D02*
X06904D01*
X06894*
Y13071*
X06844Y12996D02*
X06839Y13001D01*
X06829*
X06824Y12996*
Y12976*
X06829Y12971*
X06839*
X06844Y12976*
Y12986*
X06834*
X06854Y12971D02*
Y13001D01*
X06874Y12971*
Y13001*
X06884D02*
Y12971D01*
X06899*
X06904Y12976*
Y12996*
X06899Y13001*
X06884*
X06874Y12871D02*
X06854D01*
X06874Y12891*
Y12896*
X06869Y12901*
X06859*
X06854Y12896*
X06884Y12901D02*
Y12871D01*
X06899*
X06904Y12876*
Y12881*
X06899Y12886*
X06884*
X06899*
X06904Y12891*
Y12896*
X06899Y12901*
X06884*
X06874Y12771D02*
X06854D01*
X06874Y12791*
Y12796*
X06869Y128*
X06859*
X06854Y12796*
X06884Y12771D02*
Y12791D01*
X06894Y128*
X06904Y12791*
Y12771*
Y12786*
X06884*
X06859Y12671D02*
X06869D01*
X06864*
Y12701*
X06859Y12696*
X06884Y12671D02*
Y12691D01*
X06894Y12701*
X06904Y12691*
Y12671*
Y12686*
X06884*
X06859Y12571D02*
X06869D01*
X06864*
Y12601*
X06859Y12596*
X06884Y12601D02*
Y12571D01*
X06899*
X06904Y12576*
Y12581*
X06899Y12586*
X06884*
X06899*
X06904Y12591*
Y12596*
X06899Y12601*
X06884*
X06824Y125D02*
Y12481D01*
X06834Y12471*
X06844Y12481*
Y125*
X06854D02*
Y12471D01*
X06869*
X06874Y12476*
Y12496*
X06869Y125*
X06854*
X06884D02*
Y12471D01*
X06899*
X06904Y12476*
Y12496*
X06899Y125*
X06884*
X06844Y12396D02*
X06839Y12401D01*
X06829*
X06824Y12396*
Y12376*
X06829Y12371*
X06839*
X06844Y12376*
Y12386*
X06834*
X06854Y12371D02*
Y12401D01*
X06874Y12371*
Y12401*
X06884D02*
Y12371D01*
X06899*
X06904Y12376*
Y12396*
X06899Y12401*
X06884*
X09643Y13101D02*
X09624D01*
Y13071*
X09643*
X09624Y13086D02*
X09634D01*
X09653Y13071D02*
Y13101D01*
X09673Y13071*
Y13101*
X09624Y12971D02*
Y13001D01*
X09634Y12991*
X09643Y13001*
Y12971*
X09673Y12996D02*
X09668Y13001D01*
X09658*
X09653Y12996*
Y12991*
X09658Y12986*
X09668*
X09673Y12981*
Y12976*
X09668Y12971*
X09658*
X09653Y12976*
X09683Y12971D02*
X09693D01*
X09688*
Y13001*
X09683Y12996*
X09624Y12871D02*
Y12901D01*
X09634Y12891*
X09643Y12901*
Y12871*
X09673Y12896D02*
X09668Y12901D01*
X09658*
X09653Y12896*
Y12891*
X09658Y12886*
X09668*
X09673Y12881*
Y12876*
X09668Y12871*
X09658*
X09653Y12876*
X09703Y12871D02*
X09683D01*
X09703Y12891*
Y12896*
X09698Y12901*
X09688*
X09683Y12896*
X09624Y12771D02*
Y128D01*
X09634Y12791*
X09643Y128*
Y12771*
X09673Y12796D02*
X09668Y128D01*
X09658*
X09653Y12796*
Y12791*
X09658Y12786*
X09668*
X09673Y12781*
Y12776*
X09668Y12771*
X09658*
X09653Y12776*
X09683Y12796D02*
X09688Y128D01*
X09698*
X09703Y12796*
Y12791*
X09698Y12786*
X09693*
X09698*
X09703Y12781*
Y12776*
X09698Y12771*
X09688*
X09683Y12776*
X09624Y12671D02*
Y12701D01*
X09638*
X09643Y12696*
Y12686*
X09638Y12681*
X09624*
X09634D02*
X09643Y12671D01*
X09673Y12696D02*
X09668Y12701D01*
X09658*
X09653Y12696*
Y12691*
X09658Y12686*
X09668*
X09673Y12681*
Y12676*
X09668Y12671*
X09658*
X09653Y12676*
X09683Y12701D02*
X09703D01*
X09693*
Y12671*
X09643Y12596D02*
X09638Y12601D01*
X09629*
X09624Y12596*
Y12591*
X09629Y12586*
X09638*
X09643Y12581*
Y12576*
X09638Y12571*
X09629*
X09624Y12576*
X09653Y12601D02*
Y12571D01*
X09673*
X09683D02*
Y12601D01*
X09698*
X09703Y12596*
Y12586*
X09698Y12581*
X09683*
X09643Y12496D02*
X09638Y125D01*
X09629*
X09624Y12496*
Y12491*
X09629Y12486*
X09638*
X09643Y12481*
Y12476*
X09638Y12471*
X09629*
X09624Y12476*
X09653Y125D02*
X09673D01*
X09663*
Y12471*
X09703Y125D02*
X09683D01*
Y12471*
X09703*
X09683Y12486D02*
X09693D01*
X09713Y12471D02*
Y125D01*
X09728*
X09733Y12496*
Y12486*
X09728Y12481*
X09713*
X09624Y12401D02*
Y12371D01*
X09638*
X09643Y12376*
Y12396*
X09638Y12401*
X09624*
X09653D02*
X09663D01*
X09658*
Y12371*
X09653*
X09663*
X09678D02*
Y12401D01*
X09693*
X09698Y12396*
Y12386*
X09693Y12381*
X09678*
X09688D02*
X09698Y12371D01*
X09894Y13101D02*
Y13081D01*
X09904Y13071*
X09914Y13081*
Y13101*
X09924Y13071D02*
Y13101D01*
X09934Y13091*
X09944Y13101*
Y13071*
X09969Y13101D02*
X09959D01*
X09954Y13096*
Y13076*
X09959Y13071*
X09969*
X09974Y13076*
Y13096*
X09969Y13101*
X09984D02*
X10004D01*
X09994*
Y13071*
X09944Y12996D02*
X09939Y13001D01*
X09929*
X09924Y12996*
Y12976*
X09929Y12971*
X09939*
X09944Y12976*
Y12986*
X09934*
X09954Y12971D02*
Y13001D01*
X09974Y12971*
Y13001*
X09984D02*
Y12971D01*
X09999*
X10004Y12976*
Y12996*
X09999Y13001*
X09984*
X09974Y12871D02*
X09954D01*
X09974Y12891*
Y12896*
X09969Y12901*
X09959*
X09954Y12896*
X09984Y12901D02*
Y12871D01*
X09999*
X10004Y12876*
Y12881*
X09999Y12886*
X09984*
X09999*
X10004Y12891*
Y12896*
X09999Y12901*
X09984*
X09974Y12771D02*
X09954D01*
X09974Y12791*
Y12796*
X09969Y128*
X09959*
X09954Y12796*
X09984Y12771D02*
Y12791D01*
X09994Y128*
X10004Y12791*
Y12771*
Y12786*
X09984*
X09959Y12671D02*
X09969D01*
X09964*
Y12701*
X09959Y12696*
X09984Y12671D02*
Y12691D01*
X09994Y12701*
X10004Y12691*
Y12671*
Y12686*
X09984*
X09959Y12571D02*
X09969D01*
X09964*
Y12601*
X09959Y12596*
X09984Y12601D02*
Y12571D01*
X09999*
X10004Y12576*
Y12581*
X09999Y12586*
X09984*
X09999*
X10004Y12591*
Y12596*
X09999Y12601*
X09984*
X09924Y125D02*
Y12481D01*
X09934Y12471*
X09944Y12481*
Y125*
X09954D02*
Y12471D01*
X09969*
X09974Y12476*
Y12496*
X09969Y125*
X09954*
X09984D02*
Y12471D01*
X09999*
X10004Y12476*
Y12496*
X09999Y125*
X09984*
X09944Y12396D02*
X09939Y12401D01*
X09929*
X09924Y12396*
Y12376*
X09929Y12371*
X09939*
X09944Y12376*
Y12386*
X09934*
X09954Y12371D02*
Y12401D01*
X09974Y12371*
Y12401*
X09984D02*
Y12371D01*
X09999*
X10004Y12376*
Y12396*
X09999Y12401*
X09984*
M02*