%FSTAX23Y23*%
%MOIN*%
%SFA1B1*%

%IPPOS*%
%AMD53*
4,1,8,0.016200,-0.022700,0.016200,0.022700,0.009200,0.029800,-0.009200,0.029800,-0.016200,0.022700,-0.016200,-0.022700,-0.009200,-0.029800,0.009200,-0.029800,0.016200,-0.022700,0.0*
1,1,0.014100,0.009200,-0.022700*
1,1,0.014100,0.009200,0.022700*
1,1,0.014100,-0.009200,0.022700*
1,1,0.014100,-0.009200,-0.022700*
%
%ADD15C,0.005000*%
%ADD18R,0.035430X0.029530*%
%ADD21R,0.025590X0.027560*%
%ADD28R,0.078740X0.035430*%
%ADD29R,0.035430X0.078740*%
%ADD30R,0.052360X0.052360*%
%ADD39R,0.070990X0.118240*%
%ADD40R,0.047370X0.043430*%
%ADD41R,0.118240X0.070990*%
%ADD42R,0.043430X0.047370*%
%ADD43R,0.031620X0.055240*%
%ADD44R,0.039500X0.039500*%
%ADD45R,0.023750X0.076900*%
%ADD46R,0.064100X0.106420*%
%ADD47R,0.067060X0.043430*%
%ADD48R,0.051310X0.031620*%
%ADD49R,0.041470X0.045400*%
%ADD50R,0.063120X0.063000*%
%ADD51R,0.063120X0.055240*%
%ADD52R,0.043430X0.063120*%
G04~CAMADD=53~8~0.0~0.0~595.8~324.1~70.5~0.0~15~0.0~0.0~0.0~0.0~0~0.0~0.0~0.0~0.0~0~0.0~0.0~0.0~270.0~324.0~596.0*
%ADD53D53*%
%ADD54C,0.067060*%
%ADD55R,0.045400X0.045400*%
%ADD56O,0.040000X0.057480*%
%ADD57O,0.055240X0.102490*%
%ADD58C,0.073000*%
%ADD59R,0.073000X0.073000*%
%ADD60C,0.088000*%
%ADD61R,0.088000X0.088000*%
%ADD62R,0.068000X0.068000*%
%ADD63C,0.068000*%
%ADD64C,0.008000*%
%ADD65C,0.078000*%
%ADD66R,0.078000X0.078000*%
%ADD67C,0.143430*%
%ADD68C,0.058000*%
%LNcontrolboardv1-1*%
%LPD*%
G36*
X05239Y04642D02*
X05326D01*
Y04577*
X05239*
Y04642*
G37*
G54D15*
X0Y0D02*
X12286D01*
Y16786*
X0*
Y0*
G36*
X05239Y04679D02*
X0526D01*
Y0476*
X0526Y04761*
X0526Y04762*
X0526Y04763*
X0526Y04764*
X0526Y04765*
X05261Y04766*
X05261Y04767*
X05261Y04768*
X05262Y04769*
X05262Y0477*
X05263Y04771*
X05263Y04772*
X05264Y04772*
X05265Y04773*
X05265Y04774*
X05266Y04775*
X05267Y04775*
X05268Y04776*
X05269Y04777*
X0527Y04777*
X0527Y04778*
X05271Y04778*
X05272Y04778*
X05273Y04779*
X05274Y04779*
X05275Y04779*
X05276Y04779*
X05277Y0478*
X05278Y0478*
X05279Y0478*
X05299*
X053Y0478*
X05301Y0478*
X05302Y04779*
X05303Y04779*
X05304Y04779*
X05305Y04779*
X05306Y04778*
X05307Y04778*
X05308Y04778*
X05309Y04777*
X0531Y04777*
X05311Y04776*
X05311Y04775*
X05312Y04775*
X05313Y04774*
X05314Y04773*
X05314Y04772*
X05315Y04772*
X05316Y04771*
X05316Y0477*
X05317Y04769*
X05317Y04768*
X05317Y04767*
X05318Y04766*
X05318Y04765*
X05318Y04764*
X05318Y04763*
X05319Y04762*
X05319Y04761*
X05319Y0476*
Y04644*
X05239*
Y04679*
G37*
G36*
X05467Y04642D02*
X05554D01*
Y04577*
X05467*
Y04642*
G37*
G36*
X05474Y0476D02*
X05474Y04761D01*
X05474Y04762*
X05474Y04763*
X05475Y04764*
X05475Y04765*
X05475Y04766*
X05476Y04767*
X05476Y04768*
X05476Y04769*
X05477Y0477*
X05477Y04771*
X05478Y04772*
X05479Y04772*
X05479Y04773*
X0548Y04774*
X05481Y04775*
X05482Y04775*
X05482Y04776*
X05483Y04777*
X05484Y04777*
X05485Y04778*
X05486Y04778*
X05487Y04778*
X05488Y04779*
X05489Y04779*
X0549Y04779*
X05491Y04779*
X05492Y0478*
X05493Y0478*
X05494Y0478*
X05514*
X05515Y0478*
X05516Y0478*
X05517Y04779*
X05518Y04779*
X05519Y04779*
X0552Y04779*
X05521Y04778*
X05522Y04778*
X05523Y04778*
X05523Y04777*
X05524Y04777*
X05525Y04776*
X05526Y04775*
X05527Y04775*
X05528Y04774*
X05528Y04773*
X05529Y04772*
X0553Y04772*
X0553Y04771*
X05531Y0477*
X05531Y04769*
X05532Y04768*
X05532Y04767*
X05532Y04766*
X05533Y04765*
X05533Y04764*
X05533Y04763*
X05533Y04762*
X05533Y04761*
X05533Y0476*
Y04679*
X05554*
Y04644*
X05474*
Y0476*
G37*
G54D18*
X05196Y03905D03*
Y03952D03*
G54D21*
X0363Y03178D03*
X03683D03*
G54D28*
X03722Y04523D03*
Y04473D03*
Y04423D03*
Y04373D03*
Y04323D03*
Y04273D03*
Y04223D03*
Y04173D03*
Y04123D03*
Y04073D03*
Y04023D03*
Y03973D03*
Y03923D03*
Y03873D03*
X04391D03*
Y03923D03*
Y03973D03*
Y04023D03*
Y04073D03*
Y04123D03*
Y04173D03*
Y04223D03*
Y04273D03*
Y04323D03*
Y04373D03*
Y04423D03*
Y04473D03*
Y04523D03*
G54D29*
X03831Y03834D03*
X03881D03*
X03931D03*
X03981D03*
X04031D03*
X04081D03*
X04131D03*
X04181D03*
X04231D03*
X04281D03*
G54D30*
X03945Y043D03*
X04017D03*
X04089D03*
X03945Y04228D03*
X04017D03*
X04089D03*
X03945Y04156D03*
X04017D03*
X04089D03*
G54D39*
X03346Y04294D03*
Y04463D03*
G54D40*
X05116Y03585D03*
Y03638D03*
G54D41*
X05821Y04218D03*
X05652D03*
X02232D03*
X02401D03*
G54D42*
X0363Y03108D03*
X03683D03*
G54D43*
X05359Y04484D03*
X05396D03*
X05434D03*
Y04393D03*
X05396D03*
X05359D03*
G54D44*
X04546Y03628D03*
X04487D03*
G54D45*
X05448Y04617D03*
X05422D03*
X05396D03*
X05371D03*
X05345D03*
G54D46*
X05434Y04738D03*
X05359D03*
G54D47*
X02349Y04652D03*
Y04782D03*
X02156Y04652D03*
Y04782D03*
Y03053D03*
Y02924D03*
X02349Y03053D03*
Y02924D03*
X0569Y03053D03*
Y02924D03*
X05883Y03053D03*
Y02924D03*
X0569Y04782D03*
Y04652D03*
X05883Y04782D03*
Y04652D03*
G54D48*
X0521Y03768D03*
X05123Y03731D03*
Y03806D03*
X04763Y03768D03*
X0485Y03806D03*
Y03731D03*
G54D49*
X05012Y03808D03*
X04961D03*
X05012Y03728D03*
X04961D03*
X04691Y04608D03*
X04742D03*
X03422Y04618D03*
X03371D03*
X04412Y03628D03*
X04361D03*
X04571Y04608D03*
X04622D03*
X03542Y04618D03*
X03491D03*
G54D50*
X02256Y04455D03*
G54D51*
X02256Y04525D03*
G54D52*
X04782Y04728D03*
X04526D03*
X03329D03*
X03584D03*
G54D53*
X05201Y0406D03*
X05151D03*
X05101D03*
X05051D03*
X05001D03*
X04951D03*
X04901D03*
X04851D03*
Y04277D03*
X04901D03*
X04951D03*
X05001D03*
X05051D03*
X05101D03*
X05151D03*
X05201D03*
G54D54*
X03586Y04388D03*
X04776Y04368D03*
X05276Y04208D03*
X03586Y04473D03*
X04486Y04388D03*
Y04308D03*
X04056Y03748D03*
X03976D03*
X04506Y03758D03*
G54D55*
X03847Y03748D03*
X03906D03*
X04176D03*
X04117D03*
G54D56*
X05492Y04609D03*
X05301D03*
G54D57*
X05504Y04728D03*
X05289D03*
G54D58*
X02418Y03178D03*
X02496D03*
X02575D03*
X05566D03*
X05645D03*
X05724D03*
G54D59*
X02339Y03178D03*
X05488D03*
G54D60*
X03856Y03188D03*
X04056D03*
X03956D03*
X04776Y02978D03*
X04876D03*
X03232Y03548D03*
X02976D03*
G54D61*
X04156Y03188D03*
X04976Y02978D03*
G54D62*
X03556Y02988D03*
G54D63*
X03656Y02988D03*
X03756D03*
X03856D03*
X03956D03*
X04056D03*
X04156D03*
X04256D03*
X04356D03*
X04456D03*
G54D64*
X02976Y03548D03*
G54D65*
X02726Y04038D03*
Y03838D03*
Y03938D03*
Y03738D03*
Y03638D03*
Y03538D03*
Y03438D03*
Y03338D03*
X02226D03*
Y03438D03*
Y03538D03*
Y03638D03*
Y03738D03*
Y03838D03*
Y03938D03*
X05826Y04038D03*
Y03838D03*
Y03938D03*
Y03738D03*
Y03638D03*
Y03538D03*
Y03438D03*
Y03338D03*
X05326D03*
Y03438D03*
Y03538D03*
Y03638D03*
Y03738D03*
Y03838D03*
Y03938D03*
X02466Y04528D03*
X02566Y04628D03*
Y04528D03*
G54D66*
X02226Y04038D03*
X05326D03*
X02466Y04628D03*
G54D67*
X03129Y03165D03*
X04921D03*
G54D68*
X05536Y04128D03*
X02566Y03798D03*
X02496D03*
X02386Y04038D03*
X03426Y03728D03*
X02546Y04378D03*
X02896Y04218D03*
X04086Y03378D03*
X04006Y03438D03*
X05236Y03088D03*
X05116Y02978D03*
X04326Y03438D03*
X04176Y03378D03*
X04476Y03918D03*
X05056Y04348D03*
X04656Y04098D03*
X05106Y03948D03*
X02766Y03108D03*
X03626Y03618D03*
X03486Y03328D03*
X03316Y03048D03*
X03476Y04108D03*
X03166D03*
X02766Y04318D03*
X04656Y03198D03*
X04836Y03318D03*
X05196Y03518D03*
X05146Y03328D03*
X05826Y03218D03*
X03166Y04308D03*
X02166Y04398D03*
X02766Y04748D03*
X03136D03*
X04836Y03958D03*
X04906Y04648D03*
X05116D03*
X05616Y04548D03*
X05836Y04418D03*
X02946Y03018D03*
X05206Y03848D03*
X04816Y04448D03*
X04656Y04328D03*
X03184Y0439D03*
X03296Y04568D03*
X04476Y04058D03*
Y03988D03*
G36*
X09476Y04642D02*
X09563D01*
Y04577*
X09476*
Y04642*
G37*
G36*
Y04679D02*
X09497D01*
Y0476*
X09497Y04761*
X09497Y04762*
X09497Y04763*
X09497Y04764*
X09497Y04765*
X09498Y04766*
X09498Y04767*
X09498Y04768*
X09499Y04769*
X09499Y0477*
X095Y04771*
X095Y04772*
X09501Y04772*
X09502Y04773*
X09502Y04774*
X09503Y04775*
X09504Y04775*
X09505Y04776*
X09506Y04777*
X09507Y04777*
X09507Y04778*
X09508Y04778*
X09509Y04778*
X0951Y04779*
X09511Y04779*
X09512Y04779*
X09513Y04779*
X09514Y0478*
X09515Y0478*
X09516Y0478*
X09536*
X09537Y0478*
X09538Y0478*
X09539Y04779*
X0954Y04779*
X09541Y04779*
X09542Y04779*
X09543Y04778*
X09544Y04778*
X09545Y04778*
X09546Y04777*
X09547Y04777*
X09548Y04776*
X09548Y04775*
X09549Y04775*
X0955Y04774*
X09551Y04773*
X09551Y04772*
X09552Y04772*
X09553Y04771*
X09553Y0477*
X09554Y04769*
X09554Y04768*
X09554Y04767*
X09555Y04766*
X09555Y04765*
X09555Y04764*
X09556Y04763*
X09556Y04762*
X09556Y04761*
X09556Y0476*
Y04644*
X09476*
Y04679*
G37*
G36*
X09704Y04642D02*
X09791D01*
Y04577*
X09704*
Y04642*
G37*
G36*
X09711Y0476D02*
X09711Y04761D01*
X09711Y04762*
X09712Y04763*
X09712Y04764*
X09712Y04765*
X09712Y04766*
X09713Y04767*
X09713Y04768*
X09713Y04769*
X09714Y0477*
X09714Y04771*
X09715Y04772*
X09716Y04772*
X09716Y04773*
X09717Y04774*
X09718Y04775*
X09719Y04775*
X09719Y04776*
X0972Y04777*
X09721Y04777*
X09722Y04778*
X09723Y04778*
X09724Y04778*
X09725Y04779*
X09726Y04779*
X09727Y04779*
X09728Y04779*
X09729Y0478*
X0973Y0478*
X09731Y0478*
X09751*
X09752Y0478*
X09753Y0478*
X09754Y04779*
X09755Y04779*
X09756Y04779*
X09757Y04779*
X09758Y04778*
X09759Y04778*
X0976Y04778*
X0976Y04777*
X09761Y04777*
X09762Y04776*
X09763Y04775*
X09764Y04775*
X09765Y04774*
X09765Y04773*
X09766Y04772*
X09767Y04772*
X09767Y04771*
X09768Y0477*
X09768Y04769*
X09769Y04768*
X09769Y04767*
X09769Y04766*
X0977Y04765*
X0977Y04764*
X0977Y04763*
X0977Y04762*
X0977Y04761*
X0977Y0476*
Y04679*
X09791*
Y04644*
X09711*
Y0476*
G37*
G54D18*
X09434Y03905D03*
Y03952D03*
G54D21*
X07867Y03178D03*
X0792D03*
G54D28*
X07959Y04523D03*
Y04473D03*
Y04423D03*
Y04373D03*
Y04323D03*
Y04273D03*
Y04223D03*
Y04173D03*
Y04123D03*
Y04073D03*
Y04023D03*
Y03973D03*
Y03923D03*
Y03873D03*
X08628D03*
Y03923D03*
Y03973D03*
Y04023D03*
Y04073D03*
Y04123D03*
Y04173D03*
Y04223D03*
Y04273D03*
Y04323D03*
Y04373D03*
Y04423D03*
Y04473D03*
Y04523D03*
G54D29*
X08069Y03834D03*
X08119D03*
X08169D03*
X08219D03*
X08269D03*
X08319D03*
X08369D03*
X08419D03*
X08469D03*
X08519D03*
G54D30*
X08182Y043D03*
X08254D03*
X08326D03*
X08182Y04228D03*
X08254D03*
X08326D03*
X08182Y04156D03*
X08254D03*
X08326D03*
G54D39*
X07584Y04294D03*
Y04463D03*
G54D40*
X09354Y03585D03*
Y03638D03*
G54D41*
X10058Y04218D03*
X09889D03*
X06469D03*
X06638D03*
G54D42*
X07867Y03108D03*
X0792D03*
G54D43*
X09596Y04484D03*
X09634D03*
X09671D03*
Y04393D03*
X09634D03*
X09596D03*
G54D44*
X08783Y03628D03*
X08724D03*
G54D45*
X09685Y04617D03*
X09659D03*
X09634D03*
X09608D03*
X09582D03*
G54D46*
X09671Y04738D03*
X09596D03*
G54D47*
X06586Y04652D03*
Y04782D03*
X06393Y04652D03*
Y04782D03*
Y03053D03*
Y02924D03*
X06586Y03053D03*
Y02924D03*
X09927Y03053D03*
Y02924D03*
X1012Y03053D03*
Y02924D03*
X09927Y04782D03*
Y04652D03*
X1012Y04782D03*
Y04652D03*
G54D48*
X09447Y03768D03*
X0936Y03731D03*
Y03806D03*
X09Y03768D03*
X09087Y03806D03*
Y03731D03*
G54D49*
X09249Y03808D03*
X09198D03*
X09249Y03728D03*
X09198D03*
X08928Y04608D03*
X08979D03*
X07659Y04618D03*
X07608D03*
X08649Y03628D03*
X08598D03*
X08808Y04608D03*
X08859D03*
X07779Y04618D03*
X07728D03*
G54D50*
X06494Y04455D03*
G54D51*
X06494Y04525D03*
G54D52*
X09019Y04728D03*
X08764D03*
X07566D03*
X07821D03*
G54D53*
X09439Y0406D03*
X09389D03*
X09339D03*
X09289D03*
X09239D03*
X09189D03*
X09139D03*
X09089D03*
Y04277D03*
X09139D03*
X09189D03*
X09239D03*
X09289D03*
X09339D03*
X09389D03*
X09439D03*
G54D54*
X07824Y04388D03*
X09014Y04368D03*
X09514Y04208D03*
X07824Y04473D03*
X08724Y04388D03*
Y04308D03*
X08294Y03748D03*
X08214D03*
X08744Y03758D03*
G54D55*
X08084Y03748D03*
X08144D03*
X08413D03*
X08354D03*
G54D56*
X09729Y04609D03*
X09538D03*
G54D57*
X09741Y04728D03*
X09526D03*
G54D58*
X06655Y03178D03*
X06734D03*
X06812D03*
X09804D03*
X09882D03*
X09961D03*
G54D59*
X06576Y03178D03*
X09725D03*
G54D60*
X08094Y03188D03*
X08294D03*
X08194D03*
X09014Y02978D03*
X09114D03*
X07469Y03548D03*
X07214D03*
G54D61*
X08394Y03188D03*
X09214Y02978D03*
G54D62*
X07794Y02988D03*
G54D63*
X07894Y02988D03*
X07994D03*
X08094D03*
X08194D03*
X08294D03*
X08394D03*
X08494D03*
X08594D03*
X08694D03*
G54D64*
X07214Y03548D03*
G54D65*
X06964Y04038D03*
Y03838D03*
Y03938D03*
Y03738D03*
Y03638D03*
Y03538D03*
Y03438D03*
Y03338D03*
X06464D03*
Y03438D03*
Y03538D03*
Y03638D03*
Y03738D03*
Y03838D03*
Y03938D03*
X10064Y04038D03*
Y03838D03*
Y03938D03*
Y03738D03*
Y03638D03*
Y03538D03*
Y03438D03*
Y03338D03*
X09564D03*
Y03438D03*
Y03538D03*
Y03638D03*
Y03738D03*
Y03838D03*
Y03938D03*
X06704Y04528D03*
X06804Y04628D03*
Y04528D03*
G54D66*
X06464Y04038D03*
X09564D03*
X06704Y04628D03*
G54D67*
X07366Y03165D03*
X09158D03*
G54D68*
X09774Y04128D03*
X06804Y03798D03*
X06734D03*
X06624Y04038D03*
X07664Y03728D03*
X06784Y04378D03*
X07134Y04218D03*
X08324Y03378D03*
X08244Y03438D03*
X09474Y03088D03*
X09354Y02978D03*
X08564Y03438D03*
X08414Y03378D03*
X08714Y03918D03*
X09294Y04348D03*
X08894Y04098D03*
X09344Y03948D03*
X07004Y03108D03*
X07864Y03618D03*
X07724Y03328D03*
X07554Y03048D03*
X07714Y04108D03*
X07404D03*
X07004Y04318D03*
X08894Y03198D03*
X09074Y03318D03*
X09434Y03518D03*
X09384Y03328D03*
X10064Y03218D03*
X07404Y04308D03*
X06404Y04398D03*
X07004Y04748D03*
X07374D03*
X09074Y03958D03*
X09144Y04648D03*
X09354D03*
X09854Y04548D03*
X10074Y04418D03*
X07184Y03018D03*
X09444Y03848D03*
X09054Y04448D03*
X08894Y04328D03*
X07422Y0439D03*
X07534Y04568D03*
X08714Y04058D03*
Y03988D03*
G36*
X05239Y06904D02*
X05326D01*
Y06839*
X05239*
Y06904*
G37*
G36*
Y06941D02*
X0526D01*
Y07022*
X0526Y07023*
X0526Y07024*
X0526Y07025*
X0526Y07026*
X0526Y07027*
X05261Y07028*
X05261Y07029*
X05261Y0703*
X05262Y07031*
X05262Y07032*
X05263Y07033*
X05263Y07034*
X05264Y07034*
X05265Y07035*
X05265Y07036*
X05266Y07037*
X05267Y07037*
X05268Y07038*
X05269Y07039*
X0527Y07039*
X0527Y0704*
X05271Y0704*
X05272Y0704*
X05273Y07041*
X05274Y07041*
X05275Y07041*
X05276Y07041*
X05277Y07042*
X05278Y07042*
X05279Y07042*
X05299*
X053Y07042*
X05301Y07042*
X05302Y07041*
X05303Y07041*
X05304Y07041*
X05305Y07041*
X05306Y0704*
X05307Y0704*
X05308Y0704*
X05309Y07039*
X0531Y07039*
X05311Y07038*
X05311Y07037*
X05312Y07037*
X05313Y07036*
X05314Y07035*
X05314Y07034*
X05315Y07034*
X05316Y07033*
X05316Y07032*
X05317Y07031*
X05317Y0703*
X05317Y07029*
X05318Y07028*
X05318Y07027*
X05318Y07026*
X05318Y07025*
X05319Y07024*
X05319Y07023*
X05319Y07022*
Y06906*
X05239*
Y06941*
G37*
G36*
X05467Y06904D02*
X05554D01*
Y06839*
X05467*
Y06904*
G37*
G36*
X05474Y07022D02*
X05474Y07023D01*
X05474Y07024*
X05474Y07025*
X05475Y07026*
X05475Y07027*
X05475Y07028*
X05476Y07029*
X05476Y0703*
X05476Y07031*
X05477Y07032*
X05477Y07033*
X05478Y07034*
X05479Y07034*
X05479Y07035*
X0548Y07036*
X05481Y07037*
X05482Y07037*
X05482Y07038*
X05483Y07039*
X05484Y07039*
X05485Y0704*
X05486Y0704*
X05487Y0704*
X05488Y07041*
X05489Y07041*
X0549Y07041*
X05491Y07041*
X05492Y07042*
X05493Y07042*
X05494Y07042*
X05514*
X05515Y07042*
X05516Y07042*
X05517Y07041*
X05518Y07041*
X05519Y07041*
X0552Y07041*
X05521Y0704*
X05522Y0704*
X05523Y0704*
X05523Y07039*
X05524Y07039*
X05525Y07038*
X05526Y07037*
X05527Y07037*
X05528Y07036*
X05528Y07035*
X05529Y07034*
X0553Y07034*
X0553Y07033*
X05531Y07032*
X05531Y07031*
X05532Y0703*
X05532Y07029*
X05532Y07028*
X05533Y07027*
X05533Y07026*
X05533Y07025*
X05533Y07024*
X05533Y07023*
X05533Y07022*
Y06941*
X05554*
Y06906*
X05474*
Y07022*
G37*
G54D18*
X05196Y06167D03*
Y06214D03*
G54D21*
X0363Y0544D03*
X03683D03*
G54D28*
X03722Y06785D03*
Y06735D03*
Y06685D03*
Y06635D03*
Y06585D03*
Y06535D03*
Y06485D03*
Y06435D03*
Y06385D03*
Y06335D03*
Y06285D03*
Y06235D03*
Y06185D03*
Y06135D03*
X04391D03*
Y06185D03*
Y06235D03*
Y06285D03*
Y06335D03*
Y06385D03*
Y06435D03*
Y06485D03*
Y06535D03*
Y06585D03*
Y06635D03*
Y06685D03*
Y06735D03*
Y06785D03*
G54D29*
X03831Y06096D03*
X03881D03*
X03931D03*
X03981D03*
X04031D03*
X04081D03*
X04131D03*
X04181D03*
X04231D03*
X04281D03*
G54D30*
X03945Y06562D03*
X04017D03*
X04089D03*
X03945Y0649D03*
X04017D03*
X04089D03*
X03945Y06418D03*
X04017D03*
X04089D03*
G54D39*
X03346Y06556D03*
Y06725D03*
G54D40*
X05116Y05847D03*
Y059D03*
G54D41*
X05821Y0648D03*
X05652D03*
X02232D03*
X02401D03*
G54D42*
X0363Y0537D03*
X03683D03*
G54D43*
X05359Y06746D03*
X05396D03*
X05434D03*
Y06655D03*
X05396D03*
X05359D03*
G54D44*
X04546Y0589D03*
X04487D03*
G54D45*
X05448Y06879D03*
X05422D03*
X05396D03*
X05371D03*
X05345D03*
G54D46*
X05434Y07D03*
X05359D03*
G54D47*
X02349Y06914D03*
Y07044D03*
X02156Y06914D03*
Y07044D03*
Y05315D03*
Y05186D03*
X02349Y05315D03*
Y05186D03*
X0569Y05315D03*
Y05186D03*
X05883Y05315D03*
Y05186D03*
X0569Y07044D03*
Y06914D03*
X05883Y07044D03*
Y06914D03*
G54D48*
X0521Y0603D03*
X05123Y05993D03*
Y06068D03*
X04763Y0603D03*
X0485Y06068D03*
Y05993D03*
G54D49*
X05012Y0607D03*
X04961D03*
X05012Y0599D03*
X04961D03*
X04691Y0687D03*
X04742D03*
X03422Y0688D03*
X03371D03*
X04412Y0589D03*
X04361D03*
X04571Y0687D03*
X04622D03*
X03542Y0688D03*
X03491D03*
G54D50*
X02256Y06717D03*
G54D51*
X02256Y06787D03*
G54D52*
X04782Y0699D03*
X04526D03*
X03329D03*
X03584D03*
G54D53*
X05201Y06322D03*
X05151D03*
X05101D03*
X05051D03*
X05001D03*
X04951D03*
X04901D03*
X04851D03*
Y06539D03*
X04901D03*
X04951D03*
X05001D03*
X05051D03*
X05101D03*
X05151D03*
X05201D03*
G54D54*
X03586Y0665D03*
X04776Y0663D03*
X05276Y0647D03*
X03586Y06735D03*
X04486Y0665D03*
Y0657D03*
X04056Y0601D03*
X03976D03*
X04506Y0602D03*
G54D55*
X03847Y0601D03*
X03906D03*
X04176D03*
X04117D03*
G54D56*
X05492Y06871D03*
X05301D03*
G54D57*
X05504Y0699D03*
X05289D03*
G54D58*
X02418Y0544D03*
X02496D03*
X02575D03*
X05566D03*
X05645D03*
X05724D03*
G54D59*
X02339Y0544D03*
X05488D03*
G54D60*
X03856Y0545D03*
X04056D03*
X03956D03*
X04776Y0524D03*
X04876D03*
X03232Y0581D03*
X02976D03*
G54D61*
X04156Y0545D03*
X04976Y0524D03*
G54D62*
X03556Y0525D03*
G54D63*
X03656Y0525D03*
X03756D03*
X03856D03*
X03956D03*
X04056D03*
X04156D03*
X04256D03*
X04356D03*
X04456D03*
G54D64*
X02976Y0581D03*
G54D65*
X02726Y063D03*
Y061D03*
Y062D03*
Y06D03*
Y059D03*
Y058D03*
Y057D03*
Y056D03*
X02226D03*
Y057D03*
Y058D03*
Y059D03*
Y06D03*
Y061D03*
Y062D03*
X05826Y063D03*
Y061D03*
Y062D03*
Y06D03*
Y059D03*
Y058D03*
Y057D03*
Y056D03*
X05326D03*
Y057D03*
Y058D03*
Y059D03*
Y06D03*
Y061D03*
Y062D03*
X02466Y0679D03*
X02566Y0689D03*
Y0679D03*
G54D66*
X02226Y063D03*
X05326D03*
X02466Y0689D03*
G54D67*
X03129Y05427D03*
X04921D03*
G54D68*
X05536Y0639D03*
X02566Y0606D03*
X02496D03*
X02386Y063D03*
X03426Y0599D03*
X02546Y0664D03*
X02896Y0648D03*
X04086Y0564D03*
X04006Y057D03*
X05236Y0535D03*
X05116Y0524D03*
X04326Y057D03*
X04176Y0564D03*
X04476Y0618D03*
X05056Y0661D03*
X04656Y0636D03*
X05106Y0621D03*
X02766Y0537D03*
X03626Y0588D03*
X03486Y0559D03*
X03316Y0531D03*
X03476Y0637D03*
X03166D03*
X02766Y0658D03*
X04656Y0546D03*
X04836Y0558D03*
X05196Y0578D03*
X05146Y0559D03*
X05826Y0548D03*
X03166Y0657D03*
X02166Y0666D03*
X02766Y0701D03*
X03136D03*
X04836Y0622D03*
X04906Y0691D03*
X05116D03*
X05616Y0681D03*
X05836Y0668D03*
X02946Y0528D03*
X05206Y0611D03*
X04816Y0671D03*
X04656Y0659D03*
X03184Y06652D03*
X03296Y0683D03*
X04476Y0632D03*
Y0625D03*
G36*
X09476Y06904D02*
X09563D01*
Y06839*
X09476*
Y06904*
G37*
G36*
Y06941D02*
X09497D01*
Y07022*
X09497Y07023*
X09497Y07024*
X09497Y07025*
X09497Y07026*
X09497Y07027*
X09498Y07028*
X09498Y07029*
X09498Y0703*
X09499Y07031*
X09499Y07032*
X095Y07033*
X095Y07034*
X09501Y07034*
X09502Y07035*
X09502Y07036*
X09503Y07037*
X09504Y07037*
X09505Y07038*
X09506Y07039*
X09507Y07039*
X09507Y0704*
X09508Y0704*
X09509Y0704*
X0951Y07041*
X09511Y07041*
X09512Y07041*
X09513Y07041*
X09514Y07042*
X09515Y07042*
X09516Y07042*
X09536*
X09537Y07042*
X09538Y07042*
X09539Y07041*
X0954Y07041*
X09541Y07041*
X09542Y07041*
X09543Y0704*
X09544Y0704*
X09545Y0704*
X09546Y07039*
X09547Y07039*
X09548Y07038*
X09548Y07037*
X09549Y07037*
X0955Y07036*
X09551Y07035*
X09551Y07034*
X09552Y07034*
X09553Y07033*
X09553Y07032*
X09554Y07031*
X09554Y0703*
X09554Y07029*
X09555Y07028*
X09555Y07027*
X09555Y07026*
X09556Y07025*
X09556Y07024*
X09556Y07023*
X09556Y07022*
Y06906*
X09476*
Y06941*
G37*
G36*
X09704Y06904D02*
X09791D01*
Y06839*
X09704*
Y06904*
G37*
G36*
X09711Y07022D02*
X09711Y07023D01*
X09711Y07024*
X09712Y07025*
X09712Y07026*
X09712Y07027*
X09712Y07028*
X09713Y07029*
X09713Y0703*
X09713Y07031*
X09714Y07032*
X09714Y07033*
X09715Y07034*
X09716Y07034*
X09716Y07035*
X09717Y07036*
X09718Y07037*
X09719Y07037*
X09719Y07038*
X0972Y07039*
X09721Y07039*
X09722Y0704*
X09723Y0704*
X09724Y0704*
X09725Y07041*
X09726Y07041*
X09727Y07041*
X09728Y07041*
X09729Y07042*
X0973Y07042*
X09731Y07042*
X09751*
X09752Y07042*
X09753Y07042*
X09754Y07041*
X09755Y07041*
X09756Y07041*
X09757Y07041*
X09758Y0704*
X09759Y0704*
X0976Y0704*
X0976Y07039*
X09761Y07039*
X09762Y07038*
X09763Y07037*
X09764Y07037*
X09765Y07036*
X09765Y07035*
X09766Y07034*
X09767Y07034*
X09767Y07033*
X09768Y07032*
X09768Y07031*
X09769Y0703*
X09769Y07029*
X09769Y07028*
X0977Y07027*
X0977Y07026*
X0977Y07025*
X0977Y07024*
X0977Y07023*
X0977Y07022*
Y06941*
X09791*
Y06906*
X09711*
Y07022*
G37*
G54D18*
X09434Y06167D03*
Y06214D03*
G54D21*
X07867Y0544D03*
X0792D03*
G54D28*
X07959Y06785D03*
Y06735D03*
Y06685D03*
Y06635D03*
Y06585D03*
Y06535D03*
Y06485D03*
Y06435D03*
Y06385D03*
Y06335D03*
Y06285D03*
Y06235D03*
Y06185D03*
Y06135D03*
X08628D03*
Y06185D03*
Y06235D03*
Y06285D03*
Y06335D03*
Y06385D03*
Y06435D03*
Y06485D03*
Y06535D03*
Y06585D03*
Y06635D03*
Y06685D03*
Y06735D03*
Y06785D03*
G54D29*
X08069Y06096D03*
X08119D03*
X08169D03*
X08219D03*
X08269D03*
X08319D03*
X08369D03*
X08419D03*
X08469D03*
X08519D03*
G54D30*
X08182Y06562D03*
X08254D03*
X08326D03*
X08182Y0649D03*
X08254D03*
X08326D03*
X08182Y06418D03*
X08254D03*
X08326D03*
G54D39*
X07584Y06556D03*
Y06725D03*
G54D40*
X09354Y05847D03*
Y059D03*
G54D41*
X10058Y0648D03*
X09889D03*
X06469D03*
X06638D03*
G54D42*
X07867Y0537D03*
X0792D03*
G54D43*
X09596Y06746D03*
X09634D03*
X09671D03*
Y06655D03*
X09634D03*
X09596D03*
G54D44*
X08783Y0589D03*
X08724D03*
G54D45*
X09685Y06879D03*
X09659D03*
X09634D03*
X09608D03*
X09582D03*
G54D46*
X09671Y07D03*
X09596D03*
G54D47*
X06586Y06914D03*
Y07044D03*
X06393Y06914D03*
Y07044D03*
Y05315D03*
Y05186D03*
X06586Y05315D03*
Y05186D03*
X09927Y05315D03*
Y05186D03*
X1012Y05315D03*
Y05186D03*
X09927Y07044D03*
Y06914D03*
X1012Y07044D03*
Y06914D03*
G54D48*
X09447Y0603D03*
X0936Y05993D03*
Y06068D03*
X09Y0603D03*
X09087Y06068D03*
Y05993D03*
G54D49*
X09249Y0607D03*
X09198D03*
X09249Y0599D03*
X09198D03*
X08928Y0687D03*
X08979D03*
X07659Y0688D03*
X07608D03*
X08649Y0589D03*
X08598D03*
X08808Y0687D03*
X08859D03*
X07779Y0688D03*
X07728D03*
G54D50*
X06494Y06717D03*
G54D51*
X06494Y06787D03*
G54D52*
X09019Y0699D03*
X08764D03*
X07566D03*
X07821D03*
G54D53*
X09439Y06322D03*
X09389D03*
X09339D03*
X09289D03*
X09239D03*
X09189D03*
X09139D03*
X09089D03*
Y06539D03*
X09139D03*
X09189D03*
X09239D03*
X09289D03*
X09339D03*
X09389D03*
X09439D03*
G54D54*
X07824Y0665D03*
X09014Y0663D03*
X09514Y0647D03*
X07824Y06735D03*
X08724Y0665D03*
Y0657D03*
X08294Y0601D03*
X08214D03*
X08744Y0602D03*
G54D55*
X08084Y0601D03*
X08144D03*
X08413D03*
X08354D03*
G54D56*
X09729Y06871D03*
X09538D03*
G54D57*
X09741Y0699D03*
X09526D03*
G54D58*
X06655Y0544D03*
X06734D03*
X06812D03*
X09804D03*
X09882D03*
X09961D03*
G54D59*
X06576Y0544D03*
X09725D03*
G54D60*
X08094Y0545D03*
X08294D03*
X08194D03*
X09014Y0524D03*
X09114D03*
X07469Y0581D03*
X07214D03*
G54D61*
X08394Y0545D03*
X09214Y0524D03*
G54D62*
X07794Y0525D03*
G54D63*
X07894Y0525D03*
X07994D03*
X08094D03*
X08194D03*
X08294D03*
X08394D03*
X08494D03*
X08594D03*
X08694D03*
G54D64*
X07214Y0581D03*
G54D65*
X06964Y063D03*
Y061D03*
Y062D03*
Y06D03*
Y059D03*
Y058D03*
Y057D03*
Y056D03*
X06464D03*
Y057D03*
Y058D03*
Y059D03*
Y06D03*
Y061D03*
Y062D03*
X10064Y063D03*
Y061D03*
Y062D03*
Y06D03*
Y059D03*
Y058D03*
Y057D03*
Y056D03*
X09564D03*
Y057D03*
Y058D03*
Y059D03*
Y06D03*
Y061D03*
Y062D03*
X06704Y0679D03*
X06804Y0689D03*
Y0679D03*
G54D66*
X06464Y063D03*
X09564D03*
X06704Y0689D03*
G54D67*
X07366Y05427D03*
X09158D03*
G54D68*
X09774Y0639D03*
X06804Y0606D03*
X06734D03*
X06624Y063D03*
X07664Y0599D03*
X06784Y0664D03*
X07134Y0648D03*
X08324Y0564D03*
X08244Y057D03*
X09474Y0535D03*
X09354Y0524D03*
X08564Y057D03*
X08414Y0564D03*
X08714Y0618D03*
X09294Y0661D03*
X08894Y0636D03*
X09344Y0621D03*
X07004Y0537D03*
X07864Y0588D03*
X07724Y0559D03*
X07554Y0531D03*
X07714Y0637D03*
X07404D03*
X07004Y0658D03*
X08894Y0546D03*
X09074Y0558D03*
X09434Y0578D03*
X09384Y0559D03*
X10064Y0548D03*
X07404Y0657D03*
X06404Y0666D03*
X07004Y0701D03*
X07374D03*
X09074Y0622D03*
X09144Y0691D03*
X09354D03*
X09854Y0681D03*
X10074Y0668D03*
X07184Y0528D03*
X09444Y0611D03*
X09054Y0671D03*
X08894Y0659D03*
X07422Y06652D03*
X07534Y0683D03*
X08714Y0632D03*
Y0625D03*
G36*
X05239Y09165D02*
X05326D01*
Y091*
X05239*
Y09165*
G37*
G36*
Y09202D02*
X0526D01*
Y09283*
X0526Y09284*
X0526Y09285*
X0526Y09286*
X0526Y09287*
X0526Y09288*
X05261Y09289*
X05261Y0929*
X05261Y09291*
X05262Y09292*
X05262Y09293*
X05263Y09294*
X05263Y09295*
X05264Y09295*
X05265Y09296*
X05265Y09297*
X05266Y09298*
X05267Y09298*
X05268Y09299*
X05269Y093*
X0527Y093*
X0527Y09301*
X05271Y09301*
X05272Y09301*
X05273Y09302*
X05274Y09302*
X05275Y09302*
X05276Y09302*
X05277Y09303*
X05278Y09303*
X05279Y09303*
X05299*
X053Y09303*
X05301Y09303*
X05302Y09302*
X05303Y09302*
X05304Y09302*
X05305Y09302*
X05306Y09301*
X05307Y09301*
X05308Y09301*
X05309Y093*
X0531Y093*
X05311Y09299*
X05311Y09298*
X05312Y09298*
X05313Y09297*
X05314Y09296*
X05314Y09295*
X05315Y09295*
X05316Y09294*
X05316Y09293*
X05317Y09292*
X05317Y09291*
X05317Y0929*
X05318Y09289*
X05318Y09288*
X05318Y09287*
X05318Y09286*
X05319Y09285*
X05319Y09284*
X05319Y09283*
Y09167*
X05239*
Y09202*
G37*
G36*
X05467Y09165D02*
X05554D01*
Y091*
X05467*
Y09165*
G37*
G36*
X05474Y09283D02*
X05474Y09284D01*
X05474Y09285*
X05474Y09286*
X05475Y09287*
X05475Y09288*
X05475Y09289*
X05476Y0929*
X05476Y09291*
X05476Y09292*
X05477Y09293*
X05477Y09294*
X05478Y09295*
X05479Y09295*
X05479Y09296*
X0548Y09297*
X05481Y09298*
X05482Y09298*
X05482Y09299*
X05483Y093*
X05484Y093*
X05485Y09301*
X05486Y09301*
X05487Y09301*
X05488Y09302*
X05489Y09302*
X0549Y09302*
X05491Y09302*
X05492Y09303*
X05493Y09303*
X05494Y09303*
X05514*
X05515Y09303*
X05516Y09303*
X05517Y09302*
X05518Y09302*
X05519Y09302*
X0552Y09302*
X05521Y09301*
X05522Y09301*
X05523Y09301*
X05523Y093*
X05524Y093*
X05525Y09299*
X05526Y09298*
X05527Y09298*
X05528Y09297*
X05528Y09296*
X05529Y09295*
X0553Y09295*
X0553Y09294*
X05531Y09293*
X05531Y09292*
X05532Y09291*
X05532Y0929*
X05532Y09289*
X05533Y09288*
X05533Y09287*
X05533Y09286*
X05533Y09285*
X05533Y09284*
X05533Y09283*
Y09202*
X05554*
Y09167*
X05474*
Y09283*
G37*
G54D18*
X05196Y08428D03*
Y08475D03*
G54D21*
X0363Y07702D03*
X03683D03*
G54D28*
X03722Y09046D03*
Y08996D03*
Y08946D03*
Y08896D03*
Y08846D03*
Y08796D03*
Y08746D03*
Y08696D03*
Y08646D03*
Y08596D03*
Y08546D03*
Y08496D03*
Y08446D03*
Y08396D03*
X04391D03*
Y08446D03*
Y08496D03*
Y08546D03*
Y08596D03*
Y08646D03*
Y08696D03*
Y08746D03*
Y08796D03*
Y08846D03*
Y08896D03*
Y08946D03*
Y08996D03*
Y09046D03*
G54D29*
X03831Y08358D03*
X03881D03*
X03931D03*
X03981D03*
X04031D03*
X04081D03*
X04131D03*
X04181D03*
X04231D03*
X04281D03*
G54D30*
X03945Y08823D03*
X04017D03*
X04089D03*
X03945Y08751D03*
X04017D03*
X04089D03*
X03945Y08679D03*
X04017D03*
X04089D03*
G54D39*
X03346Y08817D03*
Y08986D03*
G54D40*
X05116Y08109D03*
Y08162D03*
G54D41*
X05821Y08742D03*
X05652D03*
X02232D03*
X02401D03*
G54D42*
X0363Y07632D03*
X03683D03*
G54D43*
X05359Y09007D03*
X05396D03*
X05434D03*
Y08916D03*
X05396D03*
X05359D03*
G54D44*
X04546Y08152D03*
X04487D03*
G54D45*
X05448Y0914D03*
X05422D03*
X05396D03*
X05371D03*
X05345D03*
G54D46*
X05434Y09261D03*
X05359D03*
G54D47*
X02349Y09175D03*
Y09305D03*
X02156Y09175D03*
Y09305D03*
Y07577D03*
Y07448D03*
X02349Y07577D03*
Y07448D03*
X0569Y07577D03*
Y07448D03*
X05883Y07577D03*
Y07448D03*
X0569Y09305D03*
Y09175D03*
X05883Y09305D03*
Y09175D03*
G54D48*
X0521Y08292D03*
X05123Y08255D03*
Y0833D03*
X04763Y08292D03*
X0485Y0833D03*
Y08255D03*
G54D49*
X05012Y08332D03*
X04961D03*
X05012Y08252D03*
X04961D03*
X04691Y09132D03*
X04742D03*
X03422Y09142D03*
X03371D03*
X04412Y08152D03*
X04361D03*
X04571Y09132D03*
X04622D03*
X03542Y09142D03*
X03491D03*
G54D50*
X02256Y08979D03*
G54D51*
X02256Y09049D03*
G54D52*
X04782Y09252D03*
X04526D03*
X03329D03*
X03584D03*
G54D53*
X05201Y08583D03*
X05151D03*
X05101D03*
X05051D03*
X05001D03*
X04951D03*
X04901D03*
X04851D03*
Y088D03*
X04901D03*
X04951D03*
X05001D03*
X05051D03*
X05101D03*
X05151D03*
X05201D03*
G54D54*
X03586Y08912D03*
X04776Y08892D03*
X05276Y08732D03*
X03586Y08996D03*
X04486Y08912D03*
Y08832D03*
X04056Y08272D03*
X03976D03*
X04506Y08282D03*
G54D55*
X03847Y08272D03*
X03906D03*
X04176D03*
X04117D03*
G54D56*
X05492Y09132D03*
X05301D03*
G54D57*
X05504Y09252D03*
X05289D03*
G54D58*
X02418Y07702D03*
X02496D03*
X02575D03*
X05566D03*
X05645D03*
X05724D03*
G54D59*
X02339Y07702D03*
X05488D03*
G54D60*
X03856Y07712D03*
X04056D03*
X03956D03*
X04776Y07502D03*
X04876D03*
X03232Y08072D03*
X02976D03*
G54D61*
X04156Y07712D03*
X04976Y07502D03*
G54D62*
X03556Y07512D03*
G54D63*
X03656Y07512D03*
X03756D03*
X03856D03*
X03956D03*
X04056D03*
X04156D03*
X04256D03*
X04356D03*
X04456D03*
G54D64*
X02976Y08072D03*
G54D65*
X02726Y08562D03*
Y08362D03*
Y08462D03*
Y08262D03*
Y08162D03*
Y08062D03*
Y07962D03*
Y07862D03*
X02226D03*
Y07962D03*
Y08062D03*
Y08162D03*
Y08262D03*
Y08362D03*
Y08462D03*
X05826Y08562D03*
Y08362D03*
Y08462D03*
Y08262D03*
Y08162D03*
Y08062D03*
Y07962D03*
Y07862D03*
X05326D03*
Y07962D03*
Y08062D03*
Y08162D03*
Y08262D03*
Y08362D03*
Y08462D03*
X02466Y09052D03*
X02566Y09152D03*
Y09052D03*
G54D66*
X02226Y08562D03*
X05326D03*
X02466Y09152D03*
G54D67*
X03129Y07689D03*
X04921D03*
G54D68*
X05536Y08652D03*
X02566Y08322D03*
X02496D03*
X02386Y08562D03*
X03426Y08252D03*
X02546Y08902D03*
X02896Y08742D03*
X04086Y07902D03*
X04006Y07962D03*
X05236Y07612D03*
X05116Y07502D03*
X04326Y07962D03*
X04176Y07902D03*
X04476Y08442D03*
X05056Y08872D03*
X04656Y08622D03*
X05106Y08472D03*
X02766Y07632D03*
X03626Y08142D03*
X03486Y07852D03*
X03316Y07572D03*
X03476Y08632D03*
X03166D03*
X02766Y08842D03*
X04656Y07722D03*
X04836Y07842D03*
X05196Y08042D03*
X05146Y07852D03*
X05826Y07742D03*
X03166Y08832D03*
X02166Y08922D03*
X02766Y09272D03*
X03136D03*
X04836Y08482D03*
X04906Y09172D03*
X05116D03*
X05616Y09072D03*
X05836Y08942D03*
X02946Y07542D03*
X05206Y08372D03*
X04816Y08972D03*
X04656Y08852D03*
X03184Y08914D03*
X03296Y09092D03*
X04476Y08582D03*
Y08512D03*
G36*
X09476Y09165D02*
X09563D01*
Y091*
X09476*
Y09165*
G37*
G36*
Y09202D02*
X09497D01*
Y09283*
X09497Y09284*
X09497Y09285*
X09497Y09286*
X09497Y09287*
X09497Y09288*
X09498Y09289*
X09498Y0929*
X09498Y09291*
X09499Y09292*
X09499Y09293*
X095Y09294*
X095Y09295*
X09501Y09295*
X09502Y09296*
X09502Y09297*
X09503Y09298*
X09504Y09298*
X09505Y09299*
X09506Y093*
X09507Y093*
X09507Y09301*
X09508Y09301*
X09509Y09301*
X0951Y09302*
X09511Y09302*
X09512Y09302*
X09513Y09302*
X09514Y09303*
X09515Y09303*
X09516Y09303*
X09536*
X09537Y09303*
X09538Y09303*
X09539Y09302*
X0954Y09302*
X09541Y09302*
X09542Y09302*
X09543Y09301*
X09544Y09301*
X09545Y09301*
X09546Y093*
X09547Y093*
X09548Y09299*
X09548Y09298*
X09549Y09298*
X0955Y09297*
X09551Y09296*
X09551Y09295*
X09552Y09295*
X09553Y09294*
X09553Y09293*
X09554Y09292*
X09554Y09291*
X09554Y0929*
X09555Y09289*
X09555Y09288*
X09555Y09287*
X09556Y09286*
X09556Y09285*
X09556Y09284*
X09556Y09283*
Y09167*
X09476*
Y09202*
G37*
G36*
X09704Y09165D02*
X09791D01*
Y091*
X09704*
Y09165*
G37*
G36*
X09711Y09283D02*
X09711Y09284D01*
X09711Y09285*
X09712Y09286*
X09712Y09287*
X09712Y09288*
X09712Y09289*
X09713Y0929*
X09713Y09291*
X09713Y09292*
X09714Y09293*
X09714Y09294*
X09715Y09295*
X09716Y09295*
X09716Y09296*
X09717Y09297*
X09718Y09298*
X09719Y09298*
X09719Y09299*
X0972Y093*
X09721Y093*
X09722Y09301*
X09723Y09301*
X09724Y09301*
X09725Y09302*
X09726Y09302*
X09727Y09302*
X09728Y09302*
X09729Y09303*
X0973Y09303*
X09731Y09303*
X09751*
X09752Y09303*
X09753Y09303*
X09754Y09302*
X09755Y09302*
X09756Y09302*
X09757Y09302*
X09758Y09301*
X09759Y09301*
X0976Y09301*
X0976Y093*
X09761Y093*
X09762Y09299*
X09763Y09298*
X09764Y09298*
X09765Y09297*
X09765Y09296*
X09766Y09295*
X09767Y09295*
X09767Y09294*
X09768Y09293*
X09768Y09292*
X09769Y09291*
X09769Y0929*
X09769Y09289*
X0977Y09288*
X0977Y09287*
X0977Y09286*
X0977Y09285*
X0977Y09284*
X0977Y09283*
Y09202*
X09791*
Y09167*
X09711*
Y09283*
G37*
G54D18*
X09434Y08428D03*
Y08475D03*
G54D21*
X07867Y07702D03*
X0792D03*
G54D28*
X07959Y09046D03*
Y08996D03*
Y08946D03*
Y08896D03*
Y08846D03*
Y08796D03*
Y08746D03*
Y08696D03*
Y08646D03*
Y08596D03*
Y08546D03*
Y08496D03*
Y08446D03*
Y08396D03*
X08628D03*
Y08446D03*
Y08496D03*
Y08546D03*
Y08596D03*
Y08646D03*
Y08696D03*
Y08746D03*
Y08796D03*
Y08846D03*
Y08896D03*
Y08946D03*
Y08996D03*
Y09046D03*
G54D29*
X08069Y08358D03*
X08119D03*
X08169D03*
X08219D03*
X08269D03*
X08319D03*
X08369D03*
X08419D03*
X08469D03*
X08519D03*
G54D30*
X08182Y08823D03*
X08254D03*
X08326D03*
X08182Y08751D03*
X08254D03*
X08326D03*
X08182Y08679D03*
X08254D03*
X08326D03*
G54D39*
X07584Y08817D03*
Y08986D03*
G54D40*
X09354Y08109D03*
Y08162D03*
G54D41*
X10058Y08742D03*
X09889D03*
X06469D03*
X06638D03*
G54D42*
X07867Y07632D03*
X0792D03*
G54D43*
X09596Y09007D03*
X09634D03*
X09671D03*
Y08916D03*
X09634D03*
X09596D03*
G54D44*
X08783Y08152D03*
X08724D03*
G54D45*
X09685Y0914D03*
X09659D03*
X09634D03*
X09608D03*
X09582D03*
G54D46*
X09671Y09261D03*
X09596D03*
G54D47*
X06586Y09175D03*
Y09305D03*
X06393Y09175D03*
Y09305D03*
Y07577D03*
Y07448D03*
X06586Y07577D03*
Y07448D03*
X09927Y07577D03*
Y07448D03*
X1012Y07577D03*
Y07448D03*
X09927Y09305D03*
Y09175D03*
X1012Y09305D03*
Y09175D03*
G54D48*
X09447Y08292D03*
X0936Y08255D03*
Y0833D03*
X09Y08292D03*
X09087Y0833D03*
Y08255D03*
G54D49*
X09249Y08332D03*
X09198D03*
X09249Y08252D03*
X09198D03*
X08928Y09132D03*
X08979D03*
X07659Y09142D03*
X07608D03*
X08649Y08152D03*
X08598D03*
X08808Y09132D03*
X08859D03*
X07779Y09142D03*
X07728D03*
G54D50*
X06494Y08979D03*
G54D51*
X06494Y09049D03*
G54D52*
X09019Y09252D03*
X08764D03*
X07566D03*
X07821D03*
G54D53*
X09439Y08583D03*
X09389D03*
X09339D03*
X09289D03*
X09239D03*
X09189D03*
X09139D03*
X09089D03*
Y088D03*
X09139D03*
X09189D03*
X09239D03*
X09289D03*
X09339D03*
X09389D03*
X09439D03*
G54D54*
X07824Y08912D03*
X09014Y08892D03*
X09514Y08732D03*
X07824Y08996D03*
X08724Y08912D03*
Y08832D03*
X08294Y08272D03*
X08214D03*
X08744Y08282D03*
G54D55*
X08084Y08272D03*
X08144D03*
X08413D03*
X08354D03*
G54D56*
X09729Y09132D03*
X09538D03*
G54D57*
X09741Y09252D03*
X09526D03*
G54D58*
X06655Y07702D03*
X06734D03*
X06812D03*
X09804D03*
X09882D03*
X09961D03*
G54D59*
X06576Y07702D03*
X09725D03*
G54D60*
X08094Y07712D03*
X08294D03*
X08194D03*
X09014Y07502D03*
X09114D03*
X07469Y08072D03*
X07214D03*
G54D61*
X08394Y07712D03*
X09214Y07502D03*
G54D62*
X07794Y07512D03*
G54D63*
X07894Y07512D03*
X07994D03*
X08094D03*
X08194D03*
X08294D03*
X08394D03*
X08494D03*
X08594D03*
X08694D03*
G54D64*
X07214Y08072D03*
G54D65*
X06964Y08562D03*
Y08362D03*
Y08462D03*
Y08262D03*
Y08162D03*
Y08062D03*
Y07962D03*
Y07862D03*
X06464D03*
Y07962D03*
Y08062D03*
Y08162D03*
Y08262D03*
Y08362D03*
Y08462D03*
X10064Y08562D03*
Y08362D03*
Y08462D03*
Y08262D03*
Y08162D03*
Y08062D03*
Y07962D03*
Y07862D03*
X09564D03*
Y07962D03*
Y08062D03*
Y08162D03*
Y08262D03*
Y08362D03*
Y08462D03*
X06704Y09052D03*
X06804Y09152D03*
Y09052D03*
G54D66*
X06464Y08562D03*
X09564D03*
X06704Y09152D03*
G54D67*
X07366Y07689D03*
X09158D03*
G54D68*
X09774Y08652D03*
X06804Y08322D03*
X06734D03*
X06624Y08562D03*
X07664Y08252D03*
X06784Y08902D03*
X07134Y08742D03*
X08324Y07902D03*
X08244Y07962D03*
X09474Y07612D03*
X09354Y07502D03*
X08564Y07962D03*
X08414Y07902D03*
X08714Y08442D03*
X09294Y08872D03*
X08894Y08622D03*
X09344Y08472D03*
X07004Y07632D03*
X07864Y08142D03*
X07724Y07852D03*
X07554Y07572D03*
X07714Y08632D03*
X07404D03*
X07004Y08842D03*
X08894Y07722D03*
X09074Y07842D03*
X09434Y08042D03*
X09384Y07852D03*
X10064Y07742D03*
X07404Y08832D03*
X06404Y08922D03*
X07004Y09272D03*
X07374D03*
X09074Y08482D03*
X09144Y09172D03*
X09354D03*
X09854Y09072D03*
X10074Y08942D03*
X07184Y07542D03*
X09444Y08372D03*
X09054Y08972D03*
X08894Y08852D03*
X07422Y08914D03*
X07534Y09092D03*
X08714Y08582D03*
Y08512D03*
G36*
X05239Y11427D02*
X05326D01*
Y11362*
X05239*
Y11427*
G37*
G36*
Y11464D02*
X0526D01*
Y11545*
X0526Y11546*
X0526Y11547*
X0526Y11548*
X0526Y11549*
X0526Y1155*
X05261Y11551*
X05261Y11552*
X05261Y11553*
X05262Y11554*
X05262Y11555*
X05263Y11556*
X05263Y11557*
X05264Y11557*
X05265Y11558*
X05265Y11559*
X05266Y1156*
X05267Y1156*
X05268Y11561*
X05269Y11562*
X0527Y11562*
X0527Y11563*
X05271Y11563*
X05272Y11563*
X05273Y11564*
X05274Y11564*
X05275Y11564*
X05276Y11564*
X05277Y11565*
X05278Y11565*
X05279Y11565*
X05299*
X053Y11565*
X05301Y11565*
X05302Y11564*
X05303Y11564*
X05304Y11564*
X05305Y11564*
X05306Y11563*
X05307Y11563*
X05308Y11563*
X05309Y11562*
X0531Y11562*
X05311Y11561*
X05311Y1156*
X05312Y1156*
X05313Y11559*
X05314Y11558*
X05314Y11557*
X05315Y11557*
X05316Y11556*
X05316Y11555*
X05317Y11554*
X05317Y11553*
X05317Y11552*
X05318Y11551*
X05318Y1155*
X05318Y11549*
X05318Y11548*
X05319Y11547*
X05319Y11546*
X05319Y11545*
Y11429*
X05239*
Y11464*
G37*
G36*
X05467Y11427D02*
X05554D01*
Y11362*
X05467*
Y11427*
G37*
G36*
X05474Y11545D02*
X05474Y11546D01*
X05474Y11547*
X05474Y11548*
X05475Y11549*
X05475Y1155*
X05475Y11551*
X05476Y11552*
X05476Y11553*
X05476Y11554*
X05477Y11555*
X05477Y11556*
X05478Y11557*
X05479Y11557*
X05479Y11558*
X0548Y11559*
X05481Y1156*
X05482Y1156*
X05482Y11561*
X05483Y11562*
X05484Y11562*
X05485Y11563*
X05486Y11563*
X05487Y11563*
X05488Y11564*
X05489Y11564*
X0549Y11564*
X05491Y11564*
X05492Y11565*
X05493Y11565*
X05494Y11565*
X05514*
X05515Y11565*
X05516Y11565*
X05517Y11564*
X05518Y11564*
X05519Y11564*
X0552Y11564*
X05521Y11563*
X05522Y11563*
X05523Y11563*
X05523Y11562*
X05524Y11562*
X05525Y11561*
X05526Y1156*
X05527Y1156*
X05528Y11559*
X05528Y11558*
X05529Y11557*
X0553Y11557*
X0553Y11556*
X05531Y11555*
X05531Y11554*
X05532Y11553*
X05532Y11552*
X05532Y11551*
X05533Y1155*
X05533Y11549*
X05533Y11548*
X05533Y11547*
X05533Y11546*
X05533Y11545*
Y11464*
X05554*
Y11429*
X05474*
Y11545*
G37*
G54D18*
X05196Y1069D03*
Y10737D03*
G54D21*
X0363Y09964D03*
X03683D03*
G54D28*
X03722Y11308D03*
Y11258D03*
Y11208D03*
Y11158D03*
Y11108D03*
Y11058D03*
Y11008D03*
Y10958D03*
Y10908D03*
Y10858D03*
Y10808D03*
Y10758D03*
Y10708D03*
Y10658D03*
X04391D03*
Y10708D03*
Y10758D03*
Y10808D03*
Y10858D03*
Y10908D03*
Y10958D03*
Y11008D03*
Y11058D03*
Y11108D03*
Y11158D03*
Y11208D03*
Y11258D03*
Y11308D03*
G54D29*
X03831Y10619D03*
X03881D03*
X03931D03*
X03981D03*
X04031D03*
X04081D03*
X04131D03*
X04181D03*
X04231D03*
X04281D03*
G54D30*
X03945Y11085D03*
X04017D03*
X04089D03*
X03945Y11013D03*
X04017D03*
X04089D03*
X03945Y10941D03*
X04017D03*
X04089D03*
G54D39*
X03346Y11079D03*
Y11248D03*
G54D40*
X05116Y1037D03*
Y10424D03*
G54D41*
X05821Y11004D03*
X05652D03*
X02232D03*
X02401D03*
G54D42*
X0363Y09894D03*
X03683D03*
G54D43*
X05359Y11269D03*
X05396D03*
X05434D03*
Y11178D03*
X05396D03*
X05359D03*
G54D44*
X04546Y10414D03*
X04487D03*
G54D45*
X05448Y11402D03*
X05422D03*
X05396D03*
X05371D03*
X05345D03*
G54D46*
X05434Y11523D03*
X05359D03*
G54D47*
X02349Y11437D03*
Y11567D03*
X02156Y11437D03*
Y11567D03*
Y09838D03*
Y09709D03*
X02349Y09838D03*
Y09709D03*
X0569Y09838D03*
Y09709D03*
X05883Y09838D03*
Y09709D03*
X0569Y11567D03*
Y11437D03*
X05883Y11567D03*
Y11437D03*
G54D48*
X0521Y10554D03*
X05123Y10516D03*
Y10591D03*
X04763Y10554D03*
X0485Y10591D03*
Y10516D03*
G54D49*
X05012Y10594D03*
X04961D03*
X05012Y10514D03*
X04961D03*
X04691Y11394D03*
X04742D03*
X03422Y11404D03*
X03371D03*
X04412Y10414D03*
X04361D03*
X04571Y11394D03*
X04622D03*
X03542Y11404D03*
X03491D03*
G54D50*
X02256Y11241D03*
G54D51*
X02256Y11311D03*
G54D52*
X04782Y11514D03*
X04526D03*
X03329D03*
X03584D03*
G54D53*
X05201Y10845D03*
X05151D03*
X05101D03*
X05051D03*
X05001D03*
X04951D03*
X04901D03*
X04851D03*
Y11062D03*
X04901D03*
X04951D03*
X05001D03*
X05051D03*
X05101D03*
X05151D03*
X05201D03*
G54D54*
X03586Y11174D03*
X04776Y11154D03*
X05276Y10994D03*
X03586Y11258D03*
X04486Y11174D03*
Y11094D03*
X04056Y10534D03*
X03976D03*
X04506Y10544D03*
G54D55*
X03847Y10534D03*
X03906D03*
X04176D03*
X04117D03*
G54D56*
X05492Y11394D03*
X05301D03*
G54D57*
X05504Y11514D03*
X05289D03*
G54D58*
X02418Y09964D03*
X02496D03*
X02575D03*
X05566D03*
X05645D03*
X05724D03*
G54D59*
X02339Y09964D03*
X05488D03*
G54D60*
X03856Y09974D03*
X04056D03*
X03956D03*
X04776Y09764D03*
X04876D03*
X03232Y10334D03*
X02976D03*
G54D61*
X04156Y09974D03*
X04976Y09764D03*
G54D62*
X03556Y09774D03*
G54D63*
X03656Y09774D03*
X03756D03*
X03856D03*
X03956D03*
X04056D03*
X04156D03*
X04256D03*
X04356D03*
X04456D03*
G54D64*
X02976Y10334D03*
G54D65*
X02726Y10824D03*
Y10624D03*
Y10724D03*
Y10524D03*
Y10424D03*
Y10324D03*
Y10224D03*
Y10124D03*
X02226D03*
Y10224D03*
Y10324D03*
Y10424D03*
Y10524D03*
Y10624D03*
Y10724D03*
X05826Y10824D03*
Y10624D03*
Y10724D03*
Y10524D03*
Y10424D03*
Y10324D03*
Y10224D03*
Y10124D03*
X05326D03*
Y10224D03*
Y10324D03*
Y10424D03*
Y10524D03*
Y10624D03*
Y10724D03*
X02466Y11314D03*
X02566Y11414D03*
Y11314D03*
G54D66*
X02226Y10824D03*
X05326D03*
X02466Y11414D03*
G54D67*
X03129Y0995D03*
X04921D03*
G54D68*
X05536Y10914D03*
X02566Y10584D03*
X02496D03*
X02386Y10824D03*
X03426Y10514D03*
X02546Y11164D03*
X02896Y11004D03*
X04086Y10164D03*
X04006Y10224D03*
X05236Y09874D03*
X05116Y09764D03*
X04326Y10224D03*
X04176Y10164D03*
X04476Y10704D03*
X05056Y11134D03*
X04656Y10884D03*
X05106Y10734D03*
X02766Y09894D03*
X03626Y10404D03*
X03486Y10114D03*
X03316Y09834D03*
X03476Y10894D03*
X03166D03*
X02766Y11104D03*
X04656Y09984D03*
X04836Y10104D03*
X05196Y10304D03*
X05146Y10114D03*
X05826Y10004D03*
X03166Y11094D03*
X02166Y11184D03*
X02766Y11534D03*
X03136D03*
X04836Y10744D03*
X04906Y11434D03*
X05116D03*
X05616Y11334D03*
X05836Y11204D03*
X02946Y09804D03*
X05206Y10634D03*
X04816Y11234D03*
X04656Y11114D03*
X03184Y11176D03*
X03296Y11354D03*
X04476Y10844D03*
Y10774D03*
G36*
X09476Y11427D02*
X09563D01*
Y11362*
X09476*
Y11427*
G37*
G36*
Y11464D02*
X09497D01*
Y11545*
X09497Y11546*
X09497Y11547*
X09497Y11548*
X09497Y11549*
X09497Y1155*
X09498Y11551*
X09498Y11552*
X09498Y11553*
X09499Y11554*
X09499Y11555*
X095Y11556*
X095Y11557*
X09501Y11557*
X09502Y11558*
X09502Y11559*
X09503Y1156*
X09504Y1156*
X09505Y11561*
X09506Y11562*
X09507Y11562*
X09507Y11563*
X09508Y11563*
X09509Y11563*
X0951Y11564*
X09511Y11564*
X09512Y11564*
X09513Y11564*
X09514Y11565*
X09515Y11565*
X09516Y11565*
X09536*
X09537Y11565*
X09538Y11565*
X09539Y11564*
X0954Y11564*
X09541Y11564*
X09542Y11564*
X09543Y11563*
X09544Y11563*
X09545Y11563*
X09546Y11562*
X09547Y11562*
X09548Y11561*
X09548Y1156*
X09549Y1156*
X0955Y11559*
X09551Y11558*
X09551Y11557*
X09552Y11557*
X09553Y11556*
X09553Y11555*
X09554Y11554*
X09554Y11553*
X09554Y11552*
X09555Y11551*
X09555Y1155*
X09555Y11549*
X09556Y11548*
X09556Y11547*
X09556Y11546*
X09556Y11545*
Y11429*
X09476*
Y11464*
G37*
G36*
X09704Y11427D02*
X09791D01*
Y11362*
X09704*
Y11427*
G37*
G36*
X09711Y11545D02*
X09711Y11546D01*
X09711Y11547*
X09712Y11548*
X09712Y11549*
X09712Y1155*
X09712Y11551*
X09713Y11552*
X09713Y11553*
X09713Y11554*
X09714Y11555*
X09714Y11556*
X09715Y11557*
X09716Y11557*
X09716Y11558*
X09717Y11559*
X09718Y1156*
X09719Y1156*
X09719Y11561*
X0972Y11562*
X09721Y11562*
X09722Y11563*
X09723Y11563*
X09724Y11563*
X09725Y11564*
X09726Y11564*
X09727Y11564*
X09728Y11564*
X09729Y11565*
X0973Y11565*
X09731Y11565*
X09751*
X09752Y11565*
X09753Y11565*
X09754Y11564*
X09755Y11564*
X09756Y11564*
X09757Y11564*
X09758Y11563*
X09759Y11563*
X0976Y11563*
X0976Y11562*
X09761Y11562*
X09762Y11561*
X09763Y1156*
X09764Y1156*
X09765Y11559*
X09765Y11558*
X09766Y11557*
X09767Y11557*
X09767Y11556*
X09768Y11555*
X09768Y11554*
X09769Y11553*
X09769Y11552*
X09769Y11551*
X0977Y1155*
X0977Y11549*
X0977Y11548*
X0977Y11547*
X0977Y11546*
X0977Y11545*
Y11464*
X09791*
Y11429*
X09711*
Y11545*
G37*
G54D18*
X09434Y1069D03*
Y10737D03*
G54D21*
X07867Y09964D03*
X0792D03*
G54D28*
X07959Y11308D03*
Y11258D03*
Y11208D03*
Y11158D03*
Y11108D03*
Y11058D03*
Y11008D03*
Y10958D03*
Y10908D03*
Y10858D03*
Y10808D03*
Y10758D03*
Y10708D03*
Y10658D03*
X08628D03*
Y10708D03*
Y10758D03*
Y10808D03*
Y10858D03*
Y10908D03*
Y10958D03*
Y11008D03*
Y11058D03*
Y11108D03*
Y11158D03*
Y11208D03*
Y11258D03*
Y11308D03*
G54D29*
X08069Y10619D03*
X08119D03*
X08169D03*
X08219D03*
X08269D03*
X08319D03*
X08369D03*
X08419D03*
X08469D03*
X08519D03*
G54D30*
X08182Y11085D03*
X08254D03*
X08326D03*
X08182Y11013D03*
X08254D03*
X08326D03*
X08182Y10941D03*
X08254D03*
X08326D03*
G54D39*
X07584Y11079D03*
Y11248D03*
G54D40*
X09354Y1037D03*
Y10424D03*
G54D41*
X10058Y11004D03*
X09889D03*
X06469D03*
X06638D03*
G54D42*
X07867Y09894D03*
X0792D03*
G54D43*
X09596Y11269D03*
X09634D03*
X09671D03*
Y11178D03*
X09634D03*
X09596D03*
G54D44*
X08783Y10414D03*
X08724D03*
G54D45*
X09685Y11402D03*
X09659D03*
X09634D03*
X09608D03*
X09582D03*
G54D46*
X09671Y11523D03*
X09596D03*
G54D47*
X06586Y11437D03*
Y11567D03*
X06393Y11437D03*
Y11567D03*
Y09838D03*
Y09709D03*
X06586Y09838D03*
Y09709D03*
X09927Y09838D03*
Y09709D03*
X1012Y09838D03*
Y09709D03*
X09927Y11567D03*
Y11437D03*
X1012Y11567D03*
Y11437D03*
G54D48*
X09447Y10554D03*
X0936Y10516D03*
Y10591D03*
X09Y10554D03*
X09087Y10591D03*
Y10516D03*
G54D49*
X09249Y10594D03*
X09198D03*
X09249Y10514D03*
X09198D03*
X08928Y11394D03*
X08979D03*
X07659Y11404D03*
X07608D03*
X08649Y10414D03*
X08598D03*
X08808Y11394D03*
X08859D03*
X07779Y11404D03*
X07728D03*
G54D50*
X06494Y11241D03*
G54D51*
X06494Y11311D03*
G54D52*
X09019Y11514D03*
X08764D03*
X07566D03*
X07821D03*
G54D53*
X09439Y10845D03*
X09389D03*
X09339D03*
X09289D03*
X09239D03*
X09189D03*
X09139D03*
X09089D03*
Y11062D03*
X09139D03*
X09189D03*
X09239D03*
X09289D03*
X09339D03*
X09389D03*
X09439D03*
G54D54*
X07824Y11174D03*
X09014Y11154D03*
X09514Y10994D03*
X07824Y11258D03*
X08724Y11174D03*
Y11094D03*
X08294Y10534D03*
X08214D03*
X08744Y10544D03*
G54D55*
X08084Y10534D03*
X08144D03*
X08413D03*
X08354D03*
G54D56*
X09729Y11394D03*
X09538D03*
G54D57*
X09741Y11514D03*
X09526D03*
G54D58*
X06655Y09964D03*
X06734D03*
X06812D03*
X09804D03*
X09882D03*
X09961D03*
G54D59*
X06576Y09964D03*
X09725D03*
G54D60*
X08094Y09974D03*
X08294D03*
X08194D03*
X09014Y09764D03*
X09114D03*
X07469Y10334D03*
X07214D03*
G54D61*
X08394Y09974D03*
X09214Y09764D03*
G54D62*
X07794Y09774D03*
G54D63*
X07894Y09774D03*
X07994D03*
X08094D03*
X08194D03*
X08294D03*
X08394D03*
X08494D03*
X08594D03*
X08694D03*
G54D64*
X07214Y10334D03*
G54D65*
X06964Y10824D03*
Y10624D03*
Y10724D03*
Y10524D03*
Y10424D03*
Y10324D03*
Y10224D03*
Y10124D03*
X06464D03*
Y10224D03*
Y10324D03*
Y10424D03*
Y10524D03*
Y10624D03*
Y10724D03*
X10064Y10824D03*
Y10624D03*
Y10724D03*
Y10524D03*
Y10424D03*
Y10324D03*
Y10224D03*
Y10124D03*
X09564D03*
Y10224D03*
Y10324D03*
Y10424D03*
Y10524D03*
Y10624D03*
Y10724D03*
X06704Y11314D03*
X06804Y11414D03*
Y11314D03*
G54D66*
X06464Y10824D03*
X09564D03*
X06704Y11414D03*
G54D67*
X07366Y0995D03*
X09158D03*
G54D68*
X09774Y10914D03*
X06804Y10584D03*
X06734D03*
X06624Y10824D03*
X07664Y10514D03*
X06784Y11164D03*
X07134Y11004D03*
X08324Y10164D03*
X08244Y10224D03*
X09474Y09874D03*
X09354Y09764D03*
X08564Y10224D03*
X08414Y10164D03*
X08714Y10704D03*
X09294Y11134D03*
X08894Y10884D03*
X09344Y10734D03*
X07004Y09894D03*
X07864Y10404D03*
X07724Y10114D03*
X07554Y09834D03*
X07714Y10894D03*
X07404D03*
X07004Y11104D03*
X08894Y09984D03*
X09074Y10104D03*
X09434Y10304D03*
X09384Y10114D03*
X10064Y10004D03*
X07404Y11094D03*
X06404Y11184D03*
X07004Y11534D03*
X07374D03*
X09074Y10744D03*
X09144Y11434D03*
X09354D03*
X09854Y11334D03*
X10074Y11204D03*
X07184Y09804D03*
X09444Y10634D03*
X09054Y11234D03*
X08894Y11114D03*
X07422Y11176D03*
X07534Y11354D03*
X08714Y10844D03*
Y10774D03*
G36*
X05239Y13689D02*
X05326D01*
Y13624*
X05239*
Y13689*
G37*
G36*
Y13726D02*
X0526D01*
Y13807*
X0526Y13808*
X0526Y13809*
X0526Y1381*
X0526Y13811*
X0526Y13812*
X05261Y13813*
X05261Y13814*
X05261Y13815*
X05262Y13816*
X05262Y13817*
X05263Y13818*
X05263Y13819*
X05264Y13819*
X05265Y1382*
X05265Y13821*
X05266Y13822*
X05267Y13822*
X05268Y13823*
X05269Y13824*
X0527Y13824*
X0527Y13825*
X05271Y13825*
X05272Y13825*
X05273Y13826*
X05274Y13826*
X05275Y13826*
X05276Y13826*
X05277Y13827*
X05278Y13827*
X05279Y13827*
X05299*
X053Y13827*
X05301Y13827*
X05302Y13826*
X05303Y13826*
X05304Y13826*
X05305Y13826*
X05306Y13825*
X05307Y13825*
X05308Y13825*
X05309Y13824*
X0531Y13824*
X05311Y13823*
X05311Y13822*
X05312Y13822*
X05313Y13821*
X05314Y1382*
X05314Y13819*
X05315Y13819*
X05316Y13818*
X05316Y13817*
X05317Y13816*
X05317Y13815*
X05317Y13814*
X05318Y13813*
X05318Y13812*
X05318Y13811*
X05318Y1381*
X05319Y13809*
X05319Y13808*
X05319Y13807*
Y13691*
X05239*
Y13726*
G37*
G36*
X05467Y13689D02*
X05554D01*
Y13624*
X05467*
Y13689*
G37*
G36*
X05474Y13807D02*
X05474Y13808D01*
X05474Y13809*
X05474Y1381*
X05475Y13811*
X05475Y13812*
X05475Y13813*
X05476Y13814*
X05476Y13815*
X05476Y13816*
X05477Y13817*
X05477Y13818*
X05478Y13819*
X05479Y13819*
X05479Y1382*
X0548Y13821*
X05481Y13822*
X05482Y13822*
X05482Y13823*
X05483Y13824*
X05484Y13824*
X05485Y13825*
X05486Y13825*
X05487Y13825*
X05488Y13826*
X05489Y13826*
X0549Y13826*
X05491Y13826*
X05492Y13827*
X05493Y13827*
X05494Y13827*
X05514*
X05515Y13827*
X05516Y13827*
X05517Y13826*
X05518Y13826*
X05519Y13826*
X0552Y13826*
X05521Y13825*
X05522Y13825*
X05523Y13825*
X05523Y13824*
X05524Y13824*
X05525Y13823*
X05526Y13822*
X05527Y13822*
X05528Y13821*
X05528Y1382*
X05529Y13819*
X0553Y13819*
X0553Y13818*
X05531Y13817*
X05531Y13816*
X05532Y13815*
X05532Y13814*
X05532Y13813*
X05533Y13812*
X05533Y13811*
X05533Y1381*
X05533Y13809*
X05533Y13808*
X05533Y13807*
Y13726*
X05554*
Y13691*
X05474*
Y13807*
G37*
G54D18*
X05196Y12952D03*
Y12999D03*
G54D21*
X0363Y12226D03*
X03683D03*
G54D28*
X03722Y1357D03*
Y1352D03*
Y1347D03*
Y1342D03*
Y1337D03*
Y1332D03*
Y1327D03*
Y1322D03*
Y1317D03*
Y1312D03*
Y1307D03*
Y1302D03*
Y1297D03*
Y1292D03*
X04391D03*
Y1297D03*
Y1302D03*
Y1307D03*
Y1312D03*
Y1317D03*
Y1322D03*
Y1327D03*
Y1332D03*
Y1337D03*
Y1342D03*
Y1347D03*
Y1352D03*
Y1357D03*
G54D29*
X03831Y12881D03*
X03881D03*
X03931D03*
X03981D03*
X04031D03*
X04081D03*
X04131D03*
X04181D03*
X04231D03*
X04281D03*
G54D30*
X03945Y13347D03*
X04017D03*
X04089D03*
X03945Y13275D03*
X04017D03*
X04089D03*
X03945Y13203D03*
X04017D03*
X04089D03*
G54D39*
X03346Y13341D03*
Y1351D03*
G54D40*
X05116Y12632D03*
Y12686D03*
G54D41*
X05821Y13266D03*
X05652D03*
X02232D03*
X02401D03*
G54D42*
X0363Y12156D03*
X03683D03*
G54D43*
X05359Y13531D03*
X05396D03*
X05434D03*
Y1344D03*
X05396D03*
X05359D03*
G54D44*
X04546Y12676D03*
X04487D03*
G54D45*
X05448Y13664D03*
X05422D03*
X05396D03*
X05371D03*
X05345D03*
G54D46*
X05434Y13785D03*
X05359D03*
G54D47*
X02349Y13699D03*
Y13829D03*
X02156Y13699D03*
Y13829D03*
Y121D03*
Y11971D03*
X02349Y121D03*
Y11971D03*
X0569Y121D03*
Y11971D03*
X05883Y121D03*
Y11971D03*
X0569Y13829D03*
Y13699D03*
X05883Y13829D03*
Y13699D03*
G54D48*
X0521Y12816D03*
X05123Y12778D03*
Y12853D03*
X04763Y12816D03*
X0485Y12853D03*
Y12778D03*
G54D49*
X05012Y12856D03*
X04961D03*
X05012Y12776D03*
X04961D03*
X04691Y13656D03*
X04742D03*
X03422Y13666D03*
X03371D03*
X04412Y12676D03*
X04361D03*
X04571Y13656D03*
X04622D03*
X03542Y13666D03*
X03491D03*
G54D50*
X02256Y13503D03*
G54D51*
X02256Y13573D03*
G54D52*
X04782Y13776D03*
X04526D03*
X03329D03*
X03584D03*
G54D53*
X05201Y13107D03*
X05151D03*
X05101D03*
X05051D03*
X05001D03*
X04951D03*
X04901D03*
X04851D03*
Y13324D03*
X04901D03*
X04951D03*
X05001D03*
X05051D03*
X05101D03*
X05151D03*
X05201D03*
G54D54*
X03586Y13436D03*
X04776Y13416D03*
X05276Y13256D03*
X03586Y1352D03*
X04486Y13436D03*
Y13356D03*
X04056Y12796D03*
X03976D03*
X04506Y12806D03*
G54D55*
X03847Y12796D03*
X03906D03*
X04176D03*
X04117D03*
G54D56*
X05492Y13656D03*
X05301D03*
G54D57*
X05504Y13776D03*
X05289D03*
G54D58*
X02418Y12226D03*
X02496D03*
X02575D03*
X05566D03*
X05645D03*
X05724D03*
G54D59*
X02339Y12226D03*
X05488D03*
G54D60*
X03856Y12236D03*
X04056D03*
X03956D03*
X04776Y12026D03*
X04876D03*
X03232Y12596D03*
X02976D03*
G54D61*
X04156Y12236D03*
X04976Y12026D03*
G54D62*
X03556Y12036D03*
G54D63*
X03656Y12036D03*
X03756D03*
X03856D03*
X03956D03*
X04056D03*
X04156D03*
X04256D03*
X04356D03*
X04456D03*
G54D64*
X02976Y12596D03*
G54D65*
X02726Y13086D03*
Y12886D03*
Y12986D03*
Y12786D03*
Y12686D03*
Y12586D03*
Y12486D03*
Y12386D03*
X02226D03*
Y12486D03*
Y12586D03*
Y12686D03*
Y12786D03*
Y12886D03*
Y12986D03*
X05826Y13086D03*
Y12886D03*
Y12986D03*
Y12786D03*
Y12686D03*
Y12586D03*
Y12486D03*
Y12386D03*
X05326D03*
Y12486D03*
Y12586D03*
Y12686D03*
Y12786D03*
Y12886D03*
Y12986D03*
X02466Y13576D03*
X02566Y13676D03*
Y13576D03*
G54D66*
X02226Y13086D03*
X05326D03*
X02466Y13676D03*
G54D67*
X03129Y12212D03*
X04921D03*
G54D68*
X05536Y13176D03*
X02566Y12846D03*
X02496D03*
X02386Y13086D03*
X03426Y12776D03*
X02546Y13426D03*
X02896Y13266D03*
X04086Y12426D03*
X04006Y12486D03*
X05236Y12136D03*
X05116Y12026D03*
X04326Y12486D03*
X04176Y12426D03*
X04476Y12966D03*
X05056Y13396D03*
X04656Y13146D03*
X05106Y12996D03*
X02766Y12156D03*
X03626Y12666D03*
X03486Y12376D03*
X03316Y12096D03*
X03476Y13156D03*
X03166D03*
X02766Y13366D03*
X04656Y12246D03*
X04836Y12366D03*
X05196Y12566D03*
X05146Y12376D03*
X05826Y12266D03*
X03166Y13356D03*
X02166Y13446D03*
X02766Y13796D03*
X03136D03*
X04836Y13006D03*
X04906Y13696D03*
X05116D03*
X05616Y13596D03*
X05836Y13466D03*
X02946Y12066D03*
X05206Y12896D03*
X04816Y13496D03*
X04656Y13376D03*
X03184Y13438D03*
X03296Y13616D03*
X04476Y13106D03*
Y13036D03*
G36*
X09476Y13689D02*
X09563D01*
Y13624*
X09476*
Y13689*
G37*
G36*
Y13726D02*
X09497D01*
Y13807*
X09497Y13808*
X09497Y13809*
X09497Y1381*
X09497Y13811*
X09497Y13812*
X09498Y13813*
X09498Y13814*
X09498Y13815*
X09499Y13816*
X09499Y13817*
X095Y13818*
X095Y13819*
X09501Y13819*
X09502Y1382*
X09502Y13821*
X09503Y13822*
X09504Y13822*
X09505Y13823*
X09506Y13824*
X09507Y13824*
X09507Y13825*
X09508Y13825*
X09509Y13825*
X0951Y13826*
X09511Y13826*
X09512Y13826*
X09513Y13826*
X09514Y13827*
X09515Y13827*
X09516Y13827*
X09536*
X09537Y13827*
X09538Y13827*
X09539Y13826*
X0954Y13826*
X09541Y13826*
X09542Y13826*
X09543Y13825*
X09544Y13825*
X09545Y13825*
X09546Y13824*
X09547Y13824*
X09548Y13823*
X09548Y13822*
X09549Y13822*
X0955Y13821*
X09551Y1382*
X09551Y13819*
X09552Y13819*
X09553Y13818*
X09553Y13817*
X09554Y13816*
X09554Y13815*
X09554Y13814*
X09555Y13813*
X09555Y13812*
X09555Y13811*
X09556Y1381*
X09556Y13809*
X09556Y13808*
X09556Y13807*
Y13691*
X09476*
Y13726*
G37*
G36*
X09704Y13689D02*
X09791D01*
Y13624*
X09704*
Y13689*
G37*
G36*
X09711Y13807D02*
X09711Y13808D01*
X09711Y13809*
X09712Y1381*
X09712Y13811*
X09712Y13812*
X09712Y13813*
X09713Y13814*
X09713Y13815*
X09713Y13816*
X09714Y13817*
X09714Y13818*
X09715Y13819*
X09716Y13819*
X09716Y1382*
X09717Y13821*
X09718Y13822*
X09719Y13822*
X09719Y13823*
X0972Y13824*
X09721Y13824*
X09722Y13825*
X09723Y13825*
X09724Y13825*
X09725Y13826*
X09726Y13826*
X09727Y13826*
X09728Y13826*
X09729Y13827*
X0973Y13827*
X09731Y13827*
X09751*
X09752Y13827*
X09753Y13827*
X09754Y13826*
X09755Y13826*
X09756Y13826*
X09757Y13826*
X09758Y13825*
X09759Y13825*
X0976Y13825*
X0976Y13824*
X09761Y13824*
X09762Y13823*
X09763Y13822*
X09764Y13822*
X09765Y13821*
X09765Y1382*
X09766Y13819*
X09767Y13819*
X09767Y13818*
X09768Y13817*
X09768Y13816*
X09769Y13815*
X09769Y13814*
X09769Y13813*
X0977Y13812*
X0977Y13811*
X0977Y1381*
X0977Y13809*
X0977Y13808*
X0977Y13807*
Y13726*
X09791*
Y13691*
X09711*
Y13807*
G37*
G54D18*
X09434Y12952D03*
Y12999D03*
G54D21*
X07867Y12226D03*
X0792D03*
G54D28*
X07959Y1357D03*
Y1352D03*
Y1347D03*
Y1342D03*
Y1337D03*
Y1332D03*
Y1327D03*
Y1322D03*
Y1317D03*
Y1312D03*
Y1307D03*
Y1302D03*
Y1297D03*
Y1292D03*
X08628D03*
Y1297D03*
Y1302D03*
Y1307D03*
Y1312D03*
Y1317D03*
Y1322D03*
Y1327D03*
Y1332D03*
Y1337D03*
Y1342D03*
Y1347D03*
Y1352D03*
Y1357D03*
G54D29*
X08069Y12881D03*
X08119D03*
X08169D03*
X08219D03*
X08269D03*
X08319D03*
X08369D03*
X08419D03*
X08469D03*
X08519D03*
G54D30*
X08182Y13347D03*
X08254D03*
X08326D03*
X08182Y13275D03*
X08254D03*
X08326D03*
X08182Y13203D03*
X08254D03*
X08326D03*
G54D39*
X07584Y13341D03*
Y1351D03*
G54D40*
X09354Y12632D03*
Y12686D03*
G54D41*
X10058Y13266D03*
X09889D03*
X06469D03*
X06638D03*
G54D42*
X07867Y12156D03*
X0792D03*
G54D43*
X09596Y13531D03*
X09634D03*
X09671D03*
Y1344D03*
X09634D03*
X09596D03*
G54D44*
X08783Y12676D03*
X08724D03*
G54D45*
X09685Y13664D03*
X09659D03*
X09634D03*
X09608D03*
X09582D03*
G54D46*
X09671Y13785D03*
X09596D03*
G54D47*
X06586Y13699D03*
Y13829D03*
X06393Y13699D03*
Y13829D03*
Y121D03*
Y11971D03*
X06586Y121D03*
Y11971D03*
X09927Y121D03*
Y11971D03*
X1012Y121D03*
Y11971D03*
X09927Y13829D03*
Y13699D03*
X1012Y13829D03*
Y13699D03*
G54D48*
X09447Y12816D03*
X0936Y12778D03*
Y12853D03*
X09Y12816D03*
X09087Y12853D03*
Y12778D03*
G54D49*
X09249Y12856D03*
X09198D03*
X09249Y12776D03*
X09198D03*
X08928Y13656D03*
X08979D03*
X07659Y13666D03*
X07608D03*
X08649Y12676D03*
X08598D03*
X08808Y13656D03*
X08859D03*
X07779Y13666D03*
X07728D03*
G54D50*
X06494Y13503D03*
G54D51*
X06494Y13573D03*
G54D52*
X09019Y13776D03*
X08764D03*
X07566D03*
X07821D03*
G54D53*
X09439Y13107D03*
X09389D03*
X09339D03*
X09289D03*
X09239D03*
X09189D03*
X09139D03*
X09089D03*
Y13324D03*
X09139D03*
X09189D03*
X09239D03*
X09289D03*
X09339D03*
X09389D03*
X09439D03*
G54D54*
X07824Y13436D03*
X09014Y13416D03*
X09514Y13256D03*
X07824Y1352D03*
X08724Y13436D03*
Y13356D03*
X08294Y12796D03*
X08214D03*
X08744Y12806D03*
G54D55*
X08084Y12796D03*
X08144D03*
X08413D03*
X08354D03*
G54D56*
X09729Y13656D03*
X09538D03*
G54D57*
X09741Y13776D03*
X09526D03*
G54D58*
X06655Y12226D03*
X06734D03*
X06812D03*
X09804D03*
X09882D03*
X09961D03*
G54D59*
X06576Y12226D03*
X09725D03*
G54D60*
X08094Y12236D03*
X08294D03*
X08194D03*
X09014Y12026D03*
X09114D03*
X07469Y12596D03*
X07214D03*
G54D61*
X08394Y12236D03*
X09214Y12026D03*
G54D62*
X07794Y12036D03*
G54D63*
X07894Y12036D03*
X07994D03*
X08094D03*
X08194D03*
X08294D03*
X08394D03*
X08494D03*
X08594D03*
X08694D03*
G54D64*
X07214Y12596D03*
G54D65*
X06964Y13086D03*
Y12886D03*
Y12986D03*
Y12786D03*
Y12686D03*
Y12586D03*
Y12486D03*
Y12386D03*
X06464D03*
Y12486D03*
Y12586D03*
Y12686D03*
Y12786D03*
Y12886D03*
Y12986D03*
X10064Y13086D03*
Y12886D03*
Y12986D03*
Y12786D03*
Y12686D03*
Y12586D03*
Y12486D03*
Y12386D03*
X09564D03*
Y12486D03*
Y12586D03*
Y12686D03*
Y12786D03*
Y12886D03*
Y12986D03*
X06704Y13576D03*
X06804Y13676D03*
Y13576D03*
G54D66*
X06464Y13086D03*
X09564D03*
X06704Y13676D03*
G54D67*
X07366Y12212D03*
X09158D03*
G54D68*
X09774Y13176D03*
X06804Y12846D03*
X06734D03*
X06624Y13086D03*
X07664Y12776D03*
X06784Y13426D03*
X07134Y13266D03*
X08324Y12426D03*
X08244Y12486D03*
X09474Y12136D03*
X09354Y12026D03*
X08564Y12486D03*
X08414Y12426D03*
X08714Y12966D03*
X09294Y13396D03*
X08894Y13146D03*
X09344Y12996D03*
X07004Y12156D03*
X07864Y12666D03*
X07724Y12376D03*
X07554Y12096D03*
X07714Y13156D03*
X07404D03*
X07004Y13366D03*
X08894Y12246D03*
X09074Y12366D03*
X09434Y12566D03*
X09384Y12376D03*
X10064Y12266D03*
X07404Y13356D03*
X06404Y13446D03*
X07004Y13796D03*
X07374D03*
X09074Y13006D03*
X09144Y13696D03*
X09354D03*
X09854Y13596D03*
X10074Y13466D03*
X07184Y12066D03*
X09444Y12896D03*
X09054Y13496D03*
X08894Y13376D03*
X07422Y13438D03*
X07534Y13616D03*
X08714Y13106D03*
Y13036D03*
M02*