G04*
G04 #@! TF.GenerationSoftware,Altium Limited,Altium Designer,22.0.2 (36)*
G04*
G04 Layer_Color=16711935*
%FSLAX25Y25*%
%MOIN*%
G70*
G04*
G04 #@! TF.SameCoordinates,A5FD766F-ED0D-4258-BB47-254A20FAC7F6*
G04*
G04*
G04 #@! TF.FilePolarity,Positive*
G04*
G01*
G75*
%ADD10C,0.00787*%
%ADD13C,0.00500*%
%ADD15C,0.00394*%
%ADD95C,0.00100*%
%ADD97C,0.00100*%
D10*
X319394Y119000D02*
X318606D01*
X319394D01*
X9394D02*
X8606D01*
X9394D01*
X320051Y138827D02*
X319264D01*
X320051D01*
X157126Y184000D02*
X156339D01*
X157126D01*
X243457D02*
X242669D01*
X243457D01*
X297394Y16000D02*
X296606D01*
X297394D01*
X145394Y18000D02*
X144606D01*
X145394D01*
X216394Y37000D02*
X215606D01*
X216394D01*
X34394Y180000D02*
X33606D01*
X34394D01*
X338520Y22500D02*
X337732D01*
X338520D01*
X23646D02*
X22858D01*
X23646D01*
X339512Y166677D02*
X338724D01*
X339512D01*
D13*
X322000Y120000D02*
X382000D01*
Y40000D02*
Y120000D01*
X322000Y40000D02*
X382000D01*
X322000D02*
Y120000D01*
X12000D02*
X72000D01*
Y40000D02*
Y120000D01*
X12000Y40000D02*
X72000D01*
X12000D02*
Y120000D01*
X316685Y120323D02*
Y135677D01*
X277315Y120323D02*
Y135677D01*
X316685D01*
X277315Y120323D02*
X316685D01*
X128189Y177110D02*
X151811D01*
X128189D02*
Y190890D01*
X151811D01*
Y177110D02*
Y190890D01*
X247984D02*
X271606D01*
Y177110D02*
Y190890D01*
X247984Y177110D02*
X271606D01*
X247984D02*
Y190890D01*
X56000Y159000D02*
Y179000D01*
X36000Y159000D02*
X56000D01*
X36000Y179000D02*
X56000D01*
X36000Y159000D02*
Y179000D01*
X314315Y190693D02*
X348764D01*
X318173Y195102D02*
X349827D01*
X318173D02*
X319236Y192661D01*
X348764D02*
X349827Y195102D01*
X319236Y171756D02*
Y192661D01*
X348764Y190693D02*
Y192661D01*
Y171756D02*
Y190693D01*
X319236Y171756D02*
X348764D01*
D15*
X75717Y178189D02*
X90283D01*
X75717Y151811D02*
X90283D01*
Y178189D01*
X75717Y151811D02*
Y178189D01*
X142555Y171130D02*
Y174870D01*
X149445Y171130D02*
Y174870D01*
X142555D02*
X149445D01*
X142555Y171130D02*
X149445D01*
X257445Y170130D02*
Y173870D01*
X250555Y170130D02*
Y173870D01*
Y170130D02*
X257445D01*
X250555Y173870D02*
X257445D01*
X229555Y72130D02*
Y75870D01*
X236445Y72130D02*
Y75870D01*
X229555D02*
X236445D01*
X229555Y72130D02*
X236445D01*
X130555Y171130D02*
Y174870D01*
X137445Y171130D02*
Y174870D01*
X130555D02*
X137445D01*
X130555Y171130D02*
X137445D01*
X269445Y170130D02*
Y173870D01*
X262555Y170130D02*
Y173870D01*
Y170130D02*
X269445D01*
X262555Y173870D02*
X269445D01*
X17300Y160400D02*
X22700D01*
X22756Y155768D02*
Y164232D01*
X17244Y155768D02*
Y164232D01*
X22756D01*
X17244Y155768D02*
X22756D01*
X135130Y71555D02*
X138870D01*
X135130Y78445D02*
X138870D01*
Y71555D02*
Y78445D01*
X135130Y71555D02*
Y78445D01*
X289555Y82130D02*
Y85870D01*
X296445Y82130D02*
Y85870D01*
X289555D02*
X296445D01*
X289555Y82130D02*
X296445D01*
X289555Y90130D02*
Y93870D01*
X296445Y90130D02*
Y93870D01*
X289555D02*
X296445D01*
X289555Y90130D02*
X296445D01*
X178602Y84130D02*
X185492D01*
X178602Y87870D02*
X185492D01*
Y84130D02*
Y87870D01*
X178602Y84130D02*
Y87870D01*
X205555D02*
X212445D01*
X205555Y84130D02*
X212445D01*
X205555D02*
Y87870D01*
X212445Y84130D02*
Y87870D01*
X272441Y82291D02*
X277559D01*
X272441D02*
Y93709D01*
X277559D01*
Y82291D02*
Y93709D01*
X273819Y82291D02*
X277559Y86032D01*
X308441Y93709D02*
X313559D01*
Y82291D02*
Y93709D01*
X308441Y82291D02*
X313559D01*
X308441D02*
Y93709D01*
Y89969D02*
X312181Y93709D01*
X338226Y24400D02*
X371626D01*
Y33500D01*
X338226D02*
X371626D01*
X338226Y24400D02*
Y33500D01*
X23352Y24400D02*
X56752D01*
Y33500D01*
X23352D02*
X56752D01*
X23352Y24400D02*
Y33500D01*
X242555Y72130D02*
Y75870D01*
X249445Y72130D02*
Y75870D01*
X242555D02*
X249445D01*
X242555Y72130D02*
X249445D01*
X327996Y151555D02*
X340004D01*
X327996Y158445D02*
X340004D01*
X327996Y151555D02*
Y158445D01*
X340004Y151555D02*
Y158445D01*
X163445Y20130D02*
Y23870D01*
X156555Y20130D02*
Y23870D01*
Y20130D02*
X163445D01*
X156555Y23870D02*
X163445D01*
X31807Y122567D02*
X36433Y127193D01*
X15567Y122567D02*
X31807D01*
X15567D02*
Y143433D01*
X31906D01*
X36433Y127193D02*
Y138906D01*
X31906Y143433D02*
X36433Y138906D01*
X357567Y138807D02*
X362193Y143433D01*
X378433D01*
Y122567D02*
Y143433D01*
X362094Y122567D02*
X378433D01*
X357567Y127094D02*
Y138807D01*
Y127094D02*
X362094Y122567D01*
X304130Y75787D02*
X307870D01*
X304130Y68898D02*
X307870D01*
Y75787D01*
X304130Y68898D02*
Y75787D01*
X134807Y159433D02*
X139433Y154807D01*
Y138567D02*
Y154807D01*
X118567Y138567D02*
X139433D01*
X118567D02*
Y154906D01*
X123094Y159433D02*
X134807D01*
X118567Y154906D02*
X123094Y159433D01*
D95*
X18500Y157000D02*
X21500D01*
X18500D02*
Y163000D01*
X21500D01*
Y157000D02*
Y163000D01*
D97*
X17838Y154685D02*
D03*
M02*
