%FSTAX23Y23*%
%MOIN*%
%SFA1B1*%

%IPPOS*%
%ADD11C,0.007870*%
%ADD14C,0.003940*%
%ADD15C,0.005000*%
%ADD95C,0.001000*%
%ADD97C,0.001000*%
%LNcontrolboardv1-1*%
%LPD*%
G54D11*
X05452Y04555D02*
X05444D01*
X05452*
G54D15*
X0Y0D02*
X12286D01*
Y16786*
X0*
Y0*
G54D11*
X02293Y03113D02*
X02285D01*
X02293*
X05442D02*
X05434D01*
X05442*
X0422Y03258D02*
X04213D01*
X0422*
X0351Y03068D02*
X03503D01*
X0351*
X0503Y03048D02*
X05023D01*
X0503*
X04491Y04728D02*
X04483D01*
X04491*
X03628D02*
X0362D01*
X03628*
X05257Y04277D02*
X05249D01*
X05257*
X0215Y04078D02*
X02143D01*
X0215*
X0525D02*
X05243D01*
X0525*
X024Y04688D02*
X02393D01*
X024*
G54D14*
X03242Y04438D02*
X03287Y04483D01*
X03405*
X03242Y04274D02*
Y04438D01*
Y04274D02*
X03451D01*
Y04437*
X03405Y04483D02*
X03451Y04437D01*
X05098Y03577D02*
Y03646D01*
X05135Y03577D02*
Y03646D01*
X05098Y03577D02*
X05135D01*
X05098Y03646D02*
X05135D01*
X05632Y04159D02*
X05677Y04114D01*
X05632Y04159D02*
Y04277D01*
X05677Y04114D02*
X05841D01*
Y04323*
X05678D02*
X05841D01*
X05632Y04277D02*
X05678Y04323D01*
X02376D02*
X02421Y04278D01*
Y0416D02*
Y04278D01*
X02212Y04323D02*
X02376D01*
X02212Y04114D02*
Y04323D01*
Y04114D02*
X02375D01*
X02421Y0416*
X03622Y03127D02*
X03691D01*
X03622Y0309D02*
X03691D01*
X03622D02*
Y03127D01*
X03691Y0309D02*
Y03127D01*
X05457Y04404D02*
Y04473D01*
X05336Y04404D02*
Y04473D01*
X05457*
X05336Y04404D02*
X05457D01*
X04482Y0361D02*
X04551D01*
X04482Y03647D02*
X04551D01*
Y0361D02*
Y03647D01*
X04482Y0361D02*
Y03647D01*
X0229Y03132D02*
Y03223D01*
X02624*
Y03132D02*
Y03223D01*
X0229Y03132D02*
X02624D01*
X05439D02*
Y03223D01*
X05773*
Y03132D02*
Y03223D01*
X05439Y03132D02*
X05773D01*
X05141Y03788D02*
X05178Y03826D01*
X05141Y03711D02*
Y03826D01*
Y03711D02*
X05192D01*
Y03826*
X05141D02*
X05192D01*
X04795Y03711D02*
X04832Y03749D01*
Y03711D02*
Y03826D01*
X04781D02*
X04832D01*
X04781Y03711D02*
Y03826D01*
Y03711D02*
X04832D01*
X04952Y0379D02*
X05021D01*
X04952Y03827D02*
X05021D01*
Y0379D02*
Y03827D01*
X04952Y0379D02*
Y03827D01*
Y0371D02*
X05021D01*
X04952Y03747D02*
X05021D01*
Y0371D02*
Y03747D01*
X04952Y0371D02*
Y03747D01*
X03408Y03604D02*
Y03673D01*
X03445Y03604D02*
Y03673D01*
X03408D02*
X03445D01*
X03408Y03604D02*
X03445D01*
X02229Y04446D02*
X02284D01*
X02229Y04531D02*
X02284D01*
X02229Y04446D02*
Y04531D01*
X02284Y04446D02*
Y04531D01*
X02229Y04492D02*
X02283D01*
X04682Y04627D02*
X04751D01*
X04682Y0459D02*
X04751D01*
X04682D02*
Y04627D01*
X04751Y0459D02*
Y04627D01*
X03362Y046D02*
X03431D01*
X03362Y04637D02*
X03431D01*
Y046D02*
Y04637D01*
X03362Y046D02*
Y04637D01*
X04352Y0361D02*
X04421D01*
X04352Y03647D02*
X04421D01*
Y0361D02*
Y03647D01*
X04352Y0361D02*
Y03647D01*
X04562Y04627D02*
X04631D01*
X04562Y0459D02*
X04631D01*
X04562D02*
Y04627D01*
X04631Y0459D02*
Y04627D01*
X03482Y046D02*
X03551D01*
X03482Y04637D02*
X03551D01*
Y046D02*
Y04637D01*
X03482Y046D02*
Y04637D01*
X02814Y04407D02*
Y0467D01*
X02959Y04407D02*
Y0467D01*
X02814Y04407D02*
X02959D01*
X02814Y0467D02*
X02959D01*
X03843Y0373D02*
Y03767D01*
X03911Y0373D02*
Y03767D01*
X03843D02*
X03911D01*
X03843Y0373D02*
X03911D01*
X04181D02*
Y03767D01*
X04112Y0373D02*
Y03767D01*
Y0373D02*
X04181D01*
X04112Y03767D02*
X04181D01*
G54D15*
X05249Y04606D02*
X05544D01*
Y04795*
Y04815*
X05249Y04606D02*
Y04815D01*
X05544D02*
X05555Y0484D01*
X05238D02*
X05249Y04815D01*
X05238Y0484D02*
X05555D01*
X052Y04795D02*
X05544D01*
X04536Y0466D02*
Y04797D01*
Y0466D02*
X04773D01*
Y04797*
X04536D02*
X04773D01*
X03575Y0466D02*
Y04797D01*
X03338D02*
X03575D01*
X03338Y0466D02*
Y04797D01*
Y0466D02*
X03575D01*
X0483Y04092D02*
X05223D01*
X0483Y04245D02*
X05223D01*
X0483Y04092D02*
Y04245D01*
X05223Y04092D02*
Y04245D01*
X02176Y03288D02*
Y04088D01*
Y03288D02*
X02776D01*
Y04088*
X02176D02*
X02776D01*
X05276Y03288D02*
Y04088D01*
Y03288D02*
X05876D01*
Y04088*
X05276D02*
X05876D01*
X02416Y04478D02*
Y04678D01*
X02616*
X02416Y04478D02*
X02616D01*
Y04678*
G54D95*
X02271Y04458D02*
Y04518D01*
X02241D02*
X02271D01*
X02241Y04458D02*
Y04518D01*
Y04458D02*
X02271D01*
G54D97*
X02235Y04435D03*
G54D11*
X09689Y04555D02*
X09681D01*
X09689*
X0653Y03113D02*
X06522D01*
X0653*
X09679D02*
X09671D01*
X09679*
X08457Y03258D02*
X0845D01*
X08457*
X07747Y03068D02*
X0774D01*
X07747*
X09267Y03048D02*
X0926D01*
X09267*
X08728Y04728D02*
X0872D01*
X08728*
X07865D02*
X07857D01*
X07865*
X09494Y04277D02*
X09486D01*
X09494*
X06387Y04078D02*
X0638D01*
X06387*
X09487D02*
X0948D01*
X09487*
X06637Y04688D02*
X0663D01*
X06637*
G54D14*
X07479Y04438D02*
X07524Y04483D01*
X07642*
X07479Y04274D02*
Y04438D01*
Y04274D02*
X07688D01*
Y04437*
X07642Y04483D02*
X07688Y04437D01*
X09335Y03577D02*
Y03646D01*
X09372Y03577D02*
Y03646D01*
X09335Y03577D02*
X09372D01*
X09335Y03646D02*
X09372D01*
X09869Y04159D02*
X09914Y04114D01*
X09869Y04159D02*
Y04277D01*
X09914Y04114D02*
X10078D01*
Y04323*
X09915D02*
X10078D01*
X09869Y04277D02*
X09915Y04323D01*
X06613D02*
X06658Y04278D01*
Y0416D02*
Y04278D01*
X06449Y04323D02*
X06613D01*
X06449Y04114D02*
Y04323D01*
Y04114D02*
X06612D01*
X06658Y0416*
X07859Y03127D02*
X07928D01*
X07859Y0309D02*
X07928D01*
X07859D02*
Y03127D01*
X07928Y0309D02*
Y03127D01*
X09694Y04404D02*
Y04473D01*
X09573Y04404D02*
Y04473D01*
X09694*
X09573Y04404D02*
X09694D01*
X08719Y0361D02*
X08788D01*
X08719Y03647D02*
X08788D01*
Y0361D02*
Y03647D01*
X08719Y0361D02*
Y03647D01*
X06527Y03132D02*
Y03223D01*
X06861*
Y03132D02*
Y03223D01*
X06527Y03132D02*
X06861D01*
X09676D02*
Y03223D01*
X1001*
Y03132D02*
Y03223D01*
X09676Y03132D02*
X1001D01*
X09378Y03788D02*
X09415Y03826D01*
X09378Y03711D02*
Y03826D01*
Y03711D02*
X09429D01*
Y03826*
X09378D02*
X09429D01*
X09032Y03711D02*
X09069Y03749D01*
Y03711D02*
Y03826D01*
X09018D02*
X09069D01*
X09018Y03711D02*
Y03826D01*
Y03711D02*
X09069D01*
X09189Y0379D02*
X09258D01*
X09189Y03827D02*
X09258D01*
Y0379D02*
Y03827D01*
X09189Y0379D02*
Y03827D01*
Y0371D02*
X09258D01*
X09189Y03747D02*
X09258D01*
Y0371D02*
Y03747D01*
X09189Y0371D02*
Y03747D01*
X07645Y03604D02*
Y03673D01*
X07682Y03604D02*
Y03673D01*
X07645D02*
X07682D01*
X07645Y03604D02*
X07682D01*
X06466Y04446D02*
X06521D01*
X06466Y04531D02*
X06521D01*
X06466Y04446D02*
Y04531D01*
X06521Y04446D02*
Y04531D01*
X06467Y04492D02*
X06521D01*
X08919Y04627D02*
X08988D01*
X08919Y0459D02*
X08988D01*
X08919D02*
Y04627D01*
X08988Y0459D02*
Y04627D01*
X07599Y046D02*
X07668D01*
X07599Y04637D02*
X07668D01*
Y046D02*
Y04637D01*
X07599Y046D02*
Y04637D01*
X08589Y0361D02*
X08658D01*
X08589Y03647D02*
X08658D01*
Y0361D02*
Y03647D01*
X08589Y0361D02*
Y03647D01*
X08799Y04627D02*
X08868D01*
X08799Y0459D02*
X08868D01*
X08799D02*
Y04627D01*
X08868Y0459D02*
Y04627D01*
X07719Y046D02*
X07788D01*
X07719Y04637D02*
X07788D01*
Y046D02*
Y04637D01*
X07719Y046D02*
Y04637D01*
X07051Y04407D02*
Y0467D01*
X07196Y04407D02*
Y0467D01*
X07051Y04407D02*
X07196D01*
X07051Y0467D02*
X07196D01*
X0808Y0373D02*
Y03767D01*
X08148Y0373D02*
Y03767D01*
X0808D02*
X08148D01*
X0808Y0373D02*
X08148D01*
X08418D02*
Y03767D01*
X08349Y0373D02*
Y03767D01*
Y0373D02*
X08418D01*
X08349Y03767D02*
X08418D01*
G54D15*
X09486Y04606D02*
X09781D01*
Y04795*
Y04815*
X09486Y04606D02*
Y04815D01*
X09781D02*
X09792Y0484D01*
X09475D02*
X09486Y04815D01*
X09475Y0484D02*
X09792D01*
X09437Y04795D02*
X09781D01*
X08773Y0466D02*
Y04797D01*
Y0466D02*
X0901D01*
Y04797*
X08773D02*
X0901D01*
X07812Y0466D02*
Y04797D01*
X07575D02*
X07812D01*
X07575Y0466D02*
Y04797D01*
Y0466D02*
X07812D01*
X09067Y04092D02*
X0946D01*
X09067Y04245D02*
X0946D01*
X09067Y04092D02*
Y04245D01*
X0946Y04092D02*
Y04245D01*
X06414Y03288D02*
Y04088D01*
Y03288D02*
X07014D01*
Y04088*
X06414D02*
X07014D01*
X09514Y03288D02*
Y04088D01*
Y03288D02*
X10114D01*
Y04088*
X09514D02*
X10114D01*
X06654Y04478D02*
Y04678D01*
X06854*
X06654Y04478D02*
X06854D01*
Y04678*
G54D95*
X06509Y04458D02*
Y04518D01*
X06479D02*
X06509D01*
X06479Y04458D02*
Y04518D01*
Y04458D02*
X06509D01*
G54D97*
X06472Y04435D03*
G54D11*
X05452Y06817D02*
X05444D01*
X05452*
X02293Y05375D02*
X02285D01*
X02293*
X05442D02*
X05434D01*
X05442*
X0422Y0552D02*
X04213D01*
X0422*
X0351Y0533D02*
X03503D01*
X0351*
X0503Y0531D02*
X05023D01*
X0503*
X04491Y0699D02*
X04483D01*
X04491*
X03628D02*
X0362D01*
X03628*
X05257Y06539D02*
X05249D01*
X05257*
X0215Y0634D02*
X02143D01*
X0215*
X0525D02*
X05243D01*
X0525*
X024Y0695D02*
X02393D01*
X024*
G54D14*
X03242Y067D02*
X03287Y06745D01*
X03405*
X03242Y06536D02*
Y067D01*
Y06536D02*
X03451D01*
Y06699*
X03405Y06745D02*
X03451Y06699D01*
X05098Y05839D02*
Y05908D01*
X05135Y05839D02*
Y05908D01*
X05098Y05839D02*
X05135D01*
X05098Y05908D02*
X05135D01*
X05632Y06421D02*
X05677Y06376D01*
X05632Y06421D02*
Y06539D01*
X05677Y06376D02*
X05841D01*
Y06585*
X05678D02*
X05841D01*
X05632Y06539D02*
X05678Y06585D01*
X02376D02*
X02421Y0654D01*
Y06422D02*
Y0654D01*
X02212Y06585D02*
X02376D01*
X02212Y06376D02*
Y06585D01*
Y06376D02*
X02375D01*
X02421Y06422*
X03622Y05389D02*
X03691D01*
X03622Y05352D02*
X03691D01*
X03622D02*
Y05389D01*
X03691Y05352D02*
Y05389D01*
X05457Y06666D02*
Y06735D01*
X05336Y06666D02*
Y06735D01*
X05457*
X05336Y06666D02*
X05457D01*
X04482Y05872D02*
X04551D01*
X04482Y05909D02*
X04551D01*
Y05872D02*
Y05909D01*
X04482Y05872D02*
Y05909D01*
X0229Y05394D02*
Y05485D01*
X02624*
Y05394D02*
Y05485D01*
X0229Y05394D02*
X02624D01*
X05439D02*
Y05485D01*
X05773*
Y05394D02*
Y05485D01*
X05439Y05394D02*
X05773D01*
X05141Y0605D02*
X05178Y06088D01*
X05141Y05973D02*
Y06088D01*
Y05973D02*
X05192D01*
Y06088*
X05141D02*
X05192D01*
X04795Y05973D02*
X04832Y06011D01*
Y05973D02*
Y06088D01*
X04781D02*
X04832D01*
X04781Y05973D02*
Y06088D01*
Y05973D02*
X04832D01*
X04952Y06052D02*
X05021D01*
X04952Y06089D02*
X05021D01*
Y06052D02*
Y06089D01*
X04952Y06052D02*
Y06089D01*
Y05972D02*
X05021D01*
X04952Y06009D02*
X05021D01*
Y05972D02*
Y06009D01*
X04952Y05972D02*
Y06009D01*
X03408Y05866D02*
Y05935D01*
X03445Y05866D02*
Y05935D01*
X03408D02*
X03445D01*
X03408Y05866D02*
X03445D01*
X02229Y06708D02*
X02284D01*
X02229Y06793D02*
X02284D01*
X02229Y06708D02*
Y06793D01*
X02284Y06708D02*
Y06793D01*
X02229Y06754D02*
X02283D01*
X04682Y06889D02*
X04751D01*
X04682Y06852D02*
X04751D01*
X04682D02*
Y06889D01*
X04751Y06852D02*
Y06889D01*
X03362Y06862D02*
X03431D01*
X03362Y06899D02*
X03431D01*
Y06862D02*
Y06899D01*
X03362Y06862D02*
Y06899D01*
X04352Y05872D02*
X04421D01*
X04352Y05909D02*
X04421D01*
Y05872D02*
Y05909D01*
X04352Y05872D02*
Y05909D01*
X04562Y06889D02*
X04631D01*
X04562Y06852D02*
X04631D01*
X04562D02*
Y06889D01*
X04631Y06852D02*
Y06889D01*
X03482Y06862D02*
X03551D01*
X03482Y06899D02*
X03551D01*
Y06862D02*
Y06899D01*
X03482Y06862D02*
Y06899D01*
X02814Y06669D02*
Y06932D01*
X02959Y06669D02*
Y06932D01*
X02814Y06669D02*
X02959D01*
X02814Y06932D02*
X02959D01*
X03843Y05992D02*
Y06029D01*
X03911Y05992D02*
Y06029D01*
X03843D02*
X03911D01*
X03843Y05992D02*
X03911D01*
X04181D02*
Y06029D01*
X04112Y05992D02*
Y06029D01*
Y05992D02*
X04181D01*
X04112Y06029D02*
X04181D01*
G54D15*
X05249Y06868D02*
X05544D01*
Y07057*
Y07077*
X05249Y06868D02*
Y07077D01*
X05544D02*
X05555Y07102D01*
X05238D02*
X05249Y07077D01*
X05238Y07102D02*
X05555D01*
X052Y07057D02*
X05544D01*
X04536Y06922D02*
Y07059D01*
Y06922D02*
X04773D01*
Y07059*
X04536D02*
X04773D01*
X03575Y06922D02*
Y07059D01*
X03338D02*
X03575D01*
X03338Y06922D02*
Y07059D01*
Y06922D02*
X03575D01*
X0483Y06354D02*
X05223D01*
X0483Y06507D02*
X05223D01*
X0483Y06354D02*
Y06507D01*
X05223Y06354D02*
Y06507D01*
X02176Y0555D02*
Y0635D01*
Y0555D02*
X02776D01*
Y0635*
X02176D02*
X02776D01*
X05276Y0555D02*
Y0635D01*
Y0555D02*
X05876D01*
Y0635*
X05276D02*
X05876D01*
X02416Y0674D02*
Y0694D01*
X02616*
X02416Y0674D02*
X02616D01*
Y0694*
G54D95*
X02271Y0672D02*
Y0678D01*
X02241D02*
X02271D01*
X02241Y0672D02*
Y0678D01*
Y0672D02*
X02271D01*
G54D97*
X02235Y06697D03*
G54D11*
X09689Y06817D02*
X09681D01*
X09689*
X0653Y05375D02*
X06522D01*
X0653*
X09679D02*
X09671D01*
X09679*
X08457Y0552D02*
X0845D01*
X08457*
X07747Y0533D02*
X0774D01*
X07747*
X09267Y0531D02*
X0926D01*
X09267*
X08728Y0699D02*
X0872D01*
X08728*
X07865D02*
X07857D01*
X07865*
X09494Y06539D02*
X09486D01*
X09494*
X06387Y0634D02*
X0638D01*
X06387*
X09487D02*
X0948D01*
X09487*
X06637Y0695D02*
X0663D01*
X06637*
G54D14*
X07479Y067D02*
X07524Y06745D01*
X07642*
X07479Y06536D02*
Y067D01*
Y06536D02*
X07688D01*
Y06699*
X07642Y06745D02*
X07688Y06699D01*
X09335Y05839D02*
Y05908D01*
X09372Y05839D02*
Y05908D01*
X09335Y05839D02*
X09372D01*
X09335Y05908D02*
X09372D01*
X09869Y06421D02*
X09914Y06376D01*
X09869Y06421D02*
Y06539D01*
X09914Y06376D02*
X10078D01*
Y06585*
X09915D02*
X10078D01*
X09869Y06539D02*
X09915Y06585D01*
X06613D02*
X06658Y0654D01*
Y06422D02*
Y0654D01*
X06449Y06585D02*
X06613D01*
X06449Y06376D02*
Y06585D01*
Y06376D02*
X06612D01*
X06658Y06422*
X07859Y05389D02*
X07928D01*
X07859Y05352D02*
X07928D01*
X07859D02*
Y05389D01*
X07928Y05352D02*
Y05389D01*
X09694Y06666D02*
Y06735D01*
X09573Y06666D02*
Y06735D01*
X09694*
X09573Y06666D02*
X09694D01*
X08719Y05872D02*
X08788D01*
X08719Y05909D02*
X08788D01*
Y05872D02*
Y05909D01*
X08719Y05872D02*
Y05909D01*
X06527Y05394D02*
Y05485D01*
X06861*
Y05394D02*
Y05485D01*
X06527Y05394D02*
X06861D01*
X09676D02*
Y05485D01*
X1001*
Y05394D02*
Y05485D01*
X09676Y05394D02*
X1001D01*
X09378Y0605D02*
X09415Y06088D01*
X09378Y05973D02*
Y06088D01*
Y05973D02*
X09429D01*
Y06088*
X09378D02*
X09429D01*
X09032Y05973D02*
X09069Y06011D01*
Y05973D02*
Y06088D01*
X09018D02*
X09069D01*
X09018Y05973D02*
Y06088D01*
Y05973D02*
X09069D01*
X09189Y06052D02*
X09258D01*
X09189Y06089D02*
X09258D01*
Y06052D02*
Y06089D01*
X09189Y06052D02*
Y06089D01*
Y05972D02*
X09258D01*
X09189Y06009D02*
X09258D01*
Y05972D02*
Y06009D01*
X09189Y05972D02*
Y06009D01*
X07645Y05866D02*
Y05935D01*
X07682Y05866D02*
Y05935D01*
X07645D02*
X07682D01*
X07645Y05866D02*
X07682D01*
X06466Y06708D02*
X06521D01*
X06466Y06793D02*
X06521D01*
X06466Y06708D02*
Y06793D01*
X06521Y06708D02*
Y06793D01*
X06467Y06754D02*
X06521D01*
X08919Y06889D02*
X08988D01*
X08919Y06852D02*
X08988D01*
X08919D02*
Y06889D01*
X08988Y06852D02*
Y06889D01*
X07599Y06862D02*
X07668D01*
X07599Y06899D02*
X07668D01*
Y06862D02*
Y06899D01*
X07599Y06862D02*
Y06899D01*
X08589Y05872D02*
X08658D01*
X08589Y05909D02*
X08658D01*
Y05872D02*
Y05909D01*
X08589Y05872D02*
Y05909D01*
X08799Y06889D02*
X08868D01*
X08799Y06852D02*
X08868D01*
X08799D02*
Y06889D01*
X08868Y06852D02*
Y06889D01*
X07719Y06862D02*
X07788D01*
X07719Y06899D02*
X07788D01*
Y06862D02*
Y06899D01*
X07719Y06862D02*
Y06899D01*
X07051Y06669D02*
Y06932D01*
X07196Y06669D02*
Y06932D01*
X07051Y06669D02*
X07196D01*
X07051Y06932D02*
X07196D01*
X0808Y05992D02*
Y06029D01*
X08148Y05992D02*
Y06029D01*
X0808D02*
X08148D01*
X0808Y05992D02*
X08148D01*
X08418D02*
Y06029D01*
X08349Y05992D02*
Y06029D01*
Y05992D02*
X08418D01*
X08349Y06029D02*
X08418D01*
G54D15*
X09486Y06868D02*
X09781D01*
Y07057*
Y07077*
X09486Y06868D02*
Y07077D01*
X09781D02*
X09792Y07102D01*
X09475D02*
X09486Y07077D01*
X09475Y07102D02*
X09792D01*
X09437Y07057D02*
X09781D01*
X08773Y06922D02*
Y07059D01*
Y06922D02*
X0901D01*
Y07059*
X08773D02*
X0901D01*
X07812Y06922D02*
Y07059D01*
X07575D02*
X07812D01*
X07575Y06922D02*
Y07059D01*
Y06922D02*
X07812D01*
X09067Y06354D02*
X0946D01*
X09067Y06507D02*
X0946D01*
X09067Y06354D02*
Y06507D01*
X0946Y06354D02*
Y06507D01*
X06414Y0555D02*
Y0635D01*
Y0555D02*
X07014D01*
Y0635*
X06414D02*
X07014D01*
X09514Y0555D02*
Y0635D01*
Y0555D02*
X10114D01*
Y0635*
X09514D02*
X10114D01*
X06654Y0674D02*
Y0694D01*
X06854*
X06654Y0674D02*
X06854D01*
Y0694*
G54D95*
X06509Y0672D02*
Y0678D01*
X06479D02*
X06509D01*
X06479Y0672D02*
Y0678D01*
Y0672D02*
X06509D01*
G54D97*
X06472Y06697D03*
G54D11*
X05452Y09078D02*
X05444D01*
X05452*
X02293Y07637D02*
X02285D01*
X02293*
X05442D02*
X05434D01*
X05442*
X0422Y07782D02*
X04213D01*
X0422*
X0351Y07592D02*
X03503D01*
X0351*
X0503Y07572D02*
X05023D01*
X0503*
X04491Y09252D02*
X04483D01*
X04491*
X03628D02*
X0362D01*
X03628*
X05257Y088D02*
X05249D01*
X05257*
X0215Y08602D02*
X02143D01*
X0215*
X0525D02*
X05243D01*
X0525*
X024Y09212D02*
X02393D01*
X024*
G54D14*
X03242Y08961D02*
X03287Y09006D01*
X03405*
X03242Y08797D02*
Y08961D01*
Y08797D02*
X03451D01*
Y0896*
X03405Y09006D02*
X03451Y0896D01*
X05098Y08101D02*
Y0817D01*
X05135Y08101D02*
Y0817D01*
X05098Y08101D02*
X05135D01*
X05098Y0817D02*
X05135D01*
X05632Y08682D02*
X05677Y08637D01*
X05632Y08682D02*
Y088D01*
X05677Y08637D02*
X05841D01*
Y08846*
X05678D02*
X05841D01*
X05632Y088D02*
X05678Y08846D01*
X02376D02*
X02421Y08801D01*
Y08683D02*
Y08801D01*
X02212Y08846D02*
X02376D01*
X02212Y08637D02*
Y08846D01*
Y08637D02*
X02375D01*
X02421Y08683*
X03622Y07651D02*
X03691D01*
X03622Y07614D02*
X03691D01*
X03622D02*
Y07651D01*
X03691Y07614D02*
Y07651D01*
X05457Y08927D02*
Y08996D01*
X05336Y08927D02*
Y08996D01*
X05457*
X05336Y08927D02*
X05457D01*
X04482Y08134D02*
X04551D01*
X04482Y08171D02*
X04551D01*
Y08134D02*
Y08171D01*
X04482Y08134D02*
Y08171D01*
X0229Y07656D02*
Y07747D01*
X02624*
Y07656D02*
Y07747D01*
X0229Y07656D02*
X02624D01*
X05439D02*
Y07747D01*
X05773*
Y07656D02*
Y07747D01*
X05439Y07656D02*
X05773D01*
X05141Y08312D02*
X05178Y0835D01*
X05141Y08235D02*
Y0835D01*
Y08235D02*
X05192D01*
Y0835*
X05141D02*
X05192D01*
X04795Y08235D02*
X04832Y08273D01*
Y08235D02*
Y0835D01*
X04781D02*
X04832D01*
X04781Y08235D02*
Y0835D01*
Y08235D02*
X04832D01*
X04952Y08314D02*
X05021D01*
X04952Y08351D02*
X05021D01*
Y08314D02*
Y08351D01*
X04952Y08314D02*
Y08351D01*
Y08234D02*
X05021D01*
X04952Y08271D02*
X05021D01*
Y08234D02*
Y08271D01*
X04952Y08234D02*
Y08271D01*
X03408Y08128D02*
Y08197D01*
X03445Y08128D02*
Y08197D01*
X03408D02*
X03445D01*
X03408Y08128D02*
X03445D01*
X02229Y08969D02*
X02284D01*
X02229Y09054D02*
X02284D01*
X02229Y08969D02*
Y09054D01*
X02284Y08969D02*
Y09054D01*
X02229Y09016D02*
X02283D01*
X04682Y0915D02*
X04751D01*
X04682Y09113D02*
X04751D01*
X04682D02*
Y0915D01*
X04751Y09113D02*
Y0915D01*
X03362Y09123D02*
X03431D01*
X03362Y0916D02*
X03431D01*
Y09123D02*
Y0916D01*
X03362Y09123D02*
Y0916D01*
X04352Y08134D02*
X04421D01*
X04352Y08171D02*
X04421D01*
Y08134D02*
Y08171D01*
X04352Y08134D02*
Y08171D01*
X04562Y0915D02*
X04631D01*
X04562Y09113D02*
X04631D01*
X04562D02*
Y0915D01*
X04631Y09113D02*
Y0915D01*
X03482Y09123D02*
X03551D01*
X03482Y0916D02*
X03551D01*
Y09123D02*
Y0916D01*
X03482Y09123D02*
Y0916D01*
X02814Y0893D02*
Y09193D01*
X02959Y0893D02*
Y09193D01*
X02814Y0893D02*
X02959D01*
X02814Y09193D02*
X02959D01*
X03843Y08254D02*
Y08291D01*
X03911Y08254D02*
Y08291D01*
X03843D02*
X03911D01*
X03843Y08254D02*
X03911D01*
X04181D02*
Y08291D01*
X04112Y08254D02*
Y08291D01*
Y08254D02*
X04181D01*
X04112Y08291D02*
X04181D01*
G54D15*
X05249Y09129D02*
X05544D01*
Y09318*
Y09338*
X05249Y09129D02*
Y09338D01*
X05544D02*
X05555Y09363D01*
X05238D02*
X05249Y09338D01*
X05238Y09363D02*
X05555D01*
X052Y09318D02*
X05544D01*
X04536Y09183D02*
Y0932D01*
Y09183D02*
X04773D01*
Y0932*
X04536D02*
X04773D01*
X03575Y09183D02*
Y0932D01*
X03338D02*
X03575D01*
X03338Y09183D02*
Y0932D01*
Y09183D02*
X03575D01*
X0483Y08615D02*
X05223D01*
X0483Y08768D02*
X05223D01*
X0483Y08615D02*
Y08768D01*
X05223Y08615D02*
Y08768D01*
X02176Y07812D02*
Y08612D01*
Y07812D02*
X02776D01*
Y08612*
X02176D02*
X02776D01*
X05276Y07812D02*
Y08612D01*
Y07812D02*
X05876D01*
Y08612*
X05276D02*
X05876D01*
X02416Y09002D02*
Y09202D01*
X02616*
X02416Y09002D02*
X02616D01*
Y09202*
G54D95*
X02271Y08982D02*
Y09042D01*
X02241D02*
X02271D01*
X02241Y08982D02*
Y09042D01*
Y08982D02*
X02271D01*
G54D97*
X02235Y08958D03*
G54D11*
X09689Y09078D02*
X09681D01*
X09689*
X0653Y07637D02*
X06522D01*
X0653*
X09679D02*
X09671D01*
X09679*
X08457Y07782D02*
X0845D01*
X08457*
X07747Y07592D02*
X0774D01*
X07747*
X09267Y07572D02*
X0926D01*
X09267*
X08728Y09252D02*
X0872D01*
X08728*
X07865D02*
X07857D01*
X07865*
X09494Y088D02*
X09486D01*
X09494*
X06387Y08602D02*
X0638D01*
X06387*
X09487D02*
X0948D01*
X09487*
X06637Y09212D02*
X0663D01*
X06637*
G54D14*
X07479Y08961D02*
X07524Y09006D01*
X07642*
X07479Y08797D02*
Y08961D01*
Y08797D02*
X07688D01*
Y0896*
X07642Y09006D02*
X07688Y0896D01*
X09335Y08101D02*
Y0817D01*
X09372Y08101D02*
Y0817D01*
X09335Y08101D02*
X09372D01*
X09335Y0817D02*
X09372D01*
X09869Y08682D02*
X09914Y08637D01*
X09869Y08682D02*
Y088D01*
X09914Y08637D02*
X10078D01*
Y08846*
X09915D02*
X10078D01*
X09869Y088D02*
X09915Y08846D01*
X06613D02*
X06658Y08801D01*
Y08683D02*
Y08801D01*
X06449Y08846D02*
X06613D01*
X06449Y08637D02*
Y08846D01*
Y08637D02*
X06612D01*
X06658Y08683*
X07859Y07651D02*
X07928D01*
X07859Y07614D02*
X07928D01*
X07859D02*
Y07651D01*
X07928Y07614D02*
Y07651D01*
X09694Y08927D02*
Y08996D01*
X09573Y08927D02*
Y08996D01*
X09694*
X09573Y08927D02*
X09694D01*
X08719Y08134D02*
X08788D01*
X08719Y08171D02*
X08788D01*
Y08134D02*
Y08171D01*
X08719Y08134D02*
Y08171D01*
X06527Y07656D02*
Y07747D01*
X06861*
Y07656D02*
Y07747D01*
X06527Y07656D02*
X06861D01*
X09676D02*
Y07747D01*
X1001*
Y07656D02*
Y07747D01*
X09676Y07656D02*
X1001D01*
X09378Y08312D02*
X09415Y0835D01*
X09378Y08235D02*
Y0835D01*
Y08235D02*
X09429D01*
Y0835*
X09378D02*
X09429D01*
X09032Y08235D02*
X09069Y08273D01*
Y08235D02*
Y0835D01*
X09018D02*
X09069D01*
X09018Y08235D02*
Y0835D01*
Y08235D02*
X09069D01*
X09189Y08314D02*
X09258D01*
X09189Y08351D02*
X09258D01*
Y08314D02*
Y08351D01*
X09189Y08314D02*
Y08351D01*
Y08234D02*
X09258D01*
X09189Y08271D02*
X09258D01*
Y08234D02*
Y08271D01*
X09189Y08234D02*
Y08271D01*
X07645Y08128D02*
Y08197D01*
X07682Y08128D02*
Y08197D01*
X07645D02*
X07682D01*
X07645Y08128D02*
X07682D01*
X06466Y08969D02*
X06521D01*
X06466Y09054D02*
X06521D01*
X06466Y08969D02*
Y09054D01*
X06521Y08969D02*
Y09054D01*
X06467Y09016D02*
X06521D01*
X08919Y0915D02*
X08988D01*
X08919Y09113D02*
X08988D01*
X08919D02*
Y0915D01*
X08988Y09113D02*
Y0915D01*
X07599Y09123D02*
X07668D01*
X07599Y0916D02*
X07668D01*
Y09123D02*
Y0916D01*
X07599Y09123D02*
Y0916D01*
X08589Y08134D02*
X08658D01*
X08589Y08171D02*
X08658D01*
Y08134D02*
Y08171D01*
X08589Y08134D02*
Y08171D01*
X08799Y0915D02*
X08868D01*
X08799Y09113D02*
X08868D01*
X08799D02*
Y0915D01*
X08868Y09113D02*
Y0915D01*
X07719Y09123D02*
X07788D01*
X07719Y0916D02*
X07788D01*
Y09123D02*
Y0916D01*
X07719Y09123D02*
Y0916D01*
X07051Y0893D02*
Y09193D01*
X07196Y0893D02*
Y09193D01*
X07051Y0893D02*
X07196D01*
X07051Y09193D02*
X07196D01*
X0808Y08254D02*
Y08291D01*
X08148Y08254D02*
Y08291D01*
X0808D02*
X08148D01*
X0808Y08254D02*
X08148D01*
X08418D02*
Y08291D01*
X08349Y08254D02*
Y08291D01*
Y08254D02*
X08418D01*
X08349Y08291D02*
X08418D01*
G54D15*
X09486Y09129D02*
X09781D01*
Y09318*
Y09338*
X09486Y09129D02*
Y09338D01*
X09781D02*
X09792Y09363D01*
X09475D02*
X09486Y09338D01*
X09475Y09363D02*
X09792D01*
X09437Y09318D02*
X09781D01*
X08773Y09183D02*
Y0932D01*
Y09183D02*
X0901D01*
Y0932*
X08773D02*
X0901D01*
X07812Y09183D02*
Y0932D01*
X07575D02*
X07812D01*
X07575Y09183D02*
Y0932D01*
Y09183D02*
X07812D01*
X09067Y08615D02*
X0946D01*
X09067Y08768D02*
X0946D01*
X09067Y08615D02*
Y08768D01*
X0946Y08615D02*
Y08768D01*
X06414Y07812D02*
Y08612D01*
Y07812D02*
X07014D01*
Y08612*
X06414D02*
X07014D01*
X09514Y07812D02*
Y08612D01*
Y07812D02*
X10114D01*
Y08612*
X09514D02*
X10114D01*
X06654Y09002D02*
Y09202D01*
X06854*
X06654Y09002D02*
X06854D01*
Y09202*
G54D95*
X06509Y08982D02*
Y09042D01*
X06479D02*
X06509D01*
X06479Y08982D02*
Y09042D01*
Y08982D02*
X06509D01*
G54D97*
X06472Y08958D03*
G54D11*
X05452Y1134D02*
X05444D01*
X05452*
X02293Y09899D02*
X02285D01*
X02293*
X05442D02*
X05434D01*
X05442*
X0422Y10044D02*
X04213D01*
X0422*
X0351Y09854D02*
X03503D01*
X0351*
X0503Y09834D02*
X05023D01*
X0503*
X04491Y11514D02*
X04483D01*
X04491*
X03628D02*
X0362D01*
X03628*
X05257Y11062D02*
X05249D01*
X05257*
X0215Y10864D02*
X02143D01*
X0215*
X0525D02*
X05243D01*
X0525*
X024Y11474D02*
X02393D01*
X024*
G54D14*
X03242Y11223D02*
X03287Y11268D01*
X03405*
X03242Y11059D02*
Y11223D01*
Y11059D02*
X03451D01*
Y11222*
X03405Y11268D02*
X03451Y11222D01*
X05098Y10362D02*
Y10431D01*
X05135Y10362D02*
Y10431D01*
X05098Y10362D02*
X05135D01*
X05098Y10431D02*
X05135D01*
X05632Y10944D02*
X05677Y10899D01*
X05632Y10944D02*
Y11062D01*
X05677Y10899D02*
X05841D01*
Y11108*
X05678D02*
X05841D01*
X05632Y11062D02*
X05678Y11108D01*
X02376D02*
X02421Y11063D01*
Y10945D02*
Y11063D01*
X02212Y11108D02*
X02376D01*
X02212Y10899D02*
Y11108D01*
Y10899D02*
X02375D01*
X02421Y10945*
X03622Y09912D02*
X03691D01*
X03622Y09875D02*
X03691D01*
X03622D02*
Y09912D01*
X03691Y09875D02*
Y09912D01*
X05457Y11189D02*
Y11258D01*
X05336Y11189D02*
Y11258D01*
X05457*
X05336Y11189D02*
X05457D01*
X04482Y10395D02*
X04551D01*
X04482Y10432D02*
X04551D01*
Y10395D02*
Y10432D01*
X04482Y10395D02*
Y10432D01*
X0229Y09918D02*
Y10009D01*
X02624*
Y09918D02*
Y10009D01*
X0229Y09918D02*
X02624D01*
X05439D02*
Y10009D01*
X05773*
Y09918D02*
Y10009D01*
X05439Y09918D02*
X05773D01*
X05141Y10573D02*
X05178Y10611D01*
X05141Y10496D02*
Y10611D01*
Y10496D02*
X05192D01*
Y10611*
X05141D02*
X05192D01*
X04795Y10496D02*
X04832Y10534D01*
Y10496D02*
Y10611D01*
X04781D02*
X04832D01*
X04781Y10496D02*
Y10611D01*
Y10496D02*
X04832D01*
X04952Y10575D02*
X05021D01*
X04952Y10612D02*
X05021D01*
Y10575D02*
Y10612D01*
X04952Y10575D02*
Y10612D01*
Y10495D02*
X05021D01*
X04952Y10532D02*
X05021D01*
Y10495D02*
Y10532D01*
X04952Y10495D02*
Y10532D01*
X03408Y10389D02*
Y10458D01*
X03445Y10389D02*
Y10458D01*
X03408D02*
X03445D01*
X03408Y10389D02*
X03445D01*
X02229Y11231D02*
X02284D01*
X02229Y11316D02*
X02284D01*
X02229Y11231D02*
Y11316D01*
X02284Y11231D02*
Y11316D01*
X02229Y11278D02*
X02283D01*
X04682Y11412D02*
X04751D01*
X04682Y11375D02*
X04751D01*
X04682D02*
Y11412D01*
X04751Y11375D02*
Y11412D01*
X03362Y11385D02*
X03431D01*
X03362Y11422D02*
X03431D01*
Y11385D02*
Y11422D01*
X03362Y11385D02*
Y11422D01*
X04352Y10395D02*
X04421D01*
X04352Y10432D02*
X04421D01*
Y10395D02*
Y10432D01*
X04352Y10395D02*
Y10432D01*
X04562Y11412D02*
X04631D01*
X04562Y11375D02*
X04631D01*
X04562D02*
Y11412D01*
X04631Y11375D02*
Y11412D01*
X03482Y11385D02*
X03551D01*
X03482Y11422D02*
X03551D01*
Y11385D02*
Y11422D01*
X03482Y11385D02*
Y11422D01*
X02814Y11192D02*
Y11455D01*
X02959Y11192D02*
Y11455D01*
X02814Y11192D02*
X02959D01*
X02814Y11455D02*
X02959D01*
X03843Y10515D02*
Y10552D01*
X03911Y10515D02*
Y10552D01*
X03843D02*
X03911D01*
X03843Y10515D02*
X03911D01*
X04181D02*
Y10552D01*
X04112Y10515D02*
Y10552D01*
Y10515D02*
X04181D01*
X04112Y10552D02*
X04181D01*
G54D15*
X05249Y11391D02*
X05544D01*
Y1158*
Y116*
X05249Y11391D02*
Y116D01*
X05544D02*
X05555Y11625D01*
X05238D02*
X05249Y116D01*
X05238Y11625D02*
X05555D01*
X052Y1158D02*
X05544D01*
X04536Y11445D02*
Y11582D01*
Y11445D02*
X04773D01*
Y11582*
X04536D02*
X04773D01*
X03575Y11445D02*
Y11582D01*
X03338D02*
X03575D01*
X03338Y11445D02*
Y11582D01*
Y11445D02*
X03575D01*
X0483Y10877D02*
X05223D01*
X0483Y1103D02*
X05223D01*
X0483Y10877D02*
Y1103D01*
X05223Y10877D02*
Y1103D01*
X02176Y10074D02*
Y10874D01*
Y10074D02*
X02776D01*
Y10874*
X02176D02*
X02776D01*
X05276Y10074D02*
Y10874D01*
Y10074D02*
X05876D01*
Y10874*
X05276D02*
X05876D01*
X02416Y11264D02*
Y11464D01*
X02616*
X02416Y11264D02*
X02616D01*
Y11464*
G54D95*
X02271Y11244D02*
Y11304D01*
X02241D02*
X02271D01*
X02241Y11244D02*
Y11304D01*
Y11244D02*
X02271D01*
G54D97*
X02235Y1122D03*
G54D11*
X09689Y1134D02*
X09681D01*
X09689*
X0653Y09899D02*
X06522D01*
X0653*
X09679D02*
X09671D01*
X09679*
X08457Y10044D02*
X0845D01*
X08457*
X07747Y09854D02*
X0774D01*
X07747*
X09267Y09834D02*
X0926D01*
X09267*
X08728Y11514D02*
X0872D01*
X08728*
X07865D02*
X07857D01*
X07865*
X09494Y11062D02*
X09486D01*
X09494*
X06387Y10864D02*
X0638D01*
X06387*
X09487D02*
X0948D01*
X09487*
X06637Y11474D02*
X0663D01*
X06637*
G54D14*
X07479Y11223D02*
X07524Y11268D01*
X07642*
X07479Y11059D02*
Y11223D01*
Y11059D02*
X07688D01*
Y11222*
X07642Y11268D02*
X07688Y11222D01*
X09335Y10362D02*
Y10431D01*
X09372Y10362D02*
Y10431D01*
X09335Y10362D02*
X09372D01*
X09335Y10431D02*
X09372D01*
X09869Y10944D02*
X09914Y10899D01*
X09869Y10944D02*
Y11062D01*
X09914Y10899D02*
X10078D01*
Y11108*
X09915D02*
X10078D01*
X09869Y11062D02*
X09915Y11108D01*
X06613D02*
X06658Y11063D01*
Y10945D02*
Y11063D01*
X06449Y11108D02*
X06613D01*
X06449Y10899D02*
Y11108D01*
Y10899D02*
X06612D01*
X06658Y10945*
X07859Y09912D02*
X07928D01*
X07859Y09875D02*
X07928D01*
X07859D02*
Y09912D01*
X07928Y09875D02*
Y09912D01*
X09694Y11189D02*
Y11258D01*
X09573Y11189D02*
Y11258D01*
X09694*
X09573Y11189D02*
X09694D01*
X08719Y10395D02*
X08788D01*
X08719Y10432D02*
X08788D01*
Y10395D02*
Y10432D01*
X08719Y10395D02*
Y10432D01*
X06527Y09918D02*
Y10009D01*
X06861*
Y09918D02*
Y10009D01*
X06527Y09918D02*
X06861D01*
X09676D02*
Y10009D01*
X1001*
Y09918D02*
Y10009D01*
X09676Y09918D02*
X1001D01*
X09378Y10573D02*
X09415Y10611D01*
X09378Y10496D02*
Y10611D01*
Y10496D02*
X09429D01*
Y10611*
X09378D02*
X09429D01*
X09032Y10496D02*
X09069Y10534D01*
Y10496D02*
Y10611D01*
X09018D02*
X09069D01*
X09018Y10496D02*
Y10611D01*
Y10496D02*
X09069D01*
X09189Y10575D02*
X09258D01*
X09189Y10612D02*
X09258D01*
Y10575D02*
Y10612D01*
X09189Y10575D02*
Y10612D01*
Y10495D02*
X09258D01*
X09189Y10532D02*
X09258D01*
Y10495D02*
Y10532D01*
X09189Y10495D02*
Y10532D01*
X07645Y10389D02*
Y10458D01*
X07682Y10389D02*
Y10458D01*
X07645D02*
X07682D01*
X07645Y10389D02*
X07682D01*
X06466Y11231D02*
X06521D01*
X06466Y11316D02*
X06521D01*
X06466Y11231D02*
Y11316D01*
X06521Y11231D02*
Y11316D01*
X06467Y11278D02*
X06521D01*
X08919Y11412D02*
X08988D01*
X08919Y11375D02*
X08988D01*
X08919D02*
Y11412D01*
X08988Y11375D02*
Y11412D01*
X07599Y11385D02*
X07668D01*
X07599Y11422D02*
X07668D01*
Y11385D02*
Y11422D01*
X07599Y11385D02*
Y11422D01*
X08589Y10395D02*
X08658D01*
X08589Y10432D02*
X08658D01*
Y10395D02*
Y10432D01*
X08589Y10395D02*
Y10432D01*
X08799Y11412D02*
X08868D01*
X08799Y11375D02*
X08868D01*
X08799D02*
Y11412D01*
X08868Y11375D02*
Y11412D01*
X07719Y11385D02*
X07788D01*
X07719Y11422D02*
X07788D01*
Y11385D02*
Y11422D01*
X07719Y11385D02*
Y11422D01*
X07051Y11192D02*
Y11455D01*
X07196Y11192D02*
Y11455D01*
X07051Y11192D02*
X07196D01*
X07051Y11455D02*
X07196D01*
X0808Y10515D02*
Y10552D01*
X08148Y10515D02*
Y10552D01*
X0808D02*
X08148D01*
X0808Y10515D02*
X08148D01*
X08418D02*
Y10552D01*
X08349Y10515D02*
Y10552D01*
Y10515D02*
X08418D01*
X08349Y10552D02*
X08418D01*
G54D15*
X09486Y11391D02*
X09781D01*
Y1158*
Y116*
X09486Y11391D02*
Y116D01*
X09781D02*
X09792Y11625D01*
X09475D02*
X09486Y116D01*
X09475Y11625D02*
X09792D01*
X09437Y1158D02*
X09781D01*
X08773Y11445D02*
Y11582D01*
Y11445D02*
X0901D01*
Y11582*
X08773D02*
X0901D01*
X07812Y11445D02*
Y11582D01*
X07575D02*
X07812D01*
X07575Y11445D02*
Y11582D01*
Y11445D02*
X07812D01*
X09067Y10877D02*
X0946D01*
X09067Y1103D02*
X0946D01*
X09067Y10877D02*
Y1103D01*
X0946Y10877D02*
Y1103D01*
X06414Y10074D02*
Y10874D01*
Y10074D02*
X07014D01*
Y10874*
X06414D02*
X07014D01*
X09514Y10074D02*
Y10874D01*
Y10074D02*
X10114D01*
Y10874*
X09514D02*
X10114D01*
X06654Y11264D02*
Y11464D01*
X06854*
X06654Y11264D02*
X06854D01*
Y11464*
G54D95*
X06509Y11244D02*
Y11304D01*
X06479D02*
X06509D01*
X06479Y11244D02*
Y11304D01*
Y11244D02*
X06509D01*
G54D97*
X06472Y1122D03*
G54D11*
X05452Y13602D02*
X05444D01*
X05452*
X02293Y12161D02*
X02285D01*
X02293*
X05442D02*
X05434D01*
X05442*
X0422Y12306D02*
X04213D01*
X0422*
X0351Y12116D02*
X03503D01*
X0351*
X0503Y12096D02*
X05023D01*
X0503*
X04491Y13776D02*
X04483D01*
X04491*
X03628D02*
X0362D01*
X03628*
X05257Y13324D02*
X05249D01*
X05257*
X0215Y13126D02*
X02143D01*
X0215*
X0525D02*
X05243D01*
X0525*
X024Y13736D02*
X02393D01*
X024*
G54D14*
X03242Y13485D02*
X03287Y1353D01*
X03405*
X03242Y13321D02*
Y13485D01*
Y13321D02*
X03451D01*
Y13484*
X03405Y1353D02*
X03451Y13484D01*
X05098Y12624D02*
Y12693D01*
X05135Y12624D02*
Y12693D01*
X05098Y12624D02*
X05135D01*
X05098Y12693D02*
X05135D01*
X05632Y13206D02*
X05677Y13161D01*
X05632Y13206D02*
Y13324D01*
X05677Y13161D02*
X05841D01*
Y1337*
X05678D02*
X05841D01*
X05632Y13324D02*
X05678Y1337D01*
X02376D02*
X02421Y13325D01*
Y13207D02*
Y13325D01*
X02212Y1337D02*
X02376D01*
X02212Y13161D02*
Y1337D01*
Y13161D02*
X02375D01*
X02421Y13207*
X03622Y12174D02*
X03691D01*
X03622Y12137D02*
X03691D01*
X03622D02*
Y12174D01*
X03691Y12137D02*
Y12174D01*
X05457Y13451D02*
Y1352D01*
X05336Y13451D02*
Y1352D01*
X05457*
X05336Y13451D02*
X05457D01*
X04482Y12657D02*
X04551D01*
X04482Y12694D02*
X04551D01*
Y12657D02*
Y12694D01*
X04482Y12657D02*
Y12694D01*
X0229Y1218D02*
Y12271D01*
X02624*
Y1218D02*
Y12271D01*
X0229Y1218D02*
X02624D01*
X05439D02*
Y12271D01*
X05773*
Y1218D02*
Y12271D01*
X05439Y1218D02*
X05773D01*
X05141Y12835D02*
X05178Y12873D01*
X05141Y12758D02*
Y12873D01*
Y12758D02*
X05192D01*
Y12873*
X05141D02*
X05192D01*
X04795Y12758D02*
X04832Y12796D01*
Y12758D02*
Y12873D01*
X04781D02*
X04832D01*
X04781Y12758D02*
Y12873D01*
Y12758D02*
X04832D01*
X04952Y12837D02*
X05021D01*
X04952Y12874D02*
X05021D01*
Y12837D02*
Y12874D01*
X04952Y12837D02*
Y12874D01*
Y12757D02*
X05021D01*
X04952Y12794D02*
X05021D01*
Y12757D02*
Y12794D01*
X04952Y12757D02*
Y12794D01*
X03408Y12651D02*
Y1272D01*
X03445Y12651D02*
Y1272D01*
X03408D02*
X03445D01*
X03408Y12651D02*
X03445D01*
X02229Y13493D02*
X02284D01*
X02229Y13578D02*
X02284D01*
X02229Y13493D02*
Y13578D01*
X02284Y13493D02*
Y13578D01*
X02229Y1354D02*
X02283D01*
X04682Y13674D02*
X04751D01*
X04682Y13637D02*
X04751D01*
X04682D02*
Y13674D01*
X04751Y13637D02*
Y13674D01*
X03362Y13647D02*
X03431D01*
X03362Y13684D02*
X03431D01*
Y13647D02*
Y13684D01*
X03362Y13647D02*
Y13684D01*
X04352Y12657D02*
X04421D01*
X04352Y12694D02*
X04421D01*
Y12657D02*
Y12694D01*
X04352Y12657D02*
Y12694D01*
X04562Y13674D02*
X04631D01*
X04562Y13637D02*
X04631D01*
X04562D02*
Y13674D01*
X04631Y13637D02*
Y13674D01*
X03482Y13647D02*
X03551D01*
X03482Y13684D02*
X03551D01*
Y13647D02*
Y13684D01*
X03482Y13647D02*
Y13684D01*
X02814Y13454D02*
Y13717D01*
X02959Y13454D02*
Y13717D01*
X02814Y13454D02*
X02959D01*
X02814Y13717D02*
X02959D01*
X03843Y12777D02*
Y12814D01*
X03911Y12777D02*
Y12814D01*
X03843D02*
X03911D01*
X03843Y12777D02*
X03911D01*
X04181D02*
Y12814D01*
X04112Y12777D02*
Y12814D01*
Y12777D02*
X04181D01*
X04112Y12814D02*
X04181D01*
G54D15*
X05249Y13653D02*
X05544D01*
Y13842*
Y13862*
X05249Y13653D02*
Y13862D01*
X05544D02*
X05555Y13887D01*
X05238D02*
X05249Y13862D01*
X05238Y13887D02*
X05555D01*
X052Y13842D02*
X05544D01*
X04536Y13707D02*
Y13844D01*
Y13707D02*
X04773D01*
Y13844*
X04536D02*
X04773D01*
X03575Y13707D02*
Y13844D01*
X03338D02*
X03575D01*
X03338Y13707D02*
Y13844D01*
Y13707D02*
X03575D01*
X0483Y13139D02*
X05223D01*
X0483Y13292D02*
X05223D01*
X0483Y13139D02*
Y13292D01*
X05223Y13139D02*
Y13292D01*
X02176Y12336D02*
Y13136D01*
Y12336D02*
X02776D01*
Y13136*
X02176D02*
X02776D01*
X05276Y12336D02*
Y13136D01*
Y12336D02*
X05876D01*
Y13136*
X05276D02*
X05876D01*
X02416Y13526D02*
Y13726D01*
X02616*
X02416Y13526D02*
X02616D01*
Y13726*
G54D95*
X02271Y13506D02*
Y13566D01*
X02241D02*
X02271D01*
X02241Y13506D02*
Y13566D01*
Y13506D02*
X02271D01*
G54D97*
X02235Y13482D03*
G54D11*
X09689Y13602D02*
X09681D01*
X09689*
X0653Y12161D02*
X06522D01*
X0653*
X09679D02*
X09671D01*
X09679*
X08457Y12306D02*
X0845D01*
X08457*
X07747Y12116D02*
X0774D01*
X07747*
X09267Y12096D02*
X0926D01*
X09267*
X08728Y13776D02*
X0872D01*
X08728*
X07865D02*
X07857D01*
X07865*
X09494Y13324D02*
X09486D01*
X09494*
X06387Y13126D02*
X0638D01*
X06387*
X09487D02*
X0948D01*
X09487*
X06637Y13736D02*
X0663D01*
X06637*
G54D14*
X07479Y13485D02*
X07524Y1353D01*
X07642*
X07479Y13321D02*
Y13485D01*
Y13321D02*
X07688D01*
Y13484*
X07642Y1353D02*
X07688Y13484D01*
X09335Y12624D02*
Y12693D01*
X09372Y12624D02*
Y12693D01*
X09335Y12624D02*
X09372D01*
X09335Y12693D02*
X09372D01*
X09869Y13206D02*
X09914Y13161D01*
X09869Y13206D02*
Y13324D01*
X09914Y13161D02*
X10078D01*
Y1337*
X09915D02*
X10078D01*
X09869Y13324D02*
X09915Y1337D01*
X06613D02*
X06658Y13325D01*
Y13207D02*
Y13325D01*
X06449Y1337D02*
X06613D01*
X06449Y13161D02*
Y1337D01*
Y13161D02*
X06612D01*
X06658Y13207*
X07859Y12174D02*
X07928D01*
X07859Y12137D02*
X07928D01*
X07859D02*
Y12174D01*
X07928Y12137D02*
Y12174D01*
X09694Y13451D02*
Y1352D01*
X09573Y13451D02*
Y1352D01*
X09694*
X09573Y13451D02*
X09694D01*
X08719Y12657D02*
X08788D01*
X08719Y12694D02*
X08788D01*
Y12657D02*
Y12694D01*
X08719Y12657D02*
Y12694D01*
X06527Y1218D02*
Y12271D01*
X06861*
Y1218D02*
Y12271D01*
X06527Y1218D02*
X06861D01*
X09676D02*
Y12271D01*
X1001*
Y1218D02*
Y12271D01*
X09676Y1218D02*
X1001D01*
X09378Y12835D02*
X09415Y12873D01*
X09378Y12758D02*
Y12873D01*
Y12758D02*
X09429D01*
Y12873*
X09378D02*
X09429D01*
X09032Y12758D02*
X09069Y12796D01*
Y12758D02*
Y12873D01*
X09018D02*
X09069D01*
X09018Y12758D02*
Y12873D01*
Y12758D02*
X09069D01*
X09189Y12837D02*
X09258D01*
X09189Y12874D02*
X09258D01*
Y12837D02*
Y12874D01*
X09189Y12837D02*
Y12874D01*
Y12757D02*
X09258D01*
X09189Y12794D02*
X09258D01*
Y12757D02*
Y12794D01*
X09189Y12757D02*
Y12794D01*
X07645Y12651D02*
Y1272D01*
X07682Y12651D02*
Y1272D01*
X07645D02*
X07682D01*
X07645Y12651D02*
X07682D01*
X06466Y13493D02*
X06521D01*
X06466Y13578D02*
X06521D01*
X06466Y13493D02*
Y13578D01*
X06521Y13493D02*
Y13578D01*
X06467Y1354D02*
X06521D01*
X08919Y13674D02*
X08988D01*
X08919Y13637D02*
X08988D01*
X08919D02*
Y13674D01*
X08988Y13637D02*
Y13674D01*
X07599Y13647D02*
X07668D01*
X07599Y13684D02*
X07668D01*
Y13647D02*
Y13684D01*
X07599Y13647D02*
Y13684D01*
X08589Y12657D02*
X08658D01*
X08589Y12694D02*
X08658D01*
Y12657D02*
Y12694D01*
X08589Y12657D02*
Y12694D01*
X08799Y13674D02*
X08868D01*
X08799Y13637D02*
X08868D01*
X08799D02*
Y13674D01*
X08868Y13637D02*
Y13674D01*
X07719Y13647D02*
X07788D01*
X07719Y13684D02*
X07788D01*
Y13647D02*
Y13684D01*
X07719Y13647D02*
Y13684D01*
X07051Y13454D02*
Y13717D01*
X07196Y13454D02*
Y13717D01*
X07051Y13454D02*
X07196D01*
X07051Y13717D02*
X07196D01*
X0808Y12777D02*
Y12814D01*
X08148Y12777D02*
Y12814D01*
X0808D02*
X08148D01*
X0808Y12777D02*
X08148D01*
X08418D02*
Y12814D01*
X08349Y12777D02*
Y12814D01*
Y12777D02*
X08418D01*
X08349Y12814D02*
X08418D01*
G54D15*
X09486Y13653D02*
X09781D01*
Y13842*
Y13862*
X09486Y13653D02*
Y13862D01*
X09781D02*
X09792Y13887D01*
X09475D02*
X09486Y13862D01*
X09475Y13887D02*
X09792D01*
X09437Y13842D02*
X09781D01*
X08773Y13707D02*
Y13844D01*
Y13707D02*
X0901D01*
Y13844*
X08773D02*
X0901D01*
X07812Y13707D02*
Y13844D01*
X07575D02*
X07812D01*
X07575Y13707D02*
Y13844D01*
Y13707D02*
X07812D01*
X09067Y13139D02*
X0946D01*
X09067Y13292D02*
X0946D01*
X09067Y13139D02*
Y13292D01*
X0946Y13139D02*
Y13292D01*
X06414Y12336D02*
Y13136D01*
Y12336D02*
X07014D01*
Y13136*
X06414D02*
X07014D01*
X09514Y12336D02*
Y13136D01*
Y12336D02*
X10114D01*
Y13136*
X09514D02*
X10114D01*
X06654Y13526D02*
Y13726D01*
X06854*
X06654Y13526D02*
X06854D01*
Y13726*
G54D95*
X06509Y13506D02*
Y13566D01*
X06479D02*
X06509D01*
X06479Y13506D02*
Y13566D01*
Y13506D02*
X06509D01*
G54D97*
X06472Y13482D03*
M02*