G04*
G04 #@! TF.GenerationSoftware,Altium Limited,Altium Designer,22.0.2 (36)*
G04*
G04 Layer_Physical_Order=1*
G04 Layer_Color=255*
%FSLAX25Y25*%
%MOIN*%
G70*
G04*
G04 #@! TF.SameCoordinates,A5FD766F-ED0D-4258-BB47-254A20FAC7F6*
G04*
G04*
G04 #@! TF.FilePolarity,Positive*
G04*
G01*
G75*
G04:AMPARAMS|DCode=17|XSize=51.58mil|YSize=24.41mil|CornerRadius=3.05mil|HoleSize=0mil|Usage=FLASHONLY|Rotation=270.000|XOffset=0mil|YOffset=0mil|HoleType=Round|Shape=RoundedRectangle|*
%AMROUNDEDRECTD17*
21,1,0.05158,0.01831,0,0,270.0*
21,1,0.04547,0.02441,0,0,270.0*
1,1,0.00610,-0.00915,-0.02274*
1,1,0.00610,-0.00915,0.02274*
1,1,0.00610,0.00915,0.02274*
1,1,0.00610,0.00915,-0.02274*
%
%ADD17ROUNDEDRECTD17*%
%ADD18C,0.05906*%
%ADD19R,0.03543X0.05512*%
%ADD20R,0.03347X0.03740*%
%ADD21R,0.05512X0.04724*%
%ADD22R,0.05512X0.05500*%
%ADD23R,0.03740X0.03740*%
%ADD24R,0.04331X0.02362*%
%ADD25R,0.05236X0.05236*%
%ADD26R,0.03543X0.07874*%
%ADD27R,0.07874X0.03543*%
%ADD28R,0.05906X0.03543*%
%ADD29R,0.05610X0.09843*%
%ADD30R,0.01575X0.06890*%
%ADD31R,0.03150X0.03150*%
%ADD32R,0.02362X0.04724*%
%ADD33R,0.03543X0.03937*%
%ADD34R,0.02559X0.02756*%
%ADD35R,0.11024X0.06299*%
%ADD36R,0.03937X0.03543*%
%ADD37R,0.03543X0.02953*%
%ADD38R,0.06299X0.11024*%
%ADD66O,0.04000X0.05748*%
%ADD69C,0.02500*%
%ADD70C,0.01500*%
%ADD71C,0.02000*%
%ADD72C,0.05000*%
%ADD73C,0.03000*%
%ADD74R,0.07000X0.07000*%
%ADD75C,0.07000*%
%ADD76C,0.08000*%
%ADD77R,0.08000X0.08000*%
%ADD78C,0.06000*%
%ADD79R,0.06000X0.06000*%
%ADD80C,0.06500*%
%ADD81R,0.06500X0.06500*%
%ADD82O,0.04724X0.09449*%
%ADD83C,0.13543*%
%ADD84C,0.05000*%
G36*
X378893Y191656D02*
Y186801D01*
X386398D01*
Y191285D01*
X386806Y191574D01*
X387714Y191257D01*
X389427Y190180D01*
X390857Y188750D01*
X391934Y187037D01*
X392602Y185127D01*
X392833Y183072D01*
Y180827D01*
X392333Y180622D01*
X388478Y184478D01*
X387800Y184931D01*
X387000Y185090D01*
X387000Y185090D01*
X369974D01*
X369974Y185090D01*
X369174Y184931D01*
X368496Y184478D01*
X368496Y184478D01*
X363579Y179561D01*
X363172Y178952D01*
X359602D01*
Y173809D01*
X367107D01*
Y176700D01*
X367147Y176902D01*
X367147Y176902D01*
Y177218D01*
X370839Y180910D01*
X386134D01*
X388910Y178134D01*
Y115484D01*
X388910Y115000D01*
X388913Y114986D01*
X388694Y114576D01*
X388404Y114231D01*
X388290Y114023D01*
X388251Y113973D01*
X388091Y113807D01*
X386363Y111119D01*
X386362Y111117D01*
X386360Y111115D01*
X386348Y111097D01*
X386314Y111008D01*
X386248Y110923D01*
X386197Y110799D01*
X386189Y110788D01*
X386189Y110788D01*
X386187Y110784D01*
X386184Y110768D01*
X386175Y110747D01*
X386090Y110633D01*
X384703Y107721D01*
X384644Y107487D01*
X384628Y107448D01*
X384511Y107241D01*
X383504Y104175D01*
X383491Y104070D01*
X383443Y103954D01*
X383422Y103792D01*
X383373Y103673D01*
X382762Y100502D01*
X382763Y100261D01*
X382758Y100219D01*
X382696Y99986D01*
X382490Y96759D01*
X382506Y96644D01*
X382487Y96503D01*
X382506Y96358D01*
X382491Y96241D01*
X382695Y93023D01*
X382757Y92791D01*
X382764Y92740D01*
X382762Y92500D01*
X383372Y89335D01*
X383421Y89215D01*
X383443Y89051D01*
X383491Y88936D01*
X383504Y88831D01*
X384512Y85762D01*
X384629Y85554D01*
X384643Y85520D01*
X384703Y85285D01*
X386079Y82395D01*
X386080Y82395D01*
X386080Y82394D01*
X386093Y82367D01*
X386177Y82254D01*
X386248Y82082D01*
X386312Y81998D01*
X386347Y81911D01*
X388092Y79198D01*
X388252Y79032D01*
X388289Y78984D01*
X388403Y78775D01*
X388814Y78286D01*
X388829Y78274D01*
X388917Y78060D01*
X388910Y78022D01*
Y25716D01*
X382870Y19677D01*
X382464Y19068D01*
X378893D01*
Y13924D01*
X386398D01*
Y16816D01*
X386438Y17018D01*
X386438Y17018D01*
Y17333D01*
X392334Y23228D01*
X392833Y23024D01*
X392833Y9933D01*
X392602Y7878D01*
X391934Y5968D01*
X390857Y4255D01*
X389427Y2825D01*
X387714Y1749D01*
X386806Y1431D01*
X386398Y1720D01*
Y6075D01*
X381849D01*
X376446Y11478D01*
X375768Y11931D01*
X374968Y12090D01*
X374968Y12090D01*
X328866D01*
X321300Y19656D01*
Y20435D01*
X321075Y21274D01*
X320641Y22026D01*
X320026Y22641D01*
X319274Y23075D01*
X318435Y23300D01*
X317565D01*
X316726Y23075D01*
X315974Y22641D01*
X315359Y22026D01*
X314925Y21274D01*
X314700Y20435D01*
Y19566D01*
X314925Y18726D01*
X315359Y17974D01*
X315974Y17359D01*
X316726Y16925D01*
X317565Y16700D01*
X318344D01*
X326522Y8522D01*
X326522Y8522D01*
X327200Y8069D01*
X328000Y7910D01*
X328000Y7910D01*
X374103D01*
X378893Y3120D01*
Y932D01*
X378428Y849D01*
X367572Y849D01*
X367107Y1349D01*
Y6075D01*
X359602D01*
Y5040D01*
X296800D01*
Y13800D01*
X287200D01*
Y10071D01*
X286700Y10005D01*
X286473Y10853D01*
X285841Y11947D01*
X284947Y12841D01*
X283853Y13473D01*
X282632Y13800D01*
X281368D01*
X280147Y13473D01*
X279053Y12841D01*
X278159Y11947D01*
X277527Y10853D01*
X277362Y10238D01*
X276845D01*
X276659Y10930D01*
X276001Y12070D01*
X275070Y13001D01*
X273930Y13659D01*
X273000Y13908D01*
Y9000D01*
X272000D01*
Y8000D01*
X267092D01*
X267341Y7070D01*
X267999Y5930D01*
X268427Y5502D01*
X268235Y5040D01*
X43238D01*
X32965Y15314D01*
Y18888D01*
X32965Y19068D01*
X33332Y19388D01*
X68711D01*
X68711Y19388D01*
X68906Y19427D01*
X68974Y19359D01*
X69726Y18925D01*
X70565Y18700D01*
X71434D01*
X72274Y18925D01*
X73026Y19359D01*
X73641Y19974D01*
X74075Y20726D01*
X74300Y21565D01*
Y22434D01*
X74075Y23274D01*
X73641Y24026D01*
X73026Y24641D01*
X72274Y25075D01*
X71434Y25300D01*
X70565D01*
X69726Y25075D01*
X68974Y24641D01*
X68359Y24026D01*
X68095Y23569D01*
X22478D01*
X21678Y23409D01*
X21000Y22956D01*
X21000Y22956D01*
X16522Y18478D01*
X16069Y17800D01*
X15910Y17000D01*
X15910Y17000D01*
Y8000D01*
X15910Y8000D01*
X16069Y7200D01*
X16522Y6522D01*
X21018Y2026D01*
X21018Y2026D01*
X21696Y1573D01*
X22496Y1414D01*
X25106D01*
X25137Y1382D01*
X25024Y962D01*
X24869Y848D01*
X14139Y848D01*
X13674Y1348D01*
Y6075D01*
X8739D01*
X5090Y9724D01*
Y78539D01*
X5084Y78572D01*
X5177Y78798D01*
X5308Y78959D01*
X5317Y78983D01*
X5480Y79197D01*
X5481Y79198D01*
X7225Y81910D01*
X7260Y81998D01*
X7324Y82082D01*
X7396Y82256D01*
X7480Y82368D01*
X8866Y85278D01*
X8924Y85510D01*
X8945Y85561D01*
X9061Y85766D01*
X10066Y88823D01*
X10079Y88930D01*
X10129Y89051D01*
X10151Y89218D01*
X10200Y89338D01*
X10810Y92503D01*
X10809Y92743D01*
X10815Y92794D01*
X10877Y93024D01*
X11081Y96240D01*
X11066Y96357D01*
X11085Y96502D01*
X11065Y96648D01*
X11081Y96766D01*
X10877Y99980D01*
X10815Y100211D01*
X10808Y100269D01*
X10809Y100507D01*
X10200Y103668D01*
X10151Y103789D01*
X10129Y103954D01*
X10081Y104070D01*
X10068Y104175D01*
X9061Y107239D01*
X8945Y107444D01*
X8922Y107500D01*
X8864Y107731D01*
X7482Y110631D01*
X7397Y110745D01*
X7324Y110923D01*
X7258Y111008D01*
X7224Y111097D01*
X5481Y113807D01*
X5480Y113807D01*
X5178Y114206D01*
X5084Y114433D01*
X5090Y114466D01*
Y171465D01*
X7434Y173809D01*
X12910D01*
Y159664D01*
X12910Y159664D01*
X13069Y158865D01*
X13522Y158186D01*
X14987Y156722D01*
X14987Y156722D01*
X15665Y156269D01*
X16444Y156114D01*
Y153150D01*
X20240D01*
X26048Y147342D01*
X26048Y147342D01*
X26809Y146833D01*
X27706Y146655D01*
X46678D01*
X46974Y146359D01*
X47726Y145925D01*
X48566Y145700D01*
X49434D01*
X50274Y145925D01*
X51026Y146359D01*
X51641Y146974D01*
X52075Y147726D01*
X52300Y148566D01*
Y149434D01*
X52075Y150274D01*
X51641Y151026D01*
X51026Y151641D01*
X50274Y152075D01*
X49434Y152300D01*
X48566D01*
X47726Y152075D01*
X46974Y151641D01*
X46678Y151345D01*
X28677D01*
X23556Y156466D01*
Y160250D01*
X23953Y160498D01*
X25546D01*
X31522Y154522D01*
X31522Y154522D01*
X32200Y154069D01*
X33000Y153910D01*
X84134D01*
X108522Y129522D01*
X109200Y129069D01*
X110000Y128910D01*
X110000Y128910D01*
X147000D01*
X147000Y128910D01*
X147800Y129069D01*
X148478Y129522D01*
X150324Y131369D01*
X161798D01*
Y125887D01*
Y120887D01*
Y115294D01*
X96302D01*
X82424Y129172D01*
X82602Y129672D01*
X84000D01*
X84216Y129700D01*
X84434D01*
X84645Y129756D01*
X84861Y129785D01*
X85063Y129868D01*
X85274Y129925D01*
X85463Y130034D01*
X85664Y130117D01*
X85837Y130250D01*
X86026Y130359D01*
X86181Y130514D01*
X86354Y130646D01*
X86486Y130819D01*
X86641Y130974D01*
X86750Y131163D01*
X86883Y131336D01*
X86966Y131537D01*
X87075Y131726D01*
X87132Y131937D01*
X87215Y132139D01*
X87243Y132355D01*
X87300Y132566D01*
Y132784D01*
X87328Y133000D01*
X87300Y133216D01*
Y133434D01*
X87243Y133645D01*
X87215Y133861D01*
X87132Y134063D01*
X87075Y134274D01*
X86966Y134463D01*
X86883Y134664D01*
X86750Y134837D01*
X86641Y135026D01*
X86486Y135180D01*
X86354Y135354D01*
X86181Y135486D01*
X86026Y135641D01*
X85837Y135750D01*
X85664Y135882D01*
X85463Y135966D01*
X85274Y136075D01*
X85063Y136132D01*
X84861Y136215D01*
X84645Y136243D01*
X84434Y136300D01*
X84216D01*
X84000Y136328D01*
X40776D01*
Y136950D01*
X28153D01*
Y129050D01*
X40776D01*
Y129672D01*
X51398D01*
X51576Y129172D01*
X39240Y116835D01*
X35751D01*
X35641Y117026D01*
X35026Y117641D01*
X34274Y118075D01*
X33434Y118300D01*
X32566D01*
X31726Y118075D01*
X30974Y117641D01*
X30359Y117026D01*
X29925Y116274D01*
X29700Y115434D01*
Y114566D01*
X29925Y113726D01*
X30359Y112974D01*
X30974Y112359D01*
X31726Y111925D01*
X32566Y111700D01*
X33434D01*
X34274Y111925D01*
X35026Y112359D01*
X35641Y112974D01*
X35751Y113165D01*
X40000D01*
X40702Y113304D01*
X41298Y113702D01*
X53760Y126165D01*
X55951D01*
X56103Y125665D01*
X56002Y125598D01*
X42702Y112298D01*
X42304Y111702D01*
X42165Y111000D01*
Y93751D01*
X41974Y93641D01*
X41359Y93026D01*
X40925Y92274D01*
X40700Y91435D01*
Y90566D01*
X40925Y89726D01*
X41359Y88974D01*
X41974Y88359D01*
X42726Y87925D01*
X43566Y87700D01*
X44434D01*
X45274Y87925D01*
X46026Y88359D01*
X46641Y88974D01*
X47075Y89726D01*
X47241Y90346D01*
X47759D01*
X47925Y89726D01*
X48359Y88974D01*
X48974Y88359D01*
X49726Y87925D01*
X50566Y87700D01*
X51434D01*
X52274Y87925D01*
X53026Y88359D01*
X53641Y88974D01*
X54075Y89726D01*
X54300Y90566D01*
Y91435D01*
X54075Y92274D01*
X53641Y93026D01*
X53026Y93641D01*
X52525Y93930D01*
Y107929D01*
X63760Y119165D01*
X64613D01*
X64748Y118665D01*
X64360Y118441D01*
X63559Y117640D01*
X62993Y116660D01*
X62700Y115566D01*
Y114434D01*
X62993Y113340D01*
X63559Y112360D01*
X64360Y111559D01*
X65340Y110993D01*
X66434Y110700D01*
X67566D01*
X68660Y110993D01*
X69640Y111559D01*
X70441Y112360D01*
X71007Y113340D01*
X71300Y114434D01*
Y115566D01*
X71007Y116660D01*
X70441Y117640D01*
X69640Y118441D01*
X69253Y118665D01*
X69387Y119165D01*
X71240D01*
X88244Y102161D01*
X88839Y101763D01*
X89541Y101623D01*
X161798D01*
Y100549D01*
X151459D01*
X151459Y100549D01*
X150659Y100390D01*
X149981Y99937D01*
X137344Y87300D01*
X136566D01*
X135726Y87075D01*
X134974Y86641D01*
X134359Y86026D01*
X133925Y85274D01*
X133700Y84434D01*
Y83565D01*
X133925Y82726D01*
X134359Y81974D01*
X134974Y81359D01*
X135726Y80925D01*
X136566Y80700D01*
X137434D01*
X138274Y80925D01*
X139026Y81359D01*
X139641Y81974D01*
X140075Y82726D01*
X140300Y83565D01*
Y84344D01*
X152324Y96368D01*
X161798D01*
Y95887D01*
X171272D01*
Y100887D01*
Y105887D01*
Y110887D01*
Y115887D01*
Y120887D01*
Y125887D01*
Y130887D01*
Y135887D01*
Y140887D01*
Y145887D01*
Y148720D01*
X171734Y148912D01*
X176910Y143736D01*
Y122000D01*
X176910Y122000D01*
X177069Y121200D01*
X177522Y120522D01*
X188248Y109796D01*
X188248Y109796D01*
X188926Y109343D01*
X189726Y109184D01*
X214861D01*
X224323Y99721D01*
X224132Y99259D01*
X180272D01*
Y99459D01*
X178500D01*
Y94522D01*
Y89585D01*
X180272D01*
Y89785D01*
X190160D01*
Y89271D01*
X189696Y89003D01*
X188997Y88304D01*
X188874Y88090D01*
X187670D01*
Y88670D01*
X182330D01*
Y83330D01*
X187670D01*
Y83910D01*
X188874D01*
X188997Y83696D01*
X189696Y82997D01*
X189910Y82873D01*
Y70000D01*
X189910Y70000D01*
X190069Y69200D01*
X190522Y68522D01*
X200910Y58134D01*
Y51577D01*
X200359Y51026D01*
X199925Y50274D01*
X199700Y49434D01*
Y48566D01*
X199925Y47726D01*
X200359Y46974D01*
X200974Y46359D01*
X201726Y45925D01*
X202566Y45700D01*
X203344D01*
X209522Y39522D01*
X210200Y39069D01*
X211000Y38910D01*
X211000Y38910D01*
X218134D01*
X223910Y33134D01*
Y26866D01*
X220134Y23090D01*
X191000D01*
X191000Y23090D01*
X190200Y22931D01*
X189522Y22478D01*
X180771Y13727D01*
X180500Y13800D01*
X179500D01*
X178533Y13541D01*
X177667Y13041D01*
X176959Y12333D01*
X176459Y11467D01*
X176200Y10500D01*
Y9500D01*
X176459Y8533D01*
X176959Y7667D01*
X177667Y6959D01*
X178533Y6459D01*
X179500Y6200D01*
X180500D01*
X181467Y6459D01*
X182333Y6959D01*
X183041Y7667D01*
X183541Y8533D01*
X183800Y9500D01*
Y10500D01*
X183727Y10771D01*
X191866Y18910D01*
X221000D01*
X221000Y18910D01*
X221800Y19069D01*
X222478Y19522D01*
X227478Y24522D01*
X227478Y24522D01*
X227931Y25200D01*
X228090Y26000D01*
X228090Y26000D01*
Y34000D01*
X227931Y34800D01*
X227478Y35478D01*
X227478Y35478D01*
X220478Y42478D01*
X219800Y42931D01*
X219000Y43090D01*
X219000Y43090D01*
X211866D01*
X206300Y48656D01*
Y49434D01*
X206075Y50274D01*
X205641Y51026D01*
X205090Y51577D01*
Y59000D01*
X205090Y59000D01*
X204931Y59800D01*
X204478Y60478D01*
X194090Y70866D01*
Y82873D01*
X194304Y82997D01*
X195003Y83696D01*
X195497Y84552D01*
X195753Y85506D01*
X196247D01*
X196503Y84552D01*
X196997Y83696D01*
X197696Y82997D01*
X197910Y82873D01*
Y71000D01*
X197910Y71000D01*
X198069Y70200D01*
X198522Y69522D01*
X209910Y58134D01*
Y51577D01*
X209359Y51026D01*
X208925Y50274D01*
X208700Y49434D01*
Y48566D01*
X208925Y47726D01*
X209359Y46974D01*
X209974Y46359D01*
X210726Y45925D01*
X211565Y45700D01*
X212435D01*
X213274Y45925D01*
X214026Y46359D01*
X214577Y46910D01*
X221134D01*
X232910Y35134D01*
Y25866D01*
X225134Y18090D01*
X196000D01*
X195200Y17931D01*
X194522Y17478D01*
X190771Y13727D01*
X190500Y13800D01*
X189500D01*
X188533Y13541D01*
X187667Y13041D01*
X186959Y12333D01*
X186459Y11467D01*
X186200Y10500D01*
Y9500D01*
X186459Y8533D01*
X186959Y7667D01*
X187667Y6959D01*
X188533Y6459D01*
X189500Y6200D01*
X190500D01*
X191467Y6459D01*
X192333Y6959D01*
X193041Y7667D01*
X193541Y8533D01*
X193800Y9500D01*
Y10500D01*
X193727Y10771D01*
X196866Y13910D01*
X198172D01*
X198306Y13410D01*
X197667Y13041D01*
X196959Y12333D01*
X196459Y11467D01*
X196200Y10500D01*
Y9500D01*
X196459Y8533D01*
X196959Y7667D01*
X197667Y6959D01*
X198533Y6459D01*
X199500Y6200D01*
X200500D01*
X201467Y6459D01*
X202333Y6959D01*
X203041Y7667D01*
X203541Y8533D01*
X203800Y9500D01*
Y10500D01*
X203541Y11467D01*
X203041Y12333D01*
X202333Y13041D01*
X201694Y13410D01*
X201828Y13910D01*
X208172D01*
X208306Y13410D01*
X207667Y13041D01*
X206959Y12333D01*
X206459Y11467D01*
X206200Y10500D01*
Y9500D01*
X206459Y8533D01*
X206959Y7667D01*
X207667Y6959D01*
X208533Y6459D01*
X209500Y6200D01*
X210500D01*
X211467Y6459D01*
X212333Y6959D01*
X213041Y7667D01*
X213541Y8533D01*
X213800Y9500D01*
Y10500D01*
X213541Y11467D01*
X213041Y12333D01*
X212333Y13041D01*
X211694Y13410D01*
X211828Y13910D01*
X218172D01*
X218306Y13410D01*
X217667Y13041D01*
X216959Y12333D01*
X216459Y11467D01*
X216200Y10500D01*
Y9500D01*
X216459Y8533D01*
X216959Y7667D01*
X217667Y6959D01*
X218533Y6459D01*
X219500Y6200D01*
X220500D01*
X221467Y6459D01*
X222333Y6959D01*
X223041Y7667D01*
X223541Y8533D01*
X223800Y9500D01*
Y10500D01*
X223541Y11467D01*
X223041Y12333D01*
X222333Y13041D01*
X221694Y13410D01*
X221828Y13910D01*
X226000D01*
X226000Y13910D01*
X226800Y14069D01*
X227478Y14522D01*
X236478Y23522D01*
X236478Y23522D01*
X236931Y24200D01*
X237090Y25000D01*
Y36000D01*
X237090Y36000D01*
X236931Y36800D01*
X236478Y37478D01*
X236478Y37478D01*
X223478Y50478D01*
X222800Y50931D01*
X222000Y51090D01*
X222000Y51090D01*
X214577D01*
X214090Y51577D01*
Y59000D01*
X213931Y59800D01*
X213478Y60478D01*
X213478Y60478D01*
X202090Y71866D01*
Y82873D01*
X202304Y82997D01*
X202877Y83570D01*
X203377Y83392D01*
Y83330D01*
X208717D01*
Y88670D01*
X203377D01*
Y88608D01*
X202877Y88430D01*
X202304Y89003D01*
X201816Y89285D01*
X201950Y89785D01*
X215410D01*
Y77500D01*
X215410Y77500D01*
X215569Y76700D01*
X216022Y76022D01*
X227522Y64522D01*
X228200Y64069D01*
X229000Y63910D01*
X229000Y63910D01*
X271134D01*
X303910Y31134D01*
Y11577D01*
X303359Y11026D01*
X302925Y10274D01*
X302700Y9434D01*
Y8566D01*
X302925Y7726D01*
X303359Y6974D01*
X303974Y6359D01*
X304726Y5925D01*
X305566Y5700D01*
X306434D01*
X307274Y5925D01*
X308026Y6359D01*
X308641Y6974D01*
X309075Y7726D01*
X309300Y8566D01*
Y9434D01*
X309075Y10274D01*
X308641Y11026D01*
X308090Y11577D01*
Y32000D01*
X308090Y32000D01*
X307931Y32800D01*
X307478Y33478D01*
X307478Y33478D01*
X273478Y67478D01*
X272800Y67931D01*
X272000Y68090D01*
X272000Y68090D01*
X229866D01*
X219590Y78366D01*
Y89785D01*
X220410D01*
Y85138D01*
X220410Y85138D01*
X220569Y84338D01*
X221022Y83660D01*
X227662Y77020D01*
X227968Y76670D01*
X227968D01*
X227968Y76670D01*
Y71330D01*
X232586D01*
X232914Y71330D01*
X233414Y71330D01*
X238032D01*
Y71910D01*
X240672D01*
Y71625D01*
X245422D01*
Y76375D01*
X240672D01*
Y76090D01*
X238032D01*
Y76670D01*
X232885Y76670D01*
X232531Y77024D01*
Y77197D01*
X232531Y77197D01*
X232372Y77997D01*
X231919Y78675D01*
X224590Y86004D01*
Y89785D01*
X225072D01*
Y90385D01*
X225175Y90417D01*
X225572Y90472D01*
X237522Y78522D01*
X237522Y78522D01*
X238200Y78069D01*
X239000Y77910D01*
X239000Y77910D01*
X257134D01*
X261865Y73180D01*
X261865Y73179D01*
X262543Y72726D01*
X263343Y72567D01*
X263343Y72567D01*
X302577D01*
X303031Y72457D01*
Y70685D01*
X308968D01*
Y72457D01*
X308769D01*
Y77572D01*
X308759D01*
Y82279D01*
X309635D01*
Y86165D01*
X312365D01*
Y86019D01*
X318296D01*
Y87386D01*
X321298Y90387D01*
X321696Y90983D01*
X321835Y91685D01*
Y117839D01*
X321696Y118542D01*
X321298Y119137D01*
X317585Y122850D01*
X316990Y123248D01*
X316287Y123387D01*
X302520D01*
X301818Y123248D01*
X301223Y122850D01*
X298947Y120574D01*
X298585D01*
X298153Y120488D01*
X297788Y120244D01*
X297544Y119878D01*
X297458Y119447D01*
Y114900D01*
X297544Y114468D01*
X297788Y114103D01*
X298153Y113859D01*
X298585Y113773D01*
X299209D01*
X299400Y113311D01*
X289143Y103054D01*
X288745Y102458D01*
X288606Y101756D01*
Y94670D01*
X287968D01*
Y92122D01*
X285681Y89835D01*
X282296D01*
Y93721D01*
X276365D01*
Y93575D01*
X263020D01*
X258271Y98325D01*
X261298Y101352D01*
X261696Y101947D01*
X261835Y102650D01*
Y118249D01*
X262026Y118359D01*
X262641Y118974D01*
X263075Y119726D01*
X263300Y120566D01*
Y121434D01*
X263075Y122274D01*
X262641Y123026D01*
X262026Y123641D01*
X261274Y124075D01*
X260435Y124300D01*
X259565D01*
X258726Y124075D01*
X257974Y123641D01*
X257359Y123026D01*
X256925Y122274D01*
X256700Y121434D01*
Y120566D01*
X256925Y119726D01*
X257359Y118974D01*
X257974Y118359D01*
X258165Y118249D01*
Y103410D01*
X254915Y100160D01*
X244534D01*
X244327Y100660D01*
X244641Y100974D01*
X245075Y101726D01*
X245300Y102566D01*
Y103434D01*
X245075Y104274D01*
X244641Y105026D01*
X244026Y105641D01*
X243274Y106075D01*
X242654Y106241D01*
Y106759D01*
X243274Y106925D01*
X244026Y107359D01*
X244641Y107974D01*
X245075Y108726D01*
X245300Y109566D01*
Y110434D01*
X245075Y111274D01*
X244641Y112026D01*
X244026Y112641D01*
X243274Y113075D01*
X242654Y113241D01*
Y113759D01*
X243274Y113925D01*
X244026Y114359D01*
X244641Y114974D01*
X245075Y115726D01*
X245300Y116566D01*
Y117434D01*
X245075Y118274D01*
X244641Y119026D01*
X244026Y119641D01*
X243274Y120075D01*
X242435Y120300D01*
X241565D01*
X240726Y120075D01*
X239974Y119641D01*
X239359Y119026D01*
X238925Y118274D01*
X238759Y117654D01*
X238702Y117635D01*
X238202Y117994D01*
Y120887D01*
Y125887D01*
Y130887D01*
Y135887D01*
Y141623D01*
X239247D01*
Y141506D01*
X239503Y140551D01*
X239997Y139696D01*
X240696Y138997D01*
X241551Y138503D01*
X242506Y138247D01*
X243494D01*
X244017Y138387D01*
X256702Y125702D01*
X257298Y125304D01*
X258000Y125165D01*
X301000D01*
X301702Y125304D01*
X302298Y125702D01*
X310577Y133982D01*
X310975Y134577D01*
X311115Y135280D01*
Y135691D01*
X311212Y135756D01*
X311456Y136122D01*
X311542Y136553D01*
Y141100D01*
X311456Y141532D01*
X311212Y141897D01*
X310846Y142141D01*
X310415Y142227D01*
X308585D01*
X308154Y142141D01*
X307788Y141897D01*
X307544Y141532D01*
X307458Y141100D01*
Y138675D01*
X307444Y138606D01*
Y136040D01*
X300240Y128835D01*
X258760D01*
X246613Y140983D01*
X246753Y141506D01*
Y142494D01*
X246588Y143110D01*
X247036Y143368D01*
X259554Y130850D01*
X260150Y130453D01*
X260852Y130313D01*
X299180D01*
X299882Y130453D01*
X300477Y130850D01*
X305053Y135426D01*
X305415D01*
X305847Y135512D01*
X306212Y135756D01*
X306456Y136122D01*
X306542Y136553D01*
Y141100D01*
X306456Y141532D01*
X306212Y141897D01*
X305847Y142141D01*
X305415Y142227D01*
X303585D01*
X303153Y142141D01*
X302788Y141897D01*
X302544Y141532D01*
X302458Y141100D01*
Y138022D01*
X302004Y137568D01*
X301542Y137759D01*
Y141100D01*
X301456Y141532D01*
X301335Y141713D01*
Y142960D01*
X302026Y143359D01*
X302577Y143910D01*
X313134D01*
X314151Y142893D01*
X313960Y142431D01*
X313585D01*
X313075Y142330D01*
X312644Y142041D01*
X312355Y141610D01*
X312254Y141100D01*
Y139827D01*
X314500D01*
Y138827D01*
X315500D01*
Y134233D01*
X316851Y132882D01*
X317364Y132540D01*
X317969Y132420D01*
X318047D01*
Y131480D01*
X318317Y130474D01*
X318837Y129573D01*
X319573Y128837D01*
X320474Y128317D01*
X321000Y128176D01*
Y132000D01*
X322000D01*
Y133000D01*
X325824D01*
X325683Y133526D01*
X325173Y134410D01*
X325237Y134676D01*
X325333Y134910D01*
X342084D01*
X342084Y134910D01*
X342884Y135069D01*
X343562Y135522D01*
X381849Y173809D01*
X386398D01*
Y178952D01*
X378893D01*
Y176765D01*
X341218Y139090D01*
X323874D01*
X323569Y139467D01*
X323788Y139875D01*
X324240Y139785D01*
X332907D01*
X333512Y139906D01*
X334024Y140248D01*
X336368Y142591D01*
X336710Y143104D01*
X336830Y143709D01*
Y145332D01*
X337849Y146351D01*
X338191Y146863D01*
X338280Y147310D01*
X339721D01*
Y153094D01*
X340267Y153202D01*
X340780Y153545D01*
X343117Y155883D01*
X343460Y156395D01*
X343580Y157000D01*
Y164000D01*
X343460Y164605D01*
X343117Y165118D01*
X340699Y167536D01*
Y168156D01*
X341158Y168437D01*
X341199Y168437D01*
X341480Y168381D01*
X342505D01*
X342547Y168364D01*
Y169197D01*
X341480D01*
Y174945D01*
X349354D01*
Y169197D01*
X344547D01*
Y168364D01*
X344589Y168381D01*
X349354D01*
X349667Y168443D01*
X349931Y168620D01*
X350108Y168885D01*
X350170Y169197D01*
Y174945D01*
X350108Y175257D01*
X349988Y175437D01*
X350108Y175617D01*
X350170Y175929D01*
Y178685D01*
X350108Y178997D01*
X349931Y179262D01*
X349667Y179439D01*
X349354Y179501D01*
X348103D01*
Y181512D01*
X348120Y181638D01*
Y183000D01*
X347287D01*
Y178685D01*
X349354D01*
Y175929D01*
X342169D01*
Y187150D01*
X342172Y187232D01*
X342178Y187314D01*
X342189Y187396D01*
X342204Y187477D01*
X342223Y187557D01*
X342246Y187636D01*
X342274Y187714D01*
X342305Y187790D01*
X342341Y187865D01*
X342380Y187937D01*
X342423Y188007D01*
X342470Y188075D01*
X342520Y188141D01*
X342574Y188203D01*
X342631Y188263D01*
X342690Y188320D01*
X342753Y188373D01*
X342818Y188424D01*
X342886Y188470D01*
X342957Y188513D01*
X343029Y188553D01*
X343104Y188588D01*
X343180Y188620D01*
X343257Y188647D01*
X343337Y188671D01*
X343417Y188690D01*
X343498Y188705D01*
X343580Y188716D01*
X343662Y188722D01*
X343728Y188724D01*
Y189587D01*
X343602Y189535D01*
X343598Y189535D01*
X343515Y189529D01*
X343495Y189523D01*
X343473Y189524D01*
X343391Y189514D01*
X343371Y189507D01*
X343349Y189507D01*
X343268Y189492D01*
X343248Y189484D01*
X343226Y189483D01*
X343146Y189464D01*
X343126Y189455D01*
X343105Y189453D01*
X343026Y189429D01*
X343007Y189419D01*
X342985Y189416D01*
X342908Y189389D01*
X342889Y189378D01*
X342868Y189373D01*
X342792Y189342D01*
X342773Y189330D01*
X342752Y189324D01*
X342678Y189289D01*
X342661Y189276D01*
X342640Y189270D01*
X342567Y189230D01*
X342551Y189216D01*
X342530Y189209D01*
X342460Y189166D01*
X342444Y189151D01*
X342424Y189143D01*
X342356Y189096D01*
X342341Y189080D01*
X342322Y189071D01*
X342256Y189021D01*
X342242Y189004D01*
X342223Y188994D01*
X342161Y188940D01*
X342147Y188923D01*
X342129Y188912D01*
X342094Y188879D01*
X341891Y188898D01*
X341650Y189017D01*
X341595Y189069D01*
Y190905D01*
X338789D01*
Y184984D01*
Y179063D01*
X341354D01*
Y176173D01*
X341206Y176085D01*
X340706Y176369D01*
Y177123D01*
X330669D01*
Y177323D01*
X329882D01*
Y177123D01*
X329853D01*
Y172878D01*
Y168633D01*
X329882D01*
Y168433D01*
X330669D01*
Y168633D01*
X332227D01*
X332357Y168133D01*
X331632Y167409D01*
X331290Y166896D01*
X331170Y166291D01*
Y164668D01*
X330151Y163649D01*
X329809Y163137D01*
X329720Y162690D01*
X328279D01*
Y156365D01*
X332420D01*
Y155720D01*
X332540Y155115D01*
X332882Y154603D01*
X333189Y154297D01*
X332997Y153835D01*
X331819D01*
Y153635D01*
X328279D01*
Y147310D01*
X329720D01*
X329809Y146863D01*
X330151Y146351D01*
X330594Y145908D01*
X330403Y145446D01*
X325931D01*
X317709Y153667D01*
X317196Y154010D01*
X316592Y154130D01*
X287411D01*
X286806Y154010D01*
X286293Y153667D01*
X275612Y142986D01*
X275270Y142474D01*
X275149Y141869D01*
Y135785D01*
X275270Y135180D01*
X275612Y134667D01*
X275834Y134445D01*
X275643Y133983D01*
X261612D01*
X246613Y148983D01*
X246753Y149506D01*
Y150494D01*
X246497Y151449D01*
X246003Y152304D01*
X245304Y153003D01*
X244448Y153497D01*
X243494Y153753D01*
X242506D01*
X241551Y153497D01*
X240696Y153003D01*
X239997Y152304D01*
X239503Y151449D01*
X239247Y150494D01*
Y150294D01*
X238202D01*
Y155887D01*
Y160687D01*
X238402D01*
Y162459D01*
X228528D01*
Y160687D01*
X228728D01*
Y155887D01*
Y150887D01*
Y145887D01*
Y140887D01*
Y135887D01*
Y130887D01*
Y125887D01*
Y120887D01*
Y115887D01*
Y110887D01*
Y105887D01*
Y101936D01*
X228228Y101728D01*
X217204Y112752D01*
X216526Y113205D01*
X215726Y113364D01*
X215726Y113364D01*
X190592D01*
X181090Y122866D01*
Y144602D01*
X181090Y144602D01*
X180931Y145402D01*
X180478Y146080D01*
X180478Y146080D01*
X173251Y153307D01*
X177118Y157174D01*
X177460Y157686D01*
X177580Y158291D01*
Y163000D01*
X177460Y163605D01*
X177118Y164118D01*
X176697Y164538D01*
X176888Y165000D01*
X228528D01*
Y164459D01*
X238402D01*
Y166230D01*
X238000D01*
Y192156D01*
X358907Y192157D01*
X359402Y191656D01*
Y190373D01*
X363354D01*
X367307D01*
X367307Y192145D01*
X367802Y192157D01*
X378481Y192157D01*
X378893Y191656D01*
D02*
G37*
G36*
X6168Y190895D02*
Y189629D01*
X6111Y189343D01*
X6168Y189058D01*
Y186801D01*
X9274D01*
X12910Y183166D01*
Y178953D01*
X6168D01*
Y178298D01*
X5695Y177982D01*
X5695Y177982D01*
X1522Y173809D01*
X1238Y173384D01*
X738Y173536D01*
X738Y183071D01*
X970Y185127D01*
X1638Y187037D01*
X2714Y188750D01*
X4145Y190180D01*
X5668Y191137D01*
X6168Y190895D01*
D02*
G37*
G36*
X162000Y168361D02*
X145874D01*
X144367Y169868D01*
X144558Y170330D01*
X145914Y170330D01*
X146414Y170330D01*
X151032D01*
Y172714D01*
X154273Y175955D01*
X154726Y176633D01*
X154885Y177433D01*
Y180444D01*
X155367D01*
Y187556D01*
X150224D01*
Y180444D01*
X150705D01*
Y178299D01*
X148076Y175670D01*
X146414D01*
X146086Y175670D01*
X145586Y175670D01*
X140968D01*
Y173833D01*
X139032D01*
Y175670D01*
X134086D01*
Y175670D01*
X133914D01*
Y175670D01*
X128968D01*
Y175090D01*
X120000D01*
X119200Y174931D01*
X118522Y174478D01*
X118522Y174478D01*
X111322Y167278D01*
X110869Y166600D01*
X110710Y165800D01*
X110710Y165800D01*
Y152777D01*
X110159Y152226D01*
X109725Y151474D01*
X109500Y150634D01*
Y149766D01*
X109725Y148926D01*
X110159Y148174D01*
X110774Y147559D01*
X111526Y147125D01*
X112366Y146900D01*
X113234D01*
X114074Y147125D01*
X114826Y147559D01*
X115441Y148174D01*
X115875Y148926D01*
X116100Y149766D01*
Y150544D01*
X120930Y155374D01*
X125050D01*
Y151153D01*
X132950D01*
Y156368D01*
X149873D01*
X149997Y156154D01*
X150696Y155456D01*
X151551Y154962D01*
X152506Y154706D01*
X153494D01*
X154448Y154962D01*
X155304Y155456D01*
X156003Y156154D01*
X156126Y156368D01*
X161798D01*
Y155039D01*
X161010D01*
X160406Y154919D01*
X159893Y154576D01*
X156897Y151580D01*
X156421D01*
X156003Y152304D01*
X155304Y153003D01*
X154448Y153497D01*
X153494Y153753D01*
X152506D01*
X151551Y153497D01*
X150696Y153003D01*
X149997Y152304D01*
X149503Y151449D01*
X149247Y150494D01*
Y149506D01*
X149503Y148551D01*
X149997Y147696D01*
X150696Y146997D01*
X151551Y146503D01*
X152506Y146247D01*
X153494D01*
X154448Y146503D01*
X155304Y146997D01*
X156003Y147696D01*
X156421Y148420D01*
X157552D01*
X158157Y148540D01*
X158669Y148882D01*
X161298Y151512D01*
X161798Y151304D01*
Y145887D01*
Y140887D01*
Y135549D01*
X149459D01*
X148659Y135390D01*
X147981Y134937D01*
X147981Y134937D01*
X146134Y133090D01*
X110866D01*
X86478Y157478D01*
X85800Y157931D01*
X85000Y158090D01*
X85000Y158090D01*
X33866D01*
X27890Y164066D01*
X27212Y164519D01*
X26412Y164678D01*
X26412Y164678D01*
X23556D01*
Y166862D01*
X22090D01*
Y182166D01*
X26726Y186801D01*
X32965D01*
Y191945D01*
X33377Y192156D01*
X162000Y192156D01*
Y168361D01*
D02*
G37*
G36*
X25385Y191746D02*
X25328Y191203D01*
X24986Y190974D01*
X24986Y190974D01*
X18522Y184510D01*
X18069Y183832D01*
X17910Y183032D01*
X17910Y183032D01*
Y166862D01*
X17090D01*
Y184032D01*
X17090Y184032D01*
X16931Y184832D01*
X16478Y185510D01*
X13674Y188314D01*
Y191945D01*
X14086Y192156D01*
X25047Y192156D01*
X25385Y191746D01*
D02*
G37*
G36*
X128968Y170330D02*
X133914D01*
Y170330D01*
X134086D01*
Y170330D01*
X139032D01*
Y170330D01*
X139504Y170261D01*
X144102Y165663D01*
X144615Y165320D01*
X145220Y165200D01*
X161598D01*
Y164459D01*
X166535D01*
Y162459D01*
X161598D01*
Y160687D01*
X161156Y160549D01*
X156126D01*
X156003Y160763D01*
X155304Y161462D01*
X154448Y161956D01*
X153494Y162211D01*
X152506D01*
X151551Y161956D01*
X150696Y161462D01*
X149997Y160763D01*
X149873Y160549D01*
X132950D01*
Y163776D01*
X125050D01*
Y159555D01*
X120065D01*
X120065Y159555D01*
X119265Y159396D01*
X118587Y158943D01*
X115352Y155708D01*
X114890Y155899D01*
Y164934D01*
X120866Y170910D01*
X128968D01*
Y170330D01*
D02*
G37*
G36*
X297185Y148447D02*
X297327Y147970D01*
X296925Y147274D01*
X296700Y146434D01*
Y145566D01*
X296925Y144726D01*
X297359Y143974D01*
X297665Y143668D01*
Y141713D01*
X297544Y141532D01*
X297458Y141100D01*
Y136553D01*
X297544Y136122D01*
X297788Y135756D01*
X298153Y135512D01*
X298585Y135426D01*
X299209D01*
X299400Y134965D01*
X298419Y133983D01*
X293903D01*
X293712Y134445D01*
X294693Y135426D01*
X295415D01*
X295847Y135512D01*
X296212Y135756D01*
X296456Y136122D01*
X296542Y136553D01*
Y141100D01*
X296456Y141532D01*
X296212Y141897D01*
X295847Y142141D01*
X295415Y142227D01*
X293585D01*
X293154Y142141D01*
X292788Y141897D01*
X292544Y141532D01*
X292458Y141100D01*
Y137661D01*
X292004Y137208D01*
X291542Y137399D01*
Y141100D01*
X291456Y141532D01*
X291212Y141897D01*
X290846Y142141D01*
X290415Y142227D01*
X289693D01*
X287847Y144073D01*
X287334Y144416D01*
X286730Y144536D01*
X286368D01*
X285768Y145137D01*
X289101Y148470D01*
X297176D01*
X297185Y148447D01*
D02*
G37*
G36*
X312458Y119297D02*
Y117415D01*
X312410Y117173D01*
Y113090D01*
X310000D01*
X310000Y113090D01*
X309200Y112931D01*
X308522Y112478D01*
X308522Y112478D01*
X305344Y109300D01*
X304566D01*
X303726Y109075D01*
X302974Y108641D01*
X302359Y108026D01*
X301925Y107274D01*
X301700Y106434D01*
Y105566D01*
X301925Y104726D01*
X302359Y103974D01*
X302974Y103359D01*
X303726Y102925D01*
X304566Y102700D01*
X305434D01*
X306274Y102925D01*
X307026Y103359D01*
X307641Y103974D01*
X308075Y104726D01*
X308300Y105566D01*
Y106344D01*
X310866Y108910D01*
X311041D01*
X311428Y108639D01*
Y104114D01*
X311228D01*
Y102638D01*
X314000D01*
X316772D01*
Y104114D01*
X316572D01*
Y106746D01*
X316590Y106839D01*
Y111000D01*
Y117173D01*
X316542Y117415D01*
Y118048D01*
X317004Y118240D01*
X318165Y117079D01*
Y92445D01*
X315701Y89981D01*
X312365D01*
Y89835D01*
X309635D01*
Y93721D01*
X305998D01*
X305425Y93835D01*
X298032D01*
Y94670D01*
X293086D01*
Y94670D01*
X292914D01*
Y94670D01*
X292276D01*
Y100996D01*
X305053Y113773D01*
X305415D01*
X305847Y113859D01*
X306212Y114103D01*
X306456Y114468D01*
X306542Y114900D01*
Y119447D01*
X306756Y119708D01*
X307066D01*
X307458Y119297D01*
Y114900D01*
X307544Y114468D01*
X307788Y114103D01*
X308154Y113859D01*
X308585Y113773D01*
X310415D01*
X310846Y113859D01*
X311212Y114103D01*
X311456Y114468D01*
X311542Y114900D01*
Y119447D01*
X311756Y119708D01*
X312066D01*
X312458Y119297D01*
D02*
G37*
G36*
X94244Y112161D02*
X94839Y111763D01*
X95541Y111623D01*
X161798D01*
Y110294D01*
X93302D01*
X77998Y125598D01*
X77897Y125665D01*
X78049Y126165D01*
X80240D01*
X94244Y112161D01*
D02*
G37*
G36*
X91244Y107161D02*
X91839Y106763D01*
X92541Y106623D01*
X161798D01*
Y105294D01*
X90302D01*
X73631Y121965D01*
X73838Y122465D01*
X75940D01*
X91244Y107161D01*
D02*
G37*
G36*
X61369Y121965D02*
X49392Y109987D01*
X48994Y109392D01*
X48854Y108689D01*
Y93521D01*
X48359Y93026D01*
X47925Y92274D01*
X47759Y91654D01*
X47241D01*
X47075Y92274D01*
X46641Y93026D01*
X46026Y93641D01*
X45835Y93751D01*
Y110240D01*
X58060Y122465D01*
X61162D01*
X61369Y121965D01*
D02*
G37*
G36*
X260962Y90442D02*
X261558Y90045D01*
X262260Y89905D01*
X267704D01*
Y86019D01*
X273635D01*
Y86165D01*
X276365D01*
Y82279D01*
X282126D01*
X286702Y77702D01*
X287298Y77304D01*
X287584Y77248D01*
X287534Y76748D01*
X264208D01*
X259478Y81478D01*
X258800Y81931D01*
X258000Y82090D01*
X258000Y82090D01*
X239866D01*
X229090Y92866D01*
Y95887D01*
X231508D01*
Y94402D01*
X231508Y94402D01*
X231667Y93602D01*
X232120Y92923D01*
X239282Y85762D01*
X239282Y85762D01*
X239961Y85308D01*
X240760Y85149D01*
X241735D01*
X241997Y84696D01*
X242696Y83997D01*
X243551Y83503D01*
X244506Y83247D01*
X245494D01*
X246448Y83503D01*
X247304Y83997D01*
X248003Y84696D01*
X248497Y85552D01*
X248753Y86506D01*
Y87494D01*
X248497Y88449D01*
X248003Y89304D01*
X247304Y90003D01*
X246448Y90497D01*
X245494Y90753D01*
X244506D01*
X243551Y90497D01*
X242696Y90003D01*
X242096Y89403D01*
X241553D01*
X235689Y95267D01*
Y95887D01*
X238202D01*
Y96490D01*
X254915D01*
X260962Y90442D01*
D02*
G37*
G36*
X303704Y82279D02*
X304579D01*
Y77572D01*
X303232D01*
Y76748D01*
X294853D01*
X294804Y77248D01*
X295090Y77304D01*
X295685Y77702D01*
X296857Y78874D01*
X297255Y79469D01*
X297394Y80172D01*
Y81330D01*
X298032D01*
Y86165D01*
X303704D01*
Y82279D01*
D02*
G37*
G36*
X25459Y19068D02*
X25459Y18888D01*
Y13924D01*
X28442D01*
X40895Y1472D01*
X40895Y1472D01*
X41080Y1348D01*
X40928Y848D01*
X33430D01*
X32965Y1348D01*
Y6075D01*
X25459D01*
Y5594D01*
X23362D01*
X20090Y8866D01*
Y16134D01*
X23344Y19388D01*
X25092D01*
X25459Y19068D01*
D02*
G37*
%LPC*%
G36*
X322272Y189587D02*
X322145Y189535D01*
X322141Y189535D01*
X322059Y189529D01*
X322038Y189523D01*
X322016Y189524D01*
X321935Y189514D01*
X321914Y189507D01*
X321892Y189507D01*
X321811Y189492D01*
X321791Y189484D01*
X321769Y189483D01*
X321689Y189464D01*
X321670Y189455D01*
X321648Y189453D01*
X321569Y189429D01*
X321550Y189419D01*
X321529Y189416D01*
X321451Y189389D01*
X321432Y189378D01*
X321411Y189373D01*
X321335Y189342D01*
X321317Y189330D01*
X321296Y189324D01*
X321221Y189289D01*
X321204Y189276D01*
X321183Y189270D01*
X321111Y189230D01*
X321094Y189216D01*
X321074Y189209D01*
X321004Y189166D01*
X320988Y189151D01*
X320968Y189143D01*
X320900Y189096D01*
X320885Y189080D01*
X320865Y189071D01*
X320800Y189021D01*
X320785Y189004D01*
X320767Y188994D01*
X320704Y188940D01*
X320690Y188923D01*
X320672Y188912D01*
X320612Y188855D01*
X320600Y188837D01*
X320582Y188825D01*
X320526Y188765D01*
X320514Y188747D01*
X320497Y188733D01*
X320443Y188670D01*
X320433Y188652D01*
X320416Y188637D01*
X320366Y188572D01*
X320357Y188552D01*
X320341Y188537D01*
X320294Y188469D01*
X320286Y188449D01*
X320271Y188434D01*
X320228Y188363D01*
X320221Y188343D01*
X320207Y188326D01*
X320167Y188254D01*
X320161Y188233D01*
X320148Y188216D01*
X320112Y188141D01*
X320107Y188120D01*
X320095Y188102D01*
X320064Y188026D01*
X320059Y188005D01*
X320048Y187986D01*
X320021Y187909D01*
X320018Y187887D01*
X320008Y187868D01*
X319984Y187789D01*
X319982Y187767D01*
X319973Y187748D01*
X319954Y187668D01*
X319953Y187646D01*
X319945Y187626D01*
X319930Y187545D01*
X319930Y187523D01*
X319923Y187502D01*
X319913Y187421D01*
X319914Y187399D01*
X319908Y187378D01*
X319902Y187296D01*
X319904Y187275D01*
X319899Y187253D01*
X319897Y187171D01*
X319899Y187160D01*
X319897Y187150D01*
Y186488D01*
X319880Y186362D01*
Y185000D01*
X320713D01*
Y187150D01*
X320715Y187232D01*
X320721Y187314D01*
X320732Y187396D01*
X320747Y187477D01*
X320766Y187557D01*
X320790Y187636D01*
X320817Y187714D01*
X320849Y187790D01*
X320884Y187865D01*
X320924Y187937D01*
X320967Y188007D01*
X321013Y188075D01*
X321063Y188141D01*
X321117Y188203D01*
X321174Y188263D01*
X321234Y188320D01*
X321296Y188373D01*
X321362Y188424D01*
X321430Y188470D01*
X321500Y188513D01*
X321572Y188553D01*
X321647Y188588D01*
X321723Y188620D01*
X321801Y188647D01*
X321880Y188671D01*
X321960Y188690D01*
X322041Y188705D01*
X322123Y188716D01*
X322205Y188722D01*
X322272Y188724D01*
Y189587D01*
D02*
G37*
G36*
X329211Y190905D02*
X326406D01*
Y189069D01*
X326350Y189017D01*
X326109Y188898D01*
X325905Y188879D01*
X325871Y188912D01*
X325853Y188923D01*
X325839Y188940D01*
X325777Y188994D01*
X325758Y189004D01*
X325744Y189021D01*
X325678Y189071D01*
X325659Y189080D01*
X325644Y189096D01*
X325576Y189143D01*
X325556Y189151D01*
X325540Y189166D01*
X325469Y189209D01*
X325449Y189216D01*
X325432Y189230D01*
X325360Y189270D01*
X325339Y189276D01*
X325322Y189289D01*
X325248Y189324D01*
X325227Y189330D01*
X325208Y189342D01*
X325132Y189373D01*
X325111Y189378D01*
X325093Y189389D01*
X325015Y189416D01*
X324993Y189419D01*
X324974Y189429D01*
X324895Y189453D01*
X324874Y189455D01*
X324854Y189464D01*
X324774Y189483D01*
X324752Y189484D01*
X324732Y189492D01*
X324651Y189507D01*
X324629Y189507D01*
X324609Y189514D01*
X324527Y189524D01*
X324505Y189523D01*
X324484Y189529D01*
X324402Y189535D01*
X324398Y189535D01*
X324272Y189587D01*
Y188724D01*
X324338Y188722D01*
X324420Y188716D01*
X324502Y188705D01*
X324583Y188690D01*
X324663Y188671D01*
X324743Y188647D01*
X324820Y188620D01*
X324896Y188588D01*
X324971Y188553D01*
X325043Y188513D01*
X325114Y188470D01*
X325182Y188424D01*
X325247Y188373D01*
X325310Y188320D01*
X325370Y188263D01*
X325426Y188203D01*
X325480Y188141D01*
X325530Y188075D01*
X325577Y188007D01*
X325620Y187937D01*
X325659Y187865D01*
X325695Y187790D01*
X325726Y187714D01*
X325754Y187636D01*
X325777Y187557D01*
X325796Y187477D01*
X325811Y187396D01*
X325822Y187314D01*
X325829Y187232D01*
X325831Y187150D01*
Y175929D01*
X318646D01*
Y178685D01*
X320713D01*
Y183000D01*
X319880D01*
Y181638D01*
X319897Y181512D01*
Y179501D01*
X318646D01*
X318334Y179439D01*
X318069Y179262D01*
X317892Y178997D01*
X317830Y178685D01*
Y175929D01*
X317892Y175617D01*
X318012Y175437D01*
X317892Y175257D01*
X317830Y174945D01*
Y169197D01*
X317892Y168885D01*
X318069Y168620D01*
X318334Y168443D01*
X318646Y168381D01*
X323411D01*
X323453Y168364D01*
Y169197D01*
X318646D01*
Y174945D01*
X326520D01*
Y169197D01*
X325453D01*
Y168364D01*
X325495Y168381D01*
X326520D01*
X326609Y168399D01*
X327094Y168433D01*
X327094Y168433D01*
X327094Y168433D01*
X327882D01*
Y172878D01*
Y177323D01*
X327094D01*
Y177323D01*
X326646Y177448D01*
Y179063D01*
X329211D01*
Y184984D01*
Y190905D01*
D02*
G37*
G36*
X367307Y188373D02*
X364354D01*
Y186601D01*
X367307D01*
Y188373D01*
D02*
G37*
G36*
X362354D02*
X359402D01*
Y186601D01*
X362354D01*
Y188373D01*
D02*
G37*
G36*
X345728Y189587D02*
Y188724D01*
X345795Y188722D01*
X345877Y188716D01*
X345959Y188705D01*
X346040Y188690D01*
X346120Y188671D01*
X346199Y188647D01*
X346277Y188620D01*
X346353Y188588D01*
X346427Y188553D01*
X346500Y188513D01*
X346570Y188470D01*
X346638Y188424D01*
X346704Y188373D01*
X346766Y188320D01*
X346826Y188263D01*
X346883Y188203D01*
X346936Y188141D01*
X346987Y188075D01*
X347033Y188007D01*
X347076Y187937D01*
X347116Y187865D01*
X347151Y187790D01*
X347183Y187714D01*
X347210Y187636D01*
X347234Y187557D01*
X347253Y187477D01*
X347268Y187396D01*
X347279Y187314D01*
X347285Y187232D01*
X347287Y187150D01*
Y185000D01*
X348120D01*
Y186362D01*
X348103Y186488D01*
Y187150D01*
X348101Y187160D01*
X348103Y187171D01*
X348101Y187253D01*
X348096Y187275D01*
X348098Y187296D01*
X348092Y187378D01*
X348086Y187399D01*
X348088Y187421D01*
X348077Y187502D01*
X348070Y187523D01*
X348070Y187545D01*
X348055Y187626D01*
X348047Y187646D01*
X348046Y187668D01*
X348027Y187748D01*
X348018Y187767D01*
X348016Y187789D01*
X347992Y187868D01*
X347982Y187887D01*
X347979Y187909D01*
X347952Y187986D01*
X347941Y188005D01*
X347936Y188026D01*
X347905Y188102D01*
X347893Y188120D01*
X347887Y188141D01*
X347852Y188216D01*
X347839Y188233D01*
X347833Y188254D01*
X347793Y188326D01*
X347779Y188343D01*
X347772Y188363D01*
X347729Y188434D01*
X347714Y188449D01*
X347706Y188469D01*
X347659Y188537D01*
X347643Y188552D01*
X347634Y188572D01*
X347584Y188637D01*
X347567Y188652D01*
X347557Y188670D01*
X347503Y188733D01*
X347486Y188747D01*
X347475Y188765D01*
X347418Y188825D01*
X347400Y188837D01*
X347388Y188855D01*
X347328Y188912D01*
X347309Y188923D01*
X347296Y188940D01*
X347233Y188994D01*
X347215Y189004D01*
X347200Y189021D01*
X347135Y189071D01*
X347115Y189080D01*
X347100Y189096D01*
X347032Y189143D01*
X347012Y189151D01*
X346996Y189166D01*
X346926Y189209D01*
X346906Y189216D01*
X346889Y189230D01*
X346817Y189270D01*
X346796Y189276D01*
X346779Y189289D01*
X346704Y189324D01*
X346683Y189330D01*
X346665Y189342D01*
X346589Y189373D01*
X346568Y189378D01*
X346549Y189389D01*
X346472Y189416D01*
X346450Y189419D01*
X346431Y189429D01*
X346352Y189453D01*
X346330Y189455D01*
X346311Y189464D01*
X346231Y189483D01*
X346209Y189484D01*
X346189Y189492D01*
X346108Y189507D01*
X346086Y189507D01*
X346065Y189514D01*
X345984Y189524D01*
X345962Y189523D01*
X345941Y189529D01*
X345859Y189535D01*
X345855Y189535D01*
X345728Y189587D01*
D02*
G37*
G36*
X275362Y187756D02*
X273590D01*
Y185000D01*
X275362D01*
Y187756D01*
D02*
G37*
G36*
X271590D02*
X269819D01*
Y185000D01*
X271590D01*
Y187756D01*
D02*
G37*
G36*
X275362Y183000D02*
X273590D01*
Y180244D01*
X275362D01*
Y183000D01*
D02*
G37*
G36*
X271590D02*
X269819D01*
Y180244D01*
X271590D01*
Y183000D01*
D02*
G37*
G36*
X336789Y190905D02*
X331211D01*
Y184984D01*
Y179063D01*
X336789D01*
Y184984D01*
Y190905D01*
D02*
G37*
G36*
X249572Y187556D02*
X244428D01*
Y180444D01*
X245165D01*
Y176638D01*
X245304Y175935D01*
X245702Y175340D01*
X248968Y172075D01*
Y169330D01*
X253586D01*
X253914Y169330D01*
X254414Y169330D01*
X258165D01*
Y146751D01*
X257974Y146641D01*
X257359Y146026D01*
X256925Y145274D01*
X256700Y144434D01*
Y143566D01*
X256925Y142726D01*
X257359Y141974D01*
X257974Y141359D01*
X258726Y140925D01*
X259565Y140700D01*
X260435D01*
X261274Y140925D01*
X262026Y141359D01*
X262641Y141974D01*
X263075Y142726D01*
X263300Y143566D01*
Y144434D01*
X263075Y145274D01*
X262641Y146026D01*
X262026Y146641D01*
X261835Y146751D01*
Y169330D01*
X265586D01*
X265914Y169330D01*
X266414Y169330D01*
X268437D01*
X274165Y163602D01*
Y158751D01*
X273974Y158641D01*
X273359Y158026D01*
X272925Y157274D01*
X272700Y156434D01*
Y155566D01*
X272925Y154726D01*
X273359Y153974D01*
X273591Y153742D01*
Y153243D01*
X272100Y151753D01*
X271506D01*
X270551Y151497D01*
X269696Y151003D01*
X268997Y150304D01*
X268503Y149449D01*
X268247Y148494D01*
Y147506D01*
X268503Y146552D01*
X268997Y145696D01*
X269696Y144997D01*
X270551Y144503D01*
X271506Y144247D01*
X272494D01*
X273448Y144503D01*
X274304Y144997D01*
X275003Y145696D01*
X275497Y146552D01*
X275753Y147506D01*
Y148494D01*
X275497Y149449D01*
X275310Y149772D01*
X276724Y151185D01*
X277121Y151780D01*
X277261Y152483D01*
Y152921D01*
X277274Y152925D01*
X278026Y153359D01*
X278641Y153974D01*
X279075Y154726D01*
X279300Y155566D01*
Y156434D01*
X279075Y157274D01*
X278641Y158026D01*
X278026Y158641D01*
X277835Y158751D01*
Y164362D01*
X277696Y165065D01*
X277298Y165660D01*
X271032Y171925D01*
Y174670D01*
X266414D01*
X266086Y174670D01*
X265586Y174670D01*
X260968D01*
Y173835D01*
X259032D01*
Y174670D01*
X254414D01*
X254086Y174670D01*
X253586Y174670D01*
X251563D01*
X248835Y177398D01*
Y180444D01*
X249572D01*
Y187556D01*
D02*
G37*
G36*
X206906Y144774D02*
X204287D01*
Y142156D01*
X206906D01*
Y144774D01*
D02*
G37*
G36*
X187839D02*
X185221D01*
Y142156D01*
X187839D01*
Y144774D01*
D02*
G37*
G36*
X202287D02*
X197063D01*
Y141156D01*
X195063D01*
Y144774D01*
X189839D01*
Y141156D01*
X188839D01*
Y140155D01*
X185221D01*
Y137537D01*
Y134931D01*
X188839D01*
Y132931D01*
X185221D01*
Y130313D01*
Y127707D01*
X188839D01*
Y126707D01*
X189839D01*
Y123089D01*
X195063D01*
Y126707D01*
X197063D01*
Y123089D01*
X202287D01*
Y126707D01*
X203287D01*
Y127707D01*
X206906D01*
Y130313D01*
Y132931D01*
X203287D01*
Y134931D01*
X206906D01*
Y137537D01*
Y140155D01*
X203287D01*
Y141156D01*
X202287D01*
Y144774D01*
D02*
G37*
G36*
X313500Y137827D02*
X312254D01*
Y136553D01*
X312355Y136044D01*
X312644Y135612D01*
X313075Y135324D01*
X313500Y135239D01*
Y137827D01*
D02*
G37*
G36*
X24047Y137150D02*
X18535D01*
Y134000D01*
X24047D01*
Y137150D01*
D02*
G37*
G36*
X382976D02*
X377465D01*
Y134000D01*
X382976D01*
Y137150D01*
D02*
G37*
G36*
X375465D02*
X369953D01*
Y134000D01*
X375465D01*
Y137150D01*
D02*
G37*
G36*
X16535D02*
X11024D01*
Y134000D01*
X16535D01*
Y137150D01*
D02*
G37*
G36*
X382976Y132000D02*
X377465D01*
Y128850D01*
X382976D01*
Y132000D01*
D02*
G37*
G36*
X375465D02*
X369953D01*
Y128850D01*
X375465D01*
Y132000D01*
D02*
G37*
G36*
X24047D02*
X18535D01*
Y128850D01*
X24047D01*
Y132000D01*
D02*
G37*
G36*
X16535D02*
X11024D01*
Y128850D01*
X16535D01*
Y132000D01*
D02*
G37*
G36*
X325824Y131000D02*
X323000D01*
Y128176D01*
X323526Y128317D01*
X324427Y128837D01*
X325163Y129573D01*
X325683Y130474D01*
X325824Y131000D01*
D02*
G37*
G36*
X206906Y125707D02*
X204287D01*
Y123089D01*
X206906D01*
Y125707D01*
D02*
G37*
G36*
X187839D02*
X185221D01*
Y123089D01*
X187839D01*
Y125707D01*
D02*
G37*
G36*
X365847Y136950D02*
X353224D01*
Y133758D01*
X346358Y126892D01*
X346336Y126883D01*
X346163Y126750D01*
X345974Y126641D01*
X345819Y126486D01*
X345646Y126354D01*
X345514Y126181D01*
X345359Y126026D01*
X345250Y125837D01*
X345117Y125664D01*
X345034Y125463D01*
X344925Y125274D01*
X344868Y125063D01*
X344785Y124862D01*
X344757Y124645D01*
X344700Y124434D01*
Y124216D01*
X344672Y124000D01*
X344700Y123784D01*
Y123566D01*
X344757Y123355D01*
X344785Y123138D01*
X344868Y122937D01*
X344925Y122726D01*
X345034Y122537D01*
X345117Y122336D01*
X345250Y122163D01*
X345359Y121974D01*
X345514Y121819D01*
X345646Y121646D01*
X345819Y121514D01*
X345974Y121359D01*
X346163Y121250D01*
X346336Y121117D01*
X346537Y121034D01*
X346726Y120925D01*
X346937Y120868D01*
X347139Y120785D01*
X347355Y120756D01*
X347566Y120700D01*
X347784D01*
X348000Y120671D01*
X348173D01*
X348390Y120700D01*
X348434D01*
X348478Y120712D01*
X349035Y120785D01*
X349505Y120980D01*
X349837Y121117D01*
X350527Y121646D01*
X357902Y129022D01*
X358886D01*
X359102Y129050D01*
X365847D01*
Y136950D01*
D02*
G37*
G36*
X295415Y120574D02*
X293585D01*
X293154Y120488D01*
X292788Y120244D01*
X292544Y119878D01*
X292458Y119447D01*
Y114900D01*
X292544Y114468D01*
X292788Y114103D01*
X293154Y113859D01*
X293585Y113773D01*
X295415D01*
X295847Y113859D01*
X296212Y114103D01*
X296456Y114468D01*
X296542Y114900D01*
Y119447D01*
X296456Y119878D01*
X296212Y120244D01*
X295847Y120488D01*
X295415Y120574D01*
D02*
G37*
G36*
X290415D02*
X288585D01*
X288154Y120488D01*
X287788Y120244D01*
X287544Y119878D01*
X287458Y119447D01*
Y114900D01*
X287544Y114468D01*
X287788Y114103D01*
X288154Y113859D01*
X288585Y113773D01*
X290415D01*
X290846Y113859D01*
X291212Y114103D01*
X291456Y114468D01*
X291542Y114900D01*
Y119447D01*
X291456Y119878D01*
X291212Y120244D01*
X290846Y120488D01*
X290415Y120574D01*
D02*
G37*
G36*
X285415D02*
X283585D01*
X283154Y120488D01*
X282788Y120244D01*
X282544Y119878D01*
X282458Y119447D01*
Y114900D01*
X282544Y114468D01*
X282788Y114103D01*
X283154Y113859D01*
X283585Y113773D01*
X285415D01*
X285846Y113859D01*
X286212Y114103D01*
X286456Y114468D01*
X286542Y114900D01*
Y119447D01*
X286456Y119878D01*
X286212Y120244D01*
X285846Y120488D01*
X285415Y120574D01*
D02*
G37*
G36*
X280415D02*
X278585D01*
X278153Y120488D01*
X277788Y120244D01*
X277544Y119878D01*
X277458Y119447D01*
Y114900D01*
X277544Y114468D01*
X277788Y114103D01*
X278153Y113859D01*
X278585Y113773D01*
X280415D01*
X280847Y113859D01*
X281212Y114103D01*
X281456Y114468D01*
X281542Y114900D01*
Y119447D01*
X281456Y119878D01*
X281212Y120244D01*
X280847Y120488D01*
X280415Y120574D01*
D02*
G37*
G36*
X377566Y119300D02*
X376434D01*
X375340Y119007D01*
X374360Y118441D01*
X373559Y117640D01*
X372993Y116660D01*
X372700Y115566D01*
Y114434D01*
X372993Y113340D01*
X373559Y112360D01*
X374360Y111559D01*
X375340Y110993D01*
X376434Y110700D01*
X377566D01*
X378660Y110993D01*
X379640Y111559D01*
X380441Y112360D01*
X381007Y113340D01*
X381300Y114434D01*
Y115566D01*
X381007Y116660D01*
X380441Y117640D01*
X379640Y118441D01*
X378660Y119007D01*
X377566Y119300D01*
D02*
G37*
G36*
X331300D02*
X322700D01*
Y110700D01*
X331300D01*
Y119300D01*
D02*
G37*
G36*
X21300D02*
X12700D01*
Y110700D01*
X21300D01*
Y119300D01*
D02*
G37*
G36*
X378000Y109391D02*
Y106000D01*
X381391D01*
X381193Y106737D01*
X380601Y107763D01*
X379763Y108601D01*
X378737Y109193D01*
X378000Y109391D01*
D02*
G37*
G36*
X376000D02*
X375263Y109193D01*
X374237Y108601D01*
X373399Y107763D01*
X372807Y106737D01*
X372609Y106000D01*
X376000D01*
Y109391D01*
D02*
G37*
G36*
X68000D02*
Y106000D01*
X71391D01*
X71193Y106737D01*
X70601Y107763D01*
X69763Y108601D01*
X68737Y109193D01*
X68000Y109391D01*
D02*
G37*
G36*
X66000D02*
X65263Y109193D01*
X64237Y108601D01*
X63399Y107763D01*
X62807Y106737D01*
X62609Y106000D01*
X66000D01*
Y109391D01*
D02*
G37*
G36*
X327566Y109300D02*
X326434D01*
X325340Y109007D01*
X324360Y108441D01*
X323559Y107640D01*
X322993Y106660D01*
X322700Y105566D01*
Y104434D01*
X322993Y103340D01*
X323559Y102360D01*
X324360Y101559D01*
X325340Y100993D01*
X326434Y100700D01*
X327566D01*
X328660Y100993D01*
X329640Y101559D01*
X330441Y102360D01*
X331007Y103340D01*
X331300Y104434D01*
Y105566D01*
X331007Y106660D01*
X330441Y107640D01*
X329640Y108441D01*
X328660Y109007D01*
X327566Y109300D01*
D02*
G37*
G36*
X17566D02*
X16434D01*
X15340Y109007D01*
X14360Y108441D01*
X13559Y107640D01*
X12993Y106660D01*
X12700Y105566D01*
Y104434D01*
X12993Y103340D01*
X13559Y102360D01*
X14360Y101559D01*
X15340Y100993D01*
X16434Y100700D01*
X17566D01*
X18660Y100993D01*
X19640Y101559D01*
X20441Y102360D01*
X21007Y103340D01*
X21300Y104434D01*
Y105566D01*
X21007Y106660D01*
X20441Y107640D01*
X19640Y108441D01*
X18660Y109007D01*
X17566Y109300D01*
D02*
G37*
G36*
X71391Y104000D02*
X68000D01*
Y100609D01*
X68737Y100807D01*
X69763Y101399D01*
X70601Y102237D01*
X71193Y103263D01*
X71391Y104000D01*
D02*
G37*
G36*
X66000D02*
X62609D01*
X62807Y103263D01*
X63399Y102237D01*
X64237Y101399D01*
X65263Y100807D01*
X66000Y100609D01*
Y104000D01*
D02*
G37*
G36*
X381391D02*
X378000D01*
Y100609D01*
X378737Y100807D01*
X379763Y101399D01*
X380601Y102237D01*
X381193Y103263D01*
X381391Y104000D01*
D02*
G37*
G36*
X376000D02*
X372609D01*
X372807Y103263D01*
X373399Y102237D01*
X374237Y101399D01*
X375263Y100807D01*
X376000Y100609D01*
Y104000D01*
D02*
G37*
G36*
X176500Y99459D02*
X174728D01*
Y95522D01*
X176500D01*
Y99459D01*
D02*
G37*
G36*
X377566Y99300D02*
X376434D01*
X375340Y99007D01*
X374360Y98441D01*
X373559Y97640D01*
X372993Y96660D01*
X372700Y95566D01*
Y94434D01*
X372993Y93340D01*
X373559Y92360D01*
X374360Y91559D01*
X375340Y90993D01*
X376434Y90700D01*
X377566D01*
X378660Y90993D01*
X379640Y91559D01*
X380441Y92360D01*
X381007Y93340D01*
X381300Y94434D01*
Y95566D01*
X381007Y96660D01*
X380441Y97640D01*
X379640Y98441D01*
X378660Y99007D01*
X377566Y99300D01*
D02*
G37*
G36*
X327566D02*
X326434D01*
X325340Y99007D01*
X324360Y98441D01*
X323559Y97640D01*
X322993Y96660D01*
X322700Y95566D01*
Y94434D01*
X322993Y93340D01*
X323559Y92360D01*
X324360Y91559D01*
X325340Y90993D01*
X326434Y90700D01*
X327566D01*
X328660Y90993D01*
X329640Y91559D01*
X330441Y92360D01*
X331007Y93340D01*
X331300Y94434D01*
Y95566D01*
X331007Y96660D01*
X330441Y97640D01*
X329640Y98441D01*
X328660Y99007D01*
X327566Y99300D01*
D02*
G37*
G36*
X67566D02*
X66434D01*
X65340Y99007D01*
X64360Y98441D01*
X63559Y97640D01*
X62993Y96660D01*
X62700Y95566D01*
Y94434D01*
X62993Y93340D01*
X63559Y92360D01*
X64360Y91559D01*
X65340Y90993D01*
X66434Y90700D01*
X67566D01*
X68660Y90993D01*
X69640Y91559D01*
X70441Y92360D01*
X71007Y93340D01*
X71300Y94434D01*
Y95566D01*
X71007Y96660D01*
X70441Y97640D01*
X69640Y98441D01*
X68660Y99007D01*
X67566Y99300D01*
D02*
G37*
G36*
X17566D02*
X16434D01*
X15340Y99007D01*
X14360Y98441D01*
X13559Y97640D01*
X12993Y96660D01*
X12700Y95566D01*
Y94434D01*
X12993Y93340D01*
X13559Y92360D01*
X14360Y91559D01*
X15340Y90993D01*
X16434Y90700D01*
X17566D01*
X18660Y90993D01*
X19640Y91559D01*
X20441Y92360D01*
X21007Y93340D01*
X21300Y94434D01*
Y95566D01*
X21007Y96660D01*
X20441Y97640D01*
X19640Y98441D01*
X18660Y99007D01*
X17566Y99300D01*
D02*
G37*
G36*
X176500Y93522D02*
X174728D01*
Y89585D01*
X176500D01*
Y93522D01*
D02*
G37*
G36*
X377566Y89300D02*
X376434D01*
X375340Y89007D01*
X374360Y88441D01*
X373559Y87640D01*
X372993Y86660D01*
X372700Y85566D01*
Y84434D01*
X372993Y83340D01*
X373559Y82360D01*
X374360Y81559D01*
X375340Y80993D01*
X376434Y80700D01*
X377566D01*
X378660Y80993D01*
X379640Y81559D01*
X380441Y82360D01*
X381007Y83340D01*
X381300Y84434D01*
Y85566D01*
X381007Y86660D01*
X380441Y87640D01*
X379640Y88441D01*
X378660Y89007D01*
X377566Y89300D01*
D02*
G37*
G36*
X327566D02*
X326434D01*
X325340Y89007D01*
X324360Y88441D01*
X323559Y87640D01*
X322993Y86660D01*
X322700Y85566D01*
Y84434D01*
X322993Y83340D01*
X323559Y82360D01*
X324360Y81559D01*
X325340Y80993D01*
X326434Y80700D01*
X327566D01*
X328660Y80993D01*
X329640Y81559D01*
X330441Y82360D01*
X331007Y83340D01*
X331300Y84434D01*
Y85566D01*
X331007Y86660D01*
X330441Y87640D01*
X329640Y88441D01*
X328660Y89007D01*
X327566Y89300D01*
D02*
G37*
G36*
X67566D02*
X66434D01*
X65340Y89007D01*
X64360Y88441D01*
X63559Y87640D01*
X62993Y86660D01*
X62700Y85566D01*
Y84434D01*
X62993Y83340D01*
X63559Y82360D01*
X64360Y81559D01*
X65340Y80993D01*
X66434Y80700D01*
X67566D01*
X68660Y80993D01*
X69640Y81559D01*
X70441Y82360D01*
X71007Y83340D01*
X71300Y84434D01*
Y85566D01*
X71007Y86660D01*
X70441Y87640D01*
X69640Y88441D01*
X68660Y89007D01*
X67566Y89300D01*
D02*
G37*
G36*
X17566D02*
X16434D01*
X15340Y89007D01*
X14360Y88441D01*
X13559Y87640D01*
X12993Y86660D01*
X12700Y85566D01*
Y84434D01*
X12993Y83340D01*
X13559Y82360D01*
X14360Y81559D01*
X15340Y80993D01*
X16434Y80700D01*
X17566D01*
X18660Y80993D01*
X19640Y81559D01*
X20441Y82360D01*
X21007Y83340D01*
X21300Y84434D01*
Y85566D01*
X21007Y86660D01*
X20441Y87640D01*
X19640Y88441D01*
X18660Y89007D01*
X17566Y89300D01*
D02*
G37*
G36*
X251528Y76575D02*
X249953D01*
Y75000D01*
X251528D01*
Y76575D01*
D02*
G37*
G36*
X247953D02*
X246378D01*
Y75000D01*
X247953D01*
Y76575D01*
D02*
G37*
G36*
X251528Y73000D02*
X249953D01*
Y71425D01*
X251528D01*
Y73000D01*
D02*
G37*
G36*
X247953D02*
X246378D01*
Y71425D01*
X247953D01*
Y73000D01*
D02*
G37*
G36*
X377566Y79300D02*
X376434D01*
X375340Y79007D01*
X374360Y78441D01*
X373559Y77640D01*
X372993Y76660D01*
X372700Y75566D01*
Y74434D01*
X372993Y73340D01*
X373559Y72360D01*
X374360Y71559D01*
X375340Y70993D01*
X376434Y70700D01*
X377566D01*
X378660Y70993D01*
X379640Y71559D01*
X380441Y72360D01*
X381007Y73340D01*
X381300Y74434D01*
Y75566D01*
X381007Y76660D01*
X380441Y77640D01*
X379640Y78441D01*
X378660Y79007D01*
X377566Y79300D01*
D02*
G37*
G36*
X327566D02*
X326434D01*
X325340Y79007D01*
X324360Y78441D01*
X323559Y77640D01*
X322993Y76660D01*
X322700Y75566D01*
Y74434D01*
X322993Y73340D01*
X323559Y72360D01*
X324360Y71559D01*
X325340Y70993D01*
X326434Y70700D01*
X327566D01*
X328660Y70993D01*
X329640Y71559D01*
X330441Y72360D01*
X331007Y73340D01*
X331300Y74434D01*
Y75566D01*
X331007Y76660D01*
X330441Y77640D01*
X329640Y78441D01*
X328660Y79007D01*
X327566Y79300D01*
D02*
G37*
G36*
X67566D02*
X66434D01*
X65340Y79007D01*
X64360Y78441D01*
X63559Y77640D01*
X62993Y76660D01*
X62700Y75566D01*
Y74434D01*
X62993Y73340D01*
X63559Y72360D01*
X64360Y71559D01*
X65340Y70993D01*
X66434Y70700D01*
X67566D01*
X68660Y70993D01*
X69640Y71559D01*
X70441Y72360D01*
X71007Y73340D01*
X71300Y74434D01*
Y75566D01*
X71007Y76660D01*
X70441Y77640D01*
X69640Y78441D01*
X68660Y79007D01*
X67566Y79300D01*
D02*
G37*
G36*
X17566D02*
X16434D01*
X15340Y79007D01*
X14360Y78441D01*
X13559Y77640D01*
X12993Y76660D01*
X12700Y75566D01*
Y74434D01*
X12993Y73340D01*
X13559Y72360D01*
X14360Y71559D01*
X15340Y70993D01*
X16434Y70700D01*
X17566D01*
X18660Y70993D01*
X19640Y71559D01*
X20441Y72360D01*
X21007Y73340D01*
X21300Y74434D01*
Y75566D01*
X21007Y76660D01*
X20441Y77640D01*
X19640Y78441D01*
X18660Y79007D01*
X17566Y79300D01*
D02*
G37*
G36*
X93000Y70908D02*
Y67000D01*
X96908D01*
X96659Y67930D01*
X96001Y69070D01*
X95070Y70001D01*
X93930Y70659D01*
X93000Y70908D01*
D02*
G37*
G36*
X91000D02*
X90070Y70659D01*
X88930Y70001D01*
X87999Y69070D01*
X87341Y67930D01*
X87092Y67000D01*
X91000D01*
Y70908D01*
D02*
G37*
G36*
X308968Y68685D02*
X307000D01*
Y66913D01*
X308968D01*
Y68685D01*
D02*
G37*
G36*
X305000D02*
X303031D01*
Y66913D01*
X305000D01*
Y68685D01*
D02*
G37*
G36*
X118222Y70800D02*
X116959D01*
X115738Y70473D01*
X114643Y69841D01*
X113750Y68947D01*
X113118Y67853D01*
X112791Y66632D01*
Y65368D01*
X113118Y64147D01*
X113750Y63053D01*
X114643Y62159D01*
X115738Y61527D01*
X116959Y61200D01*
X118222D01*
X119443Y61527D01*
X120538Y62159D01*
X121432Y63053D01*
X122064Y64147D01*
X122391Y65368D01*
Y66632D01*
X122064Y67853D01*
X121432Y68947D01*
X120538Y69841D01*
X119443Y70473D01*
X118222Y70800D01*
D02*
G37*
G36*
X96908Y65000D02*
X93000D01*
Y61092D01*
X93930Y61341D01*
X95070Y61999D01*
X96001Y62930D01*
X96659Y64070D01*
X96908Y65000D01*
D02*
G37*
G36*
X91000D02*
X87092D01*
X87341Y64070D01*
X87999Y62930D01*
X88930Y61999D01*
X90070Y61341D01*
X91000Y61092D01*
Y65000D01*
D02*
G37*
G36*
X377566Y69300D02*
X376434D01*
X375340Y69007D01*
X374360Y68441D01*
X373559Y67640D01*
X372993Y66660D01*
X372700Y65566D01*
Y64434D01*
X372993Y63340D01*
X373559Y62360D01*
X374360Y61559D01*
X375340Y60993D01*
X376434Y60700D01*
X377566D01*
X378660Y60993D01*
X379640Y61559D01*
X380441Y62360D01*
X381007Y63340D01*
X381300Y64434D01*
Y65566D01*
X381007Y66660D01*
X380441Y67640D01*
X379640Y68441D01*
X378660Y69007D01*
X377566Y69300D01*
D02*
G37*
G36*
X327566D02*
X326434D01*
X325340Y69007D01*
X324360Y68441D01*
X323559Y67640D01*
X322993Y66660D01*
X322700Y65566D01*
Y64434D01*
X322993Y63340D01*
X323559Y62360D01*
X324360Y61559D01*
X325340Y60993D01*
X326434Y60700D01*
X327566D01*
X328660Y60993D01*
X329640Y61559D01*
X330441Y62360D01*
X331007Y63340D01*
X331300Y64434D01*
Y65566D01*
X331007Y66660D01*
X330441Y67640D01*
X329640Y68441D01*
X328660Y69007D01*
X327566Y69300D01*
D02*
G37*
G36*
X67566D02*
X66434D01*
X65340Y69007D01*
X64360Y68441D01*
X63559Y67640D01*
X62993Y66660D01*
X62700Y65566D01*
Y64434D01*
X62993Y63340D01*
X63559Y62360D01*
X64360Y61559D01*
X65340Y60993D01*
X66434Y60700D01*
X67566D01*
X68660Y60993D01*
X69640Y61559D01*
X70441Y62360D01*
X71007Y63340D01*
X71300Y64434D01*
Y65566D01*
X71007Y66660D01*
X70441Y67640D01*
X69640Y68441D01*
X68660Y69007D01*
X67566Y69300D01*
D02*
G37*
G36*
X17566D02*
X16434D01*
X15340Y69007D01*
X14360Y68441D01*
X13559Y67640D01*
X12993Y66660D01*
X12700Y65566D01*
Y64434D01*
X12993Y63340D01*
X13559Y62360D01*
X14360Y61559D01*
X15340Y60993D01*
X16434Y60700D01*
X17566D01*
X18660Y60993D01*
X19640Y61559D01*
X20441Y62360D01*
X21007Y63340D01*
X21300Y64434D01*
Y65566D01*
X21007Y66660D01*
X20441Y67640D01*
X19640Y68441D01*
X18660Y69007D01*
X17566Y69300D01*
D02*
G37*
G36*
X181764Y88670D02*
X176424D01*
Y83330D01*
X177004D01*
Y70906D01*
X177004Y70906D01*
X177163Y70106D01*
X177616Y69428D01*
X189492Y57552D01*
X189301Y57090D01*
X178000D01*
X178000Y57090D01*
X177200Y56931D01*
X176522Y56478D01*
X176522Y56478D01*
X155865Y35821D01*
X155412Y35142D01*
X155252Y34343D01*
X155252Y34343D01*
Y29000D01*
Y24769D01*
X154771D01*
Y19231D01*
X155252D01*
Y18208D01*
X150844Y13800D01*
X146200D01*
Y6200D01*
X153800D01*
Y10844D01*
X158820Y15865D01*
X158821Y15865D01*
X159274Y16543D01*
X159433Y17343D01*
Y18918D01*
X159886Y19031D01*
Y19031D01*
X160567D01*
Y17343D01*
X160567Y17343D01*
X160726Y16543D01*
X161179Y15865D01*
X166044Y11000D01*
X169000D01*
Y13956D01*
X164748Y18208D01*
Y19031D01*
X165429D01*
Y21000D01*
X162657D01*
Y23000D01*
X165429D01*
Y24969D01*
X164748D01*
Y26622D01*
X164937D01*
Y28000D01*
X160378D01*
Y26622D01*
X160567D01*
Y24969D01*
X159886D01*
Y24969D01*
X159433Y25082D01*
Y29000D01*
Y33477D01*
X178866Y52910D01*
X192423D01*
X192974Y52359D01*
X193726Y51925D01*
X194566Y51700D01*
X195434D01*
X196274Y51925D01*
X197026Y52359D01*
X197641Y52974D01*
X198075Y53726D01*
X198300Y54566D01*
Y55435D01*
X198075Y56274D01*
X197641Y57026D01*
X197026Y57641D01*
X196274Y58075D01*
X195434Y58300D01*
X194656D01*
X181185Y71771D01*
Y83330D01*
X181764D01*
Y88670D01*
D02*
G37*
G36*
X214623D02*
X209283D01*
Y83330D01*
X209863D01*
Y70047D01*
X209863Y70047D01*
X210022Y69247D01*
X210475Y68569D01*
X223700Y55344D01*
Y54566D01*
X223925Y53726D01*
X224359Y52974D01*
X224974Y52359D01*
X225726Y51925D01*
X226566Y51700D01*
X227434D01*
X228274Y51925D01*
X229026Y52359D01*
X229641Y52974D01*
X230075Y53726D01*
X230300Y54566D01*
Y55435D01*
X230075Y56274D01*
X229641Y57026D01*
X229026Y57641D01*
X228274Y58075D01*
X227434Y58300D01*
X226656D01*
X214043Y70913D01*
Y83330D01*
X214623D01*
Y88670D01*
D02*
G37*
G36*
X377566Y59300D02*
X376434D01*
X375340Y59007D01*
X374360Y58441D01*
X373559Y57640D01*
X372993Y56660D01*
X372700Y55566D01*
Y54434D01*
X372993Y53340D01*
X373559Y52360D01*
X374360Y51559D01*
X375340Y50993D01*
X376434Y50700D01*
X377566D01*
X378660Y50993D01*
X379640Y51559D01*
X380441Y52360D01*
X381007Y53340D01*
X381300Y54434D01*
Y55566D01*
X381007Y56660D01*
X380441Y57640D01*
X379640Y58441D01*
X378660Y59007D01*
X377566Y59300D01*
D02*
G37*
G36*
X327566D02*
X326434D01*
X325340Y59007D01*
X324360Y58441D01*
X323559Y57640D01*
X322993Y56660D01*
X322700Y55566D01*
Y54434D01*
X322993Y53340D01*
X323559Y52360D01*
X324360Y51559D01*
X325340Y50993D01*
X326434Y50700D01*
X327566D01*
X328660Y50993D01*
X329640Y51559D01*
X330441Y52360D01*
X331007Y53340D01*
X331300Y54434D01*
Y55566D01*
X331007Y56660D01*
X330441Y57640D01*
X329640Y58441D01*
X328660Y59007D01*
X327566Y59300D01*
D02*
G37*
G36*
X67566D02*
X66434D01*
X65340Y59007D01*
X64360Y58441D01*
X63559Y57640D01*
X62993Y56660D01*
X62700Y55566D01*
Y54434D01*
X62993Y53340D01*
X63559Y52360D01*
X64360Y51559D01*
X65340Y50993D01*
X66434Y50700D01*
X67566D01*
X68660Y50993D01*
X69640Y51559D01*
X70441Y52360D01*
X71007Y53340D01*
X71300Y54434D01*
Y55566D01*
X71007Y56660D01*
X70441Y57640D01*
X69640Y58441D01*
X68660Y59007D01*
X67566Y59300D01*
D02*
G37*
G36*
X17566D02*
X16434D01*
X15340Y59007D01*
X14360Y58441D01*
X13559Y57640D01*
X12993Y56660D01*
X12700Y55566D01*
Y54434D01*
X12993Y53340D01*
X13559Y52360D01*
X14360Y51559D01*
X15340Y50993D01*
X16434Y50700D01*
X17566D01*
X18660Y50993D01*
X19640Y51559D01*
X20441Y52360D01*
X21007Y53340D01*
X21300Y54434D01*
Y55566D01*
X21007Y56660D01*
X20441Y57640D01*
X19640Y58441D01*
X18660Y59007D01*
X17566Y59300D01*
D02*
G37*
G36*
X378000Y49391D02*
Y46000D01*
X381391D01*
X381193Y46737D01*
X380601Y47763D01*
X379763Y48601D01*
X378737Y49193D01*
X378000Y49391D01*
D02*
G37*
G36*
X376000D02*
X375263Y49193D01*
X374237Y48601D01*
X373399Y47763D01*
X372807Y46737D01*
X372609Y46000D01*
X376000D01*
Y49391D01*
D02*
G37*
G36*
X68000D02*
Y46000D01*
X71391D01*
X71193Y46737D01*
X70601Y47763D01*
X69763Y48601D01*
X68737Y49193D01*
X68000Y49391D01*
D02*
G37*
G36*
X66000D02*
X65263Y49193D01*
X64237Y48601D01*
X63399Y47763D01*
X62807Y46737D01*
X62609Y46000D01*
X66000D01*
Y49391D01*
D02*
G37*
G36*
X327566Y49300D02*
X326434D01*
X325340Y49007D01*
X324360Y48441D01*
X323559Y47640D01*
X322993Y46660D01*
X322700Y45566D01*
Y44434D01*
X322993Y43340D01*
X323559Y42360D01*
X324360Y41559D01*
X325340Y40993D01*
X326434Y40700D01*
X327566D01*
X328660Y40993D01*
X329640Y41559D01*
X330441Y42360D01*
X331007Y43340D01*
X331300Y44434D01*
Y45566D01*
X331007Y46660D01*
X330441Y47640D01*
X329640Y48441D01*
X328660Y49007D01*
X327566Y49300D01*
D02*
G37*
G36*
X17566D02*
X16434D01*
X15340Y49007D01*
X14360Y48441D01*
X13559Y47640D01*
X12993Y46660D01*
X12700Y45566D01*
Y44434D01*
X12993Y43340D01*
X13559Y42360D01*
X14360Y41559D01*
X15340Y40993D01*
X16434Y40700D01*
X17566D01*
X18660Y40993D01*
X19640Y41559D01*
X20441Y42360D01*
X21007Y43340D01*
X21300Y44434D01*
Y45566D01*
X21007Y46660D01*
X20441Y47640D01*
X19640Y48441D01*
X18660Y49007D01*
X17566Y49300D01*
D02*
G37*
G36*
X381391Y44000D02*
X378000D01*
Y40609D01*
X378737Y40807D01*
X379763Y41399D01*
X380601Y42237D01*
X381193Y43263D01*
X381391Y44000D01*
D02*
G37*
G36*
X376000D02*
X372609D01*
X372807Y43263D01*
X373399Y42237D01*
X374237Y41399D01*
X375263Y40807D01*
X376000Y40609D01*
Y44000D01*
D02*
G37*
G36*
X71391D02*
X68000D01*
Y40609D01*
X68737Y40807D01*
X69763Y41399D01*
X70601Y42237D01*
X71193Y43263D01*
X71391Y44000D01*
D02*
G37*
G36*
X66000D02*
X62609D01*
X62807Y43263D01*
X63399Y42237D01*
X64237Y41399D01*
X65263Y40807D01*
X66000Y40609D01*
Y44000D01*
D02*
G37*
G36*
X179000Y34908D02*
X178070Y34659D01*
X176930Y34001D01*
X175999Y33070D01*
X175341Y31930D01*
X175092Y31000D01*
X179000D01*
Y34908D01*
D02*
G37*
G36*
X52407Y33050D02*
X51341D01*
X50311Y32774D01*
X49387Y32241D01*
X48633Y31487D01*
X48214Y30761D01*
X47660D01*
X47241Y31487D01*
X46487Y32241D01*
X45563Y32774D01*
X44533Y33050D01*
X43467D01*
X42437Y32774D01*
X41513Y32241D01*
X40759Y31487D01*
X40340Y30761D01*
X39786D01*
X39367Y31487D01*
X38613Y32241D01*
X37689Y32774D01*
X36659Y33050D01*
X35593D01*
X34563Y32774D01*
X33639Y32241D01*
X32885Y31487D01*
X32802Y31343D01*
X32302Y31477D01*
Y33050D01*
X24202D01*
Y24950D01*
X32302D01*
Y26523D01*
X32802Y26657D01*
X32885Y26513D01*
X33639Y25759D01*
X34563Y25226D01*
X35593Y24950D01*
X36659D01*
X37689Y25226D01*
X38613Y25759D01*
X39367Y26513D01*
X39786Y27239D01*
X40340D01*
X40759Y26513D01*
X41513Y25759D01*
X42437Y25226D01*
X43467Y24950D01*
X44533D01*
X45563Y25226D01*
X46487Y25759D01*
X47241Y26513D01*
X47660Y27239D01*
X48214D01*
X48633Y26513D01*
X49387Y25759D01*
X50311Y25226D01*
X51341Y24950D01*
X52407D01*
X53437Y25226D01*
X54361Y25759D01*
X55115Y26513D01*
X55648Y27437D01*
X55924Y28467D01*
Y29533D01*
X55648Y30563D01*
X55115Y31487D01*
X54361Y32241D01*
X53437Y32774D01*
X52407Y33050D01*
D02*
G37*
G36*
X367281D02*
X366215D01*
X365185Y32774D01*
X364261Y32241D01*
X363507Y31487D01*
X363088Y30761D01*
X362534D01*
X362115Y31487D01*
X361361Y32241D01*
X360437Y32774D01*
X359407Y33050D01*
X358341D01*
X357311Y32774D01*
X356387Y32241D01*
X355633Y31487D01*
X355214Y30761D01*
X354660D01*
X354241Y31487D01*
X353487Y32241D01*
X352563Y32774D01*
X351533Y33050D01*
X350467D01*
X349437Y32774D01*
X348513Y32241D01*
X347759Y31487D01*
X347676Y31343D01*
X347176Y31477D01*
Y33050D01*
X339076D01*
Y24950D01*
X347176D01*
Y26523D01*
X347676Y26657D01*
X347759Y26513D01*
X348513Y25759D01*
X349437Y25226D01*
X350467Y24950D01*
X351533D01*
X352563Y25226D01*
X353487Y25759D01*
X354241Y26513D01*
X354660Y27239D01*
X355214D01*
X355633Y26513D01*
X356387Y25759D01*
X357311Y25226D01*
X358341Y24950D01*
X359407D01*
X360437Y25226D01*
X361361Y25759D01*
X362115Y26513D01*
X362534Y27239D01*
X363088D01*
X363507Y26513D01*
X364261Y25759D01*
X365185Y25226D01*
X366215Y24950D01*
X367281D01*
X368311Y25226D01*
X369235Y25759D01*
X369989Y26513D01*
X370522Y27437D01*
X370798Y28467D01*
Y29533D01*
X370522Y30563D01*
X369989Y31487D01*
X369235Y32241D01*
X368311Y32774D01*
X367281Y33050D01*
D02*
G37*
G36*
X164937Y31378D02*
X163657D01*
Y30000D01*
X164937D01*
Y31378D01*
D02*
G37*
G36*
X161657D02*
X160378D01*
Y30000D01*
X161657D01*
Y31378D01*
D02*
G37*
G36*
X181000Y34908D02*
Y30000D01*
Y25092D01*
X181930Y25341D01*
X183070Y25999D01*
X184001Y26930D01*
X184659Y28070D01*
X184845Y28762D01*
X185362D01*
X185527Y28147D01*
X186159Y27053D01*
X187053Y26159D01*
X188147Y25527D01*
X189368Y25200D01*
X190632D01*
X191853Y25527D01*
X192947Y26159D01*
X193841Y27053D01*
X194473Y28147D01*
X194741Y29149D01*
X195259D01*
X195527Y28147D01*
X196159Y27053D01*
X197053Y26159D01*
X198147Y25527D01*
X199368Y25200D01*
X200632D01*
X201853Y25527D01*
X202947Y26159D01*
X203841Y27053D01*
X204473Y28147D01*
X204700Y28995D01*
X205200Y28929D01*
Y25200D01*
X214800D01*
Y34800D01*
X205200D01*
Y31071D01*
X204700Y31005D01*
X204473Y31853D01*
X203841Y32947D01*
X202947Y33841D01*
X201853Y34473D01*
X200632Y34800D01*
X199368D01*
X198147Y34473D01*
X197053Y33841D01*
X196159Y32947D01*
X195527Y31853D01*
X195259Y30851D01*
X194741D01*
X194473Y31853D01*
X193841Y32947D01*
X192947Y33841D01*
X191853Y34473D01*
X190632Y34800D01*
X189368D01*
X188147Y34473D01*
X187053Y33841D01*
X186159Y32947D01*
X185527Y31853D01*
X185362Y31238D01*
X184845D01*
X184659Y31930D01*
X184001Y33070D01*
X183070Y34001D01*
X181930Y34659D01*
X181000Y34908D01*
D02*
G37*
G36*
X179000Y29000D02*
X175092D01*
X175341Y28070D01*
X175999Y26930D01*
X176930Y25999D01*
X178070Y25341D01*
X179000Y25092D01*
Y29000D01*
D02*
G37*
G36*
X287177Y35176D02*
X285686D01*
X284223Y34885D01*
X282845Y34315D01*
X281605Y33486D01*
X280550Y32431D01*
X279722Y31191D01*
X279151Y29813D01*
X278860Y28350D01*
Y26859D01*
X279151Y25396D01*
X279722Y24018D01*
X280550Y22778D01*
X281605Y21724D01*
X282845Y20895D01*
X284223Y20324D01*
X285686Y20033D01*
X287177D01*
X288640Y20324D01*
X290018Y20895D01*
X291258Y21724D01*
X292313Y22778D01*
X293141Y24018D01*
X293712Y25396D01*
X294003Y26859D01*
Y28350D01*
X293712Y29813D01*
X293141Y31191D01*
X292313Y32431D01*
X291258Y33486D01*
X290018Y34315D01*
X288640Y34885D01*
X287177Y35176D01*
D02*
G37*
G36*
X108044D02*
X106552D01*
X105089Y34885D01*
X103711Y34315D01*
X102471Y33486D01*
X101417Y32431D01*
X100588Y31191D01*
X100017Y29813D01*
X99726Y28350D01*
Y26859D01*
X100017Y25396D01*
X100588Y24018D01*
X101417Y22778D01*
X102471Y21724D01*
X103711Y20895D01*
X105089Y20324D01*
X106552Y20033D01*
X108044D01*
X109506Y20324D01*
X110884Y20895D01*
X112124Y21724D01*
X113179Y22778D01*
X114008Y24018D01*
X114578Y25396D01*
X114869Y26859D01*
Y28350D01*
X114578Y29813D01*
X114008Y31191D01*
X113179Y32431D01*
X112124Y33486D01*
X110884Y34315D01*
X109506Y34885D01*
X108044Y35176D01*
D02*
G37*
G36*
X13873Y19268D02*
X10921D01*
Y17496D01*
X13873D01*
Y19268D01*
D02*
G37*
G36*
X367307D02*
X364354D01*
Y17496D01*
X367307D01*
Y19268D01*
D02*
G37*
G36*
X8921D02*
X5968D01*
Y17496D01*
X8921D01*
Y19268D01*
D02*
G37*
G36*
X362354D02*
X359402D01*
Y17496D01*
X362354D01*
Y19268D01*
D02*
G37*
G36*
X367307Y15496D02*
X364354D01*
Y13724D01*
X367307D01*
Y15496D01*
D02*
G37*
G36*
X362354D02*
X359402D01*
Y13724D01*
X362354D01*
Y15496D01*
D02*
G37*
G36*
X13873D02*
X10921D01*
Y13724D01*
X13873D01*
Y15496D01*
D02*
G37*
G36*
X8921D02*
X5968D01*
Y13724D01*
X8921D01*
Y15496D01*
D02*
G37*
G36*
X171000Y13873D02*
Y11000D01*
X173873D01*
X173727Y11544D01*
X173201Y12456D01*
X172456Y13201D01*
X171544Y13727D01*
X171000Y13873D01*
D02*
G37*
G36*
X271000Y13908D02*
X270070Y13659D01*
X268930Y13001D01*
X267999Y12070D01*
X267341Y10930D01*
X267092Y10000D01*
X271000D01*
Y13908D01*
D02*
G37*
G36*
X240500Y13800D02*
X239500D01*
X238533Y13541D01*
X237667Y13041D01*
X236959Y12333D01*
X236459Y11467D01*
X236200Y10500D01*
Y9500D01*
X236459Y8533D01*
X236959Y7667D01*
X237667Y6959D01*
X238533Y6459D01*
X239500Y6200D01*
X240500D01*
X241467Y6459D01*
X242333Y6959D01*
X243041Y7667D01*
X243541Y8533D01*
X243800Y9500D01*
Y10500D01*
X243541Y11467D01*
X243041Y12333D01*
X242333Y13041D01*
X241467Y13541D01*
X240500Y13800D01*
D02*
G37*
G36*
X230500D02*
X229500D01*
X228533Y13541D01*
X227667Y13041D01*
X226959Y12333D01*
X226459Y11467D01*
X226200Y10500D01*
Y9500D01*
X226459Y8533D01*
X226959Y7667D01*
X227667Y6959D01*
X228533Y6459D01*
X229500Y6200D01*
X230500D01*
X231467Y6459D01*
X232333Y6959D01*
X233041Y7667D01*
X233541Y8533D01*
X233800Y9500D01*
Y10500D01*
X233541Y11467D01*
X233041Y12333D01*
X232333Y13041D01*
X231467Y13541D01*
X230500Y13800D01*
D02*
G37*
G36*
X160500D02*
X159500D01*
X158533Y13541D01*
X157667Y13041D01*
X156959Y12333D01*
X156459Y11467D01*
X156200Y10500D01*
Y9500D01*
X156459Y8533D01*
X156959Y7667D01*
X157667Y6959D01*
X158533Y6459D01*
X159500Y6200D01*
X160500D01*
X161467Y6459D01*
X162333Y6959D01*
X163041Y7667D01*
X163541Y8533D01*
X163800Y9500D01*
Y10500D01*
X163541Y11467D01*
X163041Y12333D01*
X162333Y13041D01*
X161467Y13541D01*
X160500Y13800D01*
D02*
G37*
G36*
X173873Y9000D02*
X171000D01*
Y6127D01*
X171544Y6273D01*
X172456Y6799D01*
X173201Y7544D01*
X173727Y8456D01*
X173873Y9000D01*
D02*
G37*
G36*
X169000D02*
X166127D01*
X166273Y8456D01*
X166799Y7544D01*
X167544Y6799D01*
X168456Y6273D01*
X169000Y6127D01*
Y9000D01*
D02*
G37*
G36*
X129976Y187756D02*
X128205D01*
Y185000D01*
X129976D01*
Y187756D01*
D02*
G37*
G36*
X126205D02*
X124433D01*
Y185000D01*
X126205D01*
Y187756D01*
D02*
G37*
G36*
X129976Y183000D02*
X128205D01*
Y180244D01*
X129976D01*
Y183000D01*
D02*
G37*
G36*
X126205D02*
X124433D01*
Y180244D01*
X126205D01*
Y183000D01*
D02*
G37*
G36*
X33165Y179153D02*
X30212D01*
Y177381D01*
X33165D01*
Y179153D01*
D02*
G37*
G36*
X28212D02*
X25259D01*
Y177381D01*
X28212D01*
Y179153D01*
D02*
G37*
G36*
X33165Y175381D02*
X30212D01*
Y173609D01*
X33165D01*
Y175381D01*
D02*
G37*
G36*
X28212D02*
X25259D01*
Y173609D01*
X28212D01*
Y175381D01*
D02*
G37*
G36*
X51566Y178300D02*
X50434D01*
X49340Y178007D01*
X48360Y177441D01*
X47559Y176640D01*
X46993Y175660D01*
X46700Y174566D01*
Y173434D01*
X46993Y172340D01*
X47559Y171360D01*
X48360Y170559D01*
X49340Y169993D01*
X50434Y169700D01*
X51566D01*
X52660Y169993D01*
X53640Y170559D01*
X54441Y171360D01*
X55007Y172340D01*
X55300Y173434D01*
Y174566D01*
X55007Y175660D01*
X54441Y176640D01*
X53640Y177441D01*
X52660Y178007D01*
X51566Y178300D01*
D02*
G37*
G36*
X45300D02*
X36700D01*
Y169700D01*
X45300D01*
Y178300D01*
D02*
G37*
G36*
X52000Y168391D02*
Y165000D01*
X55391D01*
X55193Y165737D01*
X54601Y166763D01*
X53763Y167601D01*
X52737Y168193D01*
X52000Y168391D01*
D02*
G37*
G36*
X50000D02*
X49263Y168193D01*
X48237Y167601D01*
X47399Y166763D01*
X46807Y165737D01*
X46609Y165000D01*
X50000D01*
Y168391D01*
D02*
G37*
G36*
X41566Y168300D02*
X40434D01*
X39340Y168007D01*
X38360Y167441D01*
X37559Y166640D01*
X36993Y165660D01*
X36700Y164566D01*
Y163434D01*
X36993Y162340D01*
X37559Y161360D01*
X38360Y160559D01*
X39340Y159993D01*
X40434Y159700D01*
X41566D01*
X42660Y159993D01*
X43640Y160559D01*
X44441Y161360D01*
X45007Y162340D01*
X45300Y163434D01*
Y164566D01*
X45007Y165660D01*
X44441Y166640D01*
X43640Y167441D01*
X42660Y168007D01*
X41566Y168300D01*
D02*
G37*
G36*
X55391Y163000D02*
X52000D01*
Y159609D01*
X52737Y159807D01*
X53763Y160399D01*
X54601Y161237D01*
X55193Y162263D01*
X55391Y163000D01*
D02*
G37*
G36*
X50000D02*
X46609D01*
X46807Y162263D01*
X47399Y161237D01*
X48237Y160399D01*
X49263Y159807D01*
X50000Y159609D01*
Y163000D01*
D02*
G37*
G36*
X133150Y147047D02*
X130000D01*
Y141535D01*
X133150D01*
Y147047D01*
D02*
G37*
G36*
X128000D02*
X124850D01*
Y141535D01*
X128000D01*
Y147047D01*
D02*
G37*
G36*
X133150Y139535D02*
X130000D01*
Y134024D01*
X133150D01*
Y139535D01*
D02*
G37*
G36*
X128000D02*
X124850D01*
Y134024D01*
X128000D01*
Y139535D01*
D02*
G37*
G36*
X316772Y100638D02*
X315000D01*
Y99161D01*
X316772D01*
Y100638D01*
D02*
G37*
G36*
X313000D02*
X311228D01*
Y99161D01*
X313000D01*
Y100638D01*
D02*
G37*
%LPD*%
D17*
X314500Y138827D02*
D03*
X309500D02*
D03*
X304500D02*
D03*
X299500D02*
D03*
X294500D02*
D03*
X289500D02*
D03*
X284500D02*
D03*
X279500D02*
D03*
Y117173D02*
D03*
X284500D02*
D03*
X289500D02*
D03*
X294500D02*
D03*
X299500D02*
D03*
X304500D02*
D03*
X309500D02*
D03*
X314500D02*
D03*
D18*
X272000Y148000D02*
D03*
X322000Y132000D02*
D03*
X243000Y142000D02*
D03*
Y150000D02*
D03*
X200000Y86000D02*
D03*
X192000D02*
D03*
X153000Y150000D02*
D03*
X245000Y87000D02*
D03*
X153000Y158459D02*
D03*
D19*
X152795Y184000D02*
D03*
X127205D02*
D03*
X247000D02*
D03*
X272590D02*
D03*
D20*
X143441Y173000D02*
D03*
X148559D02*
D03*
X256559Y172000D02*
D03*
X251441D02*
D03*
X230441Y74000D02*
D03*
X235559D02*
D03*
X131441Y173000D02*
D03*
X136559D02*
D03*
X268559Y172000D02*
D03*
X263441D02*
D03*
X290441Y84000D02*
D03*
X295559D02*
D03*
X290441Y92000D02*
D03*
X295559D02*
D03*
D21*
X20000Y163700D02*
D03*
D22*
Y156700D02*
D03*
D23*
X185000Y86000D02*
D03*
X179094D02*
D03*
X206047D02*
D03*
X211953D02*
D03*
D24*
X279331Y84260D02*
D03*
Y91740D02*
D03*
X270669Y88000D02*
D03*
X306669Y91740D02*
D03*
Y84260D02*
D03*
X315331Y88000D02*
D03*
D25*
X203287Y126707D02*
D03*
X196063D02*
D03*
X188839D02*
D03*
X203287Y133931D02*
D03*
X196063D02*
D03*
X188839D02*
D03*
X203287Y141156D02*
D03*
X196063D02*
D03*
X188839D02*
D03*
D26*
X222500Y94522D02*
D03*
X217500D02*
D03*
X212500D02*
D03*
X207500D02*
D03*
X202500D02*
D03*
X197500D02*
D03*
X192500D02*
D03*
X187500D02*
D03*
X182500D02*
D03*
X177500D02*
D03*
D27*
X233465Y163459D02*
D03*
Y158459D02*
D03*
Y153459D02*
D03*
Y148459D02*
D03*
Y143459D02*
D03*
Y138459D02*
D03*
Y133459D02*
D03*
Y128459D02*
D03*
Y123459D02*
D03*
Y118459D02*
D03*
Y113459D02*
D03*
Y108459D02*
D03*
Y103459D02*
D03*
Y98459D02*
D03*
X166535D02*
D03*
Y103459D02*
D03*
Y108459D02*
D03*
Y113459D02*
D03*
Y118459D02*
D03*
Y123459D02*
D03*
Y128459D02*
D03*
Y133459D02*
D03*
Y138459D02*
D03*
Y143459D02*
D03*
Y148459D02*
D03*
Y153459D02*
D03*
Y158459D02*
D03*
Y163459D02*
D03*
D28*
X382646Y176381D02*
D03*
Y189373D02*
D03*
X363354Y176381D02*
D03*
Y189373D02*
D03*
X382646Y3504D02*
D03*
Y16496D02*
D03*
X363354Y3504D02*
D03*
Y16496D02*
D03*
X29212Y3504D02*
D03*
Y16496D02*
D03*
X9921Y3504D02*
D03*
Y16496D02*
D03*
Y189373D02*
D03*
Y176381D02*
D03*
X29212Y189373D02*
D03*
Y176381D02*
D03*
D29*
X330211Y184984D02*
D03*
X337789D02*
D03*
D30*
X328882Y172878D02*
D03*
X331441D02*
D03*
X334000D02*
D03*
X336559D02*
D03*
X339118D02*
D03*
D31*
X243047Y74000D02*
D03*
X248953D02*
D03*
D32*
X330260Y150472D02*
D03*
X334000D02*
D03*
X337740D02*
D03*
Y159528D02*
D03*
X334000D02*
D03*
X330260D02*
D03*
D33*
X162657Y22000D02*
D03*
X157343D02*
D03*
D34*
X162657Y29000D02*
D03*
X157343D02*
D03*
D35*
X34465Y133000D02*
D03*
X17535D02*
D03*
X359535D02*
D03*
X376465D02*
D03*
D36*
X306000Y75000D02*
D03*
Y69685D02*
D03*
D37*
X314000Y106362D02*
D03*
Y101638D02*
D03*
D38*
X129000Y157465D02*
D03*
Y140535D02*
D03*
D66*
X324453Y172071D02*
D03*
X343547D02*
D03*
D69*
X3000Y114466D02*
X3149Y113623D01*
X3573Y112880D01*
X3722Y80328D02*
X3723Y80329D01*
X3571Y80122D02*
X3722Y80328D01*
X3571Y80122D02*
X3148Y79380D01*
X3000Y78539D01*
X390415Y113375D02*
X390852Y114135D01*
X391000Y115000D01*
X390004Y112887D02*
X389849Y112677D01*
X385489Y103522D02*
X385425Y103277D01*
X385425Y89731D02*
X385489Y89483D01*
X386498Y86414D02*
X386590Y86184D01*
X384781Y93155D02*
X384815Y92896D01*
X388107Y109967D02*
X387977Y109734D01*
X386591Y106823D02*
X386497Y106589D01*
X388120Y109988D02*
X388118Y109985D01*
X388121Y109989D02*
X388120Y109988D01*
X387980Y83266D02*
X388105Y83041D01*
X384576Y96627D02*
X384577Y96374D01*
X384814Y100106D02*
X384782Y99854D01*
X391000Y78022D02*
X390849Y78878D01*
X390415Y79630D01*
X389850Y80328D02*
X390004Y80119D01*
X8147Y103273D02*
X8082Y103523D01*
X8791Y99848D02*
X8757Y100112D01*
X8758Y92898D02*
X8791Y93157D01*
X8995Y96372D02*
X8995Y96633D01*
X8080Y89476D02*
X8148Y89734D01*
X5467Y83041D02*
X5593Y83267D01*
X6978Y86176D02*
X7076Y86418D01*
X5595Y109733D02*
X5466Y109966D01*
X7076Y106587D02*
X6977Y106832D01*
X3723Y112676D02*
X3573Y112880D01*
X22478Y21478D02*
X68711D01*
X68754Y21522D01*
X70522D02*
X71000Y22000D01*
X68754Y21522D02*
X70522D01*
X18000Y17000D02*
X22478Y21478D01*
X22496Y3504D02*
X27646D01*
X18000Y8000D02*
X22496Y3504D01*
X3000Y114466D02*
Y114466D01*
Y172331D01*
X3723Y80329D02*
X5467Y83041D01*
X3722Y80328D02*
X3723Y80329D01*
X3571Y80122D02*
X3571Y80122D01*
X3000Y8858D02*
Y78539D01*
Y8858D02*
X8354Y3504D01*
X15000Y159664D02*
Y184032D01*
X18500Y158200D02*
X20000Y156700D01*
X15000Y159664D02*
X16465Y158200D01*
X18500D01*
X9535Y189496D02*
X15000Y184032D01*
X8354Y189496D02*
X9535D01*
X233986Y108980D02*
X240304D01*
X233465Y108459D02*
X233986Y108980D01*
X240304D02*
X241323Y110000D01*
X242000D01*
X233986Y113980D02*
X238304D01*
X241323Y117000D01*
X242000D01*
X112800Y165800D02*
X120000Y173000D01*
X131441D01*
X112800Y150200D02*
Y165800D01*
X129000Y157465D02*
X129994Y158459D01*
X120065Y157465D02*
X129000D01*
X129994Y158459D02*
X166535D01*
X112800Y150200D02*
X120065Y157465D01*
X131441Y173000D02*
X131730Y172711D01*
X328000Y10000D02*
X374968D01*
X381465Y3504D01*
X318000Y20000D02*
X328000Y10000D01*
X381465Y3504D02*
X382646D01*
X27646Y16496D02*
X28827D01*
X42373Y2950D02*
X360187D01*
X360219Y2982D01*
X18000Y8000D02*
Y17000D01*
X360219Y2982D02*
X362833D01*
X363354Y3504D01*
X28827Y16496D02*
X42373Y2950D01*
X110000Y131000D02*
X147000D01*
X149459Y133459D02*
X166535D01*
X147000Y131000D02*
X149459Y133459D01*
X85000Y156000D02*
X110000Y131000D01*
X33000Y156000D02*
X85000D01*
X26412Y162588D02*
X33000Y156000D01*
X20000Y163700D02*
X21112Y162588D01*
X26412D01*
X67000Y45000D02*
X68218D01*
X306669Y75522D02*
Y84260D01*
X306148Y75000D02*
X306669Y75522D01*
X306000Y75000D02*
X306148D01*
X263343Y74657D02*
X305000D01*
Y106000D02*
X310000Y111000D01*
X314500D02*
Y117173D01*
Y106839D02*
Y111000D01*
X310000D02*
X314500D01*
X300000Y146000D02*
X314000D01*
X342084Y137000D02*
X381465Y176381D01*
X382646D01*
X323000Y137000D02*
X342084D01*
X314000Y146000D02*
X323000Y137000D01*
X314024Y106362D02*
X314500Y106839D01*
X314000Y106362D02*
X314024D01*
X258000Y80000D02*
X263343Y74657D01*
X239000Y80000D02*
X258000D01*
X227000Y92000D02*
X239000Y80000D01*
X227000Y92000D02*
Y100000D01*
X215726Y111274D02*
X227000Y100000D01*
X189726Y111274D02*
X215726D01*
X179000Y122000D02*
Y144602D01*
Y122000D02*
X189726Y111274D01*
X170665Y152937D02*
X179000Y144602D01*
X272000Y66000D02*
X306000Y32000D01*
X229000Y66000D02*
X272000D01*
X306000Y9000D02*
Y32000D01*
X233465Y103459D02*
X233694Y103229D01*
X241771D01*
X242000Y103000D01*
X233598Y94402D02*
Y98325D01*
Y94402D02*
X240760Y87240D01*
X244760D02*
X245000Y87000D01*
X240760Y87240D02*
X244760D01*
X235559Y74000D02*
X243047D01*
X222500Y85138D02*
X230441Y77197D01*
X222500Y85138D02*
Y94522D01*
X230441Y74000D02*
Y77197D01*
X217500Y77500D02*
X229000Y66000D01*
X217500Y77500D02*
Y94522D01*
X195000Y55000D02*
Y55000D01*
X179094Y70906D02*
X195000Y55000D01*
X179094Y70906D02*
Y86000D01*
X200000Y71000D02*
X212000Y59000D01*
X200000Y71000D02*
Y86000D01*
X212000Y49000D02*
Y59000D01*
X200000Y86000D02*
X206047D01*
X233465Y113459D02*
X233986Y113980D01*
X157343Y34343D02*
X178000Y55000D01*
X157343Y29000D02*
Y34343D01*
X178000Y55000D02*
X195000D01*
X157343Y22000D02*
Y29000D01*
X212000Y49000D02*
X222000D01*
X235000Y36000D01*
X211953Y70047D02*
X227000Y55000D01*
X211953Y70047D02*
Y86000D01*
X235000Y25000D02*
Y36000D01*
X196000Y16000D02*
X226000D01*
X190000Y10000D02*
X196000Y16000D01*
X226000D02*
X235000Y25000D01*
X180000Y10000D02*
X191000Y21000D01*
X219000Y41000D02*
X226000Y34000D01*
X203000Y49000D02*
X211000Y41000D01*
X219000D01*
X221000Y21000D02*
X226000Y26000D01*
X191000Y21000D02*
X221000D01*
X226000Y26000D02*
Y34000D01*
X192000Y70000D02*
X203000Y59000D01*
Y49000D02*
Y59000D01*
X192000Y70000D02*
Y86000D01*
X185000D02*
X192000D01*
X198272Y88785D02*
X200000Y87057D01*
Y86000D02*
Y87057D01*
X197500Y94522D02*
X198272Y93750D01*
Y88785D02*
Y93750D01*
X192250Y94272D02*
X192500Y94522D01*
X192000Y86000D02*
X192250Y86250D01*
Y94272D01*
X162657Y17343D02*
Y22000D01*
Y17343D02*
X170000Y10000D01*
X157343Y17343D02*
Y22000D01*
X150000Y10000D02*
X157343Y17343D01*
X162657Y22000D02*
Y29000D01*
X148559Y173197D02*
X152795Y177433D01*
Y184000D01*
X148559Y173000D02*
Y173197D01*
X8201Y189343D02*
X8354Y189496D01*
X151459Y98459D02*
X166535D01*
X137000Y84000D02*
X151459Y98459D01*
X365057Y178084D02*
X369974Y183000D01*
X365057Y176902D02*
Y178084D01*
X369974Y183000D02*
X387000D01*
X364535Y176381D02*
X365057Y176902D01*
X363354Y176381D02*
X364535D01*
X388121Y109989D02*
X389849Y112677D01*
X388120Y109988D02*
X388121Y109989D01*
X387000Y183000D02*
X391000Y179000D01*
Y115000D02*
Y179000D01*
X385489Y89483D02*
X386498Y86414D01*
X384815Y92896D02*
X385425Y89731D01*
X388107Y109967D02*
X388118Y109985D01*
X385489Y103522D02*
X386497Y106589D01*
X386591Y106823D02*
X387977Y109734D01*
X387966Y83294D02*
X387980Y83266D01*
X386590Y86184D02*
X387966Y83294D01*
X384577Y96374D02*
X384781Y93155D01*
X384576Y96627D02*
X384782Y99854D01*
X384814Y100106D02*
X385425Y103277D01*
X390004Y80119D02*
X390415Y79630D01*
X388105Y83041D02*
X389850Y80328D01*
X390004Y112887D02*
X390415Y113375D01*
X391000Y24850D02*
Y78022D01*
X383827Y16496D02*
X384348Y17018D01*
X382646Y16496D02*
X383827D01*
X384348Y17018D02*
Y18199D01*
X391000Y24850D01*
X8148Y89734D02*
X8758Y92898D01*
X7076Y106587D02*
X8082Y103523D01*
X8147Y103273D02*
X8757Y100112D01*
X8791Y93157D02*
X8995Y96372D01*
X8791Y99848D02*
X8995Y96633D01*
X7076Y86418D02*
X8080Y89476D01*
X5593Y83267D02*
X6978Y86176D01*
X3723Y112676D02*
X5466Y109966D01*
X5595Y109733D02*
X6977Y106832D01*
X7173Y176504D02*
X8354D01*
X3000Y172331D02*
X7173Y176504D01*
X20000Y183032D02*
X26465Y189496D01*
X20000Y163700D02*
Y183032D01*
X26465Y189496D02*
X27646D01*
D70*
X331000Y155000D02*
X331615Y154385D01*
X332083D01*
X332991Y153477D01*
Y152663D02*
Y153477D01*
X334000Y155720D02*
X335058Y154662D01*
X339662D02*
X342000Y157000D01*
X332991Y152663D02*
X334000Y151654D01*
X335058Y154662D02*
X339662D01*
X334000Y155720D02*
Y159528D01*
Y150472D02*
Y151654D01*
X139747Y172253D02*
X145220Y166780D01*
X171114D01*
X171115Y166780D01*
X172220D01*
X176000Y163000D01*
X161010Y153459D02*
X166535D01*
X157552Y150000D02*
X161010Y153459D01*
X153000Y150000D02*
X157552D01*
X342000Y157000D02*
Y164000D01*
X305000Y74657D02*
X305197D01*
X167165Y154088D02*
X171797D01*
X288446Y150050D02*
X315556D01*
X324240Y141366D02*
X332907D01*
X315556Y150050D02*
X324240Y141366D01*
X325276Y143866D02*
X331871D01*
X287411Y152550D02*
X316592D01*
X325276Y143866D01*
X335250Y145987D02*
X336731Y147468D01*
X335250Y143709D02*
Y145987D01*
X331871Y143866D02*
X332750Y144744D01*
X332907Y141366D02*
X335250Y143709D01*
X332750Y144744D02*
Y145987D01*
X331269Y147468D02*
X332750Y145987D01*
X166535Y153459D02*
X167057Y152937D01*
X170665D01*
X284154Y144515D02*
X285714Y142956D01*
X336731Y148282D02*
X337740Y149291D01*
X276729Y141869D02*
X287411Y152550D01*
X289500Y138827D02*
Y140185D01*
X276729Y135785D02*
X277816Y134698D01*
X337740Y149291D02*
Y150472D01*
X294500Y137469D02*
Y138827D01*
X277816Y134698D02*
X291729D01*
X285714Y142956D02*
X286730D01*
X336731Y147468D02*
Y148282D01*
X331269Y147468D02*
Y148282D01*
X276729Y135785D02*
Y141869D01*
X284154Y145758D02*
X288446Y150050D01*
X330260Y149291D02*
X331269Y148282D01*
X330260Y149291D02*
Y150472D01*
X286730Y142956D02*
X289500Y140185D01*
X284154Y144515D02*
Y145758D01*
X291729Y134698D02*
X294500Y137469D01*
X320000Y134000D02*
X320500Y133500D01*
X314500Y137469D02*
Y138827D01*
X317969Y134000D02*
X320000D01*
X314500Y137469D02*
X317969Y134000D01*
X339118Y166882D02*
X342000Y164000D01*
X339118Y166882D02*
Y172878D01*
X335250Y164013D02*
X336731Y162532D01*
Y161718D02*
Y162532D01*
Y161718D02*
X337740Y160709D01*
Y159528D02*
Y160709D01*
X336529Y166535D02*
Y172848D01*
X334030Y167571D02*
Y172848D01*
X332750Y166291D02*
X334030Y167571D01*
X335250Y164013D02*
Y165256D01*
X331269Y162532D02*
X332750Y164013D01*
Y166291D01*
X335250Y165256D02*
X336529Y166535D01*
X330260Y160709D02*
X331269Y161718D01*
X336529Y172848D02*
X336559Y172878D01*
X330260Y159528D02*
Y160709D01*
X331269Y161718D02*
Y162532D01*
X334000Y172878D02*
X334030Y172848D01*
X139747Y172253D02*
X142694D01*
X143441Y173000D01*
X166535Y153459D02*
X167165Y154088D01*
X176000Y158291D02*
Y163000D01*
X171797Y154088D02*
X176000Y158291D01*
X136559Y173000D02*
X137306Y172253D01*
X139747D01*
D71*
X260000Y144000D02*
Y172000D01*
X275426Y152483D02*
Y155426D01*
X272000Y149057D02*
X275426Y152483D01*
X196063Y126707D02*
Y133931D01*
X203287D01*
X196063D02*
Y141156D01*
X188839Y133931D02*
X196063D01*
X40000Y115000D02*
X53000Y128000D01*
X33000Y115000D02*
X40000D01*
X53000Y128000D02*
X81000D01*
X44000Y111000D02*
X57300Y124300D01*
X76700D01*
X44000Y91000D02*
Y111000D01*
X258000Y127000D02*
X301000D01*
X243000Y150000D02*
X260852Y132148D01*
X243000Y142000D02*
X258000Y127000D01*
X260852Y132148D02*
X299180D01*
X304500Y137469D01*
X301000Y127000D02*
X309279Y135280D01*
X260000Y102650D02*
Y121000D01*
X299500Y145500D02*
X300000Y146000D01*
X299500Y138827D02*
Y145500D01*
X255675Y98325D02*
X260000Y102650D01*
Y172000D02*
X263441D01*
X256559D02*
X260000D01*
X316287Y121552D02*
X320000Y117839D01*
X316315Y88000D02*
X320000Y91685D01*
Y117839D01*
X315331Y88000D02*
X316315D01*
X292286D02*
X315331D01*
X302520Y121552D02*
X316287D01*
X299500Y118532D02*
X302520Y121552D01*
X299500Y117173D02*
Y118532D01*
X291114Y84673D02*
Y86828D01*
X290441Y84000D02*
X291114Y84673D01*
Y86828D02*
X292286Y88000D01*
X295559Y80172D02*
Y84000D01*
X288000Y79000D02*
X294387D01*
X295559Y80172D01*
X279331Y84260D02*
X279420Y84170D01*
X282830D01*
X288000Y79000D01*
X289768Y91130D02*
X290441Y91803D01*
X289571Y91130D02*
X289768D01*
X270669Y88000D02*
X286441D01*
X290441Y91803D02*
Y92000D01*
X286441Y88000D02*
X289571Y91130D01*
X290441Y92000D02*
Y101756D01*
X304500Y115815D01*
Y117173D01*
X295559Y92000D02*
X305425D01*
X305685Y91740D01*
X306669D01*
X255675Y98325D02*
X262260Y91740D01*
X233598Y98325D02*
X255675D01*
X262260Y91740D02*
X279331D01*
X309279Y135280D02*
Y138606D01*
X241943Y142000D02*
X243000D01*
X309279Y138606D02*
X309500Y138827D01*
X233465Y143459D02*
X240484D01*
X241943Y142000D01*
Y150000D02*
X243000D01*
X240402Y148459D02*
X241943Y150000D01*
X233465Y148459D02*
X240402D01*
X304500Y137469D02*
Y138827D01*
X272000Y148000D02*
Y149057D01*
X275426Y155426D02*
X276000Y156000D01*
Y164362D01*
X268559Y171803D02*
Y172000D01*
Y171803D02*
X276000Y164362D01*
X247000Y176638D02*
X251441Y172197D01*
X247000Y176638D02*
Y184000D01*
X251441Y172000D02*
Y172197D01*
X50689Y108689D02*
X63000Y121000D01*
X76700Y124300D02*
X92541Y108459D01*
X72000Y121000D02*
X89541Y103459D01*
X63000Y121000D02*
X72000D01*
X81000Y128000D02*
X95541Y113459D01*
X50689Y91311D02*
X51000Y91000D01*
X50689Y91311D02*
Y108689D01*
X92541Y108459D02*
X166535D01*
X89541Y103459D02*
X166535D01*
X95541Y113459D02*
X166535D01*
D72*
X34465Y133000D02*
X84000D01*
X348173Y124000D02*
X356524Y132350D01*
X358886D02*
X359535Y133000D01*
X348000Y124000D02*
X348173D01*
X356524Y132350D02*
X358886D01*
D73*
X27706Y149000D02*
X49000D01*
X20006Y156700D02*
X27706Y149000D01*
D74*
X327000Y115000D02*
D03*
X17000D02*
D03*
X41000Y174000D02*
D03*
D75*
X327000Y105000D02*
D03*
Y95000D02*
D03*
Y85000D02*
D03*
Y75000D02*
D03*
Y65000D02*
D03*
Y55000D02*
D03*
Y45000D02*
D03*
X377000D02*
D03*
Y55000D02*
D03*
Y65000D02*
D03*
Y75000D02*
D03*
Y85000D02*
D03*
Y105000D02*
D03*
Y95000D02*
D03*
Y115000D02*
D03*
X17000Y105000D02*
D03*
Y95000D02*
D03*
Y85000D02*
D03*
Y75000D02*
D03*
Y65000D02*
D03*
Y55000D02*
D03*
Y45000D02*
D03*
X67000D02*
D03*
Y55000D02*
D03*
Y65000D02*
D03*
Y75000D02*
D03*
Y85000D02*
D03*
Y105000D02*
D03*
Y95000D02*
D03*
Y115000D02*
D03*
X51000Y164000D02*
D03*
Y174000D02*
D03*
X41000Y164000D02*
D03*
D76*
X92000Y66000D02*
D03*
X117591D02*
D03*
X282000Y9000D02*
D03*
X272000D02*
D03*
X190000Y30000D02*
D03*
X200000D02*
D03*
X180000D02*
D03*
D77*
X292000Y9000D02*
D03*
X210000Y30000D02*
D03*
D78*
X240000Y10000D02*
D03*
X230000D02*
D03*
X220000D02*
D03*
X210000D02*
D03*
X200000D02*
D03*
X190000D02*
D03*
X180000D02*
D03*
X170000D02*
D03*
X160000D02*
D03*
D79*
X150000D02*
D03*
D80*
X366748Y29000D02*
D03*
X358874D02*
D03*
X351000D02*
D03*
X51874D02*
D03*
X44000D02*
D03*
X36126D02*
D03*
D81*
X343126D02*
D03*
X28252D02*
D03*
D82*
X323272Y184000D02*
D03*
X344728D02*
D03*
D83*
X286432Y27605D02*
D03*
X107298D02*
D03*
D84*
X242000Y110000D02*
D03*
Y117000D02*
D03*
X124000Y168000D02*
D03*
X112800Y150200D02*
D03*
X260000Y144000D02*
D03*
X276000Y156000D02*
D03*
X315000Y96000D02*
D03*
X89000Y13000D02*
D03*
X378000Y153000D02*
D03*
X356000Y166000D02*
D03*
X306000Y176000D02*
D03*
X285000D02*
D03*
X278000Y107000D02*
D03*
X108000Y186000D02*
D03*
X71000D02*
D03*
X11000Y151000D02*
D03*
X111000Y142000D02*
D03*
X377000Y33000D02*
D03*
X309000Y44000D02*
D03*
X314000Y63000D02*
D03*
X278000Y43000D02*
D03*
X260000Y31000D02*
D03*
X71000Y143000D02*
D03*
X111000Y122000D02*
D03*
X142000D02*
D03*
X126000Y16000D02*
D03*
X143000Y44000D02*
D03*
X157000Y73000D02*
D03*
X71000Y22000D02*
D03*
X305000Y106000D02*
D03*
X260000Y121000D02*
D03*
X300000Y146000D02*
D03*
X242000Y103000D02*
D03*
X212000Y49000D02*
D03*
X227000Y55000D02*
D03*
X306000Y9000D02*
D03*
X318000Y20000D02*
D03*
X195000Y55000D02*
D03*
X203000Y49000D02*
D03*
X84000Y133000D02*
D03*
X49000Y149000D02*
D03*
X137000Y84000D02*
D03*
X33000Y115000D02*
D03*
X44000Y91000D02*
D03*
X51000D02*
D03*
X348000Y124000D02*
D03*
M02*
