G04*
G04 #@! TF.GenerationSoftware,Altium Limited,Altium Designer,22.0.2 (36)*
G04*
G04 Layer_Color=16711935*
%FSLAX25Y25*%
%MOIN*%
G70*
G04*
G04 #@! TF.SameCoordinates,A5FD766F-ED0D-4258-BB47-254A20FAC7F6*
G04*
G04*
G04 #@! TF.FilePolarity,Negative*
G04*
G01*
G75*
%ADD34R,0.02559X0.02756*%
%ADD40C,0.06706*%
%ADD56R,0.07800X0.07800*%
%ADD57C,0.07800*%
%ADD58C,0.08800*%
%ADD59C,0.00800*%
%ADD60R,0.08800X0.08800*%
%ADD61C,0.06800*%
%ADD62R,0.06800X0.06800*%
%ADD63C,0.07300*%
%ADD64R,0.07300X0.07300*%
%ADD65O,0.05524X0.10249*%
%ADD66O,0.04000X0.05748*%
%ADD67C,0.14343*%
%ADD68C,0.05800*%
G04:AMPARAMS|DCode=89|XSize=133.98mil|YSize=76.9mil|CornerRadius=6.07mil|HoleSize=0mil|Usage=FLASHONLY|Rotation=270.000|XOffset=0mil|YOffset=0mil|HoleType=Round|Shape=RoundedRectangle|*
%AMROUNDEDRECTD89*
21,1,0.13398,0.06476,0,0,270.0*
21,1,0.12185,0.07690,0,0,270.0*
1,1,0.01213,-0.03238,-0.06093*
1,1,0.01213,-0.03238,0.06093*
1,1,0.01213,0.03238,0.06093*
1,1,0.01213,0.03238,-0.06093*
%
%ADD89ROUNDEDRECTD89*%
G04:AMPARAMS|DCode=90|XSize=43.43mil|YSize=76.9mil|CornerRadius=5.95mil|HoleSize=0mil|Usage=FLASHONLY|Rotation=270.000|XOffset=0mil|YOffset=0mil|HoleType=Round|Shape=RoundedRectangle|*
%AMROUNDEDRECTD90*
21,1,0.04343,0.06500,0,0,270.0*
21,1,0.03154,0.07690,0,0,270.0*
1,1,0.01190,-0.03250,-0.01577*
1,1,0.01190,-0.03250,0.01577*
1,1,0.01190,0.03250,0.01577*
1,1,0.01190,0.03250,-0.01577*
%
%ADD90ROUNDEDRECTD90*%
%ADD91R,0.04540X0.04147*%
%ADD92O,0.04934X0.09068*%
D34*
X269343Y18000D02*
D03*
X274657D02*
D03*
X183343Y21000D02*
D03*
X188657D02*
D03*
D40*
X61000Y150000D02*
D03*
X102000Y136000D02*
D03*
X84000Y140000D02*
D03*
D56*
X327000Y115000D02*
D03*
X17000D02*
D03*
X41000Y174000D02*
D03*
D57*
X327000Y105000D02*
D03*
Y95000D02*
D03*
Y85000D02*
D03*
Y75000D02*
D03*
Y65000D02*
D03*
Y55000D02*
D03*
Y45000D02*
D03*
X377000D02*
D03*
Y55000D02*
D03*
Y65000D02*
D03*
Y75000D02*
D03*
Y85000D02*
D03*
Y105000D02*
D03*
Y95000D02*
D03*
Y115000D02*
D03*
X17000Y105000D02*
D03*
Y95000D02*
D03*
Y85000D02*
D03*
Y75000D02*
D03*
Y65000D02*
D03*
Y55000D02*
D03*
Y45000D02*
D03*
X67000D02*
D03*
Y55000D02*
D03*
Y65000D02*
D03*
Y75000D02*
D03*
Y85000D02*
D03*
Y105000D02*
D03*
Y95000D02*
D03*
Y115000D02*
D03*
X51000Y164000D02*
D03*
Y174000D02*
D03*
X41000Y164000D02*
D03*
D58*
X92000Y66000D02*
D03*
X117591D02*
D03*
X282000Y9000D02*
D03*
X272000D02*
D03*
X190000Y30000D02*
D03*
X200000D02*
D03*
X180000D02*
D03*
D59*
X92000Y66000D02*
D03*
D60*
X292000Y9000D02*
D03*
X210000Y30000D02*
D03*
D61*
X240000Y10000D02*
D03*
X230000D02*
D03*
X220000D02*
D03*
X210000D02*
D03*
X200000D02*
D03*
X190000D02*
D03*
X180000D02*
D03*
X170000D02*
D03*
X160000D02*
D03*
D62*
X150000D02*
D03*
D63*
X366748Y29000D02*
D03*
X358874D02*
D03*
X351000D02*
D03*
X51874D02*
D03*
X44000D02*
D03*
X36126D02*
D03*
D64*
X343126D02*
D03*
X28252D02*
D03*
D65*
X323272Y184000D02*
D03*
X344728D02*
D03*
D66*
X324453Y172071D02*
D03*
X343547D02*
D03*
D67*
X286432Y27605D02*
D03*
X107298D02*
D03*
D68*
X242000Y110000D02*
D03*
Y117000D02*
D03*
X124000Y168000D02*
D03*
X112800Y150200D02*
D03*
X260000Y144000D02*
D03*
X276000Y156000D02*
D03*
X315000Y96000D02*
D03*
X89000Y13000D02*
D03*
X378000Y153000D02*
D03*
X356000Y166000D02*
D03*
X306000Y176000D02*
D03*
X285000D02*
D03*
X278000Y107000D02*
D03*
X108000Y186000D02*
D03*
X71000D02*
D03*
X11000Y151000D02*
D03*
X111000Y142000D02*
D03*
X377000Y33000D02*
D03*
X309000Y44000D02*
D03*
X314000Y63000D02*
D03*
X278000Y43000D02*
D03*
X260000Y31000D02*
D03*
X71000Y143000D02*
D03*
X111000Y122000D02*
D03*
X142000D02*
D03*
X126000Y16000D02*
D03*
X143000Y44000D02*
D03*
X157000Y73000D02*
D03*
X71000Y22000D02*
D03*
X305000Y106000D02*
D03*
X260000Y121000D02*
D03*
X300000Y146000D02*
D03*
X242000Y103000D02*
D03*
X212000Y49000D02*
D03*
X227000Y55000D02*
D03*
X306000Y9000D02*
D03*
X318000Y20000D02*
D03*
X195000Y55000D02*
D03*
X203000Y49000D02*
D03*
X84000Y133000D02*
D03*
X49000Y149000D02*
D03*
X137000Y84000D02*
D03*
X33000Y115000D02*
D03*
X44000Y91000D02*
D03*
X51000D02*
D03*
X348000Y124000D02*
D03*
D89*
X95303Y165000D02*
D03*
D90*
X70697Y174055D02*
D03*
Y165000D02*
D03*
Y155945D02*
D03*
D91*
X137000Y72441D02*
D03*
Y77559D02*
D03*
D92*
X324453Y172071D02*
D03*
X343547D02*
D03*
M02*
