%FSTAX23Y23*%
%MOIN*%
%SFA1B1*%

%IPPOS*%
%ADD11C,0.007870*%
%ADD15C,0.005000*%
%LNcontrolboardv1-1*%
%LPD*%
G54D11*
X03883Y03116D02*
X0395D01*
G54D15*
X0Y0D02*
X12286D01*
Y16786*
X0*
Y0*
G54D11*
X03883Y03081D02*
Y03116D01*
Y03081D02*
X0395D01*
Y03116*
X04743Y03086D02*
X0481D01*
X04743Y03051D02*
Y03086D01*
Y03051D02*
X0481D01*
Y03086*
X0812Y03116D02*
X08187D01*
X0812Y03081D02*
Y03116D01*
Y03081D02*
X08187D01*
Y03116*
X0898Y03086D02*
X09047D01*
X0898Y03051D02*
Y03086D01*
Y03051D02*
X09047D01*
Y03086*
X03883Y05378D02*
X0395D01*
X03883Y05343D02*
Y05378D01*
Y05343D02*
X0395D01*
Y05378*
X04743Y05348D02*
X0481D01*
X04743Y05313D02*
Y05348D01*
Y05313D02*
X0481D01*
Y05348*
X0812Y05378D02*
X08187D01*
X0812Y05343D02*
Y05378D01*
Y05343D02*
X08187D01*
Y05378*
X0898Y05348D02*
X09047D01*
X0898Y05313D02*
Y05348D01*
Y05313D02*
X09047D01*
Y05348*
X03883Y0764D02*
X0395D01*
X03883Y07605D02*
Y0764D01*
Y07605D02*
X0395D01*
Y0764*
X04743Y0761D02*
X0481D01*
X04743Y07575D02*
Y0761D01*
Y07575D02*
X0481D01*
Y0761*
X0812Y0764D02*
X08187D01*
X0812Y07605D02*
Y0764D01*
Y07605D02*
X08187D01*
Y0764*
X0898Y0761D02*
X09047D01*
X0898Y07575D02*
Y0761D01*
Y07575D02*
X09047D01*
Y0761*
X03883Y09901D02*
X0395D01*
X03883Y09866D02*
Y09901D01*
Y09866D02*
X0395D01*
Y09901*
X04743Y09871D02*
X0481D01*
X04743Y09836D02*
Y09871D01*
Y09836D02*
X0481D01*
Y09871*
X0812Y09901D02*
X08187D01*
X0812Y09866D02*
Y09901D01*
Y09866D02*
X08187D01*
Y09901*
X0898Y09871D02*
X09047D01*
X0898Y09836D02*
Y09871D01*
Y09836D02*
X09047D01*
Y09871*
X03883Y12163D02*
X0395D01*
X03883Y12128D02*
Y12163D01*
Y12128D02*
X0395D01*
Y12163*
X04743Y12133D02*
X0481D01*
X04743Y12098D02*
Y12133D01*
Y12098D02*
X0481D01*
Y12133*
X0812Y12163D02*
X08187D01*
X0812Y12128D02*
Y12163D01*
Y12128D02*
X08187D01*
Y12163*
X0898Y12133D02*
X09047D01*
X0898Y12098D02*
Y12133D01*
Y12098D02*
X09047D01*
Y12133*
M02*