G04*
G04 #@! TF.GenerationSoftware,Altium Limited,Altium Designer,22.0.2 (36)*
G04*
G04 Layer_Color=32768*
%FSLAX25Y25*%
%MOIN*%
G70*
G04*
G04 #@! TF.SameCoordinates,A5FD766F-ED0D-4258-BB47-254A20FAC7F6*
G04*
G04*
G04 #@! TF.FilePolarity,Positive*
G04*
G01*
G75*
%ADD10C,0.00787*%
%ADD12C,0.01000*%
D10*
X162205Y90191D02*
Y193537D01*
Y90191D02*
X237795D01*
Y193537D01*
X162205D02*
X237795D01*
X155669Y26835D02*
Y31165D01*
Y26835D02*
X164331D01*
Y31165D01*
X155669D02*
X164331D01*
X311638Y99276D02*
X316362D01*
Y108724D01*
X311638D02*
X316362D01*
X311638Y99276D02*
Y108724D01*
D12*
X365002Y46000D02*
X364502Y46499D01*
X363502D01*
X363003Y46000D01*
Y44000D01*
X363502Y43501D01*
X364502D01*
X365002Y44000D01*
Y45000D01*
X364002D01*
X366002Y43501D02*
Y46499D01*
X368001Y43501D01*
Y46499D01*
X369001D02*
Y43501D01*
X370500D01*
X371000Y44000D01*
Y46000D01*
X370500Y46499D01*
X369001D01*
X363003Y56499D02*
Y54500D01*
X364002Y53500D01*
X365002Y54500D01*
Y56499D01*
X366002D02*
Y53500D01*
X367501D01*
X368001Y54000D01*
Y56000D01*
X367501Y56499D01*
X366002D01*
X369001D02*
Y53500D01*
X370500D01*
X371000Y54000D01*
Y56000D01*
X370500Y56499D01*
X369001D01*
X366501Y63500D02*
X367501D01*
X367001D01*
Y66500D01*
X366501Y66000D01*
X369001Y66500D02*
Y63500D01*
X370500D01*
X371000Y64000D01*
Y64500D01*
X370500Y65000D01*
X369001D01*
X370500D01*
X371000Y65500D01*
Y66000D01*
X370500Y66500D01*
X369001D01*
X366501Y73501D02*
X367501D01*
X367001D01*
Y76499D01*
X366501Y76000D01*
X369001Y73501D02*
Y75500D01*
X370000Y76499D01*
X371000Y75500D01*
Y73501D01*
Y75000D01*
X369001D01*
X368001Y83500D02*
X366002D01*
X368001Y85500D01*
Y86000D01*
X367501Y86500D01*
X366501D01*
X366002Y86000D01*
X369001Y83500D02*
Y85500D01*
X370000Y86500D01*
X371000Y85500D01*
Y83500D01*
Y85000D01*
X369001D01*
X368001Y93501D02*
X366002D01*
X368001Y95500D01*
Y96000D01*
X367501Y96500D01*
X366501D01*
X366002Y96000D01*
X369001Y96500D02*
Y93501D01*
X370500D01*
X371000Y94000D01*
Y94500D01*
X370500Y95000D01*
X369001D01*
X370500D01*
X371000Y95500D01*
Y96000D01*
X370500Y96500D01*
X369001D01*
X365002Y106000D02*
X364502Y106500D01*
X363502D01*
X363003Y106000D01*
Y104000D01*
X363502Y103500D01*
X364502D01*
X365002Y104000D01*
Y105000D01*
X364002D01*
X366002Y103500D02*
Y106500D01*
X368001Y103500D01*
Y106500D01*
X369001D02*
Y103500D01*
X370500D01*
X371000Y104000D01*
Y106000D01*
X370500Y106500D01*
X369001D01*
X360004Y116499D02*
Y114500D01*
X361003Y113500D01*
X362003Y114500D01*
Y116499D01*
X363003Y113500D02*
Y116499D01*
X364002Y115500D01*
X365002Y116499D01*
Y113500D01*
X367501Y116499D02*
X366501D01*
X366002Y116000D01*
Y114000D01*
X366501Y113500D01*
X367501D01*
X368001Y114000D01*
Y116000D01*
X367501Y116499D01*
X369001D02*
X371000D01*
X370000D01*
Y113500D01*
X333000Y46499D02*
Y43501D01*
X334500D01*
X334999Y44000D01*
Y46000D01*
X334500Y46499D01*
X333000D01*
X335999D02*
X336999D01*
X336499D01*
Y43501D01*
X335999D01*
X336999D01*
X338498D02*
Y46499D01*
X339998D01*
X340498Y46000D01*
Y45000D01*
X339998Y44500D01*
X338498D01*
X339498D02*
X340498Y43501D01*
X334999Y56000D02*
X334500Y56499D01*
X333500D01*
X333000Y56000D01*
Y55500D01*
X333500Y55000D01*
X334500D01*
X334999Y54500D01*
Y54000D01*
X334500Y53500D01*
X333500D01*
X333000Y54000D01*
X335999Y56499D02*
X337998D01*
X336999D01*
Y53500D01*
X340997Y56499D02*
X338998D01*
Y53500D01*
X340997D01*
X338998Y55000D02*
X339998D01*
X341997Y53500D02*
Y56499D01*
X343497D01*
X343996Y56000D01*
Y55000D01*
X343497Y54500D01*
X341997D01*
X334999Y66000D02*
X334500Y66500D01*
X333500D01*
X333000Y66000D01*
Y65500D01*
X333500Y65000D01*
X334500D01*
X334999Y64500D01*
Y64000D01*
X334500Y63500D01*
X333500D01*
X333000Y64000D01*
X335999Y66500D02*
Y63500D01*
X337998D01*
X338998D02*
Y66500D01*
X340498D01*
X340997Y66000D01*
Y65000D01*
X340498Y64500D01*
X338998D01*
X333000Y73501D02*
Y76499D01*
X334500D01*
X334999Y76000D01*
Y75000D01*
X334500Y74500D01*
X333000D01*
X334000D02*
X334999Y73501D01*
X337998Y76000D02*
X337498Y76499D01*
X336499D01*
X335999Y76000D01*
Y75500D01*
X336499Y75000D01*
X337498D01*
X337998Y74500D01*
Y74000D01*
X337498Y73501D01*
X336499D01*
X335999Y74000D01*
X338998Y76499D02*
X340997D01*
X339998D01*
Y73501D01*
X333000Y83500D02*
Y86500D01*
X334000Y85500D01*
X334999Y86500D01*
Y83500D01*
X337998Y86000D02*
X337498Y86500D01*
X336499D01*
X335999Y86000D01*
Y85500D01*
X336499Y85000D01*
X337498D01*
X337998Y84500D01*
Y84000D01*
X337498Y83500D01*
X336499D01*
X335999Y84000D01*
X338998Y86000D02*
X339498Y86500D01*
X340498D01*
X340997Y86000D01*
Y85500D01*
X340498Y85000D01*
X339998D01*
X340498D01*
X340997Y84500D01*
Y84000D01*
X340498Y83500D01*
X339498D01*
X338998Y84000D01*
X333000Y93501D02*
Y96500D01*
X334000Y95500D01*
X334999Y96500D01*
Y93501D01*
X337998Y96000D02*
X337498Y96500D01*
X336499D01*
X335999Y96000D01*
Y95500D01*
X336499Y95000D01*
X337498D01*
X337998Y94500D01*
Y94000D01*
X337498Y93501D01*
X336499D01*
X335999Y94000D01*
X340997Y93501D02*
X338998D01*
X340997Y95500D01*
Y96000D01*
X340498Y96500D01*
X339498D01*
X338998Y96000D01*
X333000Y103500D02*
Y106500D01*
X334000Y105500D01*
X334999Y106500D01*
Y103500D01*
X337998Y106000D02*
X337498Y106500D01*
X336499D01*
X335999Y106000D01*
Y105500D01*
X336499Y105000D01*
X337498D01*
X337998Y104500D01*
Y104000D01*
X337498Y103500D01*
X336499D01*
X335999Y104000D01*
X338998Y103500D02*
X339998D01*
X339498D01*
Y106500D01*
X338998Y106000D01*
X334999Y116499D02*
X333000D01*
Y113500D01*
X334999D01*
X333000Y115000D02*
X334000D01*
X335999Y113500D02*
Y116499D01*
X337998Y113500D01*
Y116499D01*
X55002Y46000D02*
X54502Y46499D01*
X53502D01*
X53003Y46000D01*
Y44000D01*
X53502Y43501D01*
X54502D01*
X55002Y44000D01*
Y45000D01*
X54002D01*
X56002Y43501D02*
Y46499D01*
X58001Y43501D01*
Y46499D01*
X59001D02*
Y43501D01*
X60500D01*
X61000Y44000D01*
Y46000D01*
X60500Y46499D01*
X59001D01*
X53003Y56499D02*
Y54500D01*
X54002Y53500D01*
X55002Y54500D01*
Y56499D01*
X56002D02*
Y53500D01*
X57501D01*
X58001Y54000D01*
Y56000D01*
X57501Y56499D01*
X56002D01*
X59001D02*
Y53500D01*
X60500D01*
X61000Y54000D01*
Y56000D01*
X60500Y56499D01*
X59001D01*
X56502Y63500D02*
X57501D01*
X57001D01*
Y66500D01*
X56502Y66000D01*
X59001Y66500D02*
Y63500D01*
X60500D01*
X61000Y64000D01*
Y64500D01*
X60500Y65000D01*
X59001D01*
X60500D01*
X61000Y65500D01*
Y66000D01*
X60500Y66500D01*
X59001D01*
X56502Y73501D02*
X57501D01*
X57001D01*
Y76499D01*
X56502Y76000D01*
X59001Y73501D02*
Y75500D01*
X60000Y76499D01*
X61000Y75500D01*
Y73501D01*
Y75000D01*
X59001D01*
X58001Y83500D02*
X56002D01*
X58001Y85500D01*
Y86000D01*
X57501Y86500D01*
X56502D01*
X56002Y86000D01*
X59001Y83500D02*
Y85500D01*
X60000Y86500D01*
X61000Y85500D01*
Y83500D01*
Y85000D01*
X59001D01*
X58001Y93501D02*
X56002D01*
X58001Y95500D01*
Y96000D01*
X57501Y96500D01*
X56502D01*
X56002Y96000D01*
X59001Y96500D02*
Y93501D01*
X60500D01*
X61000Y94000D01*
Y94500D01*
X60500Y95000D01*
X59001D01*
X60500D01*
X61000Y95500D01*
Y96000D01*
X60500Y96500D01*
X59001D01*
X55002Y106000D02*
X54502Y106500D01*
X53502D01*
X53003Y106000D01*
Y104000D01*
X53502Y103500D01*
X54502D01*
X55002Y104000D01*
Y105000D01*
X54002D01*
X56002Y103500D02*
Y106500D01*
X58001Y103500D01*
Y106500D01*
X59001D02*
Y103500D01*
X60500D01*
X61000Y104000D01*
Y106000D01*
X60500Y106500D01*
X59001D01*
X50004Y116499D02*
Y114500D01*
X51003Y113500D01*
X52003Y114500D01*
Y116499D01*
X53003Y113500D02*
Y116499D01*
X54002Y115500D01*
X55002Y116499D01*
Y113500D01*
X57501Y116499D02*
X56502D01*
X56002Y116000D01*
Y114000D01*
X56502Y113500D01*
X57501D01*
X58001Y114000D01*
Y116000D01*
X57501Y116499D01*
X59001D02*
X61000D01*
X60000D01*
Y113500D01*
X23000Y46499D02*
Y43501D01*
X24499D01*
X24999Y44000D01*
Y46000D01*
X24499Y46499D01*
X23000D01*
X25999D02*
X26999D01*
X26499D01*
Y43501D01*
X25999D01*
X26999D01*
X28498D02*
Y46499D01*
X29998D01*
X30498Y46000D01*
Y45000D01*
X29998Y44500D01*
X28498D01*
X29498D02*
X30498Y43501D01*
X24999Y56000D02*
X24499Y56499D01*
X23500D01*
X23000Y56000D01*
Y55500D01*
X23500Y55000D01*
X24499D01*
X24999Y54500D01*
Y54000D01*
X24499Y53500D01*
X23500D01*
X23000Y54000D01*
X25999Y56499D02*
X27998D01*
X26999D01*
Y53500D01*
X30997Y56499D02*
X28998D01*
Y53500D01*
X30997D01*
X28998Y55000D02*
X29998D01*
X31997Y53500D02*
Y56499D01*
X33497D01*
X33996Y56000D01*
Y55000D01*
X33497Y54500D01*
X31997D01*
X24999Y66000D02*
X24499Y66500D01*
X23500D01*
X23000Y66000D01*
Y65500D01*
X23500Y65000D01*
X24499D01*
X24999Y64500D01*
Y64000D01*
X24499Y63500D01*
X23500D01*
X23000Y64000D01*
X25999Y66500D02*
Y63500D01*
X27998D01*
X28998D02*
Y66500D01*
X30498D01*
X30997Y66000D01*
Y65000D01*
X30498Y64500D01*
X28998D01*
X23000Y73501D02*
Y76499D01*
X24499D01*
X24999Y76000D01*
Y75000D01*
X24499Y74500D01*
X23000D01*
X24000D02*
X24999Y73501D01*
X27998Y76000D02*
X27499Y76499D01*
X26499D01*
X25999Y76000D01*
Y75500D01*
X26499Y75000D01*
X27499D01*
X27998Y74500D01*
Y74000D01*
X27499Y73501D01*
X26499D01*
X25999Y74000D01*
X28998Y76499D02*
X30997D01*
X29998D01*
Y73501D01*
X23000Y83500D02*
Y86500D01*
X24000Y85500D01*
X24999Y86500D01*
Y83500D01*
X27998Y86000D02*
X27499Y86500D01*
X26499D01*
X25999Y86000D01*
Y85500D01*
X26499Y85000D01*
X27499D01*
X27998Y84500D01*
Y84000D01*
X27499Y83500D01*
X26499D01*
X25999Y84000D01*
X28998Y86000D02*
X29498Y86500D01*
X30498D01*
X30997Y86000D01*
Y85500D01*
X30498Y85000D01*
X29998D01*
X30498D01*
X30997Y84500D01*
Y84000D01*
X30498Y83500D01*
X29498D01*
X28998Y84000D01*
X23000Y93501D02*
Y96500D01*
X24000Y95500D01*
X24999Y96500D01*
Y93501D01*
X27998Y96000D02*
X27499Y96500D01*
X26499D01*
X25999Y96000D01*
Y95500D01*
X26499Y95000D01*
X27499D01*
X27998Y94500D01*
Y94000D01*
X27499Y93501D01*
X26499D01*
X25999Y94000D01*
X30997Y93501D02*
X28998D01*
X30997Y95500D01*
Y96000D01*
X30498Y96500D01*
X29498D01*
X28998Y96000D01*
X23000Y103500D02*
Y106500D01*
X24000Y105500D01*
X24999Y106500D01*
Y103500D01*
X27998Y106000D02*
X27499Y106500D01*
X26499D01*
X25999Y106000D01*
Y105500D01*
X26499Y105000D01*
X27499D01*
X27998Y104500D01*
Y104000D01*
X27499Y103500D01*
X26499D01*
X25999Y104000D01*
X28998Y103500D02*
X29998D01*
X29498D01*
Y106500D01*
X28998Y106000D01*
X24999Y116499D02*
X23000D01*
Y113500D01*
X24999D01*
X23000Y115000D02*
X24000D01*
X25999Y113500D02*
Y116499D01*
X27998Y113500D01*
Y116499D01*
M02*
