%FSTAX23Y23*%
%MOIN*%
%SFA1B1*%

%IPPOS*%
%AMD87*
4,1,8,0.034400,-0.015800,0.034400,0.015800,0.032500,0.017700,-0.032500,0.017700,-0.034400,0.015800,-0.034400,-0.015800,-0.032500,-0.017700,0.032500,-0.017700,0.034400,-0.015800,0.0*
1,1,0.003900,0.032500,-0.015800*
1,1,0.003900,0.032500,0.015800*
1,1,0.003900,-0.032500,0.015800*
1,1,0.003900,-0.032500,-0.015800*
%
%AMD88*
4,1,8,0.034400,-0.060900,0.034400,0.060900,0.032400,0.063000,-0.032400,0.063000,-0.034400,0.060900,-0.034400,-0.060900,-0.032400,-0.063000,0.032400,-0.063000,0.034400,-0.060900,0.0*
1,1,0.004140,0.032400,-0.060900*
1,1,0.004140,0.032400,0.060900*
1,1,0.004140,-0.032400,0.060900*
1,1,0.004140,-0.032400,-0.060900*
%
%ADD15C,0.005000*%
%ADD21R,0.025590X0.027560*%
%ADD37C,0.059060*%
%ADD56O,0.040000X0.057480*%
%ADD74O,0.047240X0.094490*%
%ADD75C,0.065000*%
%ADD76R,0.065000X0.065000*%
%ADD77C,0.080000*%
%ADD78R,0.080000X0.080000*%
%ADD79R,0.060000X0.060000*%
%ADD80C,0.060000*%
%ADD81C,0.070000*%
%ADD82R,0.070000X0.070000*%
%ADD83C,0.135430*%
%ADD85O,0.041340X0.082680*%
%ADD86R,0.037400X0.033470*%
G04~CAMADD=87~8~0.0~0.0~354.3~689.0~19.5~0.0~15~0.0~0.0~0.0~0.0~0~0.0~0.0~0.0~0.0~0~0.0~0.0~0.0~270.0~689.0~354.0*
%ADD87D87*%
G04~CAMADD=88~8~0.0~0.0~1259.8~689.0~20.7~0.0~15~0.0~0.0~0.0~0.0~0~0.0~0.0~0.0~0.0~0~0.0~0.0~0.0~270.0~690.0~1260.0*
%ADD88D88*%
%LNcontrolboardv1-1*%
%LPD*%
G54D21*
X03943Y03098D03*
G54D15*
X0Y0D02*
X12286D01*
Y16786*
X0*
Y0*
G54D21*
X0389Y03098D03*
X04803Y03068D03*
X0475D03*
G54D37*
X02666Y04388D03*
X03076Y04248D03*
X02896Y04288D03*
G54D56*
X05492Y04609D03*
X05301D03*
G54D74*
X05504Y04728D03*
X05289D03*
G54D75*
X02418Y03178D03*
X02496D03*
X02575D03*
X05566D03*
X05645D03*
X05724D03*
G54D76*
X02339Y03178D03*
X05488D03*
G54D77*
X03856Y03188D03*
X04056D03*
X03956D03*
X04776Y02978D03*
X04876D03*
X03232Y03548D03*
X02976D03*
G54D78*
X04156Y03188D03*
X04976Y02978D03*
G54D79*
X03556Y02988D03*
G54D80*
X03656Y02988D03*
X03756D03*
X03856D03*
X03956D03*
X04056D03*
X04156D03*
X04256D03*
X04356D03*
X04456D03*
G54D81*
X02726Y04038D03*
Y03838D03*
Y03938D03*
Y03738D03*
Y03638D03*
Y03538D03*
Y03438D03*
Y03338D03*
X02226D03*
Y03438D03*
Y03538D03*
Y03638D03*
Y03738D03*
Y03838D03*
Y03938D03*
X05826Y04038D03*
Y03838D03*
Y03938D03*
Y03738D03*
Y03638D03*
Y03538D03*
Y03438D03*
Y03338D03*
X05326D03*
Y03438D03*
Y03538D03*
Y03638D03*
Y03738D03*
Y03838D03*
Y03938D03*
X02466Y04528D03*
X02566Y04628D03*
Y04528D03*
G54D82*
X02226Y04038D03*
X05326D03*
X02466Y04628D03*
G54D83*
X03129Y03165D03*
X04921D03*
G54D85*
X05492Y04609D03*
X05301D03*
G54D86*
X03426Y03664D03*
Y03613D03*
G54D87*
X02763Y04448D03*
Y04538D03*
Y04629D03*
G54D88*
X0301Y04538D03*
G54D21*
X0818Y03098D03*
X08127D03*
X0904Y03068D03*
X08987D03*
G54D37*
X06904Y04388D03*
X07314Y04248D03*
X07134Y04288D03*
G54D56*
X09729Y04609D03*
X09538D03*
G54D74*
X09741Y04728D03*
X09526D03*
G54D75*
X06655Y03178D03*
X06734D03*
X06812D03*
X09804D03*
X09882D03*
X09961D03*
G54D76*
X06576Y03178D03*
X09725D03*
G54D77*
X08094Y03188D03*
X08294D03*
X08194D03*
X09014Y02978D03*
X09114D03*
X07469Y03548D03*
X07214D03*
G54D78*
X08394Y03188D03*
X09214Y02978D03*
G54D79*
X07794Y02988D03*
G54D80*
X07894Y02988D03*
X07994D03*
X08094D03*
X08194D03*
X08294D03*
X08394D03*
X08494D03*
X08594D03*
X08694D03*
G54D81*
X06964Y04038D03*
Y03838D03*
Y03938D03*
Y03738D03*
Y03638D03*
Y03538D03*
Y03438D03*
Y03338D03*
X06464D03*
Y03438D03*
Y03538D03*
Y03638D03*
Y03738D03*
Y03838D03*
Y03938D03*
X10064Y04038D03*
Y03838D03*
Y03938D03*
Y03738D03*
Y03638D03*
Y03538D03*
Y03438D03*
Y03338D03*
X09564D03*
Y03438D03*
Y03538D03*
Y03638D03*
Y03738D03*
Y03838D03*
Y03938D03*
X06704Y04528D03*
X06804Y04628D03*
Y04528D03*
G54D82*
X06464Y04038D03*
X09564D03*
X06704Y04628D03*
G54D83*
X07366Y03165D03*
X09158D03*
G54D85*
X09729Y04609D03*
X09538D03*
G54D86*
X07664Y03664D03*
Y03613D03*
G54D87*
X07Y04448D03*
Y04538D03*
Y04629D03*
G54D88*
X07247Y04538D03*
G54D21*
X03943Y0536D03*
X0389D03*
X04803Y0533D03*
X0475D03*
G54D37*
X02666Y0665D03*
X03076Y0651D03*
X02896Y0655D03*
G54D56*
X05492Y06871D03*
X05301D03*
G54D74*
X05504Y0699D03*
X05289D03*
G54D75*
X02418Y0544D03*
X02496D03*
X02575D03*
X05566D03*
X05645D03*
X05724D03*
G54D76*
X02339Y0544D03*
X05488D03*
G54D77*
X03856Y0545D03*
X04056D03*
X03956D03*
X04776Y0524D03*
X04876D03*
X03232Y0581D03*
X02976D03*
G54D78*
X04156Y0545D03*
X04976Y0524D03*
G54D79*
X03556Y0525D03*
G54D80*
X03656Y0525D03*
X03756D03*
X03856D03*
X03956D03*
X04056D03*
X04156D03*
X04256D03*
X04356D03*
X04456D03*
G54D81*
X02726Y063D03*
Y061D03*
Y062D03*
Y06D03*
Y059D03*
Y058D03*
Y057D03*
Y056D03*
X02226D03*
Y057D03*
Y058D03*
Y059D03*
Y06D03*
Y061D03*
Y062D03*
X05826Y063D03*
Y061D03*
Y062D03*
Y06D03*
Y059D03*
Y058D03*
Y057D03*
Y056D03*
X05326D03*
Y057D03*
Y058D03*
Y059D03*
Y06D03*
Y061D03*
Y062D03*
X02466Y0679D03*
X02566Y0689D03*
Y0679D03*
G54D82*
X02226Y063D03*
X05326D03*
X02466Y0689D03*
G54D83*
X03129Y05427D03*
X04921D03*
G54D85*
X05492Y06871D03*
X05301D03*
G54D86*
X03426Y05926D03*
Y05875D03*
G54D87*
X02763Y0671D03*
Y068D03*
Y06891D03*
G54D88*
X0301Y068D03*
G54D21*
X0818Y0536D03*
X08127D03*
X0904Y0533D03*
X08987D03*
G54D37*
X06904Y0665D03*
X07314Y0651D03*
X07134Y0655D03*
G54D56*
X09729Y06871D03*
X09538D03*
G54D74*
X09741Y0699D03*
X09526D03*
G54D75*
X06655Y0544D03*
X06734D03*
X06812D03*
X09804D03*
X09882D03*
X09961D03*
G54D76*
X06576Y0544D03*
X09725D03*
G54D77*
X08094Y0545D03*
X08294D03*
X08194D03*
X09014Y0524D03*
X09114D03*
X07469Y0581D03*
X07214D03*
G54D78*
X08394Y0545D03*
X09214Y0524D03*
G54D79*
X07794Y0525D03*
G54D80*
X07894Y0525D03*
X07994D03*
X08094D03*
X08194D03*
X08294D03*
X08394D03*
X08494D03*
X08594D03*
X08694D03*
G54D81*
X06964Y063D03*
Y061D03*
Y062D03*
Y06D03*
Y059D03*
Y058D03*
Y057D03*
Y056D03*
X06464D03*
Y057D03*
Y058D03*
Y059D03*
Y06D03*
Y061D03*
Y062D03*
X10064Y063D03*
Y061D03*
Y062D03*
Y06D03*
Y059D03*
Y058D03*
Y057D03*
Y056D03*
X09564D03*
Y057D03*
Y058D03*
Y059D03*
Y06D03*
Y061D03*
Y062D03*
X06704Y0679D03*
X06804Y0689D03*
Y0679D03*
G54D82*
X06464Y063D03*
X09564D03*
X06704Y0689D03*
G54D83*
X07366Y05427D03*
X09158D03*
G54D85*
X09729Y06871D03*
X09538D03*
G54D86*
X07664Y05926D03*
Y05875D03*
G54D87*
X07Y0671D03*
Y068D03*
Y06891D03*
G54D88*
X07247Y068D03*
G54D21*
X03943Y07622D03*
X0389D03*
X04803Y07592D03*
X0475D03*
G54D37*
X02666Y08912D03*
X03076Y08772D03*
X02896Y08812D03*
G54D56*
X05492Y09132D03*
X05301D03*
G54D74*
X05504Y09252D03*
X05289D03*
G54D75*
X02418Y07702D03*
X02496D03*
X02575D03*
X05566D03*
X05645D03*
X05724D03*
G54D76*
X02339Y07702D03*
X05488D03*
G54D77*
X03856Y07712D03*
X04056D03*
X03956D03*
X04776Y07502D03*
X04876D03*
X03232Y08072D03*
X02976D03*
G54D78*
X04156Y07712D03*
X04976Y07502D03*
G54D79*
X03556Y07512D03*
G54D80*
X03656Y07512D03*
X03756D03*
X03856D03*
X03956D03*
X04056D03*
X04156D03*
X04256D03*
X04356D03*
X04456D03*
G54D81*
X02726Y08562D03*
Y08362D03*
Y08462D03*
Y08262D03*
Y08162D03*
Y08062D03*
Y07962D03*
Y07862D03*
X02226D03*
Y07962D03*
Y08062D03*
Y08162D03*
Y08262D03*
Y08362D03*
Y08462D03*
X05826Y08562D03*
Y08362D03*
Y08462D03*
Y08262D03*
Y08162D03*
Y08062D03*
Y07962D03*
Y07862D03*
X05326D03*
Y07962D03*
Y08062D03*
Y08162D03*
Y08262D03*
Y08362D03*
Y08462D03*
X02466Y09052D03*
X02566Y09152D03*
Y09052D03*
G54D82*
X02226Y08562D03*
X05326D03*
X02466Y09152D03*
G54D83*
X03129Y07689D03*
X04921D03*
G54D85*
X05492Y09132D03*
X05301D03*
G54D86*
X03426Y08188D03*
Y08137D03*
G54D87*
X02763Y08971D03*
Y09062D03*
Y09152D03*
G54D88*
X0301Y09062D03*
G54D21*
X0818Y07622D03*
X08127D03*
X0904Y07592D03*
X08987D03*
G54D37*
X06904Y08912D03*
X07314Y08772D03*
X07134Y08812D03*
G54D56*
X09729Y09132D03*
X09538D03*
G54D74*
X09741Y09252D03*
X09526D03*
G54D75*
X06655Y07702D03*
X06734D03*
X06812D03*
X09804D03*
X09882D03*
X09961D03*
G54D76*
X06576Y07702D03*
X09725D03*
G54D77*
X08094Y07712D03*
X08294D03*
X08194D03*
X09014Y07502D03*
X09114D03*
X07469Y08072D03*
X07214D03*
G54D78*
X08394Y07712D03*
X09214Y07502D03*
G54D79*
X07794Y07512D03*
G54D80*
X07894Y07512D03*
X07994D03*
X08094D03*
X08194D03*
X08294D03*
X08394D03*
X08494D03*
X08594D03*
X08694D03*
G54D81*
X06964Y08562D03*
Y08362D03*
Y08462D03*
Y08262D03*
Y08162D03*
Y08062D03*
Y07962D03*
Y07862D03*
X06464D03*
Y07962D03*
Y08062D03*
Y08162D03*
Y08262D03*
Y08362D03*
Y08462D03*
X10064Y08562D03*
Y08362D03*
Y08462D03*
Y08262D03*
Y08162D03*
Y08062D03*
Y07962D03*
Y07862D03*
X09564D03*
Y07962D03*
Y08062D03*
Y08162D03*
Y08262D03*
Y08362D03*
Y08462D03*
X06704Y09052D03*
X06804Y09152D03*
Y09052D03*
G54D82*
X06464Y08562D03*
X09564D03*
X06704Y09152D03*
G54D83*
X07366Y07689D03*
X09158D03*
G54D85*
X09729Y09132D03*
X09538D03*
G54D86*
X07664Y08188D03*
Y08137D03*
G54D87*
X07Y08971D03*
Y09062D03*
Y09152D03*
G54D88*
X07247Y09062D03*
G54D21*
X03943Y09884D03*
X0389D03*
X04803Y09854D03*
X0475D03*
G54D37*
X02666Y11174D03*
X03076Y11034D03*
X02896Y11074D03*
G54D56*
X05492Y11394D03*
X05301D03*
G54D74*
X05504Y11514D03*
X05289D03*
G54D75*
X02418Y09964D03*
X02496D03*
X02575D03*
X05566D03*
X05645D03*
X05724D03*
G54D76*
X02339Y09964D03*
X05488D03*
G54D77*
X03856Y09974D03*
X04056D03*
X03956D03*
X04776Y09764D03*
X04876D03*
X03232Y10334D03*
X02976D03*
G54D78*
X04156Y09974D03*
X04976Y09764D03*
G54D79*
X03556Y09774D03*
G54D80*
X03656Y09774D03*
X03756D03*
X03856D03*
X03956D03*
X04056D03*
X04156D03*
X04256D03*
X04356D03*
X04456D03*
G54D81*
X02726Y10824D03*
Y10624D03*
Y10724D03*
Y10524D03*
Y10424D03*
Y10324D03*
Y10224D03*
Y10124D03*
X02226D03*
Y10224D03*
Y10324D03*
Y10424D03*
Y10524D03*
Y10624D03*
Y10724D03*
X05826Y10824D03*
Y10624D03*
Y10724D03*
Y10524D03*
Y10424D03*
Y10324D03*
Y10224D03*
Y10124D03*
X05326D03*
Y10224D03*
Y10324D03*
Y10424D03*
Y10524D03*
Y10624D03*
Y10724D03*
X02466Y11314D03*
X02566Y11414D03*
Y11314D03*
G54D82*
X02226Y10824D03*
X05326D03*
X02466Y11414D03*
G54D83*
X03129Y0995D03*
X04921D03*
G54D85*
X05492Y11394D03*
X05301D03*
G54D86*
X03426Y10449D03*
Y10398D03*
G54D87*
X02763Y11233D03*
Y11324D03*
Y11414D03*
G54D88*
X0301Y11324D03*
G54D21*
X0818Y09884D03*
X08127D03*
X0904Y09854D03*
X08987D03*
G54D37*
X06904Y11174D03*
X07314Y11034D03*
X07134Y11074D03*
G54D56*
X09729Y11394D03*
X09538D03*
G54D74*
X09741Y11514D03*
X09526D03*
G54D75*
X06655Y09964D03*
X06734D03*
X06812D03*
X09804D03*
X09882D03*
X09961D03*
G54D76*
X06576Y09964D03*
X09725D03*
G54D77*
X08094Y09974D03*
X08294D03*
X08194D03*
X09014Y09764D03*
X09114D03*
X07469Y10334D03*
X07214D03*
G54D78*
X08394Y09974D03*
X09214Y09764D03*
G54D79*
X07794Y09774D03*
G54D80*
X07894Y09774D03*
X07994D03*
X08094D03*
X08194D03*
X08294D03*
X08394D03*
X08494D03*
X08594D03*
X08694D03*
G54D81*
X06964Y10824D03*
Y10624D03*
Y10724D03*
Y10524D03*
Y10424D03*
Y10324D03*
Y10224D03*
Y10124D03*
X06464D03*
Y10224D03*
Y10324D03*
Y10424D03*
Y10524D03*
Y10624D03*
Y10724D03*
X10064Y10824D03*
Y10624D03*
Y10724D03*
Y10524D03*
Y10424D03*
Y10324D03*
Y10224D03*
Y10124D03*
X09564D03*
Y10224D03*
Y10324D03*
Y10424D03*
Y10524D03*
Y10624D03*
Y10724D03*
X06704Y11314D03*
X06804Y11414D03*
Y11314D03*
G54D82*
X06464Y10824D03*
X09564D03*
X06704Y11414D03*
G54D83*
X07366Y0995D03*
X09158D03*
G54D85*
X09729Y11394D03*
X09538D03*
G54D86*
X07664Y10449D03*
Y10398D03*
G54D87*
X07Y11233D03*
Y11324D03*
Y11414D03*
G54D88*
X07247Y11324D03*
G54D21*
X03943Y12146D03*
X0389D03*
X04803Y12116D03*
X0475D03*
G54D37*
X02666Y13436D03*
X03076Y13296D03*
X02896Y13336D03*
G54D56*
X05492Y13656D03*
X05301D03*
G54D74*
X05504Y13776D03*
X05289D03*
G54D75*
X02418Y12226D03*
X02496D03*
X02575D03*
X05566D03*
X05645D03*
X05724D03*
G54D76*
X02339Y12226D03*
X05488D03*
G54D77*
X03856Y12236D03*
X04056D03*
X03956D03*
X04776Y12026D03*
X04876D03*
X03232Y12596D03*
X02976D03*
G54D78*
X04156Y12236D03*
X04976Y12026D03*
G54D79*
X03556Y12036D03*
G54D80*
X03656Y12036D03*
X03756D03*
X03856D03*
X03956D03*
X04056D03*
X04156D03*
X04256D03*
X04356D03*
X04456D03*
G54D81*
X02726Y13086D03*
Y12886D03*
Y12986D03*
Y12786D03*
Y12686D03*
Y12586D03*
Y12486D03*
Y12386D03*
X02226D03*
Y12486D03*
Y12586D03*
Y12686D03*
Y12786D03*
Y12886D03*
Y12986D03*
X05826Y13086D03*
Y12886D03*
Y12986D03*
Y12786D03*
Y12686D03*
Y12586D03*
Y12486D03*
Y12386D03*
X05326D03*
Y12486D03*
Y12586D03*
Y12686D03*
Y12786D03*
Y12886D03*
Y12986D03*
X02466Y13576D03*
X02566Y13676D03*
Y13576D03*
G54D82*
X02226Y13086D03*
X05326D03*
X02466Y13676D03*
G54D83*
X03129Y12212D03*
X04921D03*
G54D85*
X05492Y13656D03*
X05301D03*
G54D86*
X03426Y12711D03*
Y1266D03*
G54D87*
X02763Y13495D03*
Y13586D03*
Y13676D03*
G54D88*
X0301Y13586D03*
G54D21*
X0818Y12146D03*
X08127D03*
X0904Y12116D03*
X08987D03*
G54D37*
X06904Y13436D03*
X07314Y13296D03*
X07134Y13336D03*
G54D56*
X09729Y13656D03*
X09538D03*
G54D74*
X09741Y13776D03*
X09526D03*
G54D75*
X06655Y12226D03*
X06734D03*
X06812D03*
X09804D03*
X09882D03*
X09961D03*
G54D76*
X06576Y12226D03*
X09725D03*
G54D77*
X08094Y12236D03*
X08294D03*
X08194D03*
X09014Y12026D03*
X09114D03*
X07469Y12596D03*
X07214D03*
G54D78*
X08394Y12236D03*
X09214Y12026D03*
G54D79*
X07794Y12036D03*
G54D80*
X07894Y12036D03*
X07994D03*
X08094D03*
X08194D03*
X08294D03*
X08394D03*
X08494D03*
X08594D03*
X08694D03*
G54D81*
X06964Y13086D03*
Y12886D03*
Y12986D03*
Y12786D03*
Y12686D03*
Y12586D03*
Y12486D03*
Y12386D03*
X06464D03*
Y12486D03*
Y12586D03*
Y12686D03*
Y12786D03*
Y12886D03*
Y12986D03*
X10064Y13086D03*
Y12886D03*
Y12986D03*
Y12786D03*
Y12686D03*
Y12586D03*
Y12486D03*
Y12386D03*
X09564D03*
Y12486D03*
Y12586D03*
Y12686D03*
Y12786D03*
Y12886D03*
Y12986D03*
X06704Y13576D03*
X06804Y13676D03*
Y13576D03*
G54D82*
X06464Y13086D03*
X09564D03*
X06704Y13676D03*
G54D83*
X07366Y12212D03*
X09158D03*
G54D85*
X09729Y13656D03*
X09538D03*
G54D86*
X07664Y12711D03*
Y1266D03*
G54D87*
X07Y13495D03*
Y13586D03*
Y13676D03*
G54D88*
X07247Y13586D03*
M02*