%FSTAX23Y23*%
%MOIN*%
%SFA1B1*%

%IPPOS*%
%ADD11C,0.007870*%
%ADD12C,0.005000*%
%ADD34C,0.001000*%
%LNpowerboardv1-1*%
%LPD*%
G54D11*
X05611Y04398D02*
Y04965D01*
X05981*
G54D12*
X0Y0D02*
X12312D01*
Y18836*
X0*
Y0*
G54D11*
X05981Y04398D02*
Y04965D01*
X05611Y04398D02*
X05981D01*
G54D34*
X05993Y0425D02*
X05987Y04243D01*
X0598Y04235*
X05974Y04227*
X05968Y04219*
X05963Y04211*
X05958Y04202*
X05953Y04194*
X05948Y04185*
X05944Y04176*
X05941Y04167*
X05937Y04157*
X05934Y04148*
X05932Y04138*
X05929Y04129*
X05927Y04119*
X05926Y04109*
X05925Y041*
X05924Y0409*
X05923Y0408*
Y0407*
X05924Y0406*
X05925Y0405*
X05926Y0404*
X05927Y0403*
X05929Y04021*
X05932Y04011*
X05934Y04002*
X05937Y03992*
X05941Y03983*
X05944Y03974*
X05948Y03965*
X05953Y03956*
X05958Y03947*
X05963Y03939*
X05968Y0393*
X05974Y03922*
X0598Y03915*
X05987Y03907*
X05993Y039*
Y0494D02*
X05993Y0495D01*
X05991Y0496*
X05989Y04969*
X05986Y04978*
X05982Y04987*
X05977Y04995*
X05971Y05003*
X05964Y0501*
X05957Y05017*
X05949Y05023*
X05941Y05028*
X05932Y05032*
X05923Y05035*
X05914Y05037*
X05904Y05039*
X05895Y05039*
X05895Y0311D02*
X05905Y0311D01*
X05915Y03112*
X05925Y03115*
X05935Y03118*
X05944Y03123*
X05953Y03129*
X05961Y03135*
X05968Y03143*
X05974Y03151*
X0598Y03159*
X05985Y03168*
X05988Y03178*
X05991Y03188*
X05993Y03198*
X05993Y03208*
X02056D02*
X02057Y03198D01*
X02058Y03188*
X02061Y03178*
X02065Y03168*
X02069Y03159*
X02075Y03151*
X02082Y03143*
X02089Y03135*
X02097Y03129*
X02105Y03123*
X02115Y03118*
X02124Y03115*
X02134Y03112*
X02144Y0311*
X02155Y0311*
X02155Y05039D02*
X02145Y05039D01*
X02136Y05037*
X02126Y05035*
X02117Y05032*
X02108Y05028*
X021Y05023*
X02092Y05017*
X02085Y0501*
X02079Y05003*
X02073Y04995*
X02068Y04987*
X02064Y04978*
X0206Y04969*
X02058Y0496*
X02057Y0495*
X02056Y0494*
Y039D02*
X02063Y03907D01*
X02069Y03915*
X02075Y03922*
X02081Y0393*
X02087Y03939*
X02092Y03947*
X02097Y03956*
X02101Y03965*
X02105Y03974*
X02109Y03983*
X02112Y03992*
X02115Y04002*
X02118Y04011*
X0212Y04021*
X02122Y0403*
X02124Y0404*
X02125Y0405*
X02126Y0406*
X02126Y0407*
Y0408*
X02126Y0409*
X02125Y041*
X02124Y04109*
X02122Y04119*
X0212Y04129*
X02118Y04138*
X02115Y04148*
X02112Y04157*
X02109Y04167*
X02105Y04176*
X02101Y04185*
X02097Y04194*
X02092Y04202*
X02087Y04211*
X02081Y04219*
X02075Y04227*
X02069Y04235*
X02063Y04243*
X02056Y0425*
X02155Y05039D02*
X05895D01*
X05993Y03208D02*
Y039D01*
Y0425D02*
Y04941D01*
X02155Y0311D02*
X05895D01*
X02056Y0425D02*
Y04941D01*
Y03208D02*
Y039D01*
G54D11*
X09861Y04398D02*
Y04965D01*
X10231*
Y04398D02*
Y04965D01*
X09861Y04398D02*
X10231D01*
G54D34*
X10243Y0425D02*
X10237Y04243D01*
X1023Y04235*
X10224Y04227*
X10218Y04219*
X10213Y04211*
X10208Y04202*
X10203Y04194*
X10198Y04185*
X10194Y04176*
X10191Y04167*
X10187Y04157*
X10184Y04148*
X10182Y04138*
X10179Y04129*
X10177Y04119*
X10176Y04109*
X10175Y041*
X10174Y0409*
X10173Y0408*
Y0407*
X10174Y0406*
X10175Y0405*
X10176Y0404*
X10177Y0403*
X10179Y04021*
X10182Y04011*
X10184Y04002*
X10187Y03992*
X10191Y03983*
X10194Y03974*
X10198Y03965*
X10203Y03956*
X10208Y03947*
X10213Y03939*
X10218Y0393*
X10224Y03922*
X1023Y03915*
X10237Y03907*
X10243Y039*
Y0494D02*
X10243Y0495D01*
X10241Y0496*
X10239Y04969*
X10236Y04978*
X10232Y04987*
X10227Y04995*
X10221Y05003*
X10214Y0501*
X10207Y05017*
X10199Y05023*
X10191Y05028*
X10182Y05032*
X10173Y05035*
X10164Y05037*
X10154Y05039*
X10145Y05039*
X10145Y0311D02*
X10155Y0311D01*
X10165Y03112*
X10175Y03115*
X10185Y03118*
X10194Y03123*
X10203Y03129*
X10211Y03135*
X10218Y03143*
X10224Y03151*
X1023Y03159*
X10235Y03168*
X10238Y03178*
X10241Y03188*
X10243Y03198*
X10243Y03208*
X06306D02*
X06307Y03198D01*
X06308Y03188*
X06311Y03178*
X06315Y03168*
X06319Y03159*
X06325Y03151*
X06332Y03143*
X06339Y03135*
X06347Y03129*
X06356Y03123*
X06365Y03118*
X06374Y03115*
X06384Y03112*
X06394Y0311*
X06405Y0311*
X06405Y05039D02*
X06395Y05039D01*
X06386Y05037*
X06376Y05035*
X06367Y05032*
X06358Y05028*
X0635Y05023*
X06342Y05017*
X06335Y0501*
X06329Y05003*
X06323Y04995*
X06318Y04987*
X06314Y04978*
X0631Y04969*
X06308Y0496*
X06307Y0495*
X06306Y0494*
Y039D02*
X06313Y03907D01*
X06319Y03915*
X06325Y03922*
X06331Y0393*
X06337Y03939*
X06342Y03947*
X06347Y03956*
X06351Y03965*
X06355Y03974*
X06359Y03983*
X06362Y03992*
X06365Y04002*
X06368Y04011*
X0637Y04021*
X06372Y0403*
X06374Y0404*
X06375Y0405*
X06376Y0406*
X06376Y0407*
Y0408*
X06376Y0409*
X06375Y041*
X06374Y04109*
X06372Y04119*
X0637Y04129*
X06368Y04138*
X06365Y04148*
X06362Y04157*
X06359Y04167*
X06355Y04176*
X06351Y04185*
X06347Y04194*
X06342Y04202*
X06337Y04211*
X06331Y04219*
X06325Y04227*
X06319Y04235*
X06313Y04243*
X06306Y0425*
X06405Y05039D02*
X10145D01*
X10243Y03208D02*
Y039D01*
Y0425D02*
Y04941D01*
X06405Y0311D02*
X10145D01*
X06306Y0425D02*
Y04941D01*
Y03208D02*
Y039D01*
G54D11*
X05611Y0707D02*
Y07637D01*
X05981*
Y0707D02*
Y07637D01*
X05611Y0707D02*
X05981D01*
G54D34*
X05993Y06922D02*
X05987Y06915D01*
X0598Y06907*
X05974Y06899*
X05968Y06891*
X05963Y06883*
X05958Y06874*
X05953Y06866*
X05948Y06857*
X05944Y06848*
X05941Y06839*
X05937Y06829*
X05934Y0682*
X05932Y0681*
X05929Y06801*
X05927Y06791*
X05926Y06781*
X05925Y06772*
X05924Y06762*
X05923Y06752*
Y06742*
X05924Y06732*
X05925Y06722*
X05926Y06712*
X05927Y06702*
X05929Y06693*
X05932Y06683*
X05934Y06674*
X05937Y06664*
X05941Y06655*
X05944Y06646*
X05948Y06637*
X05953Y06628*
X05958Y06619*
X05963Y06611*
X05968Y06602*
X05974Y06594*
X0598Y06587*
X05987Y06579*
X05993Y06572*
Y07612D02*
X05993Y07622D01*
X05991Y07632*
X05989Y07641*
X05986Y0765*
X05982Y07659*
X05977Y07667*
X05971Y07675*
X05964Y07682*
X05957Y07689*
X05949Y07695*
X05941Y077*
X05932Y07704*
X05923Y07707*
X05914Y07709*
X05904Y07711*
X05895Y07711*
X05895Y05782D02*
X05905Y05782D01*
X05915Y05784*
X05925Y05787*
X05935Y0579*
X05944Y05795*
X05953Y05801*
X05961Y05807*
X05968Y05815*
X05974Y05823*
X0598Y05831*
X05985Y0584*
X05988Y0585*
X05991Y0586*
X05993Y0587*
X05993Y0588*
X02056D02*
X02057Y0587D01*
X02058Y0586*
X02061Y0585*
X02065Y0584*
X02069Y05831*
X02075Y05823*
X02082Y05815*
X02089Y05807*
X02097Y05801*
X02105Y05795*
X02115Y0579*
X02124Y05787*
X02134Y05784*
X02144Y05782*
X02155Y05782*
X02155Y07711D02*
X02145Y07711D01*
X02136Y07709*
X02126Y07707*
X02117Y07704*
X02108Y077*
X021Y07695*
X02092Y07689*
X02085Y07682*
X02079Y07675*
X02073Y07667*
X02068Y07659*
X02064Y0765*
X0206Y07641*
X02058Y07632*
X02057Y07622*
X02056Y07612*
Y06572D02*
X02063Y06579D01*
X02069Y06587*
X02075Y06594*
X02081Y06602*
X02087Y06611*
X02092Y06619*
X02097Y06628*
X02101Y06637*
X02105Y06646*
X02109Y06655*
X02112Y06664*
X02115Y06674*
X02118Y06683*
X0212Y06693*
X02122Y06702*
X02124Y06712*
X02125Y06722*
X02126Y06732*
X02126Y06742*
Y06752*
X02126Y06762*
X02125Y06772*
X02124Y06781*
X02122Y06791*
X0212Y06801*
X02118Y0681*
X02115Y0682*
X02112Y06829*
X02109Y06839*
X02105Y06848*
X02101Y06857*
X02097Y06866*
X02092Y06874*
X02087Y06883*
X02081Y06891*
X02075Y06899*
X02069Y06907*
X02063Y06915*
X02056Y06922*
X02155Y07711D02*
X05895D01*
X05993Y0588D02*
Y06572D01*
Y06922D02*
Y07613D01*
X02155Y05782D02*
X05895D01*
X02056Y06922D02*
Y07613D01*
Y0588D02*
Y06572D01*
G54D11*
X09861Y0707D02*
Y07637D01*
X10231*
Y0707D02*
Y07637D01*
X09861Y0707D02*
X10231D01*
G54D34*
X10243Y06922D02*
X10237Y06915D01*
X1023Y06907*
X10224Y06899*
X10218Y06891*
X10213Y06883*
X10208Y06874*
X10203Y06866*
X10198Y06857*
X10194Y06848*
X10191Y06839*
X10187Y06829*
X10184Y0682*
X10182Y0681*
X10179Y06801*
X10177Y06791*
X10176Y06781*
X10175Y06772*
X10174Y06762*
X10173Y06752*
Y06742*
X10174Y06732*
X10175Y06722*
X10176Y06712*
X10177Y06702*
X10179Y06693*
X10182Y06683*
X10184Y06674*
X10187Y06664*
X10191Y06655*
X10194Y06646*
X10198Y06637*
X10203Y06628*
X10208Y06619*
X10213Y06611*
X10218Y06602*
X10224Y06594*
X1023Y06587*
X10237Y06579*
X10243Y06572*
Y07612D02*
X10243Y07622D01*
X10241Y07632*
X10239Y07641*
X10236Y0765*
X10232Y07659*
X10227Y07667*
X10221Y07675*
X10214Y07682*
X10207Y07689*
X10199Y07695*
X10191Y077*
X10182Y07704*
X10173Y07707*
X10164Y07709*
X10154Y07711*
X10145Y07711*
X10145Y05782D02*
X10155Y05782D01*
X10165Y05784*
X10175Y05787*
X10185Y0579*
X10194Y05795*
X10203Y05801*
X10211Y05807*
X10218Y05815*
X10224Y05823*
X1023Y05831*
X10235Y0584*
X10238Y0585*
X10241Y0586*
X10243Y0587*
X10243Y0588*
X06306D02*
X06307Y0587D01*
X06308Y0586*
X06311Y0585*
X06315Y0584*
X06319Y05831*
X06325Y05823*
X06332Y05815*
X06339Y05807*
X06347Y05801*
X06356Y05795*
X06365Y0579*
X06374Y05787*
X06384Y05784*
X06394Y05782*
X06405Y05782*
X06405Y07711D02*
X06395Y07711D01*
X06386Y07709*
X06376Y07707*
X06367Y07704*
X06358Y077*
X0635Y07695*
X06342Y07689*
X06335Y07682*
X06329Y07675*
X06323Y07667*
X06318Y07659*
X06314Y0765*
X0631Y07641*
X06308Y07632*
X06307Y07622*
X06306Y07612*
Y06572D02*
X06313Y06579D01*
X06319Y06587*
X06325Y06594*
X06331Y06602*
X06337Y06611*
X06342Y06619*
X06347Y06628*
X06351Y06637*
X06355Y06646*
X06359Y06655*
X06362Y06664*
X06365Y06674*
X06368Y06683*
X0637Y06693*
X06372Y06702*
X06374Y06712*
X06375Y06722*
X06376Y06732*
X06376Y06742*
Y06752*
X06376Y06762*
X06375Y06772*
X06374Y06781*
X06372Y06791*
X0637Y06801*
X06368Y0681*
X06365Y0682*
X06362Y06829*
X06359Y06839*
X06355Y06848*
X06351Y06857*
X06347Y06866*
X06342Y06874*
X06337Y06883*
X06331Y06891*
X06325Y06899*
X06319Y06907*
X06313Y06915*
X06306Y06922*
X06405Y07711D02*
X10145D01*
X10243Y0588D02*
Y06572D01*
Y06922D02*
Y07613D01*
X06405Y05782D02*
X10145D01*
X06306Y06922D02*
Y07613D01*
Y0588D02*
Y06572D01*
G54D11*
X05611Y09741D02*
Y10308D01*
X05981*
Y09741D02*
Y10308D01*
X05611Y09741D02*
X05981D01*
G54D34*
X05993Y09593D02*
X05987Y09586D01*
X0598Y09578*
X05974Y0957*
X05968Y09562*
X05963Y09554*
X05958Y09545*
X05953Y09537*
X05948Y09528*
X05944Y09519*
X05941Y0951*
X05937Y095*
X05934Y09491*
X05932Y09481*
X05929Y09472*
X05927Y09462*
X05926Y09452*
X05925Y09443*
X05924Y09433*
X05923Y09423*
Y09414*
X05924Y09404*
X05925Y09394*
X05926Y09384*
X05927Y09374*
X05929Y09365*
X05932Y09355*
X05934Y09346*
X05937Y09336*
X05941Y09327*
X05944Y09318*
X05948Y09309*
X05953Y093*
X05958Y09291*
X05963Y09283*
X05968Y09274*
X05974Y09266*
X0598Y09259*
X05987Y09251*
X05993Y09244*
Y10283D02*
X05993Y10293D01*
X05991Y10303*
X05989Y10312*
X05986Y10321*
X05982Y1033*
X05977Y10338*
X05971Y10346*
X05964Y10353*
X05957Y1036*
X05949Y10366*
X05941Y10371*
X05932Y10375*
X05923Y10378*
X05914Y1038*
X05904Y10382*
X05895Y10382*
X05895Y08454D02*
X05905Y08454D01*
X05915Y08456*
X05925Y08459*
X05935Y08462*
X05944Y08467*
X05953Y08473*
X05961Y08479*
X05968Y08487*
X05974Y08495*
X0598Y08503*
X05985Y08512*
X05988Y08522*
X05991Y08532*
X05993Y08542*
X05993Y08552*
X02056D02*
X02057Y08542D01*
X02058Y08532*
X02061Y08522*
X02065Y08512*
X02069Y08503*
X02075Y08495*
X02082Y08487*
X02089Y08479*
X02097Y08473*
X02105Y08467*
X02115Y08462*
X02124Y08459*
X02134Y08456*
X02144Y08454*
X02155Y08454*
X02155Y10382D02*
X02145Y10382D01*
X02136Y1038*
X02126Y10378*
X02117Y10375*
X02108Y10371*
X021Y10366*
X02092Y1036*
X02085Y10353*
X02079Y10346*
X02073Y10338*
X02068Y1033*
X02064Y10321*
X0206Y10312*
X02058Y10303*
X02057Y10293*
X02056Y10283*
Y09244D02*
X02063Y09251D01*
X02069Y09259*
X02075Y09266*
X02081Y09274*
X02087Y09283*
X02092Y09291*
X02097Y093*
X02101Y09309*
X02105Y09318*
X02109Y09327*
X02112Y09336*
X02115Y09346*
X02118Y09355*
X0212Y09365*
X02122Y09374*
X02124Y09384*
X02125Y09394*
X02126Y09404*
X02126Y09414*
Y09423*
X02126Y09433*
X02125Y09443*
X02124Y09452*
X02122Y09462*
X0212Y09472*
X02118Y09481*
X02115Y09491*
X02112Y095*
X02109Y0951*
X02105Y09519*
X02101Y09528*
X02097Y09537*
X02092Y09545*
X02087Y09554*
X02081Y09562*
X02075Y0957*
X02069Y09578*
X02063Y09586*
X02056Y09593*
X02155Y10382D02*
X05895D01*
X05993Y08552D02*
Y09244D01*
Y09593D02*
Y10284D01*
X02155Y08454D02*
X05895D01*
X02056Y09593D02*
Y10284D01*
Y08552D02*
Y09244D01*
G54D11*
X09861Y09741D02*
Y10308D01*
X10231*
Y09741D02*
Y10308D01*
X09861Y09741D02*
X10231D01*
G54D34*
X10243Y09593D02*
X10237Y09586D01*
X1023Y09578*
X10224Y0957*
X10218Y09562*
X10213Y09554*
X10208Y09545*
X10203Y09537*
X10198Y09528*
X10194Y09519*
X10191Y0951*
X10187Y095*
X10184Y09491*
X10182Y09481*
X10179Y09472*
X10177Y09462*
X10176Y09452*
X10175Y09443*
X10174Y09433*
X10173Y09423*
Y09414*
X10174Y09404*
X10175Y09394*
X10176Y09384*
X10177Y09374*
X10179Y09365*
X10182Y09355*
X10184Y09346*
X10187Y09336*
X10191Y09327*
X10194Y09318*
X10198Y09309*
X10203Y093*
X10208Y09291*
X10213Y09283*
X10218Y09274*
X10224Y09266*
X1023Y09259*
X10237Y09251*
X10243Y09244*
Y10283D02*
X10243Y10293D01*
X10241Y10303*
X10239Y10312*
X10236Y10321*
X10232Y1033*
X10227Y10338*
X10221Y10346*
X10214Y10353*
X10207Y1036*
X10199Y10366*
X10191Y10371*
X10182Y10375*
X10173Y10378*
X10164Y1038*
X10154Y10382*
X10145Y10382*
X10145Y08454D02*
X10155Y08454D01*
X10165Y08456*
X10175Y08459*
X10185Y08462*
X10194Y08467*
X10203Y08473*
X10211Y08479*
X10218Y08487*
X10224Y08495*
X1023Y08503*
X10235Y08512*
X10238Y08522*
X10241Y08532*
X10243Y08542*
X10243Y08552*
X06306D02*
X06307Y08542D01*
X06308Y08532*
X06311Y08522*
X06315Y08512*
X06319Y08503*
X06325Y08495*
X06332Y08487*
X06339Y08479*
X06347Y08473*
X06356Y08467*
X06365Y08462*
X06374Y08459*
X06384Y08456*
X06394Y08454*
X06405Y08454*
X06405Y10382D02*
X06395Y10382D01*
X06386Y1038*
X06376Y10378*
X06367Y10375*
X06358Y10371*
X0635Y10366*
X06342Y1036*
X06335Y10353*
X06329Y10346*
X06323Y10338*
X06318Y1033*
X06314Y10321*
X0631Y10312*
X06308Y10303*
X06307Y10293*
X06306Y10283*
Y09244D02*
X06313Y09251D01*
X06319Y09259*
X06325Y09266*
X06331Y09274*
X06337Y09283*
X06342Y09291*
X06347Y093*
X06351Y09309*
X06355Y09318*
X06359Y09327*
X06362Y09336*
X06365Y09346*
X06368Y09355*
X0637Y09365*
X06372Y09374*
X06374Y09384*
X06375Y09394*
X06376Y09404*
X06376Y09414*
Y09423*
X06376Y09433*
X06375Y09443*
X06374Y09452*
X06372Y09462*
X0637Y09472*
X06368Y09481*
X06365Y09491*
X06362Y095*
X06359Y0951*
X06355Y09519*
X06351Y09528*
X06347Y09537*
X06342Y09545*
X06337Y09554*
X06331Y09562*
X06325Y0957*
X06319Y09578*
X06313Y09586*
X06306Y09593*
X06405Y10382D02*
X10145D01*
X10243Y08552D02*
Y09244D01*
Y09593D02*
Y10284D01*
X06405Y08454D02*
X10145D01*
X06306Y09593D02*
Y10284D01*
Y08552D02*
Y09244D01*
G54D11*
X05611Y12413D02*
Y1298D01*
X05981*
Y12413D02*
Y1298D01*
X05611Y12413D02*
X05981D01*
G54D34*
X05993Y12265D02*
X05987Y12258D01*
X0598Y1225*
X05974Y12242*
X05968Y12234*
X05963Y12226*
X05958Y12217*
X05953Y12209*
X05948Y122*
X05944Y12191*
X05941Y12182*
X05937Y12172*
X05934Y12163*
X05932Y12153*
X05929Y12144*
X05927Y12134*
X05926Y12124*
X05925Y12115*
X05924Y12105*
X05923Y12095*
Y12085*
X05924Y12075*
X05925Y12065*
X05926Y12055*
X05927Y12045*
X05929Y12036*
X05932Y12026*
X05934Y12017*
X05937Y12007*
X05941Y11998*
X05944Y11989*
X05948Y1198*
X05953Y11971*
X05958Y11962*
X05963Y11954*
X05968Y11945*
X05974Y11937*
X0598Y1193*
X05987Y11922*
X05993Y11915*
Y12955D02*
X05993Y12965D01*
X05991Y12975*
X05989Y12984*
X05986Y12993*
X05982Y13002*
X05977Y1301*
X05971Y13018*
X05964Y13025*
X05957Y13032*
X05949Y13038*
X05941Y13043*
X05932Y13047*
X05923Y1305*
X05914Y13052*
X05904Y13054*
X05895Y13054*
X05895Y11125D02*
X05905Y11125D01*
X05915Y11127*
X05925Y1113*
X05935Y11133*
X05944Y11138*
X05953Y11144*
X05961Y1115*
X05968Y11158*
X05974Y11166*
X0598Y11174*
X05985Y11183*
X05988Y11193*
X05991Y11203*
X05993Y11213*
X05993Y11223*
X02056D02*
X02057Y11213D01*
X02058Y11203*
X02061Y11193*
X02065Y11183*
X02069Y11174*
X02075Y11166*
X02082Y11158*
X02089Y1115*
X02097Y11144*
X02105Y11138*
X02115Y11133*
X02124Y1113*
X02134Y11127*
X02144Y11125*
X02155Y11125*
X02155Y13054D02*
X02145Y13054D01*
X02136Y13052*
X02126Y1305*
X02117Y13047*
X02108Y13043*
X021Y13038*
X02092Y13032*
X02085Y13025*
X02079Y13018*
X02073Y1301*
X02068Y13002*
X02064Y12993*
X0206Y12984*
X02058Y12975*
X02057Y12965*
X02056Y12955*
Y11915D02*
X02063Y11922D01*
X02069Y1193*
X02075Y11937*
X02081Y11945*
X02087Y11954*
X02092Y11962*
X02097Y11971*
X02101Y1198*
X02105Y11989*
X02109Y11998*
X02112Y12007*
X02115Y12017*
X02118Y12026*
X0212Y12036*
X02122Y12045*
X02124Y12055*
X02125Y12065*
X02126Y12075*
X02126Y12085*
Y12095*
X02126Y12105*
X02125Y12115*
X02124Y12124*
X02122Y12134*
X0212Y12144*
X02118Y12153*
X02115Y12163*
X02112Y12172*
X02109Y12182*
X02105Y12191*
X02101Y122*
X02097Y12209*
X02092Y12217*
X02087Y12226*
X02081Y12234*
X02075Y12242*
X02069Y1225*
X02063Y12258*
X02056Y12265*
X02155Y13054D02*
X05895D01*
X05993Y11223D02*
Y11915D01*
Y12265D02*
Y12956D01*
X02155Y11125D02*
X05895D01*
X02056Y12265D02*
Y12956D01*
Y11223D02*
Y11915D01*
G54D11*
X09861Y12413D02*
Y1298D01*
X10231*
Y12413D02*
Y1298D01*
X09861Y12413D02*
X10231D01*
G54D34*
X10243Y12265D02*
X10237Y12258D01*
X1023Y1225*
X10224Y12242*
X10218Y12234*
X10213Y12226*
X10208Y12217*
X10203Y12209*
X10198Y122*
X10194Y12191*
X10191Y12182*
X10187Y12172*
X10184Y12163*
X10182Y12153*
X10179Y12144*
X10177Y12134*
X10176Y12124*
X10175Y12115*
X10174Y12105*
X10173Y12095*
Y12085*
X10174Y12075*
X10175Y12065*
X10176Y12055*
X10177Y12045*
X10179Y12036*
X10182Y12026*
X10184Y12017*
X10187Y12007*
X10191Y11998*
X10194Y11989*
X10198Y1198*
X10203Y11971*
X10208Y11962*
X10213Y11954*
X10218Y11945*
X10224Y11937*
X1023Y1193*
X10237Y11922*
X10243Y11915*
Y12955D02*
X10243Y12965D01*
X10241Y12975*
X10239Y12984*
X10236Y12993*
X10232Y13002*
X10227Y1301*
X10221Y13018*
X10214Y13025*
X10207Y13032*
X10199Y13038*
X10191Y13043*
X10182Y13047*
X10173Y1305*
X10164Y13052*
X10154Y13054*
X10145Y13054*
X10145Y11125D02*
X10155Y11125D01*
X10165Y11127*
X10175Y1113*
X10185Y11133*
X10194Y11138*
X10203Y11144*
X10211Y1115*
X10218Y11158*
X10224Y11166*
X1023Y11174*
X10235Y11183*
X10238Y11193*
X10241Y11203*
X10243Y11213*
X10243Y11223*
X06306D02*
X06307Y11213D01*
X06308Y11203*
X06311Y11193*
X06315Y11183*
X06319Y11174*
X06325Y11166*
X06332Y11158*
X06339Y1115*
X06347Y11144*
X06356Y11138*
X06365Y11133*
X06374Y1113*
X06384Y11127*
X06394Y11125*
X06405Y11125*
X06405Y13054D02*
X06395Y13054D01*
X06386Y13052*
X06376Y1305*
X06367Y13047*
X06358Y13043*
X0635Y13038*
X06342Y13032*
X06335Y13025*
X06329Y13018*
X06323Y1301*
X06318Y13002*
X06314Y12993*
X0631Y12984*
X06308Y12975*
X06307Y12965*
X06306Y12955*
Y11915D02*
X06313Y11922D01*
X06319Y1193*
X06325Y11937*
X06331Y11945*
X06337Y11954*
X06342Y11962*
X06347Y11971*
X06351Y1198*
X06355Y11989*
X06359Y11998*
X06362Y12007*
X06365Y12017*
X06368Y12026*
X0637Y12036*
X06372Y12045*
X06374Y12055*
X06375Y12065*
X06376Y12075*
X06376Y12085*
Y12095*
X06376Y12105*
X06375Y12115*
X06374Y12124*
X06372Y12134*
X0637Y12144*
X06368Y12153*
X06365Y12163*
X06362Y12172*
X06359Y12182*
X06355Y12191*
X06351Y122*
X06347Y12209*
X06342Y12217*
X06337Y12226*
X06331Y12234*
X06325Y12242*
X06319Y1225*
X06313Y12258*
X06306Y12265*
X06405Y13054D02*
X10145D01*
X10243Y11223D02*
Y11915D01*
Y12265D02*
Y12956D01*
X06405Y11125D02*
X10145D01*
X06306Y12265D02*
Y12956D01*
Y11223D02*
Y11915D01*
G54D11*
X05611Y15085D02*
Y15652D01*
X05981*
Y15085D02*
Y15652D01*
X05611Y15085D02*
X05981D01*
G54D34*
X05993Y14937D02*
X05987Y1493D01*
X0598Y14922*
X05974Y14914*
X05968Y14906*
X05963Y14898*
X05958Y14889*
X05953Y14881*
X05948Y14872*
X05944Y14863*
X05941Y14854*
X05937Y14844*
X05934Y14835*
X05932Y14825*
X05929Y14816*
X05927Y14806*
X05926Y14796*
X05925Y14787*
X05924Y14777*
X05923Y14767*
Y14757*
X05924Y14747*
X05925Y14737*
X05926Y14727*
X05927Y14717*
X05929Y14708*
X05932Y14698*
X05934Y14689*
X05937Y14679*
X05941Y1467*
X05944Y14661*
X05948Y14652*
X05953Y14643*
X05958Y14634*
X05963Y14626*
X05968Y14617*
X05974Y14609*
X0598Y14602*
X05987Y14594*
X05993Y14587*
Y15627D02*
X05993Y15637D01*
X05991Y15647*
X05989Y15656*
X05986Y15665*
X05982Y15674*
X05977Y15682*
X05971Y1569*
X05964Y15697*
X05957Y15704*
X05949Y1571*
X05941Y15715*
X05932Y15719*
X05923Y15722*
X05914Y15724*
X05904Y15726*
X05895Y15726*
X05895Y13797D02*
X05905Y13797D01*
X05915Y13799*
X05925Y13802*
X05935Y13805*
X05944Y1381*
X05953Y13816*
X05961Y13822*
X05968Y1383*
X05974Y13838*
X0598Y13846*
X05985Y13855*
X05988Y13865*
X05991Y13875*
X05993Y13885*
X05993Y13895*
X02056D02*
X02057Y13885D01*
X02058Y13875*
X02061Y13865*
X02065Y13855*
X02069Y13846*
X02075Y13838*
X02082Y1383*
X02089Y13822*
X02097Y13816*
X02105Y1381*
X02115Y13805*
X02124Y13802*
X02134Y13799*
X02144Y13797*
X02155Y13797*
X02155Y15726D02*
X02145Y15726D01*
X02136Y15724*
X02126Y15722*
X02117Y15719*
X02108Y15715*
X021Y1571*
X02092Y15704*
X02085Y15697*
X02079Y1569*
X02073Y15682*
X02068Y15674*
X02064Y15665*
X0206Y15656*
X02058Y15647*
X02057Y15637*
X02056Y15627*
Y14587D02*
X02063Y14594D01*
X02069Y14602*
X02075Y14609*
X02081Y14617*
X02087Y14626*
X02092Y14634*
X02097Y14643*
X02101Y14652*
X02105Y14661*
X02109Y1467*
X02112Y14679*
X02115Y14689*
X02118Y14698*
X0212Y14708*
X02122Y14717*
X02124Y14727*
X02125Y14737*
X02126Y14747*
X02126Y14757*
Y14767*
X02126Y14777*
X02125Y14787*
X02124Y14796*
X02122Y14806*
X0212Y14816*
X02118Y14825*
X02115Y14835*
X02112Y14844*
X02109Y14854*
X02105Y14863*
X02101Y14872*
X02097Y14881*
X02092Y14889*
X02087Y14898*
X02081Y14906*
X02075Y14914*
X02069Y14922*
X02063Y1493*
X02056Y14937*
X02155Y15726D02*
X05895D01*
X05993Y13895D02*
Y14587D01*
Y14937D02*
Y15628D01*
X02155Y13797D02*
X05895D01*
X02056Y14937D02*
Y15628D01*
Y13895D02*
Y14587D01*
G54D11*
X09861Y15085D02*
Y15652D01*
X10231*
Y15085D02*
Y15652D01*
X09861Y15085D02*
X10231D01*
G54D34*
X10243Y14937D02*
X10237Y1493D01*
X1023Y14922*
X10224Y14914*
X10218Y14906*
X10213Y14898*
X10208Y14889*
X10203Y14881*
X10198Y14872*
X10194Y14863*
X10191Y14854*
X10187Y14844*
X10184Y14835*
X10182Y14825*
X10179Y14816*
X10177Y14806*
X10176Y14796*
X10175Y14787*
X10174Y14777*
X10173Y14767*
Y14757*
X10174Y14747*
X10175Y14737*
X10176Y14727*
X10177Y14717*
X10179Y14708*
X10182Y14698*
X10184Y14689*
X10187Y14679*
X10191Y1467*
X10194Y14661*
X10198Y14652*
X10203Y14643*
X10208Y14634*
X10213Y14626*
X10218Y14617*
X10224Y14609*
X1023Y14602*
X10237Y14594*
X10243Y14587*
Y15627D02*
X10243Y15637D01*
X10241Y15647*
X10239Y15656*
X10236Y15665*
X10232Y15674*
X10227Y15682*
X10221Y1569*
X10214Y15697*
X10207Y15704*
X10199Y1571*
X10191Y15715*
X10182Y15719*
X10173Y15722*
X10164Y15724*
X10154Y15726*
X10145Y15726*
X10145Y13797D02*
X10155Y13797D01*
X10165Y13799*
X10175Y13802*
X10185Y13805*
X10194Y1381*
X10203Y13816*
X10211Y13822*
X10218Y1383*
X10224Y13838*
X1023Y13846*
X10235Y13855*
X10238Y13865*
X10241Y13875*
X10243Y13885*
X10243Y13895*
X06306D02*
X06307Y13885D01*
X06308Y13875*
X06311Y13865*
X06315Y13855*
X06319Y13846*
X06325Y13838*
X06332Y1383*
X06339Y13822*
X06347Y13816*
X06356Y1381*
X06365Y13805*
X06374Y13802*
X06384Y13799*
X06394Y13797*
X06405Y13797*
X06405Y15726D02*
X06395Y15726D01*
X06386Y15724*
X06376Y15722*
X06367Y15719*
X06358Y15715*
X0635Y1571*
X06342Y15704*
X06335Y15697*
X06329Y1569*
X06323Y15682*
X06318Y15674*
X06314Y15665*
X0631Y15656*
X06308Y15647*
X06307Y15637*
X06306Y15627*
Y14587D02*
X06313Y14594D01*
X06319Y14602*
X06325Y14609*
X06331Y14617*
X06337Y14626*
X06342Y14634*
X06347Y14643*
X06351Y14652*
X06355Y14661*
X06359Y1467*
X06362Y14679*
X06365Y14689*
X06368Y14698*
X0637Y14708*
X06372Y14717*
X06374Y14727*
X06375Y14737*
X06376Y14747*
X06376Y14757*
Y14767*
X06376Y14777*
X06375Y14787*
X06374Y14796*
X06372Y14806*
X0637Y14816*
X06368Y14825*
X06365Y14835*
X06362Y14844*
X06359Y14854*
X06355Y14863*
X06351Y14872*
X06347Y14881*
X06342Y14889*
X06337Y14898*
X06331Y14906*
X06325Y14914*
X06319Y14922*
X06313Y1493*
X06306Y14937*
X06405Y15726D02*
X10145D01*
X10243Y13895D02*
Y14587D01*
Y14937D02*
Y15628D01*
X06405Y13797D02*
X10145D01*
X06306Y14937D02*
Y15628D01*
Y13895D02*
Y14587D01*
M02*