G04*
G04 #@! TF.GenerationSoftware,Altium Limited,Altium Designer,22.0.2 (36)*
G04*
G04 Layer_Physical_Order=2*
G04 Layer_Color=16711680*
%FSLAX25Y25*%
%MOIN*%
G70*
G04*
G04 #@! TF.SameCoordinates,B0134727-A30E-443A-9B04-D8BCE479AFC3*
G04*
G04*
G04 #@! TF.FilePolarity,Positive*
G04*
G01*
G75*
%ADD20C,0.07000*%
%ADD21R,0.07000X0.07000*%
%ADD22C,0.09000*%
%ADD23C,0.09449*%
%ADD24C,0.13543*%
%ADD25C,0.13543*%
%ADD26O,0.19685X0.11811*%
%ADD27R,0.19685X0.11811*%
%ADD28C,0.09000*%
D20*
X20000Y165000D02*
D03*
Y175000D02*
D03*
X10000Y165000D02*
D03*
D21*
Y175000D02*
D03*
D22*
X375000Y155000D02*
D03*
Y131378D02*
D03*
X356496Y143189D02*
D03*
D23*
X52809Y96300D02*
D03*
X339816D02*
D03*
Y20316D02*
D03*
X52809D02*
D03*
X339816Y172284D02*
D03*
X52809D02*
D03*
D24*
X196923Y27450D02*
D03*
D25*
X286490Y165246D02*
D03*
X107356D02*
D03*
D26*
X102280Y106744D02*
D03*
X102280Y88500D02*
D03*
D27*
X232202Y122500D02*
D03*
X157398D02*
D03*
X125902Y66500D02*
D03*
X263698D02*
D03*
D28*
X387000Y119000D02*
Y143189D01*
X384780Y145410D02*
X387000Y143189D01*
X384591Y145410D02*
X384780D01*
X377000Y109000D02*
X387000Y119000D01*
X375000Y155000D02*
X384591Y145410D01*
X356496Y143189D02*
X387000D01*
X375000Y131378D02*
X375000D01*
X358037Y114416D02*
X375000Y131378D01*
X358037Y93037D02*
Y114416D01*
X377000Y87000D02*
Y109000D01*
X348000Y58000D02*
X377000Y87000D01*
X350299Y85299D02*
X358037Y93037D01*
X333701Y85299D02*
X350299D01*
X312256Y106744D02*
X333701Y85299D01*
X339817Y96300D02*
Y172284D01*
X334000Y58000D02*
X348000D01*
X303500Y88500D02*
X334000Y58000D01*
X102280Y106744D02*
X312256D01*
X101742Y107282D02*
X102280Y106744D01*
X78100Y88500D02*
X303500D01*
X293632Y66500D02*
X339817Y20316D01*
X263698Y66500D02*
X293632D01*
X52809Y20316D02*
Y96300D01*
X20000Y146600D02*
X78100Y88500D01*
X20000Y146600D02*
Y165000D01*
X25400Y175000D02*
X93118Y107282D01*
X101742D01*
X20000Y175000D02*
X25400D01*
X102593Y122500D02*
X157398D01*
X52809Y172284D02*
X102593Y122500D01*
X319132Y151600D02*
X339817Y172284D01*
X280100Y151600D02*
X319132D01*
X251000Y122500D02*
X280100Y151600D01*
X232202Y122500D02*
X251000D01*
X82609Y66500D02*
X125902D01*
X52809Y96300D02*
X82609Y66500D01*
M02*
