%FSTAX23Y23*%
%MOIN*%
%SFA1B1*%

%IPPOS*%
%ADD12C,0.005000*%
%ADD9503C,0.039400*%
%LNpowerboardv1-slotholes-1*%
%LPD*%
G54D9503*
X05619Y04531D02*
Y04556D01*
G54D12*
X0Y0D02*
X12312D01*
Y18836*
X0*
Y0*
G54D9503*
X05792Y04425D02*
X05817D01*
X05792Y04661D02*
X05817D01*
X0987Y04531D02*
Y04556D01*
X10042Y04425D02*
X10067D01*
X10042Y04661D02*
X10067D01*
X05619Y07203D02*
Y07228D01*
X05792Y07097D02*
X05817D01*
X05792Y07333D02*
X05817D01*
X0987Y07203D02*
Y07228D01*
X10042Y07097D02*
X10067D01*
X10042Y07333D02*
X10067D01*
X05619Y09874D02*
Y09899D01*
X05792Y09768D02*
X05817D01*
X05792Y10004D02*
X05817D01*
X0987Y09874D02*
Y09899D01*
X10042Y09768D02*
X10067D01*
X10042Y10004D02*
X10067D01*
X05619Y12546D02*
Y12571D01*
X05792Y1244D02*
X05817D01*
X05792Y12676D02*
X05817D01*
X0987Y12546D02*
Y12571D01*
X10042Y1244D02*
X10067D01*
X10042Y12676D02*
X10067D01*
X05619Y15218D02*
Y15243D01*
X05792Y15112D02*
X05817D01*
X05792Y15348D02*
X05817D01*
X0987Y15218D02*
Y15243D01*
X10042Y15112D02*
X10067D01*
X10042Y15348D02*
X10067D01*
M02*