%FSTAX23Y23*%
%MOIN*%
%SFA1B1*%

%IPPOS*%
%ADD12C,0.005000*%
%ADD14C,0.098000*%
%ADD15R,0.078000X0.078000*%
%ADD16C,0.078000*%
%ADD17C,0.102490*%
%ADD18C,0.143430*%
%ADD19C,0.143430*%
%ADD29R,0.204850X0.126110*%
%ADD30O,0.204850X0.126110*%
%LNpowerboardv1-1*%
%LPD*%
G54D14*
X05619Y04543D03*
G54D12*
X0Y0D02*
X12312D01*
Y18836*
X0*
Y0*
G54D14*
X05804Y04425D03*
Y04661D03*
G54D15*
X02154Y04861D03*
G54D16*
X02154Y04761D03*
X02254Y04861D03*
Y04761D03*
G54D17*
X02583Y04834D03*
X05453D03*
X02583Y03315D03*
X05453D03*
Y04074D03*
X02583D03*
G54D18*
X03128Y04764D03*
X04919D03*
G54D19*
X04024Y03386D03*
G54D29*
X04691Y03776D03*
X03314D03*
X03628Y04336D03*
X04377D03*
G54D30*
X03077Y03996D03*
Y04179D03*
G54D14*
X09869Y04543D03*
X10055Y04425D03*
Y04661D03*
G54D15*
X06405Y04861D03*
G54D16*
X06405Y04761D03*
X06505Y04861D03*
Y04761D03*
G54D17*
X06833Y04834D03*
X09703D03*
X06833Y03315D03*
X09703D03*
Y04074D03*
X06833D03*
G54D18*
X07378Y04764D03*
X09169D03*
G54D19*
X08274Y03386D03*
G54D29*
X08941Y03776D03*
X07564D03*
X07878Y04336D03*
X08627D03*
G54D30*
X07327Y03996D03*
Y04179D03*
G54D14*
X05619Y07215D03*
X05804Y07097D03*
Y07333D03*
G54D15*
X02154Y07533D03*
G54D16*
X02154Y07433D03*
X02254Y07533D03*
Y07433D03*
G54D17*
X02583Y07506D03*
X05453D03*
X02583Y05987D03*
X05453D03*
Y06746D03*
X02583D03*
G54D18*
X03128Y07436D03*
X04919D03*
G54D19*
X04024Y06058D03*
G54D29*
X04691Y06448D03*
X03314D03*
X03628Y07008D03*
X04377D03*
G54D30*
X03077Y06668D03*
Y06851D03*
G54D14*
X09869Y07215D03*
X10055Y07097D03*
Y07333D03*
G54D15*
X06405Y07533D03*
G54D16*
X06405Y07433D03*
X06505Y07533D03*
Y07433D03*
G54D17*
X06833Y07506D03*
X09703D03*
X06833Y05987D03*
X09703D03*
Y06746D03*
X06833D03*
G54D18*
X07378Y07436D03*
X09169D03*
G54D19*
X08274Y06058D03*
G54D29*
X08941Y06448D03*
X07564D03*
X07878Y07008D03*
X08627D03*
G54D30*
X07327Y06668D03*
Y06851D03*
G54D14*
X05619Y09886D03*
X05804Y09768D03*
Y10004D03*
G54D15*
X02154Y10204D03*
G54D16*
X02154Y10104D03*
X02254Y10204D03*
Y10104D03*
G54D17*
X02583Y10177D03*
X05453D03*
X02583Y08659D03*
X05453D03*
Y09418D03*
X02583D03*
G54D18*
X03128Y10107D03*
X04919D03*
G54D19*
X04024Y0873D03*
G54D29*
X04691Y0912D03*
X03314D03*
X03628Y09679D03*
X04377D03*
G54D30*
X03077Y0934D03*
Y09522D03*
G54D14*
X09869Y09886D03*
X10055Y09768D03*
Y10004D03*
G54D15*
X06405Y10204D03*
G54D16*
X06405Y10104D03*
X06505Y10204D03*
Y10104D03*
G54D17*
X06833Y10177D03*
X09703D03*
X06833Y08659D03*
X09703D03*
Y09418D03*
X06833D03*
G54D18*
X07378Y10107D03*
X09169D03*
G54D19*
X08274Y0873D03*
G54D29*
X08941Y0912D03*
X07564D03*
X07878Y09679D03*
X08627D03*
G54D30*
X07327Y0934D03*
Y09522D03*
G54D14*
X05619Y12558D03*
X05804Y1244D03*
Y12676D03*
G54D15*
X02154Y12876D03*
G54D16*
X02154Y12776D03*
X02254Y12876D03*
Y12776D03*
G54D17*
X02583Y12849D03*
X05453D03*
X02583Y1133D03*
X05453D03*
Y12089D03*
X02583D03*
G54D18*
X03128Y12779D03*
X04919D03*
G54D19*
X04024Y11401D03*
G54D29*
X04691Y11791D03*
X03314D03*
X03628Y12351D03*
X04377D03*
G54D30*
X03077Y12011D03*
Y12194D03*
G54D14*
X09869Y12558D03*
X10055Y1244D03*
Y12676D03*
G54D15*
X06405Y12876D03*
G54D16*
X06405Y12776D03*
X06505Y12876D03*
Y12776D03*
G54D17*
X06833Y12849D03*
X09703D03*
X06833Y1133D03*
X09703D03*
Y12089D03*
X06833D03*
G54D18*
X07378Y12779D03*
X09169D03*
G54D19*
X08274Y11401D03*
G54D29*
X08941Y11791D03*
X07564D03*
X07878Y12351D03*
X08627D03*
G54D30*
X07327Y12011D03*
Y12194D03*
G54D14*
X05619Y1523D03*
X05804Y15112D03*
Y15348D03*
G54D15*
X02154Y15548D03*
G54D16*
X02154Y15448D03*
X02254Y15548D03*
Y15448D03*
G54D17*
X02583Y15521D03*
X05453D03*
X02583Y14002D03*
X05453D03*
Y14761D03*
X02583D03*
G54D18*
X03128Y15451D03*
X04919D03*
G54D19*
X04024Y14073D03*
G54D29*
X04691Y14463D03*
X03314D03*
X03628Y15023D03*
X04377D03*
G54D30*
X03077Y14683D03*
Y14866D03*
G54D14*
X09869Y1523D03*
X10055Y15112D03*
Y15348D03*
G54D15*
X06405Y15548D03*
G54D16*
X06405Y15448D03*
X06505Y15548D03*
Y15448D03*
G54D17*
X06833Y15521D03*
X09703D03*
X06833Y14002D03*
X09703D03*
Y14761D03*
X06833D03*
G54D18*
X07378Y15451D03*
X09169D03*
G54D19*
X08274Y14073D03*
G54D29*
X08941Y14463D03*
X07564D03*
X07878Y15023D03*
X08627D03*
G54D30*
X07327Y14683D03*
Y14866D03*
M02*