%FSTAX23Y23*%
%MOIN*%
%SFA1B1*%

%IPPOS*%
%ADD12C,0.005000*%
%ADD20C,0.090000*%
%ADD21R,0.070000X0.070000*%
%ADD22C,0.070000*%
%ADD23C,0.094490*%
%ADD24C,0.135430*%
%ADD25C,0.135430*%
%LNpowerboardv1-1*%
%LPD*%
G54D20*
X05619Y04543D03*
G54D12*
X0Y0D02*
X12312D01*
Y18836*
X0*
Y0*
G54D20*
X05804Y04425D03*
Y04661D03*
G54D21*
X02154Y04861D03*
G54D22*
X02154Y04761D03*
X02254Y04861D03*
Y04761D03*
G54D23*
X02583Y04834D03*
X05453D03*
X02583Y03315D03*
X05453D03*
Y04074D03*
X02583D03*
G54D24*
X03128Y04764D03*
X04919D03*
G54D25*
X04024Y03386D03*
G54D20*
X09869Y04543D03*
X10055Y04425D03*
Y04661D03*
G54D21*
X06405Y04861D03*
G54D22*
X06405Y04761D03*
X06505Y04861D03*
Y04761D03*
G54D23*
X06833Y04834D03*
X09703D03*
X06833Y03315D03*
X09703D03*
Y04074D03*
X06833D03*
G54D24*
X07378Y04764D03*
X09169D03*
G54D25*
X08274Y03386D03*
G54D20*
X05619Y07215D03*
X05804Y07097D03*
Y07333D03*
G54D21*
X02154Y07533D03*
G54D22*
X02154Y07433D03*
X02254Y07533D03*
Y07433D03*
G54D23*
X02583Y07506D03*
X05453D03*
X02583Y05987D03*
X05453D03*
Y06746D03*
X02583D03*
G54D24*
X03128Y07436D03*
X04919D03*
G54D25*
X04024Y06058D03*
G54D20*
X09869Y07215D03*
X10055Y07097D03*
Y07333D03*
G54D21*
X06405Y07533D03*
G54D22*
X06405Y07433D03*
X06505Y07533D03*
Y07433D03*
G54D23*
X06833Y07506D03*
X09703D03*
X06833Y05987D03*
X09703D03*
Y06746D03*
X06833D03*
G54D24*
X07378Y07436D03*
X09169D03*
G54D25*
X08274Y06058D03*
G54D20*
X05619Y09886D03*
X05804Y09768D03*
Y10004D03*
G54D21*
X02154Y10204D03*
G54D22*
X02154Y10104D03*
X02254Y10204D03*
Y10104D03*
G54D23*
X02583Y10177D03*
X05453D03*
X02583Y08659D03*
X05453D03*
Y09418D03*
X02583D03*
G54D24*
X03128Y10107D03*
X04919D03*
G54D25*
X04024Y0873D03*
G54D20*
X09869Y09886D03*
X10055Y09768D03*
Y10004D03*
G54D21*
X06405Y10204D03*
G54D22*
X06405Y10104D03*
X06505Y10204D03*
Y10104D03*
G54D23*
X06833Y10177D03*
X09703D03*
X06833Y08659D03*
X09703D03*
Y09418D03*
X06833D03*
G54D24*
X07378Y10107D03*
X09169D03*
G54D25*
X08274Y0873D03*
G54D20*
X05619Y12558D03*
X05804Y1244D03*
Y12676D03*
G54D21*
X02154Y12876D03*
G54D22*
X02154Y12776D03*
X02254Y12876D03*
Y12776D03*
G54D23*
X02583Y12849D03*
X05453D03*
X02583Y1133D03*
X05453D03*
Y12089D03*
X02583D03*
G54D24*
X03128Y12779D03*
X04919D03*
G54D25*
X04024Y11401D03*
G54D20*
X09869Y12558D03*
X10055Y1244D03*
Y12676D03*
G54D21*
X06405Y12876D03*
G54D22*
X06405Y12776D03*
X06505Y12876D03*
Y12776D03*
G54D23*
X06833Y12849D03*
X09703D03*
X06833Y1133D03*
X09703D03*
Y12089D03*
X06833D03*
G54D24*
X07378Y12779D03*
X09169D03*
G54D25*
X08274Y11401D03*
G54D20*
X05619Y1523D03*
X05804Y15112D03*
Y15348D03*
G54D21*
X02154Y15548D03*
G54D22*
X02154Y15448D03*
X02254Y15548D03*
Y15448D03*
G54D23*
X02583Y15521D03*
X05453D03*
X02583Y14002D03*
X05453D03*
Y14761D03*
X02583D03*
G54D24*
X03128Y15451D03*
X04919D03*
G54D25*
X04024Y14073D03*
G54D20*
X09869Y1523D03*
X10055Y15112D03*
Y15348D03*
G54D21*
X06405Y15548D03*
G54D22*
X06405Y15448D03*
X06505Y15548D03*
Y15448D03*
G54D23*
X06833Y15521D03*
X09703D03*
X06833Y14002D03*
X09703D03*
Y14761D03*
X06833D03*
G54D24*
X07378Y15451D03*
X09169D03*
G54D25*
X08274Y14073D03*
M02*