%FSTAX23Y23*%
%MOIN*%
%SFA1B1*%

%IPPOS*%
%ADD12C,0.005000*%
%ADD20C,0.090000*%
%ADD21R,0.070000X0.070000*%
%ADD22C,0.070000*%
%ADD23C,0.094490*%
%ADD24C,0.135430*%
%ADD25C,0.135430*%
%ADD26R,0.196850X0.118110*%
%ADD27O,0.196850X0.118110*%
%ADD28C,0.090000*%
%LNpowerboardv1-1*%
%LPD*%
G54D20*
X05619Y04543D03*
G54D12*
X0Y0D02*
X12312D01*
Y18836*
X0*
Y0*
G54D20*
X05804Y04425D03*
Y04661D03*
G54D21*
X02154Y04861D03*
G54D22*
X02154Y04761D03*
X02254Y04861D03*
Y04761D03*
G54D23*
X02583Y04834D03*
X05453D03*
X02583Y03315D03*
X05453D03*
Y04074D03*
X02583D03*
G54D24*
X03128Y04764D03*
X04919D03*
G54D25*
X04024Y03386D03*
G54D26*
X04691Y03776D03*
X03314D03*
X03628Y04336D03*
X04377D03*
G54D27*
X03077Y03996D03*
Y04179D03*
G54D28*
X02583Y04074D02*
X02881Y03776D01*
X03314*
X04377Y04336D02*
X04564D01*
X04855Y04627*
X05246*
X05453Y04834*
X02583D02*
X0308Y04336D01*
X03628*
X02254Y04861D02*
X02308D01*
X02986Y04184D02*
X03072D01*
X02308Y04861D02*
X02986Y04184D01*
X02254Y04577D02*
Y04761D01*
Y04577D02*
X02835Y03996D01*
X02583Y03315D02*
Y04074D01*
X04691Y03776D02*
X04991D01*
X05453Y03315*
X02835Y03996D02*
X05089D01*
X03072Y04184D02*
X03077Y04179D01*
X05177*
X05089Y03996D02*
X05394Y03691D01*
X05534*
X05453Y04074D02*
Y04834D01*
X05177Y04179D02*
X05392Y03964D01*
X05557*
X05635Y04042*
X05534Y03691D02*
X05824Y03981D01*
Y04201*
X05635Y04042D02*
Y04256D01*
X05804Y04425*
X05619Y04543D02*
X05924D01*
X05804Y04661D02*
X059Y04566D01*
X05824Y04201D02*
X05924Y04301D01*
X059Y04566D02*
X05902D01*
X05924Y04543*
Y04301D02*
Y04543D01*
G54D20*
X09869Y04543D03*
X10055Y04425D03*
Y04661D03*
G54D21*
X06405Y04861D03*
G54D22*
X06405Y04761D03*
X06505Y04861D03*
Y04761D03*
G54D23*
X06833Y04834D03*
X09703D03*
X06833Y03315D03*
X09703D03*
Y04074D03*
X06833D03*
G54D24*
X07378Y04764D03*
X09169D03*
G54D25*
X08274Y03386D03*
G54D26*
X08941Y03776D03*
X07564D03*
X07878Y04336D03*
X08627D03*
G54D27*
X07327Y03996D03*
Y04179D03*
G54D28*
X06833Y04074D02*
X07131Y03776D01*
X07564*
X08627Y04336D02*
X08815D01*
X09106Y04627*
X09496*
X09703Y04834*
X06833D02*
X0733Y04336D01*
X07878*
X06505Y04861D02*
X06559D01*
X07236Y04184D02*
X07322D01*
X06559Y04861D02*
X07236Y04184D01*
X06505Y04577D02*
Y04761D01*
Y04577D02*
X07086Y03996D01*
X06833Y03315D02*
Y04074D01*
X08941Y03776D02*
X09241D01*
X09703Y03315*
X07086Y03996D02*
X0934D01*
X07322Y04184D02*
X07327Y04179D01*
X09427*
X0934Y03996D02*
X09645Y03691D01*
X09785*
X09703Y04074D02*
Y04834D01*
X09427Y04179D02*
X09642Y03964D01*
X09807*
X09885Y04042*
X09785Y03691D02*
X10075Y03981D01*
Y04201*
X09885Y04042D02*
Y04256D01*
X10055Y04425*
X09869Y04543D02*
X10175D01*
X10055Y04661D02*
X1015Y04566D01*
X10075Y04201D02*
X10175Y04301D01*
X1015Y04566D02*
X10152D01*
X10175Y04543*
Y04301D02*
Y04543D01*
G54D20*
X05619Y07215D03*
X05804Y07097D03*
Y07333D03*
G54D21*
X02154Y07533D03*
G54D22*
X02154Y07433D03*
X02254Y07533D03*
Y07433D03*
G54D23*
X02583Y07506D03*
X05453D03*
X02583Y05987D03*
X05453D03*
Y06746D03*
X02583D03*
G54D24*
X03128Y07436D03*
X04919D03*
G54D25*
X04024Y06058D03*
G54D26*
X04691Y06448D03*
X03314D03*
X03628Y07008D03*
X04377D03*
G54D27*
X03077Y06668D03*
Y06851D03*
G54D28*
X02583Y06746D02*
X02881Y06448D01*
X03314*
X04377Y07008D02*
X04564D01*
X04855Y07299*
X05246*
X05453Y07506*
X02583D02*
X0308Y07008D01*
X03628*
X02254Y07533D02*
X02308D01*
X02986Y06856D02*
X03072D01*
X02308Y07533D02*
X02986Y06856D01*
X02254Y07249D02*
Y07433D01*
Y07249D02*
X02835Y06668D01*
X02583Y05987D02*
Y06746D01*
X04691Y06448D02*
X04991D01*
X05453Y05987*
X02835Y06668D02*
X05089D01*
X03072Y06856D02*
X03077Y06851D01*
X05177*
X05089Y06668D02*
X05394Y06363D01*
X05534*
X05453Y06746D02*
Y07506D01*
X05177Y06851D02*
X05392Y06636D01*
X05557*
X05635Y06714*
X05534Y06363D02*
X05824Y06653D01*
Y06873*
X05635Y06714D02*
Y06928D01*
X05804Y07097*
X05619Y07215D02*
X05924D01*
X05804Y07333D02*
X059Y07238D01*
X05824Y06873D02*
X05924Y06973D01*
X059Y07238D02*
X05902D01*
X05924Y07215*
Y06973D02*
Y07215D01*
G54D20*
X09869Y07215D03*
X10055Y07097D03*
Y07333D03*
G54D21*
X06405Y07533D03*
G54D22*
X06405Y07433D03*
X06505Y07533D03*
Y07433D03*
G54D23*
X06833Y07506D03*
X09703D03*
X06833Y05987D03*
X09703D03*
Y06746D03*
X06833D03*
G54D24*
X07378Y07436D03*
X09169D03*
G54D25*
X08274Y06058D03*
G54D26*
X08941Y06448D03*
X07564D03*
X07878Y07008D03*
X08627D03*
G54D27*
X07327Y06668D03*
Y06851D03*
G54D28*
X06833Y06746D02*
X07131Y06448D01*
X07564*
X08627Y07008D02*
X08815D01*
X09106Y07299*
X09496*
X09703Y07506*
X06833D02*
X0733Y07008D01*
X07878*
X06505Y07533D02*
X06559D01*
X07236Y06856D02*
X07322D01*
X06559Y07533D02*
X07236Y06856D01*
X06505Y07249D02*
Y07433D01*
Y07249D02*
X07086Y06668D01*
X06833Y05987D02*
Y06746D01*
X08941Y06448D02*
X09241D01*
X09703Y05987*
X07086Y06668D02*
X0934D01*
X07322Y06856D02*
X07327Y06851D01*
X09427*
X0934Y06668D02*
X09645Y06363D01*
X09785*
X09703Y06746D02*
Y07506D01*
X09427Y06851D02*
X09642Y06636D01*
X09807*
X09885Y06714*
X09785Y06363D02*
X10075Y06653D01*
Y06873*
X09885Y06714D02*
Y06928D01*
X10055Y07097*
X09869Y07215D02*
X10175D01*
X10055Y07333D02*
X1015Y07238D01*
X10075Y06873D02*
X10175Y06973D01*
X1015Y07238D02*
X10152D01*
X10175Y07215*
Y06973D02*
Y07215D01*
G54D20*
X05619Y09886D03*
X05804Y09768D03*
Y10004D03*
G54D21*
X02154Y10204D03*
G54D22*
X02154Y10104D03*
X02254Y10204D03*
Y10104D03*
G54D23*
X02583Y10177D03*
X05453D03*
X02583Y08659D03*
X05453D03*
Y09418D03*
X02583D03*
G54D24*
X03128Y10107D03*
X04919D03*
G54D25*
X04024Y0873D03*
G54D26*
X04691Y0912D03*
X03314D03*
X03628Y09679D03*
X04377D03*
G54D27*
X03077Y0934D03*
Y09522D03*
G54D28*
X02583Y09418D02*
X02881Y0912D01*
X03314*
X04377Y09679D02*
X04564D01*
X04855Y0997*
X05246*
X05453Y10177*
X02583D02*
X0308Y09679D01*
X03628*
X02254Y10204D02*
X02308D01*
X02986Y09527D02*
X03072D01*
X02308Y10204D02*
X02986Y09527D01*
X02254Y0992D02*
Y10104D01*
Y0992D02*
X02835Y0934D01*
X02583Y08659D02*
Y09418D01*
X04691Y0912D02*
X04991D01*
X05453Y08659*
X02835Y0934D02*
X05089D01*
X03072Y09527D02*
X03077Y09522D01*
X05177*
X05089Y0934D02*
X05394Y09035D01*
X05534*
X05453Y09418D02*
Y10177D01*
X05177Y09522D02*
X05392Y09308D01*
X05557*
X05635Y09386*
X05534Y09035D02*
X05824Y09325D01*
Y09544*
X05635Y09386D02*
Y09599D01*
X05804Y09768*
X05619Y09886D02*
X05924D01*
X05804Y10004D02*
X059Y09909D01*
X05824Y09544D02*
X05924Y09644D01*
X059Y09909D02*
X05902D01*
X05924Y09886*
Y09644D02*
Y09886D01*
G54D20*
X09869Y09886D03*
X10055Y09768D03*
Y10004D03*
G54D21*
X06405Y10204D03*
G54D22*
X06405Y10104D03*
X06505Y10204D03*
Y10104D03*
G54D23*
X06833Y10177D03*
X09703D03*
X06833Y08659D03*
X09703D03*
Y09418D03*
X06833D03*
G54D24*
X07378Y10107D03*
X09169D03*
G54D25*
X08274Y0873D03*
G54D26*
X08941Y0912D03*
X07564D03*
X07878Y09679D03*
X08627D03*
G54D27*
X07327Y0934D03*
Y09522D03*
G54D28*
X06833Y09418D02*
X07131Y0912D01*
X07564*
X08627Y09679D02*
X08815D01*
X09106Y0997*
X09496*
X09703Y10177*
X06833D02*
X0733Y09679D01*
X07878*
X06505Y10204D02*
X06559D01*
X07236Y09527D02*
X07322D01*
X06559Y10204D02*
X07236Y09527D01*
X06505Y0992D02*
Y10104D01*
Y0992D02*
X07086Y0934D01*
X06833Y08659D02*
Y09418D01*
X08941Y0912D02*
X09241D01*
X09703Y08659*
X07086Y0934D02*
X0934D01*
X07322Y09527D02*
X07327Y09522D01*
X09427*
X0934Y0934D02*
X09645Y09035D01*
X09785*
X09703Y09418D02*
Y10177D01*
X09427Y09522D02*
X09642Y09308D01*
X09807*
X09885Y09386*
X09785Y09035D02*
X10075Y09325D01*
Y09544*
X09885Y09386D02*
Y09599D01*
X10055Y09768*
X09869Y09886D02*
X10175D01*
X10055Y10004D02*
X1015Y09909D01*
X10075Y09544D02*
X10175Y09644D01*
X1015Y09909D02*
X10152D01*
X10175Y09886*
Y09644D02*
Y09886D01*
G54D20*
X05619Y12558D03*
X05804Y1244D03*
Y12676D03*
G54D21*
X02154Y12876D03*
G54D22*
X02154Y12776D03*
X02254Y12876D03*
Y12776D03*
G54D23*
X02583Y12849D03*
X05453D03*
X02583Y1133D03*
X05453D03*
Y12089D03*
X02583D03*
G54D24*
X03128Y12779D03*
X04919D03*
G54D25*
X04024Y11401D03*
G54D26*
X04691Y11791D03*
X03314D03*
X03628Y12351D03*
X04377D03*
G54D27*
X03077Y12011D03*
Y12194D03*
G54D28*
X02583Y12089D02*
X02881Y11791D01*
X03314*
X04377Y12351D02*
X04564D01*
X04855Y12642*
X05246*
X05453Y12849*
X02583D02*
X0308Y12351D01*
X03628*
X02254Y12876D02*
X02308D01*
X02986Y12199D02*
X03072D01*
X02308Y12876D02*
X02986Y12199D01*
X02254Y12592D02*
Y12776D01*
Y12592D02*
X02835Y12011D01*
X02583Y1133D02*
Y12089D01*
X04691Y11791D02*
X04991D01*
X05453Y1133*
X02835Y12011D02*
X05089D01*
X03072Y12199D02*
X03077Y12194D01*
X05177*
X05089Y12011D02*
X05394Y11706D01*
X05534*
X05453Y12089D02*
Y12849D01*
X05177Y12194D02*
X05392Y11979D01*
X05557*
X05635Y12057*
X05534Y11706D02*
X05824Y11996D01*
Y12216*
X05635Y12057D02*
Y12271D01*
X05804Y1244*
X05619Y12558D02*
X05924D01*
X05804Y12676D02*
X059Y12581D01*
X05824Y12216D02*
X05924Y12316D01*
X059Y12581D02*
X05902D01*
X05924Y12558*
Y12316D02*
Y12558D01*
G54D20*
X09869Y12558D03*
X10055Y1244D03*
Y12676D03*
G54D21*
X06405Y12876D03*
G54D22*
X06405Y12776D03*
X06505Y12876D03*
Y12776D03*
G54D23*
X06833Y12849D03*
X09703D03*
X06833Y1133D03*
X09703D03*
Y12089D03*
X06833D03*
G54D24*
X07378Y12779D03*
X09169D03*
G54D25*
X08274Y11401D03*
G54D26*
X08941Y11791D03*
X07564D03*
X07878Y12351D03*
X08627D03*
G54D27*
X07327Y12011D03*
Y12194D03*
G54D28*
X06833Y12089D02*
X07131Y11791D01*
X07564*
X08627Y12351D02*
X08815D01*
X09106Y12642*
X09496*
X09703Y12849*
X06833D02*
X0733Y12351D01*
X07878*
X06505Y12876D02*
X06559D01*
X07236Y12199D02*
X07322D01*
X06559Y12876D02*
X07236Y12199D01*
X06505Y12592D02*
Y12776D01*
Y12592D02*
X07086Y12011D01*
X06833Y1133D02*
Y12089D01*
X08941Y11791D02*
X09241D01*
X09703Y1133*
X07086Y12011D02*
X0934D01*
X07322Y12199D02*
X07327Y12194D01*
X09427*
X0934Y12011D02*
X09645Y11706D01*
X09785*
X09703Y12089D02*
Y12849D01*
X09427Y12194D02*
X09642Y11979D01*
X09807*
X09885Y12057*
X09785Y11706D02*
X10075Y11996D01*
Y12216*
X09885Y12057D02*
Y12271D01*
X10055Y1244*
X09869Y12558D02*
X10175D01*
X10055Y12676D02*
X1015Y12581D01*
X10075Y12216D02*
X10175Y12316D01*
X1015Y12581D02*
X10152D01*
X10175Y12558*
Y12316D02*
Y12558D01*
G54D20*
X05619Y1523D03*
X05804Y15112D03*
Y15348D03*
G54D21*
X02154Y15548D03*
G54D22*
X02154Y15448D03*
X02254Y15548D03*
Y15448D03*
G54D23*
X02583Y15521D03*
X05453D03*
X02583Y14002D03*
X05453D03*
Y14761D03*
X02583D03*
G54D24*
X03128Y15451D03*
X04919D03*
G54D25*
X04024Y14073D03*
G54D26*
X04691Y14463D03*
X03314D03*
X03628Y15023D03*
X04377D03*
G54D27*
X03077Y14683D03*
Y14866D03*
G54D28*
X02583Y14761D02*
X02881Y14463D01*
X03314*
X04377Y15023D02*
X04564D01*
X04855Y15314*
X05246*
X05453Y15521*
X02583D02*
X0308Y15023D01*
X03628*
X02254Y15548D02*
X02308D01*
X02986Y14871D02*
X03072D01*
X02308Y15548D02*
X02986Y14871D01*
X02254Y15264D02*
Y15448D01*
Y15264D02*
X02835Y14683D01*
X02583Y14002D02*
Y14761D01*
X04691Y14463D02*
X04991D01*
X05453Y14002*
X02835Y14683D02*
X05089D01*
X03072Y14871D02*
X03077Y14866D01*
X05177*
X05089Y14683D02*
X05394Y14378D01*
X05534*
X05453Y14761D02*
Y15521D01*
X05177Y14866D02*
X05392Y14651D01*
X05557*
X05635Y14729*
X05534Y14378D02*
X05824Y14668D01*
Y14888*
X05635Y14729D02*
Y14943D01*
X05804Y15112*
X05619Y1523D02*
X05924D01*
X05804Y15348D02*
X059Y15253D01*
X05824Y14888D02*
X05924Y14988D01*
X059Y15253D02*
X05902D01*
X05924Y1523*
Y14988D02*
Y1523D01*
G54D20*
X09869Y1523D03*
X10055Y15112D03*
Y15348D03*
G54D21*
X06405Y15548D03*
G54D22*
X06405Y15448D03*
X06505Y15548D03*
Y15448D03*
G54D23*
X06833Y15521D03*
X09703D03*
X06833Y14002D03*
X09703D03*
Y14761D03*
X06833D03*
G54D24*
X07378Y15451D03*
X09169D03*
G54D25*
X08274Y14073D03*
G54D26*
X08941Y14463D03*
X07564D03*
X07878Y15023D03*
X08627D03*
G54D27*
X07327Y14683D03*
Y14866D03*
G54D28*
X06833Y14761D02*
X07131Y14463D01*
X07564*
X08627Y15023D02*
X08815D01*
X09106Y15314*
X09496*
X09703Y15521*
X06833D02*
X0733Y15023D01*
X07878*
X06505Y15548D02*
X06559D01*
X07236Y14871D02*
X07322D01*
X06559Y15548D02*
X07236Y14871D01*
X06505Y15264D02*
Y15448D01*
Y15264D02*
X07086Y14683D01*
X06833Y14002D02*
Y14761D01*
X08941Y14463D02*
X09241D01*
X09703Y14002*
X07086Y14683D02*
X0934D01*
X07322Y14871D02*
X07327Y14866D01*
X09427*
X0934Y14683D02*
X09645Y14378D01*
X09785*
X09703Y14761D02*
Y15521D01*
X09427Y14866D02*
X09642Y14651D01*
X09807*
X09885Y14729*
X09785Y14378D02*
X10075Y14668D01*
Y14888*
X09885Y14729D02*
Y14943D01*
X10055Y15112*
X09869Y1523D02*
X10175D01*
X10055Y15348D02*
X1015Y15253D01*
X10075Y14888D02*
X10175Y14988D01*
X1015Y15253D02*
X10152D01*
X10175Y1523*
Y14988D02*
Y1523D01*
M02*