G04*
G04 #@! TF.GenerationSoftware,Altium Limited,Altium Designer,22.0.2 (36)*
G04*
G04 Layer_Color=32896*
%FSLAX25Y25*%
%MOIN*%
G70*
G04*
G04 #@! TF.SameCoordinates,B0134727-A30E-443A-9B04-D8BCE479AFC3*
G04*
G04*
G04 #@! TF.FilePolarity,Positive*
G04*
G01*
G75*
%ADD12C,0.01000*%
%ADD13C,0.02500*%
%ADD31C,0.11811*%
%ADD32C,0.00700*%
%ADD33R,0.70400X0.27000*%
G36*
X144207Y182329D02*
X144663D01*
Y182284D01*
X145073D01*
Y182238D01*
X145666D01*
Y182193D01*
X145894D01*
Y182147D01*
X146259D01*
Y182101D01*
X146486D01*
Y182056D01*
X146806D01*
Y182010D01*
X147034D01*
Y181965D01*
X147261D01*
Y181919D01*
X147581D01*
Y181874D01*
X147808D01*
Y181828D01*
X148082D01*
Y181782D01*
X148219D01*
Y181737D01*
X148355D01*
Y181691D01*
X148629D01*
Y181646D01*
X148766D01*
Y181600D01*
X148948D01*
Y181554D01*
X149130D01*
Y181509D01*
X149267D01*
Y181463D01*
X149449D01*
Y181418D01*
X149540D01*
Y181372D01*
X149723D01*
Y181326D01*
X149859D01*
Y181281D01*
X150042D01*
Y181235D01*
X150179D01*
Y181190D01*
X150315D01*
Y181144D01*
X150452D01*
Y181099D01*
X150589D01*
Y181053D01*
X150726D01*
Y181007D01*
X150817D01*
Y180962D01*
X150953D01*
Y180916D01*
X151090D01*
Y180871D01*
X151181D01*
Y180825D01*
X151364D01*
Y180780D01*
X151455D01*
Y180734D01*
X151546D01*
Y180688D01*
X151683D01*
Y180643D01*
X151774D01*
Y180597D01*
X151911D01*
Y180552D01*
X152002D01*
Y180506D01*
X152139D01*
Y180461D01*
X152230D01*
Y180415D01*
X152321D01*
Y180369D01*
X152458D01*
Y180324D01*
X152549D01*
Y180278D01*
X152686D01*
Y180233D01*
X152777D01*
Y180187D01*
X152868D01*
Y180141D01*
X152959D01*
Y180096D01*
X153050D01*
Y180050D01*
X153141D01*
Y180005D01*
X153233D01*
Y179959D01*
X153324D01*
Y179913D01*
X153415D01*
Y179868D01*
X153506D01*
Y179822D01*
X153643D01*
Y179777D01*
X153688D01*
Y179731D01*
X153825D01*
Y179686D01*
X153871D01*
Y179640D01*
X153962D01*
Y179594D01*
X154053D01*
Y179549D01*
X154144D01*
Y179503D01*
X154235D01*
Y179458D01*
X154326D01*
Y179412D01*
X154372D01*
Y179367D01*
X154463D01*
Y179321D01*
X154554D01*
Y179275D01*
X154646D01*
Y179230D01*
X154691D01*
Y179184D01*
X154828D01*
Y179139D01*
X154874D01*
Y179093D01*
X154965D01*
Y179047D01*
X155056D01*
Y179002D01*
X155101D01*
Y178956D01*
X155193D01*
Y178911D01*
X155284D01*
Y178865D01*
X155375D01*
Y178820D01*
X155420D01*
Y178774D01*
X155466D01*
Y178728D01*
X155603D01*
Y178683D01*
X155648D01*
Y178637D01*
X155739D01*
Y178592D01*
X155831D01*
Y178546D01*
X155876D01*
Y178500D01*
X155967D01*
Y178455D01*
X156013D01*
Y178409D01*
X156104D01*
Y178364D01*
X156150D01*
Y178318D01*
X156241D01*
Y178273D01*
X156287D01*
Y178227D01*
X156332D01*
Y178181D01*
X156469D01*
Y178136D01*
X156514D01*
Y178090D01*
X156606D01*
Y178045D01*
X156651D01*
Y177999D01*
X156697D01*
Y177954D01*
X156788D01*
Y177908D01*
X156879D01*
Y177862D01*
X156925D01*
Y177817D01*
X156970D01*
Y177771D01*
X157016D01*
Y177726D01*
X157107D01*
Y177680D01*
X157153D01*
Y177634D01*
X157244D01*
Y177589D01*
X157289D01*
Y177543D01*
X157335D01*
Y177498D01*
X157380D01*
Y177452D01*
X157472D01*
Y177407D01*
X157517D01*
Y177361D01*
X157608D01*
Y177315D01*
X157654D01*
Y177270D01*
X157700D01*
Y177224D01*
X157791D01*
Y177179D01*
X157836D01*
Y177133D01*
X157882D01*
Y177087D01*
X157927D01*
Y177042D01*
X158019D01*
Y176996D01*
X158064D01*
Y176951D01*
X158155D01*
Y176905D01*
X158201D01*
Y176859D01*
X158247D01*
Y176814D01*
X158292D01*
Y176768D01*
X158383D01*
Y176723D01*
X158429D01*
Y176677D01*
X158520D01*
Y176632D01*
X158566D01*
Y176586D01*
X158611D01*
Y176541D01*
X158657D01*
Y176495D01*
X158748D01*
Y176449D01*
X158793D01*
Y176404D01*
X158839D01*
Y176358D01*
X158885D01*
Y176313D01*
X158976D01*
Y176267D01*
X159021D01*
Y176221D01*
X159067D01*
Y176176D01*
X159113D01*
Y176130D01*
X159204D01*
Y176085D01*
X159249D01*
Y176039D01*
X159295D01*
Y175994D01*
X159341D01*
Y175948D01*
X159386D01*
Y175902D01*
X159432D01*
Y175857D01*
X159523D01*
Y175811D01*
X159568D01*
Y175766D01*
X159614D01*
Y175720D01*
X159705D01*
Y175674D01*
X159751D01*
Y175629D01*
X159796D01*
Y175583D01*
X159842D01*
Y175538D01*
X159887D01*
Y175492D01*
X159933D01*
Y175446D01*
X159979D01*
Y175401D01*
X160024D01*
Y175355D01*
X160070D01*
Y175310D01*
X160115D01*
Y175264D01*
X160161D01*
Y175219D01*
X160206D01*
Y175173D01*
X160252D01*
Y175127D01*
X160343D01*
Y175082D01*
X160389D01*
Y175036D01*
X160434D01*
Y174991D01*
X160480D01*
Y174945D01*
X160526D01*
Y174899D01*
X160571D01*
Y174854D01*
X160617D01*
Y174808D01*
X160662D01*
Y174763D01*
X160708D01*
Y174717D01*
X160799D01*
Y174672D01*
X160845D01*
Y174626D01*
X160890D01*
Y174581D01*
X160936D01*
Y174535D01*
X160981D01*
Y174489D01*
X161027D01*
Y174444D01*
X161073D01*
Y174398D01*
X161118D01*
Y174353D01*
X161164D01*
Y174307D01*
X161209D01*
Y174261D01*
X161255D01*
Y174216D01*
X161301D01*
Y174170D01*
X161346D01*
Y174125D01*
X161392D01*
Y174079D01*
X161437D01*
Y174033D01*
X161483D01*
Y173988D01*
X161528D01*
Y173942D01*
X161574D01*
Y173897D01*
X161619D01*
Y173806D01*
X161665D01*
Y173532D01*
X161619D01*
Y173441D01*
X161574D01*
Y173395D01*
X161528D01*
Y173304D01*
X161437D01*
Y173213D01*
X161346D01*
Y173122D01*
X161301D01*
Y173076D01*
X161209D01*
Y172985D01*
X161118D01*
Y172894D01*
X161073D01*
Y172848D01*
X160981D01*
Y172757D01*
X160890D01*
Y172666D01*
X160799D01*
Y172575D01*
X160754D01*
Y172529D01*
X160662D01*
Y172438D01*
X160571D01*
Y172347D01*
X160480D01*
Y172301D01*
X160434D01*
Y172210D01*
X160343D01*
Y172119D01*
X160252D01*
Y172028D01*
X160161D01*
Y171982D01*
X160115D01*
Y171891D01*
X160024D01*
Y171800D01*
X159933D01*
Y171754D01*
X159887D01*
Y171663D01*
X159796D01*
Y171572D01*
X159705D01*
Y171527D01*
X159660D01*
Y171481D01*
X159614D01*
Y171435D01*
X159568D01*
Y171344D01*
X159477D01*
Y171299D01*
X159432D01*
Y171253D01*
X159386D01*
Y171207D01*
X159341D01*
Y171162D01*
X159295D01*
Y171116D01*
X159249D01*
Y171025D01*
X159158D01*
Y170979D01*
X159113D01*
Y170934D01*
X159067D01*
Y170888D01*
X159021D01*
Y170843D01*
X158976D01*
Y170797D01*
X158930D01*
Y170752D01*
X158885D01*
Y170706D01*
X158839D01*
Y170660D01*
X158793D01*
Y170615D01*
X158748D01*
Y170569D01*
X158702D01*
Y170524D01*
X158657D01*
Y170478D01*
X158611D01*
Y170432D01*
X158566D01*
Y170387D01*
X158520D01*
Y170341D01*
X158474D01*
Y170296D01*
X158429D01*
Y170250D01*
X158383D01*
Y170205D01*
X158338D01*
Y170159D01*
X158292D01*
Y170114D01*
X158247D01*
Y170068D01*
X158201D01*
Y170022D01*
X158155D01*
Y169977D01*
X158110D01*
Y169931D01*
X158064D01*
Y169886D01*
X158019D01*
Y169840D01*
X157973D01*
Y169794D01*
X157927D01*
Y169749D01*
X157882D01*
Y169703D01*
X157836D01*
Y169658D01*
X157791D01*
Y169612D01*
X157745D01*
Y169567D01*
X157700D01*
Y169521D01*
X157654D01*
Y169475D01*
X157608D01*
Y169430D01*
X157563D01*
Y169384D01*
X157517D01*
Y169339D01*
X157472D01*
Y169293D01*
X157426D01*
Y169247D01*
X157380D01*
Y169202D01*
X157335D01*
Y169156D01*
X157289D01*
Y169111D01*
X157244D01*
Y169065D01*
X157198D01*
Y169019D01*
X157153D01*
Y168974D01*
X157107D01*
Y168928D01*
X157061D01*
Y168883D01*
X157016D01*
Y168837D01*
X156970D01*
Y168792D01*
X156925D01*
Y168746D01*
X156879D01*
Y168701D01*
X156834D01*
Y168655D01*
X156788D01*
Y168609D01*
X156742D01*
Y168564D01*
X156697D01*
Y168518D01*
X156651D01*
Y168473D01*
X156606D01*
Y168427D01*
X156560D01*
Y168381D01*
X156514D01*
Y168336D01*
X156469D01*
Y168290D01*
X156423D01*
Y168245D01*
X156378D01*
Y168199D01*
X156332D01*
Y168154D01*
X156287D01*
Y168108D01*
X156241D01*
Y168062D01*
X156195D01*
Y168017D01*
X156150D01*
Y167971D01*
X156104D01*
Y167926D01*
X156059D01*
Y167880D01*
X156013D01*
Y167834D01*
X155967D01*
Y167789D01*
X155922D01*
Y167743D01*
X155876D01*
Y167698D01*
X155831D01*
Y167652D01*
X155785D01*
Y167606D01*
X155739D01*
Y167561D01*
X155694D01*
Y167515D01*
X155648D01*
Y167470D01*
X155603D01*
Y167424D01*
X155557D01*
Y167379D01*
X155512D01*
Y167333D01*
X155466D01*
Y167287D01*
X155420D01*
Y167242D01*
X155375D01*
Y167196D01*
X155329D01*
Y167151D01*
X155284D01*
Y167105D01*
X155238D01*
Y167060D01*
X155193D01*
Y167014D01*
X155147D01*
Y166968D01*
X155101D01*
Y166923D01*
X155056D01*
Y166877D01*
X155010D01*
Y166832D01*
X154965D01*
Y166786D01*
X154919D01*
Y166741D01*
X154874D01*
Y166695D01*
X154828D01*
Y166649D01*
X154782D01*
Y166604D01*
X154737D01*
Y166558D01*
X154691D01*
Y166513D01*
X154646D01*
Y166467D01*
X154600D01*
Y166421D01*
X154554D01*
Y166376D01*
X154509D01*
Y166330D01*
X154463D01*
Y166285D01*
X154418D01*
Y166239D01*
X154372D01*
Y166193D01*
X154326D01*
Y166148D01*
X154281D01*
Y166102D01*
X154235D01*
Y166057D01*
X154190D01*
Y166011D01*
X154144D01*
Y165966D01*
X154099D01*
Y165920D01*
X154053D01*
Y165874D01*
X154007D01*
Y165829D01*
X153962D01*
Y165783D01*
X153916D01*
Y165738D01*
X153825D01*
Y165692D01*
X153734D01*
Y165647D01*
X153552D01*
Y165692D01*
X153461D01*
Y165738D01*
X153415D01*
Y165783D01*
X153324D01*
Y165829D01*
X153278D01*
Y165874D01*
X153233D01*
Y165920D01*
X153187D01*
Y165966D01*
X153141D01*
Y166011D01*
X153096D01*
Y166057D01*
X153050D01*
Y166102D01*
X153005D01*
Y166148D01*
X152959D01*
Y166193D01*
X152913D01*
Y166239D01*
X152868D01*
Y166285D01*
X152822D01*
Y166330D01*
X152777D01*
Y166376D01*
X152731D01*
Y166421D01*
X152686D01*
Y166467D01*
X152640D01*
Y166513D01*
X152594D01*
Y166558D01*
X152549D01*
Y166604D01*
X152503D01*
Y166649D01*
X152412D01*
Y166695D01*
X152366D01*
Y166741D01*
X152321D01*
Y166786D01*
X152275D01*
Y166832D01*
X152230D01*
Y166877D01*
X152184D01*
Y166923D01*
X152139D01*
Y166968D01*
X152093D01*
Y167014D01*
X152047D01*
Y167060D01*
X151956D01*
Y167105D01*
X151911D01*
Y167151D01*
X151865D01*
Y167196D01*
X151820D01*
Y167242D01*
X151774D01*
Y167287D01*
X151683D01*
Y167333D01*
X151637D01*
Y167379D01*
X151592D01*
Y167424D01*
X151546D01*
Y167470D01*
X151500D01*
Y167515D01*
X151409D01*
Y167561D01*
X151364D01*
Y167606D01*
X151273D01*
Y167652D01*
X151227D01*
Y167698D01*
X151181D01*
Y167743D01*
X151136D01*
Y167789D01*
X151090D01*
Y167834D01*
X150999D01*
Y167880D01*
X150953D01*
Y167926D01*
X150908D01*
Y167971D01*
X150817D01*
Y168017D01*
X150771D01*
Y168062D01*
X150726D01*
Y168108D01*
X150680D01*
Y168154D01*
X150589D01*
Y168199D01*
X150543D01*
Y168245D01*
X150498D01*
Y168290D01*
X150407D01*
Y168336D01*
X150315D01*
Y168381D01*
X150270D01*
Y168427D01*
X150179D01*
Y168473D01*
X150133D01*
Y168518D01*
X150042D01*
Y168564D01*
X149996D01*
Y168609D01*
X149905D01*
Y168655D01*
X149859D01*
Y168701D01*
X149768D01*
Y168746D01*
X149723D01*
Y168792D01*
X149632D01*
Y168837D01*
X149540D01*
Y168883D01*
X149495D01*
Y168928D01*
X149404D01*
Y168974D01*
X149313D01*
Y169019D01*
X149267D01*
Y169065D01*
X149176D01*
Y169111D01*
X149085D01*
Y169156D01*
X148994D01*
Y169202D01*
X148948D01*
Y169247D01*
X148857D01*
Y169293D01*
X148766D01*
Y169339D01*
X148674D01*
Y169384D01*
X148583D01*
Y169430D01*
X148492D01*
Y169475D01*
X148355D01*
Y169521D01*
X148264D01*
Y169567D01*
X148219D01*
Y169612D01*
X148082D01*
Y169658D01*
X147991D01*
Y169703D01*
X147854D01*
Y169749D01*
X147808D01*
Y169794D01*
X147672D01*
Y169840D01*
X147581D01*
Y169886D01*
X147489D01*
Y169931D01*
X147307D01*
Y169977D01*
X147216D01*
Y170022D01*
X147079D01*
Y170068D01*
X146942D01*
Y170114D01*
X146851D01*
Y170159D01*
X146669D01*
Y170205D01*
X146578D01*
Y170250D01*
X146441D01*
Y170296D01*
X146259D01*
Y170341D01*
X146076D01*
Y170387D01*
X145894D01*
Y170432D01*
X145757D01*
Y170478D01*
X145484D01*
Y170524D01*
X145393D01*
Y170569D01*
X145119D01*
Y170615D01*
X144846D01*
Y170660D01*
X144663D01*
Y170706D01*
X144207D01*
Y170752D01*
X143980D01*
Y170797D01*
X143159D01*
Y170843D01*
X141883D01*
Y170797D01*
X141062D01*
Y170752D01*
X140789D01*
Y170706D01*
X140470D01*
Y170660D01*
X140242D01*
Y170615D01*
X140105D01*
Y170569D01*
X139786D01*
Y170524D01*
X139604D01*
Y170478D01*
X139330D01*
Y170432D01*
X139239D01*
Y170387D01*
X139057D01*
Y170341D01*
X138874D01*
Y170296D01*
X138783D01*
Y170250D01*
X138555D01*
Y170205D01*
X138464D01*
Y170159D01*
X138282D01*
Y170114D01*
X138145D01*
Y170068D01*
X138008D01*
Y170022D01*
X137872D01*
Y169977D01*
X137780D01*
Y169931D01*
X137644D01*
Y169886D01*
X137553D01*
Y169840D01*
X137416D01*
Y169794D01*
X137325D01*
Y169749D01*
X137233D01*
Y169703D01*
X137097D01*
Y169658D01*
X137006D01*
Y169612D01*
X136869D01*
Y169567D01*
X136778D01*
Y169521D01*
X136641D01*
Y169475D01*
X136595D01*
Y169430D01*
X136504D01*
Y169384D01*
X136413D01*
Y169339D01*
X136322D01*
Y169293D01*
X136231D01*
Y169247D01*
X136140D01*
Y169202D01*
X136094D01*
Y169156D01*
X135957D01*
Y169111D01*
X135912D01*
Y169065D01*
X135820D01*
Y169019D01*
X135729D01*
Y168974D01*
X135684D01*
Y168928D01*
X135593D01*
Y168883D01*
X135501D01*
Y168837D01*
X135410D01*
Y168792D01*
X135365D01*
Y168746D01*
X135274D01*
Y168701D01*
X135182D01*
Y168655D01*
X135137D01*
Y168609D01*
X135091D01*
Y168564D01*
X135000D01*
Y168518D01*
X134909D01*
Y168473D01*
X134863D01*
Y168427D01*
X134818D01*
Y168381D01*
X134727D01*
Y168336D01*
X134681D01*
Y168290D01*
X134544D01*
Y168245D01*
X134499D01*
Y168199D01*
X134453D01*
Y168154D01*
X134362D01*
Y168108D01*
X134316D01*
Y168062D01*
X134271D01*
Y167971D01*
X134316D01*
Y167926D01*
X134362D01*
Y167880D01*
X134407D01*
Y167834D01*
X134453D01*
Y167789D01*
X134499D01*
Y167743D01*
X134544D01*
Y167698D01*
X134590D01*
Y167652D01*
X134635D01*
Y167606D01*
X134681D01*
Y167561D01*
X134727D01*
Y167515D01*
X134772D01*
Y167470D01*
X134818D01*
Y167424D01*
X134863D01*
Y167379D01*
X134909D01*
Y167333D01*
X134954D01*
Y167287D01*
X135000D01*
Y167242D01*
X135046D01*
Y167196D01*
X135091D01*
Y167151D01*
X135137D01*
Y167105D01*
X135182D01*
Y167060D01*
X135228D01*
Y167014D01*
X135274D01*
Y166968D01*
X135319D01*
Y166923D01*
X135365D01*
Y166877D01*
X135410D01*
Y166832D01*
X135456D01*
Y166786D01*
X135501D01*
Y166741D01*
X135547D01*
Y166695D01*
X135593D01*
Y166649D01*
X135638D01*
Y166604D01*
X135684D01*
Y166558D01*
X135729D01*
Y166513D01*
X135775D01*
Y166467D01*
X135820D01*
Y166421D01*
X135866D01*
Y166376D01*
X135912D01*
Y166330D01*
X135957D01*
Y166285D01*
X136003D01*
Y166239D01*
X136048D01*
Y166193D01*
X136094D01*
Y166148D01*
X136140D01*
Y166102D01*
X136185D01*
Y166057D01*
X136231D01*
Y166011D01*
X136276D01*
Y165966D01*
X136322D01*
Y165920D01*
X136367D01*
Y165874D01*
X136413D01*
Y165829D01*
X136459D01*
Y165783D01*
X136504D01*
Y165738D01*
X136550D01*
Y165692D01*
X136595D01*
Y165647D01*
X136641D01*
Y165601D01*
X136687D01*
Y165555D01*
X136732D01*
Y165510D01*
X136778D01*
Y165464D01*
X136823D01*
Y165419D01*
X136869D01*
Y165373D01*
X136914D01*
Y165327D01*
X136960D01*
Y165282D01*
X137006D01*
Y165236D01*
X137051D01*
Y165191D01*
X137097D01*
Y165145D01*
X137325D01*
Y165191D01*
X137416D01*
Y165236D01*
X137461D01*
Y165282D01*
X137553D01*
Y165327D01*
X137598D01*
Y165373D01*
X137689D01*
Y165419D01*
X137780D01*
Y165464D01*
X137826D01*
Y165510D01*
X137917D01*
Y165555D01*
X138008D01*
Y165601D01*
X138145D01*
Y165647D01*
X138236D01*
Y165692D01*
X138327D01*
Y165738D01*
X138419D01*
Y165783D01*
X138510D01*
Y165829D01*
X138601D01*
Y165874D01*
X138692D01*
Y165920D01*
X138829D01*
Y165966D01*
X138966D01*
Y166011D01*
X139057D01*
Y166057D01*
X139193D01*
Y166102D01*
X139330D01*
Y166148D01*
X139421D01*
Y166193D01*
X139604D01*
Y166239D01*
X139741D01*
Y166285D01*
X139923D01*
Y166330D01*
X140059D01*
Y166376D01*
X140287D01*
Y166421D01*
X140470D01*
Y166467D01*
X140652D01*
Y166513D01*
X140926D01*
Y166558D01*
X141108D01*
Y166604D01*
X141564D01*
Y166649D01*
X141837D01*
Y166695D01*
X142886D01*
Y166649D01*
X143615D01*
Y166604D01*
X144071D01*
Y166558D01*
X144344D01*
Y166513D01*
X144572D01*
Y166467D01*
X144754D01*
Y166421D01*
X144891D01*
Y166376D01*
X145119D01*
Y166330D01*
X145256D01*
Y166285D01*
X145393D01*
Y166239D01*
X145529D01*
Y166193D01*
X145666D01*
Y166148D01*
X145848D01*
Y166102D01*
X145940D01*
Y166057D01*
X146076D01*
Y166011D01*
X146213D01*
Y165966D01*
X146304D01*
Y165920D01*
X146395D01*
Y165874D01*
X146486D01*
Y165829D01*
X146623D01*
Y165783D01*
X146714D01*
Y165738D01*
X146851D01*
Y165692D01*
X146897D01*
Y165647D01*
X146988D01*
Y165601D01*
X147079D01*
Y165555D01*
X147170D01*
Y165510D01*
X147261D01*
Y165464D01*
X147353D01*
Y165419D01*
X147444D01*
Y165373D01*
X147535D01*
Y165327D01*
X147581D01*
Y165282D01*
X147672D01*
Y165236D01*
X147763D01*
Y165191D01*
X147808D01*
Y165145D01*
X147854D01*
Y165100D01*
X147945D01*
Y165054D01*
X148036D01*
Y165008D01*
X148127D01*
Y164963D01*
X148173D01*
Y164917D01*
X148219D01*
Y164872D01*
X148264D01*
Y164826D01*
X148355D01*
Y164780D01*
X148401D01*
Y164735D01*
X148492D01*
Y164689D01*
X148538D01*
Y164644D01*
X148583D01*
Y164598D01*
X148629D01*
Y164552D01*
X148720D01*
Y164507D01*
X148766D01*
Y164461D01*
X148811D01*
Y164416D01*
X148857D01*
Y164370D01*
X148948D01*
Y164325D01*
X148994D01*
Y164279D01*
X149039D01*
Y164234D01*
X149085D01*
Y164188D01*
X149130D01*
Y164142D01*
X149176D01*
Y164097D01*
X149221D01*
Y164051D01*
X149267D01*
Y164006D01*
X149313D01*
Y163960D01*
X149358D01*
Y163914D01*
X149404D01*
Y163869D01*
X149495D01*
Y163778D01*
X149540D01*
Y163732D01*
X149586D01*
Y163687D01*
X149632D01*
Y163595D01*
X149677D01*
Y163504D01*
X149723D01*
Y163459D01*
X149768D01*
Y163322D01*
X149814D01*
Y163231D01*
X149859D01*
Y163094D01*
X149905D01*
Y162912D01*
X149951D01*
Y162593D01*
X149996D01*
Y162501D01*
X149951D01*
Y162091D01*
X149905D01*
Y161954D01*
X149859D01*
Y161818D01*
X149814D01*
Y161726D01*
X149768D01*
Y161635D01*
X149814D01*
Y161590D01*
X149859D01*
Y161544D01*
X149905D01*
Y161499D01*
X149951D01*
Y161453D01*
X150042D01*
Y161407D01*
X150087D01*
Y161362D01*
X150133D01*
Y161316D01*
X150179D01*
Y161271D01*
X150224D01*
Y161225D01*
X150315D01*
Y161179D01*
X150361D01*
Y161134D01*
X150407D01*
Y161088D01*
X150452D01*
Y161043D01*
X150543D01*
Y160997D01*
X150589D01*
Y160952D01*
X150634D01*
Y160906D01*
X150680D01*
Y160861D01*
X150817D01*
Y160815D01*
X151090D01*
Y160769D01*
X151318D01*
Y160724D01*
X151546D01*
Y160678D01*
X151820D01*
Y160633D01*
X152002D01*
Y160587D01*
X152047D01*
Y160541D01*
X152093D01*
Y160496D01*
X152139D01*
Y160359D01*
X152093D01*
Y160313D01*
X152047D01*
Y160222D01*
X152002D01*
Y160177D01*
X151683D01*
Y160222D01*
X151455D01*
Y160268D01*
X151227D01*
Y160313D01*
X151090D01*
Y160268D01*
X151045D01*
Y160086D01*
X151090D01*
Y159994D01*
X151136D01*
Y159858D01*
X151181D01*
Y159721D01*
X151227D01*
Y159630D01*
X151273D01*
Y159447D01*
X151318D01*
Y159356D01*
X151273D01*
Y159265D01*
X151227D01*
Y159220D01*
X150953D01*
Y159265D01*
X150908D01*
Y159311D01*
X150862D01*
Y159402D01*
X150817D01*
Y159493D01*
X150771D01*
Y159630D01*
X150726D01*
Y159766D01*
X150680D01*
Y159858D01*
X150634D01*
Y159994D01*
X150589D01*
Y160131D01*
X150543D01*
Y160268D01*
X150498D01*
Y160359D01*
X150452D01*
Y160496D01*
X150407D01*
Y160541D01*
X150361D01*
Y160587D01*
X150315D01*
Y160633D01*
X150224D01*
Y160678D01*
X150179D01*
Y160724D01*
X150133D01*
Y160769D01*
X150042D01*
Y160815D01*
X149996D01*
Y160861D01*
X149951D01*
Y160906D01*
X149905D01*
Y160952D01*
X149814D01*
Y160997D01*
X149768D01*
Y161043D01*
X149723D01*
Y161088D01*
X149677D01*
Y161134D01*
X149632D01*
Y161179D01*
X149540D01*
Y161225D01*
X149495D01*
Y161271D01*
X149358D01*
Y161225D01*
X149313D01*
Y161179D01*
X149267D01*
Y161134D01*
X149221D01*
Y161088D01*
X149176D01*
Y161043D01*
X149085D01*
Y160997D01*
X149039D01*
Y160952D01*
X148902D01*
Y160906D01*
X148857D01*
Y160861D01*
X148674D01*
Y160815D01*
X148538D01*
Y160769D01*
X148401D01*
Y160724D01*
X147717D01*
Y160769D01*
X147581D01*
Y160815D01*
X147444D01*
Y160861D01*
X147307D01*
Y160906D01*
X147261D01*
Y160952D01*
X147125D01*
Y160997D01*
X147079D01*
Y161043D01*
X147034D01*
Y161088D01*
X146988D01*
Y161134D01*
X146942D01*
Y161179D01*
X146897D01*
Y161225D01*
X146851D01*
Y161271D01*
X146760D01*
Y161316D01*
X146714D01*
Y161362D01*
X146669D01*
Y161407D01*
X146578D01*
Y161453D01*
X146532D01*
Y161499D01*
X146486D01*
Y161544D01*
X146441D01*
Y161590D01*
X146350D01*
Y161635D01*
X146304D01*
Y161681D01*
X146259D01*
Y161726D01*
X146213D01*
Y161772D01*
X146167D01*
Y161818D01*
X146076D01*
Y161863D01*
X145985D01*
Y161909D01*
X145940D01*
Y161954D01*
X145848D01*
Y162000D01*
X145803D01*
Y162046D01*
X145712D01*
Y162091D01*
X145666D01*
Y162137D01*
X145575D01*
Y162182D01*
X145529D01*
Y162228D01*
X145438D01*
Y162274D01*
X145347D01*
Y162319D01*
X145256D01*
Y162365D01*
X145119D01*
Y162410D01*
X145028D01*
Y162456D01*
X144937D01*
Y162501D01*
X144846D01*
Y162547D01*
X144754D01*
Y162593D01*
X144618D01*
Y162638D01*
X144481D01*
Y162684D01*
X144299D01*
Y162729D01*
X144116D01*
Y162775D01*
X144025D01*
Y162820D01*
X143752D01*
Y162866D01*
X143569D01*
Y162912D01*
X143205D01*
Y162957D01*
X142521D01*
Y163003D01*
X142202D01*
Y162957D01*
X141883D01*
Y162912D01*
X141381D01*
Y162866D01*
X141245D01*
Y162820D01*
X141017D01*
Y162775D01*
X140880D01*
Y162729D01*
X140698D01*
Y162684D01*
X140561D01*
Y162638D01*
X140470D01*
Y162593D01*
X140333D01*
Y162547D01*
X140242D01*
Y162501D01*
X140105D01*
Y162456D01*
X140014D01*
Y162410D01*
X139923D01*
Y162365D01*
X139786D01*
Y162319D01*
X139741D01*
Y162274D01*
X139604D01*
Y162228D01*
X139558D01*
Y162182D01*
X139467D01*
Y162137D01*
X139421D01*
Y162091D01*
X139376D01*
Y162046D01*
X139285D01*
Y162000D01*
X139239D01*
Y161954D01*
X139148D01*
Y161909D01*
X139102D01*
Y161863D01*
X139057D01*
Y161818D01*
X138966D01*
Y161772D01*
X138920D01*
Y161726D01*
X138829D01*
Y161681D01*
X138783D01*
Y161635D01*
X138738D01*
Y161590D01*
X138692D01*
Y161544D01*
X138646D01*
Y161499D01*
X138601D01*
Y161453D01*
X138555D01*
Y161407D01*
X138510D01*
Y161362D01*
X138464D01*
Y161316D01*
X138419D01*
Y161271D01*
X138373D01*
Y161225D01*
X138327D01*
Y161179D01*
X138282D01*
Y161134D01*
X138236D01*
Y161088D01*
X138191D01*
Y161043D01*
X138100D01*
Y160997D01*
X138054D01*
Y160952D01*
X138008D01*
Y160906D01*
X137963D01*
Y160861D01*
X137917D01*
Y160815D01*
X137872D01*
Y160769D01*
X137826D01*
Y160724D01*
X137780D01*
Y160678D01*
X137735D01*
Y160633D01*
X137689D01*
Y160587D01*
X137644D01*
Y160541D01*
X137598D01*
Y160496D01*
X137553D01*
Y160450D01*
X137507D01*
Y160405D01*
X137461D01*
Y160359D01*
X137416D01*
Y160313D01*
X137370D01*
Y160268D01*
X137325D01*
Y160222D01*
X137279D01*
Y160177D01*
X137188D01*
Y160131D01*
X137051D01*
Y160086D01*
X137006D01*
Y160131D01*
X136869D01*
Y160177D01*
X136778D01*
Y160222D01*
X136732D01*
Y160268D01*
X136687D01*
Y160313D01*
X136641D01*
Y160359D01*
X136595D01*
Y160405D01*
X136550D01*
Y160450D01*
X136504D01*
Y160496D01*
X136459D01*
Y160541D01*
X136413D01*
Y160587D01*
X136367D01*
Y160633D01*
X136322D01*
Y160678D01*
X136276D01*
Y160724D01*
X136231D01*
Y160769D01*
X136185D01*
Y160815D01*
X136140D01*
Y160861D01*
X136094D01*
Y160906D01*
X136048D01*
Y160952D01*
X136003D01*
Y160997D01*
X135957D01*
Y161043D01*
X135912D01*
Y161088D01*
X135866D01*
Y161134D01*
X135820D01*
Y161179D01*
X135775D01*
Y161225D01*
X135729D01*
Y161271D01*
X135684D01*
Y161316D01*
X135638D01*
Y161362D01*
X135593D01*
Y161407D01*
X135547D01*
Y161453D01*
X135501D01*
Y161499D01*
X135456D01*
Y161544D01*
X135410D01*
Y161590D01*
X135365D01*
Y161635D01*
X135319D01*
Y161681D01*
X135274D01*
Y161726D01*
X135228D01*
Y161772D01*
X135182D01*
Y161818D01*
X135137D01*
Y161863D01*
X135091D01*
Y161909D01*
X135046D01*
Y161954D01*
X135000D01*
Y162000D01*
X134954D01*
Y162046D01*
X134909D01*
Y162091D01*
X134863D01*
Y162137D01*
X134818D01*
Y162182D01*
X134772D01*
Y162228D01*
X134727D01*
Y162274D01*
X134681D01*
Y162319D01*
X134635D01*
Y162365D01*
X134590D01*
Y162410D01*
X134544D01*
Y162456D01*
X134499D01*
Y162501D01*
X134453D01*
Y162547D01*
X134407D01*
Y162593D01*
X134362D01*
Y162638D01*
X134316D01*
Y162684D01*
X134271D01*
Y162729D01*
X134225D01*
Y162775D01*
X134179D01*
Y162820D01*
X134134D01*
Y162866D01*
X134088D01*
Y162912D01*
X134043D01*
Y162957D01*
X133997D01*
Y163003D01*
X133952D01*
Y163048D01*
X133906D01*
Y163094D01*
X133861D01*
Y163139D01*
X133815D01*
Y163185D01*
X133769D01*
Y163231D01*
X133724D01*
Y163276D01*
X133678D01*
Y163322D01*
X133633D01*
Y163367D01*
X133587D01*
Y163413D01*
X133541D01*
Y163459D01*
X133496D01*
Y163504D01*
X133450D01*
Y163550D01*
X133405D01*
Y163595D01*
X133359D01*
Y163641D01*
X133314D01*
Y163687D01*
X133268D01*
Y163732D01*
X133222D01*
Y163778D01*
X133177D01*
Y163823D01*
X133131D01*
Y163869D01*
X133086D01*
Y163914D01*
X133040D01*
Y163960D01*
X132994D01*
Y164006D01*
X132949D01*
Y164051D01*
X132903D01*
Y164097D01*
X132858D01*
Y164142D01*
X132812D01*
Y164188D01*
X132766D01*
Y164234D01*
X132721D01*
Y164279D01*
X132675D01*
Y164325D01*
X132630D01*
Y164370D01*
X132584D01*
Y164416D01*
X132539D01*
Y164461D01*
X132493D01*
Y164507D01*
X132447D01*
Y164552D01*
X132402D01*
Y164598D01*
X132356D01*
Y164644D01*
X132311D01*
Y164689D01*
X132265D01*
Y164735D01*
X132220D01*
Y164780D01*
X132174D01*
Y164826D01*
X132128D01*
Y164872D01*
X132083D01*
Y164917D01*
X132037D01*
Y164963D01*
X131992D01*
Y165008D01*
X131946D01*
Y165054D01*
X131901D01*
Y165100D01*
X131855D01*
Y165145D01*
X131809D01*
Y165191D01*
X131764D01*
Y165236D01*
X131718D01*
Y165282D01*
X131673D01*
Y165327D01*
X131627D01*
Y165373D01*
X131581D01*
Y165419D01*
X131536D01*
Y165464D01*
X131490D01*
Y165510D01*
X131445D01*
Y165555D01*
X131399D01*
Y165601D01*
X131353D01*
Y165647D01*
X131308D01*
Y165692D01*
X131262D01*
Y165738D01*
X131217D01*
Y165783D01*
X131171D01*
Y165829D01*
X131126D01*
Y165874D01*
X131080D01*
Y165920D01*
X131034D01*
Y165966D01*
X130989D01*
Y166011D01*
X130943D01*
Y166057D01*
X130898D01*
Y166102D01*
X130852D01*
Y166148D01*
X130807D01*
Y166193D01*
X130761D01*
Y166239D01*
X130715D01*
Y166285D01*
X130670D01*
Y166330D01*
X130624D01*
Y166376D01*
X130579D01*
Y166421D01*
X130533D01*
Y166467D01*
X130487D01*
Y166513D01*
X130442D01*
Y166558D01*
X130396D01*
Y166604D01*
X130351D01*
Y166649D01*
X130305D01*
Y166695D01*
X130260D01*
Y166741D01*
X130214D01*
Y166786D01*
X130168D01*
Y166832D01*
X130123D01*
Y166877D01*
X130077D01*
Y166968D01*
X129986D01*
Y167014D01*
X129940D01*
Y167060D01*
X129895D01*
Y167105D01*
X129849D01*
Y167151D01*
X129804D01*
Y167196D01*
X129758D01*
Y167287D01*
X129667D01*
Y167333D01*
X129621D01*
Y167379D01*
X129576D01*
Y167424D01*
X129530D01*
Y167515D01*
X129439D01*
Y167561D01*
X129393D01*
Y167606D01*
X129348D01*
Y167652D01*
X129302D01*
Y167743D01*
X129211D01*
Y167834D01*
X129166D01*
Y167880D01*
X129120D01*
Y167926D01*
X129074D01*
Y168062D01*
X129029D01*
Y168199D01*
X129074D01*
Y168336D01*
X129120D01*
Y168381D01*
X129166D01*
Y168473D01*
X129211D01*
Y168518D01*
X129257D01*
Y168564D01*
X129302D01*
Y168609D01*
X129393D01*
Y168655D01*
X129439D01*
Y168701D01*
X129485D01*
Y168746D01*
X129530D01*
Y168792D01*
X129576D01*
Y168837D01*
X129621D01*
Y168883D01*
X129667D01*
Y168928D01*
X129713D01*
Y168974D01*
X129758D01*
Y169019D01*
X129804D01*
Y169065D01*
X129849D01*
Y169111D01*
X129895D01*
Y169156D01*
X129940D01*
Y169202D01*
X129986D01*
Y169247D01*
X130077D01*
Y169339D01*
X130168D01*
Y169430D01*
X130260D01*
Y169475D01*
X130305D01*
Y169521D01*
X130351D01*
Y169567D01*
X130396D01*
Y169612D01*
X130442D01*
Y169658D01*
X130487D01*
Y169703D01*
X130533D01*
Y169749D01*
X130579D01*
Y169794D01*
X130670D01*
Y169840D01*
X130715D01*
Y169886D01*
X130761D01*
Y169931D01*
X130807D01*
Y169977D01*
X130898D01*
Y170022D01*
X130943D01*
Y170068D01*
X130989D01*
Y170114D01*
X131034D01*
Y170159D01*
X131080D01*
Y170205D01*
X131126D01*
Y170250D01*
X131171D01*
Y170296D01*
X131262D01*
Y170341D01*
X131308D01*
Y170387D01*
X131353D01*
Y170432D01*
X131399D01*
Y170478D01*
X131445D01*
Y170524D01*
X131536D01*
Y170569D01*
X131581D01*
Y170615D01*
X131627D01*
Y170660D01*
X131718D01*
Y170706D01*
X131764D01*
Y170752D01*
X131809D01*
Y170797D01*
X131901D01*
Y170843D01*
X131946D01*
Y170888D01*
X132037D01*
Y170934D01*
X132083D01*
Y170979D01*
X132128D01*
Y171025D01*
X132174D01*
Y171071D01*
X132265D01*
Y171116D01*
X132311D01*
Y171162D01*
X132402D01*
Y171207D01*
X132447D01*
Y171253D01*
X132493D01*
Y171299D01*
X132584D01*
Y171344D01*
X132630D01*
Y171390D01*
X132675D01*
Y171435D01*
X132721D01*
Y171481D01*
X132812D01*
Y171527D01*
X132903D01*
Y171572D01*
X132949D01*
Y171618D01*
X132994D01*
Y171663D01*
X133086D01*
Y171709D01*
X133177D01*
Y171754D01*
X133268D01*
Y171800D01*
X133314D01*
Y171846D01*
X133405D01*
Y171891D01*
X133496D01*
Y171937D01*
X133541D01*
Y171982D01*
X133633D01*
Y172028D01*
X133678D01*
Y172073D01*
X133769D01*
Y172119D01*
X133861D01*
Y172165D01*
X133906D01*
Y172210D01*
X133997D01*
Y172256D01*
X134088D01*
Y172301D01*
X134134D01*
Y172347D01*
X134225D01*
Y172393D01*
X134316D01*
Y172438D01*
X134407D01*
Y172484D01*
X134499D01*
Y172529D01*
X134590D01*
Y172575D01*
X134635D01*
Y172620D01*
X134772D01*
Y172666D01*
X134818D01*
Y172712D01*
X134954D01*
Y172757D01*
X135000D01*
Y172803D01*
X135091D01*
Y172848D01*
X135182D01*
Y172894D01*
X135274D01*
Y172940D01*
X135365D01*
Y172985D01*
X135456D01*
Y173031D01*
X135501D01*
Y173076D01*
X135638D01*
Y173122D01*
X135729D01*
Y173167D01*
X135866D01*
Y173213D01*
X135957D01*
Y173259D01*
X136094D01*
Y173304D01*
X136231D01*
Y173350D01*
X136322D01*
Y173395D01*
X136459D01*
Y173441D01*
X136550D01*
Y173486D01*
X136687D01*
Y173532D01*
X136778D01*
Y173578D01*
X136914D01*
Y173623D01*
X137006D01*
Y173669D01*
X137188D01*
Y173714D01*
X137370D01*
Y173760D01*
X137461D01*
Y173806D01*
X137644D01*
Y173851D01*
X137780D01*
Y173897D01*
X137917D01*
Y173942D01*
X138145D01*
Y173988D01*
X138236D01*
Y174033D01*
X138419D01*
Y174079D01*
X138555D01*
Y174125D01*
X138738D01*
Y174170D01*
X139102D01*
Y174216D01*
X139285D01*
Y174261D01*
X139649D01*
Y174307D01*
X139877D01*
Y174353D01*
X140105D01*
Y174398D01*
X140698D01*
Y174444D01*
X141154D01*
Y174489D01*
X141883D01*
Y174535D01*
X142612D01*
Y174489D01*
X144116D01*
Y174444D01*
X144390D01*
Y174398D01*
X144800D01*
Y174353D01*
X145165D01*
Y174307D01*
X145484D01*
Y174261D01*
X145803D01*
Y174216D01*
X145940D01*
Y174170D01*
X146167D01*
Y174125D01*
X146395D01*
Y174079D01*
X146532D01*
Y174033D01*
X146806D01*
Y173988D01*
X146988D01*
Y173942D01*
X147170D01*
Y173897D01*
X147353D01*
Y173851D01*
X147489D01*
Y173806D01*
X147626D01*
Y173760D01*
X147763D01*
Y173714D01*
X147899D01*
Y173669D01*
X147991D01*
Y173623D01*
X148127D01*
Y173578D01*
X148264D01*
Y173532D01*
X148401D01*
Y173486D01*
X148583D01*
Y173441D01*
X148674D01*
Y173395D01*
X148811D01*
Y173350D01*
X148948D01*
Y173304D01*
X149039D01*
Y173259D01*
X149176D01*
Y173213D01*
X149267D01*
Y173167D01*
X149358D01*
Y173122D01*
X149495D01*
Y173076D01*
X149586D01*
Y173031D01*
X149677D01*
Y172985D01*
X149768D01*
Y172940D01*
X149905D01*
Y172894D01*
X149951D01*
Y172848D01*
X150087D01*
Y172803D01*
X150179D01*
Y172757D01*
X150315D01*
Y172712D01*
X150407D01*
Y172666D01*
X150498D01*
Y172620D01*
X150589D01*
Y172575D01*
X150680D01*
Y172529D01*
X150771D01*
Y172484D01*
X150817D01*
Y172438D01*
X150908D01*
Y172393D01*
X150999D01*
Y172347D01*
X151045D01*
Y172301D01*
X151136D01*
Y172256D01*
X151227D01*
Y172210D01*
X151318D01*
Y172165D01*
X151364D01*
Y172119D01*
X151455D01*
Y172073D01*
X151546D01*
Y172028D01*
X151592D01*
Y171982D01*
X151683D01*
Y171937D01*
X151774D01*
Y171891D01*
X151820D01*
Y171846D01*
X151911D01*
Y171800D01*
X152002D01*
Y171754D01*
X152093D01*
Y171709D01*
X152139D01*
Y171663D01*
X152184D01*
Y171618D01*
X152275D01*
Y171572D01*
X152366D01*
Y171527D01*
X152412D01*
Y171481D01*
X152458D01*
Y171435D01*
X152549D01*
Y171390D01*
X152594D01*
Y171344D01*
X152686D01*
Y171299D01*
X152731D01*
Y171253D01*
X152777D01*
Y171207D01*
X152868D01*
Y171162D01*
X152913D01*
Y171116D01*
X152959D01*
Y171071D01*
X153050D01*
Y171025D01*
X153141D01*
Y170979D01*
X153187D01*
Y170934D01*
X153233D01*
Y170888D01*
X153278D01*
Y170843D01*
X153369D01*
Y170797D01*
X153461D01*
Y170752D01*
X153506D01*
Y170706D01*
X153643D01*
Y170752D01*
X153688D01*
Y170797D01*
X153734D01*
Y170843D01*
X153779D01*
Y170888D01*
X153825D01*
Y170934D01*
X153871D01*
Y170979D01*
X153916D01*
Y171025D01*
X153962D01*
Y171071D01*
X154007D01*
Y171116D01*
X154053D01*
Y171162D01*
X154099D01*
Y171207D01*
X154144D01*
Y171253D01*
X154190D01*
Y171299D01*
X154235D01*
Y171344D01*
X154281D01*
Y171390D01*
X154326D01*
Y171435D01*
X154372D01*
Y171481D01*
X154418D01*
Y171527D01*
X154463D01*
Y171572D01*
X154509D01*
Y171618D01*
X154554D01*
Y171663D01*
X154600D01*
Y171709D01*
X154646D01*
Y171754D01*
X154691D01*
Y171800D01*
X154737D01*
Y171846D01*
X154782D01*
Y171891D01*
X154828D01*
Y171937D01*
X154874D01*
Y171982D01*
X154919D01*
Y172028D01*
X154965D01*
Y172073D01*
X155010D01*
Y172119D01*
X155056D01*
Y172165D01*
X155101D01*
Y172210D01*
X155147D01*
Y172256D01*
X155193D01*
Y172301D01*
X155238D01*
Y172347D01*
X155284D01*
Y172393D01*
X155329D01*
Y172438D01*
X155375D01*
Y172484D01*
X155420D01*
Y172529D01*
X155466D01*
Y172575D01*
X155512D01*
Y172620D01*
X155557D01*
Y172666D01*
X155603D01*
Y172712D01*
X155648D01*
Y172757D01*
X155694D01*
Y172803D01*
X155739D01*
Y172848D01*
X155785D01*
Y172894D01*
X155831D01*
Y172940D01*
X155876D01*
Y172985D01*
X155922D01*
Y173031D01*
X155967D01*
Y173076D01*
X156013D01*
Y173122D01*
X156059D01*
Y173167D01*
X156104D01*
Y173213D01*
X156150D01*
Y173259D01*
X156195D01*
Y173304D01*
X156241D01*
Y173350D01*
X156287D01*
Y173395D01*
X156332D01*
Y173441D01*
X156378D01*
Y173486D01*
X156423D01*
Y173532D01*
X156469D01*
Y173623D01*
X156423D01*
Y173669D01*
X156378D01*
Y173714D01*
X156332D01*
Y173760D01*
X156241D01*
Y173806D01*
X156195D01*
Y173851D01*
X156150D01*
Y173897D01*
X156104D01*
Y173942D01*
X156013D01*
Y173988D01*
X155967D01*
Y174033D01*
X155922D01*
Y174079D01*
X155876D01*
Y174125D01*
X155785D01*
Y174170D01*
X155739D01*
Y174216D01*
X155694D01*
Y174261D01*
X155648D01*
Y174307D01*
X155557D01*
Y174353D01*
X155512D01*
Y174398D01*
X155420D01*
Y174444D01*
X155375D01*
Y174489D01*
X155329D01*
Y174535D01*
X155238D01*
Y174581D01*
X155193D01*
Y174626D01*
X155101D01*
Y174672D01*
X155056D01*
Y174717D01*
X155010D01*
Y174763D01*
X154965D01*
Y174808D01*
X154874D01*
Y174854D01*
X154782D01*
Y174899D01*
X154737D01*
Y174945D01*
X154646D01*
Y174991D01*
X154600D01*
Y175036D01*
X154509D01*
Y175082D01*
X154418D01*
Y175127D01*
X154372D01*
Y175173D01*
X154281D01*
Y175219D01*
X154235D01*
Y175264D01*
X154144D01*
Y175310D01*
X154099D01*
Y175355D01*
X154007D01*
Y175401D01*
X153916D01*
Y175446D01*
X153871D01*
Y175492D01*
X153779D01*
Y175538D01*
X153734D01*
Y175583D01*
X153643D01*
Y175629D01*
X153552D01*
Y175674D01*
X153506D01*
Y175720D01*
X153369D01*
Y175766D01*
X153324D01*
Y175811D01*
X153233D01*
Y175857D01*
X153187D01*
Y175902D01*
X153096D01*
Y175948D01*
X153005D01*
Y175994D01*
X152959D01*
Y176039D01*
X152822D01*
Y176085D01*
X152731D01*
Y176130D01*
X152686D01*
Y176176D01*
X152549D01*
Y176221D01*
X152503D01*
Y176267D01*
X152366D01*
Y176313D01*
X152321D01*
Y176358D01*
X152230D01*
Y176404D01*
X152139D01*
Y176449D01*
X152047D01*
Y176495D01*
X151911D01*
Y176541D01*
X151865D01*
Y176586D01*
X151728D01*
Y176632D01*
X151683D01*
Y176677D01*
X151592D01*
Y176723D01*
X151455D01*
Y176768D01*
X151409D01*
Y176814D01*
X151273D01*
Y176859D01*
X151227D01*
Y176905D01*
X151090D01*
Y176951D01*
X150953D01*
Y176996D01*
X150862D01*
Y177042D01*
X150726D01*
Y177087D01*
X150680D01*
Y177133D01*
X150543D01*
Y177179D01*
X150452D01*
Y177224D01*
X150361D01*
Y177270D01*
X150224D01*
Y177315D01*
X150087D01*
Y177361D01*
X149951D01*
Y177407D01*
X149859D01*
Y177452D01*
X149723D01*
Y177498D01*
X149586D01*
Y177543D01*
X149540D01*
Y177589D01*
X149358D01*
Y177634D01*
X149221D01*
Y177680D01*
X149085D01*
Y177726D01*
X148948D01*
Y177771D01*
X148857D01*
Y177817D01*
X148674D01*
Y177862D01*
X148583D01*
Y177908D01*
X148401D01*
Y177954D01*
X148264D01*
Y177999D01*
X148082D01*
Y178045D01*
X147899D01*
Y178090D01*
X147808D01*
Y178136D01*
X147535D01*
Y178181D01*
X147444D01*
Y178227D01*
X147170D01*
Y178273D01*
X147034D01*
Y178318D01*
X146897D01*
Y178364D01*
X146578D01*
Y178409D01*
X146441D01*
Y178455D01*
X146122D01*
Y178500D01*
X145940D01*
Y178546D01*
X145666D01*
Y178592D01*
X145438D01*
Y178637D01*
X145256D01*
Y178683D01*
X144846D01*
Y178728D01*
X144663D01*
Y178774D01*
X144207D01*
Y178820D01*
X143888D01*
Y178865D01*
X143615D01*
Y178911D01*
X142658D01*
Y178956D01*
X141655D01*
Y179002D01*
X140971D01*
Y178956D01*
X139968D01*
Y178911D01*
X139057D01*
Y178865D01*
X138738D01*
Y178820D01*
X138419D01*
Y178774D01*
X137963D01*
Y178728D01*
X137689D01*
Y178683D01*
X137279D01*
Y178637D01*
X137097D01*
Y178592D01*
X136914D01*
Y178546D01*
X136687D01*
Y178500D01*
X136504D01*
Y178455D01*
X136231D01*
Y178409D01*
X136094D01*
Y178364D01*
X135775D01*
Y178318D01*
X135638D01*
Y178273D01*
X135501D01*
Y178227D01*
X135274D01*
Y178181D01*
X135137D01*
Y178136D01*
X134954D01*
Y178090D01*
X134818D01*
Y178045D01*
X134681D01*
Y177999D01*
X134499D01*
Y177954D01*
X134407D01*
Y177908D01*
X134225D01*
Y177862D01*
X134134D01*
Y177817D01*
X133952D01*
Y177771D01*
X133815D01*
Y177726D01*
X133724D01*
Y177680D01*
X133541D01*
Y177634D01*
X133450D01*
Y177589D01*
X133314D01*
Y177543D01*
X133222D01*
Y177498D01*
X133086D01*
Y177452D01*
X132949D01*
Y177407D01*
X132858D01*
Y177361D01*
X132675D01*
Y177315D01*
X132630D01*
Y177270D01*
X132493D01*
Y177224D01*
X132402D01*
Y177179D01*
X132265D01*
Y177133D01*
X132174D01*
Y177087D01*
X132083D01*
Y177042D01*
X131992D01*
Y176996D01*
X131901D01*
Y176951D01*
X131809D01*
Y176905D01*
X131718D01*
Y176859D01*
X131627D01*
Y176814D01*
X131536D01*
Y176768D01*
X131445D01*
Y176723D01*
X131353D01*
Y176677D01*
X131262D01*
Y176632D01*
X131171D01*
Y176586D01*
X131034D01*
Y176541D01*
X130989D01*
Y176495D01*
X130852D01*
Y176449D01*
X130761D01*
Y176404D01*
X130670D01*
Y176358D01*
X130579D01*
Y176313D01*
X130533D01*
Y176267D01*
X130442D01*
Y176221D01*
X130396D01*
Y176176D01*
X130305D01*
Y176130D01*
X130214D01*
Y176085D01*
X130123D01*
Y176039D01*
X130032D01*
Y175994D01*
X129986D01*
Y175948D01*
X129895D01*
Y175902D01*
X129849D01*
Y175857D01*
X129758D01*
Y175811D01*
X129667D01*
Y175766D01*
X129621D01*
Y175720D01*
X129530D01*
Y175674D01*
X129485D01*
Y175629D01*
X129393D01*
Y175583D01*
X129348D01*
Y175538D01*
X129257D01*
Y175492D01*
X129166D01*
Y175446D01*
X129120D01*
Y175401D01*
X129074D01*
Y175355D01*
X128983D01*
Y175310D01*
X128892D01*
Y175264D01*
X128847D01*
Y175219D01*
X128801D01*
Y175173D01*
X128710D01*
Y175127D01*
X128664D01*
Y175082D01*
X128619D01*
Y175036D01*
X128527D01*
Y174991D01*
X128482D01*
Y174945D01*
X128391D01*
Y174899D01*
X128345D01*
Y174854D01*
X128299D01*
Y174808D01*
X128254D01*
Y174763D01*
X128163D01*
Y174717D01*
X128072D01*
Y174672D01*
X128026D01*
Y174626D01*
X127980D01*
Y174581D01*
X127935D01*
Y174535D01*
X127889D01*
Y174489D01*
X127844D01*
Y174444D01*
X127753D01*
Y174398D01*
X127707D01*
Y174353D01*
X127661D01*
Y174307D01*
X127616D01*
Y174261D01*
X127570D01*
Y174216D01*
X127479D01*
Y174170D01*
X127434D01*
Y174125D01*
X127388D01*
Y174079D01*
X127342D01*
Y174033D01*
X127297D01*
Y173988D01*
X127206D01*
Y173942D01*
X127160D01*
Y173897D01*
X127114D01*
Y173851D01*
X127069D01*
Y173806D01*
X127023D01*
Y173760D01*
X126978D01*
Y173714D01*
X126932D01*
Y173669D01*
X126886D01*
Y173623D01*
X126841D01*
Y173578D01*
X126795D01*
Y173532D01*
X126704D01*
Y173486D01*
X126659D01*
Y173441D01*
X126613D01*
Y173395D01*
X126567D01*
Y173350D01*
X126522D01*
Y173304D01*
X126476D01*
Y173259D01*
X126431D01*
Y173213D01*
X126339D01*
Y173167D01*
X126294D01*
Y173122D01*
X126248D01*
Y173076D01*
X126157D01*
Y173031D01*
X126066D01*
Y172985D01*
X125975D01*
Y172940D01*
X125838D01*
Y172894D01*
X125428D01*
Y172940D01*
X125291D01*
Y172985D01*
X125246D01*
Y173031D01*
X125200D01*
Y173076D01*
X125154D01*
Y173122D01*
X125109D01*
Y173167D01*
X125063D01*
Y173259D01*
X125018D01*
Y173350D01*
X124972D01*
Y173760D01*
X125018D01*
Y173851D01*
X125063D01*
Y173942D01*
X125109D01*
Y174033D01*
X125154D01*
Y174079D01*
X125200D01*
Y174125D01*
X125246D01*
Y174216D01*
X125291D01*
Y174261D01*
X125337D01*
Y174353D01*
X125382D01*
Y174398D01*
X125428D01*
Y174444D01*
X125473D01*
Y174489D01*
X125519D01*
Y174535D01*
X125565D01*
Y174581D01*
X125610D01*
Y174626D01*
X125656D01*
Y174672D01*
X125701D01*
Y174717D01*
X125793D01*
Y174808D01*
X125884D01*
Y174854D01*
X125929D01*
Y174945D01*
X126021D01*
Y175036D01*
X126112D01*
Y175082D01*
X126157D01*
Y175127D01*
X126203D01*
Y175173D01*
X126248D01*
Y175219D01*
X126294D01*
Y175264D01*
X126339D01*
Y175310D01*
X126385D01*
Y175355D01*
X126431D01*
Y175401D01*
X126476D01*
Y175446D01*
X126522D01*
Y175492D01*
X126567D01*
Y175538D01*
X126613D01*
Y175583D01*
X126704D01*
Y175629D01*
X126750D01*
Y175674D01*
X126795D01*
Y175720D01*
X126841D01*
Y175766D01*
X126886D01*
Y175811D01*
X126978D01*
Y175857D01*
X127023D01*
Y175902D01*
X127069D01*
Y175948D01*
X127114D01*
Y175994D01*
X127160D01*
Y176039D01*
X127251D01*
Y176085D01*
X127297D01*
Y176130D01*
X127342D01*
Y176176D01*
X127388D01*
Y176221D01*
X127434D01*
Y176267D01*
X127479D01*
Y176313D01*
X127570D01*
Y176358D01*
X127616D01*
Y176404D01*
X127661D01*
Y176449D01*
X127753D01*
Y176495D01*
X127798D01*
Y176541D01*
X127844D01*
Y176586D01*
X127889D01*
Y176632D01*
X127980D01*
Y176677D01*
X128026D01*
Y176723D01*
X128072D01*
Y176768D01*
X128163D01*
Y176814D01*
X128208D01*
Y176859D01*
X128254D01*
Y176905D01*
X128345D01*
Y176951D01*
X128391D01*
Y176996D01*
X128436D01*
Y177042D01*
X128482D01*
Y177087D01*
X128527D01*
Y177133D01*
X128619D01*
Y177179D01*
X128664D01*
Y177224D01*
X128755D01*
Y177270D01*
X128801D01*
Y177315D01*
X128847D01*
Y177361D01*
X128938D01*
Y177407D01*
X128983D01*
Y177452D01*
X129074D01*
Y177498D01*
X129120D01*
Y177543D01*
X129211D01*
Y177589D01*
X129257D01*
Y177634D01*
X129302D01*
Y177680D01*
X129348D01*
Y177726D01*
X129439D01*
Y177771D01*
X129530D01*
Y177817D01*
X129576D01*
Y177862D01*
X129621D01*
Y177908D01*
X129667D01*
Y177954D01*
X129758D01*
Y177999D01*
X129849D01*
Y178045D01*
X129895D01*
Y178090D01*
X129940D01*
Y178136D01*
X130032D01*
Y178181D01*
X130077D01*
Y178227D01*
X130168D01*
Y178273D01*
X130214D01*
Y178318D01*
X130305D01*
Y178364D01*
X130351D01*
Y178409D01*
X130442D01*
Y178455D01*
X130487D01*
Y178500D01*
X130579D01*
Y178546D01*
X130624D01*
Y178592D01*
X130715D01*
Y178637D01*
X130807D01*
Y178683D01*
X130852D01*
Y178728D01*
X130943D01*
Y178774D01*
X130989D01*
Y178820D01*
X131080D01*
Y178865D01*
X131171D01*
Y178911D01*
X131217D01*
Y178956D01*
X131353D01*
Y179002D01*
X131399D01*
Y179047D01*
X131445D01*
Y179093D01*
X131536D01*
Y179139D01*
X131627D01*
Y179184D01*
X131718D01*
Y179230D01*
X131764D01*
Y179275D01*
X131901D01*
Y179321D01*
X131946D01*
Y179367D01*
X132037D01*
Y179412D01*
X132128D01*
Y179458D01*
X132220D01*
Y179503D01*
X132311D01*
Y179549D01*
X132402D01*
Y179594D01*
X132447D01*
Y179640D01*
X132539D01*
Y179686D01*
X132630D01*
Y179731D01*
X132721D01*
Y179777D01*
X132812D01*
Y179822D01*
X132903D01*
Y179868D01*
X132994D01*
Y179913D01*
X133086D01*
Y179959D01*
X133177D01*
Y180005D01*
X133268D01*
Y180050D01*
X133359D01*
Y180096D01*
X133450D01*
Y180141D01*
X133541D01*
Y180187D01*
X133633D01*
Y180233D01*
X133724D01*
Y180278D01*
X133815D01*
Y180324D01*
X133906D01*
Y180369D01*
X133997D01*
Y180415D01*
X134088D01*
Y180461D01*
X134179D01*
Y180506D01*
X134362D01*
Y180552D01*
X134407D01*
Y180597D01*
X134544D01*
Y180643D01*
X134681D01*
Y180688D01*
X134772D01*
Y180734D01*
X134909D01*
Y180780D01*
X135000D01*
Y180825D01*
X135137D01*
Y180871D01*
X135228D01*
Y180916D01*
X135365D01*
Y180962D01*
X135501D01*
Y181007D01*
X135593D01*
Y181053D01*
X135775D01*
Y181099D01*
X135866D01*
Y181144D01*
X135957D01*
Y181190D01*
X136094D01*
Y181235D01*
X136231D01*
Y181281D01*
X136367D01*
Y181326D01*
X136504D01*
Y181372D01*
X136641D01*
Y181418D01*
X136823D01*
Y181463D01*
X136960D01*
Y181509D01*
X137142D01*
Y181554D01*
X137279D01*
Y181600D01*
X137461D01*
Y181646D01*
X137598D01*
Y181691D01*
X137780D01*
Y181737D01*
X137963D01*
Y181782D01*
X138145D01*
Y181828D01*
X138419D01*
Y181874D01*
X138555D01*
Y181919D01*
X138829D01*
Y181965D01*
X139011D01*
Y182010D01*
X139285D01*
Y182056D01*
X139604D01*
Y182101D01*
X139832D01*
Y182147D01*
X140242D01*
Y182193D01*
X140561D01*
Y182238D01*
X141108D01*
Y182284D01*
X141473D01*
Y182329D01*
X142293D01*
Y182375D01*
X144207D01*
Y182329D01*
D02*
G37*
G36*
X147945Y152747D02*
X147991D01*
Y152701D01*
X147945D01*
Y152656D01*
X147899D01*
Y152610D01*
X147034D01*
Y152656D01*
X146942D01*
Y154844D01*
X146806D01*
Y154798D01*
X146760D01*
Y154661D01*
X146714D01*
Y154616D01*
X146669D01*
Y154525D01*
X146623D01*
Y154434D01*
X146578D01*
Y154342D01*
X146532D01*
Y154297D01*
X146486D01*
Y154251D01*
X146441D01*
Y154114D01*
X146395D01*
Y154069D01*
X146350D01*
Y153978D01*
X146304D01*
Y153886D01*
X146259D01*
Y153795D01*
X146213D01*
Y153750D01*
X146167D01*
Y153704D01*
X146122D01*
Y153567D01*
X146076D01*
Y153522D01*
X146031D01*
Y153431D01*
X145985D01*
Y153385D01*
X145940D01*
Y153340D01*
X145848D01*
Y153294D01*
X145757D01*
Y153340D01*
X145666D01*
Y153385D01*
X145621D01*
Y153476D01*
X145575D01*
Y153567D01*
X145529D01*
Y153659D01*
X145484D01*
Y153750D01*
X145438D01*
Y153795D01*
X145393D01*
Y153886D01*
X145347D01*
Y153932D01*
X145301D01*
Y154023D01*
X145256D01*
Y154114D01*
X145210D01*
Y154160D01*
X145165D01*
Y154297D01*
X145119D01*
Y154342D01*
X145073D01*
Y154388D01*
X145028D01*
Y154479D01*
X144982D01*
Y154570D01*
X144937D01*
Y154616D01*
X144891D01*
Y154707D01*
X144846D01*
Y154844D01*
X144709D01*
Y154753D01*
X144663D01*
Y154707D01*
X144709D01*
Y152656D01*
X144618D01*
Y152610D01*
X143752D01*
Y152656D01*
X143706D01*
Y152701D01*
X143660D01*
Y152793D01*
X143706D01*
Y156621D01*
X143660D01*
Y156713D01*
X143706D01*
Y156849D01*
X144709D01*
Y156758D01*
X144754D01*
Y156713D01*
X144800D01*
Y156621D01*
X144846D01*
Y156530D01*
X144891D01*
Y156485D01*
X144937D01*
Y156394D01*
X144982D01*
Y156348D01*
X145028D01*
Y156211D01*
X145073D01*
Y156166D01*
X145119D01*
Y156074D01*
X145165D01*
Y155983D01*
X145210D01*
Y155938D01*
X145256D01*
Y155847D01*
X145301D01*
Y155801D01*
X145347D01*
Y155710D01*
X145393D01*
Y155619D01*
X145438D01*
Y155573D01*
X145484D01*
Y155482D01*
X145529D01*
Y155436D01*
X145575D01*
Y155345D01*
X145621D01*
Y155254D01*
X145666D01*
Y155163D01*
X145712D01*
Y155117D01*
X145757D01*
Y155072D01*
X145803D01*
Y155026D01*
X145848D01*
Y155072D01*
X145894D01*
Y155117D01*
X145940D01*
Y155208D01*
X145985D01*
Y155254D01*
X146031D01*
Y155391D01*
X146076D01*
Y155436D01*
X146122D01*
Y155482D01*
X146167D01*
Y155619D01*
X146213D01*
Y155664D01*
X146259D01*
Y155755D01*
X146304D01*
Y155801D01*
X146350D01*
Y155892D01*
X146395D01*
Y155983D01*
X146441D01*
Y156029D01*
X146486D01*
Y156120D01*
X146532D01*
Y156211D01*
X146578D01*
Y156257D01*
X146623D01*
Y156348D01*
X146669D01*
Y156439D01*
X146714D01*
Y156530D01*
X146760D01*
Y156576D01*
X146806D01*
Y156667D01*
X146851D01*
Y156713D01*
X146897D01*
Y156804D01*
X146942D01*
Y156849D01*
X147945D01*
Y152747D01*
D02*
G37*
G36*
X138327Y156804D02*
X138373D01*
Y152656D01*
X138327D01*
Y152610D01*
X137416D01*
Y152656D01*
X137370D01*
Y152701D01*
X137325D01*
Y152747D01*
X137370D01*
Y154935D01*
X137279D01*
Y154889D01*
X137188D01*
Y154798D01*
X137142D01*
Y154753D01*
X137097D01*
Y154661D01*
X137051D01*
Y154570D01*
X137006D01*
Y154525D01*
X136960D01*
Y154479D01*
X136914D01*
Y154388D01*
X136869D01*
Y154297D01*
X136823D01*
Y154206D01*
X136778D01*
Y154160D01*
X136732D01*
Y154114D01*
X136687D01*
Y154023D01*
X136641D01*
Y153932D01*
X136595D01*
Y153886D01*
X136550D01*
Y153841D01*
X136504D01*
Y153750D01*
X136459D01*
Y153659D01*
X136413D01*
Y153613D01*
X136367D01*
Y153522D01*
X136322D01*
Y153476D01*
X136276D01*
Y153385D01*
X136231D01*
Y153294D01*
X136185D01*
Y153248D01*
X136140D01*
Y153157D01*
X136094D01*
Y153066D01*
X136048D01*
Y153021D01*
X136003D01*
Y152975D01*
X135957D01*
Y152884D01*
X135912D01*
Y152793D01*
X135866D01*
Y152747D01*
X135820D01*
Y152656D01*
X135729D01*
Y152610D01*
X135000D01*
Y152656D01*
X134909D01*
Y153431D01*
Y153476D01*
Y156758D01*
X134954D01*
Y156849D01*
X135912D01*
Y156804D01*
X135957D01*
Y154798D01*
X136003D01*
Y154753D01*
X136048D01*
Y154798D01*
X136094D01*
Y154935D01*
X136140D01*
Y154981D01*
X136185D01*
Y155072D01*
X136231D01*
Y155117D01*
X136276D01*
Y155163D01*
X136322D01*
Y155299D01*
X136367D01*
Y155345D01*
X136413D01*
Y155436D01*
X136459D01*
Y155482D01*
X136504D01*
Y155573D01*
X136550D01*
Y155619D01*
X136595D01*
Y155710D01*
X136641D01*
Y155801D01*
X136687D01*
Y155847D01*
X136732D01*
Y155938D01*
X136778D01*
Y155983D01*
X136823D01*
Y156029D01*
X136869D01*
Y156166D01*
X136914D01*
Y156211D01*
X136960D01*
Y156302D01*
X137006D01*
Y156348D01*
X137051D01*
Y156394D01*
X137097D01*
Y156485D01*
X137142D01*
Y156576D01*
X137188D01*
Y156667D01*
X137233D01*
Y156713D01*
X137279D01*
Y156804D01*
X137325D01*
Y156849D01*
X138327D01*
Y156804D01*
D02*
G37*
G36*
X158019D02*
X158064D01*
Y152656D01*
X158019D01*
Y152610D01*
X156059D01*
Y152656D01*
X155694D01*
Y152701D01*
X155603D01*
Y152747D01*
X155466D01*
Y152793D01*
X155420D01*
Y152838D01*
X155329D01*
Y152884D01*
X155284D01*
Y152929D01*
X155238D01*
Y152975D01*
X155147D01*
Y153066D01*
X155101D01*
Y153112D01*
X155056D01*
Y153157D01*
X155010D01*
Y153248D01*
X154965D01*
Y153294D01*
X154919D01*
Y153385D01*
X154874D01*
Y153522D01*
X154828D01*
Y153659D01*
X154782D01*
Y154206D01*
X154828D01*
Y154342D01*
X154874D01*
Y154434D01*
X154919D01*
Y154570D01*
X155010D01*
Y154661D01*
X155056D01*
Y154753D01*
X155101D01*
Y154844D01*
X155147D01*
Y154981D01*
X155101D01*
Y155072D01*
X155056D01*
Y155117D01*
X155010D01*
Y155345D01*
X154965D01*
Y155847D01*
X155010D01*
Y156029D01*
X155056D01*
Y156120D01*
X155101D01*
Y156211D01*
X155147D01*
Y156302D01*
X155193D01*
Y156348D01*
X155238D01*
Y156439D01*
X155329D01*
Y156485D01*
X155375D01*
Y156530D01*
X155420D01*
Y156576D01*
X155466D01*
Y156621D01*
X155512D01*
Y156667D01*
X155603D01*
Y156713D01*
X155648D01*
Y156758D01*
X155831D01*
Y156804D01*
X155967D01*
Y156849D01*
X158019D01*
Y156804D01*
D02*
G37*
G36*
X154326Y152656D02*
X154281D01*
Y152610D01*
X151728D01*
Y152656D01*
X151683D01*
Y153476D01*
X151728D01*
Y153567D01*
X153324D01*
Y153613D01*
X153369D01*
Y154206D01*
X153324D01*
Y154251D01*
X153187D01*
Y154297D01*
X153096D01*
Y154251D01*
X151956D01*
Y154297D01*
X151865D01*
Y155163D01*
X151911D01*
Y155208D01*
X153324D01*
Y155254D01*
X153369D01*
Y155847D01*
X153324D01*
Y155892D01*
X151774D01*
Y155938D01*
X151728D01*
Y156804D01*
X151774D01*
Y156849D01*
X154326D01*
Y152656D01*
D02*
G37*
G36*
X151045D02*
X150999D01*
Y152610D01*
X148492D01*
Y152656D01*
X148447D01*
Y152701D01*
X148401D01*
Y152793D01*
X148447D01*
Y153385D01*
X148401D01*
Y153431D01*
X148447D01*
Y153522D01*
X148492D01*
Y153567D01*
X150042D01*
Y153613D01*
X150087D01*
Y155482D01*
Y155527D01*
Y156849D01*
X151045D01*
Y152656D01*
D02*
G37*
G36*
X134499Y156029D02*
X134544D01*
Y155983D01*
X134499D01*
Y155938D01*
X134453D01*
Y155892D01*
X133450D01*
Y152701D01*
Y152656D01*
X133405D01*
Y152610D01*
X132493D01*
Y152656D01*
X132447D01*
Y155847D01*
X132402D01*
Y155892D01*
X131399D01*
Y156849D01*
X134499D01*
Y156029D01*
D02*
G37*
G36*
X130989Y156804D02*
X131034D01*
Y152656D01*
X130989D01*
Y152610D01*
X128436D01*
Y152656D01*
X128391D01*
Y153522D01*
X128436D01*
Y153567D01*
X130032D01*
Y153613D01*
X130077D01*
Y154160D01*
X130032D01*
Y154251D01*
X129895D01*
Y154297D01*
X129804D01*
Y154251D01*
X128664D01*
Y154297D01*
X128573D01*
Y155208D01*
X130032D01*
Y155254D01*
X130077D01*
Y155345D01*
Y155391D01*
Y155801D01*
X130032D01*
Y155892D01*
X128436D01*
Y156849D01*
X130989D01*
Y156804D01*
D02*
G37*
G36*
X141199D02*
X141473D01*
Y156758D01*
X141655D01*
Y156713D01*
X141792D01*
Y156667D01*
X141883D01*
Y156621D01*
X142019D01*
Y156576D01*
X142065D01*
Y156530D01*
X142156D01*
Y156485D01*
X142247D01*
Y156439D01*
X142293D01*
Y156394D01*
X142339D01*
Y156348D01*
X142430D01*
Y156302D01*
X142475D01*
Y156257D01*
X142521D01*
Y156211D01*
X142567D01*
Y156166D01*
X142612D01*
Y156120D01*
X142658D01*
Y156074D01*
X142703D01*
Y155983D01*
X142749D01*
Y155938D01*
X142794D01*
Y155892D01*
X142840D01*
Y155801D01*
X142886D01*
Y155710D01*
X142931D01*
Y155619D01*
X142977D01*
Y155527D01*
X143022D01*
Y155482D01*
X143068D01*
Y155254D01*
X143114D01*
Y155163D01*
X143159D01*
Y154206D01*
X143114D01*
Y154114D01*
X143068D01*
Y153886D01*
X143022D01*
Y153795D01*
X142977D01*
Y153704D01*
X142931D01*
Y153659D01*
X142886D01*
Y153567D01*
X142840D01*
Y153476D01*
X142794D01*
Y153431D01*
X142749D01*
Y153340D01*
X142703D01*
Y153294D01*
X142658D01*
Y153248D01*
X142612D01*
Y153203D01*
X142567D01*
Y153157D01*
X142521D01*
Y153112D01*
X142475D01*
Y153066D01*
X142430D01*
Y153021D01*
X142384D01*
Y152975D01*
X142293D01*
Y152929D01*
X142247D01*
Y152884D01*
X142202D01*
Y152838D01*
X142111D01*
Y152793D01*
X142019D01*
Y152747D01*
X141928D01*
Y152701D01*
X141837D01*
Y152656D01*
X141700D01*
Y152610D01*
X141564D01*
Y152565D01*
X141245D01*
Y152519D01*
X140743D01*
Y152565D01*
X140470D01*
Y152610D01*
X140333D01*
Y152656D01*
X140196D01*
Y152701D01*
X140105D01*
Y152747D01*
X140014D01*
Y152793D01*
X139923D01*
Y152838D01*
X139832D01*
Y152884D01*
X139786D01*
Y152929D01*
X139695D01*
Y152975D01*
X139649D01*
Y153021D01*
X139604D01*
Y153066D01*
X139558D01*
Y153112D01*
X139513D01*
Y153157D01*
X139467D01*
Y153203D01*
X139421D01*
Y153248D01*
X139376D01*
Y153294D01*
X139330D01*
Y153340D01*
X139285D01*
Y153385D01*
X139239D01*
Y153476D01*
X139193D01*
Y153522D01*
X139148D01*
Y153613D01*
X139102D01*
Y153704D01*
X139057D01*
Y153795D01*
X139011D01*
Y153886D01*
X138966D01*
Y154023D01*
X138920D01*
Y154251D01*
X138874D01*
Y154479D01*
X138829D01*
Y154844D01*
X138874D01*
Y155117D01*
X138920D01*
Y155345D01*
X138966D01*
Y155436D01*
X139011D01*
Y155573D01*
X139057D01*
Y155664D01*
X139102D01*
Y155710D01*
X139148D01*
Y155847D01*
X139193D01*
Y155892D01*
X139239D01*
Y155938D01*
X139285D01*
Y156029D01*
X139330D01*
Y156074D01*
X139376D01*
Y156120D01*
X139421D01*
Y156166D01*
X139467D01*
Y156211D01*
X139513D01*
Y156257D01*
X139558D01*
Y156302D01*
X139604D01*
Y156348D01*
X139649D01*
Y156394D01*
X139741D01*
Y156439D01*
X139786D01*
Y156485D01*
X139832D01*
Y156530D01*
X139923D01*
Y156576D01*
X140014D01*
Y156621D01*
X140105D01*
Y156667D01*
X140196D01*
Y156713D01*
X140333D01*
Y156758D01*
X140561D01*
Y156804D01*
X140789D01*
Y156849D01*
X141199D01*
Y156804D01*
D02*
G37*
G36*
X139057Y151152D02*
X139102D01*
Y148417D01*
X139057D01*
Y148371D01*
X138419D01*
Y149830D01*
X138373D01*
Y149875D01*
X138327D01*
Y149830D01*
X138282D01*
Y149784D01*
X138236D01*
Y149693D01*
X138191D01*
Y149647D01*
X138145D01*
Y149556D01*
X138100D01*
Y149511D01*
X138054D01*
Y149419D01*
X138008D01*
Y149328D01*
X137963D01*
Y149283D01*
X137917D01*
Y149192D01*
X137872D01*
Y149146D01*
X137826D01*
Y149055D01*
X137780D01*
Y149009D01*
X137735D01*
Y148918D01*
X137689D01*
Y148827D01*
X137644D01*
Y148781D01*
X137598D01*
Y148690D01*
X137553D01*
Y148645D01*
X137507D01*
Y148554D01*
X137461D01*
Y148508D01*
X137416D01*
Y148462D01*
X137370D01*
Y148371D01*
X136823D01*
Y151197D01*
X137461D01*
Y151152D01*
X137507D01*
Y151060D01*
X137461D01*
Y149875D01*
X137507D01*
Y149830D01*
X137553D01*
Y149875D01*
X137598D01*
Y149921D01*
X137644D01*
Y150012D01*
X137689D01*
Y150103D01*
X137735D01*
Y150194D01*
X137826D01*
Y150331D01*
X137872D01*
Y150377D01*
X137917D01*
Y150468D01*
X137963D01*
Y150514D01*
X138008D01*
Y150559D01*
X138054D01*
Y150696D01*
X138100D01*
Y150741D01*
X138145D01*
Y150832D01*
X138191D01*
Y150878D01*
X138236D01*
Y150969D01*
X138282D01*
Y151060D01*
X138327D01*
Y151106D01*
X138373D01*
Y151152D01*
X138419D01*
Y151197D01*
X139057D01*
Y151152D01*
D02*
G37*
G36*
X148811D02*
X148948D01*
Y151106D01*
X149085D01*
Y151060D01*
X149176D01*
Y151015D01*
X149221D01*
Y150969D01*
X149358D01*
Y150924D01*
X149404D01*
Y150878D01*
X149449D01*
Y150832D01*
X149495D01*
Y150787D01*
X149540D01*
Y150741D01*
X149632D01*
Y150650D01*
X149677D01*
Y150605D01*
X149723D01*
Y150514D01*
X149768D01*
Y150468D01*
X149814D01*
Y150377D01*
X149859D01*
Y150240D01*
X149905D01*
Y150149D01*
X149951D01*
Y149328D01*
X149905D01*
Y149192D01*
X149859D01*
Y149055D01*
X149814D01*
Y149009D01*
X149768D01*
Y148918D01*
X149723D01*
Y148873D01*
X149677D01*
Y148827D01*
X149632D01*
Y148736D01*
X149586D01*
Y148690D01*
X149540D01*
Y148645D01*
X149495D01*
Y148599D01*
X149404D01*
Y148554D01*
X149358D01*
Y148508D01*
X149267D01*
Y148462D01*
X149176D01*
Y148417D01*
X149130D01*
Y148371D01*
X148948D01*
Y148326D01*
X148857D01*
Y148280D01*
X148173D01*
Y148326D01*
X148127D01*
Y148371D01*
X147945D01*
Y148417D01*
X147899D01*
Y148462D01*
X147763D01*
Y148508D01*
X147717D01*
Y148554D01*
X147672D01*
Y148599D01*
X147581D01*
Y148690D01*
X147489D01*
Y148736D01*
X147444D01*
Y148827D01*
X147398D01*
Y148873D01*
X147353D01*
Y148918D01*
X147307D01*
Y149055D01*
X147353D01*
Y149100D01*
X147444D01*
Y149146D01*
X147535D01*
Y149192D01*
X147581D01*
Y149237D01*
X147717D01*
Y149328D01*
X147854D01*
Y149283D01*
X147899D01*
Y149237D01*
X147945D01*
Y149192D01*
X147991D01*
Y149146D01*
X148036D01*
Y149100D01*
X148127D01*
Y149055D01*
X148173D01*
Y149009D01*
X148310D01*
Y148964D01*
X148401D01*
Y148918D01*
X148674D01*
Y148964D01*
X148766D01*
Y149009D01*
X148902D01*
Y149055D01*
X148948D01*
Y149100D01*
X149039D01*
Y149146D01*
X149085D01*
Y149192D01*
X149130D01*
Y149283D01*
X149176D01*
Y149328D01*
X149221D01*
Y149419D01*
X149267D01*
Y149511D01*
X149313D01*
Y149967D01*
X149267D01*
Y150058D01*
X149221D01*
Y150149D01*
X149176D01*
Y150194D01*
X149130D01*
Y150286D01*
X149085D01*
Y150331D01*
X148994D01*
Y150377D01*
X148948D01*
Y150422D01*
X148857D01*
Y150468D01*
X148720D01*
Y150514D01*
X148355D01*
Y150468D01*
X148173D01*
Y150422D01*
X148127D01*
Y150377D01*
X148082D01*
Y150331D01*
X147991D01*
Y150286D01*
X147945D01*
Y150240D01*
X147899D01*
Y150194D01*
X147854D01*
Y150149D01*
X147763D01*
Y150194D01*
X147717D01*
Y150240D01*
X147581D01*
Y150286D01*
X147535D01*
Y150331D01*
X147398D01*
Y150377D01*
X147353D01*
Y150468D01*
X147307D01*
Y150559D01*
X147353D01*
Y150605D01*
X147398D01*
Y150650D01*
X147444D01*
Y150696D01*
X147489D01*
Y150741D01*
X147535D01*
Y150787D01*
X147581D01*
Y150832D01*
X147626D01*
Y150878D01*
X147672D01*
Y150924D01*
X147717D01*
Y150969D01*
X147808D01*
Y151015D01*
X147899D01*
Y151060D01*
X148036D01*
Y151106D01*
X148127D01*
Y151152D01*
X148310D01*
Y151197D01*
X148811D01*
Y151152D01*
D02*
G37*
G36*
X134088D02*
X134225D01*
Y151106D01*
X134362D01*
Y151060D01*
X134453D01*
Y151015D01*
X134544D01*
Y150969D01*
X134635D01*
Y150924D01*
X134681D01*
Y150878D01*
X134727D01*
Y150832D01*
X134818D01*
Y150787D01*
X134863D01*
Y150696D01*
X134909D01*
Y150650D01*
X134954D01*
Y150605D01*
X135000D01*
Y150559D01*
X135046D01*
Y150514D01*
X135091D01*
Y150377D01*
X135137D01*
Y150331D01*
X135182D01*
Y150103D01*
X135228D01*
Y150012D01*
X135274D01*
Y149465D01*
X135228D01*
Y149328D01*
X135182D01*
Y149146D01*
X135137D01*
Y149100D01*
X135091D01*
Y148964D01*
X135046D01*
Y148918D01*
X135000D01*
Y148873D01*
X134954D01*
Y148781D01*
X134909D01*
Y148736D01*
X134863D01*
Y148690D01*
X134818D01*
Y148645D01*
X134772D01*
Y148599D01*
X134681D01*
Y148554D01*
X134635D01*
Y148508D01*
X134590D01*
Y148462D01*
X134499D01*
Y148417D01*
X134453D01*
Y148371D01*
X134271D01*
Y148326D01*
X134134D01*
Y148280D01*
X133496D01*
Y148326D01*
X133359D01*
Y148371D01*
X133222D01*
Y148417D01*
X133177D01*
Y148462D01*
X133086D01*
Y148508D01*
X132994D01*
Y148554D01*
X132949D01*
Y148599D01*
X132903D01*
Y148645D01*
X132858D01*
Y148690D01*
X132766D01*
Y148736D01*
X132721D01*
Y148827D01*
X132675D01*
Y148918D01*
X132584D01*
Y149055D01*
X132630D01*
Y149100D01*
X132766D01*
Y149146D01*
X132812D01*
Y149192D01*
X132858D01*
Y149237D01*
X132994D01*
Y149283D01*
X133040D01*
Y149328D01*
X133177D01*
Y149283D01*
X133222D01*
Y149192D01*
X133268D01*
Y149146D01*
X133314D01*
Y149100D01*
X133405D01*
Y149055D01*
X133450D01*
Y149009D01*
X133587D01*
Y148964D01*
X133724D01*
Y148918D01*
X133952D01*
Y148964D01*
X134088D01*
Y149009D01*
X134225D01*
Y149100D01*
X134316D01*
Y149146D01*
X134362D01*
Y149192D01*
X134407D01*
Y149237D01*
X134453D01*
Y149328D01*
X134499D01*
Y149374D01*
X134544D01*
Y149511D01*
X134590D01*
Y149921D01*
X134544D01*
Y150103D01*
X134499D01*
Y150149D01*
X134453D01*
Y150194D01*
X134407D01*
Y150286D01*
X134316D01*
Y150331D01*
X134271D01*
Y150377D01*
X134225D01*
Y150422D01*
X134179D01*
Y150468D01*
X134043D01*
Y150514D01*
X133633D01*
Y150468D01*
X133496D01*
Y150422D01*
X133405D01*
Y150377D01*
X133359D01*
Y150331D01*
X133268D01*
Y150286D01*
X133222D01*
Y150194D01*
X133177D01*
Y150149D01*
X133040D01*
Y150194D01*
X132994D01*
Y150240D01*
X132858D01*
Y150286D01*
X132812D01*
Y150331D01*
X132721D01*
Y150377D01*
X132630D01*
Y150422D01*
X132584D01*
Y150514D01*
X132630D01*
Y150559D01*
X132675D01*
Y150650D01*
X132721D01*
Y150696D01*
X132766D01*
Y150741D01*
X132812D01*
Y150787D01*
X132858D01*
Y150832D01*
X132903D01*
Y150878D01*
X132994D01*
Y150924D01*
X133040D01*
Y150969D01*
X133131D01*
Y151015D01*
X133177D01*
Y151060D01*
X133314D01*
Y151106D01*
X133405D01*
Y151152D01*
X133587D01*
Y151197D01*
X134088D01*
Y151152D01*
D02*
G37*
G36*
X156195Y148371D02*
X154463D01*
Y148417D01*
X154418D01*
Y148554D01*
X154463D01*
Y148599D01*
X154418D01*
Y148964D01*
X154463D01*
Y149009D01*
X155512D01*
Y149055D01*
X155557D01*
Y149419D01*
X155512D01*
Y149465D01*
X154600D01*
Y149511D01*
X154554D01*
Y150058D01*
X154600D01*
Y150103D01*
X155512D01*
Y150149D01*
X155557D01*
Y150514D01*
X155512D01*
Y150559D01*
X154463D01*
Y151197D01*
X156195D01*
Y148371D01*
D02*
G37*
G36*
X154007Y150787D02*
Y150741D01*
Y148371D01*
X152275D01*
Y149009D01*
X153324D01*
Y149055D01*
X153369D01*
Y151197D01*
X154007D01*
Y150787D01*
D02*
G37*
G36*
X151956Y148964D02*
Y148918D01*
Y148371D01*
X150224D01*
Y148417D01*
X150179D01*
Y148964D01*
X150224D01*
Y149009D01*
X151273D01*
Y149100D01*
X151318D01*
Y149146D01*
X151273D01*
Y149328D01*
X151318D01*
Y149374D01*
X151273D01*
Y149465D01*
X150315D01*
Y150103D01*
X151273D01*
Y150194D01*
X151318D01*
Y150240D01*
X151273D01*
Y150422D01*
X151318D01*
Y150468D01*
X151273D01*
Y150559D01*
X150224D01*
Y151060D01*
X150179D01*
Y151152D01*
X150224D01*
Y151197D01*
X151956D01*
Y148964D01*
D02*
G37*
G36*
X147079Y151152D02*
X147125D01*
Y151060D01*
X147079D01*
Y150696D01*
X147125D01*
Y150605D01*
X147079D01*
Y150559D01*
X146395D01*
Y150514D01*
X146350D01*
Y150240D01*
Y150194D01*
Y148371D01*
X145712D01*
Y150514D01*
X145666D01*
Y150559D01*
X145028D01*
Y150605D01*
X144982D01*
Y151152D01*
X145028D01*
Y151197D01*
X147079D01*
Y151152D01*
D02*
G37*
G36*
X144663Y148371D02*
X144025D01*
Y148417D01*
X143980D01*
Y149237D01*
X143615D01*
Y149146D01*
X143569D01*
Y149100D01*
X143524D01*
Y148964D01*
X143478D01*
Y148918D01*
X143433D01*
Y148873D01*
X143387D01*
Y148736D01*
X143341D01*
Y148690D01*
X143296D01*
Y148599D01*
X143250D01*
Y148508D01*
X143205D01*
Y148462D01*
X143159D01*
Y148371D01*
X142430D01*
Y148417D01*
X142384D01*
Y148462D01*
X142430D01*
Y148508D01*
X142475D01*
Y148554D01*
X142521D01*
Y148645D01*
X142567D01*
Y148736D01*
X142612D01*
Y148827D01*
X142658D01*
Y148918D01*
X142703D01*
Y148964D01*
X142749D01*
Y149100D01*
X142794D01*
Y149146D01*
X142840D01*
Y149237D01*
X142886D01*
Y149328D01*
X142931D01*
Y149465D01*
X142840D01*
Y149511D01*
X142794D01*
Y149556D01*
X142749D01*
Y149647D01*
X142703D01*
Y149693D01*
X142658D01*
Y149784D01*
X142612D01*
Y149875D01*
X142567D01*
Y150012D01*
X142521D01*
Y150422D01*
X142567D01*
Y150559D01*
X142612D01*
Y150650D01*
X142658D01*
Y150741D01*
X142703D01*
Y150787D01*
X142749D01*
Y150878D01*
X142794D01*
Y150924D01*
X142840D01*
Y150969D01*
X142886D01*
Y151015D01*
X142977D01*
Y151060D01*
X143022D01*
Y151106D01*
X143159D01*
Y151152D01*
X143250D01*
Y151197D01*
X144663D01*
Y148371D01*
D02*
G37*
G36*
X136276D02*
X135638D01*
Y148417D01*
X135593D01*
Y151152D01*
X135638D01*
Y151197D01*
X136276D01*
Y148371D01*
D02*
G37*
G36*
X141154Y151152D02*
X141290D01*
Y151106D01*
X141427D01*
Y151060D01*
X141518D01*
Y151015D01*
X141564D01*
Y150969D01*
X141700D01*
Y150924D01*
X141746D01*
Y150878D01*
X141792D01*
Y150832D01*
X141837D01*
Y150787D01*
X141883D01*
Y150741D01*
X141974D01*
Y150650D01*
X142019D01*
Y150605D01*
X142065D01*
Y150514D01*
X142111D01*
Y150468D01*
X142156D01*
Y150377D01*
X142202D01*
Y150240D01*
X142247D01*
Y150149D01*
X142293D01*
Y149328D01*
X142247D01*
Y149192D01*
X142202D01*
Y149055D01*
X142156D01*
Y149009D01*
X142111D01*
Y148918D01*
X142065D01*
Y148873D01*
X142019D01*
Y148827D01*
X141974D01*
Y148736D01*
X141928D01*
Y148690D01*
X141883D01*
Y148645D01*
X141837D01*
Y148599D01*
X141746D01*
Y148554D01*
X141700D01*
Y148508D01*
X141609D01*
Y148462D01*
X141518D01*
Y148417D01*
X141473D01*
Y148371D01*
X141290D01*
Y148326D01*
X141199D01*
Y148280D01*
X140515D01*
Y148326D01*
X140470D01*
Y148371D01*
X140242D01*
Y148417D01*
X140196D01*
Y148462D01*
X140105D01*
Y148508D01*
X140059D01*
Y148554D01*
X140014D01*
Y148599D01*
X139923D01*
Y148645D01*
X139877D01*
Y148690D01*
X139832D01*
Y148736D01*
X139786D01*
Y148827D01*
X139695D01*
Y148918D01*
X139649D01*
Y149009D01*
X139604D01*
Y149100D01*
X139558D01*
Y149192D01*
X139513D01*
Y149328D01*
X139467D01*
Y149647D01*
X139421D01*
Y149830D01*
X139467D01*
Y150149D01*
X139513D01*
Y150194D01*
Y150286D01*
X139558D01*
Y150377D01*
X139604D01*
Y150468D01*
X139649D01*
Y150514D01*
X139695D01*
Y150605D01*
X139741D01*
Y150650D01*
X139786D01*
Y150696D01*
X139832D01*
Y150741D01*
X139877D01*
Y150787D01*
X139923D01*
Y150832D01*
X139968D01*
Y150878D01*
X140014D01*
Y150924D01*
X140059D01*
Y150969D01*
X140151D01*
Y151015D01*
X140242D01*
Y151060D01*
X140333D01*
Y151106D01*
X140470D01*
Y151152D01*
X140606D01*
Y151197D01*
X141154D01*
Y151152D01*
D02*
G37*
G36*
X131581D02*
X131673D01*
Y151106D01*
X131809D01*
Y151060D01*
X131901D01*
Y151015D01*
X131946D01*
Y150969D01*
X131992D01*
Y150924D01*
X132037D01*
Y150878D01*
X132083D01*
Y150832D01*
X132128D01*
Y150787D01*
X132174D01*
Y150696D01*
X132220D01*
Y150559D01*
X132265D01*
Y150194D01*
X132220D01*
Y150012D01*
X132174D01*
Y149921D01*
X132128D01*
Y149875D01*
X132083D01*
Y149830D01*
X132037D01*
Y149784D01*
X131992D01*
Y149739D01*
X131946D01*
Y149693D01*
X131855D01*
Y149647D01*
X131809D01*
Y149602D01*
X131718D01*
Y149556D01*
X131581D01*
Y149511D01*
X131490D01*
Y149465D01*
X131262D01*
Y149419D01*
X131217D01*
Y149374D01*
X131080D01*
Y149328D01*
X131034D01*
Y149283D01*
X130943D01*
Y149055D01*
X130989D01*
Y149009D01*
X131080D01*
Y148964D01*
X131126D01*
Y148918D01*
X131445D01*
Y148964D01*
X131536D01*
Y149009D01*
X131673D01*
Y149100D01*
X131718D01*
Y149146D01*
X131764D01*
Y149192D01*
X131809D01*
Y149237D01*
X131946D01*
Y149192D01*
X131992D01*
Y149146D01*
X132083D01*
Y149100D01*
X132174D01*
Y149055D01*
X132220D01*
Y149009D01*
X132311D01*
Y148964D01*
X132356D01*
Y148827D01*
X132311D01*
Y148781D01*
X132265D01*
Y148690D01*
X132220D01*
Y148645D01*
X132174D01*
Y148599D01*
X132128D01*
Y148554D01*
X132083D01*
Y148508D01*
X132037D01*
Y148462D01*
X131946D01*
Y148417D01*
X131901D01*
Y148371D01*
X131718D01*
Y148326D01*
X131627D01*
Y148280D01*
X130989D01*
Y148326D01*
X130852D01*
Y148371D01*
X130715D01*
Y148417D01*
X130670D01*
Y148462D01*
X130579D01*
Y148508D01*
X130533D01*
Y148554D01*
X130487D01*
Y148599D01*
X130442D01*
Y148645D01*
X130396D01*
Y148690D01*
X130351D01*
Y148781D01*
X130305D01*
Y149009D01*
X130260D01*
Y149192D01*
X130305D01*
Y149465D01*
X130351D01*
Y149511D01*
X130396D01*
Y149602D01*
X130442D01*
Y149647D01*
X130487D01*
Y149693D01*
X130533D01*
Y149739D01*
X130579D01*
Y149784D01*
X130670D01*
Y149830D01*
X130715D01*
Y149875D01*
X130807D01*
Y149921D01*
X130898D01*
Y149967D01*
X131034D01*
Y150012D01*
X131171D01*
Y150058D01*
X131217D01*
Y150103D01*
X131399D01*
Y150149D01*
X131445D01*
Y150194D01*
X131536D01*
Y150240D01*
X131581D01*
Y150331D01*
Y150377D01*
Y150468D01*
X131490D01*
Y150514D01*
X131171D01*
Y150468D01*
X131080D01*
Y150422D01*
X131034D01*
Y150377D01*
X130989D01*
Y150331D01*
X130943D01*
Y150286D01*
X130898D01*
Y150240D01*
X130852D01*
Y150286D01*
X130807D01*
Y150331D01*
X130715D01*
Y150377D01*
X130670D01*
Y150422D01*
X130579D01*
Y150468D01*
X130487D01*
Y150514D01*
X130442D01*
Y150559D01*
X130396D01*
Y150696D01*
X130442D01*
Y150741D01*
X130487D01*
Y150832D01*
X130533D01*
Y150878D01*
X130624D01*
Y150969D01*
X130715D01*
Y151015D01*
X130761D01*
Y151060D01*
X130852D01*
Y151106D01*
X130989D01*
Y151152D01*
X131126D01*
Y151197D01*
X131581D01*
Y151152D01*
D02*
G37*
%LPC*%
G36*
X148538Y164006D02*
X148173D01*
Y163960D01*
X148127D01*
Y163914D01*
X148036D01*
Y163869D01*
X147991D01*
Y163823D01*
X147945D01*
Y163778D01*
X147899D01*
Y163732D01*
X147854D01*
Y163641D01*
X147808D01*
Y163231D01*
X147854D01*
Y163139D01*
X147899D01*
Y163094D01*
X147945D01*
Y163048D01*
X147991D01*
Y163003D01*
X148082D01*
Y162912D01*
X148310D01*
Y162866D01*
X148447D01*
Y162912D01*
X148629D01*
Y162957D01*
X148674D01*
Y163003D01*
X148766D01*
Y163094D01*
X148811D01*
Y163139D01*
X148857D01*
Y163231D01*
X148902D01*
Y163367D01*
X148948D01*
Y163504D01*
X148902D01*
Y163687D01*
X148857D01*
Y163732D01*
X148811D01*
Y163823D01*
X148766D01*
Y163914D01*
X148629D01*
Y163960D01*
X148538D01*
Y164006D01*
D02*
G37*
G36*
X157016Y155892D02*
X156013D01*
Y155847D01*
X155967D01*
Y155755D01*
X155922D01*
Y155710D01*
X155876D01*
Y155391D01*
X155922D01*
Y155345D01*
X155967D01*
Y155254D01*
X156059D01*
Y155208D01*
X156970D01*
Y155254D01*
X157016D01*
Y155299D01*
X157061D01*
Y155801D01*
X157016D01*
Y155892D01*
D02*
G37*
G36*
X156925Y154342D02*
X156059D01*
Y154297D01*
X155922D01*
Y154251D01*
X155831D01*
Y154206D01*
X155785D01*
Y154114D01*
X155739D01*
Y153750D01*
X155785D01*
Y153704D01*
X155831D01*
Y153659D01*
X155876D01*
Y153613D01*
X155922D01*
Y153567D01*
X156970D01*
Y153613D01*
X157016D01*
Y153659D01*
X157061D01*
Y154160D01*
X157016D01*
Y154297D01*
X156925D01*
Y154342D01*
D02*
G37*
G36*
X141290Y155847D02*
X140743D01*
Y155801D01*
X140606D01*
Y155755D01*
X140515D01*
Y155710D01*
X140424D01*
Y155664D01*
X140333D01*
Y155619D01*
X140287D01*
Y155573D01*
X140242D01*
Y155527D01*
X140196D01*
Y155482D01*
X140151D01*
Y155436D01*
X140105D01*
Y155391D01*
X140059D01*
Y155299D01*
X140014D01*
Y155208D01*
X139968D01*
Y155117D01*
X139923D01*
Y155026D01*
X139877D01*
Y154707D01*
X139832D01*
Y154661D01*
X139877D01*
Y154297D01*
X139923D01*
Y154206D01*
X139968D01*
Y154114D01*
X140014D01*
Y154023D01*
X140059D01*
Y153978D01*
X140105D01*
Y153932D01*
X140151D01*
Y153886D01*
X140196D01*
Y153841D01*
X140242D01*
Y153795D01*
X140287D01*
Y153750D01*
X140333D01*
Y153704D01*
X140424D01*
Y153659D01*
X140470D01*
Y153613D01*
X140561D01*
Y153567D01*
X140743D01*
Y153522D01*
X141290D01*
Y153567D01*
X141473D01*
Y153613D01*
X141518D01*
Y153659D01*
X141609D01*
Y153704D01*
X141700D01*
Y153750D01*
X141746D01*
Y153795D01*
X141792D01*
Y153841D01*
X141837D01*
Y153886D01*
X141883D01*
Y153932D01*
X141928D01*
Y153978D01*
X141974D01*
Y154069D01*
X142019D01*
Y154114D01*
X142065D01*
Y154160D01*
X142111D01*
Y154388D01*
X142156D01*
Y154479D01*
X142202D01*
Y154844D01*
X142156D01*
Y154981D01*
X142111D01*
Y155163D01*
X142065D01*
Y155208D01*
X142019D01*
Y155299D01*
X141974D01*
Y155391D01*
X141928D01*
Y155436D01*
X141883D01*
Y155482D01*
X141837D01*
Y155527D01*
X141792D01*
Y155573D01*
X141746D01*
Y155619D01*
X141655D01*
Y155664D01*
X141609D01*
Y155710D01*
X141518D01*
Y155755D01*
X141427D01*
Y155801D01*
X141290D01*
Y155847D01*
D02*
G37*
G36*
X143934Y150559D02*
X143341D01*
Y150514D01*
X143296D01*
Y150468D01*
X143250D01*
Y150422D01*
X143205D01*
Y150331D01*
X143159D01*
Y150103D01*
X143205D01*
Y150012D01*
X143250D01*
Y149967D01*
X143296D01*
Y149921D01*
X143387D01*
Y149875D01*
X143934D01*
Y149921D01*
X143980D01*
Y150514D01*
X143934D01*
Y150559D01*
D02*
G37*
G36*
X141062Y150514D02*
X140652D01*
Y150468D01*
X140561D01*
Y150422D01*
X140470D01*
Y150377D01*
X140424D01*
Y150331D01*
X140333D01*
Y150240D01*
X140242D01*
Y150149D01*
X140196D01*
Y150058D01*
X140151D01*
Y150012D01*
X140105D01*
Y149511D01*
Y149465D01*
X140151D01*
Y149419D01*
X140196D01*
Y149328D01*
X140242D01*
Y149237D01*
X140287D01*
Y149192D01*
X140333D01*
Y149146D01*
X140379D01*
Y149100D01*
X140470D01*
Y149055D01*
X140515D01*
Y149009D01*
X140652D01*
Y148964D01*
X140743D01*
Y148918D01*
X141017D01*
Y148964D01*
X141108D01*
Y149009D01*
X141245D01*
Y149055D01*
X141290D01*
Y149100D01*
X141381D01*
Y149146D01*
X141427D01*
Y149192D01*
X141473D01*
Y149283D01*
X141518D01*
Y149328D01*
X141564D01*
Y149419D01*
X141609D01*
Y149511D01*
X141655D01*
Y149967D01*
X141609D01*
Y150058D01*
X141564D01*
Y150149D01*
X141518D01*
Y150194D01*
X141473D01*
Y150286D01*
X141427D01*
Y150331D01*
X141336D01*
Y150377D01*
X141290D01*
Y150422D01*
X141199D01*
Y150468D01*
X141062D01*
Y150514D01*
D02*
G37*
%LPD*%
D12*
X299131Y94500D02*
X299116Y95502D01*
X299072Y96503D01*
X299000Y97502D01*
X298898Y98499D01*
X298767Y99493D01*
X298607Y100482D01*
X298419Y101466D01*
X298202Y102444D01*
X297957Y103416D01*
X297684Y104380D01*
X297382Y105336D01*
X297053Y106282D01*
X296697Y107219D01*
X296313Y108144D01*
X295903Y109059D01*
X295466Y109961D01*
X295004Y110849D01*
X294515Y111724D01*
X294002Y112585D01*
X293463Y113430D01*
X292901Y114259D01*
X292314Y115071D01*
X291704Y115866D01*
X291071Y116643D01*
X290416Y117401D01*
X289739Y118140D01*
X289041Y118859D01*
X288322Y119557D01*
X287583Y120234D01*
X286825Y120889D01*
X286048Y121522D01*
X285253Y122132D01*
X284441Y122719D01*
X283612Y123282D01*
X282767Y123820D01*
X281906Y124334D01*
X281031Y124822D01*
X280142Y125285D01*
X279241Y125721D01*
X278326Y126131D01*
X277401Y126515D01*
X276464Y126871D01*
X275518Y127200D01*
X274562Y127502D01*
X273598Y127775D01*
X272626Y128020D01*
X271648Y128237D01*
X270664Y128426D01*
X269675Y128585D01*
X268681Y128716D01*
X267684Y128818D01*
X266685Y128891D01*
X265684Y128934D01*
X264682Y128949D01*
X278352Y62880D02*
X279265Y63290D01*
X280166Y63727D01*
X281054Y64190D01*
X281928Y64679D01*
X282787Y65193D01*
X283632Y65732D01*
X284460Y66294D01*
X285271Y66881D01*
X286065Y67491D01*
X286841Y68124D01*
X287598Y68779D01*
X288336Y69456D01*
X289054Y70154D01*
X289752Y70873D01*
X290428Y71612D01*
X291082Y72369D01*
X291714Y73146D01*
X292323Y73941D01*
X292909Y74753D01*
X293471Y75582D01*
X294009Y76426D01*
X294522Y77286D01*
X295009Y78161D01*
X295472Y79049D01*
X295907Y79951D01*
X296317Y80864D01*
X296700Y81790D01*
X297056Y82726D01*
X297385Y83671D01*
X297686Y84627D01*
X297958Y85590D01*
X298203Y86561D01*
X298420Y87538D01*
X298608Y88522D01*
X298767Y89511D01*
X298898Y90503D01*
X299000Y91500D01*
X299073Y92498D01*
X299116Y93499D01*
X299131Y94500D01*
X93746Y79837D02*
X94183Y78942D01*
X94646Y78059D01*
X95134Y77191D01*
X95647Y76337D01*
X96184Y75498D01*
X96746Y74675D01*
X97331Y73869D01*
X97939Y73079D01*
X98570Y72308D01*
X99222Y71555D01*
X99897Y70822D01*
X100592Y70108D01*
X101307Y69415D01*
X102043Y68743D01*
X102797Y68092D01*
X103570Y67463D01*
X104361Y66857D01*
X105169Y66274D01*
X105993Y65715D01*
X106834Y65180D01*
X107689Y64669D01*
X108559Y64183D01*
X109443Y63723D01*
X110339Y63288D01*
X111248Y62880D01*
X91134Y101232D02*
X90961Y100301D01*
X90815Y99366D01*
X90694Y98427D01*
X90599Y97485D01*
X90530Y96541D01*
X90487Y95595D01*
X90470Y94648D01*
X90478Y93701D01*
X90513Y92755D01*
X124918Y128949D02*
X123931Y128935D01*
X122944Y128892D01*
X121959Y128822D01*
X120977Y128723D01*
X119998Y128596D01*
X119022Y128441D01*
X118052Y128258D01*
X117087Y128047D01*
X116129Y127809D01*
X115178Y127543D01*
X114235Y127250D01*
X113301Y126931D01*
X112376Y126584D01*
X111461Y126212D01*
X110558Y125813D01*
X109667Y125389D01*
X108787Y124939D01*
X107922Y124464D01*
X107070Y123965D01*
X106233Y123441D01*
X105411Y122893D01*
X104605Y122323D01*
X103816Y121729D01*
X103044Y121113D01*
X102290Y120475D01*
X101555Y119816D01*
X100839Y119136D01*
X100143Y118436D01*
X99467Y117716D01*
X98812Y116977D01*
X98179Y116219D01*
X97567Y115444D01*
X140300Y60051D02*
X248800Y60000D01*
X246300Y128949D02*
X264682D01*
X171800Y129000D02*
X217800D01*
X124918Y128949D02*
X143300D01*
X243051Y87544D02*
Y93542D01*
X241052Y91543D01*
X239052Y93542D01*
Y87544D01*
X236053D02*
X234054D01*
X233054Y88544D01*
Y90543D01*
X234054Y91543D01*
X236053D01*
X237053Y90543D01*
Y88544D01*
X236053Y87544D01*
X227056Y93542D02*
Y87544D01*
X230055D01*
X231055Y88544D01*
Y90543D01*
X230055Y91543D01*
X227056D01*
X222058Y87544D02*
X224057D01*
X225057Y88544D01*
Y90543D01*
X224057Y91543D01*
X222058D01*
X221058Y90543D01*
Y89543D01*
X225057D01*
X219059Y87544D02*
X217059D01*
X218059D01*
Y93542D01*
X219059D01*
X214060Y91543D02*
X213061D01*
Y90543D01*
X214060D01*
Y91543D01*
Y88544D02*
X213061D01*
Y87544D01*
X214060D01*
Y88544D01*
X203064Y93542D02*
Y87544D01*
Y90543D01*
X199065D01*
Y93542D01*
Y87544D01*
X197066Y93542D02*
X193067Y87544D01*
Y93542D02*
X197066Y87544D01*
X191068Y90543D02*
X187069D01*
X185070Y92543D02*
X184070Y93542D01*
X182071D01*
X181071Y92543D01*
Y91543D01*
X182071Y90543D01*
X183070D01*
X182071D01*
X181071Y89543D01*
Y88544D01*
X182071Y87544D01*
X184070D01*
X185070Y88544D01*
X175073Y92543D02*
X176073Y93542D01*
X178072D01*
X179072Y92543D01*
Y91543D01*
X178072Y90543D01*
X176073D01*
X175073Y89543D01*
Y88544D01*
X176073Y87544D01*
X178072D01*
X179072Y88544D01*
X173074Y90543D02*
X169075D01*
X163077Y93542D02*
X167076D01*
Y90543D01*
X165076D01*
X167076D01*
Y87544D01*
X161077Y93542D02*
Y87544D01*
X157079D01*
X155079D02*
X153080D01*
X154080D01*
Y93542D01*
X155079Y92543D01*
X150081D02*
X149081Y93542D01*
X147082D01*
X146082Y92543D01*
Y88544D01*
X147082Y87544D01*
X149081D01*
X150081Y88544D01*
Y92543D01*
X223291Y102499D02*
Y96501D01*
X220292D01*
X219292Y97501D01*
Y98500D01*
X220292Y99500D01*
X223291D01*
X220292D01*
X219292Y100500D01*
Y101499D01*
X220292Y102499D01*
X223291D01*
X217293Y96501D02*
Y102499D01*
X215293Y100500D01*
X213294Y102499D01*
Y96501D01*
X207296Y101499D02*
X208296Y102499D01*
X210295D01*
X211295Y101499D01*
Y100500D01*
X210295Y99500D01*
X208296D01*
X207296Y98500D01*
Y97501D01*
X208296Y96501D01*
X210295D01*
X211295Y97501D01*
X199299Y96501D02*
X197299D01*
X198299D01*
Y102499D01*
X199299Y101499D01*
X194300D02*
X193300Y102499D01*
X191301D01*
X190301Y101499D01*
Y97501D01*
X191301Y96501D01*
X193300D01*
X194300Y97501D01*
Y101499D01*
X188302Y96501D02*
Y100500D01*
X186303Y102499D01*
X184303Y100500D01*
Y96501D01*
Y99500D01*
X188302D01*
X176306Y101499D02*
X175306Y102499D01*
X173307D01*
X172307Y101499D01*
Y100500D01*
X173307Y99500D01*
X174307D01*
X173307D01*
X172307Y98500D01*
Y97501D01*
X173307Y96501D01*
X175306D01*
X176306Y97501D01*
X166309Y101499D02*
X167309Y102499D01*
X169308D01*
X170308Y101499D01*
Y100500D01*
X169308Y99500D01*
X167309D01*
X166309Y98500D01*
Y97501D01*
X167309Y96501D01*
X169308D01*
X170308Y97501D01*
X88801Y100500D02*
Y106498D01*
X85802D01*
X84802Y105498D01*
Y103499D01*
X85802Y102499D01*
X88801D01*
X82802Y103499D02*
X78804D01*
X80803Y105498D02*
Y101500D01*
X88801Y85500D02*
Y91498D01*
X85802D01*
X84802Y90498D01*
Y88499D01*
X85802Y87499D01*
X88801D01*
X82802Y88499D02*
X78804D01*
X162801Y136498D02*
Y130500D01*
X159802D01*
X158802Y131500D01*
Y132499D01*
X159802Y133499D01*
X162801D01*
X159802D01*
X158802Y134499D01*
Y135498D01*
X159802Y136498D01*
X162801D01*
X156802Y133499D02*
X152804D01*
X154803Y135498D02*
Y131500D01*
X235799Y136498D02*
Y130500D01*
X232800D01*
X231801Y131500D01*
Y132499D01*
X232800Y133499D01*
X235799D01*
X232800D01*
X231801Y134499D01*
Y135498D01*
X232800Y136498D01*
X235799D01*
X229801Y130500D02*
X227802D01*
X228802D01*
Y136498D01*
X229801Y135498D01*
X138801Y56498D02*
Y50500D01*
X135802D01*
X134802Y51500D01*
Y52499D01*
X135802Y53499D01*
X138801D01*
X135802D01*
X134802Y54499D01*
Y55498D01*
X135802Y56498D01*
X138801D01*
X128804Y50500D02*
X132802D01*
X128804Y54499D01*
Y55498D01*
X129804Y56498D01*
X131803D01*
X132802Y55498D01*
X258799Y56498D02*
Y50500D01*
X255800D01*
X254801Y51500D01*
Y52499D01*
X255800Y53499D01*
X258799D01*
X255800D01*
X254801Y54499D01*
Y55498D01*
X255800Y56498D01*
X258799D01*
X252801Y53499D02*
X248803D01*
X27000Y175000D02*
X29000D01*
X28000Y176000D02*
Y174000D01*
X27000Y165000D02*
X29000D01*
X298600Y140500D02*
Y146498D01*
X295601D01*
X294601Y145498D01*
Y143499D01*
X295601Y142499D01*
X298600D01*
X292602Y140500D02*
X290603D01*
X291602D01*
Y146498D01*
X292602Y145498D01*
D13*
X27435Y172300D02*
X40764D01*
X34100Y178964D02*
Y165636D01*
X353435Y20300D02*
X366764D01*
X353435Y172300D02*
X366764D01*
X27435Y96300D02*
X40764D01*
X27435Y20300D02*
X40764D01*
X34100Y26965D02*
Y13635D01*
X353435Y96300D02*
X366764D01*
X360100Y102964D02*
Y89635D01*
D31*
X95292Y124500D02*
X94554Y124926D01*
Y124074D01*
X95292Y124500D01*
D32*
X235500Y186800D02*
Y189299D01*
X234250D01*
X233834Y188883D01*
Y188050D01*
X234250Y187633D01*
X235500D01*
X231751Y186800D02*
X232584D01*
X233001Y187216D01*
Y188050D01*
X232584Y188466D01*
X231751D01*
X231335Y188050D01*
Y187633D01*
X233001D01*
X228836Y189299D02*
Y186800D01*
X230085D01*
X230502Y187216D01*
Y188050D01*
X230085Y188466D01*
X228836D01*
X228002D02*
Y186800D01*
Y187633D01*
X227586Y188050D01*
X227169Y188466D01*
X226753D01*
X225087Y186800D02*
X224254D01*
X223837Y187216D01*
Y188050D01*
X224254Y188466D01*
X225087D01*
X225503Y188050D01*
Y187216D01*
X225087Y186800D01*
X218839Y189299D02*
X219672D01*
X219255D01*
Y187216D01*
X219672Y186800D01*
X220088D01*
X220505Y187216D01*
X218006Y186800D02*
Y187216D01*
X217589D01*
Y186800D01*
X218006D01*
X213424Y189299D02*
Y186800D01*
X212174D01*
X211758Y187216D01*
Y187633D01*
X212174Y188050D01*
X213424D01*
X212174D01*
X211758Y188466D01*
Y188883D01*
X212174Y189299D01*
X213424D01*
X209675Y186800D02*
X210508D01*
X210925Y187216D01*
Y188050D01*
X210508Y188466D01*
X209675D01*
X209259Y188050D01*
Y187633D01*
X210925D01*
X208425Y186800D02*
X207592D01*
X208009D01*
Y189299D01*
X208425D01*
X206343Y186800D02*
Y188466D01*
X205926D01*
X205510Y188050D01*
Y186800D01*
Y188050D01*
X205093Y188466D01*
X204677Y188050D01*
Y186800D01*
X203427D02*
X202594D01*
X202178Y187216D01*
Y188050D01*
X202594Y188466D01*
X203427D01*
X203844Y188050D01*
Y187216D01*
X203427Y186800D01*
X201344D02*
Y188466D01*
X200095D01*
X199678Y188050D01*
Y186800D01*
X198429Y188883D02*
Y188466D01*
X198845D01*
X198012D01*
X198429D01*
Y187216D01*
X198012Y186800D01*
X195513D02*
X196346D01*
X196763Y187216D01*
Y188050D01*
X196346Y188466D01*
X195513D01*
X195096Y188050D01*
Y187633D01*
X196763D01*
X235500Y185299D02*
Y182800D01*
X234250D01*
X233834Y183217D01*
Y184883D01*
X234250Y185299D01*
X235500D01*
X232584Y184466D02*
X231751D01*
X231335Y184050D01*
Y182800D01*
X232584D01*
X233001Y183217D01*
X232584Y183633D01*
X231335D01*
X230085Y184883D02*
Y184466D01*
X230502D01*
X229669D01*
X230085D01*
Y183217D01*
X229669Y182800D01*
X227169D02*
X228002D01*
X228419Y183217D01*
Y184050D01*
X228002Y184466D01*
X227169D01*
X226753Y184050D01*
Y183633D01*
X228419D01*
X225920Y184466D02*
X225503D01*
Y184050D01*
X225920D01*
Y184466D01*
Y183217D02*
X225503D01*
Y182800D01*
X225920D01*
Y183217D01*
X219672Y182800D02*
X221338D01*
X219672Y184466D01*
Y184883D01*
X220088Y185299D01*
X220921D01*
X221338Y184883D01*
X218839Y183217D02*
X218422Y182800D01*
X217589D01*
X217173Y183217D01*
Y184883D01*
X217589Y185299D01*
X218422D01*
X218839Y184883D01*
Y184466D01*
X218422Y184050D01*
X217173D01*
X216339Y182800D02*
X214673Y184466D01*
X213840Y182800D02*
X213007D01*
X213424D01*
Y185299D01*
X213840Y184883D01*
X210092Y182800D02*
X211758D01*
X210092Y184466D01*
Y184883D01*
X210508Y185299D01*
X211341D01*
X211758Y184883D01*
X209259Y182800D02*
X207592Y184466D01*
X205093Y182800D02*
X206759D01*
X205093Y184466D01*
Y184883D01*
X205510Y185299D01*
X206343D01*
X206759Y184883D01*
X204260D02*
X203844Y185299D01*
X203011D01*
X202594Y184883D01*
Y183217D01*
X203011Y182800D01*
X203844D01*
X204260Y183217D01*
Y184883D01*
X200095Y182800D02*
X201761D01*
X200095Y184466D01*
Y184883D01*
X200511Y185299D01*
X201344D01*
X201761Y184883D01*
X199262Y182800D02*
X198429D01*
X198845D01*
Y185299D01*
X199262Y184883D01*
X235300Y178700D02*
Y181199D01*
X234050D01*
X233634Y180783D01*
Y179950D01*
X234050Y179533D01*
X235300D01*
X232384Y178700D02*
X231551D01*
X231135Y179116D01*
Y179950D01*
X231551Y180366D01*
X232384D01*
X232801Y179950D01*
Y179116D01*
X232384Y178700D01*
X230302Y180366D02*
Y179116D01*
X229885Y178700D01*
X229469Y179116D01*
X229052Y178700D01*
X228636Y179116D01*
Y180366D01*
X226553Y178700D02*
X227386D01*
X227802Y179116D01*
Y179950D01*
X227386Y180366D01*
X226553D01*
X226136Y179950D01*
Y179533D01*
X227802D01*
X225303Y180366D02*
Y178700D01*
Y179533D01*
X224887Y179950D01*
X224470Y180366D01*
X224054D01*
X220305Y181199D02*
Y178700D01*
X219055D01*
X218639Y179116D01*
Y179533D01*
X219055Y179950D01*
X220305D01*
X219055D01*
X218639Y180366D01*
Y180783D01*
X219055Y181199D01*
X220305D01*
X217389Y178700D02*
X216556D01*
X216140Y179116D01*
Y179950D01*
X216556Y180366D01*
X217389D01*
X217806Y179950D01*
Y179116D01*
X217389Y178700D01*
X214890Y180366D02*
X214057D01*
X213640Y179950D01*
Y178700D01*
X214890D01*
X215306Y179116D01*
X214890Y179533D01*
X213640D01*
X212807Y180366D02*
Y178700D01*
Y179533D01*
X212391Y179950D01*
X211974Y180366D01*
X211558D01*
X208642Y181199D02*
Y178700D01*
X209892D01*
X210308Y179116D01*
Y179950D01*
X209892Y180366D01*
X208642D01*
X205310Y181199D02*
Y179533D01*
X204477Y178700D01*
X203644Y179533D01*
Y181199D01*
X200311Y178700D02*
X199478D01*
X199895D01*
Y181199D01*
X200311Y180783D01*
D33*
X200800Y164500D02*
D03*
M02*
