G04*
G04 #@! TF.GenerationSoftware,Altium Limited,Altium Designer,22.0.2 (36)*
G04*
G04 Layer_Color=16711935*
%FSLAX25Y25*%
%MOIN*%
G70*
G04*
G04 #@! TF.SameCoordinates,B0134727-A30E-443A-9B04-D8BCE479AFC3*
G04*
G04*
G04 #@! TF.FilePolarity,Positive*
G04*
G01*
G75*
%ADD10C,0.00787*%
%ADD34C,0.00100*%
D10*
X355610Y128622D02*
X392618D01*
Y185315D01*
X355610D02*
X392618D01*
X355610Y128622D02*
Y185315D01*
D34*
X170Y78820D02*
X838Y79551D01*
X1477Y80308D01*
X2086Y81089D01*
X2664Y81893D01*
X3210Y82719D01*
X3724Y83566D01*
X4205Y84432D01*
X4651Y85316D01*
X5063Y86217D01*
X5439Y87134D01*
X5779Y88064D01*
X6083Y89007D01*
X6349Y89960D01*
X6579Y90924D01*
X6770Y91896D01*
X6924Y92874D01*
X7040Y93858D01*
X7117Y94845D01*
X7155Y95835D01*
Y96825D01*
X7117Y97815D01*
X7040Y98802D01*
X6924Y99786D01*
X6770Y100765D01*
X6579Y101736D01*
X6349Y102700D01*
X6083Y103654D01*
X5779Y104596D01*
X5439Y105526D01*
X5062Y106443D01*
X4651Y107344D01*
X4205Y108228D01*
X3724Y109094D01*
X3210Y109941D01*
X2664Y110767D01*
X2086Y111571D01*
X1477Y112352D01*
X838Y113109D01*
X170Y113840D01*
X10045Y192770D02*
X9077Y192722D01*
X8118Y192580D01*
X7178Y192345D01*
X6266Y192018D01*
X5390Y191604D01*
X4559Y191106D01*
X3780Y190529D01*
X3062Y189878D01*
X2411Y189160D01*
X1834Y188381D01*
X1336Y187550D01*
X922Y186674D01*
X595Y185762D01*
X360Y184821D01*
X218Y183863D01*
X170Y182895D01*
X170Y9700D02*
X224Y8669D01*
X386Y7650D01*
X653Y6653D01*
X1022Y5690D01*
X1491Y4770D01*
X2053Y3904D01*
X2703Y3102D01*
X3432Y2373D01*
X4234Y1723D01*
X5100Y1161D01*
X6020Y692D01*
X6983Y323D01*
X7980Y55D01*
X8999Y-106D01*
X10030Y-160D01*
X384020D02*
X385051Y-106D01*
X386070Y55D01*
X387067Y323D01*
X388030Y692D01*
X388950Y1161D01*
X389816Y1723D01*
X390618Y2373D01*
X391347Y3102D01*
X391997Y3904D01*
X392559Y4770D01*
X393028Y5690D01*
X393397Y6653D01*
X393665Y7650D01*
X393826Y8669D01*
X393880Y9700D01*
X393880Y182895D02*
X393832Y183863D01*
X393690Y184821D01*
X393455Y185762D01*
X393128Y186674D01*
X392714Y187550D01*
X392216Y188381D01*
X391638Y189160D01*
X390988Y189878D01*
X390270Y190529D01*
X389491Y191106D01*
X388660Y191604D01*
X387784Y192018D01*
X386872Y192345D01*
X385931Y192580D01*
X384973Y192722D01*
X384005Y192770D01*
X393880Y113840D02*
X393212Y113109D01*
X392573Y112352D01*
X391964Y111571D01*
X391386Y110767D01*
X390840Y109941D01*
X390326Y109094D01*
X389845Y108228D01*
X389399Y107343D01*
X388987Y106443D01*
X388611Y105526D01*
X388271Y104596D01*
X387967Y103654D01*
X387701Y102700D01*
X387471Y101736D01*
X387280Y100764D01*
X387126Y99786D01*
X387011Y98802D01*
X386933Y97815D01*
X386895Y96825D01*
Y95835D01*
X386933Y94845D01*
X387011Y93858D01*
X387126Y92874D01*
X387280Y91896D01*
X387471Y90924D01*
X387701Y89960D01*
X387967Y89007D01*
X388271Y88064D01*
X388611Y87134D01*
X388988Y86217D01*
X389399Y85316D01*
X389845Y84432D01*
X390326Y83566D01*
X390840Y82719D01*
X391386Y81893D01*
X391964Y81089D01*
X392573Y80308D01*
X393212Y79551D01*
X393880Y78820D01*
X170Y9690D02*
Y78820D01*
Y113840D02*
Y182910D01*
X10030Y-160D02*
X384020D01*
X393880Y113840D02*
Y182910D01*
Y9690D02*
Y78820D01*
X10045Y192770D02*
X384005D01*
M02*
