%FSTAX23Y23*%
%MOIN*%
%SFA1B1*%

%IPPOS*%
%ADD12C,0.005000*%
%ADD9500C,0.040000*%
%ADD9501C,0.063000*%
%ADD9502C,0.135400*%
%LNpowerboardv1-roundholes-1*%
%LPD*%
G54D9500*
X02154Y04761D03*
G54D12*
X0Y0D02*
X12312D01*
Y18836*
X0*
Y0*
G54D9500*
X02154Y04861D03*
X02254D03*
Y04761D03*
G54D9501*
X02583Y03315D03*
Y04074D03*
X05453D03*
Y03315D03*
Y04834D03*
X02583D03*
G54D9502*
X04024Y03386D03*
X04919Y04764D03*
X03128D03*
G54D9500*
X06405Y04761D03*
Y04861D03*
X06505D03*
Y04761D03*
G54D9501*
X06833Y03315D03*
Y04074D03*
X09703D03*
Y03315D03*
Y04834D03*
X06833D03*
G54D9502*
X08274Y03386D03*
X09169Y04764D03*
X07378D03*
G54D9500*
X02154Y07433D03*
Y07533D03*
X02254D03*
Y07433D03*
G54D9501*
X02583Y05987D03*
Y06746D03*
X05453D03*
Y05987D03*
Y07506D03*
X02583D03*
G54D9502*
X04024Y06058D03*
X04919Y07436D03*
X03128D03*
G54D9500*
X06405Y07433D03*
Y07533D03*
X06505D03*
Y07433D03*
G54D9501*
X06833Y05987D03*
Y06746D03*
X09703D03*
Y05987D03*
Y07506D03*
X06833D03*
G54D9502*
X08274Y06058D03*
X09169Y07436D03*
X07378D03*
G54D9500*
X02154Y10104D03*
Y10204D03*
X02254D03*
Y10104D03*
G54D9501*
X02583Y08659D03*
Y09418D03*
X05453D03*
Y08659D03*
Y10177D03*
X02583D03*
G54D9502*
X04024Y0873D03*
X04919Y10107D03*
X03128D03*
G54D9500*
X06405Y10104D03*
Y10204D03*
X06505D03*
Y10104D03*
G54D9501*
X06833Y08659D03*
Y09418D03*
X09703D03*
Y08659D03*
Y10177D03*
X06833D03*
G54D9502*
X08274Y0873D03*
X09169Y10107D03*
X07378D03*
G54D9500*
X02154Y12776D03*
Y12876D03*
X02254D03*
Y12776D03*
G54D9501*
X02583Y1133D03*
Y12089D03*
X05453D03*
Y1133D03*
Y12849D03*
X02583D03*
G54D9502*
X04024Y11401D03*
X04919Y12779D03*
X03128D03*
G54D9500*
X06405Y12776D03*
Y12876D03*
X06505D03*
Y12776D03*
G54D9501*
X06833Y1133D03*
Y12089D03*
X09703D03*
Y1133D03*
Y12849D03*
X06833D03*
G54D9502*
X08274Y11401D03*
X09169Y12779D03*
X07378D03*
G54D9500*
X02154Y15448D03*
Y15548D03*
X02254D03*
Y15448D03*
G54D9501*
X02583Y14002D03*
Y14761D03*
X05453D03*
Y14002D03*
Y15521D03*
X02583D03*
G54D9502*
X04024Y14073D03*
X04919Y15451D03*
X03128D03*
G54D9500*
X06405Y15448D03*
Y15548D03*
X06505D03*
Y15448D03*
G54D9501*
X06833Y14002D03*
Y14761D03*
X09703D03*
Y14002D03*
Y15521D03*
X06833D03*
G54D9502*
X08274Y14073D03*
X09169Y15451D03*
X07378D03*
M02*