%FSTAX23Y23*%
%MOIN*%
%SFA1B1*%

%IPPOS*%
%ADD10C,0.010000*%
%ADD11C,0.007870*%
%ADD12C,0.005000*%
%LNpowerboardv1-1*%
%LPD*%
G54D10*
X03304Y04401D02*
X03294Y04401D01*
X03284Y04401*
X03274Y044*
X03264Y04399*
X03254Y04398*
X03245Y04396*
X03235Y04394*
X03225Y04392*
X03215Y0439*
X03206Y04387*
X03196Y04384*
X03186Y04381*
X03177Y04377*
X03168Y04373*
X03159Y04369*
X0315Y04365*
X03141Y0436*
X03132Y04355*
X03123Y0435*
X03115Y04345*
X03107Y04339*
X03098Y04333*
X03091Y04327*
X03083Y04321*
X03075Y04314*
X03068Y04307*
X03061Y043*
X03054Y04293*
X03047Y04286*
X0304Y04278*
X03034Y0427*
X03028Y04263*
X03022Y04254*
X03016Y04246*
X03011Y04238*
X03006Y04229*
X03001Y0422*
X02996Y04211*
X02992Y04202*
X02988Y04193*
X02984Y04184*
X0298Y04174*
X02977Y04165*
X02974Y04155*
X02971Y04146*
X02969Y04136*
X02967Y04126*
X02965Y04116*
X02963Y04106*
X02962Y04097*
X02961Y04087*
X0296Y04077*
X0296Y04067*
X02959Y04056*
X0296Y04046*
X0296Y04036*
X02961Y04026*
X02962Y04016*
X02963Y04006*
X02965Y03997*
X02967Y03987*
X02969Y03977*
X02971Y03967*
X02974Y03958*
X02977Y03948*
X0298Y03938*
X02984Y03929*
X02988Y0392*
X02992Y03911*
X02996Y03902*
X03001Y03893*
X03006Y03884*
X03011Y03875*
X03016Y03867*
X03022Y03859*
X03028Y0385*
X03034Y03843*
X0304Y03835*
X03047Y03827*
X03054Y0382*
X03061Y03813*
X03068Y03806*
X03075Y03799*
X03083Y03792*
X03091Y03786*
X03098Y0378*
X03107Y03774*
X03115Y03768*
X03123Y03763*
X03132Y03758*
X03141Y03753*
X0315Y03748*
X03159Y03744*
X03168Y0374*
X03177Y03736*
X03186Y03732*
X03196Y03729*
X03206Y03726*
X03215Y03723*
X03225Y03721*
X03235Y03719*
X03245Y03717*
X03254Y03715*
X03264Y03714*
X03274Y03713*
X03284Y03712*
X03294Y03712*
X03304Y03711*
G54D12*
X0Y0D02*
X12312D01*
Y18836*
X0*
Y0*
G54D10*
X05045Y04056D02*
X05045Y04067D01*
X05045Y04077*
X05044Y04087*
X05043Y04097*
X05042Y04106*
X0504Y04116*
X05038Y04126*
X05036Y04136*
X05034Y04146*
X05031Y04155*
X05028Y04165*
X05025Y04174*
X05021Y04184*
X05017Y04193*
X05013Y04202*
X05009Y04211*
X05004Y0422*
X04999Y04229*
X04994Y04238*
X04989Y04246*
X04983Y04254*
X04977Y04263*
X04971Y0427*
X04965Y04278*
X04958Y04286*
X04951Y04293*
X04944Y043*
X04937Y04307*
X0493Y04314*
X04922Y04321*
X04914Y04327*
X04907Y04333*
X04898Y04339*
X0489Y04345*
X04882Y0435*
X04873Y04355*
X04864Y0436*
X04855Y04365*
X04846Y04369*
X04837Y04373*
X04828Y04377*
X04818Y04381*
X04809Y04384*
X04799Y04387*
X0479Y0439*
X0478Y04392*
X0477Y04394*
X0476Y04396*
X0475Y04398*
X04741Y04399*
X04731Y044*
X04721Y04401*
X04711Y04401*
X047Y04401*
Y03711D02*
X04711Y03712D01*
X04721Y03712*
X04731Y03713*
X04741Y03714*
X0475Y03715*
X0476Y03717*
X0477Y03719*
X0478Y03721*
X0479Y03723*
X04799Y03726*
X04809Y03729*
X04818Y03732*
X04828Y03736*
X04837Y0374*
X04846Y03744*
X04855Y03748*
X04864Y03753*
X04873Y03758*
X04882Y03763*
X0489Y03768*
X04898Y03774*
X04907Y0378*
X04914Y03786*
X04922Y03792*
X0493Y03799*
X04937Y03806*
X04944Y03813*
X04951Y0382*
X04958Y03827*
X04965Y03835*
X04971Y03843*
X04977Y0385*
X04983Y03859*
X04989Y03867*
X04994Y03875*
X04999Y03884*
X05004Y03893*
X05009Y03902*
X05013Y03911*
X05017Y0392*
X05021Y03929*
X05025Y03938*
X05028Y03948*
X05031Y03958*
X05034Y03967*
X05036Y03977*
X05038Y03987*
X0504Y03997*
X05042Y04006*
X05043Y04016*
X05044Y04026*
X05045Y04036*
X05045Y04046*
X05045Y04056*
X03304Y03711D02*
X047D01*
X03304Y04401D02*
X047D01*
G54D11*
X02088Y04921D02*
X02081D01*
X02088*
G54D12*
X02104Y04711D02*
Y04911D01*
X02304*
X02104Y04711D02*
X02304D01*
Y04911*
X02496Y05249D02*
X05555D01*
Y02899D02*
Y05249D01*
X02496Y02899D02*
X05555D01*
X02496D02*
Y05249D01*
G54D10*
X07555Y04401D02*
X07544Y04401D01*
X07534Y04401*
X07524Y044*
X07514Y04399*
X07505Y04398*
X07495Y04396*
X07485Y04394*
X07475Y04392*
X07465Y0439*
X07456Y04387*
X07446Y04384*
X07437Y04381*
X07427Y04377*
X07418Y04373*
X07409Y04369*
X074Y04365*
X07391Y0436*
X07382Y04355*
X07373Y0435*
X07365Y04345*
X07357Y04339*
X07348Y04333*
X07341Y04327*
X07333Y04321*
X07325Y04314*
X07318Y04307*
X07311Y043*
X07304Y04293*
X07297Y04286*
X0729Y04278*
X07284Y0427*
X07278Y04263*
X07272Y04254*
X07266Y04246*
X07261Y04238*
X07256Y04229*
X07251Y0422*
X07246Y04211*
X07242Y04202*
X07238Y04193*
X07234Y04184*
X0723Y04174*
X07227Y04165*
X07224Y04155*
X07221Y04146*
X07219Y04136*
X07217Y04126*
X07215Y04116*
X07213Y04106*
X07212Y04097*
X07211Y04087*
X0721Y04077*
X0721Y04067*
X0721Y04056*
X0721Y04046*
X0721Y04036*
X07211Y04026*
X07212Y04016*
X07213Y04006*
X07215Y03997*
X07217Y03987*
X07219Y03977*
X07221Y03967*
X07224Y03958*
X07227Y03948*
X0723Y03938*
X07234Y03929*
X07238Y0392*
X07242Y03911*
X07246Y03902*
X07251Y03893*
X07256Y03884*
X07261Y03875*
X07266Y03867*
X07272Y03859*
X07278Y0385*
X07284Y03843*
X0729Y03835*
X07297Y03827*
X07304Y0382*
X07311Y03813*
X07318Y03806*
X07325Y03799*
X07333Y03792*
X07341Y03786*
X07348Y0378*
X07357Y03774*
X07365Y03768*
X07373Y03763*
X07382Y03758*
X07391Y03753*
X074Y03748*
X07409Y03744*
X07418Y0374*
X07427Y03736*
X07437Y03732*
X07446Y03729*
X07456Y03726*
X07465Y03723*
X07475Y03721*
X07485Y03719*
X07495Y03717*
X07505Y03715*
X07514Y03714*
X07524Y03713*
X07534Y03712*
X07544Y03712*
X07555Y03711*
X09296Y04056D02*
X09295Y04067D01*
X09295Y04077*
X09294Y04087*
X09293Y04097*
X09292Y04106*
X0929Y04116*
X09288Y04126*
X09286Y04136*
X09284Y04146*
X09281Y04155*
X09278Y04165*
X09275Y04174*
X09271Y04184*
X09267Y04193*
X09263Y04202*
X09259Y04211*
X09254Y0422*
X09249Y04229*
X09244Y04238*
X09239Y04246*
X09233Y04254*
X09227Y04263*
X09221Y0427*
X09215Y04278*
X09208Y04286*
X09201Y04293*
X09194Y043*
X09187Y04307*
X0918Y04314*
X09172Y04321*
X09164Y04327*
X09157Y04333*
X09148Y04339*
X0914Y04345*
X09132Y0435*
X09123Y04355*
X09114Y0436*
X09105Y04365*
X09096Y04369*
X09087Y04373*
X09078Y04377*
X09069Y04381*
X09059Y04384*
X09049Y04387*
X0904Y0439*
X0903Y04392*
X0902Y04394*
X0901Y04396*
X09001Y04398*
X08991Y04399*
X08981Y044*
X08971Y04401*
X08961Y04401*
X08951Y04401*
Y03711D02*
X08961Y03712D01*
X08971Y03712*
X08981Y03713*
X08991Y03714*
X09001Y03715*
X0901Y03717*
X0902Y03719*
X0903Y03721*
X0904Y03723*
X09049Y03726*
X09059Y03729*
X09069Y03732*
X09078Y03736*
X09087Y0374*
X09096Y03744*
X09105Y03748*
X09114Y03753*
X09123Y03758*
X09132Y03763*
X0914Y03768*
X09148Y03774*
X09157Y0378*
X09164Y03786*
X09172Y03792*
X0918Y03799*
X09187Y03806*
X09194Y03813*
X09201Y0382*
X09208Y03827*
X09215Y03835*
X09221Y03843*
X09227Y0385*
X09233Y03859*
X09239Y03867*
X09244Y03875*
X09249Y03884*
X09254Y03893*
X09259Y03902*
X09263Y03911*
X09267Y0392*
X09271Y03929*
X09275Y03938*
X09278Y03948*
X09281Y03958*
X09284Y03967*
X09286Y03977*
X09288Y03987*
X0929Y03997*
X09292Y04006*
X09293Y04016*
X09294Y04026*
X09295Y04036*
X09295Y04046*
X09296Y04056*
X07555Y03711D02*
X08951D01*
X07555Y04401D02*
X08951D01*
G54D11*
X06338Y04921D02*
X06331D01*
X06338*
G54D12*
X06355Y04711D02*
Y04911D01*
X06555*
X06355Y04711D02*
X06555D01*
Y04911*
X06746Y05249D02*
X09805D01*
Y02899D02*
Y05249D01*
X06746Y02899D02*
X09805D01*
X06746D02*
Y05249D01*
G54D10*
X03304Y07073D02*
X03294Y07073D01*
X03284Y07073*
X03274Y07072*
X03264Y07071*
X03254Y0707*
X03245Y07068*
X03235Y07066*
X03225Y07064*
X03215Y07062*
X03206Y07059*
X03196Y07056*
X03186Y07053*
X03177Y07049*
X03168Y07045*
X03159Y07041*
X0315Y07037*
X03141Y07032*
X03132Y07027*
X03123Y07022*
X03115Y07017*
X03107Y07011*
X03098Y07005*
X03091Y06999*
X03083Y06993*
X03075Y06986*
X03068Y06979*
X03061Y06972*
X03054Y06965*
X03047Y06958*
X0304Y0695*
X03034Y06942*
X03028Y06935*
X03022Y06926*
X03016Y06918*
X03011Y0691*
X03006Y06901*
X03001Y06892*
X02996Y06883*
X02992Y06874*
X02988Y06865*
X02984Y06856*
X0298Y06846*
X02977Y06837*
X02974Y06827*
X02971Y06818*
X02969Y06808*
X02967Y06798*
X02965Y06788*
X02963Y06778*
X02962Y06769*
X02961Y06759*
X0296Y06749*
X0296Y06739*
X02959Y06728*
X0296Y06718*
X0296Y06708*
X02961Y06698*
X02962Y06688*
X02963Y06678*
X02965Y06669*
X02967Y06659*
X02969Y06649*
X02971Y06639*
X02974Y0663*
X02977Y0662*
X0298Y0661*
X02984Y06601*
X02988Y06592*
X02992Y06583*
X02996Y06574*
X03001Y06565*
X03006Y06556*
X03011Y06547*
X03016Y06539*
X03022Y06531*
X03028Y06522*
X03034Y06515*
X0304Y06507*
X03047Y06499*
X03054Y06492*
X03061Y06485*
X03068Y06478*
X03075Y06471*
X03083Y06464*
X03091Y06458*
X03098Y06452*
X03107Y06446*
X03115Y0644*
X03123Y06435*
X03132Y0643*
X03141Y06425*
X0315Y0642*
X03159Y06416*
X03168Y06412*
X03177Y06408*
X03186Y06404*
X03196Y06401*
X03206Y06398*
X03215Y06395*
X03225Y06393*
X03235Y06391*
X03245Y06389*
X03254Y06387*
X03264Y06386*
X03274Y06385*
X03284Y06384*
X03294Y06384*
X03304Y06383*
X05045Y06728D02*
X05045Y06739D01*
X05045Y06749*
X05044Y06759*
X05043Y06769*
X05042Y06778*
X0504Y06788*
X05038Y06798*
X05036Y06808*
X05034Y06818*
X05031Y06827*
X05028Y06837*
X05025Y06846*
X05021Y06856*
X05017Y06865*
X05013Y06874*
X05009Y06883*
X05004Y06892*
X04999Y06901*
X04994Y0691*
X04989Y06918*
X04983Y06926*
X04977Y06935*
X04971Y06942*
X04965Y0695*
X04958Y06958*
X04951Y06965*
X04944Y06972*
X04937Y06979*
X0493Y06986*
X04922Y06993*
X04914Y06999*
X04907Y07005*
X04898Y07011*
X0489Y07017*
X04882Y07022*
X04873Y07027*
X04864Y07032*
X04855Y07037*
X04846Y07041*
X04837Y07045*
X04828Y07049*
X04818Y07053*
X04809Y07056*
X04799Y07059*
X0479Y07062*
X0478Y07064*
X0477Y07066*
X0476Y07068*
X0475Y0707*
X04741Y07071*
X04731Y07072*
X04721Y07073*
X04711Y07073*
X047Y07073*
Y06383D02*
X04711Y06384D01*
X04721Y06384*
X04731Y06385*
X04741Y06386*
X0475Y06387*
X0476Y06389*
X0477Y06391*
X0478Y06393*
X0479Y06395*
X04799Y06398*
X04809Y06401*
X04818Y06404*
X04828Y06408*
X04837Y06412*
X04846Y06416*
X04855Y0642*
X04864Y06425*
X04873Y0643*
X04882Y06435*
X0489Y0644*
X04898Y06446*
X04907Y06452*
X04914Y06458*
X04922Y06464*
X0493Y06471*
X04937Y06478*
X04944Y06485*
X04951Y06492*
X04958Y06499*
X04965Y06507*
X04971Y06515*
X04977Y06522*
X04983Y06531*
X04989Y06539*
X04994Y06547*
X04999Y06556*
X05004Y06565*
X05009Y06574*
X05013Y06583*
X05017Y06592*
X05021Y06601*
X05025Y0661*
X05028Y0662*
X05031Y0663*
X05034Y06639*
X05036Y06649*
X05038Y06659*
X0504Y06669*
X05042Y06678*
X05043Y06688*
X05044Y06698*
X05045Y06708*
X05045Y06718*
X05045Y06728*
X03304Y06383D02*
X047D01*
X03304Y07073D02*
X047D01*
G54D11*
X02088Y07593D02*
X02081D01*
X02088*
G54D12*
X02104Y07383D02*
Y07583D01*
X02304*
X02104Y07383D02*
X02304D01*
Y07583*
X02496Y07921D02*
X05555D01*
Y05571D02*
Y07921D01*
X02496Y05571D02*
X05555D01*
X02496D02*
Y07921D01*
G54D10*
X07555Y07073D02*
X07544Y07073D01*
X07534Y07073*
X07524Y07072*
X07514Y07071*
X07505Y0707*
X07495Y07068*
X07485Y07066*
X07475Y07064*
X07465Y07062*
X07456Y07059*
X07446Y07056*
X07437Y07053*
X07427Y07049*
X07418Y07045*
X07409Y07041*
X074Y07037*
X07391Y07032*
X07382Y07027*
X07373Y07022*
X07365Y07017*
X07357Y07011*
X07348Y07005*
X07341Y06999*
X07333Y06993*
X07325Y06986*
X07318Y06979*
X07311Y06972*
X07304Y06965*
X07297Y06958*
X0729Y0695*
X07284Y06942*
X07278Y06935*
X07272Y06926*
X07266Y06918*
X07261Y0691*
X07256Y06901*
X07251Y06892*
X07246Y06883*
X07242Y06874*
X07238Y06865*
X07234Y06856*
X0723Y06846*
X07227Y06837*
X07224Y06827*
X07221Y06818*
X07219Y06808*
X07217Y06798*
X07215Y06788*
X07213Y06778*
X07212Y06769*
X07211Y06759*
X0721Y06749*
X0721Y06739*
X0721Y06728*
X0721Y06718*
X0721Y06708*
X07211Y06698*
X07212Y06688*
X07213Y06678*
X07215Y06669*
X07217Y06659*
X07219Y06649*
X07221Y06639*
X07224Y0663*
X07227Y0662*
X0723Y0661*
X07234Y06601*
X07238Y06592*
X07242Y06583*
X07246Y06574*
X07251Y06565*
X07256Y06556*
X07261Y06547*
X07266Y06539*
X07272Y06531*
X07278Y06522*
X07284Y06515*
X0729Y06507*
X07297Y06499*
X07304Y06492*
X07311Y06485*
X07318Y06478*
X07325Y06471*
X07333Y06464*
X07341Y06458*
X07348Y06452*
X07357Y06446*
X07365Y0644*
X07373Y06435*
X07382Y0643*
X07391Y06425*
X074Y0642*
X07409Y06416*
X07418Y06412*
X07427Y06408*
X07437Y06404*
X07446Y06401*
X07456Y06398*
X07465Y06395*
X07475Y06393*
X07485Y06391*
X07495Y06389*
X07505Y06387*
X07514Y06386*
X07524Y06385*
X07534Y06384*
X07544Y06384*
X07555Y06383*
X09296Y06728D02*
X09295Y06739D01*
X09295Y06749*
X09294Y06759*
X09293Y06769*
X09292Y06778*
X0929Y06788*
X09288Y06798*
X09286Y06808*
X09284Y06818*
X09281Y06827*
X09278Y06837*
X09275Y06846*
X09271Y06856*
X09267Y06865*
X09263Y06874*
X09259Y06883*
X09254Y06892*
X09249Y06901*
X09244Y0691*
X09239Y06918*
X09233Y06926*
X09227Y06935*
X09221Y06942*
X09215Y0695*
X09208Y06958*
X09201Y06965*
X09194Y06972*
X09187Y06979*
X0918Y06986*
X09172Y06993*
X09164Y06999*
X09157Y07005*
X09148Y07011*
X0914Y07017*
X09132Y07022*
X09123Y07027*
X09114Y07032*
X09105Y07037*
X09096Y07041*
X09087Y07045*
X09078Y07049*
X09069Y07053*
X09059Y07056*
X09049Y07059*
X0904Y07062*
X0903Y07064*
X0902Y07066*
X0901Y07068*
X09001Y0707*
X08991Y07071*
X08981Y07072*
X08971Y07073*
X08961Y07073*
X08951Y07073*
Y06383D02*
X08961Y06384D01*
X08971Y06384*
X08981Y06385*
X08991Y06386*
X09001Y06387*
X0901Y06389*
X0902Y06391*
X0903Y06393*
X0904Y06395*
X09049Y06398*
X09059Y06401*
X09069Y06404*
X09078Y06408*
X09087Y06412*
X09096Y06416*
X09105Y0642*
X09114Y06425*
X09123Y0643*
X09132Y06435*
X0914Y0644*
X09148Y06446*
X09157Y06452*
X09164Y06458*
X09172Y06464*
X0918Y06471*
X09187Y06478*
X09194Y06485*
X09201Y06492*
X09208Y06499*
X09215Y06507*
X09221Y06515*
X09227Y06522*
X09233Y06531*
X09239Y06539*
X09244Y06547*
X09249Y06556*
X09254Y06565*
X09259Y06574*
X09263Y06583*
X09267Y06592*
X09271Y06601*
X09275Y0661*
X09278Y0662*
X09281Y0663*
X09284Y06639*
X09286Y06649*
X09288Y06659*
X0929Y06669*
X09292Y06678*
X09293Y06688*
X09294Y06698*
X09295Y06708*
X09295Y06718*
X09296Y06728*
X07555Y06383D02*
X08951D01*
X07555Y07073D02*
X08951D01*
G54D11*
X06338Y07593D02*
X06331D01*
X06338*
G54D12*
X06355Y07383D02*
Y07583D01*
X06555*
X06355Y07383D02*
X06555D01*
Y07583*
X06746Y07921D02*
X09805D01*
Y05571D02*
Y07921D01*
X06746Y05571D02*
X09805D01*
X06746D02*
Y07921D01*
G54D10*
X03304Y09744D02*
X03294Y09744D01*
X03284Y09744*
X03274Y09743*
X03264Y09742*
X03254Y09741*
X03245Y09739*
X03235Y09737*
X03225Y09735*
X03215Y09733*
X03206Y0973*
X03196Y09727*
X03186Y09724*
X03177Y0972*
X03168Y09716*
X03159Y09712*
X0315Y09708*
X03141Y09703*
X03132Y09698*
X03123Y09693*
X03115Y09688*
X03107Y09682*
X03098Y09676*
X03091Y0967*
X03083Y09664*
X03075Y09657*
X03068Y0965*
X03061Y09643*
X03054Y09636*
X03047Y09629*
X0304Y09621*
X03034Y09613*
X03028Y09606*
X03022Y09597*
X03016Y09589*
X03011Y09581*
X03006Y09572*
X03001Y09563*
X02996Y09554*
X02992Y09545*
X02988Y09536*
X02984Y09527*
X0298Y09517*
X02977Y09508*
X02974Y09498*
X02971Y09489*
X02969Y09479*
X02967Y09469*
X02965Y09459*
X02963Y09449*
X02962Y0944*
X02961Y0943*
X0296Y0942*
X0296Y09411*
X02959Y094*
X0296Y0939*
X0296Y0938*
X02961Y0937*
X02962Y0936*
X02963Y0935*
X02965Y09341*
X02967Y09331*
X02969Y09321*
X02971Y09311*
X02974Y09302*
X02977Y09292*
X0298Y09282*
X02984Y09273*
X02988Y09264*
X02992Y09255*
X02996Y09246*
X03001Y09237*
X03006Y09228*
X03011Y09219*
X03016Y09211*
X03022Y09203*
X03028Y09194*
X03034Y09187*
X0304Y09179*
X03047Y09171*
X03054Y09164*
X03061Y09157*
X03068Y0915*
X03075Y09143*
X03083Y09136*
X03091Y0913*
X03098Y09124*
X03107Y09118*
X03115Y09112*
X03123Y09107*
X03132Y09102*
X03141Y09097*
X0315Y09092*
X03159Y09088*
X03168Y09084*
X03177Y0908*
X03186Y09076*
X03196Y09073*
X03206Y0907*
X03215Y09067*
X03225Y09065*
X03235Y09063*
X03245Y09061*
X03254Y09059*
X03264Y09058*
X03274Y09057*
X03284Y09056*
X03294Y09056*
X03304Y09055*
X05045Y094D02*
X05045Y09411D01*
X05045Y0942*
X05044Y0943*
X05043Y0944*
X05042Y09449*
X0504Y09459*
X05038Y09469*
X05036Y09479*
X05034Y09489*
X05031Y09498*
X05028Y09508*
X05025Y09517*
X05021Y09527*
X05017Y09536*
X05013Y09545*
X05009Y09554*
X05004Y09563*
X04999Y09572*
X04994Y09581*
X04989Y09589*
X04983Y09597*
X04977Y09606*
X04971Y09613*
X04965Y09621*
X04958Y09629*
X04951Y09636*
X04944Y09643*
X04937Y0965*
X0493Y09657*
X04922Y09664*
X04914Y0967*
X04907Y09676*
X04898Y09682*
X0489Y09688*
X04882Y09693*
X04873Y09698*
X04864Y09703*
X04855Y09708*
X04846Y09712*
X04837Y09716*
X04828Y0972*
X04818Y09724*
X04809Y09727*
X04799Y0973*
X0479Y09733*
X0478Y09735*
X0477Y09737*
X0476Y09739*
X0475Y09741*
X04741Y09742*
X04731Y09743*
X04721Y09744*
X04711Y09744*
X047Y09744*
Y09055D02*
X04711Y09056D01*
X04721Y09056*
X04731Y09057*
X04741Y09058*
X0475Y09059*
X0476Y09061*
X0477Y09063*
X0478Y09065*
X0479Y09067*
X04799Y0907*
X04809Y09073*
X04818Y09076*
X04828Y0908*
X04837Y09084*
X04846Y09088*
X04855Y09092*
X04864Y09097*
X04873Y09102*
X04882Y09107*
X0489Y09112*
X04898Y09118*
X04907Y09124*
X04914Y0913*
X04922Y09136*
X0493Y09143*
X04937Y0915*
X04944Y09157*
X04951Y09164*
X04958Y09171*
X04965Y09179*
X04971Y09187*
X04977Y09194*
X04983Y09203*
X04989Y09211*
X04994Y09219*
X04999Y09228*
X05004Y09237*
X05009Y09246*
X05013Y09255*
X05017Y09264*
X05021Y09273*
X05025Y09282*
X05028Y09292*
X05031Y09302*
X05034Y09311*
X05036Y09321*
X05038Y09331*
X0504Y09341*
X05042Y0935*
X05043Y0936*
X05044Y0937*
X05045Y0938*
X05045Y0939*
X05045Y094*
X03304Y09055D02*
X047D01*
X03304Y09744D02*
X047D01*
G54D11*
X02088Y10264D02*
X02081D01*
X02088*
G54D12*
X02104Y10054D02*
Y10254D01*
X02304*
X02104Y10054D02*
X02304D01*
Y10254*
X02496Y10592D02*
X05555D01*
Y08243D02*
Y10592D01*
X02496Y08243D02*
X05555D01*
X02496D02*
Y10592D01*
G54D10*
X07555Y09744D02*
X07544Y09744D01*
X07534Y09744*
X07524Y09743*
X07514Y09742*
X07505Y09741*
X07495Y09739*
X07485Y09737*
X07475Y09735*
X07465Y09733*
X07456Y0973*
X07446Y09727*
X07437Y09724*
X07427Y0972*
X07418Y09716*
X07409Y09712*
X074Y09708*
X07391Y09703*
X07382Y09698*
X07373Y09693*
X07365Y09688*
X07357Y09682*
X07348Y09676*
X07341Y0967*
X07333Y09664*
X07325Y09657*
X07318Y0965*
X07311Y09643*
X07304Y09636*
X07297Y09629*
X0729Y09621*
X07284Y09613*
X07278Y09606*
X07272Y09597*
X07266Y09589*
X07261Y09581*
X07256Y09572*
X07251Y09563*
X07246Y09554*
X07242Y09545*
X07238Y09536*
X07234Y09527*
X0723Y09517*
X07227Y09508*
X07224Y09498*
X07221Y09489*
X07219Y09479*
X07217Y09469*
X07215Y09459*
X07213Y09449*
X07212Y0944*
X07211Y0943*
X0721Y0942*
X0721Y09411*
X0721Y094*
X0721Y0939*
X0721Y0938*
X07211Y0937*
X07212Y0936*
X07213Y0935*
X07215Y09341*
X07217Y09331*
X07219Y09321*
X07221Y09311*
X07224Y09302*
X07227Y09292*
X0723Y09282*
X07234Y09273*
X07238Y09264*
X07242Y09255*
X07246Y09246*
X07251Y09237*
X07256Y09228*
X07261Y09219*
X07266Y09211*
X07272Y09203*
X07278Y09194*
X07284Y09187*
X0729Y09179*
X07297Y09171*
X07304Y09164*
X07311Y09157*
X07318Y0915*
X07325Y09143*
X07333Y09136*
X07341Y0913*
X07348Y09124*
X07357Y09118*
X07365Y09112*
X07373Y09107*
X07382Y09102*
X07391Y09097*
X074Y09092*
X07409Y09088*
X07418Y09084*
X07427Y0908*
X07437Y09076*
X07446Y09073*
X07456Y0907*
X07465Y09067*
X07475Y09065*
X07485Y09063*
X07495Y09061*
X07505Y09059*
X07514Y09058*
X07524Y09057*
X07534Y09056*
X07544Y09056*
X07555Y09055*
X09296Y094D02*
X09295Y09411D01*
X09295Y0942*
X09294Y0943*
X09293Y0944*
X09292Y09449*
X0929Y09459*
X09288Y09469*
X09286Y09479*
X09284Y09489*
X09281Y09498*
X09278Y09508*
X09275Y09517*
X09271Y09527*
X09267Y09536*
X09263Y09545*
X09259Y09554*
X09254Y09563*
X09249Y09572*
X09244Y09581*
X09239Y09589*
X09233Y09597*
X09227Y09606*
X09221Y09613*
X09215Y09621*
X09208Y09629*
X09201Y09636*
X09194Y09643*
X09187Y0965*
X0918Y09657*
X09172Y09664*
X09164Y0967*
X09157Y09676*
X09148Y09682*
X0914Y09688*
X09132Y09693*
X09123Y09698*
X09114Y09703*
X09105Y09708*
X09096Y09712*
X09087Y09716*
X09078Y0972*
X09069Y09724*
X09059Y09727*
X09049Y0973*
X0904Y09733*
X0903Y09735*
X0902Y09737*
X0901Y09739*
X09001Y09741*
X08991Y09742*
X08981Y09743*
X08971Y09744*
X08961Y09744*
X08951Y09744*
Y09055D02*
X08961Y09056D01*
X08971Y09056*
X08981Y09057*
X08991Y09058*
X09001Y09059*
X0901Y09061*
X0902Y09063*
X0903Y09065*
X0904Y09067*
X09049Y0907*
X09059Y09073*
X09069Y09076*
X09078Y0908*
X09087Y09084*
X09096Y09088*
X09105Y09092*
X09114Y09097*
X09123Y09102*
X09132Y09107*
X0914Y09112*
X09148Y09118*
X09157Y09124*
X09164Y0913*
X09172Y09136*
X0918Y09143*
X09187Y0915*
X09194Y09157*
X09201Y09164*
X09208Y09171*
X09215Y09179*
X09221Y09187*
X09227Y09194*
X09233Y09203*
X09239Y09211*
X09244Y09219*
X09249Y09228*
X09254Y09237*
X09259Y09246*
X09263Y09255*
X09267Y09264*
X09271Y09273*
X09275Y09282*
X09278Y09292*
X09281Y09302*
X09284Y09311*
X09286Y09321*
X09288Y09331*
X0929Y09341*
X09292Y0935*
X09293Y0936*
X09294Y0937*
X09295Y0938*
X09295Y0939*
X09296Y094*
X07555Y09055D02*
X08951D01*
X07555Y09744D02*
X08951D01*
G54D11*
X06338Y10264D02*
X06331D01*
X06338*
G54D12*
X06355Y10054D02*
Y10254D01*
X06555*
X06355Y10054D02*
X06555D01*
Y10254*
X06746Y10592D02*
X09805D01*
Y08243D02*
Y10592D01*
X06746Y08243D02*
X09805D01*
X06746D02*
Y10592D01*
G54D10*
X03304Y12416D02*
X03294Y12416D01*
X03284Y12416*
X03274Y12415*
X03264Y12414*
X03254Y12413*
X03245Y12411*
X03235Y12409*
X03225Y12407*
X03215Y12405*
X03206Y12402*
X03196Y12399*
X03186Y12396*
X03177Y12392*
X03168Y12388*
X03159Y12384*
X0315Y1238*
X03141Y12375*
X03132Y1237*
X03123Y12365*
X03115Y1236*
X03107Y12354*
X03098Y12348*
X03091Y12342*
X03083Y12336*
X03075Y12329*
X03068Y12322*
X03061Y12315*
X03054Y12308*
X03047Y12301*
X0304Y12293*
X03034Y12285*
X03028Y12278*
X03022Y12269*
X03016Y12261*
X03011Y12253*
X03006Y12244*
X03001Y12235*
X02996Y12226*
X02992Y12217*
X02988Y12208*
X02984Y12199*
X0298Y12189*
X02977Y1218*
X02974Y1217*
X02971Y12161*
X02969Y12151*
X02967Y12141*
X02965Y12131*
X02963Y12121*
X02962Y12112*
X02961Y12102*
X0296Y12092*
X0296Y12082*
X02959Y12071*
X0296Y12061*
X0296Y12051*
X02961Y12041*
X02962Y12031*
X02963Y12021*
X02965Y12012*
X02967Y12002*
X02969Y11992*
X02971Y11982*
X02974Y11973*
X02977Y11963*
X0298Y11953*
X02984Y11944*
X02988Y11935*
X02992Y11926*
X02996Y11917*
X03001Y11908*
X03006Y11899*
X03011Y1189*
X03016Y11882*
X03022Y11874*
X03028Y11865*
X03034Y11858*
X0304Y1185*
X03047Y11842*
X03054Y11835*
X03061Y11828*
X03068Y11821*
X03075Y11814*
X03083Y11807*
X03091Y11801*
X03098Y11795*
X03107Y11789*
X03115Y11783*
X03123Y11778*
X03132Y11773*
X03141Y11768*
X0315Y11763*
X03159Y11759*
X03168Y11755*
X03177Y11751*
X03186Y11747*
X03196Y11744*
X03206Y11741*
X03215Y11738*
X03225Y11736*
X03235Y11734*
X03245Y11732*
X03254Y1173*
X03264Y11729*
X03274Y11728*
X03284Y11727*
X03294Y11727*
X03304Y11726*
X05045Y12071D02*
X05045Y12082D01*
X05045Y12092*
X05044Y12102*
X05043Y12112*
X05042Y12121*
X0504Y12131*
X05038Y12141*
X05036Y12151*
X05034Y12161*
X05031Y1217*
X05028Y1218*
X05025Y12189*
X05021Y12199*
X05017Y12208*
X05013Y12217*
X05009Y12226*
X05004Y12235*
X04999Y12244*
X04994Y12253*
X04989Y12261*
X04983Y12269*
X04977Y12278*
X04971Y12285*
X04965Y12293*
X04958Y12301*
X04951Y12308*
X04944Y12315*
X04937Y12322*
X0493Y12329*
X04922Y12336*
X04914Y12342*
X04907Y12348*
X04898Y12354*
X0489Y1236*
X04882Y12365*
X04873Y1237*
X04864Y12375*
X04855Y1238*
X04846Y12384*
X04837Y12388*
X04828Y12392*
X04818Y12396*
X04809Y12399*
X04799Y12402*
X0479Y12405*
X0478Y12407*
X0477Y12409*
X0476Y12411*
X0475Y12413*
X04741Y12414*
X04731Y12415*
X04721Y12416*
X04711Y12416*
X047Y12416*
Y11726D02*
X04711Y11727D01*
X04721Y11727*
X04731Y11728*
X04741Y11729*
X0475Y1173*
X0476Y11732*
X0477Y11734*
X0478Y11736*
X0479Y11738*
X04799Y11741*
X04809Y11744*
X04818Y11747*
X04828Y11751*
X04837Y11755*
X04846Y11759*
X04855Y11763*
X04864Y11768*
X04873Y11773*
X04882Y11778*
X0489Y11783*
X04898Y11789*
X04907Y11795*
X04914Y11801*
X04922Y11807*
X0493Y11814*
X04937Y11821*
X04944Y11828*
X04951Y11835*
X04958Y11842*
X04965Y1185*
X04971Y11858*
X04977Y11865*
X04983Y11874*
X04989Y11882*
X04994Y1189*
X04999Y11899*
X05004Y11908*
X05009Y11917*
X05013Y11926*
X05017Y11935*
X05021Y11944*
X05025Y11953*
X05028Y11963*
X05031Y11973*
X05034Y11982*
X05036Y11992*
X05038Y12002*
X0504Y12012*
X05042Y12021*
X05043Y12031*
X05044Y12041*
X05045Y12051*
X05045Y12061*
X05045Y12071*
X03304Y11726D02*
X047D01*
X03304Y12416D02*
X047D01*
G54D11*
X02088Y12936D02*
X02081D01*
X02088*
G54D12*
X02104Y12726D02*
Y12926D01*
X02304*
X02104Y12726D02*
X02304D01*
Y12926*
X02496Y13264D02*
X05555D01*
Y10914D02*
Y13264D01*
X02496Y10914D02*
X05555D01*
X02496D02*
Y13264D01*
G54D10*
X07555Y12416D02*
X07544Y12416D01*
X07534Y12416*
X07524Y12415*
X07514Y12414*
X07505Y12413*
X07495Y12411*
X07485Y12409*
X07475Y12407*
X07465Y12405*
X07456Y12402*
X07446Y12399*
X07437Y12396*
X07427Y12392*
X07418Y12388*
X07409Y12384*
X074Y1238*
X07391Y12375*
X07382Y1237*
X07373Y12365*
X07365Y1236*
X07357Y12354*
X07348Y12348*
X07341Y12342*
X07333Y12336*
X07325Y12329*
X07318Y12322*
X07311Y12315*
X07304Y12308*
X07297Y12301*
X0729Y12293*
X07284Y12285*
X07278Y12278*
X07272Y12269*
X07266Y12261*
X07261Y12253*
X07256Y12244*
X07251Y12235*
X07246Y12226*
X07242Y12217*
X07238Y12208*
X07234Y12199*
X0723Y12189*
X07227Y1218*
X07224Y1217*
X07221Y12161*
X07219Y12151*
X07217Y12141*
X07215Y12131*
X07213Y12121*
X07212Y12112*
X07211Y12102*
X0721Y12092*
X0721Y12082*
X0721Y12071*
X0721Y12061*
X0721Y12051*
X07211Y12041*
X07212Y12031*
X07213Y12021*
X07215Y12012*
X07217Y12002*
X07219Y11992*
X07221Y11982*
X07224Y11973*
X07227Y11963*
X0723Y11953*
X07234Y11944*
X07238Y11935*
X07242Y11926*
X07246Y11917*
X07251Y11908*
X07256Y11899*
X07261Y1189*
X07266Y11882*
X07272Y11874*
X07278Y11865*
X07284Y11858*
X0729Y1185*
X07297Y11842*
X07304Y11835*
X07311Y11828*
X07318Y11821*
X07325Y11814*
X07333Y11807*
X07341Y11801*
X07348Y11795*
X07357Y11789*
X07365Y11783*
X07373Y11778*
X07382Y11773*
X07391Y11768*
X074Y11763*
X07409Y11759*
X07418Y11755*
X07427Y11751*
X07437Y11747*
X07446Y11744*
X07456Y11741*
X07465Y11738*
X07475Y11736*
X07485Y11734*
X07495Y11732*
X07505Y1173*
X07514Y11729*
X07524Y11728*
X07534Y11727*
X07544Y11727*
X07555Y11726*
X09296Y12071D02*
X09295Y12082D01*
X09295Y12092*
X09294Y12102*
X09293Y12112*
X09292Y12121*
X0929Y12131*
X09288Y12141*
X09286Y12151*
X09284Y12161*
X09281Y1217*
X09278Y1218*
X09275Y12189*
X09271Y12199*
X09267Y12208*
X09263Y12217*
X09259Y12226*
X09254Y12235*
X09249Y12244*
X09244Y12253*
X09239Y12261*
X09233Y12269*
X09227Y12278*
X09221Y12285*
X09215Y12293*
X09208Y12301*
X09201Y12308*
X09194Y12315*
X09187Y12322*
X0918Y12329*
X09172Y12336*
X09164Y12342*
X09157Y12348*
X09148Y12354*
X0914Y1236*
X09132Y12365*
X09123Y1237*
X09114Y12375*
X09105Y1238*
X09096Y12384*
X09087Y12388*
X09078Y12392*
X09069Y12396*
X09059Y12399*
X09049Y12402*
X0904Y12405*
X0903Y12407*
X0902Y12409*
X0901Y12411*
X09001Y12413*
X08991Y12414*
X08981Y12415*
X08971Y12416*
X08961Y12416*
X08951Y12416*
Y11726D02*
X08961Y11727D01*
X08971Y11727*
X08981Y11728*
X08991Y11729*
X09001Y1173*
X0901Y11732*
X0902Y11734*
X0903Y11736*
X0904Y11738*
X09049Y11741*
X09059Y11744*
X09069Y11747*
X09078Y11751*
X09087Y11755*
X09096Y11759*
X09105Y11763*
X09114Y11768*
X09123Y11773*
X09132Y11778*
X0914Y11783*
X09148Y11789*
X09157Y11795*
X09164Y11801*
X09172Y11807*
X0918Y11814*
X09187Y11821*
X09194Y11828*
X09201Y11835*
X09208Y11842*
X09215Y1185*
X09221Y11858*
X09227Y11865*
X09233Y11874*
X09239Y11882*
X09244Y1189*
X09249Y11899*
X09254Y11908*
X09259Y11917*
X09263Y11926*
X09267Y11935*
X09271Y11944*
X09275Y11953*
X09278Y11963*
X09281Y11973*
X09284Y11982*
X09286Y11992*
X09288Y12002*
X0929Y12012*
X09292Y12021*
X09293Y12031*
X09294Y12041*
X09295Y12051*
X09295Y12061*
X09296Y12071*
X07555Y11726D02*
X08951D01*
X07555Y12416D02*
X08951D01*
G54D11*
X06338Y12936D02*
X06331D01*
X06338*
G54D12*
X06355Y12726D02*
Y12926D01*
X06555*
X06355Y12726D02*
X06555D01*
Y12926*
X06746Y13264D02*
X09805D01*
Y10914D02*
Y13264D01*
X06746Y10914D02*
X09805D01*
X06746D02*
Y13264D01*
G54D10*
X03304Y15088D02*
X03294Y15088D01*
X03284Y15088*
X03274Y15087*
X03264Y15086*
X03254Y15085*
X03245Y15083*
X03235Y15081*
X03225Y15079*
X03215Y15077*
X03206Y15074*
X03196Y15071*
X03186Y15068*
X03177Y15064*
X03168Y1506*
X03159Y15056*
X0315Y15052*
X03141Y15047*
X03132Y15042*
X03123Y15037*
X03115Y15032*
X03107Y15026*
X03098Y1502*
X03091Y15014*
X03083Y15008*
X03075Y15001*
X03068Y14994*
X03061Y14987*
X03054Y1498*
X03047Y14973*
X0304Y14965*
X03034Y14957*
X03028Y1495*
X03022Y14941*
X03016Y14933*
X03011Y14925*
X03006Y14916*
X03001Y14907*
X02996Y14898*
X02992Y14889*
X02988Y1488*
X02984Y14871*
X0298Y14861*
X02977Y14852*
X02974Y14842*
X02971Y14833*
X02969Y14823*
X02967Y14813*
X02965Y14803*
X02963Y14793*
X02962Y14784*
X02961Y14774*
X0296Y14764*
X0296Y14754*
X02959Y14743*
X0296Y14733*
X0296Y14723*
X02961Y14713*
X02962Y14703*
X02963Y14693*
X02965Y14684*
X02967Y14674*
X02969Y14664*
X02971Y14654*
X02974Y14645*
X02977Y14635*
X0298Y14625*
X02984Y14616*
X02988Y14607*
X02992Y14598*
X02996Y14589*
X03001Y1458*
X03006Y14571*
X03011Y14562*
X03016Y14554*
X03022Y14546*
X03028Y14537*
X03034Y1453*
X0304Y14522*
X03047Y14514*
X03054Y14507*
X03061Y145*
X03068Y14493*
X03075Y14486*
X03083Y14479*
X03091Y14473*
X03098Y14467*
X03107Y14461*
X03115Y14455*
X03123Y1445*
X03132Y14445*
X03141Y1444*
X0315Y14435*
X03159Y14431*
X03168Y14427*
X03177Y14423*
X03186Y14419*
X03196Y14416*
X03206Y14413*
X03215Y1441*
X03225Y14408*
X03235Y14406*
X03245Y14404*
X03254Y14402*
X03264Y14401*
X03274Y144*
X03284Y14399*
X03294Y14399*
X03304Y14398*
X05045Y14743D02*
X05045Y14754D01*
X05045Y14764*
X05044Y14774*
X05043Y14784*
X05042Y14793*
X0504Y14803*
X05038Y14813*
X05036Y14823*
X05034Y14833*
X05031Y14842*
X05028Y14852*
X05025Y14861*
X05021Y14871*
X05017Y1488*
X05013Y14889*
X05009Y14898*
X05004Y14907*
X04999Y14916*
X04994Y14925*
X04989Y14933*
X04983Y14941*
X04977Y1495*
X04971Y14957*
X04965Y14965*
X04958Y14973*
X04951Y1498*
X04944Y14987*
X04937Y14994*
X0493Y15001*
X04922Y15008*
X04914Y15014*
X04907Y1502*
X04898Y15026*
X0489Y15032*
X04882Y15037*
X04873Y15042*
X04864Y15047*
X04855Y15052*
X04846Y15056*
X04837Y1506*
X04828Y15064*
X04818Y15068*
X04809Y15071*
X04799Y15074*
X0479Y15077*
X0478Y15079*
X0477Y15081*
X0476Y15083*
X0475Y15085*
X04741Y15086*
X04731Y15087*
X04721Y15088*
X04711Y15088*
X047Y15088*
Y14398D02*
X04711Y14399D01*
X04721Y14399*
X04731Y144*
X04741Y14401*
X0475Y14402*
X0476Y14404*
X0477Y14406*
X0478Y14408*
X0479Y1441*
X04799Y14413*
X04809Y14416*
X04818Y14419*
X04828Y14423*
X04837Y14427*
X04846Y14431*
X04855Y14435*
X04864Y1444*
X04873Y14445*
X04882Y1445*
X0489Y14455*
X04898Y14461*
X04907Y14467*
X04914Y14473*
X04922Y14479*
X0493Y14486*
X04937Y14493*
X04944Y145*
X04951Y14507*
X04958Y14514*
X04965Y14522*
X04971Y1453*
X04977Y14537*
X04983Y14546*
X04989Y14554*
X04994Y14562*
X04999Y14571*
X05004Y1458*
X05009Y14589*
X05013Y14598*
X05017Y14607*
X05021Y14616*
X05025Y14625*
X05028Y14635*
X05031Y14645*
X05034Y14654*
X05036Y14664*
X05038Y14674*
X0504Y14684*
X05042Y14693*
X05043Y14703*
X05044Y14713*
X05045Y14723*
X05045Y14733*
X05045Y14743*
X03304Y14398D02*
X047D01*
X03304Y15088D02*
X047D01*
G54D11*
X02088Y15608D02*
X02081D01*
X02088*
G54D12*
X02104Y15398D02*
Y15598D01*
X02304*
X02104Y15398D02*
X02304D01*
Y15598*
X02496Y15936D02*
X05555D01*
Y13586D02*
Y15936D01*
X02496Y13586D02*
X05555D01*
X02496D02*
Y15936D01*
G54D10*
X07555Y15088D02*
X07544Y15088D01*
X07534Y15088*
X07524Y15087*
X07514Y15086*
X07505Y15085*
X07495Y15083*
X07485Y15081*
X07475Y15079*
X07465Y15077*
X07456Y15074*
X07446Y15071*
X07437Y15068*
X07427Y15064*
X07418Y1506*
X07409Y15056*
X074Y15052*
X07391Y15047*
X07382Y15042*
X07373Y15037*
X07365Y15032*
X07357Y15026*
X07348Y1502*
X07341Y15014*
X07333Y15008*
X07325Y15001*
X07318Y14994*
X07311Y14987*
X07304Y1498*
X07297Y14973*
X0729Y14965*
X07284Y14957*
X07278Y1495*
X07272Y14941*
X07266Y14933*
X07261Y14925*
X07256Y14916*
X07251Y14907*
X07246Y14898*
X07242Y14889*
X07238Y1488*
X07234Y14871*
X0723Y14861*
X07227Y14852*
X07224Y14842*
X07221Y14833*
X07219Y14823*
X07217Y14813*
X07215Y14803*
X07213Y14793*
X07212Y14784*
X07211Y14774*
X0721Y14764*
X0721Y14754*
X0721Y14743*
X0721Y14733*
X0721Y14723*
X07211Y14713*
X07212Y14703*
X07213Y14693*
X07215Y14684*
X07217Y14674*
X07219Y14664*
X07221Y14654*
X07224Y14645*
X07227Y14635*
X0723Y14625*
X07234Y14616*
X07238Y14607*
X07242Y14598*
X07246Y14589*
X07251Y1458*
X07256Y14571*
X07261Y14562*
X07266Y14554*
X07272Y14546*
X07278Y14537*
X07284Y1453*
X0729Y14522*
X07297Y14514*
X07304Y14507*
X07311Y145*
X07318Y14493*
X07325Y14486*
X07333Y14479*
X07341Y14473*
X07348Y14467*
X07357Y14461*
X07365Y14455*
X07373Y1445*
X07382Y14445*
X07391Y1444*
X074Y14435*
X07409Y14431*
X07418Y14427*
X07427Y14423*
X07437Y14419*
X07446Y14416*
X07456Y14413*
X07465Y1441*
X07475Y14408*
X07485Y14406*
X07495Y14404*
X07505Y14402*
X07514Y14401*
X07524Y144*
X07534Y14399*
X07544Y14399*
X07555Y14398*
X09296Y14743D02*
X09295Y14754D01*
X09295Y14764*
X09294Y14774*
X09293Y14784*
X09292Y14793*
X0929Y14803*
X09288Y14813*
X09286Y14823*
X09284Y14833*
X09281Y14842*
X09278Y14852*
X09275Y14861*
X09271Y14871*
X09267Y1488*
X09263Y14889*
X09259Y14898*
X09254Y14907*
X09249Y14916*
X09244Y14925*
X09239Y14933*
X09233Y14941*
X09227Y1495*
X09221Y14957*
X09215Y14965*
X09208Y14973*
X09201Y1498*
X09194Y14987*
X09187Y14994*
X0918Y15001*
X09172Y15008*
X09164Y15014*
X09157Y1502*
X09148Y15026*
X0914Y15032*
X09132Y15037*
X09123Y15042*
X09114Y15047*
X09105Y15052*
X09096Y15056*
X09087Y1506*
X09078Y15064*
X09069Y15068*
X09059Y15071*
X09049Y15074*
X0904Y15077*
X0903Y15079*
X0902Y15081*
X0901Y15083*
X09001Y15085*
X08991Y15086*
X08981Y15087*
X08971Y15088*
X08961Y15088*
X08951Y15088*
Y14398D02*
X08961Y14399D01*
X08971Y14399*
X08981Y144*
X08991Y14401*
X09001Y14402*
X0901Y14404*
X0902Y14406*
X0903Y14408*
X0904Y1441*
X09049Y14413*
X09059Y14416*
X09069Y14419*
X09078Y14423*
X09087Y14427*
X09096Y14431*
X09105Y14435*
X09114Y1444*
X09123Y14445*
X09132Y1445*
X0914Y14455*
X09148Y14461*
X09157Y14467*
X09164Y14473*
X09172Y14479*
X0918Y14486*
X09187Y14493*
X09194Y145*
X09201Y14507*
X09208Y14514*
X09215Y14522*
X09221Y1453*
X09227Y14537*
X09233Y14546*
X09239Y14554*
X09244Y14562*
X09249Y14571*
X09254Y1458*
X09259Y14589*
X09263Y14598*
X09267Y14607*
X09271Y14616*
X09275Y14625*
X09278Y14635*
X09281Y14645*
X09284Y14654*
X09286Y14664*
X09288Y14674*
X0929Y14684*
X09292Y14693*
X09293Y14703*
X09294Y14713*
X09295Y14723*
X09295Y14733*
X09296Y14743*
X07555Y14398D02*
X08951D01*
X07555Y15088D02*
X08951D01*
G54D11*
X06338Y15608D02*
X06331D01*
X06338*
G54D12*
X06355Y15398D02*
Y15598D01*
X06555*
X06355Y15398D02*
X06555D01*
Y15598*
X06746Y15936D02*
X09805D01*
Y13586D02*
Y15936D01*
X06746Y13586D02*
X09805D01*
X06746D02*
Y15936D01*
M02*